[{"time":600,"track":3,"noteNumber":68,"velocity":42,"duration":450},{"time":600,"track":3,"noteNumber":65,"velocity":42,"duration":450},{"time":660,"track":1,"noteNumber":80,"velocity":47,"duration":229},{"time":660,"track":2,"noteNumber":77,"velocity":42,"duration":229},{"time":900,"track":2,"noteNumber":73,"velocity":41,"duration":224},{"time":900,"track":1,"noteNumber":77,"velocity":43,"duration":224},{"time":1080,"track":3,"noteNumber":66,"velocity":35,"duration":540},{"time":1080,"track":3,"noteNumber":69,"velocity":35,"duration":540},{"time":1140,"track":1,"noteNumber":75,"velocity":46,"duration":120},{"time":1140,"track":2,"noteNumber":72,"velocity":33,"duration":120},{"time":1200,"track":1,"noteNumber":77,"velocity":42,"duration":90},{"time":1200,"track":2,"noteNumber":73,"velocity":30,"duration":77},{"time":1260,"track":1,"noteNumber":75,"velocity":39,"duration":426},{"time":1260,"track":2,"noteNumber":72,"velocity":22,"duration":426},{"time":1620,"track":3,"noteNumber":65,"velocity":35,"duration":540},{"time":1620,"track":3,"noteNumber":68,"velocity":35,"duration":540},{"time":1680,"track":1,"noteNumber":73,"velocity":50,"duration":120},{"time":1680,"track":2,"noteNumber":70,"velocity":33,"duration":120},{"time":1740,"track":1,"noteNumber":75,"velocity":53,"duration":63},{"time":1740,"track":2,"noteNumber":72,"velocity":33,"duration":63},{"time":1800,"track":2,"noteNumber":70,"velocity":30,"duration":420},{"time":1800,"track":1,"noteNumber":73,"velocity":50,"duration":95},{"time":1890,"track":1,"noteNumber":77,"velocity":59,"duration":187},{"time":2070,"track":1,"noteNumber":73,"velocity":48,"duration":156},{"time":2160,"track":3,"noteNumber":66,"velocity":34,"duration":540},{"time":2160,"track":3,"noteNumber":63,"velocity":34,"duration":540},{"time":2220,"track":2,"noteNumber":68,"velocity":36,"duration":74},{"time":2220,"track":1,"noteNumber":72,"velocity":45,"duration":77},{"time":2280,"track":2,"noteNumber":70,"velocity":24,"duration":80},{"time":2280,"track":1,"noteNumber":73,"velocity":40,"duration":77},{"time":2340,"track":1,"noteNumber":72,"velocity":32,"duration":420},{"time":2340,"track":2,"noteNumber":68,"velocity":22,"duration":360},{"time":2700,"track":2,"noteNumber":66,"velocity":33,"duration":360},{"time":2700,"track":3,"noteNumber":63,"velocity":38,"duration":360},{"time":2700,"track":4,"noteNumber":61,"velocity":34,"duration":360},{"time":2760,"track":1,"noteNumber":70,"velocity":46,"duration":70},{"time":2820,"track":1,"noteNumber":72,"velocity":49,"duration":70},{"time":2880,"track":1,"noteNumber":70,"velocity":50,"duration":120},{"time":2940,"track":1,"noteNumber":75,"velocity":52,"duration":80},{"time":3000,"track":1,"noteNumber":70,"velocity":47,"duration":70},{"time":3060,"track":2,"noteNumber":65,"velocity":32,"duration":180},{"time":3060,"track":4,"noteNumber":60,"velocity":25,"duration":180},{"time":3060,"track":3,"noteNumber":63,"velocity":40,"duration":180},{"time":3060,"track":1,"noteNumber":68,"velocity":52,"duration":70},{"time":3120,"track":1,"noteNumber":70,"velocity":49,"duration":70},{"time":3180,"track":1,"noteNumber":68,"velocity":42,"duration":137},{"time":3240,"track":3,"noteNumber":61,"velocity":36,"duration":360},{"time":3240,"track":2,"noteNumber":63,"velocity":30,"duration":360},{"time":3240,"track":4,"noteNumber":58,"velocity":24,"duration":360},{"time":3300,"track":1,"noteNumber":66,"velocity":51,"duration":70},{"time":3360,"track":1,"noteNumber":68,"velocity":48,"duration":70},{"time":3420,"track":1,"noteNumber":66,"velocity":41,"duration":191},{"time":3600,"track":3,"noteNumber":60,"velocity":26,"duration":180},{"time":3600,"track":2,"noteNumber":63,"velocity":35,"duration":180},{"time":3600,"track":4,"noteNumber":57,"velocity":23,"duration":180},{"time":3600,"track":1,"noteNumber":65,"velocity":34,"duration":240},{"time":3780,"track":3,"noteNumber":58,"velocity":34,"duration":540},{"time":3780,"track":4,"noteNumber":56,"velocity":30,"duration":360},{"time":3780,"track":2,"noteNumber":61,"velocity":38,"duration":540},{"time":3840,"track":1,"noteNumber":65,"velocity":50,"duration":70},{"time":3900,"track":1,"noteNumber":66,"velocity":50,"duration":80},{"time":3960,"track":1,"noteNumber":65,"velocity":50,"duration":120},{"time":4020,"track":1,"noteNumber":70,"velocity":42,"duration":80},{"time":4080,"track":1,"noteNumber":65,"velocity":48,"duration":69},{"time":4140,"track":4,"noteNumber":54,"velocity":27,"duration":180},{"time":4140,"track":1,"noteNumber":63,"velocity":46,"duration":120},{"time":4200,"track":1,"noteNumber":65,"velocity":42,"duration":70},{"time":4260,"track":1,"noteNumber":63,"velocity":39,"duration":130},{"time":4320,"track":2,"noteNumber":58,"velocity":25,"duration":360},{"time":4320,"track":4,"noteNumber":53,"velocity":24,"duration":360},{"time":4320,"track":3,"noteNumber":56,"velocity":35,"duration":360},{"time":4380,"track":1,"noteNumber":61,"velocity":43,"duration":120},{"time":4440,"track":1,"noteNumber":63,"velocity":41,"duration":80},{"time":4500,"track":1,"noteNumber":61,"velocity":37,"duration":191},{"time":4680,"track":1,"noteNumber":60,"velocity":31,"duration":180},{"time":4680,"track":2,"noteNumber":56,"velocity":23,"duration":180},{"time":4680,"track":4,"noteNumber":51,"velocity":42,"duration":120},{"time":4680,"track":3,"noteNumber":54,"velocity":25,"duration":180},{"time":4780,"track":4,"noteNumber":44,"velocity":42,"duration":100},{"time":4860,"track":4,"noteNumber":37,"velocity":52,"duration":60},{"time":4920,"track":2,"noteNumber":53,"velocity":39,"duration":90},{"time":4920,"track":1,"noteNumber":56,"velocity":55,"duration":80},{"time":4980,"track":3,"noteNumber":68,"velocity":50,"duration":420},{"time":4980,"track":3,"noteNumber":65,"velocity":50,"duration":420},{"time":5040,"track":1,"noteNumber":80,"velocity":48,"duration":191},{"time":5040,"track":2,"noteNumber":77,"velocity":50,"duration":190},{"time":5220,"track":1,"noteNumber":77,"velocity":53,"duration":255},{"time":5220,"track":2,"noteNumber":73,"velocity":40,"duration":255},{"time":5400,"track":4,"noteNumber":42,"velocity":50,"duration":360},{"time":5400,"track":4,"noteNumber":49,"velocity":50,"duration":360},{"time":5460,"track":3,"noteNumber":61,"velocity":30,"duration":480},{"time":5460,"track":2,"noteNumber":70,"velocity":30,"duration":480},{"time":5460,"track":1,"noteNumber":75,"velocity":61,"duration":80},{"time":5460,"track":3,"noteNumber":49,"velocity":26,"duration":480},{"time":5460,"track":3,"noteNumber":54,"velocity":30,"duration":480},{"time":5460,"track":3,"noteNumber":58,"velocity":30,"duration":480},{"time":5460,"track":2,"noteNumber":66,"velocity":30,"duration":480},{"time":5520,"track":1,"noteNumber":77,"velocity":58,"duration":80},{"time":5580,"track":1,"noteNumber":75,"velocity":47,"duration":436},{"time":5940,"track":4,"noteNumber":41,"velocity":50,"duration":360},{"time":5940,"track":4,"noteNumber":49,"velocity":50,"duration":360},{"time":6000,"track":1,"noteNumber":73,"velocity":62,"duration":80},{"time":6000,"track":1,"noteNumber":61,"velocity":53,"duration":80},{"time":6000,"track":2,"noteNumber":68,"velocity":43,"duration":120},{"time":6000,"track":3,"noteNumber":53,"velocity":42,"duration":120},{"time":6000,"track":3,"noteNumber":56,"velocity":43,"duration":120},{"time":6060,"track":1,"noteNumber":63,"velocity":54,"duration":80},{"time":6060,"track":1,"noteNumber":75,"velocity":61,"duration":80},{"time":6120,"track":1,"noteNumber":68,"velocity":55,"duration":200},{"time":6120,"track":1,"noteNumber":80,"velocity":60,"duration":200},{"time":6120,"track":3,"noteNumber":61,"velocity":39,"duration":180},{"time":6120,"track":3,"noteNumber":65,"velocity":40,"duration":180},{"time":6120,"track":2,"noteNumber":73,"velocity":43,"duration":200},{"time":6300,"track":3,"noteNumber":56,"velocity":26,"duration":180},{"time":6300,"track":1,"noteNumber":65,"velocity":55,"duration":208},{"time":6300,"track":1,"noteNumber":77,"velocity":55,"duration":254},{"time":6300,"track":3,"noteNumber":61,"velocity":28,"duration":180},{"time":6300,"track":2,"noteNumber":73,"velocity":36,"duration":180},{"time":6480,"track":4,"noteNumber":49,"velocity":50,"duration":360},{"time":6480,"track":4,"noteNumber":42,"velocity":50,"duration":360},{"time":6540,"track":3,"noteNumber":61,"velocity":38,"duration":480},{"time":6540,"track":2,"noteNumber":66,"velocity":27,"duration":480},{"time":6540,"track":2,"noteNumber":70,"velocity":27,"duration":480},{"time":6540,"track":3,"noteNumber":49,"velocity":38,"duration":480},{"time":6540,"track":3,"noteNumber":54,"velocity":38,"duration":480},{"time":6540,"track":3,"noteNumber":58,"velocity":38,"duration":480},{"time":6540,"track":1,"noteNumber":75,"velocity":62,"duration":80},{"time":6600,"track":1,"noteNumber":77,"velocity":60,"duration":80},{"time":6660,"track":1,"noteNumber":75,"velocity":53,"duration":198},{"time":6840,"track":1,"noteNumber":73,"velocity":46,"duration":240},{"time":7020,"track":4,"noteNumber":44,"velocity":59,"duration":540},{"time":7080,"track":3,"noteNumber":59,"velocity":50,"duration":120},{"time":7080,"track":1,"noteNumber":73,"velocity":63,"duration":80},{"time":7080,"track":2,"noteNumber":68,"velocity":47,"duration":125},{"time":7080,"track":3,"noteNumber":53,"velocity":50,"duration":120},{"time":7080,"track":1,"noteNumber":61,"velocity":58,"duration":80},{"time":7140,"track":1,"noteNumber":75,"velocity":64,"duration":80},{"time":7140,"track":1,"noteNumber":63,"velocity":61,"duration":80},{"time":7200,"track":2,"noteNumber":77,"velocity":41,"duration":386},{"time":7200,"track":3,"noteNumber":61,"velocity":45,"duration":240},{"time":7200,"track":1,"noteNumber":82,"velocity":68,"duration":106},{"time":7200,"track":1,"noteNumber":70,"velocity":65,"duration":106},{"time":7200,"track":3,"noteNumber":65,"velocity":45,"duration":240},{"time":7200,"track":3,"noteNumber":59,"velocity":45,"duration":240},{"time":7290,"track":1,"noteNumber":68,"velocity":59,"duration":197},{"time":7290,"track":1,"noteNumber":80,"velocity":64,"duration":197},{"time":7470,"track":1,"noteNumber":65,"velocity":48,"duration":96},{"time":7470,"track":1,"noteNumber":77,"velocity":60,"duration":163},{"time":7560,"track":4,"noteNumber":46,"velocity":50,"duration":360},{"time":7620,"track":2,"noteNumber":70,"velocity":29,"duration":480},{"time":7620,"track":2,"noteNumber":65,"velocity":29,"duration":480},{"time":7620,"track":3,"noteNumber":58,"velocity":40,"duration":480},{"time":7620,"track":3,"noteNumber":63,"velocity":40,"duration":210},{"time":7620,"track":3,"noteNumber":53,"velocity":40,"duration":480},{"time":7620,"track":1,"noteNumber":75,"velocity":62,"duration":80},{"time":7680,"track":1,"noteNumber":77,"velocity":62,"duration":80},{"time":7740,"track":1,"noteNumber":75,"velocity":55,"duration":101},{"time":7830,"track":3,"noteNumber":61,"velocity":31,"duration":270},{"time":7830,"track":1,"noteNumber":73,"velocity":50,"duration":184},{"time":8010,"track":1,"noteNumber":70,"velocity":38,"duration":90},{"time":8100,"track":4,"noteNumber":27,"velocity":33,"duration":360},{"time":8100,"track":4,"noteNumber":39,"velocity":33,"duration":360},{"time":8190,"track":1,"noteNumber":77,"velocity":46,"duration":150},{"time":8190,"track":3,"noteNumber":66,"velocity":24,"duration":150},{"time":8190,"track":3,"noteNumber":65,"velocity":24,"duration":150},{"time":8190,"track":2,"noteNumber":82,"velocity":30,"duration":150},{"time":8190,"track":3,"noteNumber":70,"velocity":26,"duration":150},{"time":8190,"track":1,"noteNumber":89,"velocity":46,"duration":150},{"time":8340,"track":3,"noteNumber":66,"velocity":29,"duration":60},{"time":8340,"track":1,"noteNumber":75,"velocity":43,"duration":60},{"time":8340,"track":3,"noteNumber":63,"velocity":29,"duration":60},{"time":8340,"track":1,"noteNumber":87,"velocity":43,"duration":60},{"time":8340,"track":2,"noteNumber":82,"velocity":31,"duration":60},{"time":8340,"track":3,"noteNumber":70,"velocity":29,"duration":60},{"time":8400,"track":3,"noteNumber":70,"velocity":25,"duration":60},{"time":8400,"track":2,"noteNumber":82,"velocity":33,"duration":60},{"time":8400,"track":3,"noteNumber":66,"velocity":25,"duration":60},{"time":8400,"track":1,"noteNumber":75,"velocity":45,"duration":60},{"time":8400,"track":3,"noteNumber":63,"velocity":25,"duration":60},{"time":8400,"track":1,"noteNumber":87,"velocity":45,"duration":60},{"time":8460,"track":2,"noteNumber":82,"velocity":36,"duration":60},{"time":8460,"track":1,"noteNumber":75,"velocity":46,"duration":60},{"time":8460,"track":1,"noteNumber":87,"velocity":46,"duration":60},{"time":8460,"track":3,"noteNumber":63,"velocity":29,"duration":60},{"time":8460,"track":3,"noteNumber":66,"velocity":29,"duration":60},{"time":8460,"track":3,"noteNumber":70,"velocity":29,"duration":60},{"time":8520,"track":1,"noteNumber":85,"velocity":40,"duration":60},{"time":8520,"track":2,"noteNumber":82,"velocity":29,"duration":60},{"time":8520,"track":3,"noteNumber":66,"velocity":25,"duration":60},{"time":8520,"track":3,"noteNumber":70,"velocity":25,"duration":60},{"time":8520,"track":1,"noteNumber":73,"velocity":40,"duration":60},{"time":8520,"track":3,"noteNumber":61,"velocity":25,"duration":60},{"time":8580,"track":1,"noteNumber":73,"velocity":44,"duration":60},{"time":8580,"track":3,"noteNumber":66,"velocity":27,"duration":60},{"time":8580,"track":2,"noteNumber":82,"velocity":31,"duration":60},{"time":8580,"track":3,"noteNumber":70,"velocity":27,"duration":60},{"time":8580,"track":3,"noteNumber":61,"velocity":27,"duration":60},{"time":8580,"track":1,"noteNumber":85,"velocity":44,"duration":60},{"time":8640,"track":1,"noteNumber":73,"velocity":48,"duration":60},{"time":8640,"track":2,"noteNumber":82,"velocity":33,"duration":60},{"time":8640,"track":3,"noteNumber":61,"velocity":30,"duration":60},{"time":8640,"track":3,"noteNumber":70,"velocity":30,"duration":60},{"time":8640,"track":3,"noteNumber":66,"velocity":30,"duration":60},{"time":8640,"track":1,"noteNumber":85,"velocity":48,"duration":60},{"time":8700,"track":2,"noteNumber":82,"velocity":24,"duration":60},{"time":8700,"track":1,"noteNumber":72,"velocity":45,"duration":60},{"time":8700,"track":1,"noteNumber":84,"velocity":45,"duration":60},{"time":8700,"track":3,"noteNumber":60,"velocity":23,"duration":60},{"time":8700,"track":3,"noteNumber":66,"velocity":23,"duration":60},{"time":8700,"track":3,"noteNumber":70,"velocity":23,"duration":60},{"time":8700,"track":2,"noteNumber":78,"velocity":24,"duration":60},{"time":8760,"track":2,"noteNumber":78,"velocity":28,"duration":60},{"time":8760,"track":2,"noteNumber":82,"velocity":28,"duration":60},{"time":8760,"track":3,"noteNumber":60,"velocity":25,"duration":60},{"time":8760,"track":1,"noteNumber":84,"velocity":43,"duration":60},{"time":8760,"track":3,"noteNumber":70,"velocity":25,"duration":60},{"time":8760,"track":3,"noteNumber":66,"velocity":25,"duration":60},{"time":8760,"track":1,"noteNumber":72,"velocity":43,"duration":60},{"time":8820,"track":3,"noteNumber":60,"velocity":27,"duration":90},{"time":8820,"track":3,"noteNumber":70,"velocity":27,"duration":90},{"time":8820,"track":2,"noteNumber":78,"velocity":35,"duration":90},{"time":8820,"track":1,"noteNumber":84,"velocity":46,"duration":101},{"time":8820,"track":3,"noteNumber":66,"velocity":27,"duration":90},{"time":8820,"track":2,"noteNumber":82,"velocity":35,"duration":90},{"time":8820,"track":1,"noteNumber":72,"velocity":46,"duration":101},{"time":8910,"track":1,"noteNumber":73,"velocity":47,"duration":103},{"time":8910,"track":3,"noteNumber":61,"velocity":25,"duration":90},{"time":8910,"track":3,"noteNumber":70,"velocity":25,"duration":90},{"time":8910,"track":3,"noteNumber":66,"velocity":25,"duration":90},{"time":8910,"track":1,"noteNumber":85,"velocity":47,"duration":103},{"time":8910,"track":2,"noteNumber":82,"velocity":34,"duration":90},{"time":9000,"track":2,"noteNumber":78,"velocity":28,"duration":195},{"time":9000,"track":3,"noteNumber":66,"velocity":21,"duration":180},{"time":9000,"track":3,"noteNumber":61,"velocity":21,"duration":180},{"time":9000,"track":1,"noteNumber":70,"velocity":35,"duration":180},{"time":9000,"track":1,"noteNumber":82,"velocity":35,"duration":180},{"time":9000,"track":3,"noteNumber":58,"velocity":21,"duration":180},{"time":9180,"track":4,"noteNumber":39,"velocity":34,"duration":360},{"time":9180,"track":4,"noteNumber":27,"velocity":34,"duration":360},{"time":9180,"track":3,"noteNumber":46,"velocity":33,"duration":240},{"time":9270,"track":3,"noteNumber":65,"velocity":33,"duration":150},{"time":9270,"track":1,"noteNumber":89,"velocity":45,"duration":150},{"time":9270,"track":1,"noteNumber":77,"velocity":45,"duration":150},{"time":9270,"track":2,"noteNumber":82,"velocity":37,"duration":150},{"time":9270,"track":3,"noteNumber":70,"velocity":33,"duration":150},{"time":9270,"track":3,"noteNumber":66,"velocity":33,"duration":150},{"time":9420,"track":1,"noteNumber":90,"velocity":45,"duration":70},{"time":9420,"track":3,"noteNumber":70,"velocity":26,"duration":60},{"time":9420,"track":3,"noteNumber":66,"velocity":26,"duration":60},{"time":9420,"track":1,"noteNumber":78,"velocity":45,"duration":70},{"time":9420,"track":2,"noteNumber":82,"velocity":31,"duration":60},{"time":9420,"track":3,"noteNumber":75,"velocity":26,"duration":60},{"time":9480,"track":1,"noteNumber":77,"velocity":45,"duration":70},{"time":9480,"track":3,"noteNumber":65,"velocity":30,"duration":60},{"time":9480,"track":3,"noteNumber":66,"velocity":30,"duration":60},{"time":9480,"track":3,"noteNumber":70,"velocity":30,"duration":60},{"time":9480,"track":1,"noteNumber":89,"velocity":45,"duration":70},{"time":9480,"track":2,"noteNumber":82,"velocity":34,"duration":60},{"time":9540,"track":2,"noteNumber":82,"velocity":36,"duration":60},{"time":9540,"track":3,"noteNumber":70,"velocity":32,"duration":60},{"time":9540,"track":1,"noteNumber":75,"velocity":44,"duration":60},{"time":9540,"track":1,"noteNumber":87,"velocity":44,"duration":60},{"time":9540,"track":3,"noteNumber":66,"velocity":32,"duration":60},{"time":9540,"track":3,"noteNumber":63,"velocity":32,"duration":60},{"time":9600,"track":2,"noteNumber":82,"velocity":29,"duration":60},{"time":9600,"track":1,"noteNumber":89,"velocity":43,"duration":70},{"time":9600,"track":1,"noteNumber":77,"velocity":43,"duration":70},{"time":9600,"track":3,"noteNumber":70,"velocity":27,"duration":60},{"time":9600,"track":3,"noteNumber":66,"velocity":27,"duration":60},{"time":9600,"track":3,"noteNumber":65,"velocity":27,"duration":60},{"time":9660,"track":3,"noteNumber":70,"velocity":29,"duration":60},{"time":9660,"track":3,"noteNumber":66,"velocity":29,"duration":60},{"time":9660,"track":3,"noteNumber":63,"velocity":29,"duration":60},{"time":9660,"track":1,"noteNumber":75,"velocity":47,"duration":70},{"time":9660,"track":2,"noteNumber":82,"velocity":33,"duration":60},{"time":9660,"track":1,"noteNumber":87,"velocity":47,"duration":70},{"time":9720,"track":3,"noteNumber":66,"velocity":31,"duration":60},{"time":9720,"track":3,"noteNumber":70,"velocity":31,"duration":60},{"time":9720,"track":2,"noteNumber":82,"velocity":37,"duration":60},{"time":9720,"track":3,"noteNumber":61,"velocity":31,"duration":60},{"time":9720,"track":1,"noteNumber":73,"velocity":51,"duration":60},{"time":9720,"track":1,"noteNumber":85,"velocity":51,"duration":60},{"time":9780,"track":3,"noteNumber":70,"velocity":25,"duration":60},{"time":9780,"track":3,"noteNumber":63,"velocity":25,"duration":60},{"time":9780,"track":1,"noteNumber":87,"velocity":45,"duration":70},{"time":9780,"track":1,"noteNumber":75,"velocity":45,"duration":70},{"time":9780,"track":3,"noteNumber":66,"velocity":25,"duration":60},{"time":9780,"track":2,"noteNumber":82,"velocity":28,"duration":60},{"time":9840,"track":3,"noteNumber":70,"velocity":27,"duration":60},{"time":9840,"track":2,"noteNumber":82,"velocity":32,"duration":60},{"time":9840,"track":3,"noteNumber":66,"velocity":27,"duration":60},{"time":9840,"track":3,"noteNumber":61,"velocity":27,"duration":60},{"time":9840,"track":1,"noteNumber":73,"velocity":45,"duration":70},{"time":9840,"track":1,"noteNumber":85,"velocity":45,"duration":70},{"time":9900,"track":1,"noteNumber":84,"velocity":49,"duration":100},{"time":9900,"track":3,"noteNumber":66,"velocity":29,"duration":90},{"time":9900,"track":3,"noteNumber":60,"velocity":29,"duration":90},{"time":9900,"track":3,"noteNumber":70,"velocity":29,"duration":90},{"time":9900,"track":1,"noteNumber":72,"velocity":49,"duration":100},{"time":9900,"track":2,"noteNumber":82,"velocity":36,"duration":90},{"time":9975,"track":1,"noteNumber":87,"velocity":51,"duration":90},{"time":9990,"track":3,"noteNumber":61,"velocity":27,"duration":90},{"time":9990,"track":3,"noteNumber":66,"velocity":27,"duration":90},{"time":9990,"track":3,"noteNumber":70,"velocity":27,"duration":90},{"time":9990,"track":1,"noteNumber":73,"velocity":46,"duration":90},{"time":9990,"track":1,"noteNumber":85,"velocity":46,"duration":90},{"time":9990,"track":2,"noteNumber":82,"velocity":30,"duration":100},{"time":10080,"track":3,"noteNumber":66,"velocity":23,"duration":180},{"time":10080,"track":1,"noteNumber":70,"velocity":43,"duration":270},{"time":10080,"track":1,"noteNumber":82,"velocity":43,"duration":270},{"time":10080,"track":3,"noteNumber":58,"velocity":23,"duration":180},{"time":10080,"track":3,"noteNumber":63,"velocity":23,"duration":180},{"time":10260,"track":4,"noteNumber":44,"velocity":41,"duration":360},{"time":10260,"track":4,"noteNumber":32,"velocity":41,"duration":360},{"time":10350,"track":1,"noteNumber":66,"velocity":55,"duration":100},{"time":10350,"track":1,"noteNumber":78,"velocity":55,"duration":100},{"time":10350,"track":3,"noteNumber":54,"velocity":42,"duration":100},{"time":10440,"track":1,"noteNumber":68,"velocity":59,"duration":100},{"time":10440,"track":1,"noteNumber":80,"velocity":59,"duration":100},{"time":10440,"track":2,"noteNumber":60,"velocity":31,"duration":193},{"time":10440,"track":2,"noteNumber":63,"velocity":31,"duration":193},{"time":10440,"track":1,"noteNumber":75,"velocity":46,"duration":100},{"time":10440,"track":3,"noteNumber":56,"velocity":35,"duration":100},{"time":10530,"track":1,"noteNumber":72,"velocity":58,"duration":100},{"time":10530,"track":1,"noteNumber":84,"velocity":58,"duration":100},{"time":10530,"track":3,"noteNumber":60,"velocity":38,"duration":100},{"time":10620,"track":1,"noteNumber":78,"velocity":46,"duration":100},{"time":10620,"track":2,"noteNumber":63,"velocity":32,"duration":180},{"time":10620,"track":3,"noteNumber":58,"velocity":40,"duration":100},{"time":10620,"track":2,"noteNumber":66,"velocity":32,"duration":180},{"time":10620,"track":1,"noteNumber":70,"velocity":58,"duration":100},{"time":10620,"track":1,"noteNumber":82,"velocity":58,"duration":100},{"time":10710,"track":1,"noteNumber":78,"velocity":54,"duration":90},{"time":10710,"track":1,"noteNumber":66,"velocity":54,"duration":90},{"time":10710,"track":3,"noteNumber":54,"velocity":32,"duration":90},{"time":10800,"track":4,"noteNumber":45,"velocity":37,"duration":360},{"time":10800,"track":4,"noteNumber":33,"velocity":37,"duration":360},{"time":10860,"track":3,"noteNumber":63,"velocity":33,"duration":60},{"time":10860,"track":1,"noteNumber":66,"velocity":43,"duration":60},{"time":10860,"track":1,"noteNumber":78,"velocity":43,"duration":60},{"time":10860,"track":3,"noteNumber":54,"velocity":33,"duration":60},{"time":10860,"track":2,"noteNumber":72,"velocity":29,"duration":60},{"time":10860,"track":3,"noteNumber":60,"velocity":33,"duration":60},{"time":10860,"track":2,"noteNumber":75,"velocity":29,"duration":60},{"time":10920,"track":1,"noteNumber":66,"velocity":44,"duration":60},{"time":10920,"track":2,"noteNumber":75,"velocity":29,"duration":60},{"time":10920,"track":1,"noteNumber":78,"velocity":44,"duration":60},{"time":10920,"track":3,"noteNumber":63,"velocity":34,"duration":60},{"time":10920,"track":3,"noteNumber":54,"velocity":34,"duration":60},{"time":10920,"track":2,"noteNumber":72,"velocity":29,"duration":60},{"time":10920,"track":3,"noteNumber":60,"velocity":34,"duration":60},{"time":10980,"track":1,"noteNumber":78,"velocity":47,"duration":60},{"time":10980,"track":1,"noteNumber":66,"velocity":47,"duration":60},{"time":10980,"track":3,"noteNumber":63,"velocity":30,"duration":60},{"time":10980,"track":3,"noteNumber":54,"velocity":30,"duration":60},{"time":10980,"track":3,"noteNumber":60,"velocity":30,"duration":60},{"time":10980,"track":2,"noteNumber":72,"velocity":28,"duration":60},{"time":10980,"track":2,"noteNumber":75,"velocity":28,"duration":60},{"time":11040,"track":3,"noteNumber":60,"velocity":29,"duration":60},{"time":11040,"track":3,"noteNumber":63,"velocity":29,"duration":60},{"time":11040,"track":1,"noteNumber":66,"velocity":45,"duration":60},{"time":11040,"track":1,"noteNumber":78,"velocity":45,"duration":60},{"time":11040,"track":2,"noteNumber":72,"velocity":30,"duration":60},{"time":11040,"track":2,"noteNumber":75,"velocity":30,"duration":60},{"time":11040,"track":3,"noteNumber":54,"velocity":29,"duration":60},{"time":11100,"track":3,"noteNumber":63,"velocity":34,"duration":60},{"time":11100,"track":3,"noteNumber":60,"velocity":34,"duration":60},{"time":11100,"track":3,"noteNumber":56,"velocity":34,"duration":60},{"time":11100,"track":1,"noteNumber":80,"velocity":42,"duration":60},{"time":11100,"track":1,"noteNumber":68,"velocity":42,"duration":60},{"time":11100,"track":2,"noteNumber":72,"velocity":31,"duration":60},{"time":11100,"track":2,"noteNumber":75,"velocity":31,"duration":60},{"time":11160,"track":3,"noteNumber":63,"velocity":29,"duration":180},{"time":11160,"track":2,"noteNumber":72,"velocity":23,"duration":180},{"time":11160,"track":1,"noteNumber":78,"velocity":42,"duration":180},{"time":11160,"track":3,"noteNumber":54,"velocity":29,"duration":180},{"time":11160,"track":3,"noteNumber":60,"velocity":29,"duration":180},{"time":11160,"track":2,"noteNumber":75,"velocity":23,"duration":180},{"time":11160,"track":1,"noteNumber":66,"velocity":42,"duration":180},{"time":11340,"track":4,"noteNumber":34,"velocity":48,"duration":360},{"time":11340,"track":4,"noteNumber":46,"velocity":48,"duration":360},{"time":11430,"track":1,"noteNumber":78,"velocity":57,"duration":100},{"time":11430,"track":1,"noteNumber":66,"velocity":52,"duration":100},{"time":11430,"track":2,"noteNumber":73,"velocity":50,"duration":180},{"time":11430,"track":3,"noteNumber":54,"velocity":38,"duration":100},{"time":11520,"track":3,"noteNumber":56,"velocity":43,"duration":100},{"time":11520,"track":1,"noteNumber":68,"velocity":58,"duration":100},{"time":11520,"track":2,"noteNumber":58,"velocity":48,"duration":180},{"time":11520,"track":1,"noteNumber":80,"velocity":60,"duration":100},{"time":11520,"track":2,"noteNumber":61,"velocity":48,"duration":180},{"time":11610,"track":3,"noteNumber":61,"velocity":43,"duration":100},{"time":11610,"track":1,"noteNumber":73,"velocity":53,"duration":100},{"time":11610,"track":1,"noteNumber":85,"velocity":60,"duration":100},{"time":11700,"track":3,"noteNumber":58,"velocity":40,"duration":100},{"time":11700,"track":1,"noteNumber":82,"velocity":67,"duration":100},{"time":11700,"track":1,"noteNumber":70,"velocity":56,"duration":100},{"time":11700,"track":2,"noteNumber":78,"velocity":52,"duration":90},{"time":11700,"track":2,"noteNumber":66,"velocity":52,"duration":120},{"time":11700,"track":2,"noteNumber":61,"velocity":52,"duration":120},{"time":11790,"track":3,"noteNumber":54,"velocity":38,"duration":90},{"time":11790,"track":1,"noteNumber":66,"velocity":55,"duration":90},{"time":11790,"track":1,"noteNumber":78,"velocity":60,"duration":90},{"time":11880,"track":4,"noteNumber":36,"velocity":48,"duration":360},{"time":11880,"track":4,"noteNumber":48,"velocity":48,"duration":360},{"time":11940,"track":1,"noteNumber":78,"velocity":46,"duration":60},{"time":11940,"track":3,"noteNumber":60,"velocity":33,"duration":60},{"time":11940,"track":3,"noteNumber":63,"velocity":33,"duration":60},{"time":11940,"track":3,"noteNumber":54,"velocity":33,"duration":60},{"time":11940,"track":1,"noteNumber":66,"velocity":42,"duration":60},{"time":11940,"track":2,"noteNumber":75,"velocity":33,"duration":60},{"time":11940,"track":2,"noteNumber":70,"velocity":33,"duration":60},{"time":12000,"track":1,"noteNumber":78,"velocity":50,"duration":60},{"time":12000,"track":2,"noteNumber":75,"velocity":31,"duration":60},{"time":12000,"track":2,"noteNumber":70,"velocity":31,"duration":60},{"time":12000,"track":1,"noteNumber":66,"velocity":45,"duration":60},{"time":12000,"track":3,"noteNumber":60,"velocity":33,"duration":60},{"time":12000,"track":3,"noteNumber":63,"velocity":33,"duration":60},{"time":12000,"track":3,"noteNumber":54,"velocity":33,"duration":60},{"time":12060,"track":1,"noteNumber":66,"velocity":48,"duration":60},{"time":12060,"track":2,"noteNumber":70,"velocity":30,"duration":60},{"time":12060,"track":3,"noteNumber":63,"velocity":35,"duration":60},{"time":12060,"track":3,"noteNumber":54,"velocity":35,"duration":60},{"time":12060,"track":1,"noteNumber":78,"velocity":52,"duration":60},{"time":12060,"track":3,"noteNumber":60,"velocity":35,"duration":60},{"time":12060,"track":2,"noteNumber":75,"velocity":30,"duration":60},{"time":12120,"track":3,"noteNumber":54,"velocity":32,"duration":60},{"time":12120,"track":1,"noteNumber":66,"velocity":45,"duration":60},{"time":12120,"track":1,"noteNumber":78,"velocity":52,"duration":60},{"time":12120,"track":3,"noteNumber":63,"velocity":32,"duration":60},{"time":12120,"track":3,"noteNumber":60,"velocity":32,"duration":60},{"time":12120,"track":2,"noteNumber":70,"velocity":31,"duration":60},{"time":12120,"track":2,"noteNumber":75,"velocity":31,"duration":60},{"time":12180,"track":1,"noteNumber":68,"velocity":42,"duration":60},{"time":12180,"track":1,"noteNumber":80,"velocity":52,"duration":60},{"time":12180,"track":3,"noteNumber":56,"velocity":32,"duration":60},{"time":12180,"track":3,"noteNumber":60,"velocity":32,"duration":60},{"time":12180,"track":3,"noteNumber":65,"velocity":32,"duration":60},{"time":12180,"track":2,"noteNumber":77,"velocity":32,"duration":60},{"time":12180,"track":2,"noteNumber":72,"velocity":32,"duration":60},{"time":12240,"track":3,"noteNumber":60,"velocity":28,"duration":180},{"time":12240,"track":2,"noteNumber":75,"velocity":27,"duration":180},{"time":12240,"track":1,"noteNumber":78,"velocity":46,"duration":180},{"time":12240,"track":3,"noteNumber":54,"velocity":28,"duration":180},{"time":12240,"track":3,"noteNumber":63,"velocity":28,"duration":180},{"time":12240,"track":2,"noteNumber":70,"velocity":27,"duration":180},{"time":12240,"track":1,"noteNumber":66,"velocity":39,"duration":180},{"time":12420,"track":4,"noteNumber":49,"velocity":59,"duration":360},{"time":12420,"track":4,"noteNumber":37,"velocity":59,"duration":360},{"time":12510,"track":2,"noteNumber":70,"velocity":48,"duration":180},{"time":12510,"track":3,"noteNumber":61,"velocity":46,"duration":180},{"time":12510,"track":1,"noteNumber":66,"velocity":54,"duration":100},{"time":12510,"track":1,"noteNumber":78,"velocity":63,"duration":100},{"time":12510,"track":3,"noteNumber":54,"velocity":46,"duration":100},{"time":12510,"track":3,"noteNumber":58,"velocity":46,"duration":180},{"time":12510,"track":2,"noteNumber":73,"velocity":48,"duration":180},{"time":12600,"track":1,"noteNumber":80,"velocity":66,"duration":100},{"time":12600,"track":3,"noteNumber":56,"velocity":50,"duration":100},{"time":12600,"track":1,"noteNumber":68,"velocity":66,"duration":100},{"time":12690,"track":1,"noteNumber":87,"velocity":67,"duration":100},{"time":12690,"track":3,"noteNumber":63,"velocity":53,"duration":90},{"time":12690,"track":1,"noteNumber":75,"velocity":67,"duration":100},{"time":12780,"track":2,"noteNumber":82,"velocity":50,"duration":120},{"time":12780,"track":2,"noteNumber":78,"velocity":50,"duration":120},{"time":12780,"track":1,"noteNumber":73,"velocity":62,"duration":100},{"time":12780,"track":1,"noteNumber":85,"velocity":69,"duration":100},{"time":12780,"track":3,"noteNumber":70,"velocity":54,"duration":100},{"time":12780,"track":3,"noteNumber":66,"velocity":54,"duration":100},{"time":12780,"track":3,"noteNumber":61,"velocity":54,"duration":100},{"time":12870,"track":1,"noteNumber":82,"velocity":64,"duration":90},{"time":12870,"track":1,"noteNumber":70,"velocity":64,"duration":90},{"time":12870,"track":3,"noteNumber":58,"velocity":54,"duration":100},{"time":12960,"track":4,"noteNumber":51,"velocity":67,"duration":360},{"time":12960,"track":4,"noteNumber":39,"velocity":67,"duration":360},{"time":13020,"track":1,"noteNumber":82,"velocity":69,"duration":60},{"time":13020,"track":3,"noteNumber":61,"velocity":49,"duration":60},{"time":13020,"track":3,"noteNumber":66,"velocity":49,"duration":60},{"time":13020,"track":1,"noteNumber":70,"velocity":69,"duration":60},{"time":13020,"track":2,"noteNumber":58,"velocity":53,"duration":60},{"time":13080,"track":2,"noteNumber":58,"velocity":55,"duration":60},{"time":13080,"track":1,"noteNumber":70,"velocity":70,"duration":60},{"time":13080,"track":1,"noteNumber":82,"velocity":70,"duration":60},{"time":13080,"track":3,"noteNumber":61,"velocity":51,"duration":60},{"time":13080,"track":3,"noteNumber":66,"velocity":51,"duration":60},{"time":13140,"track":1,"noteNumber":70,"velocity":72,"duration":60},{"time":13140,"track":1,"noteNumber":82,"velocity":72,"duration":60},{"time":13140,"track":3,"noteNumber":61,"velocity":53,"duration":60},{"time":13140,"track":3,"noteNumber":66,"velocity":53,"duration":60},{"time":13140,"track":2,"noteNumber":58,"velocity":56,"duration":60},{"time":13200,"track":3,"noteNumber":61,"velocity":55,"duration":60},{"time":13200,"track":3,"noteNumber":66,"velocity":55,"duration":60},{"time":13200,"track":1,"noteNumber":70,"velocity":73,"duration":60},{"time":13200,"track":1,"noteNumber":82,"velocity":73,"duration":60},{"time":13200,"track":2,"noteNumber":58,"velocity":59,"duration":60},{"time":13260,"track":3,"noteNumber":63,"velocity":59,"duration":60},{"time":13260,"track":2,"noteNumber":60,"velocity":62,"duration":60},{"time":13260,"track":1,"noteNumber":72,"velocity":74,"duration":60},{"time":13260,"track":1,"noteNumber":84,"velocity":74,"duration":60},{"time":13260,"track":3,"noteNumber":68,"velocity":59,"duration":60},{"time":13320,"track":1,"noteNumber":82,"velocity":74,"duration":60},{"time":13320,"track":2,"noteNumber":58,"velocity":63,"duration":60},{"time":13320,"track":3,"noteNumber":66,"velocity":62,"duration":60},{"time":13320,"track":3,"noteNumber":61,"velocity":62,"duration":60},{"time":13320,"track":1,"noteNumber":70,"velocity":70,"duration":60},{"time":13380,"track":1,"noteNumber":85,"velocity":84,"duration":60},{"time":13380,"track":1,"noteNumber":73,"velocity":84,"duration":60},{"time":13380,"track":3,"noteNumber":70,"velocity":65,"duration":60},{"time":13380,"track":2,"noteNumber":61,"velocity":63,"duration":60},{"time":13380,"track":3,"noteNumber":66,"velocity":65,"duration":60},{"time":13440,"track":3,"noteNumber":66,"velocity":68,"duration":60},{"time":13440,"track":2,"noteNumber":63,"velocity":70,"duration":60},{"time":13440,"track":1,"noteNumber":87,"velocity":85,"duration":60},{"time":13440,"track":1,"noteNumber":75,"velocity":85,"duration":60},{"time":13440,"track":3,"noteNumber":70,"velocity":68,"duration":60},{"time":13500,"track":2,"noteNumber":65,"velocity":78,"duration":360},{"time":13505,"track":2,"noteNumber":68,"velocity":73,"duration":360},{"time":13510,"track":2,"noteNumber":73,"velocity":70,"duration":360},{"time":13515,"track":2,"noteNumber":77,"velocity":66,"duration":360},{"time":13520,"track":1,"noteNumber":80,"velocity":72,"duration":360},{"time":13525,"track":1,"noteNumber":85,"velocity":69,"duration":360},{"time":13530,"track":1,"noteNumber":92,"velocity":67,"duration":360},{"time":13860,"track":2,"noteNumber":64,"velocity":43,"duration":180},{"time":13865,"track":2,"noteNumber":68,"velocity":41,"duration":180},{"time":13870,"track":2,"noteNumber":70,"velocity":39,"duration":180},{"time":13880,"track":2,"noteNumber":73,"velocity":35,"duration":180},{"time":13880,"track":2,"noteNumber":76,"velocity":35,"duration":180},{"time":13885,"track":1,"noteNumber":80,"velocity":56,"duration":180},{"time":13895,"track":1,"noteNumber":85,"velocity":51,"duration":180},{"time":13900,"track":1,"noteNumber":92,"velocity":49,"duration":180},{"time":14040,"track":2,"noteNumber":63,"velocity":33,"duration":360},{"time":14045,"track":2,"noteNumber":66,"velocity":32,"duration":360},{"time":14050,"track":2,"noteNumber":68,"velocity":30,"duration":360},{"time":14060,"track":2,"noteNumber":73,"velocity":27,"duration":360},{"time":14065,"track":2,"noteNumber":75,"velocity":25,"duration":360},{"time":14070,"track":1,"noteNumber":80,"velocity":41,"duration":360},{"time":14075,"track":1,"noteNumber":85,"velocity":39,"duration":360},{"time":14080,"track":1,"noteNumber":92,"velocity":37,"duration":360},{"time":14400,"track":3,"noteNumber":56,"velocity":26,"duration":175},{"time":14405,"track":3,"noteNumber":63,"velocity":26,"duration":170},{"time":14410,"track":3,"noteNumber":72,"velocity":25,"duration":165},{"time":14415,"track":2,"noteNumber":66,"velocity":21,"duration":160},{"time":14420,"track":1,"noteNumber":68,"velocity":30,"duration":155},{"time":14425,"track":1,"noteNumber":75,"velocity":30,"duration":150},{"time":14435,"track":1,"noteNumber":80,"velocity":28,"duration":145},{"time":14580,"track":1,"noteNumber":68,"velocity":52,"duration":381},{"time":14580,"track":2,"noteNumber":65,"velocity":33,"duration":370},{"time":14580,"track":4,"noteNumber":37,"velocity":40,"duration":190},{"time":14610,"track":3,"noteNumber":44,"velocity":38,"duration":40},{"time":14640,"track":3,"noteNumber":49,"velocity":36,"duration":40},{"time":14670,"track":3,"noteNumber":53,"velocity":35,"duration":40},{"time":14700,"track":3,"noteNumber":56,"velocity":34,"duration":40},{"time":14730,"track":3,"noteNumber":61,"velocity":35,"duration":30},{"time":14760,"track":4,"noteNumber":41,"velocity":51,"duration":190},{"time":14790,"track":3,"noteNumber":48,"velocity":37,"duration":40},{"time":14820,"track":3,"noteNumber":53,"velocity":37,"duration":40},{"time":14850,"track":3,"noteNumber":56,"velocity":38,"duration":40},{"time":14880,"track":3,"noteNumber":60,"velocity":37,"duration":40},{"time":14910,"track":3,"noteNumber":65,"velocity":38,"duration":30},{"time":14940,"track":1,"noteNumber":71,"velocity":54,"duration":132},{"time":14940,"track":4,"noteNumber":44,"velocity":46,"duration":180},{"time":14940,"track":2,"noteNumber":68,"velocity":45,"duration":138},{"time":14970,"track":3,"noteNumber":52,"velocity":39,"duration":40},{"time":15000,"track":3,"noteNumber":56,"velocity":40,"duration":40},{"time":15030,"track":3,"noteNumber":59,"velocity":40,"duration":40},{"time":15060,"track":3,"noteNumber":64,"velocity":40,"duration":40},{"time":15060,"track":1,"noteNumber":73,"velocity":62,"duration":60},{"time":15090,"track":3,"noteNumber":68,"velocity":40,"duration":30},{"time":15120,"track":4,"noteNumber":37,"velocity":40,"duration":190},{"time":15120,"track":1,"noteNumber":68,"velocity":56,"duration":389},{"time":15120,"track":2,"noteNumber":65,"velocity":41,"duration":373},{"time":15150,"track":3,"noteNumber":44,"velocity":39,"duration":40},{"time":15180,"track":3,"noteNumber":49,"velocity":37,"duration":40},{"time":15210,"track":3,"noteNumber":53,"velocity":35,"duration":40},{"time":15240,"track":3,"noteNumber":56,"velocity":36,"duration":40},{"time":15270,"track":3,"noteNumber":61,"velocity":41,"duration":30},{"time":15300,"track":4,"noteNumber":41,"velocity":55,"duration":190},{"time":15330,"track":3,"noteNumber":48,"velocity":39,"duration":40},{"time":15360,"track":3,"noteNumber":53,"velocity":37,"duration":40},{"time":15390,"track":3,"noteNumber":56,"velocity":38,"duration":40},{"time":15420,"track":3,"noteNumber":60,"velocity":40,"duration":40},{"time":15450,"track":3,"noteNumber":65,"velocity":41,"duration":30},{"time":15480,"track":4,"noteNumber":44,"velocity":50,"duration":180},{"time":15480,"track":2,"noteNumber":68,"velocity":50,"duration":138},{"time":15480,"track":1,"noteNumber":71,"velocity":57,"duration":134},{"time":15510,"track":3,"noteNumber":52,"velocity":44,"duration":40},{"time":15540,"track":3,"noteNumber":56,"velocity":45,"duration":40},{"time":15570,"track":3,"noteNumber":59,"velocity":46,"duration":40},{"time":15600,"track":1,"noteNumber":68,"velocity":65,"duration":64},{"time":15630,"track":3,"noteNumber":64,"velocity":49,"duration":30},{"time":15660,"track":4,"noteNumber":37,"velocity":50,"duration":190},{"time":15660,"track":2,"noteNumber":65,"velocity":44,"duration":144},{"time":15660,"track":1,"noteNumber":73,"velocity":64,"duration":129},{"time":15690,"track":3,"noteNumber":44,"velocity":43,"duration":40},{"time":15720,"track":3,"noteNumber":49,"velocity":45,"duration":40},{"time":15750,"track":3,"noteNumber":53,"velocity":46,"duration":40},{"time":15780,"track":1,"noteNumber":75,"velocity":63,"duration":64},{"time":15780,"track":3,"noteNumber":56,"velocity":48,"duration":40},{"time":15780,"track":2,"noteNumber":68,"velocity":48,"duration":70},{"time":15810,"track":3,"noteNumber":61,"velocity":50,"duration":40},{"time":15840,"track":2,"noteNumber":73,"velocity":50,"duration":209},{"time":15840,"track":3,"noteNumber":65,"velocity":51,"duration":40},{"time":15840,"track":1,"noteNumber":77,"velocity":65,"duration":189},{"time":15870,"track":3,"noteNumber":68,"velocity":52,"duration":40},{"time":15900,"track":3,"noteNumber":65,"velocity":53,"duration":40},{"time":15930,"track":3,"noteNumber":61,"velocity":54,"duration":40},{"time":15960,"track":3,"noteNumber":56,"velocity":56,"duration":40},{"time":15990,"track":3,"noteNumber":53,"velocity":56,"duration":40},{"time":16020,"track":3,"noteNumber":56,"velocity":55,"duration":40},{"time":16020,"track":2,"noteNumber":65,"velocity":52,"duration":147},{"time":16020,"track":1,"noteNumber":73,"velocity":70,"duration":133},{"time":16050,"track":3,"noteNumber":53,"velocity":54,"duration":40},{"time":16080,"track":3,"noteNumber":49,"velocity":51,"duration":40},{"time":16110,"track":3,"noteNumber":44,"velocity":48,"duration":40},{"time":16140,"track":2,"noteNumber":73,"velocity":64,"duration":74},{"time":16140,"track":1,"noteNumber":77,"velocity":75,"duration":66},{"time":16140,"track":3,"noteNumber":49,"velocity":45,"duration":40},{"time":16170,"track":3,"noteNumber":44,"velocity":43,"duration":30},{"time":16200,"track":2,"noteNumber":75,"velocity":62,"duration":80},{"time":16200,"track":1,"noteNumber":79,"velocity":76,"duration":80},{"time":16200,"track":4,"noteNumber":39,"velocity":62,"duration":190},{"time":16230,"track":3,"noteNumber":46,"velocity":45,"duration":40},{"time":16260,"track":1,"noteNumber":77,"velocity":74,"duration":80},{"time":16260,"track":3,"noteNumber":51,"velocity":47,"duration":40},{"time":16260,"track":2,"noteNumber":73,"velocity":63,"duration":70},{"time":16290,"track":3,"noteNumber":55,"velocity":48,"duration":40},{"time":16320,"track":2,"noteNumber":70,"velocity":65,"duration":57},{"time":16320,"track":1,"noteNumber":73,"velocity":65,"duration":60},{"time":16320,"track":3,"noteNumber":58,"velocity":55,"duration":40},{"time":16350,"track":3,"noteNumber":63,"velocity":59,"duration":40},{"time":16380,"track":1,"noteNumber":73,"velocity":52,"duration":180},{"time":16380,"track":3,"noteNumber":67,"velocity":63,"duration":40},{"time":16380,"track":2,"noteNumber":70,"velocity":71,"duration":193},{"time":16410,"track":3,"noteNumber":63,"velocity":67,"duration":40},{"time":16440,"track":2,"noteNumber":65,"velocity":73,"duration":70},{"time":16440,"track":3,"noteNumber":58,"velocity":66,"duration":40},{"time":16470,"track":3,"noteNumber":55,"velocity":58,"duration":40},{"time":16500,"track":3,"noteNumber":51,"velocity":55,"duration":40},{"time":16500,"track":2,"noteNumber":61,"velocity":67,"duration":59},{"time":16530,"track":3,"noteNumber":46,"velocity":51,"duration":40},{"time":16560,"track":3,"noteNumber":39,"velocity":47,"duration":40},{"time":16560,"track":2,"noteNumber":61,"velocity":65,"duration":100},{"time":16590,"track":3,"noteNumber":46,"velocity":50,"duration":40},{"time":16620,"track":3,"noteNumber":51,"velocity":54,"duration":40},{"time":16650,"track":3,"noteNumber":55,"velocity":58,"duration":40},{"time":16650,"track":2,"noteNumber":58,"velocity":55,"duration":100},{"time":16680,"track":3,"noteNumber":51,"velocity":56,"duration":40},{"time":16710,"track":3,"noteNumber":46,"velocity":54,"duration":30},{"time":16740,"track":4,"noteNumber":44,"velocity":50,"duration":190},{"time":16740,"track":1,"noteNumber":70,"velocity":56,"duration":372},{"time":16770,"track":3,"noteNumber":51,"velocity":40,"duration":40},{"time":16800,"track":3,"noteNumber":54,"velocity":40,"duration":40},{"time":16830,"track":3,"noteNumber":58,"velocity":42,"duration":40},{"time":16860,"track":3,"noteNumber":60,"velocity":43,"duration":40},{"time":16890,"track":3,"noteNumber":66,"velocity":45,"duration":30},{"time":16920,"track":4,"noteNumber":42,"velocity":58,"duration":190},{"time":16950,"track":3,"noteNumber":49,"velocity":46,"duration":40},{"time":16980,"track":3,"noteNumber":54,"velocity":48,"duration":40},{"time":17010,"track":3,"noteNumber":58,"velocity":51,"duration":40},{"time":17040,"track":3,"noteNumber":61,"velocity":53,"duration":40},{"time":17070,"track":3,"noteNumber":66,"velocity":55,"duration":30},{"time":17100,"track":1,"noteNumber":72,"velocity":65,"duration":135},{"time":17100,"track":4,"noteNumber":41,"velocity":57,"duration":180},{"time":17130,"track":3,"noteNumber":48,"velocity":55,"duration":40},{"time":17160,"track":3,"noteNumber":53,"velocity":58,"duration":40},{"time":17190,"track":3,"noteNumber":56,"velocity":55,"duration":40},{"time":17220,"track":1,"noteNumber":77,"velocity":74,"duration":63},{"time":17220,"track":2,"noteNumber":68,"velocity":44,"duration":40},{"time":17220,"track":3,"noteNumber":60,"velocity":52,"duration":60},{"time":17250,"track":2,"noteNumber":65,"velocity":38,"duration":30},{"time":17280,"track":1,"noteNumber":70,"velocity":65,"duration":375},{"time":17280,"track":4,"noteNumber":44,"velocity":55,"duration":190},{"time":17310,"track":3,"noteNumber":51,"velocity":49,"duration":40},{"time":17340,"track":3,"noteNumber":54,"velocity":51,"duration":40},{"time":17370,"track":3,"noteNumber":58,"velocity":48,"duration":40},{"time":17400,"track":3,"noteNumber":60,"velocity":51,"duration":40},{"time":17430,"track":3,"noteNumber":66,"velocity":54,"duration":30},{"time":17460,"track":4,"noteNumber":42,"velocity":64,"duration":190},{"time":17490,"track":3,"noteNumber":49,"velocity":55,"duration":40},{"time":17520,"track":3,"noteNumber":54,"velocity":55,"duration":40},{"time":17550,"track":3,"noteNumber":58,"velocity":51,"duration":40},{"time":17580,"track":3,"noteNumber":61,"velocity":53,"duration":40},{"time":17610,"track":3,"noteNumber":66,"velocity":54,"duration":30},{"time":17640,"track":4,"noteNumber":41,"velocity":64,"duration":170},{"time":17640,"track":1,"noteNumber":72,"velocity":67,"duration":133},{"time":17670,"track":3,"noteNumber":48,"velocity":53,"duration":40},{"time":17700,"track":3,"noteNumber":53,"velocity":56,"duration":40},{"time":17730,"track":3,"noteNumber":56,"velocity":60,"duration":40},{"time":17760,"track":3,"noteNumber":60,"velocity":62,"duration":60},{"time":17760,"track":2,"noteNumber":68,"velocity":39,"duration":40},{"time":17760,"track":1,"noteNumber":77,"velocity":76,"duration":60},{"time":17790,"track":2,"noteNumber":65,"velocity":35,"duration":30},{"time":17820,"track":1,"noteNumber":78,"velocity":80,"duration":281},{"time":17820,"track":4,"noteNumber":39,"velocity":67,"duration":190},{"time":17850,"track":3,"noteNumber":46,"velocity":66,"duration":40},{"time":17880,"track":3,"noteNumber":51,"velocity":65,"duration":40},{"time":17910,"track":3,"noteNumber":54,"velocity":61,"duration":40},{"time":17940,"track":3,"noteNumber":58,"velocity":64,"duration":40},{"time":17970,"track":3,"noteNumber":63,"velocity":66,"duration":40},{"time":18000,"track":2,"noteNumber":66,"velocity":75,"duration":100},{"time":18030,"track":3,"noteNumber":66,"velocity":70,"duration":40},{"time":18060,"track":3,"noteNumber":70,"velocity":70,"duration":40},{"time":18090,"track":2,"noteNumber":65,"velocity":60,"duration":100},{"time":18090,"track":1,"noteNumber":77,"velocity":79,"duration":100},{"time":18120,"track":3,"noteNumber":66,"velocity":67,"duration":40},{"time":18150,"track":3,"noteNumber":70,"velocity":67,"duration":40},{"time":18180,"track":2,"noteNumber":62,"velocity":63,"duration":100},{"time":18180,"track":1,"noteNumber":74,"velocity":77,"duration":100},{"time":18210,"track":3,"noteNumber":66,"velocity":69,"duration":40},{"time":18240,"track":3,"noteNumber":70,"velocity":69,"duration":40},{"time":18270,"track":2,"noteNumber":63,"velocity":66,"duration":100},{"time":18270,"track":1,"noteNumber":75,"velocity":82,"duration":100},{"time":18300,"track":3,"noteNumber":66,"velocity":71,"duration":40},{"time":18330,"track":3,"noteNumber":70,"velocity":69,"duration":30},{"time":18360,"track":1,"noteNumber":82,"velocity":84,"duration":378},{"time":18360,"track":4,"noteNumber":62,"velocity":66,"duration":190},{"time":18390,"track":3,"noteNumber":66,"velocity":73,"duration":40},{"time":18420,"track":3,"noteNumber":70,"velocity":62,"duration":40},{"time":18450,"track":2,"noteNumber":70,"velocity":74,"duration":40},{"time":18480,"track":2,"noteNumber":78,"velocity":63,"duration":40},{"time":18510,"track":2,"noteNumber":82,"velocity":58,"duration":30},{"time":18540,"track":4,"noteNumber":63,"velocity":64,"duration":190},{"time":18570,"track":3,"noteNumber":66,"velocity":63,"duration":40},{"time":18600,"track":3,"noteNumber":70,"velocity":54,"duration":40},{"time":18630,"track":2,"noteNumber":70,"velocity":66,"duration":40},{"time":18660,"track":2,"noteNumber":78,"velocity":51,"duration":40},{"time":18690,"track":2,"noteNumber":82,"velocity":45,"duration":30},{"time":18720,"track":1,"noteNumber":80,"velocity":68,"duration":180},{"time":18720,"track":3,"noteNumber":60,"velocity":54,"duration":40},{"time":18720,"track":4,"noteNumber":56,"velocity":48,"duration":180},{"time":18750,"track":3,"noteNumber":64,"velocity":57,"duration":40},{"time":18780,"track":3,"noteNumber":68,"velocity":50,"duration":40},{"time":18810,"track":2,"noteNumber":72,"velocity":46,"duration":40},{"time":18840,"track":2,"noteNumber":76,"velocity":43,"duration":40},{"time":18870,"track":2,"noteNumber":80,"velocity":39,"duration":30},{"time":18900,"track":1,"noteNumber":80,"velocity":82,"duration":367},{"time":18900,"track":2,"noteNumber":77,"velocity":57,"duration":372},{"time":18900,"track":4,"noteNumber":49,"velocity":59,"duration":183},{"time":18930,"track":3,"noteNumber":56,"velocity":56,"duration":40},{"time":18960,"track":3,"noteNumber":61,"velocity":56,"duration":40},{"time":18990,"track":3,"noteNumber":65,"velocity":57,"duration":40},{"time":19020,"track":3,"noteNumber":68,"velocity":57,"duration":40},{"time":19050,"track":3,"noteNumber":73,"velocity":59,"duration":30},{"time":19080,"track":3,"noteNumber":56,"velocity":63,"duration":40},{"time":19080,"track":4,"noteNumber":53,"velocity":57,"duration":190},{"time":19110,"track":3,"noteNumber":60,"velocity":64,"duration":40},{"time":19140,"track":3,"noteNumber":65,"velocity":63,"duration":40},{"time":19170,"track":3,"noteNumber":68,"velocity":57,"duration":40},{"time":19200,"track":3,"noteNumber":72,"velocity":65,"duration":40},{"time":19230,"track":3,"noteNumber":77,"velocity":69,"duration":30},{"time":19260,"track":4,"noteNumber":56,"velocity":58,"duration":180},{"time":19260,"track":2,"noteNumber":80,"velocity":62,"duration":135},{"time":19260,"track":3,"noteNumber":59,"velocity":62,"duration":40},{"time":19260,"track":1,"noteNumber":83,"velocity":84,"duration":138},{"time":19290,"track":3,"noteNumber":64,"velocity":66,"duration":40},{"time":19320,"track":3,"noteNumber":68,"velocity":68,"duration":40},{"time":19350,"track":3,"noteNumber":71,"velocity":70,"duration":40},{"time":19380,"track":1,"noteNumber":85,"velocity":89,"duration":63},{"time":19380,"track":3,"noteNumber":76,"velocity":73,"duration":40},{"time":19410,"track":3,"noteNumber":80,"velocity":61,"duration":30},{"time":19440,"track":4,"noteNumber":49,"velocity":62,"duration":190},{"time":19440,"track":1,"noteNumber":80,"velocity":83,"duration":378},{"time":19440,"track":2,"noteNumber":77,"velocity":57,"duration":374},{"time":19470,"track":3,"noteNumber":56,"velocity":58,"duration":40},{"time":19500,"track":3,"noteNumber":61,"velocity":59,"duration":40},{"time":19530,"track":3,"noteNumber":65,"velocity":61,"duration":40},{"time":19560,"track":3,"noteNumber":68,"velocity":64,"duration":40},{"time":19590,"track":3,"noteNumber":73,"velocity":66,"duration":30},{"time":19620,"track":4,"noteNumber":53,"velocity":59,"duration":190},{"time":19620,"track":3,"noteNumber":56,"velocity":63,"duration":40},{"time":19650,"track":3,"noteNumber":60,"velocity":68,"duration":40},{"time":19680,"track":3,"noteNumber":65,"velocity":69,"duration":40},{"time":19710,"track":3,"noteNumber":68,"velocity":70,"duration":40},{"time":19740,"track":3,"noteNumber":72,"velocity":70,"duration":40},{"time":19770,"track":3,"noteNumber":77,"velocity":71,"duration":30},{"time":19800,"track":1,"noteNumber":83,"velocity":82,"duration":137},{"time":19800,"track":2,"noteNumber":80,"velocity":64,"duration":134},{"time":19800,"track":3,"noteNumber":59,"velocity":72,"duration":40},{"time":19800,"track":4,"noteNumber":56,"velocity":50,"duration":180},{"time":19830,"track":3,"noteNumber":64,"velocity":73,"duration":40},{"time":19860,"track":3,"noteNumber":68,"velocity":75,"duration":40},{"time":19890,"track":3,"noteNumber":71,"velocity":76,"duration":40},{"time":19920,"track":1,"noteNumber":80,"velocity":84,"duration":63},{"time":19950,"track":3,"noteNumber":76,"velocity":81,"duration":30},{"time":19980,"track":1,"noteNumber":85,"velocity":87,"duration":194},{"time":19980,"track":3,"noteNumber":61,"velocity":81,"duration":40},{"time":19980,"track":4,"noteNumber":59,"velocity":64,"duration":190},{"time":20010,"track":3,"noteNumber":64,"velocity":81,"duration":40},{"time":20040,"track":3,"noteNumber":68,"velocity":81,"duration":40},{"time":20070,"track":3,"noteNumber":71,"velocity":81,"duration":100},{"time":20070,"track":2,"noteNumber":73,"velocity":67,"duration":40},{"time":20100,"track":1,"noteNumber":80,"velocity":92,"duration":60},{"time":20130,"track":2,"noteNumber":76,"velocity":73,"duration":30},{"time":20160,"track":4,"noteNumber":61,"velocity":68,"duration":190},{"time":20160,"track":3,"noteNumber":64,"velocity":80,"duration":40},{"time":20160,"track":1,"noteNumber":88,"velocity":91,"duration":197},{"time":20190,"track":3,"noteNumber":68,"velocity":81,"duration":40},{"time":20220,"track":3,"noteNumber":71,"velocity":83,"duration":40},{"time":20250,"track":2,"noteNumber":76,"velocity":81,"duration":40},{"time":20250,"track":3,"noteNumber":73,"velocity":84,"duration":100},{"time":20280,"track":1,"noteNumber":85,"velocity":94,"duration":60},{"time":20310,"track":2,"noteNumber":80,"velocity":86,"duration":30},{"time":20340,"track":1,"noteNumber":92,"velocity":96,"duration":180},{"time":20340,"track":3,"noteNumber":68,"velocity":86,"duration":40},{"time":20340,"track":4,"noteNumber":64,"velocity":71,"duration":190},{"time":20370,"track":3,"noteNumber":71,"velocity":85,"duration":40},{"time":20400,"track":3,"noteNumber":73,"velocity":84,"duration":40},{"time":20430,"track":2,"noteNumber":80,"velocity":78,"duration":40},{"time":20430,"track":3,"noteNumber":76,"velocity":83,"duration":100},{"time":20460,"track":1,"noteNumber":88,"velocity":99,"duration":63},{"time":20490,"track":2,"noteNumber":83,"velocity":79,"duration":30},{"time":20520,"track":1,"noteNumber":92,"velocity":99,"duration":194},{"time":20520,"track":4,"noteNumber":68,"velocity":84,"duration":200},{"time":20550,"track":3,"noteNumber":69,"velocity":92,"duration":40},{"time":20580,"track":3,"noteNumber":73,"velocity":89,"duration":40},{"time":20610,"track":2,"noteNumber":80,"velocity":80,"duration":40},{"time":20640,"track":2,"noteNumber":85,"velocity":82,"duration":40},{"time":20670,"track":2,"noteNumber":81,"velocity":83,"duration":30},{"time":20700,"track":1,"noteNumber":90,"velocity":100,"duration":360},{"time":20700,"track":4,"noteNumber":66,"velocity":78,"duration":200},{"time":20730,"track":3,"noteNumber":69,"velocity":81,"duration":40},{"time":20760,"track":3,"noteNumber":73,"velocity":79,"duration":40},{"time":20790,"track":2,"noteNumber":78,"velocity":81,"duration":40},{"time":20820,"track":2,"noteNumber":85,"velocity":80,"duration":40},{"time":20850,"track":2,"noteNumber":81,"velocity":79,"duration":30},{"time":20880,"track":3,"noteNumber":66,"velocity":66,"duration":40},{"time":20880,"track":4,"noteNumber":65,"velocity":66,"duration":190},{"time":20910,"track":3,"noteNumber":69,"velocity":68,"duration":40},{"time":20940,"track":3,"noteNumber":73,"velocity":70,"duration":40},{"time":20970,"track":2,"noteNumber":78,"velocity":80,"duration":40},{"time":21000,"track":2,"noteNumber":85,"velocity":79,"duration":40},{"time":21030,"track":2,"noteNumber":81,"velocity":71,"duration":30},{"time":21060,"track":1,"noteNumber":90,"velocity":91,"duration":376},{"time":21060,"track":4,"noteNumber":64,"velocity":59,"duration":190},{"time":21060,"track":3,"noteNumber":66,"velocity":66,"duration":40},{"time":21090,"track":3,"noteNumber":69,"velocity":72,"duration":40},{"time":21120,"track":3,"noteNumber":73,"velocity":70,"duration":40},{"time":21150,"track":2,"noteNumber":78,"velocity":73,"duration":40},{"time":21180,"track":2,"noteNumber":85,"velocity":73,"duration":40},{"time":21210,"track":2,"noteNumber":81,"velocity":72,"duration":30},{"time":21240,"track":4,"noteNumber":63,"velocity":59,"duration":190},{"time":21240,"track":3,"noteNumber":66,"velocity":65,"duration":40},{"time":21270,"track":3,"noteNumber":69,"velocity":70,"duration":40},{"time":21300,"track":3,"noteNumber":73,"velocity":69,"duration":40},{"time":21330,"track":2,"noteNumber":78,"velocity":73,"duration":40},{"time":21360,"track":2,"noteNumber":85,"velocity":73,"duration":40},{"time":21390,"track":2,"noteNumber":81,"velocity":73,"duration":30},{"time":21420,"track":3,"noteNumber":64,"velocity":65,"duration":40},{"time":21420,"track":4,"noteNumber":61,"velocity":50,"duration":180},{"time":21420,"track":1,"noteNumber":93,"velocity":90,"duration":137},{"time":21450,"track":3,"noteNumber":69,"velocity":71,"duration":40},{"time":21480,"track":3,"noteNumber":73,"velocity":69,"duration":40},{"time":21510,"track":3,"noteNumber":76,"velocity":67,"duration":40},{"time":21540,"track":1,"noteNumber":97,"velocity":95,"duration":60},{"time":21570,"track":2,"noteNumber":85,"velocity":74,"duration":30},{"time":21600,"track":4,"noteNumber":59,"velocity":61,"duration":190},{"time":21600,"track":1,"noteNumber":78,"velocity":80,"duration":383},{"time":21630,"track":3,"noteNumber":63,"velocity":64,"duration":40},{"time":21660,"track":3,"noteNumber":66,"velocity":63,"duration":40},{"time":21690,"track":2,"noteNumber":66,"velocity":75,"duration":40},{"time":21720,"track":2,"noteNumber":73,"velocity":76,"duration":40},{"time":21750,"track":2,"noteNumber":69,"velocity":78,"duration":30},{"time":21780,"track":4,"noteNumber":57,"velocity":70,"duration":190},{"time":21810,"track":3,"noteNumber":61,"velocity":69,"duration":40},{"time":21840,"track":3,"noteNumber":64,"velocity":71,"duration":40},{"time":21870,"track":2,"noteNumber":66,"velocity":84,"duration":40},{"time":21900,"track":2,"noteNumber":73,"velocity":87,"duration":40},{"time":21930,"track":2,"noteNumber":69,"velocity":90,"duration":30},{"time":21960,"track":1,"noteNumber":81,"velocity":97,"duration":134},{"time":21960,"track":4,"noteNumber":56,"velocity":80,"duration":180},{"time":21990,"track":3,"noteNumber":61,"velocity":76,"duration":40},{"time":22020,"track":3,"noteNumber":64,"velocity":81,"duration":40},{"time":22050,"track":3,"noteNumber":69,"velocity":85,"duration":40},{"time":22080,"track":1,"noteNumber":85,"velocity":105,"duration":65},{"time":22080,"track":2,"noteNumber":76,"velocity":92,"duration":40},{"time":22110,"track":2,"noteNumber":81,"velocity":96,"duration":30},{"time":22140,"track":2,"noteNumber":85,"velocity":100,"duration":70},{"time":22140,"track":4,"noteNumber":54,"velocity":98,"duration":540},{"time":22140,"track":1,"noteNumber":88,"velocity":108,"duration":70},{"time":22170,"track":3,"noteNumber":61,"velocity":87,"duration":40},{"time":22200,"track":2,"noteNumber":83,"velocity":98,"duration":70},{"time":22200,"track":1,"noteNumber":87,"velocity":108,"duration":70},{"time":22200,"track":3,"noteNumber":64,"velocity":92,"duration":40},{"time":22230,"track":3,"noteNumber":66,"velocity":96,"duration":40},{"time":22260,"track":3,"noteNumber":69,"velocity":100,"duration":40},{"time":22260,"track":2,"noteNumber":81,"velocity":95,"duration":70},{"time":22260,"track":1,"noteNumber":85,"velocity":107,"duration":70},{"time":22290,"track":3,"noteNumber":73,"velocity":92,"duration":40},{"time":22320,"track":3,"noteNumber":76,"velocity":94,"duration":40},{"time":22320,"track":2,"noteNumber":80,"velocity":93,"duration":100},{"time":22320,"track":1,"noteNumber":83,"velocity":105,"duration":100},{"time":22350,"track":3,"noteNumber":78,"velocity":95,"duration":40},{"time":22380,"track":3,"noteNumber":76,"velocity":97,"duration":40},{"time":22410,"track":3,"noteNumber":73,"velocity":90,"duration":40},{"time":22410,"track":1,"noteNumber":81,"velocity":101,"duration":156},{"time":22410,"track":2,"noteNumber":78,"velocity":90,"duration":150},{"time":22440,"track":3,"noteNumber":69,"velocity":90,"duration":40},{"time":22470,"track":3,"noteNumber":66,"velocity":96,"duration":40},{"time":22500,"track":3,"noteNumber":64,"velocity":93,"duration":40},{"time":22530,"track":3,"noteNumber":66,"velocity":95,"duration":40},{"time":22560,"track":3,"noteNumber":64,"velocity":85,"duration":40},{"time":22560,"track":1,"noteNumber":80,"velocity":89,"duration":70},{"time":22560,"track":2,"noteNumber":76,"velocity":89,"duration":70},{"time":22590,"track":3,"noteNumber":61,"velocity":82,"duration":40},{"time":22620,"track":2,"noteNumber":75,"velocity":89,"duration":60},{"time":22620,"track":1,"noteNumber":78,"velocity":84,"duration":63},{"time":22620,"track":3,"noteNumber":57,"velocity":77,"duration":40},{"time":22650,"track":3,"noteNumber":54,"velocity":73,"duration":30},{"time":22680,"track":1,"noteNumber":76,"velocity":95,"duration":70},{"time":22680,"track":2,"noteNumber":73,"velocity":83,"duration":70},{"time":22680,"track":4,"noteNumber":42,"velocity":92,"duration":240},{"time":22710,"track":4,"noteNumber":49,"velocity":88,"duration":60},{"time":22740,"track":4,"noteNumber":52,"velocity":70,"duration":60},{"time":22740,"track":2,"noteNumber":71,"velocity":88,"duration":70},{"time":22740,"track":1,"noteNumber":75,"velocity":93,"duration":80},{"time":22770,"track":3,"noteNumber":54,"velocity":85,"duration":40},{"time":22800,"track":3,"noteNumber":57,"velocity":82,"duration":40},{"time":22800,"track":1,"noteNumber":73,"velocity":87,"duration":70},{"time":22800,"track":2,"noteNumber":69,"velocity":90,"duration":60},{"time":22830,"track":3,"noteNumber":61,"velocity":73,"duration":40},{"time":22860,"track":2,"noteNumber":68,"velocity":89,"duration":70},{"time":22860,"track":3,"noteNumber":64,"velocity":76,"duration":40},{"time":22860,"track":1,"noteNumber":71,"velocity":80,"duration":70},{"time":22890,"track":3,"noteNumber":61,"velocity":78,"duration":40},{"time":22920,"track":1,"noteNumber":69,"velocity":74,"duration":70},{"time":22920,"track":3,"noteNumber":57,"velocity":69,"duration":40},{"time":22920,"track":2,"noteNumber":66,"velocity":83,"duration":70},{"time":22950,"track":3,"noteNumber":54,"velocity":62,"duration":40},{"time":22980,"track":1,"noteNumber":68,"velocity":67,"duration":132},{"time":22980,"track":3,"noteNumber":52,"velocity":55,"duration":40},{"time":22980,"track":2,"noteNumber":64,"velocity":75,"duration":129},{"time":23010,"track":3,"noteNumber":49,"velocity":48,"duration":30},{"time":23040,"track":3,"noteNumber":57,"velocity":51,"duration":180},{"time":23040,"track":4,"noteNumber":42,"velocity":68,"duration":60},{"time":23070,"track":4,"noteNumber":49,"velocity":65,"duration":60},{"time":23100,"track":2,"noteNumber":63,"velocity":61,"duration":66},{"time":23100,"track":1,"noteNumber":66,"velocity":64,"duration":70},{"time":23100,"track":4,"noteNumber":42,"velocity":57,"duration":60},{"time":23130,"track":4,"noteNumber":49,"velocity":51,"duration":60},{"time":23160,"track":4,"noteNumber":42,"velocity":47,"duration":60},{"time":23160,"track":2,"noteNumber":61,"velocity":55,"duration":60},{"time":23160,"track":1,"noteNumber":64,"velocity":62,"duration":66},{"time":23190,"track":4,"noteNumber":49,"velocity":42,"duration":60},{"time":23220,"track":2,"noteNumber":61,"velocity":44,"duration":371},{"time":23220,"track":4,"noteNumber":44,"velocity":41,"duration":60},{"time":23220,"track":1,"noteNumber":63,"velocity":56,"duration":373},{"time":23220,"track":3,"noteNumber":54,"velocity":56,"duration":130},{"time":23250,"track":4,"noteNumber":51,"velocity":36,"duration":60},{"time":23280,"track":4,"noteNumber":44,"velocity":36,"duration":60},{"time":23310,"track":4,"noteNumber":51,"velocity":36,"duration":60},{"time":23340,"track":3,"noteNumber":56,"velocity":57,"duration":70},{"time":23340,"track":4,"noteNumber":44,"velocity":36,"duration":60},{"time":23370,"track":4,"noteNumber":51,"velocity":36,"duration":60},{"time":23400,"track":3,"noteNumber":58,"velocity":60,"duration":137},{"time":23400,"track":4,"noteNumber":44,"velocity":36,"duration":60},{"time":23430,"track":4,"noteNumber":51,"velocity":35,"duration":60},{"time":23460,"track":4,"noteNumber":44,"velocity":35,"duration":60},{"time":23490,"track":4,"noteNumber":51,"velocity":35,"duration":60},{"time":23520,"track":3,"noteNumber":61,"velocity":64,"duration":76},{"time":23520,"track":4,"noteNumber":44,"velocity":41,"duration":60},{"time":23550,"track":4,"noteNumber":51,"velocity":42,"duration":60},{"time":23580,"track":4,"noteNumber":44,"velocity":43,"duration":60},{"time":23580,"track":1,"noteNumber":66,"velocity":61,"duration":134},{"time":23580,"track":3,"noteNumber":60,"velocity":52,"duration":180},{"time":23580,"track":2,"noteNumber":63,"velocity":50,"duration":132},{"time":23610,"track":4,"noteNumber":51,"velocity":45,"duration":60},{"time":23640,"track":4,"noteNumber":44,"velocity":44,"duration":60},{"time":23670,"track":4,"noteNumber":51,"velocity":42,"duration":60},{"time":23700,"track":1,"noteNumber":70,"velocity":57,"duration":62},{"time":23700,"track":4,"noteNumber":44,"velocity":41,"duration":60},{"time":23700,"track":2,"noteNumber":66,"velocity":50,"duration":60},{"time":23700,"track":2,"noteNumber":63,"velocity":50,"duration":60},{"time":23730,"track":4,"noteNumber":51,"velocity":39,"duration":60},{"time":23760,"track":2,"noteNumber":61,"velocity":50,"duration":376},{"time":23760,"track":4,"noteNumber":44,"velocity":38,"duration":60},{"time":23760,"track":1,"noteNumber":63,"velocity":50,"duration":381},{"time":23760,"track":3,"noteNumber":54,"velocity":51,"duration":134},{"time":23790,"track":4,"noteNumber":51,"velocity":37,"duration":60},{"time":23820,"track":4,"noteNumber":44,"velocity":36,"duration":60},{"time":23850,"track":4,"noteNumber":51,"velocity":35,"duration":60},{"time":23880,"track":3,"noteNumber":56,"velocity":55,"duration":70},{"time":23880,"track":4,"noteNumber":44,"velocity":34,"duration":60},{"time":23910,"track":4,"noteNumber":51,"velocity":33,"duration":60},{"time":23940,"track":3,"noteNumber":58,"velocity":58,"duration":134},{"time":23940,"track":4,"noteNumber":44,"velocity":33,"duration":60},{"time":23970,"track":4,"noteNumber":51,"velocity":34,"duration":60},{"time":24000,"track":4,"noteNumber":44,"velocity":35,"duration":60},{"time":24030,"track":4,"noteNumber":51,"velocity":35,"duration":60},{"time":24060,"track":4,"noteNumber":44,"velocity":36,"duration":60},{"time":24060,"track":3,"noteNumber":61,"velocity":63,"duration":71},{"time":24090,"track":4,"noteNumber":51,"velocity":38,"duration":60},{"time":24120,"track":4,"noteNumber":44,"velocity":41,"duration":60},{"time":24120,"track":1,"noteNumber":66,"velocity":59,"duration":132},{"time":24120,"track":2,"noteNumber":63,"velocity":50,"duration":133},{"time":24120,"track":3,"noteNumber":60,"velocity":58,"duration":180},{"time":24150,"track":4,"noteNumber":51,"velocity":44,"duration":60},{"time":24180,"track":4,"noteNumber":44,"velocity":43,"duration":60},{"time":24210,"track":4,"noteNumber":51,"velocity":41,"duration":60},{"time":24240,"track":1,"noteNumber":70,"velocity":63,"duration":136},{"time":24240,"track":2,"noteNumber":63,"velocity":50,"duration":131},{"time":24240,"track":2,"noteNumber":66,"velocity":50,"duration":131},{"time":24240,"track":4,"noteNumber":44,"velocity":40,"duration":60},{"time":24270,"track":4,"noteNumber":51,"velocity":38,"duration":60},{"time":24300,"track":4,"noteNumber":44,"velocity":37,"duration":60},{"time":24330,"track":4,"noteNumber":39,"velocity":46,"duration":60},{"time":24360,"track":1,"noteNumber":77,"velocity":75,"duration":80},{"time":24360,"track":2,"noteNumber":72,"velocity":57,"duration":80},{"time":24360,"track":2,"noteNumber":68,"velocity":57,"duration":80},{"time":24360,"track":4,"noteNumber":44,"velocity":51,"duration":60},{"time":24390,"track":4,"noteNumber":51,"velocity":56,"duration":60},{"time":24420,"track":4,"noteNumber":44,"velocity":60,"duration":60},{"time":24420,"track":2,"noteNumber":66,"velocity":53,"duration":60},{"time":24420,"track":1,"noteNumber":75,"velocity":71,"duration":80},{"time":24420,"track":2,"noteNumber":70,"velocity":53,"duration":70},{"time":24450,"track":4,"noteNumber":51,"velocity":59,"duration":60},{"time":24480,"track":2,"noteNumber":66,"velocity":44,"duration":70},{"time":24480,"track":4,"noteNumber":56,"velocity":61,"duration":60},{"time":24480,"track":3,"noteNumber":61,"velocity":62,"duration":80},{"time":24480,"track":1,"noteNumber":70,"velocity":73,"duration":197},{"time":24510,"track":4,"noteNumber":51,"velocity":62,"duration":60},{"time":24540,"track":3,"noteNumber":58,"velocity":67,"duration":80},{"time":24540,"track":4,"noteNumber":56,"velocity":65,"duration":60},{"time":24570,"track":4,"noteNumber":63,"velocity":65,"duration":60},{"time":24600,"track":3,"noteNumber":61,"velocity":65,"duration":80},{"time":24600,"track":4,"noteNumber":56,"velocity":67,"duration":60},{"time":24630,"track":4,"noteNumber":51,"velocity":65,"duration":60},{"time":24660,"track":2,"noteNumber":66,"velocity":41,"duration":180},{"time":24660,"track":4,"noteNumber":56,"velocity":63,"duration":60},{"time":24660,"track":3,"noteNumber":58,"velocity":69,"duration":80},{"time":24660,"track":1,"noteNumber":68,"velocity":65,"duration":180},{"time":24690,"track":4,"noteNumber":51,"velocity":56,"duration":60},{"time":24720,"track":3,"noteNumber":60,"velocity":61,"duration":80},{"time":24720,"track":4,"noteNumber":44,"velocity":53,"duration":60},{"time":24750,"track":4,"noteNumber":51,"velocity":49,"duration":60},{"time":24780,"track":3,"noteNumber":63,"velocity":53,"duration":60},{"time":24780,"track":4,"noteNumber":44,"velocity":44,"duration":60},{"time":24810,"track":4,"noteNumber":39,"velocity":38,"duration":60},{"time":24840,"track":4,"noteNumber":44,"velocity":41,"duration":60},{"time":24840,"track":2,"noteNumber":66,"velocity":46,"duration":70},{"time":24840,"track":2,"noteNumber":61,"velocity":46,"duration":70},{"time":24840,"track":1,"noteNumber":70,"velocity":64,"duration":80},{"time":24870,"track":4,"noteNumber":39,"velocity":46,"duration":60},{"time":24900,"track":2,"noteNumber":68,"velocity":47,"duration":80},{"time":24900,"track":4,"noteNumber":44,"velocity":52,"duration":60},{"time":24900,"track":2,"noteNumber":72,"velocity":47,"duration":80},{"time":24900,"track":1,"noteNumber":77,"velocity":75,"duration":80},{"time":24930,"track":4,"noteNumber":51,"velocity":58,"duration":60},{"time":24960,"track":4,"noteNumber":44,"velocity":56,"duration":60},{"time":24960,"track":2,"noteNumber":66,"velocity":39,"duration":60},{"time":24960,"track":1,"noteNumber":75,"velocity":71,"duration":80},{"time":24960,"track":2,"noteNumber":70,"velocity":39,"duration":60},{"time":24990,"track":4,"noteNumber":51,"velocity":58,"duration":60},{"time":25020,"track":2,"noteNumber":66,"velocity":31,"duration":180},{"time":25020,"track":1,"noteNumber":70,"velocity":66,"duration":205},{"time":25020,"track":3,"noteNumber":61,"velocity":60,"duration":80},{"time":25020,"track":4,"noteNumber":56,"velocity":60,"duration":60},{"time":25050,"track":4,"noteNumber":51,"velocity":54,"duration":60},{"time":25080,"track":3,"noteNumber":58,"velocity":56,"duration":80},{"time":25080,"track":4,"noteNumber":56,"velocity":52,"duration":60},{"time":25110,"track":4,"noteNumber":63,"velocity":49,"duration":60},{"time":25140,"track":3,"noteNumber":61,"velocity":58,"duration":80},{"time":25140,"track":4,"noteNumber":56,"velocity":50,"duration":60},{"time":25170,"track":4,"noteNumber":51,"velocity":47,"duration":60},{"time":25200,"track":2,"noteNumber":66,"velocity":28,"duration":180},{"time":25200,"track":4,"noteNumber":56,"velocity":42,"duration":60},{"time":25200,"track":1,"noteNumber":68,"velocity":53,"duration":180},{"time":25200,"track":3,"noteNumber":58,"velocity":56,"duration":80},{"time":25230,"track":4,"noteNumber":51,"velocity":44,"duration":60},{"time":25260,"track":3,"noteNumber":60,"velocity":49,"duration":80},{"time":25260,"track":4,"noteNumber":56,"velocity":41,"duration":60},{"time":25290,"track":4,"noteNumber":51,"velocity":37,"duration":60},{"time":25320,"track":3,"noteNumber":63,"velocity":40,"duration":60},{"time":25320,"track":4,"noteNumber":56,"velocity":33,"duration":60},{"time":25350,"track":4,"noteNumber":51,"velocity":30,"duration":30},{"time":25380,"track":4,"noteNumber":54,"velocity":51,"duration":150},{"time":25380,"track":3,"noteNumber":61,"velocity":24,"duration":374},{"time":25380,"track":1,"noteNumber":75,"velocity":53,"duration":378},{"time":25410,"track":2,"noteNumber":63,"velocity":45,"duration":40},{"time":25440,"track":2,"noteNumber":66,"velocity":49,"duration":40},{"time":25470,"track":2,"noteNumber":70,"velocity":50,"duration":40},{"time":25500,"track":2,"noteNumber":66,"velocity":46,"duration":40},{"time":25500,"track":4,"noteNumber":56,"velocity":50,"duration":80},{"time":25530,"track":2,"noteNumber":63,"velocity":42,"duration":30},{"time":25560,"track":4,"noteNumber":58,"velocity":50,"duration":148},{"time":25590,"track":2,"noteNumber":63,"velocity":43,"duration":40},{"time":25620,"track":2,"noteNumber":66,"velocity":43,"duration":40},{"time":25650,"track":2,"noteNumber":70,"velocity":44,"duration":40},{"time":25680,"track":2,"noteNumber":66,"velocity":44,"duration":40},{"time":25680,"track":4,"noteNumber":61,"velocity":52,"duration":80},{"time":25710,"track":2,"noteNumber":63,"velocity":44,"duration":30},{"time":25740,"track":1,"noteNumber":78,"velocity":71,"duration":138},{"time":25740,"track":4,"noteNumber":60,"velocity":44,"duration":180},{"time":25770,"track":3,"noteNumber":63,"velocity":50,"duration":40},{"time":25800,"track":3,"noteNumber":66,"velocity":50,"duration":40},{"time":25830,"track":3,"noteNumber":70,"velocity":50,"duration":30},{"time":25860,"track":1,"noteNumber":82,"velocity":62,"duration":60},{"time":25860,"track":2,"noteNumber":72,"velocity":51,"duration":40},{"time":25890,"track":2,"noteNumber":75,"velocity":50,"duration":30},{"time":25920,"track":1,"noteNumber":75,"velocity":57,"duration":382},{"time":25920,"track":3,"noteNumber":61,"velocity":38,"duration":373},{"time":25920,"track":4,"noteNumber":54,"velocity":49,"duration":147},{"time":25950,"track":2,"noteNumber":63,"velocity":46,"duration":40},{"time":25980,"track":2,"noteNumber":66,"velocity":46,"duration":40},{"time":26010,"track":2,"noteNumber":70,"velocity":45,"duration":40},{"time":26040,"track":2,"noteNumber":66,"velocity":44,"duration":40},{"time":26040,"track":4,"noteNumber":56,"velocity":54,"duration":80},{"time":26070,"track":2,"noteNumber":63,"velocity":40,"duration":30},{"time":26100,"track":4,"noteNumber":58,"velocity":48,"duration":144},{"time":26130,"track":2,"noteNumber":63,"velocity":43,"duration":40},{"time":26160,"track":2,"noteNumber":66,"velocity":41,"duration":40},{"time":26190,"track":2,"noteNumber":70,"velocity":41,"duration":40},{"time":26220,"track":2,"noteNumber":66,"velocity":41,"duration":40},{"time":26220,"track":4,"noteNumber":61,"velocity":47,"duration":80},{"time":26250,"track":2,"noteNumber":63,"velocity":40,"duration":30},{"time":26280,"track":1,"noteNumber":78,"velocity":67,"duration":137},{"time":26280,"track":4,"noteNumber":60,"velocity":37,"duration":180},{"time":26310,"track":3,"noteNumber":63,"velocity":45,"duration":40},{"time":26340,"track":3,"noteNumber":66,"velocity":44,"duration":40},{"time":26370,"track":3,"noteNumber":70,"velocity":42,"duration":30},{"time":26400,"track":2,"noteNumber":72,"velocity":41,"duration":40},{"time":26400,"track":1,"noteNumber":82,"velocity":57,"duration":70},{"time":26430,"track":2,"noteNumber":75,"velocity":42,"duration":30},{"time":26460,"track":3,"noteNumber":66,"velocity":31,"duration":360},{"time":26460,"track":1,"noteNumber":87,"velocity":47,"duration":741},{"time":26490,"track":2,"noteNumber":70,"velocity":38,"duration":40},{"time":26520,"track":2,"noteNumber":73,"velocity":37,"duration":40},{"time":26550,"track":2,"noteNumber":75,"velocity":35,"duration":40},{"time":26580,"track":2,"noteNumber":78,"velocity":34,"duration":40},{"time":26610,"track":2,"noteNumber":82,"velocity":27,"duration":30},{"time":26640,"track":2,"noteNumber":66,"velocity":37,"duration":40},{"time":26670,"track":2,"noteNumber":70,"velocity":35,"duration":40},{"time":26700,"track":2,"noteNumber":73,"velocity":33,"duration":40},{"time":26730,"track":2,"noteNumber":75,"velocity":30,"duration":40},{"time":26760,"track":2,"noteNumber":78,"velocity":29,"duration":40},{"time":26790,"track":2,"noteNumber":84,"velocity":28,"duration":30},{"time":26820,"track":3,"noteNumber":66,"velocity":31,"duration":180},{"time":26850,"track":2,"noteNumber":70,"velocity":26,"duration":40},{"time":26880,"track":2,"noteNumber":73,"velocity":25,"duration":40},{"time":26910,"track":2,"noteNumber":75,"velocity":24,"duration":40},{"time":26940,"track":2,"noteNumber":78,"velocity":22,"duration":40},{"time":26970,"track":2,"noteNumber":82,"velocity":21,"duration":30},{"time":27000,"track":3,"noteNumber":66,"velocity":29,"duration":360},{"time":27030,"track":2,"noteNumber":69,"velocity":24,"duration":40},{"time":27060,"track":2,"noteNumber":73,"velocity":23,"duration":40},{"time":27090,"track":2,"noteNumber":75,"velocity":21,"duration":40},{"time":27120,"track":2,"noteNumber":78,"velocity":20,"duration":40},{"time":27150,"track":2,"noteNumber":81,"velocity":19,"duration":30},{"time":27180,"track":1,"noteNumber":85,"velocity":52,"duration":196},{"time":27180,"track":2,"noteNumber":66,"velocity":23,"duration":40},{"time":27210,"track":2,"noteNumber":69,"velocity":22,"duration":40},{"time":27240,"track":2,"noteNumber":73,"velocity":18,"duration":40},{"time":27270,"track":2,"noteNumber":75,"velocity":16,"duration":40},{"time":27300,"track":2,"noteNumber":78,"velocity":14,"duration":40},{"time":27330,"track":2,"noteNumber":83,"velocity":12,"duration":30},{"time":27360,"track":1,"noteNumber":87,"velocity":46,"duration":180},{"time":27360,"track":3,"noteNumber":66,"velocity":28,"duration":180},{"time":27390,"track":2,"noteNumber":69,"velocity":20,"duration":40},{"time":27420,"track":2,"noteNumber":73,"velocity":15,"duration":40},{"time":27450,"track":2,"noteNumber":75,"velocity":13,"duration":40},{"time":27480,"track":2,"noteNumber":78,"velocity":12,"duration":40},{"time":27510,"track":2,"noteNumber":81,"velocity":11,"duration":30},{"time":27540,"track":3,"noteNumber":65,"velocity":28,"duration":360},{"time":27570,"track":2,"noteNumber":68,"velocity":23,"duration":40},{"time":27600,"track":2,"noteNumber":72,"velocity":21,"duration":40},{"time":27630,"track":2,"noteNumber":77,"velocity":19,"duration":40},{"time":27660,"track":2,"noteNumber":80,"velocity":18,"duration":40},{"time":27690,"track":2,"noteNumber":84,"velocity":16,"duration":40},{"time":27720,"track":1,"noteNumber":92,"velocity":39,"duration":198},{"time":27720,"track":2,"noteNumber":89,"velocity":16,"duration":180},{"time":27900,"track":3,"noteNumber":65,"velocity":27,"duration":180},{"time":27900,"track":1,"noteNumber":89,"velocity":39,"duration":256},{"time":28080,"track":3,"noteNumber":65,"velocity":34,"duration":360},{"time":28110,"track":3,"noteNumber":69,"velocity":32,"duration":40},{"time":28140,"track":1,"noteNumber":87,"velocity":47,"duration":70},{"time":28140,"track":2,"noteNumber":84,"velocity":23,"duration":80},{"time":28140,"track":3,"noteNumber":72,"velocity":30,"duration":40},{"time":28170,"track":3,"noteNumber":75,"velocity":32,"duration":40},{"time":28200,"track":1,"noteNumber":89,"velocity":42,"duration":70},{"time":28200,"track":2,"noteNumber":85,"velocity":21,"duration":80},{"time":28200,"track":3,"noteNumber":77,"velocity":28,"duration":40},{"time":28230,"track":3,"noteNumber":81,"velocity":25,"duration":30},{"time":28260,"track":1,"noteNumber":87,"velocity":36,"duration":431},{"time":28260,"track":2,"noteNumber":84,"velocity":19,"duration":420},{"time":28440,"track":3,"noteNumber":65,"velocity":36,"duration":180},{"time":28620,"track":3,"noteNumber":65,"velocity":33,"duration":360},{"time":28650,"track":3,"noteNumber":68,"velocity":31,"duration":40},{"time":28680,"track":1,"noteNumber":85,"velocity":40,"duration":70},{"time":28680,"track":2,"noteNumber":82,"velocity":29,"duration":80},{"time":28680,"track":3,"noteNumber":70,"velocity":30,"duration":40},{"time":28710,"track":3,"noteNumber":73,"velocity":28,"duration":40},{"time":28740,"track":2,"noteNumber":84,"velocity":26,"duration":80},{"time":28740,"track":3,"noteNumber":77,"velocity":27,"duration":40},{"time":28740,"track":1,"noteNumber":87,"velocity":42,"duration":80},{"time":28770,"track":3,"noteNumber":80,"velocity":25,"duration":30},{"time":28800,"track":1,"noteNumber":85,"velocity":45,"duration":105},{"time":28800,"track":2,"noteNumber":82,"velocity":23,"duration":103},{"time":28890,"track":2,"noteNumber":85,"velocity":20,"duration":192},{"time":28890,"track":1,"noteNumber":89,"velocity":42,"duration":192},{"time":28980,"track":3,"noteNumber":65,"velocity":30,"duration":180},{"time":29070,"track":1,"noteNumber":85,"velocity":40,"duration":165},{"time":29070,"track":2,"noteNumber":82,"velocity":19,"duration":170},{"time":29160,"track":3,"noteNumber":63,"velocity":30,"duration":360},{"time":29190,"track":3,"noteNumber":66,"velocity":29,"duration":40},{"time":29220,"track":1,"noteNumber":84,"velocity":44,"duration":70},{"time":29220,"track":2,"noteNumber":80,"velocity":27,"duration":70},{"time":29220,"track":3,"noteNumber":68,"velocity":27,"duration":40},{"time":29250,"track":3,"noteNumber":72,"velocity":26,"duration":40},{"time":29280,"track":3,"noteNumber":75,"velocity":25,"duration":40},{"time":29280,"track":1,"noteNumber":85,"velocity":41,"duration":80},{"time":29280,"track":2,"noteNumber":82,"velocity":24,"duration":70},{"time":29310,"track":3,"noteNumber":78,"velocity":24,"duration":30},{"time":29340,"track":1,"noteNumber":84,"velocity":35,"duration":360},{"time":29340,"track":2,"noteNumber":80,"velocity":21,"duration":360},{"time":29520,"track":3,"noteNumber":63,"velocity":27,"duration":180},{"time":29700,"track":3,"noteNumber":61,"velocity":30,"duration":360},{"time":29730,"track":3,"noteNumber":63,"velocity":29,"duration":40},{"time":29760,"track":1,"noteNumber":82,"velocity":40,"duration":70},{"time":29760,"track":2,"noteNumber":78,"velocity":22,"duration":80},{"time":29760,"track":3,"noteNumber":66,"velocity":27,"duration":40},{"time":29790,"track":3,"noteNumber":70,"velocity":26,"duration":40},{"time":29820,"track":2,"noteNumber":80,"velocity":19,"duration":70},{"time":29820,"track":3,"noteNumber":73,"velocity":24,"duration":40},{"time":29820,"track":1,"noteNumber":84,"velocity":44,"duration":70},{"time":29850,"track":3,"noteNumber":75,"velocity":23,"duration":30},{"time":29880,"track":1,"noteNumber":82,"velocity":44,"duration":120},{"time":29880,"track":2,"noteNumber":78,"velocity":17,"duration":188},{"time":29940,"track":1,"noteNumber":87,"velocity":40,"duration":80},{"time":30000,"track":1,"noteNumber":82,"velocity":45,"duration":63},{"time":30060,"track":1,"noteNumber":80,"velocity":45,"duration":120},{"time":30060,"track":2,"noteNumber":77,"velocity":20,"duration":249},{"time":30060,"track":3,"noteNumber":60,"velocity":22,"duration":180},{"time":30065,"track":3,"noteNumber":63,"velocity":22,"duration":180},{"time":30070,"track":3,"noteNumber":65,"velocity":22,"duration":180},{"time":30075,"track":3,"noteNumber":68,"velocity":21,"duration":180},{"time":30080,"track":3,"noteNumber":72,"velocity":21,"duration":180},{"time":30120,"track":1,"noteNumber":82,"velocity":46,"duration":70},{"time":30180,"track":1,"noteNumber":80,"velocity":45,"duration":137},{"time":30240,"track":4,"noteNumber":48,"velocity":39,"duration":360},{"time":30270,"track":3,"noteNumber":54,"velocity":47,"duration":40},{"time":30300,"track":2,"noteNumber":75,"velocity":28,"duration":70},{"time":30300,"track":1,"noteNumber":78,"velocity":49,"duration":120},{"time":30300,"track":3,"noteNumber":58,"velocity":44,"duration":40},{"time":30330,"track":3,"noteNumber":60,"velocity":43,"duration":40},{"time":30360,"track":2,"noteNumber":77,"velocity":29,"duration":80},{"time":30360,"track":1,"noteNumber":80,"velocity":49,"duration":70},{"time":30360,"track":3,"noteNumber":63,"velocity":40,"duration":40},{"time":30390,"track":3,"noteNumber":66,"velocity":39,"duration":30},{"time":30420,"track":3,"noteNumber":70,"velocity":36,"duration":180},{"time":30420,"track":1,"noteNumber":78,"velocity":49,"duration":189},{"time":30420,"track":2,"noteNumber":75,"velocity":30,"duration":196},{"time":30600,"track":1,"noteNumber":77,"velocity":42,"duration":240},{"time":30600,"track":2,"noteNumber":69,"velocity":23,"duration":180},{"time":30600,"track":4,"noteNumber":53,"velocity":45,"duration":180},{"time":30600,"track":3,"noteNumber":60,"velocity":22,"duration":180},{"time":30600,"track":3,"noteNumber":63,"velocity":22,"duration":180},{"time":30780,"track":4,"noteNumber":56,"velocity":36,"duration":360},{"time":30810,"track":3,"noteNumber":58,"velocity":30,"duration":40},{"time":30840,"track":2,"noteNumber":73,"velocity":25,"duration":70},{"time":30840,"track":1,"noteNumber":77,"velocity":43,"duration":70},{"time":30840,"track":3,"noteNumber":61,"velocity":26,"duration":40},{"time":30870,"track":3,"noteNumber":65,"velocity":24,"duration":40},{"time":30900,"track":2,"noteNumber":75,"velocity":27,"duration":80},{"time":30900,"track":1,"noteNumber":78,"velocity":45,"duration":70},{"time":30900,"track":3,"noteNumber":68,"velocity":22,"duration":40},{"time":30930,"track":3,"noteNumber":70,"velocity":20,"duration":30},{"time":30960,"track":1,"noteNumber":77,"velocity":45,"duration":120},{"time":30960,"track":2,"noteNumber":73,"velocity":21,"duration":197},{"time":31020,"track":1,"noteNumber":82,"velocity":40,"duration":80},{"time":31080,"track":1,"noteNumber":77,"velocity":45,"duration":67},{"time":31140,"track":3,"noteNumber":54,"velocity":23,"duration":180},{"time":31140,"track":1,"noteNumber":75,"velocity":42,"duration":120},{"time":31140,"track":2,"noteNumber":73,"velocity":16,"duration":186},{"time":31145,"track":3,"noteNumber":58,"velocity":22,"duration":180},{"time":31150,"track":3,"noteNumber":61,"velocity":22,"duration":180},{"time":31155,"track":3,"noteNumber":63,"velocity":22,"duration":180},{"time":31200,"track":1,"noteNumber":77,"velocity":42,"duration":70},{"time":31260,"track":1,"noteNumber":75,"velocity":32,"duration":132},{"time":31320,"track":4,"noteNumber":53,"velocity":31,"duration":360},{"time":31350,"track":3,"noteNumber":56,"velocity":25,"duration":40},{"time":31380,"track":1,"noteNumber":73,"velocity":37,"duration":120},{"time":31380,"track":3,"noteNumber":58,"velocity":23,"duration":40},{"time":31380,"track":2,"noteNumber":70,"velocity":32,"duration":70},{"time":31410,"track":3,"noteNumber":61,"velocity":22,"duration":40},{"time":31440,"track":1,"noteNumber":75,"velocity":39,"duration":70},{"time":31440,"track":3,"noteNumber":65,"velocity":21,"duration":40},{"time":31440,"track":2,"noteNumber":72,"velocity":28,"duration":80},{"time":31470,"track":3,"noteNumber":68,"velocity":20,"duration":30},{"time":31500,"track":1,"noteNumber":73,"velocity":37,"duration":190},{"time":31500,"track":2,"noteNumber":70,"velocity":21,"duration":193},{"time":31680,"track":3,"noteNumber":54,"velocity":24,"duration":180},{"time":31680,"track":1,"noteNumber":72,"velocity":30,"duration":180},{"time":31680,"track":3,"noteNumber":60,"velocity":24,"duration":180},{"time":31680,"track":4,"noteNumber":51,"velocity":38,"duration":90},{"time":31680,"track":2,"noteNumber":68,"velocity":21,"duration":188},{"time":31770,"track":4,"noteNumber":44,"velocity":40,"duration":90},{"time":31860,"track":4,"noteNumber":44,"velocity":36,"duration":240},{"time":31860,"track":4,"noteNumber":37,"velocity":36,"duration":240},{"time":31920,"track":2,"noteNumber":53,"velocity":36,"duration":80},{"time":31920,"track":2,"noteNumber":56,"velocity":36,"duration":80},{"time":31980,"track":3,"noteNumber":68,"velocity":40,"duration":420},{"time":31980,"track":3,"noteNumber":65,"velocity":37,"duration":420},{"time":32040,"track":2,"noteNumber":77,"velocity":33,"duration":189},{"time":32040,"track":3,"noteNumber":59,"velocity":43,"duration":360},{"time":32040,"track":1,"noteNumber":80,"velocity":46,"duration":200},{"time":32220,"track":2,"noteNumber":73,"velocity":31,"duration":244},{"time":32220,"track":1,"noteNumber":77,"velocity":36,"duration":257},{"time":32400,"track":4,"noteNumber":42,"velocity":39,"duration":240},{"time":32400,"track":4,"noteNumber":49,"velocity":39,"duration":240},{"time":32460,"track":3,"noteNumber":61,"velocity":24,"duration":480},{"time":32460,"track":2,"noteNumber":66,"velocity":15,"duration":480},{"time":32460,"track":2,"noteNumber":70,"velocity":15,"duration":480},{"time":32460,"track":1,"noteNumber":75,"velocity":43,"duration":120},{"time":32460,"track":3,"noteNumber":49,"velocity":24,"duration":480},{"time":32460,"track":3,"noteNumber":54,"velocity":24,"duration":480},{"time":32460,"track":3,"noteNumber":58,"velocity":24,"duration":480},{"time":32520,"track":1,"noteNumber":77,"velocity":47,"duration":80},{"time":32580,"track":1,"noteNumber":75,"velocity":43,"duration":434},{"time":32940,"track":4,"noteNumber":44,"velocity":39,"duration":360},{"time":33000,"track":1,"noteNumber":73,"velocity":47,"duration":70},{"time":33000,"track":1,"noteNumber":61,"velocity":43,"duration":70},{"time":33000,"track":3,"noteNumber":53,"velocity":25,"duration":120},{"time":33000,"track":3,"noteNumber":56,"velocity":25,"duration":120},{"time":33000,"track":2,"noteNumber":68,"velocity":37,"duration":127},{"time":33060,"track":1,"noteNumber":75,"velocity":53,"duration":70},{"time":33060,"track":1,"noteNumber":63,"velocity":46,"duration":70},{"time":33120,"track":3,"noteNumber":61,"velocity":29,"duration":180},{"time":33120,"track":1,"noteNumber":68,"velocity":44,"duration":196},{"time":33120,"track":2,"noteNumber":77,"velocity":30,"duration":195},{"time":33120,"track":3,"noteNumber":65,"velocity":29,"duration":180},{"time":33120,"track":3,"noteNumber":59,"velocity":29,"duration":360},{"time":33120,"track":1,"noteNumber":80,"velocity":47,"duration":196},{"time":33300,"track":1,"noteNumber":65,"velocity":41,"duration":206},{"time":33300,"track":3,"noteNumber":61,"velocity":23,"duration":180},{"time":33300,"track":2,"noteNumber":73,"velocity":28,"duration":180},{"time":33300,"track":1,"noteNumber":77,"velocity":44,"duration":256},{"time":33480,"track":4,"noteNumber":46,"velocity":37,"duration":240},{"time":33540,"track":3,"noteNumber":63,"velocity":24,"duration":300},{"time":33540,"track":3,"noteNumber":58,"velocity":24,"duration":480},{"time":33540,"track":3,"noteNumber":53,"velocity":24,"duration":480},{"time":33540,"track":1,"noteNumber":75,"velocity":45,"duration":120},{"time":33540,"track":2,"noteNumber":70,"velocity":17,"duration":480},{"time":33540,"track":2,"noteNumber":65,"velocity":17,"duration":480},{"time":33600,"track":1,"noteNumber":77,"velocity":47,"duration":70},{"time":33660,"track":1,"noteNumber":75,"velocity":44,"duration":199},{"time":33840,"track":3,"noteNumber":61,"velocity":23,"duration":180},{"time":33840,"track":1,"noteNumber":73,"velocity":39,"duration":180},{"time":34020,"track":4,"noteNumber":41,"velocity":40,"duration":540},{"time":34080,"track":2,"noteNumber":56,"velocity":32,"duration":126},{"time":34080,"track":1,"noteNumber":61,"velocity":38,"duration":80},{"time":34140,"track":1,"noteNumber":63,"velocity":42,"duration":70},{"time":34200,"track":2,"noteNumber":61,"velocity":28,"duration":193},{"time":34200,"track":1,"noteNumber":70,"velocity":41,"duration":199},{"time":34200,"track":2,"noteNumber":65,"velocity":28,"duration":194},{"time":34380,"track":2,"noteNumber":61,"velocity":18,"duration":180},{"time":34380,"track":1,"noteNumber":65,"velocity":37,"duration":199},{"time":34380,"track":2,"noteNumber":56,"velocity":18,"duration":180},{"time":34560,"track":4,"noteNumber":39,"velocity":40,"duration":360},{"time":34620,"track":2,"noteNumber":58,"velocity":30,"duration":120},{"time":34620,"track":2,"noteNumber":61,"velocity":30,"duration":120},{"time":34620,"track":1,"noteNumber":66,"velocity":45,"duration":70},{"time":34680,"track":1,"noteNumber":68,"velocity":48,"duration":70},{"time":34740,"track":2,"noteNumber":66,"velocity":34,"duration":194},{"time":34740,"track":3,"noteNumber":51,"velocity":28,"duration":180},{"time":34740,"track":2,"noteNumber":70,"velocity":34,"duration":195},{"time":34740,"track":1,"noteNumber":73,"velocity":42,"duration":200},{"time":34920,"track":3,"noteNumber":63,"velocity":24,"duration":180},{"time":34920,"track":2,"noteNumber":61,"velocity":12,"duration":180},{"time":34920,"track":2,"noteNumber":66,"velocity":12,"duration":180},{"time":34920,"track":1,"noteNumber":70,"velocity":38,"duration":190},{"time":35100,"track":4,"noteNumber":44,"velocity":40,"duration":360},{"time":35160,"track":2,"noteNumber":66,"velocity":41,"duration":120},{"time":35160,"track":2,"noteNumber":60,"velocity":41,"duration":120},{"time":35160,"track":1,"noteNumber":70,"velocity":49,"duration":80},{"time":35190,"track":3,"noteNumber":51,"velocity":53,"duration":90},{"time":35220,"track":1,"noteNumber":72,"velocity":56,"duration":80},{"time":35280,"track":2,"noteNumber":66,"velocity":33,"duration":194},{"time":35280,"track":1,"noteNumber":77,"velocity":36,"duration":202},{"time":35280,"track":2,"noteNumber":72,"velocity":33,"duration":194},{"time":35281,"track":3,"noteNumber":80,"velocity":51,"duration":180},{"time":35460,"track":1,"noteNumber":68,"velocity":36,"duration":188},{"time":35460,"track":3,"noteNumber":56,"velocity":31,"duration":180},{"time":35460,"track":2,"noteNumber":66,"velocity":20,"duration":180},{"time":35460,"track":2,"noteNumber":60,"velocity":20,"duration":180},{"time":35640,"track":4,"noteNumber":37,"velocity":28,"duration":180},{"time":35670,"track":3,"noteNumber":44,"velocity":34,"duration":40},{"time":35700,"track":3,"noteNumber":49,"velocity":34,"duration":40},{"time":35730,"track":3,"noteNumber":53,"velocity":30,"duration":40},{"time":35760,"track":2,"noteNumber":56,"velocity":27,"duration":40},{"time":35790,"track":2,"noteNumber":61,"velocity":25,"duration":30},{"time":35820,"track":4,"noteNumber":41,"velocity":39,"duration":180},{"time":35850,"track":3,"noteNumber":48,"velocity":31,"duration":40},{"time":35880,"track":3,"noteNumber":53,"velocity":28,"duration":40},{"time":35910,"track":2,"noteNumber":56,"velocity":26,"duration":40},{"time":35940,"track":2,"noteNumber":60,"velocity":25,"duration":40},{"time":35970,"track":2,"noteNumber":65,"velocity":25,"duration":30},{"time":36000,"track":4,"noteNumber":37,"velocity":32,"duration":180},{"time":36030,"track":3,"noteNumber":44,"velocity":32,"duration":40},{"time":36060,"track":3,"noteNumber":49,"velocity":31,"duration":40},{"time":36090,"track":3,"noteNumber":53,"velocity":29,"duration":40},{"time":36120,"track":2,"noteNumber":56,"velocity":24,"duration":40},{"time":36150,"track":2,"noteNumber":61,"velocity":21,"duration":30},{"time":36180,"track":4,"noteNumber":41,"velocity":36,"duration":180},{"time":36210,"track":3,"noteNumber":48,"velocity":27,"duration":40},{"time":36240,"track":3,"noteNumber":53,"velocity":26,"duration":40},{"time":36270,"track":2,"noteNumber":56,"velocity":25,"duration":40},{"time":36300,"track":2,"noteNumber":60,"velocity":21,"duration":40},{"time":36330,"track":2,"noteNumber":65,"velocity":21,"duration":30},{"time":36360,"track":1,"noteNumber":71,"velocity":37,"duration":197},{"time":36360,"track":1,"noteNumber":68,"velocity":36,"duration":194},{"time":36360,"track":4,"noteNumber":44,"velocity":27,"duration":360},{"time":36390,"track":3,"noteNumber":52,"velocity":33,"duration":40},{"time":36420,"track":3,"noteNumber":56,"velocity":32,"duration":40},{"time":36450,"track":3,"noteNumber":59,"velocity":31,"duration":40},{"time":36480,"track":3,"noteNumber":64,"velocity":27,"duration":40},{"time":36510,"track":3,"noteNumber":66,"velocity":24,"duration":40},{"time":36540,"track":3,"noteNumber":68,"velocity":15,"duration":180},{"time":36540,"track":1,"noteNumber":64,"velocity":28,"duration":180},{"time":36540,"track":1,"noteNumber":73,"velocity":37,"duration":180},{"time":36720,"track":4,"noteNumber":49,"velocity":33,"duration":180},{"time":36750,"track":3,"noteNumber":56,"velocity":40,"duration":40},{"time":36780,"track":3,"noteNumber":61,"velocity":38,"duration":40},{"time":36810,"track":3,"noteNumber":65,"velocity":36,"duration":40},{"time":36840,"track":3,"noteNumber":68,"velocity":34,"duration":40},{"time":36870,"track":3,"noteNumber":73,"velocity":33,"duration":30},{"time":36900,"track":4,"noteNumber":53,"velocity":36,"duration":180},{"time":36930,"track":3,"noteNumber":60,"velocity":38,"duration":40},{"time":36960,"track":3,"noteNumber":65,"velocity":37,"duration":40},{"time":36990,"track":3,"noteNumber":68,"velocity":35,"duration":40},{"time":37020,"track":3,"noteNumber":72,"velocity":34,"duration":40},{"time":37050,"track":3,"noteNumber":77,"velocity":32,"duration":30},{"time":37080,"track":4,"noteNumber":49,"velocity":32,"duration":180},{"time":37110,"track":3,"noteNumber":56,"velocity":37,"duration":40},{"time":37140,"track":3,"noteNumber":61,"velocity":35,"duration":40},{"time":37170,"track":3,"noteNumber":65,"velocity":33,"duration":40},{"time":37200,"track":3,"noteNumber":68,"velocity":32,"duration":40},{"time":37230,"track":3,"noteNumber":73,"velocity":30,"duration":30},{"time":37260,"track":4,"noteNumber":53,"velocity":36,"duration":180},{"time":37290,"track":3,"noteNumber":60,"velocity":36,"duration":40},{"time":37320,"track":3,"noteNumber":65,"velocity":34,"duration":40},{"time":37350,"track":3,"noteNumber":68,"velocity":32,"duration":40},{"time":37380,"track":3,"noteNumber":72,"velocity":30,"duration":40},{"time":37410,"track":3,"noteNumber":77,"velocity":24,"duration":30},{"time":37440,"track":2,"noteNumber":80,"velocity":34,"duration":360},{"time":37440,"track":4,"noteNumber":56,"velocity":27,"duration":360},{"time":37440,"track":1,"noteNumber":83,"velocity":41,"duration":191},{"time":37470,"track":3,"noteNumber":59,"velocity":30,"duration":40},{"time":37500,"track":3,"noteNumber":64,"velocity":29,"duration":40},{"time":37530,"track":3,"noteNumber":68,"velocity":27,"duration":40},{"time":37560,"track":3,"noteNumber":71,"velocity":25,"duration":40},{"time":37590,"track":3,"noteNumber":76,"velocity":24,"duration":210},{"time":37620,"track":1,"noteNumber":85,"velocity":37,"duration":190},{"time":37800,"track":4,"noteNumber":56,"velocity":27,"duration":360},{"time":37800,"track":2,"noteNumber":80,"velocity":27,"duration":360},{"time":37800,"track":1,"noteNumber":83,"velocity":42,"duration":193},{"time":37830,"track":3,"noteNumber":59,"velocity":24,"duration":40},{"time":37860,"track":3,"noteNumber":64,"velocity":23,"duration":40},{"time":37890,"track":3,"noteNumber":68,"velocity":21,"duration":40},{"time":37920,"track":3,"noteNumber":71,"velocity":20,"duration":40},{"time":37950,"track":3,"noteNumber":76,"velocity":19,"duration":210},{"time":37980,"track":1,"noteNumber":85,"velocity":39,"duration":194},{"time":38160,"track":1,"noteNumber":88,"velocity":42,"duration":193},{"time":38160,"track":3,"noteNumber":44,"velocity":23,"duration":180},{"time":38340,"track":1,"noteNumber":92,"velocity":30,"duration":540},{"time":38340,"track":1,"noteNumber":89,"velocity":30,"duration":540},{"time":38340,"track":4,"noteNumber":37,"velocity":31,"duration":360},{"time":38370,"track":3,"noteNumber":44,"velocity":34,"duration":40},{"time":38400,"track":3,"noteNumber":49,"velocity":33,"duration":40},{"time":38430,"track":3,"noteNumber":53,"velocity":32,"duration":40},{"time":38460,"track":3,"noteNumber":56,"velocity":32,"duration":40},{"time":38490,"track":3,"noteNumber":61,"velocity":31,"duration":40},{"time":38520,"track":3,"noteNumber":65,"velocity":30,"duration":70},{"time":38580,"track":3,"noteNumber":68,"velocity":28,"duration":80},{"time":38640,"track":3,"noteNumber":73,"velocity":27,"duration":80},{"time":38700,"track":3,"noteNumber":77,"velocity":25,"duration":80},{"time":38760,"track":3,"noteNumber":80,"velocity":23,"duration":80},{"time":38820,"track":3,"noteNumber":85,"velocity":21,"duration":80},{"time":38880,"track":4,"noteNumber":61,"velocity":29,"duration":360},{"time":38885,"track":3,"noteNumber":68,"velocity":13,"duration":360},{"time":38890,"track":3,"noteNumber":73,"velocity":12,"duration":360},{"time":38895,"track":3,"noteNumber":77,"velocity":12,"duration":360},{"time":38900,"track":2,"noteNumber":80,"velocity":21,"duration":360},{"time":38905,"track":1,"noteNumber":85,"velocity":16,"duration":360},{"time":38910,"track":1,"noteNumber":89,"velocity":15,"duration":360},{"time":38915,"track":1,"noteNumber":92,"velocity":15,"duration":360}]