{
  "name": "clair-de-lune",
  "ticksPerBeat": 480,
  "tempo": 60,
  "events": [
    {
      "time": 240,
      "track": 2,
      "noteNumber": 65,
      "velocity": 36,
      "ticks": 1920
    },
    {
      "time": 240,
      "track": 2,
      "noteNumber": 68,
      "velocity": 43,
      "ticks": 1920
    },
    {
      "time": 480,
      "track": 1,
      "noteNumber": 80,
      "velocity": 43,
      "ticks": 960
    },
    {
      "time": 480,
      "track": 1,
      "noteNumber": 77,
      "velocity": 36,
      "ticks": 960
    },
    {
      "time": 1440,
      "track": 1,
      "noteNumber": 73,
      "velocity": 33,
      "ticks": 960
    },
    {
      "time": 1440,
      "track": 1,
      "noteNumber": 77,
      "velocity": 39,
      "ticks": 960
    },
    {
      "time": 2160,
      "track": 2,
      "noteNumber": 69,
      "velocity": 36,
      "ticks": 2160
    },
    {
      "time": 2160,
      "track": 2,
      "noteNumber": 66,
      "velocity": 30,
      "ticks": 2160
    },
    {
      "time": 2400,
      "track": 1,
      "noteNumber": 72,
      "velocity": 31,
      "ticks": 240
    },
    {
      "time": 2400,
      "track": 1,
      "noteNumber": 75,
      "velocity": 37,
      "ticks": 240
    },
    {
      "time": 2640,
      "track": 1,
      "noteNumber": 73,
      "velocity": 27,
      "ticks": 240
    },
    {
      "time": 2640,
      "track": 1,
      "noteNumber": 77,
      "velocity": 32,
      "ticks": 240
    },
    {
      "time": 2880,
      "track": 1,
      "noteNumber": 75,
      "velocity": 30,
      "ticks": 1680
    },
    {
      "time": 2880,
      "track": 1,
      "noteNumber": 72,
      "velocity": 25,
      "ticks": 1680
    },
    {
      "time": 4320,
      "track": 2,
      "noteNumber": 65,
      "velocity": 33,
      "ticks": 2160
    },
    {
      "time": 4320,
      "track": 2,
      "noteNumber": 68,
      "velocity": 39,
      "ticks": 2160
    },
    {
      "time": 4560,
      "track": 1,
      "noteNumber": 70,
      "velocity": 34,
      "ticks": 240
    },
    {
      "time": 4560,
      "track": 1,
      "noteNumber": 73,
      "velocity": 40,
      "ticks": 240
    },
    {
      "time": 4800,
      "track": 1,
      "noteNumber": 75,
      "velocity": 34,
      "ticks": 240
    },
    {
      "time": 4800,
      "track": 1,
      "noteNumber": 72,
      "velocity": 28,
      "ticks": 240
    },
    {
      "time": 5040,
      "track": 1,
      "noteNumber": 70,
      "velocity": 27,
      "ticks": 1680
    },
    {
      "time": 5040,
      "track": 1,
      "noteNumber": 73,
      "velocity": 32,
      "ticks": 360
    },
    {
      "time": 5400,
      "track": 1,
      "noteNumber": 77,
      "velocity": 46,
      "ticks": 720
    },
    {
      "time": 6120,
      "track": 1,
      "noteNumber": 73,
      "velocity": 45,
      "ticks": 600
    },
    {
      "time": 6480,
      "track": 2,
      "noteNumber": 66,
      "velocity": 38,
      "ticks": 2156
    },
    {
      "time": 6480,
      "track": 2,
      "noteNumber": 63,
      "velocity": 32,
      "ticks": 2160
    },
    {
      "time": 6720,
      "track": 1,
      "noteNumber": 72,
      "velocity": 34,
      "ticks": 240
    },
    {
      "time": 6720,
      "track": 1,
      "noteNumber": 68,
      "velocity": 28,
      "ticks": 240
    },
    {
      "time": 6960,
      "track": 1,
      "noteNumber": 73,
      "velocity": 31,
      "ticks": 240
    },
    {
      "time": 6960,
      "track": 1,
      "noteNumber": 70,
      "velocity": 26,
      "ticks": 240
    },
    {
      "time": 7200,
      "track": 1,
      "noteNumber": 72,
      "velocity": 27,
      "ticks": 1680
    },
    {
      "time": 7200,
      "track": 1,
      "noteNumber": 68,
      "velocity": 22,
      "ticks": 1680
    },
    {
      "time": 8640,
      "track": 2,
      "noteNumber": 61,
      "velocity": 31,
      "ticks": 1440
    },
    {
      "time": 8640,
      "track": 2,
      "noteNumber": 63,
      "velocity": 37,
      "ticks": 1440
    },
    {
      "time": 8640,
      "track": 1,
      "noteNumber": 66,
      "velocity": 33,
      "ticks": 1440
    },
    {
      "time": 8880,
      "track": 1,
      "noteNumber": 70,
      "velocity": 39,
      "ticks": 240
    },
    {
      "time": 9120,
      "track": 1,
      "noteNumber": 72,
      "velocity": 36,
      "ticks": 240
    },
    {
      "time": 9360,
      "track": 1,
      "noteNumber": 70,
      "velocity": 36,
      "ticks": 240
    },
    {
      "time": 9600,
      "track": 1,
      "noteNumber": 75,
      "velocity": 39,
      "ticks": 240
    },
    {
      "time": 9840,
      "track": 1,
      "noteNumber": 70,
      "velocity": 37,
      "ticks": 240
    },
    {
      "time": 10080,
      "track": 2,
      "noteNumber": 60,
      "velocity": 28,
      "ticks": 720
    },
    {
      "time": 10080,
      "track": 1,
      "noteNumber": 66,
      "velocity": 28,
      "ticks": 720
    },
    {
      "time": 10080,
      "track": 2,
      "noteNumber": 63,
      "velocity": 33,
      "ticks": 718
    },
    {
      "time": 10080,
      "track": 1,
      "noteNumber": 68,
      "velocity": 40,
      "ticks": 240
    },
    {
      "time": 10320,
      "track": 1,
      "noteNumber": 70,
      "velocity": 37,
      "ticks": 240
    },
    {
      "time": 10560,
      "track": 1,
      "noteNumber": 68,
      "velocity": 36,
      "ticks": 480
    },
    {
      "time": 10800,
      "track": 2,
      "noteNumber": 61,
      "velocity": 33,
      "ticks": 1440
    },
    {
      "time": 10800,
      "track": 1,
      "noteNumber": 63,
      "velocity": 30,
      "ticks": 1440
    },
    {
      "time": 10800,
      "track": 2,
      "noteNumber": 58,
      "velocity": 30,
      "ticks": 1440
    },
    {
      "time": 11040,
      "track": 1,
      "noteNumber": 66,
      "velocity": 34,
      "ticks": 240
    },
    {
      "time": 11280,
      "track": 1,
      "noteNumber": 68,
      "velocity": 33,
      "ticks": 240
    },
    {
      "time": 11520,
      "track": 1,
      "noteNumber": 66,
      "velocity": 33,
      "ticks": 720
    },
    {
      "time": 12240,
      "track": 2,
      "noteNumber": 60,
      "velocity": 33,
      "ticks": 720
    },
    {
      "time": 12240,
      "track": 1,
      "noteNumber": 63,
      "velocity": 30,
      "ticks": 720
    },
    {
      "time": 12240,
      "track": 1,
      "noteNumber": 65,
      "velocity": 34,
      "ticks": 960
    },
    {
      "time": 12240,
      "track": 2,
      "noteNumber": 57,
      "velocity": 28,
      "ticks": 720
    },
    {
      "time": 12960,
      "track": 2,
      "noteNumber": 58,
      "velocity": 33,
      "ticks": 2158
    },
    {
      "time": 12960,
      "track": 1,
      "noteNumber": 61,
      "velocity": 28,
      "ticks": 1440
    },
    {
      "time": 12960,
      "track": 2,
      "noteNumber": 56,
      "velocity": 28,
      "ticks": 1440
    },
    {
      "time": 13200,
      "track": 1,
      "noteNumber": 65,
      "velocity": 38,
      "ticks": 240
    },
    {
      "time": 13440,
      "track": 1,
      "noteNumber": 66,
      "velocity": 37,
      "ticks": 240
    },
    {
      "time": 13680,
      "track": 1,
      "noteNumber": 65,
      "velocity": 37,
      "ticks": 240
    },
    {
      "time": 13920,
      "track": 1,
      "noteNumber": 70,
      "velocity": 39,
      "ticks": 240
    },
    {
      "time": 14160,
      "track": 1,
      "noteNumber": 65,
      "velocity": 37,
      "ticks": 240
    },
    {
      "time": 14400,
      "track": 1,
      "noteNumber": 63,
      "velocity": 39,
      "ticks": 240
    },
    {
      "time": 14400,
      "track": 2,
      "noteNumber": 54,
      "velocity": 38,
      "ticks": 720
    },
    {
      "time": 14640,
      "track": 1,
      "noteNumber": 65,
      "velocity": 37,
      "ticks": 240
    },
    {
      "time": 14880,
      "track": 1,
      "noteNumber": 63,
      "velocity": 37,
      "ticks": 480
    },
    {
      "time": 15120,
      "track": 1,
      "noteNumber": 58,
      "velocity": 28,
      "ticks": 1440
    },
    {
      "time": 15120,
      "track": 2,
      "noteNumber": 53,
      "velocity": 26,
      "ticks": 1440
    },
    {
      "time": 15120,
      "track": 2,
      "noteNumber": 56,
      "velocity": 31,
      "ticks": 718
    },
    {
      "time": 15360,
      "track": 1,
      "noteNumber": 61,
      "velocity": 34,
      "ticks": 240
    },
    {
      "time": 15600,
      "track": 1,
      "noteNumber": 63,
      "velocity": 34,
      "ticks": 240
    },
    {
      "time": 15840,
      "track": 1,
      "noteNumber": 61,
      "velocity": 34,
      "ticks": 720
    },
    {
      "time": 16560,
      "track": 2,
      "noteNumber": 51,
      "velocity": 23,
      "ticks": 360
    },
    {
      "time": 16560,
      "track": 2,
      "noteNumber": 54,
      "velocity": 28,
      "ticks": 720
    },
    {
      "time": 16560,
      "track": 1,
      "noteNumber": 56,
      "velocity": 22,
      "ticks": 720
    },
    {
      "time": 16560,
      "track": 1,
      "noteNumber": 60,
      "velocity": 27,
      "ticks": 720
    },
    {
      "time": 16920,
      "track": 2,
      "noteNumber": 44,
      "velocity": 28,
      "ticks": 600
    },
    {
      "time": 17280,
      "track": 2,
      "noteNumber": 37,
      "velocity": 30,
      "ticks": 240
    },
    {
      "time": 17520,
      "track": 1,
      "noteNumber": 53,
      "velocity": 23,
      "ticks": 240
    },
    {
      "time": 17520,
      "track": 1,
      "noteNumber": 56,
      "velocity": 28,
      "ticks": 240
    },
    {
      "time": 17760,
      "track": 2,
      "noteNumber": 65,
      "velocity": 30,
      "ticks": 1680
    },
    {
      "time": 17760,
      "track": 2,
      "noteNumber": 68,
      "velocity": 36,
      "ticks": 1680
    },
    {
      "time": 18000,
      "track": 1,
      "noteNumber": 80,
      "velocity": 39,
      "ticks": 720
    },
    {
      "time": 18000,
      "track": 1,
      "noteNumber": 77,
      "velocity": 33,
      "ticks": 720
    },
    {
      "time": 18720,
      "track": 1,
      "noteNumber": 73,
      "velocity": 29,
      "ticks": 960
    },
    {
      "time": 18720,
      "track": 1,
      "noteNumber": 77,
      "velocity": 35,
      "ticks": 960
    },
    {
      "time": 19440,
      "track": 2,
      "noteNumber": 42,
      "velocity": 28,
      "ticks": 1440
    },
    {
      "time": 19440,
      "track": 2,
      "noteNumber": 49,
      "velocity": 33,
      "ticks": 1440
    },
    {
      "time": 19680,
      "track": 1,
      "noteNumber": 66,
      "velocity": 27,
      "ticks": 1920
    },
    {
      "time": 19680,
      "track": 2,
      "noteNumber": 61,
      "velocity": 27,
      "ticks": 1920
    },
    {
      "time": 19680,
      "track": 2,
      "noteNumber": 58,
      "velocity": 22,
      "ticks": 1920
    },
    {
      "time": 19680,
      "track": 2,
      "noteNumber": 54,
      "velocity": 22,
      "ticks": 1920
    },
    {
      "time": 19680,
      "track": 1,
      "noteNumber": 70,
      "velocity": 27,
      "ticks": 1920
    },
    {
      "time": 19680,
      "track": 1,
      "noteNumber": 75,
      "velocity": 42,
      "ticks": 240
    },
    {
      "time": 19680,
      "track": 2,
      "noteNumber": 49,
      "velocity": 22,
      "ticks": 1920
    },
    {
      "time": 19920,
      "track": 1,
      "noteNumber": 77,
      "velocity": 37,
      "ticks": 240
    },
    {
      "time": 20160,
      "track": 1,
      "noteNumber": 75,
      "velocity": 31,
      "ticks": 1680
    },
    {
      "time": 21600,
      "track": 2,
      "noteNumber": 41,
      "velocity": 30,
      "ticks": 1440
    },
    {
      "time": 21600,
      "track": 2,
      "noteNumber": 49,
      "velocity": 36,
      "ticks": 1440
    },
    {
      "time": 21840,
      "track": 2,
      "noteNumber": 56,
      "velocity": 33,
      "ticks": 480
    },
    {
      "time": 21840,
      "track": 2,
      "noteNumber": 53,
      "velocity": 28,
      "ticks": 480
    },
    {
      "time": 21840,
      "track": 1,
      "noteNumber": 73,
      "velocity": 39,
      "ticks": 240
    },
    {
      "time": 21840,
      "track": 1,
      "noteNumber": 68,
      "velocity": 39,
      "ticks": 480
    },
    {
      "time": 21840,
      "track": 1,
      "noteNumber": 61,
      "velocity": 33,
      "ticks": 240
    },
    {
      "time": 22080,
      "track": 1,
      "noteNumber": 75,
      "velocity": 40,
      "ticks": 240
    },
    {
      "time": 22080,
      "track": 1,
      "noteNumber": 63,
      "velocity": 34,
      "ticks": 240
    },
    {
      "time": 22320,
      "track": 1,
      "noteNumber": 80,
      "velocity": 40,
      "ticks": 720
    },
    {
      "time": 22320,
      "track": 2,
      "noteNumber": 65,
      "velocity": 33,
      "ticks": 718
    },
    {
      "time": 22320,
      "track": 2,
      "noteNumber": 61,
      "velocity": 28,
      "ticks": 720
    },
    {
      "time": 22320,
      "track": 1,
      "noteNumber": 73,
      "velocity": 34,
      "ticks": 720
    },
    {
      "time": 22320,
      "track": 1,
      "noteNumber": 68,
      "velocity": 34,
      "ticks": 720
    },
    {
      "time": 23040,
      "track": 1,
      "noteNumber": 65,
      "velocity": 32,
      "ticks": 720
    },
    {
      "time": 23040,
      "track": 1,
      "noteNumber": 73,
      "velocity": 32,
      "ticks": 720
    },
    {
      "time": 23040,
      "track": 2,
      "noteNumber": 56,
      "velocity": 27,
      "ticks": 720
    },
    {
      "time": 23040,
      "track": 2,
      "noteNumber": 61,
      "velocity": 32,
      "ticks": 720
    },
    {
      "time": 23040,
      "track": 1,
      "noteNumber": 77,
      "velocity": 38,
      "ticks": 960
    },
    {
      "time": 23760,
      "track": 2,
      "noteNumber": 42,
      "velocity": 28,
      "ticks": 1440
    },
    {
      "time": 23760,
      "track": 2,
      "noteNumber": 49,
      "velocity": 33,
      "ticks": 1440
    },
    {
      "time": 24000,
      "track": 2,
      "noteNumber": 54,
      "velocity": 22,
      "ticks": 1920
    },
    {
      "time": 24000,
      "track": 1,
      "noteNumber": 70,
      "velocity": 27,
      "ticks": 1920
    },
    {
      "time": 24000,
      "track": 1,
      "noteNumber": 66,
      "velocity": 27,
      "ticks": 1920
    },
    {
      "time": 24000,
      "track": 1,
      "noteNumber": 75,
      "velocity": 42,
      "ticks": 240
    },
    {
      "time": 24000,
      "track": 2,
      "noteNumber": 58,
      "velocity": 22,
      "ticks": 1920
    },
    {
      "time": 24000,
      "track": 2,
      "noteNumber": 49,
      "velocity": 22,
      "ticks": 1920
    },
    {
      "time": 24000,
      "track": 2,
      "noteNumber": 61,
      "velocity": 27,
      "ticks": 1920
    },
    {
      "time": 24240,
      "track": 1,
      "noteNumber": 77,
      "velocity": 37,
      "ticks": 240
    },
    {
      "time": 24480,
      "track": 1,
      "noteNumber": 75,
      "velocity": 31,
      "ticks": 720
    },
    {
      "time": 25200,
      "track": 1,
      "noteNumber": 73,
      "velocity": 37,
      "ticks": 960
    },
    {
      "time": 25920,
      "track": 2,
      "noteNumber": 44,
      "velocity": 36,
      "ticks": 2160
    },
    {
      "time": 26160,
      "track": 1,
      "noteNumber": 61,
      "velocity": 33,
      "ticks": 240
    },
    {
      "time": 26160,
      "track": 1,
      "noteNumber": 73,
      "velocity": 39,
      "ticks": 240
    },
    {
      "time": 26160,
      "track": 1,
      "noteNumber": 68,
      "velocity": 33,
      "ticks": 480
    },
    {
      "time": 26160,
      "track": 2,
      "noteNumber": 59,
      "velocity": 33,
      "ticks": 480
    },
    {
      "time": 26160,
      "track": 2,
      "noteNumber": 53,
      "velocity": 28,
      "ticks": 480
    },
    {
      "time": 26400,
      "track": 1,
      "noteNumber": 63,
      "velocity": 34,
      "ticks": 240
    },
    {
      "time": 26400,
      "track": 1,
      "noteNumber": 75,
      "velocity": 40,
      "ticks": 240
    },
    {
      "time": 26640,
      "track": 1,
      "noteNumber": 77,
      "velocity": 45,
      "ticks": 1440
    },
    {
      "time": 26640,
      "track": 2,
      "noteNumber": 61,
      "velocity": 28,
      "ticks": 960
    },
    {
      "time": 26640,
      "track": 2,
      "noteNumber": 65,
      "velocity": 33,
      "ticks": 960
    },
    {
      "time": 26640,
      "track": 2,
      "noteNumber": 59,
      "velocity": 28,
      "ticks": 960
    },
    {
      "time": 26640,
      "track": 1,
      "noteNumber": 82,
      "velocity": 48,
      "ticks": 360
    },
    {
      "time": 26640,
      "track": 1,
      "noteNumber": 70,
      "velocity": 40,
      "ticks": 360
    },
    {
      "time": 27000,
      "track": 1,
      "noteNumber": 68,
      "velocity": 39,
      "ticks": 720
    },
    {
      "time": 27000,
      "track": 1,
      "noteNumber": 80,
      "velocity": 46,
      "ticks": 720
    },
    {
      "time": 27720,
      "track": 1,
      "noteNumber": 77,
      "velocity": 44,
      "ticks": 600
    },
    {
      "time": 27720,
      "track": 1,
      "noteNumber": 65,
      "velocity": 37,
      "ticks": 600
    },
    {
      "time": 28080,
      "track": 2,
      "noteNumber": 46,
      "velocity": 39,
      "ticks": 1440
    },
    {
      "time": 28320,
      "track": 1,
      "noteNumber": 65,
      "velocity": 32,
      "ticks": 1920
    },
    {
      "time": 28320,
      "track": 2,
      "noteNumber": 58,
      "velocity": 32,
      "ticks": 1920
    },
    {
      "time": 28320,
      "track": 2,
      "noteNumber": 53,
      "velocity": 32,
      "ticks": 1920
    },
    {
      "time": 28320,
      "track": 2,
      "noteNumber": 63,
      "velocity": 40,
      "ticks": 840
    },
    {
      "time": 28320,
      "track": 1,
      "noteNumber": 75,
      "velocity": 40,
      "ticks": 240
    },
    {
      "time": 28320,
      "track": 1,
      "noteNumber": 70,
      "velocity": 32,
      "ticks": 1920
    },
    {
      "time": 28560,
      "track": 1,
      "noteNumber": 77,
      "velocity": 37,
      "ticks": 240
    },
    {
      "time": 28800,
      "track": 1,
      "noteNumber": 75,
      "velocity": 33,
      "ticks": 360
    },
    {
      "time": 29160,
      "track": 2,
      "noteNumber": 61,
      "velocity": 37,
      "ticks": 1080
    },
    {
      "time": 29160,
      "track": 1,
      "noteNumber": 73,
      "velocity": 37,
      "ticks": 720
    },
    {
      "time": 29880,
      "track": 1,
      "noteNumber": 70,
      "velocity": 33,
      "ticks": 360
    },
    {
      "time": 30240,
      "track": 2,
      "noteNumber": 39,
      "velocity": 36,
      "ticks": 1440
    },
    {
      "time": 30240,
      "track": 2,
      "noteNumber": 27,
      "velocity": 30,
      "ticks": 1440
    },
    {
      "time": 30600,
      "track": 1,
      "noteNumber": 77,
      "velocity": 37,
      "ticks": 1080
    },
    {
      "time": 30600,
      "track": 1,
      "noteNumber": 82,
      "velocity": 37,
      "ticks": 840
    },
    {
      "time": 30600,
      "track": 2,
      "noteNumber": 66,
      "velocity": 32,
      "ticks": 840
    },
    {
      "time": 30600,
      "track": 2,
      "noteNumber": 70,
      "velocity": 32,
      "ticks": 840
    },
    {
      "time": 30600,
      "track": 2,
      "noteNumber": 65,
      "velocity": 32,
      "ticks": 1080
    },
    {
      "time": 30600,
      "track": 1,
      "noteNumber": 89,
      "velocity": 40,
      "ticks": 1080
    },
    {
      "time": 31200,
      "track": 2,
      "noteNumber": 70,
      "velocity": 31,
      "ticks": 460
    },
    {
      "time": 31200,
      "track": 2,
      "noteNumber": 66,
      "velocity": 31,
      "ticks": 460
    },
    {
      "time": 31200,
      "track": 2,
      "noteNumber": 63,
      "velocity": 31,
      "ticks": 240
    },
    {
      "time": 31200,
      "track": 1,
      "noteNumber": 87,
      "velocity": 39,
      "ticks": 240
    },
    {
      "time": 31200,
      "track": 1,
      "noteNumber": 82,
      "velocity": 36,
      "ticks": 460
    },
    {
      "time": 31200,
      "track": 1,
      "noteNumber": 75,
      "velocity": 36,
      "ticks": 240
    },
    {
      "time": 31440,
      "track": 1,
      "noteNumber": 82,
      "velocity": 36,
      "ticks": 240
    },
    {
      "time": 31440,
      "track": 2,
      "noteNumber": 66,
      "velocity": 31,
      "ticks": 240
    },
    {
      "time": 31440,
      "track": 1,
      "noteNumber": 75,
      "velocity": 36,
      "ticks": 220
    },
    {
      "time": 31440,
      "track": 2,
      "noteNumber": 70,
      "velocity": 31,
      "ticks": 240
    },
    {
      "time": 31440,
      "track": 1,
      "noteNumber": 87,
      "velocity": 39,
      "ticks": 220
    },
    {
      "time": 31440,
      "track": 2,
      "noteNumber": 63,
      "velocity": 31,
      "ticks": 220
    },
    {
      "time": 31680,
      "track": 1,
      "noteNumber": 87,
      "velocity": 41,
      "ticks": 240
    },
    {
      "time": 31680,
      "track": 1,
      "noteNumber": 75,
      "velocity": 38,
      "ticks": 240
    },
    {
      "time": 31680,
      "track": 1,
      "noteNumber": 82,
      "velocity": 38,
      "ticks": 240
    },
    {
      "time": 31680,
      "track": 2,
      "noteNumber": 70,
      "velocity": 32,
      "ticks": 240
    },
    {
      "time": 31680,
      "track": 2,
      "noteNumber": 66,
      "velocity": 32,
      "ticks": 240
    },
    {
      "time": 31680,
      "track": 2,
      "noteNumber": 63,
      "velocity": 32,
      "ticks": 240
    },
    {
      "time": 31920,
      "track": 2,
      "noteNumber": 70,
      "velocity": 31,
      "ticks": 240
    },
    {
      "time": 31920,
      "track": 1,
      "noteNumber": 73,
      "velocity": 37,
      "ticks": 240
    },
    {
      "time": 31920,
      "track": 2,
      "noteNumber": 61,
      "velocity": 31,
      "ticks": 240
    },
    {
      "time": 31920,
      "track": 2,
      "noteNumber": 66,
      "velocity": 31,
      "ticks": 240
    },
    {
      "time": 31920,
      "track": 1,
      "noteNumber": 85,
      "velocity": 40,
      "ticks": 240
    },
    {
      "time": 31920,
      "track": 1,
      "noteNumber": 82,
      "velocity": 37,
      "ticks": 240
    },
    {
      "time": 32160,
      "track": 2,
      "noteNumber": 66,
      "velocity": 31,
      "ticks": 220
    },
    {
      "time": 32160,
      "track": 2,
      "noteNumber": 61,
      "velocity": 31,
      "ticks": 220
    },
    {
      "time": 32160,
      "track": 1,
      "noteNumber": 82,
      "velocity": 37,
      "ticks": 220
    },
    {
      "time": 32160,
      "track": 2,
      "noteNumber": 70,
      "velocity": 31,
      "ticks": 220
    },
    {
      "time": 32160,
      "track": 1,
      "noteNumber": 73,
      "velocity": 37,
      "ticks": 220
    },
    {
      "time": 32160,
      "track": 1,
      "noteNumber": 85,
      "velocity": 40,
      "ticks": 220
    },
    {
      "time": 32400,
      "track": 1,
      "noteNumber": 82,
      "velocity": 38,
      "ticks": 240
    },
    {
      "time": 32400,
      "track": 1,
      "noteNumber": 73,
      "velocity": 38,
      "ticks": 240
    },
    {
      "time": 32400,
      "track": 2,
      "noteNumber": 61,
      "velocity": 34,
      "ticks": 240
    },
    {
      "time": 32400,
      "track": 1,
      "noteNumber": 85,
      "velocity": 41,
      "ticks": 240
    },
    {
      "time": 32400,
      "track": 2,
      "noteNumber": 70,
      "velocity": 34,
      "ticks": 240
    },
    {
      "time": 32400,
      "track": 2,
      "noteNumber": 66,
      "velocity": 34,
      "ticks": 240
    },
    {
      "time": 32640,
      "track": 2,
      "noteNumber": 66,
      "velocity": 32,
      "ticks": 240
    },
    {
      "time": 32640,
      "track": 2,
      "noteNumber": 60,
      "velocity": 32,
      "ticks": 240
    },
    {
      "time": 32640,
      "track": 1,
      "noteNumber": 82,
      "velocity": 36,
      "ticks": 240
    },
    {
      "time": 32640,
      "track": 2,
      "noteNumber": 70,
      "velocity": 32,
      "ticks": 240
    },
    {
      "time": 32640,
      "track": 1,
      "noteNumber": 72,
      "velocity": 36,
      "ticks": 240
    },
    {
      "time": 32640,
      "track": 1,
      "noteNumber": 84,
      "velocity": 39,
      "ticks": 240
    },
    {
      "time": 32640,
      "track": 1,
      "noteNumber": 78,
      "velocity": 36,
      "ticks": 240
    },
    {
      "time": 32880,
      "track": 1,
      "noteNumber": 84,
      "velocity": 39,
      "ticks": 220
    },
    {
      "time": 32880,
      "track": 2,
      "noteNumber": 66,
      "velocity": 32,
      "ticks": 220
    },
    {
      "time": 32880,
      "track": 2,
      "noteNumber": 70,
      "velocity": 32,
      "ticks": 220
    },
    {
      "time": 32880,
      "track": 1,
      "noteNumber": 72,
      "velocity": 36,
      "ticks": 220
    },
    {
      "time": 32880,
      "track": 1,
      "noteNumber": 82,
      "velocity": 36,
      "ticks": 220
    },
    {
      "time": 32880,
      "track": 2,
      "noteNumber": 60,
      "velocity": 32,
      "ticks": 220
    },
    {
      "time": 32880,
      "track": 1,
      "noteNumber": 78,
      "velocity": 36,
      "ticks": 220
    },
    {
      "time": 33120,
      "track": 2,
      "noteNumber": 60,
      "velocity": 31,
      "ticks": 360
    },
    {
      "time": 33120,
      "track": 2,
      "noteNumber": 70,
      "velocity": 31,
      "ticks": 360
    },
    {
      "time": 33120,
      "track": 2,
      "noteNumber": 66,
      "velocity": 31,
      "ticks": 360
    },
    {
      "time": 33120,
      "track": 1,
      "noteNumber": 84,
      "velocity": 39,
      "ticks": 360
    },
    {
      "time": 33120,
      "track": 1,
      "noteNumber": 72,
      "velocity": 36,
      "ticks": 360
    },
    {
      "time": 33120,
      "track": 1,
      "noteNumber": 82,
      "velocity": 36,
      "ticks": 360
    },
    {
      "time": 33120,
      "track": 1,
      "noteNumber": 78,
      "velocity": 36,
      "ticks": 360
    },
    {
      "time": 33480,
      "track": 2,
      "noteNumber": 61,
      "velocity": 30,
      "ticks": 360
    },
    {
      "time": 33480,
      "track": 1,
      "noteNumber": 82,
      "velocity": 33,
      "ticks": 360
    },
    {
      "time": 33480,
      "track": 1,
      "noteNumber": 85,
      "velocity": 36,
      "ticks": 360
    },
    {
      "time": 33480,
      "track": 2,
      "noteNumber": 70,
      "velocity": 30,
      "ticks": 360
    },
    {
      "time": 33480,
      "track": 2,
      "noteNumber": 66,
      "velocity": 30,
      "ticks": 360
    },
    {
      "time": 33480,
      "track": 1,
      "noteNumber": 73,
      "velocity": 33,
      "ticks": 360
    },
    {
      "time": 33840,
      "track": 1,
      "noteNumber": 78,
      "velocity": 33,
      "ticks": 720
    },
    {
      "time": 33840,
      "track": 1,
      "noteNumber": 82,
      "velocity": 36,
      "ticks": 720
    },
    {
      "time": 33840,
      "track": 1,
      "noteNumber": 70,
      "velocity": 33,
      "ticks": 720
    },
    {
      "time": 33840,
      "track": 2,
      "noteNumber": 58,
      "velocity": 28,
      "ticks": 720
    },
    {
      "time": 33840,
      "track": 2,
      "noteNumber": 66,
      "velocity": 28,
      "ticks": 720
    },
    {
      "time": 33840,
      "track": 2,
      "noteNumber": 61,
      "velocity": 28,
      "ticks": 720
    },
    {
      "time": 34560,
      "track": 2,
      "noteNumber": 27,
      "velocity": 30,
      "ticks": 1440
    },
    {
      "time": 34560,
      "track": 2,
      "noteNumber": 39,
      "velocity": 30,
      "ticks": 1440
    },
    {
      "time": 34560,
      "track": 2,
      "noteNumber": 46,
      "velocity": 36,
      "ticks": 1440
    },
    {
      "time": 34920,
      "track": 1,
      "noteNumber": 89,
      "velocity": 48,
      "ticks": 1060
    },
    {
      "time": 34920,
      "track": 1,
      "noteNumber": 77,
      "velocity": 46,
      "ticks": 1060
    },
    {
      "time": 34920,
      "track": 2,
      "noteNumber": 70,
      "velocity": 34,
      "ticks": 840
    },
    {
      "time": 34920,
      "track": 2,
      "noteNumber": 66,
      "velocity": 34,
      "ticks": 840
    },
    {
      "time": 34920,
      "track": 2,
      "noteNumber": 65,
      "velocity": 34,
      "ticks": 1060
    },
    {
      "time": 34920,
      "track": 1,
      "noteNumber": 82,
      "velocity": 46,
      "ticks": 840
    },
    {
      "time": 35520,
      "track": 1,
      "noteNumber": 82,
      "velocity": 40,
      "ticks": 460
    },
    {
      "time": 35520,
      "track": 2,
      "noteNumber": 66,
      "velocity": 34,
      "ticks": 460
    },
    {
      "time": 35520,
      "track": 2,
      "noteNumber": 75,
      "velocity": 34,
      "ticks": 240
    },
    {
      "time": 35520,
      "track": 1,
      "noteNumber": 78,
      "velocity": 40,
      "ticks": 240
    },
    {
      "time": 35520,
      "track": 2,
      "noteNumber": 70,
      "velocity": 34,
      "ticks": 460
    },
    {
      "time": 35520,
      "track": 1,
      "noteNumber": 90,
      "velocity": 42,
      "ticks": 240
    },
    {
      "time": 35760,
      "track": 2,
      "noteNumber": 66,
      "velocity": 32,
      "ticks": 240
    },
    {
      "time": 35760,
      "track": 2,
      "noteNumber": 65,
      "velocity": 32,
      "ticks": 240
    },
    {
      "time": 35760,
      "track": 2,
      "noteNumber": 70,
      "velocity": 32,
      "ticks": 240
    },
    {
      "time": 35760,
      "track": 1,
      "noteNumber": 77,
      "velocity": 37,
      "ticks": 240
    },
    {
      "time": 35760,
      "track": 1,
      "noteNumber": 89,
      "velocity": 38,
      "ticks": 240
    },
    {
      "time": 35760,
      "track": 1,
      "noteNumber": 82,
      "velocity": 37,
      "ticks": 240
    },
    {
      "time": 36000,
      "track": 1,
      "noteNumber": 75,
      "velocity": 39,
      "ticks": 220
    },
    {
      "time": 36000,
      "track": 1,
      "noteNumber": 87,
      "velocity": 40,
      "ticks": 220
    },
    {
      "time": 36000,
      "track": 2,
      "noteNumber": 70,
      "velocity": 33,
      "ticks": 220
    },
    {
      "time": 36000,
      "track": 1,
      "noteNumber": 82,
      "velocity": 39,
      "ticks": 220
    },
    {
      "time": 36000,
      "track": 2,
      "noteNumber": 66,
      "velocity": 33,
      "ticks": 220
    },
    {
      "time": 36000,
      "track": 2,
      "noteNumber": 63,
      "velocity": 33,
      "ticks": 220
    },
    {
      "time": 36240,
      "track": 1,
      "noteNumber": 77,
      "velocity": 38,
      "ticks": 240
    },
    {
      "time": 36240,
      "track": 2,
      "noteNumber": 70,
      "velocity": 32,
      "ticks": 240
    },
    {
      "time": 36240,
      "track": 2,
      "noteNumber": 66,
      "velocity": 32,
      "ticks": 240
    },
    {
      "time": 36240,
      "track": 2,
      "noteNumber": 65,
      "velocity": 32,
      "ticks": 240
    },
    {
      "time": 36240,
      "track": 1,
      "noteNumber": 82,
      "velocity": 38,
      "ticks": 240
    },
    {
      "time": 36240,
      "track": 1,
      "noteNumber": 89,
      "velocity": 39,
      "ticks": 240
    },
    {
      "time": 36480,
      "track": 1,
      "noteNumber": 87,
      "velocity": 39,
      "ticks": 240
    },
    {
      "time": 36480,
      "track": 2,
      "noteNumber": 63,
      "velocity": 32,
      "ticks": 240
    },
    {
      "time": 36480,
      "track": 2,
      "noteNumber": 70,
      "velocity": 32,
      "ticks": 240
    },
    {
      "time": 36480,
      "track": 1,
      "noteNumber": 75,
      "velocity": 38,
      "ticks": 240
    },
    {
      "time": 36480,
      "track": 2,
      "noteNumber": 66,
      "velocity": 32,
      "ticks": 240
    },
    {
      "time": 36480,
      "track": 1,
      "noteNumber": 82,
      "velocity": 38,
      "ticks": 240
    },
    {
      "time": 36720,
      "track": 1,
      "noteNumber": 82,
      "velocity": 39,
      "ticks": 220
    },
    {
      "time": 36720,
      "track": 1,
      "noteNumber": 73,
      "velocity": 39,
      "ticks": 220
    },
    {
      "time": 36720,
      "track": 2,
      "noteNumber": 70,
      "velocity": 35,
      "ticks": 220
    },
    {
      "time": 36720,
      "track": 2,
      "noteNumber": 66,
      "velocity": 35,
      "ticks": 220
    },
    {
      "time": 36720,
      "track": 2,
      "noteNumber": 61,
      "velocity": 35,
      "ticks": 220
    },
    {
      "time": 36720,
      "track": 1,
      "noteNumber": 85,
      "velocity": 40,
      "ticks": 220
    },
    {
      "time": 36960,
      "track": 2,
      "noteNumber": 63,
      "velocity": 33,
      "ticks": 240
    },
    {
      "time": 36960,
      "track": 2,
      "noteNumber": 66,
      "velocity": 33,
      "ticks": 240
    },
    {
      "time": 36960,
      "track": 2,
      "noteNumber": 70,
      "velocity": 33,
      "ticks": 240
    },
    {
      "time": 36960,
      "track": 1,
      "noteNumber": 87,
      "velocity": 38,
      "ticks": 240
    },
    {
      "time": 36960,
      "track": 1,
      "noteNumber": 75,
      "velocity": 37,
      "ticks": 240
    },
    {
      "time": 36960,
      "track": 1,
      "noteNumber": 82,
      "velocity": 37,
      "ticks": 240
    },
    {
      "time": 37200,
      "track": 1,
      "noteNumber": 82,
      "velocity": 37,
      "ticks": 220
    },
    {
      "time": 37200,
      "track": 2,
      "noteNumber": 70,
      "velocity": 33,
      "ticks": 220
    },
    {
      "time": 37200,
      "track": 2,
      "noteNumber": 66,
      "velocity": 33,
      "ticks": 220
    },
    {
      "time": 37200,
      "track": 2,
      "noteNumber": 61,
      "velocity": 33,
      "ticks": 220
    },
    {
      "time": 37200,
      "track": 1,
      "noteNumber": 73,
      "velocity": 37,
      "ticks": 220
    },
    {
      "time": 37200,
      "track": 1,
      "noteNumber": 85,
      "velocity": 38,
      "ticks": 220
    },
    {
      "time": 37440,
      "track": 2,
      "noteNumber": 66,
      "velocity": 32,
      "ticks": 360
    },
    {
      "time": 37440,
      "track": 2,
      "noteNumber": 70,
      "velocity": 32,
      "ticks": 360
    },
    {
      "time": 37440,
      "track": 1,
      "noteNumber": 82,
      "velocity": 37,
      "ticks": 330
    },
    {
      "time": 37440,
      "track": 1,
      "noteNumber": 72,
      "velocity": 37,
      "ticks": 330
    },
    {
      "time": 37440,
      "track": 1,
      "noteNumber": 84,
      "velocity": 38,
      "ticks": 330
    },
    {
      "time": 37440,
      "track": 2,
      "noteNumber": 60,
      "velocity": 32,
      "ticks": 360
    },
    {
      "time": 37800,
      "track": 2,
      "noteNumber": 70,
      "velocity": 31,
      "ticks": 360
    },
    {
      "time": 37800,
      "track": 2,
      "noteNumber": 61,
      "velocity": 31,
      "ticks": 360
    },
    {
      "time": 37800,
      "track": 1,
      "noteNumber": 82,
      "velocity": 34,
      "ticks": 360
    },
    {
      "time": 37800,
      "track": 1,
      "noteNumber": 73,
      "velocity": 34,
      "ticks": 360
    },
    {
      "time": 37800,
      "track": 1,
      "noteNumber": 85,
      "velocity": 37,
      "ticks": 360
    },
    {
      "time": 37800,
      "track": 2,
      "noteNumber": 66,
      "velocity": 31,
      "ticks": 360
    },
    {
      "time": 38160,
      "track": 2,
      "noteNumber": 58,
      "velocity": 30,
      "ticks": 720
    },
    {
      "time": 38160,
      "track": 2,
      "noteNumber": 66,
      "velocity": 30,
      "ticks": 720
    },
    {
      "time": 38160,
      "track": 2,
      "noteNumber": 63,
      "velocity": 30,
      "ticks": 720
    },
    {
      "time": 38160,
      "track": 1,
      "noteNumber": 70,
      "velocity": 33,
      "ticks": 1080
    },
    {
      "time": 38160,
      "track": 1,
      "noteNumber": 78,
      "velocity": 33,
      "ticks": 1080
    },
    {
      "time": 38160,
      "track": 1,
      "noteNumber": 82,
      "velocity": 35,
      "ticks": 1080
    },
    {
      "time": 38880,
      "track": 2,
      "noteNumber": 44,
      "velocity": 42,
      "ticks": 1440
    },
    {
      "time": 38880,
      "track": 2,
      "noteNumber": 32,
      "velocity": 35,
      "ticks": 1440
    },
    {
      "time": 39240,
      "track": 1,
      "noteNumber": 66,
      "velocity": 49,
      "ticks": 360
    },
    {
      "time": 39240,
      "track": 2,
      "noteNumber": 54,
      "velocity": 48,
      "ticks": 360
    },
    {
      "time": 39240,
      "track": 1,
      "noteNumber": 78,
      "velocity": 51,
      "ticks": 360
    },
    {
      "time": 39600,
      "track": 1,
      "noteNumber": 68,
      "velocity": 45,
      "ticks": 360
    },
    {
      "time": 39600,
      "track": 1,
      "noteNumber": 80,
      "velocity": 47,
      "ticks": 360
    },
    {
      "time": 39600,
      "track": 2,
      "noteNumber": 63,
      "velocity": 39,
      "ticks": 720
    },
    {
      "time": 39600,
      "track": 2,
      "noteNumber": 60,
      "velocity": 33,
      "ticks": 720
    },
    {
      "time": 39600,
      "track": 2,
      "noteNumber": 56,
      "velocity": 38,
      "ticks": 360
    },
    {
      "time": 39600,
      "track": 1,
      "noteNumber": 75,
      "velocity": 45,
      "ticks": 360
    },
    {
      "time": 39960,
      "track": 1,
      "noteNumber": 84,
      "velocity": 51,
      "ticks": 360
    },
    {
      "time": 39960,
      "track": 1,
      "noteNumber": 72,
      "velocity": 49,
      "ticks": 360
    },
    {
      "time": 39960,
      "track": 2,
      "noteNumber": 60,
      "velocity": 50,
      "ticks": 360
    },
    {
      "time": 40320,
      "track": 2,
      "noteNumber": 63,
      "velocity": 34,
      "ticks": 720
    },
    {
      "time": 40320,
      "track": 2,
      "noteNumber": 66,
      "velocity": 40,
      "ticks": 720
    },
    {
      "time": 40320,
      "track": 1,
      "noteNumber": 78,
      "velocity": 46,
      "ticks": 360
    },
    {
      "time": 40320,
      "track": 1,
      "noteNumber": 82,
      "velocity": 48,
      "ticks": 360
    },
    {
      "time": 40320,
      "track": 1,
      "noteNumber": 70,
      "velocity": 46,
      "ticks": 360
    },
    {
      "time": 40320,
      "track": 2,
      "noteNumber": 58,
      "velocity": 39,
      "ticks": 360
    },
    {
      "time": 40680,
      "track": 2,
      "noteNumber": 54,
      "velocity": 44,
      "ticks": 360
    },
    {
      "time": 40680,
      "track": 1,
      "noteNumber": 78,
      "velocity": 46,
      "ticks": 360
    },
    {
      "time": 40680,
      "track": 1,
      "noteNumber": 66,
      "velocity": 44,
      "ticks": 360
    },
    {
      "time": 41040,
      "track": 2,
      "noteNumber": 33,
      "velocity": 35,
      "ticks": 1440
    },
    {
      "time": 41040,
      "track": 2,
      "noteNumber": 45,
      "velocity": 42,
      "ticks": 1440
    },
    {
      "time": 41280,
      "track": 2,
      "noteNumber": 63,
      "velocity": 30,
      "ticks": 240
    },
    {
      "time": 41280,
      "track": 2,
      "noteNumber": 60,
      "velocity": 30,
      "ticks": 240
    },
    {
      "time": 41280,
      "track": 2,
      "noteNumber": 54,
      "velocity": 30,
      "ticks": 240
    },
    {
      "time": 41280,
      "track": 1,
      "noteNumber": 66,
      "velocity": 36,
      "ticks": 240
    },
    {
      "time": 41280,
      "track": 1,
      "noteNumber": 78,
      "velocity": 39,
      "ticks": 240
    },
    {
      "time": 41280,
      "track": 1,
      "noteNumber": 72,
      "velocity": 36,
      "ticks": 240
    },
    {
      "time": 41280,
      "track": 1,
      "noteNumber": 75,
      "velocity": 36,
      "ticks": 240
    },
    {
      "time": 41520,
      "track": 1,
      "noteNumber": 75,
      "velocity": 36,
      "ticks": 230
    },
    {
      "time": 41520,
      "track": 1,
      "noteNumber": 78,
      "velocity": 39,
      "ticks": 230
    },
    {
      "time": 41520,
      "track": 2,
      "noteNumber": 60,
      "velocity": 30,
      "ticks": 230
    },
    {
      "time": 41520,
      "track": 2,
      "noteNumber": 54,
      "velocity": 30,
      "ticks": 230
    },
    {
      "time": 41520,
      "track": 1,
      "noteNumber": 66,
      "velocity": 36,
      "ticks": 230
    },
    {
      "time": 41520,
      "track": 2,
      "noteNumber": 63,
      "velocity": 30,
      "ticks": 230
    },
    {
      "time": 41520,
      "track": 1,
      "noteNumber": 72,
      "velocity": 36,
      "ticks": 240
    },
    {
      "time": 41760,
      "track": 2,
      "noteNumber": 63,
      "velocity": 33,
      "ticks": 240
    },
    {
      "time": 41760,
      "track": 2,
      "noteNumber": 54,
      "velocity": 33,
      "ticks": 240
    },
    {
      "time": 41760,
      "track": 1,
      "noteNumber": 72,
      "velocity": 39,
      "ticks": 240
    },
    {
      "time": 41760,
      "track": 1,
      "noteNumber": 66,
      "velocity": 39,
      "ticks": 240
    },
    {
      "time": 41760,
      "track": 1,
      "noteNumber": 78,
      "velocity": 42,
      "ticks": 240
    },
    {
      "time": 41760,
      "track": 1,
      "noteNumber": 75,
      "velocity": 39,
      "ticks": 240
    },
    {
      "time": 41760,
      "track": 2,
      "noteNumber": 60,
      "velocity": 33,
      "ticks": 240
    },
    {
      "time": 42000,
      "track": 2,
      "noteNumber": 54,
      "velocity": 31,
      "ticks": 220
    },
    {
      "time": 42000,
      "track": 1,
      "noteNumber": 72,
      "velocity": 37,
      "ticks": 220
    },
    {
      "time": 42000,
      "track": 1,
      "noteNumber": 75,
      "velocity": 37,
      "ticks": 220
    },
    {
      "time": 42000,
      "track": 2,
      "noteNumber": 63,
      "velocity": 31,
      "ticks": 220
    },
    {
      "time": 42000,
      "track": 2,
      "noteNumber": 60,
      "velocity": 31,
      "ticks": 220
    },
    {
      "time": 42000,
      "track": 1,
      "noteNumber": 66,
      "velocity": 37,
      "ticks": 220
    },
    {
      "time": 42000,
      "track": 1,
      "noteNumber": 78,
      "velocity": 40,
      "ticks": 220
    },
    {
      "time": 42240,
      "track": 1,
      "noteNumber": 80,
      "velocity": 44,
      "ticks": 240
    },
    {
      "time": 42240,
      "track": 1,
      "noteNumber": 72,
      "velocity": 40,
      "ticks": 240
    },
    {
      "time": 42240,
      "track": 1,
      "noteNumber": 75,
      "velocity": 40,
      "ticks": 240
    },
    {
      "time": 42240,
      "track": 2,
      "noteNumber": 63,
      "velocity": 34,
      "ticks": 240
    },
    {
      "time": 42240,
      "track": 2,
      "noteNumber": 60,
      "velocity": 34,
      "ticks": 240
    },
    {
      "time": 42240,
      "track": 2,
      "noteNumber": 56,
      "velocity": 34,
      "ticks": 240
    },
    {
      "time": 42240,
      "track": 1,
      "noteNumber": 68,
      "velocity": 40,
      "ticks": 240
    },
    {
      "time": 42480,
      "track": 1,
      "noteNumber": 72,
      "velocity": 39,
      "ticks": 720
    },
    {
      "time": 42480,
      "track": 1,
      "noteNumber": 75,
      "velocity": 39,
      "ticks": 720
    },
    {
      "time": 42480,
      "track": 2,
      "noteNumber": 54,
      "velocity": 33,
      "ticks": 720
    },
    {
      "time": 42480,
      "track": 2,
      "noteNumber": 60,
      "velocity": 33,
      "ticks": 720
    },
    {
      "time": 42480,
      "track": 2,
      "noteNumber": 63,
      "velocity": 33,
      "ticks": 720
    },
    {
      "time": 42480,
      "track": 1,
      "noteNumber": 66,
      "velocity": 39,
      "ticks": 720
    },
    {
      "time": 42480,
      "track": 1,
      "noteNumber": 78,
      "velocity": 42,
      "ticks": 720
    },
    {
      "time": 43200,
      "track": 2,
      "noteNumber": 46,
      "velocity": 46,
      "ticks": 1440
    },
    {
      "time": 43200,
      "track": 2,
      "noteNumber": 34,
      "velocity": 39,
      "ticks": 1440
    },
    {
      "time": 43560,
      "track": 2,
      "noteNumber": 61,
      "velocity": 38,
      "ticks": 720
    },
    {
      "time": 43560,
      "track": 2,
      "noteNumber": 54,
      "velocity": 40,
      "ticks": 360
    },
    {
      "time": 43560,
      "track": 2,
      "noteNumber": 58,
      "velocity": 38,
      "ticks": 720
    },
    {
      "time": 43560,
      "track": 1,
      "noteNumber": 78,
      "velocity": 53,
      "ticks": 360
    },
    {
      "time": 43560,
      "track": 1,
      "noteNumber": 66,
      "velocity": 41,
      "ticks": 360
    },
    {
      "time": 43560,
      "track": 1,
      "noteNumber": 73,
      "velocity": 45,
      "ticks": 720
    },
    {
      "time": 43920,
      "track": 2,
      "noteNumber": 56,
      "velocity": 45,
      "ticks": 360
    },
    {
      "time": 43920,
      "track": 1,
      "noteNumber": 68,
      "velocity": 55,
      "ticks": 360
    },
    {
      "time": 43920,
      "track": 1,
      "noteNumber": 80,
      "velocity": 60,
      "ticks": 360
    },
    {
      "time": 44280,
      "track": 2,
      "noteNumber": 61,
      "velocity": 44,
      "ticks": 360
    },
    {
      "time": 44280,
      "track": 1,
      "noteNumber": 85,
      "velocity": 60,
      "ticks": 360
    },
    {
      "time": 44280,
      "track": 1,
      "noteNumber": 73,
      "velocity": 55,
      "ticks": 360
    },
    {
      "time": 44640,
      "track": 1,
      "noteNumber": 82,
      "velocity": 57,
      "ticks": 360
    },
    {
      "time": 44640,
      "track": 2,
      "noteNumber": 58,
      "velocity": 43,
      "ticks": 360
    },
    {
      "time": 44640,
      "track": 2,
      "noteNumber": 61,
      "velocity": 43,
      "ticks": 720
    },
    {
      "time": 44640,
      "track": 2,
      "noteNumber": 66,
      "velocity": 43,
      "ticks": 720
    },
    {
      "time": 44640,
      "track": 1,
      "noteNumber": 78,
      "velocity": 52,
      "ticks": 720
    },
    {
      "time": 44640,
      "track": 1,
      "noteNumber": 70,
      "velocity": 44,
      "ticks": 360
    },
    {
      "time": 45000,
      "track": 1,
      "noteNumber": 78,
      "velocity": 52,
      "ticks": 360
    },
    {
      "time": 45000,
      "track": 1,
      "noteNumber": 66,
      "velocity": 48,
      "ticks": 360
    },
    {
      "time": 45000,
      "track": 2,
      "noteNumber": 54,
      "velocity": 41,
      "ticks": 360
    },
    {
      "time": 45360,
      "track": 2,
      "noteNumber": 48,
      "velocity": 45,
      "ticks": 1440
    },
    {
      "time": 45360,
      "track": 2,
      "noteNumber": 36,
      "velocity": 38,
      "ticks": 1440
    },
    {
      "time": 45600,
      "track": 1,
      "noteNumber": 66,
      "velocity": 39,
      "ticks": 240
    },
    {
      "time": 45600,
      "track": 2,
      "noteNumber": 58,
      "velocity": 33,
      "ticks": 240
    },
    {
      "time": 45600,
      "track": 2,
      "noteNumber": 54,
      "velocity": 33,
      "ticks": 240
    },
    {
      "time": 45600,
      "track": 1,
      "noteNumber": 78,
      "velocity": 42,
      "ticks": 240
    },
    {
      "time": 45600,
      "track": 1,
      "noteNumber": 75,
      "velocity": 39,
      "ticks": 240
    },
    {
      "time": 45600,
      "track": 2,
      "noteNumber": 63,
      "velocity": 33,
      "ticks": 240
    },
    {
      "time": 45600,
      "track": 1,
      "noteNumber": 70,
      "velocity": 39,
      "ticks": 240
    },
    {
      "time": 45840,
      "track": 2,
      "noteNumber": 58,
      "velocity": 33,
      "ticks": 230
    },
    {
      "time": 45840,
      "track": 2,
      "noteNumber": 54,
      "velocity": 33,
      "ticks": 230
    },
    {
      "time": 45840,
      "track": 2,
      "noteNumber": 63,
      "velocity": 33,
      "ticks": 230
    },
    {
      "time": 45840,
      "track": 1,
      "noteNumber": 70,
      "velocity": 39,
      "ticks": 240
    },
    {
      "time": 45840,
      "track": 1,
      "noteNumber": 75,
      "velocity": 39,
      "ticks": 230
    },
    {
      "time": 45840,
      "track": 1,
      "noteNumber": 66,
      "velocity": 39,
      "ticks": 230
    },
    {
      "time": 45840,
      "track": 1,
      "noteNumber": 78,
      "velocity": 42,
      "ticks": 230
    },
    {
      "time": 46080,
      "track": 2,
      "noteNumber": 63,
      "velocity": 35,
      "ticks": 240
    },
    {
      "time": 46080,
      "track": 1,
      "noteNumber": 78,
      "velocity": 46,
      "ticks": 240
    },
    {
      "time": 46080,
      "track": 1,
      "noteNumber": 70,
      "velocity": 42,
      "ticks": 240
    },
    {
      "time": 46080,
      "track": 1,
      "noteNumber": 66,
      "velocity": 42,
      "ticks": 240
    },
    {
      "time": 46080,
      "track": 1,
      "noteNumber": 75,
      "velocity": 42,
      "ticks": 240
    },
    {
      "time": 46080,
      "track": 2,
      "noteNumber": 54,
      "velocity": 35,
      "ticks": 240
    },
    {
      "time": 46080,
      "track": 2,
      "noteNumber": 58,
      "velocity": 35,
      "ticks": 240
    },
    {
      "time": 46320,
      "track": 1,
      "noteNumber": 75,
      "velocity": 40,
      "ticks": 220
    },
    {
      "time": 46320,
      "track": 1,
      "noteNumber": 78,
      "velocity": 44,
      "ticks": 220
    },
    {
      "time": 46320,
      "track": 1,
      "noteNumber": 70,
      "velocity": 40,
      "ticks": 220
    },
    {
      "time": 46320,
      "track": 1,
      "noteNumber": 66,
      "velocity": 40,
      "ticks": 220
    },
    {
      "time": 46320,
      "track": 2,
      "noteNumber": 63,
      "velocity": 34,
      "ticks": 220
    },
    {
      "time": 46320,
      "track": 2,
      "noteNumber": 58,
      "velocity": 34,
      "ticks": 220
    },
    {
      "time": 46320,
      "track": 2,
      "noteNumber": 54,
      "velocity": 34,
      "ticks": 220
    },
    {
      "time": 46560,
      "track": 1,
      "noteNumber": 77,
      "velocity": 43,
      "ticks": 240
    },
    {
      "time": 46560,
      "track": 1,
      "noteNumber": 80,
      "velocity": 47,
      "ticks": 240
    },
    {
      "time": 46560,
      "track": 1,
      "noteNumber": 68,
      "velocity": 43,
      "ticks": 240
    },
    {
      "time": 46560,
      "track": 1,
      "noteNumber": 72,
      "velocity": 43,
      "ticks": 240
    },
    {
      "time": 46560,
      "track": 2,
      "noteNumber": 65,
      "velocity": 36,
      "ticks": 240
    },
    {
      "time": 46560,
      "track": 2,
      "noteNumber": 60,
      "velocity": 36,
      "ticks": 240
    },
    {
      "time": 46560,
      "track": 2,
      "noteNumber": 56,
      "velocity": 36,
      "ticks": 240
    },
    {
      "time": 46800,
      "track": 1,
      "noteNumber": 75,
      "velocity": 42,
      "ticks": 720
    },
    {
      "time": 46800,
      "track": 2,
      "noteNumber": 54,
      "velocity": 35,
      "ticks": 720
    },
    {
      "time": 46800,
      "track": 2,
      "noteNumber": 63,
      "velocity": 35,
      "ticks": 720
    },
    {
      "time": 46800,
      "track": 1,
      "noteNumber": 78,
      "velocity": 46,
      "ticks": 720
    },
    {
      "time": 46800,
      "track": 2,
      "noteNumber": 58,
      "velocity": 35,
      "ticks": 720
    },
    {
      "time": 46800,
      "track": 1,
      "noteNumber": 70,
      "velocity": 42,
      "ticks": 720
    },
    {
      "time": 46800,
      "track": 1,
      "noteNumber": 66,
      "velocity": 42,
      "ticks": 720
    },
    {
      "time": 47520,
      "track": 2,
      "noteNumber": 49,
      "velocity": 51,
      "ticks": 1440
    },
    {
      "time": 47520,
      "track": 2,
      "noteNumber": 37,
      "velocity": 43,
      "ticks": 1440
    },
    {
      "time": 47880,
      "track": 1,
      "noteNumber": 78,
      "velocity": 61,
      "ticks": 360
    },
    {
      "time": 47880,
      "track": 2,
      "noteNumber": 61,
      "velocity": 41,
      "ticks": 720
    },
    {
      "time": 47880,
      "track": 1,
      "noteNumber": 73,
      "velocity": 49,
      "ticks": 720
    },
    {
      "time": 47880,
      "track": 2,
      "noteNumber": 54,
      "velocity": 44,
      "ticks": 360
    },
    {
      "time": 47880,
      "track": 1,
      "noteNumber": 70,
      "velocity": 49,
      "ticks": 720
    },
    {
      "time": 47880,
      "track": 2,
      "noteNumber": 58,
      "velocity": 41,
      "ticks": 720
    },
    {
      "time": 47880,
      "track": 1,
      "noteNumber": 66,
      "velocity": 54,
      "ticks": 360
    },
    {
      "time": 48240,
      "track": 1,
      "noteNumber": 68,
      "velocity": 61,
      "ticks": 360
    },
    {
      "time": 48240,
      "track": 1,
      "noteNumber": 80,
      "velocity": 70,
      "ticks": 360
    },
    {
      "time": 48240,
      "track": 2,
      "noteNumber": 56,
      "velocity": 49,
      "ticks": 360
    },
    {
      "time": 48600,
      "track": 1,
      "noteNumber": 75,
      "velocity": 62,
      "ticks": 360
    },
    {
      "time": 48600,
      "track": 2,
      "noteNumber": 63,
      "velocity": 51,
      "ticks": 360
    },
    {
      "time": 48600,
      "track": 1,
      "noteNumber": 87,
      "velocity": 71,
      "ticks": 360
    },
    {
      "time": 48960,
      "track": 2,
      "noteNumber": 61,
      "velocity": 47,
      "ticks": 360
    },
    {
      "time": 48960,
      "track": 2,
      "noteNumber": 66,
      "velocity": 47,
      "ticks": 720
    },
    {
      "time": 48960,
      "track": 2,
      "noteNumber": 70,
      "velocity": 47,
      "ticks": 720
    },
    {
      "time": 48960,
      "track": 1,
      "noteNumber": 78,
      "velocity": 49,
      "ticks": 720
    },
    {
      "time": 48960,
      "track": 1,
      "noteNumber": 73,
      "velocity": 48,
      "ticks": 360
    },
    {
      "time": 48960,
      "track": 1,
      "noteNumber": 85,
      "velocity": 65,
      "ticks": 360
    },
    {
      "time": 48960,
      "track": 1,
      "noteNumber": 82,
      "velocity": 49,
      "ticks": 720
    },
    {
      "time": 49320,
      "track": 2,
      "noteNumber": 58,
      "velocity": 49,
      "ticks": 360
    },
    {
      "time": 49320,
      "track": 1,
      "noteNumber": 82,
      "velocity": 65,
      "ticks": 360
    },
    {
      "time": 49320,
      "track": 1,
      "noteNumber": 70,
      "velocity": 57,
      "ticks": 360
    },
    {
      "time": 49680,
      "track": 2,
      "noteNumber": 39,
      "velocity": 41,
      "ticks": 1440
    },
    {
      "time": 49680,
      "track": 2,
      "noteNumber": 51,
      "velocity": 49,
      "ticks": 1440
    },
    {
      "time": 49920,
      "track": 2,
      "noteNumber": 54,
      "velocity": 40,
      "ticks": 240
    },
    {
      "time": 49920,
      "track": 2,
      "noteNumber": 63,
      "velocity": 40,
      "ticks": 240
    },
    {
      "time": 49920,
      "track": 2,
      "noteNumber": 58,
      "velocity": 40,
      "ticks": 240
    },
    {
      "time": 49920,
      "track": 1,
      "noteNumber": 82,
      "velocity": 50,
      "ticks": 240
    },
    {
      "time": 49920,
      "track": 1,
      "noteNumber": 70,
      "velocity": 48,
      "ticks": 240
    },
    {
      "time": 49920,
      "track": 1,
      "noteNumber": 78,
      "velocity": 48,
      "ticks": 240
    },
    {
      "time": 50160,
      "track": 2,
      "noteNumber": 54,
      "velocity": 40,
      "ticks": 230
    },
    {
      "time": 50160,
      "track": 2,
      "noteNumber": 58,
      "velocity": 40,
      "ticks": 230
    },
    {
      "time": 50160,
      "track": 2,
      "noteNumber": 63,
      "velocity": 40,
      "ticks": 230
    },
    {
      "time": 50160,
      "track": 1,
      "noteNumber": 82,
      "velocity": 50,
      "ticks": 230
    },
    {
      "time": 50160,
      "track": 1,
      "noteNumber": 78,
      "velocity": 48,
      "ticks": 230
    },
    {
      "time": 50160,
      "track": 1,
      "noteNumber": 70,
      "velocity": 48,
      "ticks": 240
    },
    {
      "time": 50400,
      "track": 2,
      "noteNumber": 63,
      "velocity": 43,
      "ticks": 240
    },
    {
      "time": 50400,
      "track": 1,
      "noteNumber": 70,
      "velocity": 51,
      "ticks": 240
    },
    {
      "time": 50400,
      "track": 1,
      "noteNumber": 82,
      "velocity": 53,
      "ticks": 240
    },
    {
      "time": 50400,
      "track": 1,
      "noteNumber": 78,
      "velocity": 51,
      "ticks": 240
    },
    {
      "time": 50400,
      "track": 2,
      "noteNumber": 54,
      "velocity": 43,
      "ticks": 240
    },
    {
      "time": 50400,
      "track": 2,
      "noteNumber": 58,
      "velocity": 43,
      "ticks": 240
    },
    {
      "time": 50640,
      "track": 1,
      "noteNumber": 78,
      "velocity": 49,
      "ticks": 220
    },
    {
      "time": 50640,
      "track": 1,
      "noteNumber": 82,
      "velocity": 51,
      "ticks": 220
    },
    {
      "time": 50640,
      "track": 1,
      "noteNumber": 70,
      "velocity": 49,
      "ticks": 220
    },
    {
      "time": 50640,
      "track": 2,
      "noteNumber": 54,
      "velocity": 41,
      "ticks": 220
    },
    {
      "time": 50640,
      "track": 2,
      "noteNumber": 58,
      "velocity": 41,
      "ticks": 220
    },
    {
      "time": 50640,
      "track": 2,
      "noteNumber": 63,
      "velocity": 41,
      "ticks": 220
    },
    {
      "time": 50880,
      "track": 2,
      "noteNumber": 65,
      "velocity": 42,
      "ticks": 240
    },
    {
      "time": 50880,
      "track": 1,
      "noteNumber": 72,
      "velocity": 50,
      "ticks": 240
    },
    {
      "time": 50880,
      "track": 1,
      "noteNumber": 80,
      "velocity": 50,
      "ticks": 240
    },
    {
      "time": 50880,
      "track": 2,
      "noteNumber": 60,
      "velocity": 42,
      "ticks": 240
    },
    {
      "time": 50880,
      "track": 2,
      "noteNumber": 56,
      "velocity": 42,
      "ticks": 240
    },
    {
      "time": 50880,
      "track": 1,
      "noteNumber": 84,
      "velocity": 52,
      "ticks": 240
    },
    {
      "time": 51120,
      "track": 2,
      "noteNumber": 58,
      "velocity": 42,
      "ticks": 220
    },
    {
      "time": 51120,
      "track": 2,
      "noteNumber": 63,
      "velocity": 42,
      "ticks": 220
    },
    {
      "time": 51120,
      "track": 1,
      "noteNumber": 82,
      "velocity": 52,
      "ticks": 220
    },
    {
      "time": 51120,
      "track": 1,
      "noteNumber": 78,
      "velocity": 50,
      "ticks": 220
    },
    {
      "time": 51120,
      "track": 1,
      "noteNumber": 70,
      "velocity": 50,
      "ticks": 220
    },
    {
      "time": 51120,
      "track": 2,
      "noteNumber": 54,
      "velocity": 42,
      "ticks": 220
    },
    {
      "time": 51360,
      "track": 1,
      "noteNumber": 73,
      "velocity": 51,
      "ticks": 240
    },
    {
      "time": 51360,
      "track": 2,
      "noteNumber": 70,
      "velocity": 43,
      "ticks": 240
    },
    {
      "time": 51360,
      "track": 1,
      "noteNumber": 85,
      "velocity": 53,
      "ticks": 240
    },
    {
      "time": 51360,
      "track": 1,
      "noteNumber": 82,
      "velocity": 51,
      "ticks": 240
    },
    {
      "time": 51360,
      "track": 2,
      "noteNumber": 61,
      "velocity": 43,
      "ticks": 240
    },
    {
      "time": 51360,
      "track": 2,
      "noteNumber": 66,
      "velocity": 43,
      "ticks": 240
    },
    {
      "time": 51600,
      "track": 1,
      "noteNumber": 75,
      "velocity": 55,
      "ticks": 120
    },
    {
      "time": 51600,
      "track": 1,
      "noteNumber": 87,
      "velocity": 57,
      "ticks": 120
    },
    {
      "time": 51600,
      "track": 2,
      "noteNumber": 66,
      "velocity": 45,
      "ticks": 120
    },
    {
      "time": 51600,
      "track": 2,
      "noteNumber": 63,
      "velocity": 45,
      "ticks": 120
    },
    {
      "time": 51600,
      "track": 2,
      "noteNumber": 70,
      "velocity": 45,
      "ticks": 120
    },
    {
      "time": 51600,
      "track": 1,
      "noteNumber": 82,
      "velocity": 55,
      "ticks": 120
    },
    {
      "time": 51720,
      "track": 2,
      "noteNumber": 65,
      "velocity": 38,
      "ticks": 1440
    },
    {
      "time": 51740,
      "track": 2,
      "noteNumber": 68,
      "velocity": 39,
      "ticks": 1420
    },
    {
      "time": 51760,
      "track": 2,
      "noteNumber": 73,
      "velocity": 40,
      "ticks": 1400
    },
    {
      "time": 51780,
      "track": 2,
      "noteNumber": 77,
      "velocity": 42,
      "ticks": 1380
    },
    {
      "time": 51800,
      "track": 1,
      "noteNumber": 80,
      "velocity": 51,
      "ticks": 1360
    },
    {
      "time": 51820,
      "track": 1,
      "noteNumber": 85,
      "velocity": 56,
      "ticks": 1340
    },
    {
      "time": 51840,
      "track": 1,
      "noteNumber": 92,
      "velocity": 65,
      "ticks": 1320
    },
    {
      "time": 53160,
      "track": 2,
      "noteNumber": 64,
      "velocity": 33,
      "ticks": 720
    },
    {
      "time": 53177,
      "track": 2,
      "noteNumber": 68,
      "velocity": 34,
      "ticks": 703
    },
    {
      "time": 53194,
      "track": 2,
      "noteNumber": 70,
      "velocity": 34,
      "ticks": 686
    },
    {
      "time": 53211,
      "track": 2,
      "noteNumber": 73,
      "velocity": 36,
      "ticks": 669
    },
    {
      "time": 53228,
      "track": 2,
      "noteNumber": 76,
      "velocity": 37,
      "ticks": 652
    },
    {
      "time": 53245,
      "track": 1,
      "noteNumber": 80,
      "velocity": 45,
      "ticks": 635
    },
    {
      "time": 53262,
      "track": 1,
      "noteNumber": 85,
      "velocity": 50,
      "ticks": 618
    },
    {
      "time": 53280,
      "track": 1,
      "noteNumber": 92,
      "velocity": 55,
      "ticks": 600
    },
    {
      "time": 53880,
      "track": 2,
      "noteNumber": 63,
      "velocity": 33,
      "ticks": 1440
    },
    {
      "time": 53897,
      "track": 2,
      "noteNumber": 66,
      "velocity": 34,
      "ticks": 1423
    },
    {
      "time": 53914,
      "track": 2,
      "noteNumber": 68,
      "velocity": 34,
      "ticks": 1406
    },
    {
      "time": 53931,
      "track": 2,
      "noteNumber": 73,
      "velocity": 36,
      "ticks": 1389
    },
    {
      "time": 53948,
      "track": 2,
      "noteNumber": 75,
      "velocity": 37,
      "ticks": 1372
    },
    {
      "time": 53965,
      "track": 1,
      "noteNumber": 80,
      "velocity": 45,
      "ticks": 1355
    },
    {
      "time": 53982,
      "track": 1,
      "noteNumber": 85,
      "velocity": 50,
      "ticks": 1338
    },
    {
      "time": 54000,
      "track": 1,
      "noteNumber": 92,
      "velocity": 55,
      "ticks": 1320
    },
    {
      "time": 55320,
      "track": 2,
      "noteNumber": 56,
      "velocity": 27,
      "ticks": 840
    },
    {
      "time": 55340,
      "track": 2,
      "noteNumber": 63,
      "velocity": 28,
      "ticks": 820
    },
    {
      "time": 55360,
      "track": 2,
      "noteNumber": 66,
      "velocity": 30,
      "ticks": 800
    },
    {
      "time": 55380,
      "track": 2,
      "noteNumber": 72,
      "velocity": 31,
      "ticks": 780
    },
    {
      "time": 55400,
      "track": 1,
      "noteNumber": 68,
      "velocity": 32,
      "ticks": 760
    },
    {
      "time": 55420,
      "track": 1,
      "noteNumber": 75,
      "velocity": 33,
      "ticks": 740
    },
    {
      "time": 55440,
      "track": 1,
      "noteNumber": 80,
      "velocity": 39,
      "ticks": 720
    },
    {
      "time": 56160,
      "track": 1,
      "noteNumber": 68,
      "velocity": 40,
      "ticks": 1440
    },
    {
      "time": 56160,
      "track": 1,
      "noteNumber": 65,
      "velocity": 37,
      "ticks": 1440
    },
    {
      "time": 56160,
      "track": 2,
      "noteNumber": 37,
      "velocity": 32,
      "ticks": 360
    },
    {
      "time": 56280,
      "track": 2,
      "noteNumber": 44,
      "velocity": 30,
      "ticks": 120
    },
    {
      "time": 56400,
      "track": 2,
      "noteNumber": 49,
      "velocity": 30,
      "ticks": 120
    },
    {
      "time": 56520,
      "track": 2,
      "noteNumber": 53,
      "velocity": 30,
      "ticks": 120
    },
    {
      "time": 56640,
      "track": 2,
      "noteNumber": 56,
      "velocity": 30,
      "ticks": 120
    },
    {
      "time": 56760,
      "track": 2,
      "noteNumber": 61,
      "velocity": 30,
      "ticks": 120
    },
    {
      "time": 56880,
      "track": 2,
      "noteNumber": 41,
      "velocity": 33,
      "ticks": 360
    },
    {
      "time": 57000,
      "track": 2,
      "noteNumber": 48,
      "velocity": 26,
      "ticks": 120
    },
    {
      "time": 57120,
      "track": 2,
      "noteNumber": 53,
      "velocity": 27,
      "ticks": 120
    },
    {
      "time": 57240,
      "track": 2,
      "noteNumber": 56,
      "velocity": 28,
      "ticks": 120
    },
    {
      "time": 57360,
      "track": 2,
      "noteNumber": 60,
      "velocity": 30,
      "ticks": 120
    },
    {
      "time": 57480,
      "track": 2,
      "noteNumber": 65,
      "velocity": 31,
      "ticks": 120
    },
    {
      "time": 57600,
      "track": 2,
      "noteNumber": 44,
      "velocity": 34,
      "ticks": 360
    },
    {
      "time": 57600,
      "track": 1,
      "noteNumber": 71,
      "velocity": 39,
      "ticks": 480
    },
    {
      "time": 57600,
      "track": 1,
      "noteNumber": 68,
      "velocity": 36,
      "ticks": 720
    },
    {
      "time": 57720,
      "track": 2,
      "noteNumber": 52,
      "velocity": 32,
      "ticks": 120
    },
    {
      "time": 57840,
      "track": 2,
      "noteNumber": 56,
      "velocity": 32,
      "ticks": 120
    },
    {
      "time": 57960,
      "track": 2,
      "noteNumber": 59,
      "velocity": 32,
      "ticks": 120
    },
    {
      "time": 58080,
      "track": 1,
      "noteNumber": 73,
      "velocity": 37,
      "ticks": 240
    },
    {
      "time": 58080,
      "track": 2,
      "noteNumber": 64,
      "velocity": 32,
      "ticks": 120
    },
    {
      "time": 58200,
      "track": 2,
      "noteNumber": 68,
      "velocity": 32,
      "ticks": 118
    },
    {
      "time": 58320,
      "track": 1,
      "noteNumber": 68,
      "velocity": 40,
      "ticks": 1440
    },
    {
      "time": 58320,
      "track": 1,
      "noteNumber": 65,
      "velocity": 37,
      "ticks": 1310
    },
    {
      "time": 58320,
      "track": 2,
      "noteNumber": 37,
      "velocity": 33,
      "ticks": 360
    },
    {
      "time": 58440,
      "track": 2,
      "noteNumber": 44,
      "velocity": 30,
      "ticks": 120
    },
    {
      "time": 58560,
      "track": 2,
      "noteNumber": 49,
      "velocity": 30,
      "ticks": 120
    },
    {
      "time": 58680,
      "track": 2,
      "noteNumber": 53,
      "velocity": 30,
      "ticks": 120
    },
    {
      "time": 58800,
      "track": 2,
      "noteNumber": 56,
      "velocity": 30,
      "ticks": 120
    },
    {
      "time": 58920,
      "track": 2,
      "noteNumber": 61,
      "velocity": 30,
      "ticks": 120
    },
    {
      "time": 59040,
      "track": 2,
      "noteNumber": 41,
      "velocity": 33,
      "ticks": 360
    },
    {
      "time": 59160,
      "track": 2,
      "noteNumber": 48,
      "velocity": 30,
      "ticks": 120
    },
    {
      "time": 59280,
      "track": 2,
      "noteNumber": 53,
      "velocity": 30,
      "ticks": 120
    },
    {
      "time": 59400,
      "track": 2,
      "noteNumber": 56,
      "velocity": 31,
      "ticks": 120
    },
    {
      "time": 59520,
      "track": 2,
      "noteNumber": 60,
      "velocity": 32,
      "ticks": 120
    },
    {
      "time": 59640,
      "track": 2,
      "noteNumber": 65,
      "velocity": 32,
      "ticks": 120
    },
    {
      "time": 59760,
      "track": 2,
      "noteNumber": 44,
      "velocity": 34,
      "ticks": 360
    },
    {
      "time": 59760,
      "track": 1,
      "noteNumber": 68,
      "velocity": 37,
      "ticks": 480
    },
    {
      "time": 59760,
      "track": 1,
      "noteNumber": 71,
      "velocity": 40,
      "ticks": 480
    },
    {
      "time": 59880,
      "track": 2,
      "noteNumber": 52,
      "velocity": 32,
      "ticks": 120
    },
    {
      "time": 60000,
      "track": 2,
      "noteNumber": 56,
      "velocity": 32,
      "ticks": 120
    },
    {
      "time": 60120,
      "track": 2,
      "noteNumber": 59,
      "velocity": 32,
      "ticks": 120
    },
    {
      "time": 60240,
      "track": 1,
      "noteNumber": 68,
      "velocity": 40,
      "ticks": 240
    },
    {
      "time": 60360,
      "track": 2,
      "noteNumber": 64,
      "velocity": 32,
      "ticks": 120
    },
    {
      "time": 60480,
      "track": 1,
      "noteNumber": 73,
      "velocity": 46,
      "ticks": 480
    },
    {
      "time": 60480,
      "track": 2,
      "noteNumber": 37,
      "velocity": 33,
      "ticks": 120
    },
    {
      "time": 60480,
      "track": 1,
      "noteNumber": 65,
      "velocity": 42,
      "ticks": 480
    },
    {
      "time": 60600,
      "track": 2,
      "noteNumber": 44,
      "velocity": 33,
      "ticks": 120
    },
    {
      "time": 60720,
      "track": 2,
      "noteNumber": 49,
      "velocity": 33,
      "ticks": 120
    },
    {
      "time": 60840,
      "track": 2,
      "noteNumber": 53,
      "velocity": 33,
      "ticks": 120
    },
    {
      "time": 60960,
      "track": 2,
      "noteNumber": 56,
      "velocity": 33,
      "ticks": 120
    },
    {
      "time": 60960,
      "track": 1,
      "noteNumber": 68,
      "velocity": 40,
      "ticks": 240
    },
    {
      "time": 60960,
      "track": 1,
      "noteNumber": 75,
      "velocity": 44,
      "ticks": 240
    },
    {
      "time": 61080,
      "track": 2,
      "noteNumber": 61,
      "velocity": 33,
      "ticks": 120
    },
    {
      "time": 61200,
      "track": 2,
      "noteNumber": 65,
      "velocity": 34,
      "ticks": 120
    },
    {
      "time": 61200,
      "track": 1,
      "noteNumber": 73,
      "velocity": 44,
      "ticks": 720
    },
    {
      "time": 61200,
      "track": 1,
      "noteNumber": 77,
      "velocity": 48,
      "ticks": 720
    },
    {
      "time": 61320,
      "track": 2,
      "noteNumber": 68,
      "velocity": 34,
      "ticks": 120
    },
    {
      "time": 61440,
      "track": 2,
      "noteNumber": 65,
      "velocity": 34,
      "ticks": 120
    },
    {
      "time": 61560,
      "track": 2,
      "noteNumber": 61,
      "velocity": 34,
      "ticks": 120
    },
    {
      "time": 61680,
      "track": 2,
      "noteNumber": 56,
      "velocity": 34,
      "ticks": 120
    },
    {
      "time": 61800,
      "track": 2,
      "noteNumber": 53,
      "velocity": 36,
      "ticks": 120
    },
    {
      "time": 61920,
      "track": 1,
      "noteNumber": 65,
      "velocity": 43,
      "ticks": 480
    },
    {
      "time": 61920,
      "track": 1,
      "noteNumber": 73,
      "velocity": 47,
      "ticks": 480
    },
    {
      "time": 61920,
      "track": 2,
      "noteNumber": 56,
      "velocity": 36,
      "ticks": 120
    },
    {
      "time": 62040,
      "track": 2,
      "noteNumber": 53,
      "velocity": 36,
      "ticks": 120
    },
    {
      "time": 62160,
      "track": 2,
      "noteNumber": 49,
      "velocity": 36,
      "ticks": 120
    },
    {
      "time": 62280,
      "track": 2,
      "noteNumber": 44,
      "velocity": 36,
      "ticks": 120
    },
    {
      "time": 62400,
      "track": 1,
      "noteNumber": 77,
      "velocity": 48,
      "ticks": 240
    },
    {
      "time": 62400,
      "track": 2,
      "noteNumber": 49,
      "velocity": 36,
      "ticks": 120
    },
    {
      "time": 62400,
      "track": 1,
      "noteNumber": 73,
      "velocity": 44,
      "ticks": 240
    },
    {
      "time": 62520,
      "track": 2,
      "noteNumber": 44,
      "velocity": 37,
      "ticks": 120
    },
    {
      "time": 62640,
      "track": 1,
      "noteNumber": 79,
      "velocity": 53,
      "ticks": 240
    },
    {
      "time": 62640,
      "track": 1,
      "noteNumber": 75,
      "velocity": 49,
      "ticks": 240
    },
    {
      "time": 62640,
      "track": 2,
      "noteNumber": 39,
      "velocity": 37,
      "ticks": 120
    },
    {
      "time": 62760,
      "track": 2,
      "noteNumber": 46,
      "velocity": 37,
      "ticks": 120
    },
    {
      "time": 62880,
      "track": 2,
      "noteNumber": 51,
      "velocity": 37,
      "ticks": 120
    },
    {
      "time": 62880,
      "track": 1,
      "noteNumber": 73,
      "velocity": 43,
      "ticks": 240
    },
    {
      "time": 62880,
      "track": 1,
      "noteNumber": 77,
      "velocity": 47,
      "ticks": 240
    },
    {
      "time": 63000,
      "track": 2,
      "noteNumber": 55,
      "velocity": 37,
      "ticks": 120
    },
    {
      "time": 63120,
      "track": 1,
      "noteNumber": 73,
      "velocity": 47,
      "ticks": 240
    },
    {
      "time": 63120,
      "track": 1,
      "noteNumber": 70,
      "velocity": 43,
      "ticks": 240
    },
    {
      "time": 63120,
      "track": 2,
      "noteNumber": 58,
      "velocity": 37,
      "ticks": 120
    },
    {
      "time": 63240,
      "track": 2,
      "noteNumber": 63,
      "velocity": 37,
      "ticks": 120
    },
    {
      "time": 63360,
      "track": 1,
      "noteNumber": 70,
      "velocity": 39,
      "ticks": 720
    },
    {
      "time": 63360,
      "track": 1,
      "noteNumber": 67,
      "velocity": 43,
      "ticks": 240
    },
    {
      "time": 63360,
      "track": 1,
      "noteNumber": 73,
      "velocity": 42,
      "ticks": 720
    },
    {
      "time": 63480,
      "track": 2,
      "noteNumber": 63,
      "velocity": 36,
      "ticks": 120
    },
    {
      "time": 63600,
      "track": 2,
      "noteNumber": 58,
      "velocity": 36,
      "ticks": 120
    },
    {
      "time": 63600,
      "track": 1,
      "noteNumber": 65,
      "velocity": 36,
      "ticks": 240
    },
    {
      "time": 63720,
      "track": 2,
      "noteNumber": 55,
      "velocity": 34,
      "ticks": 120
    },
    {
      "time": 63840,
      "track": 2,
      "noteNumber": 51,
      "velocity": 34,
      "ticks": 120
    },
    {
      "time": 63840,
      "track": 1,
      "noteNumber": 61,
      "velocity": 34,
      "ticks": 240
    },
    {
      "time": 63960,
      "track": 2,
      "noteNumber": 46,
      "velocity": 34,
      "ticks": 120
    },
    {
      "time": 64080,
      "track": 1,
      "noteNumber": 61,
      "velocity": 38,
      "ticks": 360
    },
    {
      "time": 64080,
      "track": 2,
      "noteNumber": 39,
      "velocity": 33,
      "ticks": 120
    },
    {
      "time": 64200,
      "track": 2,
      "noteNumber": 46,
      "velocity": 33,
      "ticks": 120
    },
    {
      "time": 64320,
      "track": 2,
      "noteNumber": 51,
      "velocity": 33,
      "ticks": 120
    },
    {
      "time": 64440,
      "track": 1,
      "noteNumber": 58,
      "velocity": 36,
      "ticks": 360
    },
    {
      "time": 64440,
      "track": 2,
      "noteNumber": 55,
      "velocity": 33,
      "ticks": 120
    },
    {
      "time": 64560,
      "track": 2,
      "noteNumber": 51,
      "velocity": 33,
      "ticks": 120
    },
    {
      "time": 64680,
      "track": 2,
      "noteNumber": 46,
      "velocity": 33,
      "ticks": 120
    },
    {
      "time": 64800,
      "track": 2,
      "noteNumber": 44,
      "velocity": 37,
      "ticks": 720
    },
    {
      "time": 64800,
      "track": 1,
      "noteNumber": 70,
      "velocity": 52,
      "ticks": 1440
    },
    {
      "time": 64920,
      "track": 2,
      "noteNumber": 51,
      "velocity": 33,
      "ticks": 120
    },
    {
      "time": 65040,
      "track": 2,
      "noteNumber": 54,
      "velocity": 33,
      "ticks": 120
    },
    {
      "time": 65160,
      "track": 2,
      "noteNumber": 58,
      "velocity": 33,
      "ticks": 120
    },
    {
      "time": 65280,
      "track": 2,
      "noteNumber": 60,
      "velocity": 33,
      "ticks": 120
    },
    {
      "time": 65400,
      "track": 2,
      "noteNumber": 66,
      "velocity": 33,
      "ticks": 120
    },
    {
      "time": 65520,
      "track": 2,
      "noteNumber": 42,
      "velocity": 38,
      "ticks": 720
    },
    {
      "time": 65640,
      "track": 2,
      "noteNumber": 49,
      "velocity": 32,
      "ticks": 120
    },
    {
      "time": 65760,
      "track": 2,
      "noteNumber": 54,
      "velocity": 33,
      "ticks": 120
    },
    {
      "time": 65880,
      "track": 2,
      "noteNumber": 58,
      "velocity": 34,
      "ticks": 120
    },
    {
      "time": 66000,
      "track": 2,
      "noteNumber": 61,
      "velocity": 34,
      "ticks": 120
    },
    {
      "time": 66120,
      "track": 2,
      "noteNumber": 66,
      "velocity": 36,
      "ticks": 120
    },
    {
      "time": 66240,
      "track": 1,
      "noteNumber": 72,
      "velocity": 51,
      "ticks": 480
    },
    {
      "time": 66240,
      "track": 2,
      "noteNumber": 41,
      "velocity": 40,
      "ticks": 720
    },
    {
      "time": 66360,
      "track": 2,
      "noteNumber": 48,
      "velocity": 36,
      "ticks": 120
    },
    {
      "time": 66480,
      "track": 2,
      "noteNumber": 53,
      "velocity": 37,
      "ticks": 120
    },
    {
      "time": 66600,
      "track": 2,
      "noteNumber": 56,
      "velocity": 38,
      "ticks": 120
    },
    {
      "time": 66720,
      "track": 2,
      "noteNumber": 60,
      "velocity": 39,
      "ticks": 240
    },
    {
      "time": 66720,
      "track": 1,
      "noteNumber": 77,
      "velocity": 56,
      "ticks": 240
    },
    {
      "time": 66727,
      "track": 1,
      "noteNumber": 68,
      "velocity": 38,
      "ticks": 120
    },
    {
      "time": 66833,
      "track": 1,
      "noteNumber": 65,
      "velocity": 38,
      "ticks": 120
    },
    {
      "time": 66975,
      "track": 1,
      "noteNumber": 70,
      "velocity": 52,
      "ticks": 1440
    },
    {
      "time": 66975,
      "track": 2,
      "noteNumber": 44,
      "velocity": 37,
      "ticks": 720
    },
    {
      "time": 67095,
      "track": 2,
      "noteNumber": 51,
      "velocity": 33,
      "ticks": 120
    },
    {
      "time": 67215,
      "track": 2,
      "noteNumber": 54,
      "velocity": 33,
      "ticks": 120
    },
    {
      "time": 67335,
      "track": 2,
      "noteNumber": 58,
      "velocity": 33,
      "ticks": 120
    },
    {
      "time": 67455,
      "track": 2,
      "noteNumber": 60,
      "velocity": 33,
      "ticks": 120
    },
    {
      "time": 67575,
      "track": 2,
      "noteNumber": 66,
      "velocity": 34,
      "ticks": 120
    },
    {
      "time": 67695,
      "track": 2,
      "noteNumber": 42,
      "velocity": 39,
      "ticks": 720
    },
    {
      "time": 67815,
      "track": 2,
      "noteNumber": 49,
      "velocity": 34,
      "ticks": 120
    },
    {
      "time": 67935,
      "track": 2,
      "noteNumber": 54,
      "velocity": 37,
      "ticks": 120
    },
    {
      "time": 68055,
      "track": 2,
      "noteNumber": 58,
      "velocity": 38,
      "ticks": 120
    },
    {
      "time": 68175,
      "track": 2,
      "noteNumber": 61,
      "velocity": 38,
      "ticks": 120
    },
    {
      "time": 68295,
      "track": 2,
      "noteNumber": 66,
      "velocity": 39,
      "ticks": 120
    },
    {
      "time": 68415,
      "track": 1,
      "noteNumber": 72,
      "velocity": 56,
      "ticks": 480
    },
    {
      "time": 68415,
      "track": 2,
      "noteNumber": 41,
      "velocity": 44,
      "ticks": 720
    },
    {
      "time": 68535,
      "track": 2,
      "noteNumber": 48,
      "velocity": 39,
      "ticks": 120
    },
    {
      "time": 68655,
      "track": 2,
      "noteNumber": 53,
      "velocity": 40,
      "ticks": 120
    },
    {
      "time": 68775,
      "track": 2,
      "noteNumber": 56,
      "velocity": 43,
      "ticks": 120
    },
    {
      "time": 68895,
      "track": 2,
      "noteNumber": 60,
      "velocity": 44,
      "ticks": 240
    },
    {
      "time": 68895,
      "track": 1,
      "noteNumber": 77,
      "velocity": 60,
      "ticks": 240
    },
    {
      "time": 68902,
      "track": 1,
      "noteNumber": 68,
      "velocity": 38,
      "ticks": 120
    },
    {
      "time": 69008,
      "track": 1,
      "noteNumber": 65,
      "velocity": 38,
      "ticks": 120
    },
    {
      "time": 69120,
      "track": 2,
      "noteNumber": 39,
      "velocity": 45,
      "ticks": 720
    },
    {
      "time": 69120,
      "track": 1,
      "noteNumber": 78,
      "velocity": 64,
      "ticks": 1080
    },
    {
      "time": 69240,
      "track": 2,
      "noteNumber": 46,
      "velocity": 40,
      "ticks": 120
    },
    {
      "time": 69360,
      "track": 2,
      "noteNumber": 51,
      "velocity": 40,
      "ticks": 120
    },
    {
      "time": 69480,
      "track": 2,
      "noteNumber": 54,
      "velocity": 40,
      "ticks": 120
    },
    {
      "time": 69600,
      "track": 2,
      "noteNumber": 58,
      "velocity": 40,
      "ticks": 120
    },
    {
      "time": 69720,
      "track": 2,
      "noteNumber": 63,
      "velocity": 40,
      "ticks": 120
    },
    {
      "time": 69840,
      "track": 2,
      "noteNumber": 66,
      "velocity": 60,
      "ticks": 118
    },
    {
      "time": 69960,
      "track": 1,
      "noteNumber": 66,
      "velocity": 46,
      "ticks": 240
    },
    {
      "time": 70080,
      "track": 1,
      "noteNumber": 70,
      "velocity": 46,
      "ticks": 120
    },
    {
      "time": 70200,
      "track": 2,
      "noteNumber": 65,
      "velocity": 58,
      "ticks": 360
    },
    {
      "time": 70200,
      "track": 1,
      "noteNumber": 77,
      "velocity": 58,
      "ticks": 360
    },
    {
      "time": 70320,
      "track": 1,
      "noteNumber": 66,
      "velocity": 46,
      "ticks": 120
    },
    {
      "time": 70440,
      "track": 1,
      "noteNumber": 70,
      "velocity": 46,
      "ticks": 120
    },
    {
      "time": 70560,
      "track": 2,
      "noteNumber": 62,
      "velocity": 57,
      "ticks": 360
    },
    {
      "time": 70560,
      "track": 1,
      "noteNumber": 74,
      "velocity": 58,
      "ticks": 360
    },
    {
      "time": 70680,
      "track": 1,
      "noteNumber": 66,
      "velocity": 46,
      "ticks": 120
    },
    {
      "time": 70800,
      "track": 1,
      "noteNumber": 70,
      "velocity": 46,
      "ticks": 120
    },
    {
      "time": 70920,
      "track": 1,
      "noteNumber": 75,
      "velocity": 60,
      "ticks": 360
    },
    {
      "time": 70920,
      "track": 2,
      "noteNumber": 63,
      "velocity": 58,
      "ticks": 360
    },
    {
      "time": 71040,
      "track": 1,
      "noteNumber": 66,
      "velocity": 49,
      "ticks": 120
    },
    {
      "time": 71160,
      "track": 1,
      "noteNumber": 70,
      "velocity": 49,
      "ticks": 120
    },
    {
      "time": 71280,
      "track": 1,
      "noteNumber": 82,
      "velocity": 67,
      "ticks": 595
    },
    {
      "time": 71280,
      "track": 2,
      "noteNumber": 62,
      "velocity": 55,
      "ticks": 360
    },
    {
      "time": 71400,
      "track": 2,
      "noteNumber": 66,
      "velocity": 43,
      "ticks": 120
    },
    {
      "time": 71520,
      "track": 2,
      "noteNumber": 70,
      "velocity": 43,
      "ticks": 120
    },
    {
      "time": 71640,
      "track": 2,
      "noteNumber": 70,
      "velocity": 43,
      "ticks": 120
    },
    {
      "time": 71760,
      "track": 2,
      "noteNumber": 78,
      "velocity": 43,
      "ticks": 120
    },
    {
      "time": 71880,
      "track": 2,
      "noteNumber": 82,
      "velocity": 43,
      "ticks": 720
    },
    {
      "time": 72000,
      "track": 2,
      "noteNumber": 63,
      "velocity": 50,
      "ticks": 360
    },
    {
      "time": 72120,
      "track": 2,
      "noteNumber": 66,
      "velocity": 38,
      "ticks": 120
    },
    {
      "time": 72240,
      "track": 2,
      "noteNumber": 70,
      "velocity": 38,
      "ticks": 120
    },
    {
      "time": 72360,
      "track": 2,
      "noteNumber": 70,
      "velocity": 38,
      "ticks": 120
    },
    {
      "time": 72480,
      "track": 2,
      "noteNumber": 78,
      "velocity": 38,
      "ticks": 120
    },
    {
      "time": 72600,
      "track": 2,
      "noteNumber": 82,
      "velocity": 38,
      "ticks": 120
    },
    {
      "time": 72720,
      "track": 2,
      "noteNumber": 56,
      "velocity": 44,
      "ticks": 360
    },
    {
      "time": 72720,
      "track": 1,
      "noteNumber": 80,
      "velocity": 51,
      "ticks": 595
    },
    {
      "time": 72720,
      "track": 2,
      "noteNumber": 60,
      "velocity": 44,
      "ticks": 120
    },
    {
      "time": 72840,
      "track": 2,
      "noteNumber": 64,
      "velocity": 37,
      "ticks": 120
    },
    {
      "time": 72960,
      "track": 2,
      "noteNumber": 68,
      "velocity": 36,
      "ticks": 120
    },
    {
      "time": 73080,
      "track": 2,
      "noteNumber": 72,
      "velocity": 34,
      "ticks": 120
    },
    {
      "time": 73200,
      "track": 2,
      "noteNumber": 76,
      "velocity": 34,
      "ticks": 120
    },
    {
      "time": 73320,
      "track": 2,
      "noteNumber": 80,
      "velocity": 33,
      "ticks": 118
    },
    {
      "time": 73440,
      "track": 1,
      "noteNumber": 80,
      "velocity": 51,
      "ticks": 1440
    },
    {
      "time": 73440,
      "track": 2,
      "noteNumber": 49,
      "velocity": 43,
      "ticks": 720
    },
    {
      "time": 73440,
      "track": 1,
      "noteNumber": 77,
      "velocity": 51,
      "ticks": 1440
    },
    {
      "time": 73560,
      "track": 2,
      "noteNumber": 56,
      "velocity": 37,
      "ticks": 120
    },
    {
      "time": 73680,
      "track": 2,
      "noteNumber": 61,
      "velocity": 37,
      "ticks": 120
    },
    {
      "time": 73800,
      "track": 2,
      "noteNumber": 65,
      "velocity": 37,
      "ticks": 120
    },
    {
      "time": 73920,
      "track": 2,
      "noteNumber": 68,
      "velocity": 37,
      "ticks": 120
    },
    {
      "time": 74040,
      "track": 2,
      "noteNumber": 73,
      "velocity": 37,
      "ticks": 120
    },
    {
      "time": 74160,
      "track": 2,
      "noteNumber": 53,
      "velocity": 39,
      "ticks": 720
    },
    {
      "time": 74160,
      "track": 2,
      "noteNumber": 56,
      "velocity": 46,
      "ticks": 120
    },
    {
      "time": 74280,
      "track": 2,
      "noteNumber": 60,
      "velocity": 38,
      "ticks": 120
    },
    {
      "time": 74400,
      "track": 2,
      "noteNumber": 65,
      "velocity": 40,
      "ticks": 120
    },
    {
      "time": 74520,
      "track": 2,
      "noteNumber": 68,
      "velocity": 42,
      "ticks": 120
    },
    {
      "time": 74640,
      "track": 2,
      "noteNumber": 72,
      "velocity": 44,
      "ticks": 120
    },
    {
      "time": 74760,
      "track": 2,
      "noteNumber": 77,
      "velocity": 46,
      "ticks": 120
    },
    {
      "time": 74880,
      "track": 2,
      "noteNumber": 59,
      "velocity": 50,
      "ticks": 120
    },
    {
      "time": 74880,
      "track": 1,
      "noteNumber": 80,
      "velocity": 57,
      "ticks": 480
    },
    {
      "time": 74880,
      "track": 1,
      "noteNumber": 83,
      "velocity": 57,
      "ticks": 480
    },
    {
      "time": 74880,
      "track": 2,
      "noteNumber": 56,
      "velocity": 42,
      "ticks": 720
    },
    {
      "time": 75000,
      "track": 2,
      "noteNumber": 64,
      "velocity": 43,
      "ticks": 120
    },
    {
      "time": 75120,
      "track": 2,
      "noteNumber": 68,
      "velocity": 43,
      "ticks": 120
    },
    {
      "time": 75240,
      "track": 2,
      "noteNumber": 71,
      "velocity": 43,
      "ticks": 120
    },
    {
      "time": 75360,
      "track": 2,
      "noteNumber": 76,
      "velocity": 43,
      "ticks": 120
    },
    {
      "time": 75360,
      "track": 1,
      "noteNumber": 85,
      "velocity": 60,
      "ticks": 240
    },
    {
      "time": 75480,
      "track": 2,
      "noteNumber": 80,
      "velocity": 43,
      "ticks": 118
    },
    {
      "time": 75600,
      "track": 2,
      "noteNumber": 49,
      "velocity": 48,
      "ticks": 720
    },
    {
      "time": 75600,
      "track": 1,
      "noteNumber": 77,
      "velocity": 57,
      "ticks": 1440
    },
    {
      "time": 75600,
      "track": 1,
      "noteNumber": 80,
      "velocity": 57,
      "ticks": 1440
    },
    {
      "time": 75720,
      "track": 2,
      "noteNumber": 56,
      "velocity": 43,
      "ticks": 120
    },
    {
      "time": 75840,
      "track": 2,
      "noteNumber": 61,
      "velocity": 43,
      "ticks": 120
    },
    {
      "time": 75960,
      "track": 2,
      "noteNumber": 65,
      "velocity": 43,
      "ticks": 120
    },
    {
      "time": 76080,
      "track": 2,
      "noteNumber": 68,
      "velocity": 43,
      "ticks": 120
    },
    {
      "time": 76200,
      "track": 2,
      "noteNumber": 73,
      "velocity": 43,
      "ticks": 120
    },
    {
      "time": 76320,
      "track": 2,
      "noteNumber": 53,
      "velocity": 43,
      "ticks": 720
    },
    {
      "time": 76320,
      "track": 2,
      "noteNumber": 56,
      "velocity": 51,
      "ticks": 120
    },
    {
      "time": 76440,
      "track": 2,
      "noteNumber": 60,
      "velocity": 40,
      "ticks": 120
    },
    {
      "time": 76560,
      "track": 2,
      "noteNumber": 65,
      "velocity": 42,
      "ticks": 120
    },
    {
      "time": 76680,
      "track": 2,
      "noteNumber": 68,
      "velocity": 43,
      "ticks": 120
    },
    {
      "time": 76800,
      "track": 2,
      "noteNumber": 72,
      "velocity": 44,
      "ticks": 120
    },
    {
      "time": 76920,
      "track": 2,
      "noteNumber": 77,
      "velocity": 45,
      "ticks": 120
    },
    {
      "time": 77040,
      "track": 1,
      "noteNumber": 80,
      "velocity": 62,
      "ticks": 480
    },
    {
      "time": 77040,
      "track": 2,
      "noteNumber": 56,
      "velocity": 45,
      "ticks": 720
    },
    {
      "time": 77040,
      "track": 1,
      "noteNumber": 83,
      "velocity": 62,
      "ticks": 480
    },
    {
      "time": 77040,
      "track": 2,
      "noteNumber": 59,
      "velocity": 54,
      "ticks": 120
    },
    {
      "time": 77160,
      "track": 2,
      "noteNumber": 64,
      "velocity": 45,
      "ticks": 120
    },
    {
      "time": 77280,
      "track": 2,
      "noteNumber": 68,
      "velocity": 45,
      "ticks": 120
    },
    {
      "time": 77400,
      "track": 2,
      "noteNumber": 71,
      "velocity": 45,
      "ticks": 120
    },
    {
      "time": 77520,
      "track": 1,
      "noteNumber": 80,
      "velocity": 70,
      "ticks": 240
    },
    {
      "time": 77520,
      "track": 2,
      "noteNumber": 80,
      "velocity": 45,
      "ticks": 120
    },
    {
      "time": 77640,
      "track": 2,
      "noteNumber": 76,
      "velocity": 45,
      "ticks": 120
    },
    {
      "time": 77760,
      "track": 1,
      "noteNumber": 85,
      "velocity": 87,
      "ticks": 720
    },
    {
      "time": 77760,
      "track": 2,
      "noteNumber": 61,
      "velocity": 52,
      "ticks": 120
    },
    {
      "time": 77760,
      "track": 2,
      "noteNumber": 59,
      "velocity": 44,
      "ticks": 360
    },
    {
      "time": 77880,
      "track": 2,
      "noteNumber": 64,
      "velocity": 50,
      "ticks": 120
    },
    {
      "time": 78000,
      "track": 2,
      "noteNumber": 68,
      "velocity": 50,
      "ticks": 120
    },
    {
      "time": 78120,
      "track": 2,
      "noteNumber": 71,
      "velocity": 50,
      "ticks": 360
    },
    {
      "time": 78120,
      "track": 1,
      "noteNumber": 73,
      "velocity": 51,
      "ticks": 120
    },
    {
      "time": 78240,
      "track": 1,
      "noteNumber": 80,
      "velocity": 73,
      "ticks": 240
    },
    {
      "time": 78360,
      "track": 1,
      "noteNumber": 76,
      "velocity": 51,
      "ticks": 120
    },
    {
      "time": 78480,
      "track": 2,
      "noteNumber": 64,
      "velocity": 52,
      "ticks": 120
    },
    {
      "time": 78480,
      "track": 1,
      "noteNumber": 88,
      "velocity": 86,
      "ticks": 720
    },
    {
      "time": 78480,
      "track": 2,
      "noteNumber": 61,
      "velocity": 44,
      "ticks": 360
    },
    {
      "time": 78600,
      "track": 2,
      "noteNumber": 68,
      "velocity": 50,
      "ticks": 120
    },
    {
      "time": 78720,
      "track": 2,
      "noteNumber": 71,
      "velocity": 50,
      "ticks": 120
    },
    {
      "time": 78840,
      "track": 2,
      "noteNumber": 73,
      "velocity": 50,
      "ticks": 360
    },
    {
      "time": 78840,
      "track": 1,
      "noteNumber": 76,
      "velocity": 54,
      "ticks": 120
    },
    {
      "time": 78960,
      "track": 1,
      "noteNumber": 85,
      "velocity": 70,
      "ticks": 240
    },
    {
      "time": 79080,
      "track": 1,
      "noteNumber": 80,
      "velocity": 54,
      "ticks": 120
    },
    {
      "time": 79200,
      "track": 1,
      "noteNumber": 92,
      "velocity": 90,
      "ticks": 720
    },
    {
      "time": 79200,
      "track": 2,
      "noteNumber": 64,
      "velocity": 46,
      "ticks": 360
    },
    {
      "time": 79200,
      "track": 2,
      "noteNumber": 68,
      "velocity": 55,
      "ticks": 120
    },
    {
      "time": 79320,
      "track": 2,
      "noteNumber": 71,
      "velocity": 52,
      "ticks": 120
    },
    {
      "time": 79440,
      "track": 2,
      "noteNumber": 73,
      "velocity": 52,
      "ticks": 120
    },
    {
      "time": 79560,
      "track": 1,
      "noteNumber": 80,
      "velocity": 56,
      "ticks": 120
    },
    {
      "time": 79560,
      "track": 2,
      "noteNumber": 76,
      "velocity": 52,
      "ticks": 360
    },
    {
      "time": 79680,
      "track": 1,
      "noteNumber": 88,
      "velocity": 70,
      "ticks": 240
    },
    {
      "time": 79800,
      "track": 1,
      "noteNumber": 83,
      "velocity": 56,
      "ticks": 120
    },
    {
      "time": 79920,
      "track": 1,
      "noteNumber": 92,
      "velocity": 92,
      "ticks": 720
    },
    {
      "time": 79920,
      "track": 2,
      "noteNumber": 68,
      "velocity": 57,
      "ticks": 360
    },
    {
      "time": 80040,
      "track": 2,
      "noteNumber": 69,
      "velocity": 54,
      "ticks": 120
    },
    {
      "time": 80160,
      "track": 2,
      "noteNumber": 73,
      "velocity": 54,
      "ticks": 120
    },
    {
      "time": 80280,
      "track": 1,
      "noteNumber": 80,
      "velocity": 56,
      "ticks": 120
    },
    {
      "time": 80400,
      "track": 1,
      "noteNumber": 85,
      "velocity": 56,
      "ticks": 120
    },
    {
      "time": 80520,
      "track": 1,
      "noteNumber": 81,
      "velocity": 56,
      "ticks": 120
    },
    {
      "time": 80640,
      "track": 1,
      "noteNumber": 90,
      "velocity": 91,
      "ticks": 1440
    },
    {
      "time": 80640,
      "track": 2,
      "noteNumber": 66,
      "velocity": 56,
      "ticks": 360
    },
    {
      "time": 80760,
      "track": 2,
      "noteNumber": 69,
      "velocity": 52,
      "ticks": 120
    },
    {
      "time": 80880,
      "track": 2,
      "noteNumber": 73,
      "velocity": 52,
      "ticks": 120
    },
    {
      "time": 81000,
      "track": 1,
      "noteNumber": 78,
      "velocity": 52,
      "ticks": 120
    },
    {
      "time": 81120,
      "track": 1,
      "noteNumber": 85,
      "velocity": 52,
      "ticks": 120
    },
    {
      "time": 81240,
      "track": 1,
      "noteNumber": 81,
      "velocity": 52,
      "ticks": 120
    },
    {
      "time": 81360,
      "track": 2,
      "noteNumber": 65,
      "velocity": 47,
      "ticks": 360
    },
    {
      "time": 81360,
      "track": 2,
      "noteNumber": 66,
      "velocity": 56,
      "ticks": 120
    },
    {
      "time": 81480,
      "track": 2,
      "noteNumber": 69,
      "velocity": 52,
      "ticks": 120
    },
    {
      "time": 81600,
      "track": 2,
      "noteNumber": 73,
      "velocity": 52,
      "ticks": 120
    },
    {
      "time": 81720,
      "track": 1,
      "noteNumber": 78,
      "velocity": 52,
      "ticks": 120
    },
    {
      "time": 81840,
      "track": 1,
      "noteNumber": 85,
      "velocity": 52,
      "ticks": 120
    },
    {
      "time": 81960,
      "track": 1,
      "noteNumber": 81,
      "velocity": 52,
      "ticks": 120
    },
    {
      "time": 82080,
      "track": 1,
      "noteNumber": 90,
      "velocity": 91,
      "ticks": 1440
    },
    {
      "time": 82080,
      "track": 2,
      "noteNumber": 64,
      "velocity": 56,
      "ticks": 360
    },
    {
      "time": 82200,
      "track": 2,
      "noteNumber": 66,
      "velocity": 52,
      "ticks": 120
    },
    {
      "time": 82320,
      "track": 2,
      "noteNumber": 69,
      "velocity": 52,
      "ticks": 120
    },
    {
      "time": 82440,
      "track": 1,
      "noteNumber": 78,
      "velocity": 52,
      "ticks": 120
    },
    {
      "time": 82560,
      "track": 1,
      "noteNumber": 85,
      "velocity": 52,
      "ticks": 120
    },
    {
      "time": 82680,
      "track": 1,
      "noteNumber": 81,
      "velocity": 52,
      "ticks": 120
    },
    {
      "time": 82800,
      "track": 2,
      "noteNumber": 63,
      "velocity": 47,
      "ticks": 360
    },
    {
      "time": 82800,
      "track": 2,
      "noteNumber": 66,
      "velocity": 56,
      "ticks": 120
    },
    {
      "time": 82920,
      "track": 2,
      "noteNumber": 69,
      "velocity": 52,
      "ticks": 120
    },
    {
      "time": 83040,
      "track": 2,
      "noteNumber": 73,
      "velocity": 52,
      "ticks": 120
    },
    {
      "time": 83160,
      "track": 1,
      "noteNumber": 78,
      "velocity": 52,
      "ticks": 120
    },
    {
      "time": 83280,
      "track": 1,
      "noteNumber": 85,
      "velocity": 52,
      "ticks": 120
    },
    {
      "time": 83400,
      "track": 1,
      "noteNumber": 81,
      "velocity": 52,
      "ticks": 120
    },
    {
      "time": 83520,
      "track": 2,
      "noteNumber": 61,
      "velocity": 47,
      "ticks": 360
    },
    {
      "time": 83520,
      "track": 2,
      "noteNumber": 64,
      "velocity": 56,
      "ticks": 120
    },
    {
      "time": 83520,
      "track": 1,
      "noteNumber": 93,
      "velocity": 91,
      "ticks": 480
    },
    {
      "time": 83640,
      "track": 2,
      "noteNumber": 69,
      "velocity": 52,
      "ticks": 120
    },
    {
      "time": 83760,
      "track": 2,
      "noteNumber": 73,
      "velocity": 52,
      "ticks": 120
    },
    {
      "time": 83880,
      "track": 2,
      "noteNumber": 76,
      "velocity": 52,
      "ticks": 120
    },
    {
      "time": 84000,
      "track": 1,
      "noteNumber": 97,
      "velocity": 91,
      "ticks": 240
    },
    {
      "time": 84120,
      "track": 1,
      "noteNumber": 85,
      "velocity": 52,
      "ticks": 120
    },
    {
      "time": 84240,
      "track": 2,
      "noteNumber": 59,
      "velocity": 56,
      "ticks": 360
    },
    {
      "time": 84240,
      "track": 1,
      "noteNumber": 78,
      "velocity": 82,
      "ticks": 1440
    },
    {
      "time": 84360,
      "track": 2,
      "noteNumber": 63,
      "velocity": 52,
      "ticks": 120
    },
    {
      "time": 84480,
      "track": 2,
      "noteNumber": 66,
      "velocity": 52,
      "ticks": 120
    },
    {
      "time": 84600,
      "track": 1,
      "noteNumber": 66,
      "velocity": 52,
      "ticks": 120
    },
    {
      "time": 84720,
      "track": 1,
      "noteNumber": 73,
      "velocity": 52,
      "ticks": 120
    },
    {
      "time": 84840,
      "track": 1,
      "noteNumber": 69,
      "velocity": 52,
      "ticks": 120
    },
    {
      "time": 84960,
      "track": 2,
      "noteNumber": 57,
      "velocity": 56,
      "ticks": 360
    },
    {
      "time": 85080,
      "track": 2,
      "noteNumber": 61,
      "velocity": 52,
      "ticks": 120
    },
    {
      "time": 85200,
      "track": 2,
      "noteNumber": 64,
      "velocity": 52,
      "ticks": 120
    },
    {
      "time": 85320,
      "track": 1,
      "noteNumber": 66,
      "velocity": 52,
      "ticks": 120
    },
    {
      "time": 85440,
      "track": 1,
      "noteNumber": 73,
      "velocity": 52,
      "ticks": 120
    },
    {
      "time": 85560,
      "track": 1,
      "noteNumber": 69,
      "velocity": 52,
      "ticks": 120
    },
    {
      "time": 85680,
      "track": 1,
      "noteNumber": 81,
      "velocity": 84,
      "ticks": 480
    },
    {
      "time": 85680,
      "track": 2,
      "noteNumber": 56,
      "velocity": 56,
      "ticks": 360
    },
    {
      "time": 85800,
      "track": 2,
      "noteNumber": 61,
      "velocity": 52,
      "ticks": 120
    },
    {
      "time": 85920,
      "track": 2,
      "noteNumber": 64,
      "velocity": 52,
      "ticks": 120
    },
    {
      "time": 86040,
      "track": 2,
      "noteNumber": 69,
      "velocity": 52,
      "ticks": 120
    },
    {
      "time": 86160,
      "track": 1,
      "noteNumber": 76,
      "velocity": 52,
      "ticks": 120
    },
    {
      "time": 86160,
      "track": 1,
      "noteNumber": 85,
      "velocity": 79,
      "ticks": 240
    },
    {
      "time": 86280,
      "track": 1,
      "noteNumber": 81,
      "velocity": 52,
      "ticks": 120
    },
    {
      "time": 86400,
      "track": 2,
      "noteNumber": 54,
      "velocity": 56,
      "ticks": 2160
    },
    {
      "time": 86400,
      "track": 1,
      "noteNumber": 88,
      "velocity": 79,
      "ticks": 240
    },
    {
      "time": 86400,
      "track": 1,
      "noteNumber": 85,
      "velocity": 79,
      "ticks": 240
    },
    {
      "time": 86520,
      "track": 2,
      "noteNumber": 61,
      "velocity": 43,
      "ticks": 120
    },
    {
      "time": 86640,
      "track": 2,
      "noteNumber": 64,
      "velocity": 45,
      "ticks": 120
    },
    {
      "time": 86640,
      "track": 1,
      "noteNumber": 87,
      "velocity": 69,
      "ticks": 240
    },
    {
      "time": 86640,
      "track": 1,
      "noteNumber": 83,
      "velocity": 69,
      "ticks": 240
    },
    {
      "time": 86760,
      "track": 2,
      "noteNumber": 66,
      "velocity": 46,
      "ticks": 120
    },
    {
      "time": 86880,
      "track": 1,
      "noteNumber": 85,
      "velocity": 69,
      "ticks": 240
    },
    {
      "time": 86880,
      "track": 2,
      "noteNumber": 69,
      "velocity": 49,
      "ticks": 120
    },
    {
      "time": 86880,
      "track": 1,
      "noteNumber": 81,
      "velocity": 69,
      "ticks": 240
    },
    {
      "time": 87000,
      "track": 2,
      "noteNumber": 73,
      "velocity": 50,
      "ticks": 120
    },
    {
      "time": 87120,
      "track": 1,
      "noteNumber": 83,
      "velocity": 74,
      "ticks": 360
    },
    {
      "time": 87120,
      "track": 1,
      "noteNumber": 80,
      "velocity": 74,
      "ticks": 360
    },
    {
      "time": 87120,
      "track": 2,
      "noteNumber": 76,
      "velocity": 50,
      "ticks": 120
    },
    {
      "time": 87240,
      "track": 2,
      "noteNumber": 78,
      "velocity": 50,
      "ticks": 120
    },
    {
      "time": 87360,
      "track": 2,
      "noteNumber": 76,
      "velocity": 49,
      "ticks": 120
    },
    {
      "time": 87480,
      "track": 1,
      "noteNumber": 81,
      "velocity": 67,
      "ticks": 600
    },
    {
      "time": 87480,
      "track": 2,
      "noteNumber": 73,
      "velocity": 48,
      "ticks": 120
    },
    {
      "time": 87480,
      "track": 1,
      "noteNumber": 78,
      "velocity": 67,
      "ticks": 600
    },
    {
      "time": 87600,
      "track": 2,
      "noteNumber": 69,
      "velocity": 46,
      "ticks": 120
    },
    {
      "time": 87720,
      "track": 2,
      "noteNumber": 66,
      "velocity": 46,
      "ticks": 120
    },
    {
      "time": 87840,
      "track": 2,
      "noteNumber": 64,
      "velocity": 43,
      "ticks": 120
    },
    {
      "time": 87960,
      "track": 2,
      "noteNumber": 66,
      "velocity": 42,
      "ticks": 120
    },
    {
      "time": 88080,
      "track": 2,
      "noteNumber": 64,
      "velocity": 40,
      "ticks": 120
    },
    {
      "time": 88080,
      "track": 1,
      "noteNumber": 76,
      "velocity": 60,
      "ticks": 240
    },
    {
      "time": 88080,
      "track": 1,
      "noteNumber": 80,
      "velocity": 60,
      "ticks": 240
    },
    {
      "time": 88200,
      "track": 2,
      "noteNumber": 61,
      "velocity": 39,
      "ticks": 120
    },
    {
      "time": 88320,
      "track": 2,
      "noteNumber": 57,
      "velocity": 38,
      "ticks": 120
    },
    {
      "time": 88320,
      "track": 1,
      "noteNumber": 75,
      "velocity": 60,
      "ticks": 240
    },
    {
      "time": 88320,
      "track": 1,
      "noteNumber": 78,
      "velocity": 60,
      "ticks": 240
    },
    {
      "time": 88440,
      "track": 2,
      "noteNumber": 54,
      "velocity": 37,
      "ticks": 120
    },
    {
      "time": 88560,
      "track": 1,
      "noteNumber": 73,
      "velocity": 62,
      "ticks": 240
    },
    {
      "time": 88560,
      "track": 1,
      "noteNumber": 76,
      "velocity": 62,
      "ticks": 240
    },
    {
      "time": 88560,
      "track": 2,
      "noteNumber": 42,
      "velocity": 43,
      "ticks": 120
    },
    {
      "time": 88680,
      "track": 2,
      "noteNumber": 49,
      "velocity": 38,
      "ticks": 120
    },
    {
      "time": 88800,
      "track": 2,
      "noteNumber": 52,
      "velocity": 39,
      "ticks": 120
    },
    {
      "time": 88800,
      "track": 1,
      "noteNumber": 75,
      "velocity": 58,
      "ticks": 240
    },
    {
      "time": 88800,
      "track": 1,
      "noteNumber": 71,
      "velocity": 58,
      "ticks": 240
    },
    {
      "time": 88920,
      "track": 2,
      "noteNumber": 54,
      "velocity": 40,
      "ticks": 120
    },
    {
      "time": 89040,
      "track": 1,
      "noteNumber": 69,
      "velocity": 56,
      "ticks": 240
    },
    {
      "time": 89040,
      "track": 2,
      "noteNumber": 57,
      "velocity": 42,
      "ticks": 120
    },
    {
      "time": 89040,
      "track": 1,
      "noteNumber": 73,
      "velocity": 56,
      "ticks": 240
    },
    {
      "time": 89160,
      "track": 2,
      "noteNumber": 61,
      "velocity": 43,
      "ticks": 120
    },
    {
      "time": 89280,
      "track": 1,
      "noteNumber": 68,
      "velocity": 57,
      "ticks": 240
    },
    {
      "time": 89280,
      "track": 1,
      "noteNumber": 71,
      "velocity": 57,
      "ticks": 240
    },
    {
      "time": 89280,
      "track": 2,
      "noteNumber": 64,
      "velocity": 42,
      "ticks": 120
    },
    {
      "time": 89400,
      "track": 2,
      "noteNumber": 61,
      "velocity": 42,
      "ticks": 120
    },
    {
      "time": 89520,
      "track": 1,
      "noteNumber": 69,
      "velocity": 52,
      "ticks": 240
    },
    {
      "time": 89520,
      "track": 1,
      "noteNumber": 66,
      "velocity": 52,
      "ticks": 240
    },
    {
      "time": 89520,
      "track": 2,
      "noteNumber": 57,
      "velocity": 40,
      "ticks": 120
    },
    {
      "time": 89640,
      "track": 2,
      "noteNumber": 54,
      "velocity": 40,
      "ticks": 120
    },
    {
      "time": 89760,
      "track": 1,
      "noteNumber": 64,
      "velocity": 49,
      "ticks": 480
    },
    {
      "time": 89760,
      "track": 1,
      "noteNumber": 68,
      "velocity": 49,
      "ticks": 480
    },
    {
      "time": 89760,
      "track": 2,
      "noteNumber": 52,
      "velocity": 39,
      "ticks": 120
    },
    {
      "time": 89880,
      "track": 2,
      "noteNumber": 49,
      "velocity": 38,
      "ticks": 120
    },
    {
      "time": 90000,
      "track": 1,
      "noteNumber": 57,
      "velocity": 46,
      "ticks": 720
    },
    {
      "time": 90000,
      "track": 2,
      "noteNumber": 42,
      "velocity": 37,
      "ticks": 120
    },
    {
      "time": 90120,
      "track": 2,
      "noteNumber": 49,
      "velocity": 34,
      "ticks": 120
    },
    {
      "time": 90240,
      "track": 2,
      "noteNumber": 42,
      "velocity": 37,
      "ticks": 120
    },
    {
      "time": 90240,
      "track": 1,
      "noteNumber": 66,
      "velocity": 43,
      "ticks": 240
    },
    {
      "time": 90240,
      "track": 1,
      "noteNumber": 63,
      "velocity": 43,
      "ticks": 240
    },
    {
      "time": 90360,
      "track": 2,
      "noteNumber": 49,
      "velocity": 34,
      "ticks": 120
    },
    {
      "time": 90480,
      "track": 2,
      "noteNumber": 42,
      "velocity": 37,
      "ticks": 120
    },
    {
      "time": 90480,
      "track": 1,
      "noteNumber": 64,
      "velocity": 40,
      "ticks": 240
    },
    {
      "time": 90480,
      "track": 1,
      "noteNumber": 61,
      "velocity": 40,
      "ticks": 240
    },
    {
      "time": 90600,
      "track": 2,
      "noteNumber": 49,
      "velocity": 34,
      "ticks": 120
    },
    {
      "time": 90720,
      "track": 2,
      "noteNumber": 44,
      "velocity": 32,
      "ticks": 120
    },
    {
      "time": 90720,
      "track": 1,
      "noteNumber": 63,
      "velocity": 40,
      "ticks": 1440
    },
    {
      "time": 90720,
      "track": 1,
      "noteNumber": 54,
      "velocity": 37,
      "ticks": 480
    },
    {
      "time": 90720,
      "track": 1,
      "noteNumber": 61,
      "velocity": 37,
      "ticks": 1440
    },
    {
      "time": 90840,
      "track": 2,
      "noteNumber": 51,
      "velocity": 31,
      "ticks": 120
    },
    {
      "time": 90960,
      "track": 2,
      "noteNumber": 44,
      "velocity": 33,
      "ticks": 120
    },
    {
      "time": 91080,
      "track": 2,
      "noteNumber": 51,
      "velocity": 31,
      "ticks": 120
    },
    {
      "time": 91200,
      "track": 1,
      "noteNumber": 56,
      "velocity": 36,
      "ticks": 240
    },
    {
      "time": 91200,
      "track": 2,
      "noteNumber": 44,
      "velocity": 33,
      "ticks": 120
    },
    {
      "time": 91320,
      "track": 2,
      "noteNumber": 51,
      "velocity": 32,
      "ticks": 120
    },
    {
      "time": 91440,
      "track": 2,
      "noteNumber": 44,
      "velocity": 34,
      "ticks": 120
    },
    {
      "time": 91440,
      "track": 1,
      "noteNumber": 58,
      "velocity": 38,
      "ticks": 480
    },
    {
      "time": 91560,
      "track": 2,
      "noteNumber": 51,
      "velocity": 32,
      "ticks": 120
    },
    {
      "time": 91680,
      "track": 2,
      "noteNumber": 44,
      "velocity": 34,
      "ticks": 120
    },
    {
      "time": 91800,
      "track": 2,
      "noteNumber": 51,
      "velocity": 34,
      "ticks": 120
    },
    {
      "time": 91920,
      "track": 2,
      "noteNumber": 44,
      "velocity": 36,
      "ticks": 120
    },
    {
      "time": 91920,
      "track": 1,
      "noteNumber": 61,
      "velocity": 37,
      "ticks": 240
    },
    {
      "time": 92040,
      "track": 2,
      "noteNumber": 51,
      "velocity": 34,
      "ticks": 120
    },
    {
      "time": 92160,
      "track": 2,
      "noteNumber": 44,
      "velocity": 33,
      "ticks": 120
    },
    {
      "time": 92160,
      "track": 1,
      "noteNumber": 63,
      "velocity": 37,
      "ticks": 480
    },
    {
      "time": 92160,
      "track": 1,
      "noteNumber": 60,
      "velocity": 37,
      "ticks": 720
    },
    {
      "time": 92160,
      "track": 1,
      "noteNumber": 66,
      "velocity": 44,
      "ticks": 480
    },
    {
      "time": 92280,
      "track": 2,
      "noteNumber": 51,
      "velocity": 31,
      "ticks": 120
    },
    {
      "time": 92400,
      "track": 2,
      "noteNumber": 44,
      "velocity": 33,
      "ticks": 120
    },
    {
      "time": 92520,
      "track": 2,
      "noteNumber": 51,
      "velocity": 31,
      "ticks": 120
    },
    {
      "time": 92640,
      "track": 1,
      "noteNumber": 70,
      "velocity": 44,
      "ticks": 240
    },
    {
      "time": 92640,
      "track": 1,
      "noteNumber": 63,
      "velocity": 40,
      "ticks": 240
    },
    {
      "time": 92640,
      "track": 1,
      "noteNumber": 66,
      "velocity": 37,
      "ticks": 240
    },
    {
      "time": 92640,
      "track": 2,
      "noteNumber": 44,
      "velocity": 33,
      "ticks": 120
    },
    {
      "time": 92760,
      "track": 2,
      "noteNumber": 51,
      "velocity": 31,
      "ticks": 120
    },
    {
      "time": 92880,
      "track": 1,
      "noteNumber": 61,
      "velocity": 37,
      "ticks": 1440
    },
    {
      "time": 92880,
      "track": 1,
      "noteNumber": 54,
      "velocity": 37,
      "ticks": 480
    },
    {
      "time": 92880,
      "track": 1,
      "noteNumber": 63,
      "velocity": 40,
      "ticks": 1440
    },
    {
      "time": 92880,
      "track": 2,
      "noteNumber": 44,
      "velocity": 32,
      "ticks": 120
    },
    {
      "time": 93000,
      "track": 2,
      "noteNumber": 51,
      "velocity": 31,
      "ticks": 120
    },
    {
      "time": 93120,
      "track": 2,
      "noteNumber": 44,
      "velocity": 33,
      "ticks": 120
    },
    {
      "time": 93240,
      "track": 2,
      "noteNumber": 51,
      "velocity": 31,
      "ticks": 120
    },
    {
      "time": 93360,
      "track": 2,
      "noteNumber": 44,
      "velocity": 33,
      "ticks": 120
    },
    {
      "time": 93360,
      "track": 1,
      "noteNumber": 56,
      "velocity": 34,
      "ticks": 240
    },
    {
      "time": 93480,
      "track": 2,
      "noteNumber": 51,
      "velocity": 32,
      "ticks": 120
    },
    {
      "time": 93600,
      "track": 1,
      "noteNumber": 58,
      "velocity": 38,
      "ticks": 480
    },
    {
      "time": 93600,
      "track": 2,
      "noteNumber": 44,
      "velocity": 34,
      "ticks": 120
    },
    {
      "time": 93720,
      "track": 2,
      "noteNumber": 51,
      "velocity": 32,
      "ticks": 120
    },
    {
      "time": 93840,
      "track": 2,
      "noteNumber": 44,
      "velocity": 34,
      "ticks": 120
    },
    {
      "time": 93960,
      "track": 2,
      "noteNumber": 51,
      "velocity": 33,
      "ticks": 120
    },
    {
      "time": 94080,
      "track": 1,
      "noteNumber": 61,
      "velocity": 37,
      "ticks": 240
    },
    {
      "time": 94080,
      "track": 2,
      "noteNumber": 44,
      "velocity": 36,
      "ticks": 120
    },
    {
      "time": 94200,
      "track": 2,
      "noteNumber": 51,
      "velocity": 34,
      "ticks": 120
    },
    {
      "time": 94320,
      "track": 1,
      "noteNumber": 60,
      "velocity": 37,
      "ticks": 720
    },
    {
      "time": 94320,
      "track": 1,
      "noteNumber": 66,
      "velocity": 40,
      "ticks": 480
    },
    {
      "time": 94320,
      "track": 2,
      "noteNumber": 44,
      "velocity": 33,
      "ticks": 120
    },
    {
      "time": 94320,
      "track": 1,
      "noteNumber": 63,
      "velocity": 37,
      "ticks": 480
    },
    {
      "time": 94440,
      "track": 2,
      "noteNumber": 51,
      "velocity": 31,
      "ticks": 120
    },
    {
      "time": 94560,
      "track": 2,
      "noteNumber": 44,
      "velocity": 33,
      "ticks": 120
    },
    {
      "time": 94680,
      "track": 2,
      "noteNumber": 51,
      "velocity": 31,
      "ticks": 120
    },
    {
      "time": 94800,
      "track": 2,
      "noteNumber": 44,
      "velocity": 33,
      "ticks": 120
    },
    {
      "time": 94800,
      "track": 1,
      "noteNumber": 70,
      "velocity": 39,
      "ticks": 460
    },
    {
      "time": 94800,
      "track": 1,
      "noteNumber": 63,
      "velocity": 36,
      "ticks": 240
    },
    {
      "time": 94800,
      "track": 1,
      "noteNumber": 66,
      "velocity": 36,
      "ticks": 460
    },
    {
      "time": 94920,
      "track": 2,
      "noteNumber": 51,
      "velocity": 31,
      "ticks": 120
    },
    {
      "time": 95040,
      "track": 2,
      "noteNumber": 44,
      "velocity": 37,
      "ticks": 120
    },
    {
      "time": 95040,
      "track": 1,
      "noteNumber": 61,
      "velocity": 34,
      "ticks": 220
    },
    {
      "time": 95160,
      "track": 2,
      "noteNumber": 39,
      "velocity": 33,
      "ticks": 120
    },
    {
      "time": 95280,
      "track": 2,
      "noteNumber": 44,
      "velocity": 37,
      "ticks": 120
    },
    {
      "time": 95280,
      "track": 1,
      "noteNumber": 68,
      "velocity": 39,
      "ticks": 240
    },
    {
      "time": 95280,
      "track": 1,
      "noteNumber": 77,
      "velocity": 42,
      "ticks": 240
    },
    {
      "time": 95280,
      "track": 1,
      "noteNumber": 72,
      "velocity": 39,
      "ticks": 240
    },
    {
      "time": 95400,
      "track": 2,
      "noteNumber": 51,
      "velocity": 36,
      "ticks": 120
    },
    {
      "time": 95520,
      "track": 2,
      "noteNumber": 44,
      "velocity": 37,
      "ticks": 120
    },
    {
      "time": 95520,
      "track": 1,
      "noteNumber": 70,
      "velocity": 38,
      "ticks": 240
    },
    {
      "time": 95520,
      "track": 1,
      "noteNumber": 75,
      "velocity": 41,
      "ticks": 240
    },
    {
      "time": 95520,
      "track": 1,
      "noteNumber": 66,
      "velocity": 38,
      "ticks": 240
    },
    {
      "time": 95640,
      "track": 2,
      "noteNumber": 51,
      "velocity": 36,
      "ticks": 120
    },
    {
      "time": 95760,
      "track": 2,
      "noteNumber": 56,
      "velocity": 39,
      "ticks": 120
    },
    {
      "time": 95760,
      "track": 1,
      "noteNumber": 61,
      "velocity": 36,
      "ticks": 240
    },
    {
      "time": 95760,
      "track": 1,
      "noteNumber": 66,
      "velocity": 36,
      "ticks": 720
    },
    {
      "time": 95760,
      "track": 1,
      "noteNumber": 70,
      "velocity": 39,
      "ticks": 720
    },
    {
      "time": 95880,
      "track": 2,
      "noteNumber": 51,
      "velocity": 34,
      "ticks": 120
    },
    {
      "time": 96000,
      "track": 2,
      "noteNumber": 56,
      "velocity": 37,
      "ticks": 120
    },
    {
      "time": 96000,
      "track": 1,
      "noteNumber": 58,
      "velocity": 34,
      "ticks": 240
    },
    {
      "time": 96120,
      "track": 2,
      "noteNumber": 63,
      "velocity": 34,
      "ticks": 120
    },
    {
      "time": 96240,
      "track": 1,
      "noteNumber": 61,
      "velocity": 34,
      "ticks": 240
    },
    {
      "time": 96240,
      "track": 2,
      "noteNumber": 56,
      "velocity": 36,
      "ticks": 120
    },
    {
      "time": 96360,
      "track": 2,
      "noteNumber": 51,
      "velocity": 34,
      "ticks": 120
    },
    {
      "time": 96480,
      "track": 1,
      "noteNumber": 66,
      "velocity": 33,
      "ticks": 720
    },
    {
      "time": 96480,
      "track": 1,
      "noteNumber": 68,
      "velocity": 36,
      "ticks": 720
    },
    {
      "time": 96480,
      "track": 1,
      "noteNumber": 58,
      "velocity": 31,
      "ticks": 240
    },
    {
      "time": 96480,
      "track": 2,
      "noteNumber": 56,
      "velocity": 37,
      "ticks": 120
    },
    {
      "time": 96600,
      "track": 2,
      "noteNumber": 51,
      "velocity": 34,
      "ticks": 120
    },
    {
      "time": 96720,
      "track": 1,
      "noteNumber": 60,
      "velocity": 34,
      "ticks": 240
    },
    {
      "time": 96720,
      "track": 2,
      "noteNumber": 44,
      "velocity": 34,
      "ticks": 120
    },
    {
      "time": 96840,
      "track": 2,
      "noteNumber": 51,
      "velocity": 33,
      "ticks": 120
    },
    {
      "time": 96960,
      "track": 1,
      "noteNumber": 63,
      "velocity": 34,
      "ticks": 240
    },
    {
      "time": 96960,
      "track": 2,
      "noteNumber": 44,
      "velocity": 34,
      "ticks": 120
    },
    {
      "time": 97080,
      "track": 2,
      "noteNumber": 39,
      "velocity": 33,
      "ticks": 120
    },
    {
      "time": 97200,
      "track": 1,
      "noteNumber": 70,
      "velocity": 34,
      "ticks": 220
    },
    {
      "time": 97200,
      "track": 1,
      "noteNumber": 61,
      "velocity": 34,
      "ticks": 220
    },
    {
      "time": 97200,
      "track": 1,
      "noteNumber": 66,
      "velocity": 34,
      "ticks": 220
    },
    {
      "time": 97200,
      "track": 2,
      "noteNumber": 44,
      "velocity": 37,
      "ticks": 120
    },
    {
      "time": 97320,
      "track": 2,
      "noteNumber": 39,
      "velocity": 33,
      "ticks": 120
    },
    {
      "time": 97440,
      "track": 1,
      "noteNumber": 68,
      "velocity": 39,
      "ticks": 240
    },
    {
      "time": 97440,
      "track": 2,
      "noteNumber": 44,
      "velocity": 37,
      "ticks": 120
    },
    {
      "time": 97440,
      "track": 1,
      "noteNumber": 77,
      "velocity": 42,
      "ticks": 240
    },
    {
      "time": 97440,
      "track": 1,
      "noteNumber": 72,
      "velocity": 39,
      "ticks": 240
    },
    {
      "time": 97560,
      "track": 2,
      "noteNumber": 51,
      "velocity": 36,
      "ticks": 120
    },
    {
      "time": 97680,
      "track": 1,
      "noteNumber": 70,
      "velocity": 38,
      "ticks": 240
    },
    {
      "time": 97680,
      "track": 2,
      "noteNumber": 44,
      "velocity": 37,
      "ticks": 120
    },
    {
      "time": 97680,
      "track": 1,
      "noteNumber": 66,
      "velocity": 38,
      "ticks": 240
    },
    {
      "time": 97680,
      "track": 1,
      "noteNumber": 75,
      "velocity": 41,
      "ticks": 240
    },
    {
      "time": 97800,
      "track": 2,
      "noteNumber": 51,
      "velocity": 36,
      "ticks": 120
    },
    {
      "time": 97920,
      "track": 1,
      "noteNumber": 66,
      "velocity": 36,
      "ticks": 720
    },
    {
      "time": 97920,
      "track": 2,
      "noteNumber": 56,
      "velocity": 39,
      "ticks": 120
    },
    {
      "time": 97920,
      "track": 1,
      "noteNumber": 70,
      "velocity": 39,
      "ticks": 720
    },
    {
      "time": 97920,
      "track": 1,
      "noteNumber": 61,
      "velocity": 36,
      "ticks": 240
    },
    {
      "time": 98040,
      "track": 2,
      "noteNumber": 51,
      "velocity": 34,
      "ticks": 120
    },
    {
      "time": 98160,
      "track": 2,
      "noteNumber": 56,
      "velocity": 37,
      "ticks": 120
    },
    {
      "time": 98160,
      "track": 1,
      "noteNumber": 58,
      "velocity": 34,
      "ticks": 240
    },
    {
      "time": 98280,
      "track": 2,
      "noteNumber": 63,
      "velocity": 34,
      "ticks": 120
    },
    {
      "time": 98400,
      "track": 2,
      "noteNumber": 56,
      "velocity": 36,
      "ticks": 120
    },
    {
      "time": 98400,
      "track": 1,
      "noteNumber": 61,
      "velocity": 34,
      "ticks": 240
    },
    {
      "time": 98520,
      "track": 2,
      "noteNumber": 51,
      "velocity": 34,
      "ticks": 120
    },
    {
      "time": 98640,
      "track": 2,
      "noteNumber": 56,
      "velocity": 37,
      "ticks": 120
    },
    {
      "time": 98640,
      "track": 1,
      "noteNumber": 58,
      "velocity": 31,
      "ticks": 240
    },
    {
      "time": 98640,
      "track": 1,
      "noteNumber": 68,
      "velocity": 36,
      "ticks": 720
    },
    {
      "time": 98640,
      "track": 1,
      "noteNumber": 66,
      "velocity": 33,
      "ticks": 720
    },
    {
      "time": 98760,
      "track": 2,
      "noteNumber": 51,
      "velocity": 37,
      "ticks": 120
    },
    {
      "time": 98880,
      "track": 1,
      "noteNumber": 60,
      "velocity": 34,
      "ticks": 240
    },
    {
      "time": 98880,
      "track": 2,
      "noteNumber": 56,
      "velocity": 34,
      "ticks": 120
    },
    {
      "time": 99000,
      "track": 2,
      "noteNumber": 51,
      "velocity": 33,
      "ticks": 120
    },
    {
      "time": 99120,
      "track": 1,
      "noteNumber": 63,
      "velocity": 34,
      "ticks": 240
    },
    {
      "time": 99120,
      "track": 2,
      "noteNumber": 56,
      "velocity": 34,
      "ticks": 120
    },
    {
      "time": 99240,
      "track": 2,
      "noteNumber": 51,
      "velocity": 33,
      "ticks": 120
    },
    {
      "time": 99360,
      "track": 2,
      "noteNumber": 54,
      "velocity": 40,
      "ticks": 480
    },
    {
      "time": 99360,
      "track": 2,
      "noteNumber": 61,
      "velocity": 40,
      "ticks": 1440
    },
    {
      "time": 99360,
      "track": 1,
      "noteNumber": 75,
      "velocity": 48,
      "ticks": 1440
    },
    {
      "time": 99480,
      "track": 1,
      "noteNumber": 63,
      "velocity": 32,
      "ticks": 120
    },
    {
      "time": 99600,
      "track": 1,
      "noteNumber": 66,
      "velocity": 34,
      "ticks": 120
    },
    {
      "time": 99720,
      "track": 1,
      "noteNumber": 70,
      "velocity": 32,
      "ticks": 120
    },
    {
      "time": 99840,
      "track": 2,
      "noteNumber": 56,
      "velocity": 39,
      "ticks": 240
    },
    {
      "time": 99840,
      "track": 1,
      "noteNumber": 66,
      "velocity": 34,
      "ticks": 120
    },
    {
      "time": 99960,
      "track": 1,
      "noteNumber": 63,
      "velocity": 32,
      "ticks": 120
    },
    {
      "time": 100080,
      "track": 2,
      "noteNumber": 58,
      "velocity": 42,
      "ticks": 480
    },
    {
      "time": 100200,
      "track": 1,
      "noteNumber": 63,
      "velocity": 32,
      "ticks": 120
    },
    {
      "time": 100320,
      "track": 1,
      "noteNumber": 66,
      "velocity": 36,
      "ticks": 120
    },
    {
      "time": 100440,
      "track": 1,
      "noteNumber": 70,
      "velocity": 32,
      "ticks": 120
    },
    {
      "time": 100560,
      "track": 1,
      "noteNumber": 66,
      "velocity": 36,
      "ticks": 120
    },
    {
      "time": 100560,
      "track": 2,
      "noteNumber": 61,
      "velocity": 40,
      "ticks": 240
    },
    {
      "time": 100680,
      "track": 1,
      "noteNumber": 63,
      "velocity": 32,
      "ticks": 120
    },
    {
      "time": 100800,
      "track": 1,
      "noteNumber": 78,
      "velocity": 53,
      "ticks": 480
    },
    {
      "time": 100800,
      "track": 2,
      "noteNumber": 60,
      "velocity": 40,
      "ticks": 720
    },
    {
      "time": 100920,
      "track": 2,
      "noteNumber": 63,
      "velocity": 30,
      "ticks": 120
    },
    {
      "time": 101040,
      "track": 2,
      "noteNumber": 66,
      "velocity": 30,
      "ticks": 120
    },
    {
      "time": 101160,
      "track": 2,
      "noteNumber": 70,
      "velocity": 30,
      "ticks": 120
    },
    {
      "time": 101280,
      "track": 1,
      "noteNumber": 82,
      "velocity": 50,
      "ticks": 240
    },
    {
      "time": 101280,
      "track": 1,
      "noteNumber": 72,
      "velocity": 30,
      "ticks": 120
    },
    {
      "time": 101400,
      "track": 1,
      "noteNumber": 75,
      "velocity": 32,
      "ticks": 120
    },
    {
      "time": 101520,
      "track": 2,
      "noteNumber": 54,
      "velocity": 40,
      "ticks": 480
    },
    {
      "time": 101520,
      "track": 2,
      "noteNumber": 61,
      "velocity": 40,
      "ticks": 1440
    },
    {
      "time": 101520,
      "track": 1,
      "noteNumber": 75,
      "velocity": 48,
      "ticks": 1440
    },
    {
      "time": 101640,
      "track": 1,
      "noteNumber": 63,
      "velocity": 32,
      "ticks": 120
    },
    {
      "time": 101760,
      "track": 1,
      "noteNumber": 66,
      "velocity": 34,
      "ticks": 120
    },
    {
      "time": 101880,
      "track": 1,
      "noteNumber": 70,
      "velocity": 32,
      "ticks": 120
    },
    {
      "time": 102000,
      "track": 2,
      "noteNumber": 56,
      "velocity": 39,
      "ticks": 240
    },
    {
      "time": 102000,
      "track": 1,
      "noteNumber": 66,
      "velocity": 34,
      "ticks": 120
    },
    {
      "time": 102120,
      "track": 1,
      "noteNumber": 63,
      "velocity": 32,
      "ticks": 120
    },
    {
      "time": 102240,
      "track": 2,
      "noteNumber": 58,
      "velocity": 42,
      "ticks": 480
    },
    {
      "time": 102360,
      "track": 1,
      "noteNumber": 63,
      "velocity": 32,
      "ticks": 120
    },
    {
      "time": 102480,
      "track": 1,
      "noteNumber": 66,
      "velocity": 36,
      "ticks": 120
    },
    {
      "time": 102600,
      "track": 1,
      "noteNumber": 70,
      "velocity": 32,
      "ticks": 120
    },
    {
      "time": 102720,
      "track": 2,
      "noteNumber": 61,
      "velocity": 40,
      "ticks": 240
    },
    {
      "time": 102720,
      "track": 1,
      "noteNumber": 66,
      "velocity": 36,
      "ticks": 120
    },
    {
      "time": 102840,
      "track": 1,
      "noteNumber": 63,
      "velocity": 32,
      "ticks": 120
    },
    {
      "time": 102960,
      "track": 1,
      "noteNumber": 78,
      "velocity": 53,
      "ticks": 480
    },
    {
      "time": 102960,
      "track": 2,
      "noteNumber": 60,
      "velocity": 40,
      "ticks": 720
    },
    {
      "time": 103080,
      "track": 2,
      "noteNumber": 63,
      "velocity": 30,
      "ticks": 120
    },
    {
      "time": 103200,
      "track": 2,
      "noteNumber": 66,
      "velocity": 30,
      "ticks": 120
    },
    {
      "time": 103320,
      "track": 2,
      "noteNumber": 70,
      "velocity": 30,
      "ticks": 120
    },
    {
      "time": 103440,
      "track": 1,
      "noteNumber": 82,
      "velocity": 52,
      "ticks": 240
    },
    {
      "time": 103440,
      "track": 1,
      "noteNumber": 72,
      "velocity": 32,
      "ticks": 120
    },
    {
      "time": 103560,
      "track": 1,
      "noteNumber": 75,
      "velocity": 32,
      "ticks": 120
    },
    {
      "time": 103680,
      "track": 1,
      "noteNumber": 87,
      "velocity": 52,
      "ticks": 2880
    },
    {
      "time": 103680,
      "track": 2,
      "noteNumber": 66,
      "velocity": 44,
      "ticks": 840
    },
    {
      "time": 103800,
      "track": 2,
      "noteNumber": 70,
      "velocity": 37,
      "ticks": 120
    },
    {
      "time": 103920,
      "track": 2,
      "noteNumber": 73,
      "velocity": 37,
      "ticks": 120
    },
    {
      "time": 104040,
      "track": 1,
      "noteNumber": 75,
      "velocity": 36,
      "ticks": 120
    },
    {
      "time": 104160,
      "track": 1,
      "noteNumber": 78,
      "velocity": 33,
      "ticks": 120
    },
    {
      "time": 104280,
      "track": 1,
      "noteNumber": 82,
      "velocity": 32,
      "ticks": 120
    },
    {
      "time": 104400,
      "track": 2,
      "noteNumber": 66,
      "velocity": 36,
      "ticks": 840
    },
    {
      "time": 104520,
      "track": 2,
      "noteNumber": 70,
      "velocity": 32,
      "ticks": 120
    },
    {
      "time": 104640,
      "track": 2,
      "noteNumber": 73,
      "velocity": 32,
      "ticks": 120
    },
    {
      "time": 104760,
      "track": 1,
      "noteNumber": 75,
      "velocity": 36,
      "ticks": 120
    },
    {
      "time": 104880,
      "track": 1,
      "noteNumber": 78,
      "velocity": 33,
      "ticks": 120
    },
    {
      "time": 105000,
      "track": 1,
      "noteNumber": 84,
      "velocity": 32,
      "ticks": 120
    },
    {
      "time": 105120,
      "track": 2,
      "noteNumber": 66,
      "velocity": 37,
      "ticks": 720
    },
    {
      "time": 105240,
      "track": 2,
      "noteNumber": 70,
      "velocity": 31,
      "ticks": 120
    },
    {
      "time": 105360,
      "track": 2,
      "noteNumber": 73,
      "velocity": 31,
      "ticks": 120
    },
    {
      "time": 105480,
      "track": 1,
      "noteNumber": 75,
      "velocity": 33,
      "ticks": 120
    },
    {
      "time": 105600,
      "track": 1,
      "noteNumber": 78,
      "velocity": 32,
      "ticks": 120
    },
    {
      "time": 105720,
      "track": 1,
      "noteNumber": 82,
      "velocity": 31,
      "ticks": 120
    },
    {
      "time": 105840,
      "track": 2,
      "noteNumber": 66,
      "velocity": 39,
      "ticks": 840
    },
    {
      "time": 105960,
      "track": 2,
      "noteNumber": 69,
      "velocity": 30,
      "ticks": 120
    },
    {
      "time": 106080,
      "track": 2,
      "noteNumber": 73,
      "velocity": 30,
      "ticks": 120
    },
    {
      "time": 106200,
      "track": 1,
      "noteNumber": 75,
      "velocity": 32,
      "ticks": 120
    },
    {
      "time": 106320,
      "track": 1,
      "noteNumber": 78,
      "velocity": 31,
      "ticks": 120
    },
    {
      "time": 106440,
      "track": 1,
      "noteNumber": 81,
      "velocity": 31,
      "ticks": 120
    },
    {
      "time": 106560,
      "track": 2,
      "noteNumber": 66,
      "velocity": 34,
      "ticks": 840
    },
    {
      "time": 106560,
      "track": 1,
      "noteNumber": 85,
      "velocity": 52,
      "ticks": 720
    },
    {
      "time": 106680,
      "track": 2,
      "noteNumber": 69,
      "velocity": 30,
      "ticks": 120
    },
    {
      "time": 106800,
      "track": 2,
      "noteNumber": 73,
      "velocity": 28,
      "ticks": 120
    },
    {
      "time": 106920,
      "track": 1,
      "noteNumber": 75,
      "velocity": 31,
      "ticks": 120
    },
    {
      "time": 107040,
      "track": 1,
      "noteNumber": 78,
      "velocity": 30,
      "ticks": 120
    },
    {
      "time": 107160,
      "track": 1,
      "noteNumber": 83,
      "velocity": 28,
      "ticks": 120
    },
    {
      "time": 107280,
      "track": 1,
      "noteNumber": 87,
      "velocity": 52,
      "ticks": 720
    },
    {
      "time": 107280,
      "track": 2,
      "noteNumber": 66,
      "velocity": 34,
      "ticks": 720
    },
    {
      "time": 107400,
      "track": 2,
      "noteNumber": 69,
      "velocity": 28,
      "ticks": 120
    },
    {
      "time": 107520,
      "track": 2,
      "noteNumber": 73,
      "velocity": 28,
      "ticks": 120
    },
    {
      "time": 107640,
      "track": 1,
      "noteNumber": 75,
      "velocity": 28,
      "ticks": 120
    },
    {
      "time": 107760,
      "track": 1,
      "noteNumber": 78,
      "velocity": 28,
      "ticks": 120
    },
    {
      "time": 107880,
      "track": 1,
      "noteNumber": 81,
      "velocity": 27,
      "ticks": 120
    },
    {
      "time": 108000,
      "track": 2,
      "noteNumber": 65,
      "velocity": 32,
      "ticks": 1440
    },
    {
      "time": 108120,
      "track": 2,
      "noteNumber": 68,
      "velocity": 32,
      "ticks": 120
    },
    {
      "time": 108240,
      "track": 2,
      "noteNumber": 72,
      "velocity": 32,
      "ticks": 120
    },
    {
      "time": 108360,
      "track": 2,
      "noteNumber": 77,
      "velocity": 32,
      "ticks": 120
    },
    {
      "time": 108480,
      "track": 2,
      "noteNumber": 80,
      "velocity": 32,
      "ticks": 120
    },
    {
      "time": 108600,
      "track": 2,
      "noteNumber": 84,
      "velocity": 32,
      "ticks": 120
    },
    {
      "time": 108720,
      "track": 1,
      "noteNumber": 92,
      "velocity": 38,
      "ticks": 720
    },
    {
      "time": 108720,
      "track": 1,
      "noteNumber": 89,
      "velocity": 38,
      "ticks": 720
    },
    {
      "time": 109440,
      "track": 2,
      "noteNumber": 65,
      "velocity": 29,
      "ticks": 720
    },
    {
      "time": 109440,
      "track": 1,
      "noteNumber": 89,
      "velocity": 39,
      "ticks": 960
    },
    {
      "time": 110160,
      "track": 2,
      "noteNumber": 65,
      "velocity": 30,
      "ticks": 1440
    },
    {
      "time": 110280,
      "track": 2,
      "noteNumber": 69,
      "velocity": 30,
      "ticks": 120
    },
    {
      "time": 110400,
      "track": 2,
      "noteNumber": 72,
      "velocity": 29,
      "ticks": 120
    },
    {
      "time": 110400,
      "track": 1,
      "noteNumber": 84,
      "velocity": 33,
      "ticks": 240
    },
    {
      "time": 110400,
      "track": 1,
      "noteNumber": 87,
      "velocity": 36,
      "ticks": 240
    },
    {
      "time": 110520,
      "track": 2,
      "noteNumber": 75,
      "velocity": 28,
      "ticks": 120
    },
    {
      "time": 110640,
      "track": 2,
      "noteNumber": 77,
      "velocity": 27,
      "ticks": 120
    },
    {
      "time": 110640,
      "track": 1,
      "noteNumber": 85,
      "velocity": 29,
      "ticks": 240
    },
    {
      "time": 110640,
      "track": 1,
      "noteNumber": 89,
      "velocity": 31,
      "ticks": 240
    },
    {
      "time": 110760,
      "track": 2,
      "noteNumber": 81,
      "velocity": 27,
      "ticks": 120
    },
    {
      "time": 110880,
      "track": 1,
      "noteNumber": 84,
      "velocity": 27,
      "ticks": 1680
    },
    {
      "time": 110880,
      "track": 1,
      "noteNumber": 87,
      "velocity": 29,
      "ticks": 1680
    },
    {
      "time": 111600,
      "track": 2,
      "noteNumber": 65,
      "velocity": 28,
      "ticks": 720
    },
    {
      "time": 112320,
      "track": 2,
      "noteNumber": 65,
      "velocity": 29,
      "ticks": 1440
    },
    {
      "time": 112440,
      "track": 2,
      "noteNumber": 68,
      "velocity": 29,
      "ticks": 120
    },
    {
      "time": 112560,
      "track": 1,
      "noteNumber": 82,
      "velocity": 36,
      "ticks": 240
    },
    {
      "time": 112560,
      "track": 2,
      "noteNumber": 70,
      "velocity": 28,
      "ticks": 120
    },
    {
      "time": 112560,
      "track": 1,
      "noteNumber": 85,
      "velocity": 39,
      "ticks": 240
    },
    {
      "time": 112680,
      "track": 2,
      "noteNumber": 73,
      "velocity": 28,
      "ticks": 120
    },
    {
      "time": 112800,
      "track": 1,
      "noteNumber": 87,
      "velocity": 33,
      "ticks": 240
    },
    {
      "time": 112800,
      "track": 2,
      "noteNumber": 77,
      "velocity": 27,
      "ticks": 120
    },
    {
      "time": 112800,
      "track": 1,
      "noteNumber": 84,
      "velocity": 30,
      "ticks": 240
    },
    {
      "time": 112920,
      "track": 2,
      "noteNumber": 80,
      "velocity": 27,
      "ticks": 120
    },
    {
      "time": 113040,
      "track": 1,
      "noteNumber": 82,
      "velocity": 28,
      "ticks": 360
    },
    {
      "time": 113040,
      "track": 1,
      "noteNumber": 85,
      "velocity": 30,
      "ticks": 360
    },
    {
      "time": 113400,
      "track": 1,
      "noteNumber": 89,
      "velocity": 41,
      "ticks": 720
    },
    {
      "time": 113400,
      "track": 1,
      "noteNumber": 85,
      "velocity": 38,
      "ticks": 720
    },
    {
      "time": 113760,
      "track": 2,
      "noteNumber": 65,
      "velocity": 28,
      "ticks": 720
    },
    {
      "time": 114120,
      "track": 1,
      "noteNumber": 85,
      "velocity": 36,
      "ticks": 600
    },
    {
      "time": 114120,
      "track": 1,
      "noteNumber": 82,
      "velocity": 33,
      "ticks": 600
    },
    {
      "time": 114480,
      "track": 2,
      "noteNumber": 63,
      "velocity": 28,
      "ticks": 1440
    },
    {
      "time": 114600,
      "track": 2,
      "noteNumber": 66,
      "velocity": 28,
      "ticks": 120
    },
    {
      "time": 114720,
      "track": 1,
      "noteNumber": 84,
      "velocity": 30,
      "ticks": 240
    },
    {
      "time": 114720,
      "track": 1,
      "noteNumber": 80,
      "velocity": 28,
      "ticks": 240
    },
    {
      "time": 114720,
      "track": 2,
      "noteNumber": 68,
      "velocity": 26,
      "ticks": 120
    },
    {
      "time": 114840,
      "track": 2,
      "noteNumber": 72,
      "velocity": 25,
      "ticks": 120
    },
    {
      "time": 114960,
      "track": 2,
      "noteNumber": 75,
      "velocity": 25,
      "ticks": 120
    },
    {
      "time": 114960,
      "track": 1,
      "noteNumber": 85,
      "velocity": 29,
      "ticks": 240
    },
    {
      "time": 114960,
      "track": 1,
      "noteNumber": 82,
      "velocity": 27,
      "ticks": 240
    },
    {
      "time": 115080,
      "track": 2,
      "noteNumber": 78,
      "velocity": 23,
      "ticks": 120
    },
    {
      "time": 115200,
      "track": 1,
      "noteNumber": 80,
      "velocity": 24,
      "ticks": 1440
    },
    {
      "time": 115200,
      "track": 1,
      "noteNumber": 84,
      "velocity": 26,
      "ticks": 1440
    },
    {
      "time": 115920,
      "track": 2,
      "noteNumber": 63,
      "velocity": 27,
      "ticks": 720
    },
    {
      "time": 116640,
      "track": 2,
      "noteNumber": 61,
      "velocity": 32,
      "ticks": 1440
    },
    {
      "time": 116760,
      "track": 2,
      "noteNumber": 63,
      "velocity": 32,
      "ticks": 120
    },
    {
      "time": 116880,
      "track": 1,
      "noteNumber": 78,
      "velocity": 35,
      "ticks": 240
    },
    {
      "time": 116880,
      "track": 1,
      "noteNumber": 82,
      "velocity": 38,
      "ticks": 240
    },
    {
      "time": 116880,
      "track": 2,
      "noteNumber": 66,
      "velocity": 32,
      "ticks": 120
    },
    {
      "time": 117000,
      "track": 2,
      "noteNumber": 70,
      "velocity": 32,
      "ticks": 120
    },
    {
      "time": 117120,
      "track": 1,
      "noteNumber": 80,
      "velocity": 32,
      "ticks": 240
    },
    {
      "time": 117120,
      "track": 2,
      "noteNumber": 73,
      "velocity": 32,
      "ticks": 120
    },
    {
      "time": 117120,
      "track": 1,
      "noteNumber": 84,
      "velocity": 35,
      "ticks": 240
    },
    {
      "time": 117240,
      "track": 2,
      "noteNumber": 75,
      "velocity": 32,
      "ticks": 120
    },
    {
      "time": 117360,
      "track": 1,
      "noteNumber": 78,
      "velocity": 29,
      "ticks": 720
    },
    {
      "time": 117360,
      "track": 1,
      "noteNumber": 82,
      "velocity": 35,
      "ticks": 240
    },
    {
      "time": 117600,
      "track": 1,
      "noteNumber": 87,
      "velocity": 38,
      "ticks": 240
    },
    {
      "time": 117840,
      "track": 1,
      "noteNumber": 82,
      "velocity": 36,
      "ticks": 240
    },
    {
      "time": 117840,
      "track": 2,
      "noteNumber": 60,
      "velocity": 24,
      "ticks": 960
    },
    {
      "time": 117900,
      "track": 2,
      "noteNumber": 63,
      "velocity": 24,
      "ticks": 900
    },
    {
      "time": 117960,
      "track": 2,
      "noteNumber": 65,
      "velocity": 24,
      "ticks": 840
    },
    {
      "time": 118020,
      "track": 2,
      "noteNumber": 68,
      "velocity": 24,
      "ticks": 780
    },
    {
      "time": 118080,
      "track": 1,
      "noteNumber": 80,
      "velocity": 39,
      "ticks": 240
    },
    {
      "time": 118080,
      "track": 2,
      "noteNumber": 72,
      "velocity": 24,
      "ticks": 720
    },
    {
      "time": 118080,
      "track": 1,
      "noteNumber": 77,
      "velocity": 29,
      "ticks": 960
    },
    {
      "time": 118320,
      "track": 1,
      "noteNumber": 82,
      "velocity": 36,
      "ticks": 240
    },
    {
      "time": 118560,
      "track": 1,
      "noteNumber": 80,
      "velocity": 35,
      "ticks": 480
    },
    {
      "time": 118800,
      "track": 2,
      "noteNumber": 48,
      "velocity": 30,
      "ticks": 1440
    },
    {
      "time": 118920,
      "track": 2,
      "noteNumber": 54,
      "velocity": 30,
      "ticks": 120
    },
    {
      "time": 119040,
      "track": 1,
      "noteNumber": 75,
      "velocity": 30,
      "ticks": 240
    },
    {
      "time": 119040,
      "track": 1,
      "noteNumber": 78,
      "velocity": 33,
      "ticks": 240
    },
    {
      "time": 119040,
      "track": 2,
      "noteNumber": 58,
      "velocity": 29,
      "ticks": 120
    },
    {
      "time": 119160,
      "track": 2,
      "noteNumber": 60,
      "velocity": 29,
      "ticks": 120
    },
    {
      "time": 119280,
      "track": 1,
      "noteNumber": 77,
      "velocity": 29,
      "ticks": 240
    },
    {
      "time": 119280,
      "track": 1,
      "noteNumber": 80,
      "velocity": 31,
      "ticks": 240
    },
    {
      "time": 119280,
      "track": 2,
      "noteNumber": 63,
      "velocity": 28,
      "ticks": 120
    },
    {
      "time": 119400,
      "track": 2,
      "noteNumber": 66,
      "velocity": 28,
      "ticks": 120
    },
    {
      "time": 119520,
      "track": 1,
      "noteNumber": 78,
      "velocity": 31,
      "ticks": 720
    },
    {
      "time": 119520,
      "track": 1,
      "noteNumber": 75,
      "velocity": 29,
      "ticks": 720
    },
    {
      "time": 119520,
      "track": 2,
      "noteNumber": 70,
      "velocity": 29,
      "ticks": 720
    },
    {
      "time": 120240,
      "track": 2,
      "noteNumber": 63,
      "velocity": 29,
      "ticks": 720
    },
    {
      "time": 120240,
      "track": 2,
      "noteNumber": 53,
      "velocity": 29,
      "ticks": 720
    },
    {
      "time": 120240,
      "track": 1,
      "noteNumber": 77,
      "velocity": 33,
      "ticks": 960
    },
    {
      "time": 120240,
      "track": 1,
      "noteNumber": 69,
      "velocity": 32,
      "ticks": 720
    },
    {
      "time": 120240,
      "track": 2,
      "noteNumber": 60,
      "velocity": 29,
      "ticks": 720
    },
    {
      "time": 120960,
      "track": 2,
      "noteNumber": 56,
      "velocity": 30,
      "ticks": 1440
    },
    {
      "time": 121080,
      "track": 2,
      "noteNumber": 58,
      "velocity": 28,
      "ticks": 120
    },
    {
      "time": 121200,
      "track": 2,
      "noteNumber": 61,
      "velocity": 28,
      "ticks": 120
    },
    {
      "time": 121200,
      "track": 1,
      "noteNumber": 73,
      "velocity": 34,
      "ticks": 240
    },
    {
      "time": 121200,
      "track": 1,
      "noteNumber": 77,
      "velocity": 37,
      "ticks": 240
    },
    {
      "time": 121320,
      "track": 2,
      "noteNumber": 65,
      "velocity": 27,
      "ticks": 120
    },
    {
      "time": 121440,
      "track": 2,
      "noteNumber": 68,
      "velocity": 27,
      "ticks": 120
    },
    {
      "time": 121440,
      "track": 1,
      "noteNumber": 78,
      "velocity": 36,
      "ticks": 240
    },
    {
      "time": 121440,
      "track": 1,
      "noteNumber": 75,
      "velocity": 33,
      "ticks": 240
    },
    {
      "time": 121560,
      "track": 2,
      "noteNumber": 70,
      "velocity": 27,
      "ticks": 120
    },
    {
      "time": 121680,
      "track": 1,
      "noteNumber": 77,
      "velocity": 36,
      "ticks": 240
    },
    {
      "time": 121680,
      "track": 1,
      "noteNumber": 73,
      "velocity": 29,
      "ticks": 720
    },
    {
      "time": 121920,
      "track": 1,
      "noteNumber": 82,
      "velocity": 38,
      "ticks": 240
    },
    {
      "time": 122160,
      "track": 1,
      "noteNumber": 77,
      "velocity": 36,
      "ticks": 240
    },
    {
      "time": 122220,
      "track": 2,
      "noteNumber": 54,
      "velocity": 27,
      "ticks": 900
    },
    {
      "time": 122280,
      "track": 2,
      "noteNumber": 58,
      "velocity": 27,
      "ticks": 840
    },
    {
      "time": 122340,
      "track": 2,
      "noteNumber": 61,
      "velocity": 27,
      "ticks": 780
    },
    {
      "time": 122400,
      "track": 1,
      "noteNumber": 73,
      "velocity": 28,
      "ticks": 720
    },
    {
      "time": 122400,
      "track": 2,
      "noteNumber": 63,
      "velocity": 27,
      "ticks": 720
    },
    {
      "time": 122400,
      "track": 1,
      "noteNumber": 75,
      "velocity": 37,
      "ticks": 240
    },
    {
      "time": 122640,
      "track": 1,
      "noteNumber": 77,
      "velocity": 36,
      "ticks": 240
    },
    {
      "time": 122880,
      "track": 1,
      "noteNumber": 75,
      "velocity": 36,
      "ticks": 480
    },
    {
      "time": 123120,
      "track": 2,
      "noteNumber": 53,
      "velocity": 29,
      "ticks": 1440
    },
    {
      "time": 123240,
      "track": 2,
      "noteNumber": 56,
      "velocity": 29,
      "ticks": 120
    },
    {
      "time": 123360,
      "track": 1,
      "noteNumber": 70,
      "velocity": 30,
      "ticks": 240
    },
    {
      "time": 123360,
      "track": 1,
      "noteNumber": 73,
      "velocity": 33,
      "ticks": 240
    },
    {
      "time": 123360,
      "track": 2,
      "noteNumber": 58,
      "velocity": 28,
      "ticks": 120
    },
    {
      "time": 123480,
      "track": 2,
      "noteNumber": 61,
      "velocity": 28,
      "ticks": 120
    },
    {
      "time": 123600,
      "track": 1,
      "noteNumber": 72,
      "velocity": 29,
      "ticks": 240
    },
    {
      "time": 123600,
      "track": 1,
      "noteNumber": 75,
      "velocity": 31,
      "ticks": 240
    },
    {
      "time": 123600,
      "track": 2,
      "noteNumber": 65,
      "velocity": 27,
      "ticks": 120
    },
    {
      "time": 123720,
      "track": 2,
      "noteNumber": 68,
      "velocity": 27,
      "ticks": 120
    },
    {
      "time": 123840,
      "track": 1,
      "noteNumber": 70,
      "velocity": 29,
      "ticks": 720
    },
    {
      "time": 123840,
      "track": 1,
      "noteNumber": 73,
      "velocity": 31,
      "ticks": 720
    },
    {
      "time": 124560,
      "track": 1,
      "noteNumber": 72,
      "velocity": 26,
      "ticks": 720
    },
    {
      "time": 124560,
      "track": 2,
      "noteNumber": 51,
      "velocity": 32,
      "ticks": 360
    },
    {
      "time": 124560,
      "track": 1,
      "noteNumber": 68,
      "velocity": 24,
      "ticks": 720
    },
    {
      "time": 124560,
      "track": 2,
      "noteNumber": 54,
      "velocity": 32,
      "ticks": 720
    },
    {
      "time": 124560,
      "track": 2,
      "noteNumber": 60,
      "velocity": 32,
      "ticks": 720
    },
    {
      "time": 124920,
      "track": 2,
      "noteNumber": 44,
      "velocity": 32,
      "ticks": 1800
    },
    {
      "time": 125280,
      "track": 2,
      "noteNumber": 37,
      "velocity": 28,
      "ticks": 1440
    },
    {
      "time": 125520,
      "track": 1,
      "noteNumber": 56,
      "velocity": 26,
      "ticks": 240
    },
    {
      "time": 125520,
      "track": 1,
      "noteNumber": 53,
      "velocity": 26,
      "ticks": 240
    },
    {
      "time": 125760,
      "track": 2,
      "noteNumber": 68,
      "velocity": 33,
      "ticks": 1680
    },
    {
      "time": 125760,
      "track": 2,
      "noteNumber": 65,
      "velocity": 33,
      "ticks": 1680
    },
    {
      "time": 126000,
      "track": 2,
      "noteNumber": 59,
      "velocity": 28,
      "ticks": 1440
    },
    {
      "time": 126000,
      "track": 1,
      "noteNumber": 80,
      "velocity": 36,
      "ticks": 720
    },
    {
      "time": 126000,
      "track": 1,
      "noteNumber": 77,
      "velocity": 36,
      "ticks": 720
    },
    {
      "time": 126720,
      "track": 1,
      "noteNumber": 77,
      "velocity": 33,
      "ticks": 960
    },
    {
      "time": 126720,
      "track": 1,
      "noteNumber": 73,
      "velocity": 33,
      "ticks": 960
    },
    {
      "time": 127440,
      "track": 2,
      "noteNumber": 49,
      "velocity": 31,
      "ticks": 1440
    },
    {
      "time": 127440,
      "track": 2,
      "noteNumber": 42,
      "velocity": 26,
      "ticks": 1440
    },
    {
      "time": 127680,
      "track": 2,
      "noteNumber": 54,
      "velocity": 21,
      "ticks": 1920
    },
    {
      "time": 127680,
      "track": 2,
      "noteNumber": 58,
      "velocity": 21,
      "ticks": 1920
    },
    {
      "time": 127680,
      "track": 2,
      "noteNumber": 61,
      "velocity": 25,
      "ticks": 1920
    },
    {
      "time": 127680,
      "track": 1,
      "noteNumber": 70,
      "velocity": 25,
      "ticks": 1920
    },
    {
      "time": 127680,
      "track": 1,
      "noteNumber": 75,
      "velocity": 39,
      "ticks": 240
    },
    {
      "time": 127680,
      "track": 1,
      "noteNumber": 66,
      "velocity": 25,
      "ticks": 1920
    },
    {
      "time": 127680,
      "track": 2,
      "noteNumber": 49,
      "velocity": 21,
      "ticks": 1920
    },
    {
      "time": 127920,
      "track": 1,
      "noteNumber": 77,
      "velocity": 34,
      "ticks": 240
    },
    {
      "time": 128160,
      "track": 1,
      "noteNumber": 75,
      "velocity": 29,
      "ticks": 1680
    },
    {
      "time": 129600,
      "track": 2,
      "noteNumber": 44,
      "velocity": 33,
      "ticks": 1440
    },
    {
      "time": 129840,
      "track": 1,
      "noteNumber": 73,
      "velocity": 36,
      "ticks": 240
    },
    {
      "time": 129840,
      "track": 1,
      "noteNumber": 61,
      "velocity": 36,
      "ticks": 240
    },
    {
      "time": 129840,
      "track": 1,
      "noteNumber": 68,
      "velocity": 36,
      "ticks": 480
    },
    {
      "time": 129840,
      "track": 2,
      "noteNumber": 53,
      "velocity": 31,
      "ticks": 480
    },
    {
      "time": 129840,
      "track": 2,
      "noteNumber": 56,
      "velocity": 31,
      "ticks": 480
    },
    {
      "time": 130080,
      "track": 1,
      "noteNumber": 63,
      "velocity": 37,
      "ticks": 240
    },
    {
      "time": 130080,
      "track": 1,
      "noteNumber": 75,
      "velocity": 37,
      "ticks": 240
    },
    {
      "time": 130320,
      "track": 1,
      "noteNumber": 77,
      "velocity": 37,
      "ticks": 720
    },
    {
      "time": 130320,
      "track": 1,
      "noteNumber": 80,
      "velocity": 37,
      "ticks": 720
    },
    {
      "time": 130320,
      "track": 1,
      "noteNumber": 68,
      "velocity": 37,
      "ticks": 720
    },
    {
      "time": 130320,
      "track": 2,
      "noteNumber": 61,
      "velocity": 31,
      "ticks": 720
    },
    {
      "time": 130320,
      "track": 2,
      "noteNumber": 65,
      "velocity": 31,
      "ticks": 718
    },
    {
      "time": 130320,
      "track": 2,
      "noteNumber": 59,
      "velocity": 26,
      "ticks": 1440
    },
    {
      "time": 131040,
      "track": 1,
      "noteNumber": 73,
      "velocity": 33,
      "ticks": 720
    },
    {
      "time": 131040,
      "track": 1,
      "noteNumber": 65,
      "velocity": 33,
      "ticks": 720
    },
    {
      "time": 131040,
      "track": 2,
      "noteNumber": 61,
      "velocity": 30,
      "ticks": 720
    },
    {
      "time": 131040,
      "track": 1,
      "noteNumber": 77,
      "velocity": 33,
      "ticks": 960
    },
    {
      "time": 131760,
      "track": 2,
      "noteNumber": 46,
      "velocity": 31,
      "ticks": 1440
    },
    {
      "time": 132000,
      "track": 2,
      "noteNumber": 58,
      "velocity": 25,
      "ticks": 1920
    },
    {
      "time": 132000,
      "track": 2,
      "noteNumber": 53,
      "velocity": 21,
      "ticks": 1920
    },
    {
      "time": 132000,
      "track": 2,
      "noteNumber": 63,
      "velocity": 25,
      "ticks": 1200
    },
    {
      "time": 132000,
      "track": 1,
      "noteNumber": 75,
      "velocity": 39,
      "ticks": 240
    },
    {
      "time": 132000,
      "track": 1,
      "noteNumber": 70,
      "velocity": 25,
      "ticks": 1920
    },
    {
      "time": 132000,
      "track": 1,
      "noteNumber": 65,
      "velocity": 25,
      "ticks": 1920
    },
    {
      "time": 132240,
      "track": 1,
      "noteNumber": 77,
      "velocity": 34,
      "ticks": 240
    },
    {
      "time": 132480,
      "track": 1,
      "noteNumber": 75,
      "velocity": 29,
      "ticks": 720
    },
    {
      "time": 133200,
      "track": 2,
      "noteNumber": 61,
      "velocity": 30,
      "ticks": 720
    },
    {
      "time": 133200,
      "track": 1,
      "noteNumber": 73,
      "velocity": 29,
      "ticks": 720
    },
    {
      "time": 133920,
      "track": 2,
      "noteNumber": 41,
      "velocity": 34,
      "ticks": 2160
    },
    {
      "time": 134160,
      "track": 1,
      "noteNumber": 56,
      "velocity": 33,
      "ticks": 480
    },
    {
      "time": 134160,
      "track": 1,
      "noteNumber": 61,
      "velocity": 37,
      "ticks": 240
    },
    {
      "time": 134400,
      "track": 1,
      "noteNumber": 63,
      "velocity": 40,
      "ticks": 240
    },
    {
      "time": 134640,
      "track": 1,
      "noteNumber": 65,
      "velocity": 33,
      "ticks": 720
    },
    {
      "time": 134640,
      "track": 1,
      "noteNumber": 70,
      "velocity": 37,
      "ticks": 720
    },
    {
      "time": 134640,
      "track": 1,
      "noteNumber": 61,
      "velocity": 33,
      "ticks": 720
    },
    {
      "time": 135360,
      "track": 1,
      "noteNumber": 65,
      "velocity": 31,
      "ticks": 720
    },
    {
      "time": 135360,
      "track": 1,
      "noteNumber": 56,
      "velocity": 27,
      "ticks": 720
    },
    {
      "time": 135360,
      "track": 1,
      "noteNumber": 61,
      "velocity": 27,
      "ticks": 720
    },
    {
      "time": 136080,
      "track": 2,
      "noteNumber": 39,
      "velocity": 34,
      "ticks": 1440
    },
    {
      "time": 136320,
      "track": 1,
      "noteNumber": 61,
      "velocity": 33,
      "ticks": 480
    },
    {
      "time": 136320,
      "track": 1,
      "noteNumber": 58,
      "velocity": 33,
      "ticks": 480
    },
    {
      "time": 136320,
      "track": 1,
      "noteNumber": 66,
      "velocity": 37,
      "ticks": 240
    },
    {
      "time": 136560,
      "track": 1,
      "noteNumber": 68,
      "velocity": 40,
      "ticks": 240
    },
    {
      "time": 136800,
      "track": 2,
      "noteNumber": 51,
      "velocity": 25,
      "ticks": 720
    },
    {
      "time": 136800,
      "track": 1,
      "noteNumber": 66,
      "velocity": 29,
      "ticks": 720
    },
    {
      "time": 136800,
      "track": 1,
      "noteNumber": 73,
      "velocity": 33,
      "ticks": 720
    },
    {
      "time": 136800,
      "track": 1,
      "noteNumber": 70,
      "velocity": 29,
      "ticks": 720
    },
    {
      "time": 137520,
      "track": 1,
      "noteNumber": 61,
      "velocity": 26,
      "ticks": 720
    },
    {
      "time": 137520,
      "track": 1,
      "noteNumber": 66,
      "velocity": 26,
      "ticks": 720
    },
    {
      "time": 137520,
      "track": 1,
      "noteNumber": 70,
      "velocity": 29,
      "ticks": 720
    },
    {
      "time": 137520,
      "track": 2,
      "noteNumber": 63,
      "velocity": 26,
      "ticks": 720
    },
    {
      "time": 138240,
      "track": 2,
      "noteNumber": 44,
      "velocity": 34,
      "ticks": 1440
    },
    {
      "time": 138480,
      "track": 1,
      "noteNumber": 60,
      "velocity": 35,
      "ticks": 480
    },
    {
      "time": 138480,
      "track": 1,
      "noteNumber": 66,
      "velocity": 35,
      "ticks": 480
    },
    {
      "time": 138480,
      "track": 1,
      "noteNumber": 70,
      "velocity": 35,
      "ticks": 240
    },
    {
      "time": 138600,
      "track": 2,
      "noteNumber": 51,
      "velocity": 31,
      "ticks": 360
    },
    {
      "time": 138720,
      "track": 1,
      "noteNumber": 72,
      "velocity": 37,
      "ticks": 240
    },
    {
      "time": 138960,
      "track": 1,
      "noteNumber": 77,
      "velocity": 29,
      "ticks": 720
    },
    {
      "time": 138960,
      "track": 2,
      "noteNumber": 80,
      "velocity": 25,
      "ticks": 720
    },
    {
      "time": 138960,
      "track": 1,
      "noteNumber": 68,
      "velocity": 24,
      "ticks": 720
    },
    {
      "time": 138960,
      "track": 1,
      "noteNumber": 72,
      "velocity": 29,
      "ticks": 720
    },
    {
      "time": 139680,
      "track": 1,
      "noteNumber": 60,
      "velocity": 21,
      "ticks": 720
    },
    {
      "time": 139680,
      "track": 1,
      "noteNumber": 66,
      "velocity": 25,
      "ticks": 720
    },
    {
      "time": 139680,
      "track": 1,
      "noteNumber": 68,
      "velocity": 25,
      "ticks": 720
    },
    {
      "time": 139680,
      "track": 2,
      "noteNumber": 56,
      "velocity": 25,
      "ticks": 720
    },
    {
      "time": 140400,
      "track": 2,
      "noteNumber": 37,
      "velocity": 31,
      "ticks": 720
    },
    {
      "time": 140520,
      "track": 2,
      "noteNumber": 44,
      "velocity": 27,
      "ticks": 120
    },
    {
      "time": 140640,
      "track": 2,
      "noteNumber": 49,
      "velocity": 26,
      "ticks": 120
    },
    {
      "time": 140760,
      "track": 2,
      "noteNumber": 53,
      "velocity": 26,
      "ticks": 120
    },
    {
      "time": 140880,
      "track": 1,
      "noteNumber": 56,
      "velocity": 25,
      "ticks": 120
    },
    {
      "time": 141000,
      "track": 1,
      "noteNumber": 61,
      "velocity": 25,
      "ticks": 120
    },
    {
      "time": 141120,
      "track": 2,
      "noteNumber": 41,
      "velocity": 31,
      "ticks": 720
    },
    {
      "time": 141240,
      "track": 2,
      "noteNumber": 48,
      "velocity": 28,
      "ticks": 120
    },
    {
      "time": 141360,
      "track": 2,
      "noteNumber": 53,
      "velocity": 27,
      "ticks": 120
    },
    {
      "time": 141480,
      "track": 1,
      "noteNumber": 56,
      "velocity": 26,
      "ticks": 120
    },
    {
      "time": 141600,
      "track": 1,
      "noteNumber": 60,
      "velocity": 26,
      "ticks": 120
    },
    {
      "time": 141720,
      "track": 1,
      "noteNumber": 65,
      "velocity": 26,
      "ticks": 120
    },
    {
      "time": 141840,
      "track": 2,
      "noteNumber": 37,
      "velocity": 31,
      "ticks": 720
    },
    {
      "time": 141960,
      "track": 2,
      "noteNumber": 44,
      "velocity": 28,
      "ticks": 120
    },
    {
      "time": 142080,
      "track": 2,
      "noteNumber": 49,
      "velocity": 28,
      "ticks": 120
    },
    {
      "time": 142200,
      "track": 2,
      "noteNumber": 53,
      "velocity": 27,
      "ticks": 120
    },
    {
      "time": 142320,
      "track": 1,
      "noteNumber": 56,
      "velocity": 28,
      "ticks": 120
    },
    {
      "time": 142440,
      "track": 1,
      "noteNumber": 61,
      "velocity": 26,
      "ticks": 120
    },
    {
      "time": 142560,
      "track": 2,
      "noteNumber": 41,
      "velocity": 31,
      "ticks": 720
    },
    {
      "time": 142680,
      "track": 2,
      "noteNumber": 48,
      "velocity": 28,
      "ticks": 120
    },
    {
      "time": 142800,
      "track": 2,
      "noteNumber": 53,
      "velocity": 28,
      "ticks": 120
    },
    {
      "time": 142920,
      "track": 1,
      "noteNumber": 56,
      "velocity": 27,
      "ticks": 120
    },
    {
      "time": 143040,
      "track": 1,
      "noteNumber": 60,
      "velocity": 27,
      "ticks": 120
    },
    {
      "time": 143160,
      "track": 1,
      "noteNumber": 65,
      "velocity": 27,
      "ticks": 120
    },
    {
      "time": 143280,
      "track": 1,
      "noteNumber": 68,
      "velocity": 30,
      "ticks": 720
    },
    {
      "time": 143280,
      "track": 2,
      "noteNumber": 44,
      "velocity": 31,
      "ticks": 1440
    },
    {
      "time": 143280,
      "track": 1,
      "noteNumber": 71,
      "velocity": 33,
      "ticks": 720
    },
    {
      "time": 143400,
      "track": 2,
      "noteNumber": 52,
      "velocity": 28,
      "ticks": 120
    },
    {
      "time": 143520,
      "track": 2,
      "noteNumber": 56,
      "velocity": 28,
      "ticks": 120
    },
    {
      "time": 143640,
      "track": 2,
      "noteNumber": 59,
      "velocity": 27,
      "ticks": 120
    },
    {
      "time": 143760,
      "track": 2,
      "noteNumber": 64,
      "velocity": 27,
      "ticks": 120
    },
    {
      "time": 143880,
      "track": 2,
      "noteNumber": 66,
      "velocity": 27,
      "ticks": 120
    },
    {
      "time": 144000,
      "track": 2,
      "noteNumber": 68,
      "velocity": 27,
      "ticks": 720
    },
    {
      "time": 144000,
      "track": 1,
      "noteNumber": 73,
      "velocity": 29,
      "ticks": 720
    },
    {
      "time": 144000,
      "track": 1,
      "noteNumber": 64,
      "velocity": 27,
      "ticks": 720
    },
    {
      "time": 144720,
      "track": 2,
      "noteNumber": 49,
      "velocity": 31,
      "ticks": 720
    },
    {
      "time": 144840,
      "track": 2,
      "noteNumber": 56,
      "velocity": 30,
      "ticks": 120
    },
    {
      "time": 144960,
      "track": 2,
      "noteNumber": 61,
      "velocity": 26,
      "ticks": 120
    },
    {
      "time": 145080,
      "track": 2,
      "noteNumber": 65,
      "velocity": 26,
      "ticks": 120
    },
    {
      "time": 145200,
      "track": 1,
      "noteNumber": 68,
      "velocity": 25,
      "ticks": 120
    },
    {
      "time": 145320,
      "track": 1,
      "noteNumber": 73,
      "velocity": 25,
      "ticks": 120
    },
    {
      "time": 145440,
      "track": 2,
      "noteNumber": 53,
      "velocity": 31,
      "ticks": 720
    },
    {
      "time": 145560,
      "track": 2,
      "noteNumber": 60,
      "velocity": 28,
      "ticks": 120
    },
    {
      "time": 145680,
      "track": 2,
      "noteNumber": 65,
      "velocity": 27,
      "ticks": 120
    },
    {
      "time": 145800,
      "track": 1,
      "noteNumber": 68,
      "velocity": 26,
      "ticks": 120
    },
    {
      "time": 145920,
      "track": 1,
      "noteNumber": 72,
      "velocity": 26,
      "ticks": 120
    },
    {
      "time": 146040,
      "track": 1,
      "noteNumber": 77,
      "velocity": 26,
      "ticks": 120
    },
    {
      "time": 146160,
      "track": 2,
      "noteNumber": 49,
      "velocity": 31,
      "ticks": 720
    },
    {
      "time": 146280,
      "track": 2,
      "noteNumber": 56,
      "velocity": 28,
      "ticks": 120
    },
    {
      "time": 146400,
      "track": 2,
      "noteNumber": 61,
      "velocity": 28,
      "ticks": 120
    },
    {
      "time": 146520,
      "track": 2,
      "noteNumber": 65,
      "velocity": 27,
      "ticks": 120
    },
    {
      "time": 146640,
      "track": 1,
      "noteNumber": 68,
      "velocity": 28,
      "ticks": 120
    },
    {
      "time": 146760,
      "track": 1,
      "noteNumber": 73,
      "velocity": 26,
      "ticks": 120
    },
    {
      "time": 146880,
      "track": 2,
      "noteNumber": 53,
      "velocity": 31,
      "ticks": 720
    },
    {
      "time": 147000,
      "track": 2,
      "noteNumber": 60,
      "velocity": 28,
      "ticks": 120
    },
    {
      "time": 147120,
      "track": 2,
      "noteNumber": 65,
      "velocity": 28,
      "ticks": 120
    },
    {
      "time": 147240,
      "track": 1,
      "noteNumber": 68,
      "velocity": 27,
      "ticks": 120
    },
    {
      "time": 147360,
      "track": 1,
      "noteNumber": 72,
      "velocity": 27,
      "ticks": 120
    },
    {
      "time": 147480,
      "track": 1,
      "noteNumber": 77,
      "velocity": 27,
      "ticks": 120
    },
    {
      "time": 147600,
      "track": 2,
      "noteNumber": 56,
      "velocity": 31,
      "ticks": 1440
    },
    {
      "time": 147600,
      "track": 1,
      "noteNumber": 80,
      "velocity": 30,
      "ticks": 1440
    },
    {
      "time": 147600,
      "track": 1,
      "noteNumber": 83,
      "velocity": 33,
      "ticks": 720
    },
    {
      "time": 147720,
      "track": 2,
      "noteNumber": 59,
      "velocity": 25,
      "ticks": 120
    },
    {
      "time": 147840,
      "track": 2,
      "noteNumber": 64,
      "velocity": 25,
      "ticks": 120
    },
    {
      "time": 147960,
      "track": 2,
      "noteNumber": 68,
      "velocity": 24,
      "ticks": 120
    },
    {
      "time": 148080,
      "track": 2,
      "noteNumber": 71,
      "velocity": 24,
      "ticks": 120
    },
    {
      "time": 148200,
      "track": 2,
      "noteNumber": 76,
      "velocity": 22,
      "ticks": 840
    },
    {
      "time": 148320,
      "track": 1,
      "noteNumber": 85,
      "velocity": 34,
      "ticks": 720
    },
    {
      "time": 149040,
      "track": 2,
      "noteNumber": 56,
      "velocity": 31,
      "ticks": 1440
    },
    {
      "time": 149040,
      "track": 1,
      "noteNumber": 80,
      "velocity": 30,
      "ticks": 2160
    },
    {
      "time": 149040,
      "track": 1,
      "noteNumber": 83,
      "velocity": 33,
      "ticks": 720
    },
    {
      "time": 149160,
      "track": 2,
      "noteNumber": 59,
      "velocity": 25,
      "ticks": 120
    },
    {
      "time": 149280,
      "track": 2,
      "noteNumber": 64,
      "velocity": 25,
      "ticks": 120
    },
    {
      "time": 149400,
      "track": 2,
      "noteNumber": 68,
      "velocity": 24,
      "ticks": 120
    },
    {
      "time": 149520,
      "track": 2,
      "noteNumber": 71,
      "velocity": 24,
      "ticks": 120
    },
    {
      "time": 149640,
      "track": 2,
      "noteNumber": 76,
      "velocity": 22,
      "ticks": 840
    },
    {
      "time": 149760,
      "track": 1,
      "noteNumber": 85,
      "velocity": 34,
      "ticks": 720
    },
    {
      "time": 150480,
      "track": 1,
      "noteNumber": 88,
      "velocity": 37,
      "ticks": 720
    },
    {
      "time": 150480,
      "track": 2,
      "noteNumber": 44,
      "velocity": 30,
      "ticks": 720
    },
    {
      "time": 151200,
      "track": 1,
      "noteNumber": 89,
      "velocity": 37,
      "ticks": 2160
    },
    {
      "time": 151200,
      "track": 1,
      "noteNumber": 92,
      "velocity": 40,
      "ticks": 2160
    },
    {
      "time": 151200,
      "track": 2,
      "noteNumber": 37,
      "velocity": 33,
      "ticks": 1440
    },
    {
      "time": 151320,
      "track": 2,
      "noteNumber": 44,
      "velocity": 26,
      "ticks": 120
    },
    {
      "time": 151440,
      "track": 2,
      "noteNumber": 49,
      "velocity": 24,
      "ticks": 120
    },
    {
      "time": 151560,
      "track": 2,
      "noteNumber": 53,
      "velocity": 22,
      "ticks": 120
    },
    {
      "time": 151680,
      "track": 2,
      "noteNumber": 56,
      "velocity": 21,
      "ticks": 120
    },
    {
      "time": 151800,
      "track": 2,
      "noteNumber": 61,
      "velocity": 20,
      "ticks": 120
    },
    {
      "time": 151920,
      "track": 2,
      "noteNumber": 65,
      "velocity": 27,
      "ticks": 240
    },
    {
      "time": 152160,
      "track": 2,
      "noteNumber": 68,
      "velocity": 22,
      "ticks": 240
    },
    {
      "time": 152400,
      "track": 2,
      "noteNumber": 73,
      "velocity": 22,
      "ticks": 240
    },
    {
      "time": 152640,
      "track": 2,
      "noteNumber": 77,
      "velocity": 27,
      "ticks": 240
    },
    {
      "time": 152880,
      "track": 2,
      "noteNumber": 80,
      "velocity": 22,
      "ticks": 240
    },
    {
      "time": 153120,
      "track": 2,
      "noteNumber": 85,
      "velocity": 22,
      "ticks": 170
    },
    {
      "time": 153290,
      "track": 2,
      "noteNumber": 61,
      "velocity": 20,
      "ticks": 1510
    },
    {
      "time": 153300,
      "track": 2,
      "noteNumber": 68,
      "velocity": 22,
      "ticks": 1500
    },
    {
      "time": 153310,
      "track": 2,
      "noteNumber": 73,
      "velocity": 22,
      "ticks": 1490
    },
    {
      "time": 153320,
      "track": 2,
      "noteNumber": 77,
      "velocity": 25,
      "ticks": 1480
    },
    {
      "time": 153330,
      "track": 1,
      "noteNumber": 80,
      "velocity": 24,
      "ticks": 1470
    },
    {
      "time": 153340,
      "track": 1,
      "noteNumber": 85,
      "velocity": 26,
      "ticks": 1460
    },
    {
      "time": 153350,
      "track": 1,
      "noteNumber": 89,
      "velocity": 28,
      "ticks": 1450
    },
    {
      "time": 153360,
      "track": 1,
      "noteNumber": 92,
      "velocity": 34,
      "ticks": 1440
    }
  ]
}
