{
  "name": "menuet",
  "ticksPerBeat": 480,
  "tempo": 80,
  "events": [
    {
      "time": 0,
      "track": 2,
      "noteNumber": 50,
      "velocity": 48,
      "ticks": 30
    },
    {
      "time": 0,
      "track": 2,
      "noteNumber": 57,
      "velocity": 48,
      "ticks": 30
    },
    {
      "time": 120,
      "track": 1,
      "noteNumber": 59,
      "velocity": 45,
      "ticks": 30
    },
    {
      "time": 120,
      "track": 1,
      "noteNumber": 65,
      "velocity": 45,
      "ticks": 30
    },
    {
      "time": 240,
      "track": 2,
      "noteNumber": 53,
      "velocity": 48,
      "ticks": 30
    },
    {
      "time": 240,
      "track": 2,
      "noteNumber": 60,
      "velocity": 48,
      "ticks": 30
    },
    {
      "time": 360,
      "track": 1,
      "noteNumber": 69,
      "velocity": 45,
      "ticks": 30
    },
    {
      "time": 360,
      "track": 1,
      "noteNumber": 62,
      "velocity": 45,
      "ticks": 30
    },
    {
      "time": 480,
      "track": 1,
      "noteNumber": 59,
      "velocity": 48,
      "ticks": 100
    },
    {
      "time": 480,
      "track": 2,
      "noteNumber": 50,
      "velocity": 48,
      "ticks": 120
    },
    {
      "time": 600,
      "track": 1,
      "noteNumber": 59,
      "velocity": 44,
      "ticks": 60
    },
    {
      "time": 660,
      "track": 1,
      "noteNumber": 60,
      "velocity": 44,
      "ticks": 60
    },
    {
      "time": 720,
      "track": 1,
      "noteNumber": 69,
      "velocity": 45,
      "ticks": 120
    },
    {
      "time": 720,
      "track": 1,
      "noteNumber": 59,
      "velocity": 45,
      "ticks": 120
    },
    {
      "time": 720,
      "track": 1,
      "noteNumber": 65,
      "velocity": 45,
      "ticks": 120
    },
    {
      "time": 840,
      "track": 1,
      "noteNumber": 57,
      "velocity": 45,
      "ticks": 90
    },
    {
      "time": 960,
      "track": 1,
      "noteNumber": 59,
      "velocity": 48,
      "ticks": 45
    },
    {
      "time": 960,
      "track": 2,
      "noteNumber": 50,
      "velocity": 48,
      "ticks": 45
    },
    {
      "time": 1200,
      "track": 1,
      "noteNumber": 69,
      "velocity": 43,
      "ticks": 90
    },
    {
      "time": 1200,
      "track": 1,
      "noteNumber": 60,
      "velocity": 43,
      "ticks": 90
    },
    {
      "time": 1200,
      "track": 1,
      "noteNumber": 65,
      "velocity": 43,
      "ticks": 90
    },
    {
      "time": 1440,
      "track": 1,
      "noteNumber": 59,
      "velocity": 48,
      "ticks": 120
    },
    {
      "time": 1440,
      "track": 2,
      "noteNumber": 45,
      "velocity": 48,
      "ticks": 240
    },
    {
      "time": 1560,
      "track": 1,
      "noteNumber": 60,
      "velocity": 45,
      "ticks": 120
    },
    {
      "time": 1680,
      "track": 1,
      "noteNumber": 72,
      "velocity": 48,
      "ticks": 240
    },
    {
      "time": 1680,
      "track": 1,
      "noteNumber": 69,
      "velocity": 48,
      "ticks": 240
    },
    {
      "time": 1680,
      "track": 1,
      "noteNumber": 62,
      "velocity": 48,
      "ticks": 60
    },
    {
      "time": 1800,
      "track": 1,
      "noteNumber": 64,
      "velocity": 45,
      "ticks": 60
    },
    {
      "time": 1920,
      "track": 1,
      "noteNumber": 66,
      "velocity": 48,
      "ticks": 60
    },
    {
      "time": 1920,
      "track": 2,
      "noteNumber": 38,
      "velocity": 45,
      "ticks": 240
    },
    {
      "time": 2040,
      "track": 1,
      "noteNumber": 66,
      "velocity": 45,
      "ticks": 40
    },
    {
      "time": 2080,
      "track": 1,
      "noteNumber": 67,
      "velocity": 44,
      "ticks": 40
    },
    {
      "time": 2120,
      "track": 1,
      "noteNumber": 66,
      "velocity": 44,
      "ticks": 40
    },
    {
      "time": 2160,
      "track": 1,
      "noteNumber": 72,
      "velocity": 42,
      "ticks": 240
    },
    {
      "time": 2160,
      "track": 1,
      "noteNumber": 69,
      "velocity": 42,
      "ticks": 240
    },
    {
      "time": 2160,
      "track": 1,
      "noteNumber": 64,
      "velocity": 48,
      "ticks": 120
    },
    {
      "time": 2280,
      "track": 1,
      "noteNumber": 62,
      "velocity": 45,
      "ticks": 120
    },
    {
      "time": 2400,
      "track": 1,
      "noteNumber": 60,
      "velocity": 48,
      "ticks": 100
    },
    {
      "time": 2400,
      "track": 2,
      "noteNumber": 45,
      "velocity": 48,
      "ticks": 240
    },
    {
      "time": 2520,
      "track": 1,
      "noteNumber": 62,
      "velocity": 44,
      "ticks": 100
    },
    {
      "time": 2640,
      "track": 1,
      "noteNumber": 72,
      "velocity": 44,
      "ticks": 220
    },
    {
      "time": 2640,
      "track": 1,
      "noteNumber": 64,
      "velocity": 44,
      "ticks": 220
    },
    {
      "time": 2640,
      "track": 1,
      "noteNumber": 69,
      "velocity": 44,
      "ticks": 220
    },
    {
      "time": 2880,
      "track": 1,
      "noteNumber": 64,
      "velocity": 48,
      "ticks": 120
    },
    {
      "time": 2880,
      "track": 2,
      "noteNumber": 40,
      "velocity": 48,
      "ticks": 240
    },
    {
      "time": 3000,
      "track": 1,
      "noteNumber": 66,
      "velocity": 45,
      "ticks": 120
    },
    {
      "time": 3120,
      "track": 1,
      "noteNumber": 68,
      "velocity": 45,
      "ticks": 60
    },
    {
      "time": 3120,
      "track": 1,
      "noteNumber": 59,
      "velocity": 48,
      "ticks": 240
    },
    {
      "time": 3240,
      "track": 1,
      "noteNumber": 69,
      "velocity": 45,
      "ticks": 60
    },
    {
      "time": 3360,
      "track": 2,
      "noteNumber": 52,
      "velocity": 48,
      "ticks": 240
    },
    {
      "time": 3360,
      "track": 1,
      "noteNumber": 66,
      "velocity": 48,
      "ticks": 100
    },
    {
      "time": 3480,
      "track": 1,
      "noteNumber": 66,
      "velocity": 49,
      "ticks": 60
    },
    {
      "time": 3540,
      "track": 1,
      "noteNumber": 68,
      "velocity": 51,
      "ticks": 60
    },
    {
      "time": 3600,
      "track": 1,
      "noteNumber": 66,
      "velocity": 55,
      "ticks": 120
    },
    {
      "time": 3600,
      "track": 1,
      "noteNumber": 62,
      "velocity": 48,
      "ticks": 120
    },
    {
      "time": 3600,
      "track": 2,
      "noteNumber": 57,
      "velocity": 51,
      "ticks": 240
    },
    {
      "time": 3720,
      "track": 1,
      "noteNumber": 60,
      "velocity": 43,
      "ticks": 90
    },
    {
      "time": 3720,
      "track": 1,
      "noteNumber": 64,
      "velocity": 50,
      "ticks": 90
    },
    {
      "time": 3840,
      "track": 2,
      "noteNumber": 40,
      "velocity": 48,
      "ticks": 120
    },
    {
      "time": 3840,
      "track": 1,
      "noteNumber": 62,
      "velocity": 48,
      "ticks": 120
    },
    {
      "time": 3840,
      "track": 1,
      "noteNumber": 66,
      "velocity": 55,
      "ticks": 120
    },
    {
      "time": 4080,
      "track": 1,
      "noteNumber": 62,
      "velocity": 57,
      "ticks": 120
    },
    {
      "time": 4080,
      "track": 1,
      "noteNumber": 66,
      "velocity": 57,
      "ticks": 120
    },
    {
      "time": 4080,
      "track": 1,
      "noteNumber": 69,
      "velocity": 57,
      "ticks": 120
    },
    {
      "time": 4320,
      "track": 2,
      "noteNumber": 52,
      "velocity": 54,
      "ticks": 1440
    },
    {
      "time": 4320,
      "track": 1,
      "noteNumber": 68,
      "velocity": 49,
      "ticks": 120
    },
    {
      "time": 4320,
      "track": 1,
      "noteNumber": 64,
      "velocity": 49,
      "ticks": 120
    },
    {
      "time": 4320,
      "track": 2,
      "noteNumber": 59,
      "velocity": 54,
      "ticks": 360
    },
    {
      "time": 4440,
      "track": 1,
      "noteNumber": 66,
      "velocity": 46,
      "ticks": 120
    },
    {
      "time": 4440,
      "track": 1,
      "noteNumber": 69,
      "velocity": 46,
      "ticks": 120
    },
    {
      "time": 4560,
      "track": 1,
      "noteNumber": 64,
      "velocity": 49,
      "ticks": 340
    },
    {
      "time": 4560,
      "track": 1,
      "noteNumber": 68,
      "velocity": 49,
      "ticks": 340
    },
    {
      "time": 4680,
      "track": 2,
      "noteNumber": 60,
      "velocity": 54,
      "ticks": 120
    },
    {
      "time": 4800,
      "track": 2,
      "noteNumber": 59,
      "velocity": 51,
      "ticks": 360
    },
    {
      "time": 4920,
      "track": 1,
      "noteNumber": 69,
      "velocity": 48,
      "ticks": 120
    },
    {
      "time": 4920,
      "track": 1,
      "noteNumber": 66,
      "velocity": 48,
      "ticks": 120
    },
    {
      "time": 5040,
      "track": 1,
      "noteNumber": 68,
      "velocity": 51,
      "ticks": 340
    },
    {
      "time": 5040,
      "track": 1,
      "noteNumber": 71,
      "velocity": 51,
      "ticks": 340
    },
    {
      "time": 5160,
      "track": 2,
      "noteNumber": 60,
      "velocity": 48,
      "ticks": 120
    },
    {
      "time": 5280,
      "track": 2,
      "noteNumber": 62,
      "velocity": 51,
      "ticks": 360
    },
    {
      "time": 5400,
      "track": 1,
      "noteNumber": 69,
      "velocity": 50,
      "ticks": 120
    },
    {
      "time": 5400,
      "track": 1,
      "noteNumber": 72,
      "velocity": 50,
      "ticks": 120
    },
    {
      "time": 5520,
      "track": 1,
      "noteNumber": 68,
      "velocity": 45,
      "ticks": 240
    },
    {
      "time": 5520,
      "track": 1,
      "noteNumber": 64,
      "velocity": 45,
      "ticks": 240
    },
    {
      "time": 5640,
      "track": 2,
      "noteNumber": 64,
      "velocity": 48,
      "ticks": 120
    },
    {
      "time": 5760,
      "track": 1,
      "noteNumber": 76,
      "velocity": 45,
      "ticks": 120
    },
    {
      "time": 5760,
      "track": 1,
      "noteNumber": 79,
      "velocity": 45,
      "ticks": 120
    },
    {
      "time": 5760,
      "track": 2,
      "noteNumber": 69,
      "velocity": 42,
      "ticks": 480
    },
    {
      "time": 5760,
      "track": 2,
      "noteNumber": 53,
      "velocity": 42,
      "ticks": 480
    },
    {
      "time": 5760,
      "track": 2,
      "noteNumber": 60,
      "velocity": 42,
      "ticks": 480
    },
    {
      "time": 5880,
      "track": 1,
      "noteNumber": 77,
      "velocity": 43,
      "ticks": 60
    },
    {
      "time": 5880,
      "track": 1,
      "noteNumber": 74,
      "velocity": 43,
      "ticks": 60
    },
    {
      "time": 5940,
      "track": 1,
      "noteNumber": 79,
      "velocity": 43,
      "ticks": 60
    },
    {
      "time": 5940,
      "track": 1,
      "noteNumber": 76,
      "velocity": 43,
      "ticks": 60
    },
    {
      "time": 6000,
      "track": 1,
      "noteNumber": 77,
      "velocity": 45,
      "ticks": 120
    },
    {
      "time": 6000,
      "track": 1,
      "noteNumber": 74,
      "velocity": 45,
      "ticks": 120
    },
    {
      "time": 6120,
      "track": 1,
      "noteNumber": 76,
      "velocity": 42,
      "ticks": 120
    },
    {
      "time": 6120,
      "track": 1,
      "noteNumber": 72,
      "velocity": 42,
      "ticks": 120
    },
    {
      "time": 6240,
      "track": 1,
      "noteNumber": 70,
      "velocity": 45,
      "ticks": 120
    },
    {
      "time": 6240,
      "track": 2,
      "noteNumber": 65,
      "velocity": 34,
      "ticks": 480
    },
    {
      "time": 6240,
      "track": 1,
      "noteNumber": 74,
      "velocity": 45,
      "ticks": 120
    },
    {
      "time": 6240,
      "track": 2,
      "noteNumber": 62,
      "velocity": 34,
      "ticks": 480
    },
    {
      "time": 6240,
      "track": 2,
      "noteNumber": 55,
      "velocity": 34,
      "ticks": 480
    },
    {
      "time": 6360,
      "track": 1,
      "noteNumber": 72,
      "velocity": 43,
      "ticks": 120
    },
    {
      "time": 6360,
      "track": 1,
      "noteNumber": 69,
      "velocity": 43,
      "ticks": 120
    },
    {
      "time": 6480,
      "track": 1,
      "noteNumber": 74,
      "velocity": 44,
      "ticks": 360
    },
    {
      "time": 6480,
      "track": 1,
      "noteNumber": 70,
      "velocity": 44,
      "ticks": 360
    },
    {
      "time": 6720,
      "track": 2,
      "noteNumber": 48,
      "velocity": 38,
      "ticks": 480
    },
    {
      "time": 6720,
      "track": 2,
      "noteNumber": 55,
      "velocity": 38,
      "ticks": 480
    },
    {
      "time": 6720,
      "track": 2,
      "noteNumber": 64,
      "velocity": 38,
      "ticks": 480
    },
    {
      "time": 6840,
      "track": 1,
      "noteNumber": 69,
      "velocity": 42,
      "ticks": 60
    },
    {
      "time": 6840,
      "track": 1,
      "noteNumber": 72,
      "velocity": 42,
      "ticks": 60
    },
    {
      "time": 6900,
      "track": 1,
      "noteNumber": 70,
      "velocity": 42,
      "ticks": 60
    },
    {
      "time": 6900,
      "track": 1,
      "noteNumber": 74,
      "velocity": 42,
      "ticks": 60
    },
    {
      "time": 6960,
      "track": 1,
      "noteNumber": 69,
      "velocity": 44,
      "ticks": 120
    },
    {
      "time": 6960,
      "track": 1,
      "noteNumber": 72,
      "velocity": 44,
      "ticks": 120
    },
    {
      "time": 7080,
      "track": 1,
      "noteNumber": 70,
      "velocity": 42,
      "ticks": 120
    },
    {
      "time": 7080,
      "track": 1,
      "noteNumber": 67,
      "velocity": 42,
      "ticks": 120
    },
    {
      "time": 7200,
      "track": 2,
      "noteNumber": 57,
      "velocity": 36,
      "ticks": 240
    },
    {
      "time": 7200,
      "track": 1,
      "noteNumber": 65,
      "velocity": 44,
      "ticks": 120
    },
    {
      "time": 7200,
      "track": 2,
      "noteNumber": 53,
      "velocity": 36,
      "ticks": 240
    },
    {
      "time": 7200,
      "track": 2,
      "noteNumber": 60,
      "velocity": 36,
      "ticks": 240
    },
    {
      "time": 7200,
      "track": 1,
      "noteNumber": 69,
      "velocity": 44,
      "ticks": 120
    },
    {
      "time": 7320,
      "track": 1,
      "noteNumber": 67,
      "velocity": 43,
      "ticks": 120
    },
    {
      "time": 7320,
      "track": 1,
      "noteNumber": 64,
      "velocity": 43,
      "ticks": 120
    },
    {
      "time": 7440,
      "track": 2,
      "noteNumber": 50,
      "velocity": 34,
      "ticks": 220
    },
    {
      "time": 7440,
      "track": 1,
      "noteNumber": 69,
      "velocity": 43,
      "ticks": 220
    },
    {
      "time": 7440,
      "track": 2,
      "noteNumber": 62,
      "velocity": 34,
      "ticks": 220
    },
    {
      "time": 7440,
      "track": 2,
      "noteNumber": 57,
      "velocity": 34,
      "ticks": 220
    },
    {
      "time": 7440,
      "track": 1,
      "noteNumber": 65,
      "velocity": 43,
      "ticks": 220
    },
    {
      "time": 7680,
      "track": 1,
      "noteNumber": 76,
      "velocity": 51,
      "ticks": 120
    },
    {
      "time": 7680,
      "track": 2,
      "noteNumber": 41,
      "velocity": 48,
      "ticks": 480
    },
    {
      "time": 7680,
      "track": 2,
      "noteNumber": 57,
      "velocity": 48,
      "ticks": 480
    },
    {
      "time": 7680,
      "track": 2,
      "noteNumber": 48,
      "velocity": 48,
      "ticks": 480
    },
    {
      "time": 7680,
      "track": 1,
      "noteNumber": 79,
      "velocity": 51,
      "ticks": 120
    },
    {
      "time": 7680,
      "track": 1,
      "noteNumber": 69,
      "velocity": 48,
      "ticks": 480
    },
    {
      "time": 7800,
      "track": 1,
      "noteNumber": 77,
      "velocity": 49,
      "ticks": 60
    },
    {
      "time": 7800,
      "track": 1,
      "noteNumber": 74,
      "velocity": 49,
      "ticks": 60
    },
    {
      "time": 7860,
      "track": 1,
      "noteNumber": 76,
      "velocity": 49,
      "ticks": 60
    },
    {
      "time": 7860,
      "track": 1,
      "noteNumber": 79,
      "velocity": 49,
      "ticks": 60
    },
    {
      "time": 7920,
      "track": 1,
      "noteNumber": 74,
      "velocity": 51,
      "ticks": 120
    },
    {
      "time": 7920,
      "track": 1,
      "noteNumber": 77,
      "velocity": 51,
      "ticks": 120
    },
    {
      "time": 8040,
      "track": 1,
      "noteNumber": 72,
      "velocity": 48,
      "ticks": 120
    },
    {
      "time": 8040,
      "track": 1,
      "noteNumber": 76,
      "velocity": 48,
      "ticks": 120
    },
    {
      "time": 8160,
      "track": 2,
      "noteNumber": 58,
      "velocity": 39,
      "ticks": 480
    },
    {
      "time": 8160,
      "track": 1,
      "noteNumber": 74,
      "velocity": 51,
      "ticks": 120
    },
    {
      "time": 8160,
      "track": 2,
      "noteNumber": 50,
      "velocity": 39,
      "ticks": 480
    },
    {
      "time": 8160,
      "track": 2,
      "noteNumber": 43,
      "velocity": 39,
      "ticks": 480
    },
    {
      "time": 8160,
      "track": 1,
      "noteNumber": 65,
      "velocity": 39,
      "ticks": 480
    },
    {
      "time": 8160,
      "track": 1,
      "noteNumber": 70,
      "velocity": 51,
      "ticks": 120
    },
    {
      "time": 8280,
      "track": 1,
      "noteNumber": 69,
      "velocity": 49,
      "ticks": 120
    },
    {
      "time": 8280,
      "track": 1,
      "noteNumber": 72,
      "velocity": 49,
      "ticks": 120
    },
    {
      "time": 8400,
      "track": 1,
      "noteNumber": 70,
      "velocity": 50,
      "ticks": 360
    },
    {
      "time": 8400,
      "track": 1,
      "noteNumber": 74,
      "velocity": 50,
      "ticks": 360
    },
    {
      "time": 8640,
      "track": 2,
      "noteNumber": 60,
      "velocity": 43,
      "ticks": 480
    },
    {
      "time": 8640,
      "track": 2,
      "noteNumber": 55,
      "velocity": 43,
      "ticks": 480
    },
    {
      "time": 8640,
      "track": 1,
      "noteNumber": 64,
      "velocity": 43,
      "ticks": 480
    },
    {
      "time": 8640,
      "track": 2,
      "noteNumber": 48,
      "velocity": 43,
      "ticks": 480
    },
    {
      "time": 8760,
      "track": 1,
      "noteNumber": 69,
      "velocity": 46,
      "ticks": 60
    },
    {
      "time": 8760,
      "track": 1,
      "noteNumber": 72,
      "velocity": 46,
      "ticks": 60
    },
    {
      "time": 8820,
      "track": 1,
      "noteNumber": 70,
      "velocity": 46,
      "ticks": 60
    },
    {
      "time": 8820,
      "track": 1,
      "noteNumber": 74,
      "velocity": 46,
      "ticks": 60
    },
    {
      "time": 8880,
      "track": 1,
      "noteNumber": 72,
      "velocity": 49,
      "ticks": 120
    },
    {
      "time": 8880,
      "track": 1,
      "noteNumber": 69,
      "velocity": 49,
      "ticks": 120
    },
    {
      "time": 9000,
      "track": 1,
      "noteNumber": 70,
      "velocity": 45,
      "ticks": 120
    },
    {
      "time": 9000,
      "track": 1,
      "noteNumber": 67,
      "velocity": 45,
      "ticks": 120
    },
    {
      "time": 9120,
      "track": 1,
      "noteNumber": 65,
      "velocity": 46,
      "ticks": 120
    },
    {
      "time": 9120,
      "track": 2,
      "noteNumber": 60,
      "velocity": 38,
      "ticks": 360
    },
    {
      "time": 9120,
      "track": 2,
      "noteNumber": 53,
      "velocity": 38,
      "ticks": 360
    },
    {
      "time": 9120,
      "track": 1,
      "noteNumber": 69,
      "velocity": 46,
      "ticks": 120
    },
    {
      "time": 9240,
      "track": 1,
      "noteNumber": 67,
      "velocity": 45,
      "ticks": 120
    },
    {
      "time": 9240,
      "track": 1,
      "noteNumber": 64,
      "velocity": 45,
      "ticks": 120
    },
    {
      "time": 9360,
      "track": 1,
      "noteNumber": 69,
      "velocity": 49,
      "ticks": 360
    },
    {
      "time": 9360,
      "track": 1,
      "noteNumber": 65,
      "velocity": 49,
      "ticks": 600
    },
    {
      "time": 9480,
      "track": 2,
      "noteNumber": 52,
      "velocity": 43,
      "ticks": 120
    },
    {
      "time": 9600,
      "track": 2,
      "noteNumber": 50,
      "velocity": 45,
      "ticks": 360
    },
    {
      "time": 9600,
      "track": 2,
      "noteNumber": 53,
      "velocity": 45,
      "ticks": 480
    },
    {
      "time": 9720,
      "track": 1,
      "noteNumber": 67,
      "velocity": 48,
      "ticks": 120
    },
    {
      "time": 9840,
      "track": 1,
      "noteNumber": 69,
      "velocity": 49,
      "ticks": 360
    },
    {
      "time": 9960,
      "track": 2,
      "noteNumber": 48,
      "velocity": 45,
      "ticks": 120
    },
    {
      "time": 9960,
      "track": 1,
      "noteNumber": 64,
      "velocity": 46,
      "ticks": 120
    },
    {
      "time": 10080,
      "track": 2,
      "noteNumber": 47,
      "velocity": 48,
      "ticks": 360
    },
    {
      "time": 10080,
      "track": 1,
      "noteNumber": 62,
      "velocity": 46,
      "ticks": 1440
    },
    {
      "time": 10080,
      "track": 2,
      "noteNumber": 53,
      "velocity": 48,
      "ticks": 1200
    },
    {
      "time": 10200,
      "track": 1,
      "noteNumber": 67,
      "velocity": 46,
      "ticks": 120
    },
    {
      "time": 10320,
      "track": 1,
      "noteNumber": 69,
      "velocity": 49,
      "ticks": 360
    },
    {
      "time": 10440,
      "track": 2,
      "noteNumber": 45,
      "velocity": 50,
      "ticks": 120
    },
    {
      "time": 10560,
      "track": 2,
      "noteNumber": 43,
      "velocity": 54,
      "ticks": 360
    },
    {
      "time": 10680,
      "track": 1,
      "noteNumber": 71,
      "velocity": 52,
      "ticks": 120
    },
    {
      "time": 10800,
      "track": 1,
      "noteNumber": 74,
      "velocity": 56,
      "ticks": 120
    },
    {
      "time": 10920,
      "track": 2,
      "noteNumber": 45,
      "velocity": 57,
      "ticks": 120
    },
    {
      "time": 10920,
      "track": 1,
      "noteNumber": 71,
      "velocity": 52,
      "ticks": 120
    },
    {
      "time": 11040,
      "track": 2,
      "noteNumber": 47,
      "velocity": 62,
      "ticks": 480
    },
    {
      "time": 11040,
      "track": 1,
      "noteNumber": 69,
      "velocity": 50,
      "ticks": 120
    },
    {
      "time": 11160,
      "track": 1,
      "noteNumber": 71,
      "velocity": 49,
      "ticks": 120
    },
    {
      "time": 11280,
      "track": 2,
      "noteNumber": 55,
      "velocity": 48,
      "ticks": 120
    },
    {
      "time": 11280,
      "track": 1,
      "noteNumber": 64,
      "velocity": 50,
      "ticks": 120
    },
    {
      "time": 11400,
      "track": 1,
      "noteNumber": 67,
      "velocity": 49,
      "ticks": 120
    },
    {
      "time": 11400,
      "track": 2,
      "noteNumber": 52,
      "velocity": 48,
      "ticks": 120
    },
    {
      "time": 11520,
      "track": 1,
      "noteNumber": 69,
      "velocity": 52,
      "ticks": 120
    },
    {
      "time": 11520,
      "track": 1,
      "noteNumber": 62,
      "velocity": 52,
      "ticks": 1440
    },
    {
      "time": 11520,
      "track": 2,
      "noteNumber": 53,
      "velocity": 52,
      "ticks": 1320
    },
    {
      "time": 11520,
      "track": 2,
      "noteNumber": 47,
      "velocity": 52,
      "ticks": 360
    },
    {
      "time": 11640,
      "track": 1,
      "noteNumber": 67,
      "velocity": 49,
      "ticks": 120
    },
    {
      "time": 11760,
      "track": 1,
      "noteNumber": 69,
      "velocity": 52,
      "ticks": 360
    },
    {
      "time": 11880,
      "track": 2,
      "noteNumber": 45,
      "velocity": 49,
      "ticks": 120
    },
    {
      "time": 12000,
      "track": 2,
      "noteNumber": 43,
      "velocity": 54,
      "ticks": 360
    },
    {
      "time": 12120,
      "track": 1,
      "noteNumber": 71,
      "velocity": 54,
      "ticks": 120
    },
    {
      "time": 12240,
      "track": 1,
      "noteNumber": 74,
      "velocity": 56,
      "ticks": 120
    },
    {
      "time": 12360,
      "track": 2,
      "noteNumber": 45,
      "velocity": 55,
      "ticks": 120
    },
    {
      "time": 12360,
      "track": 1,
      "noteNumber": 71,
      "velocity": 52,
      "ticks": 120
    },
    {
      "time": 12480,
      "track": 2,
      "noteNumber": 47,
      "velocity": 61,
      "ticks": 480
    },
    {
      "time": 12480,
      "track": 1,
      "noteNumber": 69,
      "velocity": 55,
      "ticks": 120
    },
    {
      "time": 12600,
      "track": 1,
      "noteNumber": 71,
      "velocity": 50,
      "ticks": 120
    },
    {
      "time": 12720,
      "track": 1,
      "noteNumber": 69,
      "velocity": 49,
      "ticks": 120
    },
    {
      "time": 12840,
      "track": 1,
      "noteNumber": 65,
      "velocity": 48,
      "ticks": 120
    },
    {
      "time": 12840,
      "track": 2,
      "noteNumber": 55,
      "velocity": 52,
      "ticks": 120
    },
    {
      "time": 12960,
      "track": 1,
      "noteNumber": 64,
      "velocity": 39,
      "ticks": 1125
    },
    {
      "time": 12960,
      "track": 2,
      "noteNumber": 48,
      "velocity": 45,
      "ticks": 1440
    },
    {
      "time": 12960,
      "track": 2,
      "noteNumber": 56,
      "velocity": 45,
      "ticks": 120
    },
    {
      "time": 12960,
      "track": 1,
      "noteNumber": 60,
      "velocity": 39,
      "ticks": 885
    },
    {
      "time": 13080,
      "track": 2,
      "noteNumber": 54,
      "velocity": 43,
      "ticks": 120
    },
    {
      "time": 13200,
      "track": 2,
      "noteNumber": 52,
      "velocity": 43,
      "ticks": 120
    },
    {
      "time": 13320,
      "track": 2,
      "noteNumber": 54,
      "velocity": 43,
      "ticks": 120
    },
    {
      "time": 13440,
      "track": 2,
      "noteNumber": 56,
      "velocity": 46,
      "ticks": 120
    },
    {
      "time": 13560,
      "track": 1,
      "noteNumber": 57,
      "velocity": 44,
      "ticks": 45
    },
    {
      "time": 13680,
      "track": 1,
      "noteNumber": 59,
      "velocity": 44,
      "ticks": 45
    },
    {
      "time": 13800,
      "track": 1,
      "noteNumber": 60,
      "velocity": 44,
      "ticks": 600
    },
    {
      "time": 13920,
      "track": 1,
      "noteNumber": 62,
      "velocity": 46,
      "ticks": 45
    },
    {
      "time": 14040,
      "track": 1,
      "noteNumber": 64,
      "velocity": 42,
      "ticks": 360
    },
    {
      "time": 14160,
      "track": 1,
      "noteNumber": 66,
      "velocity": 42,
      "ticks": 45
    },
    {
      "time": 14280,
      "track": 1,
      "noteNumber": 68,
      "velocity": 42,
      "ticks": 45
    },
    {
      "time": 14400,
      "track": 2,
      "noteNumber": 47,
      "velocity": 44,
      "ticks": 1440
    },
    {
      "time": 14400,
      "track": 1,
      "noteNumber": 62,
      "velocity": 40,
      "ticks": 1005
    },
    {
      "time": 14400,
      "track": 1,
      "noteNumber": 64,
      "velocity": 40,
      "ticks": 1125
    },
    {
      "time": 14400,
      "track": 2,
      "noteNumber": 56,
      "velocity": 44,
      "ticks": 120
    },
    {
      "time": 14520,
      "track": 2,
      "noteNumber": 54,
      "velocity": 40,
      "ticks": 120
    },
    {
      "time": 14640,
      "track": 2,
      "noteNumber": 52,
      "velocity": 40,
      "ticks": 120
    },
    {
      "time": 14760,
      "track": 2,
      "noteNumber": 54,
      "velocity": 40,
      "ticks": 120
    },
    {
      "time": 14880,
      "track": 2,
      "noteNumber": 56,
      "velocity": 44,
      "ticks": 120
    },
    {
      "time": 15000,
      "track": 1,
      "noteNumber": 57,
      "velocity": 40,
      "ticks": 45
    },
    {
      "time": 15120,
      "track": 1,
      "noteNumber": 59,
      "velocity": 40,
      "ticks": 45
    },
    {
      "time": 15240,
      "track": 1,
      "noteNumber": 60,
      "velocity": 40,
      "ticks": 45
    },
    {
      "time": 15360,
      "track": 1,
      "noteNumber": 62,
      "velocity": 44,
      "ticks": 480
    },
    {
      "time": 15480,
      "track": 1,
      "noteNumber": 64,
      "velocity": 38,
      "ticks": 360
    },
    {
      "time": 15600,
      "track": 1,
      "noteNumber": 66,
      "velocity": 37,
      "ticks": 45
    },
    {
      "time": 15720,
      "track": 1,
      "noteNumber": 68,
      "velocity": 34,
      "ticks": 45
    },
    {
      "time": 15840,
      "track": 2,
      "noteNumber": 38,
      "velocity": 44,
      "ticks": 30
    },
    {
      "time": 15840,
      "track": 1,
      "noteNumber": 57,
      "velocity": 44,
      "ticks": 30
    },
    {
      "time": 15960,
      "track": 1,
      "noteNumber": 59,
      "velocity": 42,
      "ticks": 30
    },
    {
      "time": 16080,
      "track": 1,
      "noteNumber": 60,
      "velocity": 44,
      "ticks": 30
    },
    {
      "time": 16080,
      "track": 1,
      "noteNumber": 65,
      "velocity": 39,
      "ticks": 30
    },
    {
      "time": 16080,
      "track": 1,
      "noteNumber": 69,
      "velocity": 39,
      "ticks": 30
    },
    {
      "time": 16080,
      "track": 2,
      "noteNumber": 45,
      "velocity": 39,
      "ticks": 30
    },
    {
      "time": 16080,
      "track": 2,
      "noteNumber": 53,
      "velocity": 39,
      "ticks": 30
    },
    {
      "time": 16200,
      "track": 1,
      "noteNumber": 62,
      "velocity": 42,
      "ticks": 30
    },
    {
      "time": 16320,
      "track": 1,
      "noteNumber": 59,
      "velocity": 44,
      "ticks": 100
    },
    {
      "time": 16320,
      "track": 2,
      "noteNumber": 38,
      "velocity": 44,
      "ticks": 120
    },
    {
      "time": 16440,
      "track": 1,
      "noteNumber": 59,
      "velocity": 40,
      "ticks": 60
    },
    {
      "time": 16500,
      "track": 1,
      "noteNumber": 60,
      "velocity": 40,
      "ticks": 60
    },
    {
      "time": 16560,
      "track": 1,
      "noteNumber": 69,
      "velocity": 39,
      "ticks": 120
    },
    {
      "time": 16560,
      "track": 1,
      "noteNumber": 59,
      "velocity": 42,
      "ticks": 120
    },
    {
      "time": 16560,
      "track": 1,
      "noteNumber": 65,
      "velocity": 39,
      "ticks": 120
    },
    {
      "time": 16560,
      "track": 2,
      "noteNumber": 45,
      "velocity": 39,
      "ticks": 30
    },
    {
      "time": 16560,
      "track": 2,
      "noteNumber": 53,
      "velocity": 39,
      "ticks": 30
    },
    {
      "time": 16680,
      "track": 1,
      "noteNumber": 57,
      "velocity": 42,
      "ticks": 90
    },
    {
      "time": 16800,
      "track": 2,
      "noteNumber": 38,
      "velocity": 44,
      "ticks": 45
    },
    {
      "time": 16800,
      "track": 1,
      "noteNumber": 59,
      "velocity": 44,
      "ticks": 45
    },
    {
      "time": 17040,
      "track": 2,
      "noteNumber": 45,
      "velocity": 44,
      "ticks": 30
    },
    {
      "time": 17040,
      "track": 2,
      "noteNumber": 53,
      "velocity": 44,
      "ticks": 30
    },
    {
      "time": 17040,
      "track": 1,
      "noteNumber": 60,
      "velocity": 39,
      "ticks": 30
    },
    {
      "time": 17040,
      "track": 1,
      "noteNumber": 69,
      "velocity": 39,
      "ticks": 30
    },
    {
      "time": 17040,
      "track": 1,
      "noteNumber": 65,
      "velocity": 39,
      "ticks": 30
    },
    {
      "time": 17280,
      "track": 2,
      "noteNumber": 38,
      "velocity": 44,
      "ticks": 30
    },
    {
      "time": 17280,
      "track": 1,
      "noteNumber": 59,
      "velocity": 44,
      "ticks": 120
    },
    {
      "time": 17400,
      "track": 1,
      "noteNumber": 60,
      "velocity": 42,
      "ticks": 120
    },
    {
      "time": 17520,
      "track": 2,
      "noteNumber": 54,
      "velocity": 39,
      "ticks": 30
    },
    {
      "time": 17520,
      "track": 2,
      "noteNumber": 45,
      "velocity": 39,
      "ticks": 30
    },
    {
      "time": 17520,
      "track": 1,
      "noteNumber": 69,
      "velocity": 39,
      "ticks": 240
    },
    {
      "time": 17520,
      "track": 1,
      "noteNumber": 72,
      "velocity": 39,
      "ticks": 240
    },
    {
      "time": 17520,
      "track": 1,
      "noteNumber": 62,
      "velocity": 44,
      "ticks": 60
    },
    {
      "time": 17640,
      "track": 1,
      "noteNumber": 64,
      "velocity": 42,
      "ticks": 60
    },
    {
      "time": 17760,
      "track": 1,
      "noteNumber": 66,
      "velocity": 44,
      "ticks": 60
    },
    {
      "time": 17760,
      "track": 2,
      "noteNumber": 38,
      "velocity": 44,
      "ticks": 120
    },
    {
      "time": 17880,
      "track": 1,
      "noteNumber": 66,
      "velocity": 42,
      "ticks": 40
    },
    {
      "time": 17920,
      "track": 1,
      "noteNumber": 67,
      "velocity": 40,
      "ticks": 40
    },
    {
      "time": 17960,
      "track": 1,
      "noteNumber": 66,
      "velocity": 40,
      "ticks": 40
    },
    {
      "time": 18000,
      "track": 1,
      "noteNumber": 69,
      "velocity": 38,
      "ticks": 240
    },
    {
      "time": 18000,
      "track": 2,
      "noteNumber": 54,
      "velocity": 39,
      "ticks": 30
    },
    {
      "time": 18000,
      "track": 1,
      "noteNumber": 64,
      "velocity": 44,
      "ticks": 120
    },
    {
      "time": 18000,
      "track": 2,
      "noteNumber": 45,
      "velocity": 39,
      "ticks": 30
    },
    {
      "time": 18000,
      "track": 1,
      "noteNumber": 72,
      "velocity": 38,
      "ticks": 240
    },
    {
      "time": 18120,
      "track": 1,
      "noteNumber": 62,
      "velocity": 42,
      "ticks": 120
    },
    {
      "time": 18240,
      "track": 1,
      "noteNumber": 60,
      "velocity": 44,
      "ticks": 100
    },
    {
      "time": 18240,
      "track": 2,
      "noteNumber": 38,
      "velocity": 44,
      "ticks": 120
    },
    {
      "time": 18360,
      "track": 1,
      "noteNumber": 62,
      "velocity": 40,
      "ticks": 100
    },
    {
      "time": 18480,
      "track": 1,
      "noteNumber": 69,
      "velocity": 40,
      "ticks": 240
    },
    {
      "time": 18480,
      "track": 1,
      "noteNumber": 72,
      "velocity": 40,
      "ticks": 240
    },
    {
      "time": 18480,
      "track": 2,
      "noteNumber": 45,
      "velocity": 39,
      "ticks": 30
    },
    {
      "time": 18480,
      "track": 2,
      "noteNumber": 54,
      "velocity": 39,
      "ticks": 30
    },
    {
      "time": 18480,
      "track": 1,
      "noteNumber": 64,
      "velocity": 40,
      "ticks": 240
    },
    {
      "time": 18720,
      "track": 2,
      "noteNumber": 38,
      "velocity": 44,
      "ticks": 30
    },
    {
      "time": 18720,
      "track": 1,
      "noteNumber": 69,
      "velocity": 44,
      "ticks": 30
    },
    {
      "time": 18840,
      "track": 1,
      "noteNumber": 71,
      "velocity": 42,
      "ticks": 30
    },
    {
      "time": 18960,
      "track": 1,
      "noteNumber": 72,
      "velocity": 44,
      "ticks": 30
    },
    {
      "time": 18960,
      "track": 2,
      "noteNumber": 53,
      "velocity": 39,
      "ticks": 30
    },
    {
      "time": 18960,
      "track": 2,
      "noteNumber": 45,
      "velocity": 39,
      "ticks": 30
    },
    {
      "time": 18960,
      "track": 1,
      "noteNumber": 65,
      "velocity": 39,
      "ticks": 30
    },
    {
      "time": 18960,
      "track": 1,
      "noteNumber": 62,
      "velocity": 39,
      "ticks": 30
    },
    {
      "time": 19080,
      "track": 1,
      "noteNumber": 74,
      "velocity": 43,
      "ticks": 30
    },
    {
      "time": 19200,
      "track": 2,
      "noteNumber": 38,
      "velocity": 45,
      "ticks": 120
    },
    {
      "time": 19200,
      "track": 1,
      "noteNumber": 71,
      "velocity": 45,
      "ticks": 100
    },
    {
      "time": 19320,
      "track": 1,
      "noteNumber": 71,
      "velocity": 43,
      "ticks": 60
    },
    {
      "time": 19380,
      "track": 1,
      "noteNumber": 72,
      "velocity": 43,
      "ticks": 60
    },
    {
      "time": 19440,
      "track": 1,
      "noteNumber": 71,
      "velocity": 44,
      "ticks": 120
    },
    {
      "time": 19440,
      "track": 1,
      "noteNumber": 65,
      "velocity": 42,
      "ticks": 120
    },
    {
      "time": 19440,
      "track": 1,
      "noteNumber": 62,
      "velocity": 42,
      "ticks": 120
    },
    {
      "time": 19440,
      "track": 2,
      "noteNumber": 53,
      "velocity": 42,
      "ticks": 30
    },
    {
      "time": 19440,
      "track": 2,
      "noteNumber": 45,
      "velocity": 42,
      "ticks": 30
    },
    {
      "time": 19560,
      "track": 1,
      "noteNumber": 69,
      "velocity": 44,
      "ticks": 90
    },
    {
      "time": 19680,
      "track": 2,
      "noteNumber": 38,
      "velocity": 48,
      "ticks": 45
    },
    {
      "time": 19680,
      "track": 1,
      "noteNumber": 71,
      "velocity": 48,
      "ticks": 45
    },
    {
      "time": 19920,
      "track": 2,
      "noteNumber": 53,
      "velocity": 49,
      "ticks": 30
    },
    {
      "time": 19920,
      "track": 1,
      "noteNumber": 65,
      "velocity": 43,
      "ticks": 30
    },
    {
      "time": 19920,
      "track": 1,
      "noteNumber": 62,
      "velocity": 43,
      "ticks": 30
    },
    {
      "time": 19920,
      "track": 1,
      "noteNumber": 72,
      "velocity": 43,
      "ticks": 30
    },
    {
      "time": 19920,
      "track": 2,
      "noteNumber": 45,
      "velocity": 49,
      "ticks": 30
    },
    {
      "time": 20160,
      "track": 1,
      "noteNumber": 71,
      "velocity": 50,
      "ticks": 120
    },
    {
      "time": 20160,
      "track": 2,
      "noteNumber": 38,
      "velocity": 50,
      "ticks": 30
    },
    {
      "time": 20280,
      "track": 1,
      "noteNumber": 72,
      "velocity": 48,
      "ticks": 120
    },
    {
      "time": 20400,
      "track": 1,
      "noteNumber": 72,
      "velocity": 44,
      "ticks": 240
    },
    {
      "time": 20400,
      "track": 2,
      "noteNumber": 62,
      "velocity": 50,
      "ticks": 60
    },
    {
      "time": 20400,
      "track": 1,
      "noteNumber": 69,
      "velocity": 44,
      "ticks": 240
    },
    {
      "time": 20400,
      "track": 1,
      "noteNumber": 74,
      "velocity": 52,
      "ticks": 60
    },
    {
      "time": 20520,
      "track": 2,
      "noteNumber": 64,
      "velocity": 48,
      "ticks": 60
    },
    {
      "time": 20520,
      "track": 1,
      "noteNumber": 76,
      "velocity": 50,
      "ticks": 60
    },
    {
      "time": 20640,
      "track": 2,
      "noteNumber": 66,
      "velocity": 50,
      "ticks": 60
    },
    {
      "time": 20640,
      "track": 1,
      "noteNumber": 78,
      "velocity": 52,
      "ticks": 60
    },
    {
      "time": 20760,
      "track": 2,
      "noteNumber": 66,
      "velocity": 48,
      "ticks": 40
    },
    {
      "time": 20760,
      "track": 1,
      "noteNumber": 78,
      "velocity": 48,
      "ticks": 40
    },
    {
      "time": 20800,
      "track": 2,
      "noteNumber": 67,
      "velocity": 46,
      "ticks": 40
    },
    {
      "time": 20800,
      "track": 1,
      "noteNumber": 79,
      "velocity": 48,
      "ticks": 40
    },
    {
      "time": 20840,
      "track": 2,
      "noteNumber": 66,
      "velocity": 46,
      "ticks": 40
    },
    {
      "time": 20840,
      "track": 1,
      "noteNumber": 78,
      "velocity": 48,
      "ticks": 40
    },
    {
      "time": 20880,
      "track": 1,
      "noteNumber": 76,
      "velocity": 52,
      "ticks": 120
    },
    {
      "time": 20880,
      "track": 2,
      "noteNumber": 64,
      "velocity": 50,
      "ticks": 120
    },
    {
      "time": 21000,
      "track": 1,
      "noteNumber": 74,
      "velocity": 50,
      "ticks": 120
    },
    {
      "time": 21000,
      "track": 2,
      "noteNumber": 62,
      "velocity": 48,
      "ticks": 120
    },
    {
      "time": 21120,
      "track": 1,
      "noteNumber": 72,
      "velocity": 52,
      "ticks": 120
    },
    {
      "time": 21120,
      "track": 2,
      "noteNumber": 60,
      "velocity": 50,
      "ticks": 120
    },
    {
      "time": 21240,
      "track": 1,
      "noteNumber": 74,
      "velocity": 48,
      "ticks": 120
    },
    {
      "time": 21240,
      "track": 2,
      "noteNumber": 62,
      "velocity": 46,
      "ticks": 120
    },
    {
      "time": 21360,
      "track": 1,
      "noteNumber": 76,
      "velocity": 48,
      "ticks": 480
    },
    {
      "time": 21360,
      "track": 2,
      "noteNumber": 64,
      "velocity": 46,
      "ticks": 480
    },
    {
      "time": 21600,
      "track": 1,
      "noteNumber": 69,
      "velocity": 45,
      "ticks": 120
    },
    {
      "time": 21600,
      "track": 1,
      "noteNumber": 72,
      "velocity": 50,
      "ticks": 120
    },
    {
      "time": 21600,
      "track": 2,
      "noteNumber": 57,
      "velocity": 45,
      "ticks": 120
    },
    {
      "time": 21600,
      "track": 2,
      "noteNumber": 60,
      "velocity": 50,
      "ticks": 120
    },
    {
      "time": 21720,
      "track": 2,
      "noteNumber": 62,
      "velocity": 46,
      "ticks": 120
    },
    {
      "time": 21720,
      "track": 1,
      "noteNumber": 74,
      "velocity": 48,
      "ticks": 120
    },
    {
      "time": 21840,
      "track": 2,
      "noteNumber": 55,
      "velocity": 40,
      "ticks": 220
    },
    {
      "time": 21840,
      "track": 2,
      "noteNumber": 59,
      "velocity": 40,
      "ticks": 220
    },
    {
      "time": 21840,
      "track": 1,
      "noteNumber": 76,
      "velocity": 48,
      "ticks": 220
    },
    {
      "time": 21840,
      "track": 1,
      "noteNumber": 71,
      "velocity": 40,
      "ticks": 220
    },
    {
      "time": 21840,
      "track": 1,
      "noteNumber": 67,
      "velocity": 40,
      "ticks": 220
    },
    {
      "time": 21840,
      "track": 2,
      "noteNumber": 64,
      "velocity": 46,
      "ticks": 220
    },
    {
      "time": 22080,
      "track": 1,
      "noteNumber": 69,
      "velocity": 46,
      "ticks": 120
    },
    {
      "time": 22080,
      "track": 1,
      "noteNumber": 66,
      "velocity": 40,
      "ticks": 240
    },
    {
      "time": 22080,
      "track": 2,
      "noteNumber": 57,
      "velocity": 44,
      "ticks": 120
    },
    {
      "time": 22080,
      "track": 2,
      "noteNumber": 54,
      "velocity": 40,
      "ticks": 240
    },
    {
      "time": 22200,
      "track": 1,
      "noteNumber": 71,
      "velocity": 45,
      "ticks": 120
    },
    {
      "time": 22200,
      "track": 2,
      "noteNumber": 59,
      "velocity": 43,
      "ticks": 120
    },
    {
      "time": 22320,
      "track": 2,
      "noteNumber": 53,
      "velocity": 39,
      "ticks": 240
    },
    {
      "time": 22320,
      "track": 2,
      "noteNumber": 56,
      "velocity": 39,
      "ticks": 240
    },
    {
      "time": 22320,
      "track": 1,
      "noteNumber": 72,
      "velocity": 46,
      "ticks": 460
    },
    {
      "time": 22320,
      "track": 1,
      "noteNumber": 68,
      "velocity": 39,
      "ticks": 240
    },
    {
      "time": 22320,
      "track": 1,
      "noteNumber": 65,
      "velocity": 39,
      "ticks": 240
    },
    {
      "time": 22320,
      "track": 2,
      "noteNumber": 60,
      "velocity": 44,
      "ticks": 460
    },
    {
      "time": 22560,
      "track": 2,
      "noteNumber": 52,
      "velocity": 39,
      "ticks": 240
    },
    {
      "time": 22560,
      "track": 1,
      "noteNumber": 67,
      "velocity": 38,
      "ticks": 240
    },
    {
      "time": 22560,
      "track": 1,
      "noteNumber": 64,
      "velocity": 38,
      "ticks": 240
    },
    {
      "time": 22560,
      "track": 2,
      "noteNumber": 55,
      "velocity": 39,
      "ticks": 240
    },
    {
      "time": 22800,
      "track": 2,
      "noteNumber": 51,
      "velocity": 34,
      "ticks": 240
    },
    {
      "time": 22800,
      "track": 2,
      "noteNumber": 56,
      "velocity": 38,
      "ticks": 480
    },
    {
      "time": 22800,
      "track": 1,
      "noteNumber": 68,
      "velocity": 37,
      "ticks": 480
    },
    {
      "time": 22800,
      "track": 1,
      "noteNumber": 63,
      "velocity": 34,
      "ticks": 240
    },
    {
      "time": 22800,
      "track": 1,
      "noteNumber": 66,
      "velocity": 34,
      "ticks": 240
    },
    {
      "time": 22800,
      "track": 2,
      "noteNumber": 54,
      "velocity": 34,
      "ticks": 240
    },
    {
      "time": 23040,
      "track": 1,
      "noteNumber": 62,
      "velocity": 31,
      "ticks": 240
    },
    {
      "time": 23040,
      "track": 1,
      "noteNumber": 65,
      "velocity": 31,
      "ticks": 240
    },
    {
      "time": 23040,
      "track": 2,
      "noteNumber": 53,
      "velocity": 33,
      "ticks": 240
    },
    {
      "time": 23040,
      "track": 2,
      "noteNumber": 50,
      "velocity": 33,
      "ticks": 240
    },
    {
      "time": 23280,
      "track": 1,
      "noteNumber": 61,
      "velocity": 32,
      "ticks": 240
    },
    {
      "time": 23280,
      "track": 1,
      "noteNumber": 64,
      "velocity": 32,
      "ticks": 1200
    },
    {
      "time": 23280,
      "track": 2,
      "noteNumber": 49,
      "velocity": 33,
      "ticks": 240
    },
    {
      "time": 23280,
      "track": 2,
      "noteNumber": 52,
      "velocity": 33,
      "ticks": 1200
    },
    {
      "time": 23520,
      "track": 2,
      "noteNumber": 48,
      "velocity": 33,
      "ticks": 90
    },
    {
      "time": 23520,
      "track": 1,
      "noteNumber": 60,
      "velocity": 32,
      "ticks": 90
    },
    {
      "time": 23760,
      "track": 1,
      "noteNumber": 59,
      "velocity": 31,
      "ticks": 90
    },
    {
      "time": 23760,
      "track": 2,
      "noteNumber": 47,
      "velocity": 32,
      "ticks": 90
    },
    {
      "time": 24000,
      "track": 1,
      "noteNumber": 62,
      "velocity": 31,
      "ticks": 90
    },
    {
      "time": 24000,
      "track": 2,
      "noteNumber": 50,
      "velocity": 31,
      "ticks": 90
    },
    {
      "time": 24000,
      "track": 2,
      "noteNumber": 46,
      "velocity": 31,
      "ticks": 90
    },
    {
      "time": 24000,
      "track": 1,
      "noteNumber": 58,
      "velocity": 31,
      "ticks": 90
    },
    {
      "time": 24240,
      "track": 2,
      "noteNumber": 40,
      "velocity": 37,
      "ticks": 90
    },
    {
      "time": 24480,
      "track": 2,
      "noteNumber": 33,
      "velocity": 34,
      "ticks": 220
    },
    {
      "time": 24720,
      "track": 1,
      "noteNumber": 60,
      "velocity": 38,
      "ticks": 45
    },
    {
      "time": 24720,
      "track": 1,
      "noteNumber": 64,
      "velocity": 38,
      "ticks": 45
    },
    {
      "time": 24720,
      "track": 1,
      "noteNumber": 69,
      "velocity": 45,
      "ticks": 45
    },
    {
      "time": 24720,
      "track": 2,
      "noteNumber": 57,
      "velocity": 44,
      "ticks": 45
    },
    {
      "time": 24840,
      "track": 1,
      "noteNumber": 62,
      "velocity": 33,
      "ticks": 45
    },
    {
      "time": 24840,
      "track": 1,
      "noteNumber": 59,
      "velocity": 33,
      "ticks": 45
    },
    {
      "time": 24840,
      "track": 2,
      "noteNumber": 52,
      "velocity": 38,
      "ticks": 45
    },
    {
      "time": 24840,
      "track": 1,
      "noteNumber": 64,
      "velocity": 39,
      "ticks": 45
    },
    {
      "time": 24960,
      "track": 1,
      "noteNumber": 64,
      "velocity": 39,
      "ticks": 34
    },
    {
      "time": 24960,
      "track": 2,
      "noteNumber": 52,
      "velocity": 38,
      "ticks": 34
    },
    {
      "time": 24960,
      "track": 1,
      "noteNumber": 62,
      "velocity": 33,
      "ticks": 34
    },
    {
      "time": 24960,
      "track": 1,
      "noteNumber": 59,
      "velocity": 33,
      "ticks": 34
    },
    {
      "time": 25080,
      "track": 2,
      "noteNumber": 57,
      "velocity": 38,
      "ticks": 45
    },
    {
      "time": 25080,
      "track": 1,
      "noteNumber": 60,
      "velocity": 33,
      "ticks": 45
    },
    {
      "time": 25080,
      "track": 1,
      "noteNumber": 64,
      "velocity": 33,
      "ticks": 45
    },
    {
      "time": 25080,
      "track": 1,
      "noteNumber": 69,
      "velocity": 39,
      "ticks": 45
    },
    {
      "time": 25200,
      "track": 2,
      "noteNumber": 57,
      "velocity": 44,
      "ticks": 45
    },
    {
      "time": 25200,
      "track": 1,
      "noteNumber": 69,
      "velocity": 44,
      "ticks": 45
    },
    {
      "time": 25200,
      "track": 1,
      "noteNumber": 60,
      "velocity": 37,
      "ticks": 45
    },
    {
      "time": 25200,
      "track": 1,
      "noteNumber": 64,
      "velocity": 37,
      "ticks": 45
    },
    {
      "time": 25320,
      "track": 1,
      "noteNumber": 64,
      "velocity": 44,
      "ticks": 45
    },
    {
      "time": 25320,
      "track": 1,
      "noteNumber": 62,
      "velocity": 37,
      "ticks": 45
    },
    {
      "time": 25320,
      "track": 2,
      "noteNumber": 52,
      "velocity": 44,
      "ticks": 45
    },
    {
      "time": 25320,
      "track": 1,
      "noteNumber": 59,
      "velocity": 37,
      "ticks": 45
    },
    {
      "time": 25440,
      "track": 2,
      "noteNumber": 52,
      "velocity": 39,
      "ticks": 34
    },
    {
      "time": 25440,
      "track": 1,
      "noteNumber": 59,
      "velocity": 34,
      "ticks": 34
    },
    {
      "time": 25440,
      "track": 1,
      "noteNumber": 64,
      "velocity": 40,
      "ticks": 34
    },
    {
      "time": 25440,
      "track": 1,
      "noteNumber": 62,
      "velocity": 34,
      "ticks": 34
    },
    {
      "time": 25560,
      "track": 1,
      "noteNumber": 69,
      "velocity": 43,
      "ticks": 45
    },
    {
      "time": 25560,
      "track": 1,
      "noteNumber": 60,
      "velocity": 36,
      "ticks": 45
    },
    {
      "time": 25560,
      "track": 2,
      "noteNumber": 45,
      "velocity": 42,
      "ticks": 45
    },
    {
      "time": 25560,
      "track": 1,
      "noteNumber": 64,
      "velocity": 36,
      "ticks": 45
    },
    {
      "time": 25680,
      "track": 1,
      "noteNumber": 71,
      "velocity": 49,
      "ticks": 34
    },
    {
      "time": 25680,
      "track": 2,
      "noteNumber": 40,
      "velocity": 49,
      "ticks": 34
    },
    {
      "time": 25680,
      "track": 1,
      "noteNumber": 62,
      "velocity": 41,
      "ticks": 34
    },
    {
      "time": 25680,
      "track": 1,
      "noteNumber": 67,
      "velocity": 41,
      "ticks": 34
    },
    {
      "time": 25920,
      "track": 1,
      "noteNumber": 81,
      "velocity": 78,
      "ticks": 230
    },
    {
      "time": 25920,
      "track": 2,
      "noteNumber": 33,
      "velocity": 68,
      "ticks": 230
    },
    {
      "time": 25920,
      "track": 1,
      "noteNumber": 69,
      "velocity": 68,
      "ticks": 230
    },
    {
      "time": 26160,
      "track": 1,
      "noteNumber": 60,
      "velocity": 38,
      "ticks": 45
    },
    {
      "time": 26160,
      "track": 1,
      "noteNumber": 69,
      "velocity": 45,
      "ticks": 45
    },
    {
      "time": 26160,
      "track": 2,
      "noteNumber": 57,
      "velocity": 44,
      "ticks": 45
    },
    {
      "time": 26160,
      "track": 1,
      "noteNumber": 64,
      "velocity": 38,
      "ticks": 45
    },
    {
      "time": 26280,
      "track": 1,
      "noteNumber": 62,
      "velocity": 33,
      "ticks": 45
    },
    {
      "time": 26280,
      "track": 1,
      "noteNumber": 59,
      "velocity": 33,
      "ticks": 45
    },
    {
      "time": 26280,
      "track": 2,
      "noteNumber": 52,
      "velocity": 38,
      "ticks": 45
    },
    {
      "time": 26280,
      "track": 1,
      "noteNumber": 64,
      "velocity": 39,
      "ticks": 45
    },
    {
      "time": 26400,
      "track": 1,
      "noteNumber": 59,
      "velocity": 33,
      "ticks": 34
    },
    {
      "time": 26400,
      "track": 1,
      "noteNumber": 64,
      "velocity": 39,
      "ticks": 34
    },
    {
      "time": 26400,
      "track": 1,
      "noteNumber": 62,
      "velocity": 33,
      "ticks": 34
    },
    {
      "time": 26400,
      "track": 2,
      "noteNumber": 52,
      "velocity": 38,
      "ticks": 34
    },
    {
      "time": 26520,
      "track": 1,
      "noteNumber": 60,
      "velocity": 33,
      "ticks": 45
    },
    {
      "time": 26520,
      "track": 1,
      "noteNumber": 64,
      "velocity": 33,
      "ticks": 45
    },
    {
      "time": 26520,
      "track": 2,
      "noteNumber": 57,
      "velocity": 38,
      "ticks": 45
    },
    {
      "time": 26520,
      "track": 1,
      "noteNumber": 69,
      "velocity": 39,
      "ticks": 45
    },
    {
      "time": 26640,
      "track": 1,
      "noteNumber": 69,
      "velocity": 44,
      "ticks": 45
    },
    {
      "time": 26640,
      "track": 1,
      "noteNumber": 60,
      "velocity": 37,
      "ticks": 45
    },
    {
      "time": 26640,
      "track": 2,
      "noteNumber": 57,
      "velocity": 44,
      "ticks": 45
    },
    {
      "time": 26640,
      "track": 1,
      "noteNumber": 64,
      "velocity": 37,
      "ticks": 45
    },
    {
      "time": 26760,
      "track": 1,
      "noteNumber": 59,
      "velocity": 37,
      "ticks": 45
    },
    {
      "time": 26760,
      "track": 1,
      "noteNumber": 62,
      "velocity": 37,
      "ticks": 45
    },
    {
      "time": 26760,
      "track": 1,
      "noteNumber": 64,
      "velocity": 44,
      "ticks": 45
    },
    {
      "time": 26760,
      "track": 2,
      "noteNumber": 52,
      "velocity": 44,
      "ticks": 45
    },
    {
      "time": 26880,
      "track": 1,
      "noteNumber": 64,
      "velocity": 40,
      "ticks": 34
    },
    {
      "time": 26880,
      "track": 1,
      "noteNumber": 62,
      "velocity": 34,
      "ticks": 34
    },
    {
      "time": 26880,
      "track": 1,
      "noteNumber": 59,
      "velocity": 34,
      "ticks": 34
    },
    {
      "time": 26880,
      "track": 2,
      "noteNumber": 52,
      "velocity": 39,
      "ticks": 34
    },
    {
      "time": 27000,
      "track": 1,
      "noteNumber": 69,
      "velocity": 46,
      "ticks": 45
    },
    {
      "time": 27000,
      "track": 1,
      "noteNumber": 60,
      "velocity": 39,
      "ticks": 45
    },
    {
      "time": 27000,
      "track": 1,
      "noteNumber": 64,
      "velocity": 39,
      "ticks": 45
    },
    {
      "time": 27000,
      "track": 2,
      "noteNumber": 45,
      "velocity": 46,
      "ticks": 45
    },
    {
      "time": 27120,
      "track": 2,
      "noteNumber": 43,
      "velocity": 51,
      "ticks": 34
    },
    {
      "time": 27120,
      "track": 1,
      "noteNumber": 71,
      "velocity": 51,
      "ticks": 34
    },
    {
      "time": 27120,
      "track": 1,
      "noteNumber": 62,
      "velocity": 43,
      "ticks": 34
    },
    {
      "time": 27120,
      "track": 1,
      "noteNumber": 67,
      "velocity": 43,
      "ticks": 34
    },
    {
      "time": 27360,
      "track": 2,
      "noteNumber": 36,
      "velocity": 69,
      "ticks": 230
    },
    {
      "time": 27360,
      "track": 1,
      "noteNumber": 72,
      "velocity": 69,
      "ticks": 230
    },
    {
      "time": 27360,
      "track": 1,
      "noteNumber": 84,
      "velocity": 79,
      "ticks": 230
    },
    {
      "time": 27600,
      "track": 1,
      "noteNumber": 67,
      "velocity": 42,
      "ticks": 45
    },
    {
      "time": 27600,
      "track": 1,
      "noteNumber": 72,
      "velocity": 50,
      "ticks": 45
    },
    {
      "time": 27600,
      "track": 2,
      "noteNumber": 60,
      "velocity": 49,
      "ticks": 45
    },
    {
      "time": 27600,
      "track": 1,
      "noteNumber": 64,
      "velocity": 42,
      "ticks": 45
    },
    {
      "time": 27720,
      "track": 1,
      "noteNumber": 65,
      "velocity": 36,
      "ticks": 45
    },
    {
      "time": 27720,
      "track": 2,
      "noteNumber": 55,
      "velocity": 42,
      "ticks": 45
    },
    {
      "time": 27720,
      "track": 1,
      "noteNumber": 62,
      "velocity": 36,
      "ticks": 45
    },
    {
      "time": 27720,
      "track": 1,
      "noteNumber": 67,
      "velocity": 43,
      "ticks": 45
    },
    {
      "time": 27840,
      "track": 1,
      "noteNumber": 67,
      "velocity": 43,
      "ticks": 34
    },
    {
      "time": 27840,
      "track": 2,
      "noteNumber": 55,
      "velocity": 42,
      "ticks": 34
    },
    {
      "time": 27840,
      "track": 1,
      "noteNumber": 62,
      "velocity": 36,
      "ticks": 34
    },
    {
      "time": 27840,
      "track": 1,
      "noteNumber": 65,
      "velocity": 36,
      "ticks": 34
    },
    {
      "time": 27960,
      "track": 1,
      "noteNumber": 64,
      "velocity": 36,
      "ticks": 45
    },
    {
      "time": 27960,
      "track": 2,
      "noteNumber": 60,
      "velocity": 42,
      "ticks": 45
    },
    {
      "time": 27960,
      "track": 1,
      "noteNumber": 67,
      "velocity": 36,
      "ticks": 45
    },
    {
      "time": 27960,
      "track": 1,
      "noteNumber": 72,
      "velocity": 43,
      "ticks": 45
    },
    {
      "time": 28080,
      "track": 2,
      "noteNumber": 60,
      "velocity": 49,
      "ticks": 45
    },
    {
      "time": 28080,
      "track": 1,
      "noteNumber": 64,
      "velocity": 41,
      "ticks": 45
    },
    {
      "time": 28080,
      "track": 1,
      "noteNumber": 67,
      "velocity": 41,
      "ticks": 45
    },
    {
      "time": 28080,
      "track": 1,
      "noteNumber": 72,
      "velocity": 49,
      "ticks": 45
    },
    {
      "time": 28200,
      "track": 1,
      "noteNumber": 65,
      "velocity": 41,
      "ticks": 45
    },
    {
      "time": 28200,
      "track": 1,
      "noteNumber": 67,
      "velocity": 49,
      "ticks": 45
    },
    {
      "time": 28200,
      "track": 2,
      "noteNumber": 55,
      "velocity": 49,
      "ticks": 45
    },
    {
      "time": 28200,
      "track": 1,
      "noteNumber": 62,
      "velocity": 41,
      "ticks": 45
    },
    {
      "time": 28320,
      "track": 2,
      "noteNumber": 55,
      "velocity": 43,
      "ticks": 34
    },
    {
      "time": 28320,
      "track": 1,
      "noteNumber": 62,
      "velocity": 37,
      "ticks": 34
    },
    {
      "time": 28320,
      "track": 1,
      "noteNumber": 67,
      "velocity": 44,
      "ticks": 34
    },
    {
      "time": 28320,
      "track": 1,
      "noteNumber": 65,
      "velocity": 37,
      "ticks": 34
    },
    {
      "time": 28440,
      "track": 2,
      "noteNumber": 48,
      "velocity": 51,
      "ticks": 45
    },
    {
      "time": 28440,
      "track": 1,
      "noteNumber": 64,
      "velocity": 43,
      "ticks": 45
    },
    {
      "time": 28440,
      "track": 1,
      "noteNumber": 67,
      "velocity": 43,
      "ticks": 45
    },
    {
      "time": 28440,
      "track": 1,
      "noteNumber": 72,
      "velocity": 51,
      "ticks": 45
    },
    {
      "time": 28560,
      "track": 2,
      "noteNumber": 43,
      "velocity": 56,
      "ticks": 34
    },
    {
      "time": 28560,
      "track": 1,
      "noteNumber": 70,
      "velocity": 47,
      "ticks": 34
    },
    {
      "time": 28560,
      "track": 1,
      "noteNumber": 65,
      "velocity": 47,
      "ticks": 34
    },
    {
      "time": 28560,
      "track": 1,
      "noteNumber": 74,
      "velocity": 56,
      "ticks": 34
    },
    {
      "time": 28800,
      "track": 2,
      "noteNumber": 36,
      "velocity": 75,
      "ticks": 230
    },
    {
      "time": 28800,
      "track": 1,
      "noteNumber": 84,
      "velocity": 88,
      "ticks": 230
    },
    {
      "time": 28800,
      "track": 1,
      "noteNumber": 72,
      "velocity": 75,
      "ticks": 230
    },
    {
      "time": 29040,
      "track": 2,
      "noteNumber": 60,
      "velocity": 56,
      "ticks": 45
    },
    {
      "time": 29040,
      "track": 1,
      "noteNumber": 64,
      "velocity": 48,
      "ticks": 45
    },
    {
      "time": 29040,
      "track": 1,
      "noteNumber": 67,
      "velocity": 48,
      "ticks": 45
    },
    {
      "time": 29040,
      "track": 1,
      "noteNumber": 72,
      "velocity": 57,
      "ticks": 45
    },
    {
      "time": 29160,
      "track": 1,
      "noteNumber": 65,
      "velocity": 41,
      "ticks": 45
    },
    {
      "time": 29160,
      "track": 2,
      "noteNumber": 55,
      "velocity": 48,
      "ticks": 45
    },
    {
      "time": 29160,
      "track": 1,
      "noteNumber": 62,
      "velocity": 41,
      "ticks": 45
    },
    {
      "time": 29160,
      "track": 1,
      "noteNumber": 67,
      "velocity": 49,
      "ticks": 45
    },
    {
      "time": 29280,
      "track": 1,
      "noteNumber": 67,
      "velocity": 49,
      "ticks": 34
    },
    {
      "time": 29280,
      "track": 2,
      "noteNumber": 55,
      "velocity": 48,
      "ticks": 34
    },
    {
      "time": 29280,
      "track": 1,
      "noteNumber": 65,
      "velocity": 41,
      "ticks": 34
    },
    {
      "time": 29280,
      "track": 1,
      "noteNumber": 62,
      "velocity": 41,
      "ticks": 34
    },
    {
      "time": 29400,
      "track": 2,
      "noteNumber": 60,
      "velocity": 48,
      "ticks": 45
    },
    {
      "time": 29400,
      "track": 1,
      "noteNumber": 72,
      "velocity": 49,
      "ticks": 45
    },
    {
      "time": 29400,
      "track": 1,
      "noteNumber": 64,
      "velocity": 41,
      "ticks": 45
    },
    {
      "time": 29400,
      "track": 1,
      "noteNumber": 67,
      "velocity": 41,
      "ticks": 45
    },
    {
      "time": 29520,
      "track": 1,
      "noteNumber": 67,
      "velocity": 47,
      "ticks": 45
    },
    {
      "time": 29520,
      "track": 1,
      "noteNumber": 72,
      "velocity": 56,
      "ticks": 45
    },
    {
      "time": 29520,
      "track": 1,
      "noteNumber": 64,
      "velocity": 47,
      "ticks": 45
    },
    {
      "time": 29520,
      "track": 2,
      "noteNumber": 60,
      "velocity": 56,
      "ticks": 45
    },
    {
      "time": 29640,
      "track": 1,
      "noteNumber": 62,
      "velocity": 47,
      "ticks": 45
    },
    {
      "time": 29640,
      "track": 1,
      "noteNumber": 65,
      "velocity": 47,
      "ticks": 45
    },
    {
      "time": 29640,
      "track": 2,
      "noteNumber": 55,
      "velocity": 56,
      "ticks": 45
    },
    {
      "time": 29640,
      "track": 1,
      "noteNumber": 67,
      "velocity": 56,
      "ticks": 45
    },
    {
      "time": 29760,
      "track": 1,
      "noteNumber": 67,
      "velocity": 50,
      "ticks": 34
    },
    {
      "time": 29760,
      "track": 1,
      "noteNumber": 62,
      "velocity": 42,
      "ticks": 34
    },
    {
      "time": 29760,
      "track": 1,
      "noteNumber": 65,
      "velocity": 42,
      "ticks": 34
    },
    {
      "time": 29760,
      "track": 2,
      "noteNumber": 55,
      "velocity": 49,
      "ticks": 34
    },
    {
      "time": 29880,
      "track": 1,
      "noteNumber": 64,
      "velocity": 49,
      "ticks": 45
    },
    {
      "time": 29880,
      "track": 1,
      "noteNumber": 72,
      "velocity": 58,
      "ticks": 45
    },
    {
      "time": 29880,
      "track": 2,
      "noteNumber": 60,
      "velocity": 58,
      "ticks": 45
    },
    {
      "time": 29880,
      "track": 1,
      "noteNumber": 67,
      "velocity": 49,
      "ticks": 45
    },
    {
      "time": 30000,
      "track": 1,
      "noteNumber": 65,
      "velocity": 55,
      "ticks": 240
    },
    {
      "time": 30000,
      "track": 1,
      "noteNumber": 70,
      "velocity": 55,
      "ticks": 240
    },
    {
      "time": 30000,
      "track": 1,
      "noteNumber": 74,
      "velocity": 65,
      "ticks": 240
    },
    {
      "time": 30000,
      "track": 2,
      "noteNumber": 58,
      "velocity": 65,
      "ticks": 240
    },
    {
      "time": 30240,
      "track": 2,
      "noteNumber": 63,
      "velocity": 57,
      "ticks": 360
    },
    {
      "time": 30240,
      "track": 1,
      "noteNumber": 75,
      "velocity": 62,
      "ticks": 120
    },
    {
      "time": 30240,
      "track": 1,
      "noteNumber": 70,
      "velocity": 57,
      "ticks": 1440
    },
    {
      "time": 30240,
      "track": 2,
      "noteNumber": 67,
      "velocity": 57,
      "ticks": 360
    },
    {
      "time": 30360,
      "track": 1,
      "noteNumber": 74,
      "velocity": 60,
      "ticks": 120
    },
    {
      "time": 30480,
      "track": 1,
      "noteNumber": 75,
      "velocity": 63,
      "ticks": 360
    },
    {
      "time": 30600,
      "track": 2,
      "noteNumber": 58,
      "velocity": 52,
      "ticks": 120
    },
    {
      "time": 30600,
      "track": 2,
      "noteNumber": 65,
      "velocity": 52,
      "ticks": 120
    },
    {
      "time": 30720,
      "track": 2,
      "noteNumber": 63,
      "velocity": 57,
      "ticks": 360
    },
    {
      "time": 30720,
      "track": 2,
      "noteNumber": 67,
      "velocity": 57,
      "ticks": 360
    },
    {
      "time": 30840,
      "track": 1,
      "noteNumber": 74,
      "velocity": 60,
      "ticks": 120
    },
    {
      "time": 30960,
      "track": 1,
      "noteNumber": 75,
      "velocity": 63,
      "ticks": 360
    },
    {
      "time": 31080,
      "track": 2,
      "noteNumber": 65,
      "velocity": 52,
      "ticks": 120
    },
    {
      "time": 31080,
      "track": 2,
      "noteNumber": 69,
      "velocity": 52,
      "ticks": 120
    },
    {
      "time": 31200,
      "track": 2,
      "noteNumber": 63,
      "velocity": 58,
      "ticks": 360
    },
    {
      "time": 31200,
      "track": 2,
      "noteNumber": 67,
      "velocity": 58,
      "ticks": 360
    },
    {
      "time": 31320,
      "track": 1,
      "noteNumber": 74,
      "velocity": 61,
      "ticks": 120
    },
    {
      "time": 31440,
      "track": 1,
      "noteNumber": 75,
      "velocity": 64,
      "ticks": 360
    },
    {
      "time": 31560,
      "track": 2,
      "noteNumber": 58,
      "velocity": 54,
      "ticks": 120
    },
    {
      "time": 31560,
      "track": 2,
      "noteNumber": 65,
      "velocity": 54,
      "ticks": 120
    },
    {
      "time": 31680,
      "track": 2,
      "noteNumber": 57,
      "velocity": 57,
      "ticks": 480
    },
    {
      "time": 31680,
      "track": 2,
      "noteNumber": 67,
      "velocity": 57,
      "ticks": 480
    },
    {
      "time": 31800,
      "track": 1,
      "noteNumber": 74,
      "velocity": 60,
      "ticks": 120
    },
    {
      "time": 31920,
      "track": 1,
      "noteNumber": 75,
      "velocity": 60,
      "ticks": 120
    },
    {
      "time": 32040,
      "track": 1,
      "noteNumber": 79,
      "velocity": 62,
      "ticks": 120
    },
    {
      "time": 32160,
      "track": 2,
      "noteNumber": 50,
      "velocity": 52,
      "ticks": 940
    },
    {
      "time": 32160,
      "track": 1,
      "noteNumber": 67,
      "velocity": 48,
      "ticks": 120
    },
    {
      "time": 32160,
      "track": 1,
      "noteNumber": 74,
      "velocity": 62,
      "ticks": 940
    },
    {
      "time": 32160,
      "track": 2,
      "noteNumber": 57,
      "velocity": 52,
      "ticks": 940
    },
    {
      "time": 32280,
      "track": 1,
      "noteNumber": 69,
      "velocity": 52,
      "ticks": 120
    },
    {
      "time": 32400,
      "track": 1,
      "noteNumber": 67,
      "velocity": 51,
      "ticks": 120
    },
    {
      "time": 32520,
      "track": 1,
      "noteNumber": 64,
      "velocity": 46,
      "ticks": 120
    },
    {
      "time": 32640,
      "track": 1,
      "noteNumber": 67,
      "velocity": 48,
      "ticks": 120
    },
    {
      "time": 32760,
      "track": 1,
      "noteNumber": 69,
      "velocity": 45,
      "ticks": 120
    },
    {
      "time": 32880,
      "track": 1,
      "noteNumber": 67,
      "velocity": 44,
      "ticks": 120
    },
    {
      "time": 33000,
      "track": 1,
      "noteNumber": 64,
      "velocity": 38,
      "ticks": 100
    },
    {
      "time": 33120,
      "track": 2,
      "noteNumber": 62,
      "velocity": 51,
      "ticks": 360
    },
    {
      "time": 33120,
      "track": 1,
      "noteNumber": 74,
      "velocity": 55,
      "ticks": 120
    },
    {
      "time": 33120,
      "track": 1,
      "noteNumber": 69,
      "velocity": 50,
      "ticks": 1440
    },
    {
      "time": 33120,
      "track": 2,
      "noteNumber": 65,
      "velocity": 51,
      "ticks": 360
    },
    {
      "time": 33240,
      "track": 1,
      "noteNumber": 72,
      "velocity": 54,
      "ticks": 120
    },
    {
      "time": 33360,
      "track": 1,
      "noteNumber": 74,
      "velocity": 56,
      "ticks": 360
    },
    {
      "time": 33480,
      "track": 2,
      "noteNumber": 57,
      "velocity": 46,
      "ticks": 120
    },
    {
      "time": 33480,
      "track": 2,
      "noteNumber": 64,
      "velocity": 46,
      "ticks": 120
    },
    {
      "time": 33600,
      "track": 2,
      "noteNumber": 65,
      "velocity": 51,
      "ticks": 360
    },
    {
      "time": 33600,
      "track": 2,
      "noteNumber": 62,
      "velocity": 51,
      "ticks": 360
    },
    {
      "time": 33720,
      "track": 1,
      "noteNumber": 72,
      "velocity": 54,
      "ticks": 120
    },
    {
      "time": 33840,
      "track": 1,
      "noteNumber": 74,
      "velocity": 56,
      "ticks": 360
    },
    {
      "time": 33960,
      "track": 2,
      "noteNumber": 67,
      "velocity": 46,
      "ticks": 120
    },
    {
      "time": 33960,
      "track": 2,
      "noteNumber": 64,
      "velocity": 46,
      "ticks": 120
    },
    {
      "time": 34080,
      "track": 2,
      "noteNumber": 65,
      "velocity": 52,
      "ticks": 360
    },
    {
      "time": 34080,
      "track": 2,
      "noteNumber": 62,
      "velocity": 52,
      "ticks": 360
    },
    {
      "time": 34200,
      "track": 1,
      "noteNumber": 72,
      "velocity": 54,
      "ticks": 120
    },
    {
      "time": 34320,
      "track": 1,
      "noteNumber": 74,
      "velocity": 57,
      "ticks": 360
    },
    {
      "time": 34440,
      "track": 2,
      "noteNumber": 57,
      "velocity": 48,
      "ticks": 120
    },
    {
      "time": 34440,
      "track": 2,
      "noteNumber": 64,
      "velocity": 48,
      "ticks": 120
    },
    {
      "time": 34560,
      "track": 2,
      "noteNumber": 65,
      "velocity": 51,
      "ticks": 480
    },
    {
      "time": 34560,
      "track": 2,
      "noteNumber": 55,
      "velocity": 51,
      "ticks": 480
    },
    {
      "time": 34560,
      "track": 1,
      "noteNumber": 70,
      "velocity": 51,
      "ticks": 480
    },
    {
      "time": 34680,
      "track": 1,
      "noteNumber": 72,
      "velocity": 55,
      "ticks": 120
    },
    {
      "time": 34800,
      "track": 1,
      "noteNumber": 74,
      "velocity": 55,
      "ticks": 120
    },
    {
      "time": 34920,
      "track": 1,
      "noteNumber": 77,
      "velocity": 57,
      "ticks": 120
    },
    {
      "time": 35040,
      "track": 2,
      "noteNumber": 55,
      "velocity": 46,
      "ticks": 1440
    },
    {
      "time": 35040,
      "track": 1,
      "noteNumber": 65,
      "velocity": 43,
      "ticks": 120
    },
    {
      "time": 35040,
      "track": 1,
      "noteNumber": 70,
      "velocity": 55,
      "ticks": 1440
    },
    {
      "time": 35040,
      "track": 2,
      "noteNumber": 48,
      "velocity": 46,
      "ticks": 960
    },
    {
      "time": 35160,
      "track": 1,
      "noteNumber": 63,
      "velocity": 46,
      "ticks": 120
    },
    {
      "time": 35280,
      "track": 1,
      "noteNumber": 62,
      "velocity": 45,
      "ticks": 120
    },
    {
      "time": 35400,
      "track": 1,
      "noteNumber": 63,
      "velocity": 44,
      "ticks": 120
    },
    {
      "time": 35520,
      "track": 1,
      "noteNumber": 65,
      "velocity": 43,
      "ticks": 120
    },
    {
      "time": 35640,
      "track": 1,
      "noteNumber": 63,
      "velocity": 40,
      "ticks": 120
    },
    {
      "time": 35760,
      "track": 1,
      "noteNumber": 62,
      "velocity": 39,
      "ticks": 120
    },
    {
      "time": 35880,
      "track": 1,
      "noteNumber": 63,
      "velocity": 38,
      "ticks": 240
    },
    {
      "time": 36000,
      "track": 2,
      "noteNumber": 41,
      "velocity": 46,
      "ticks": 2880
    },
    {
      "time": 36120,
      "track": 1,
      "noteNumber": 62,
      "velocity": 46,
      "ticks": 120
    },
    {
      "time": 36240,
      "track": 1,
      "noteNumber": 60,
      "velocity": 46,
      "ticks": 120
    },
    {
      "time": 36360,
      "track": 1,
      "noteNumber": 63,
      "velocity": 46,
      "ticks": 240
    },
    {
      "time": 36480,
      "track": 1,
      "noteNumber": 69,
      "velocity": 55,
      "ticks": 500
    },
    {
      "time": 36480,
      "track": 2,
      "noteNumber": 53,
      "velocity": 38,
      "ticks": 500
    },
    {
      "time": 36600,
      "track": 1,
      "noteNumber": 62,
      "velocity": 34,
      "ticks": 120
    },
    {
      "time": 36720,
      "track": 1,
      "noteNumber": 60,
      "velocity": 34,
      "ticks": 120
    },
    {
      "time": 36840,
      "track": 1,
      "noteNumber": 63,
      "velocity": 34,
      "ticks": 120
    },
    {
      "time": 36960,
      "track": 1,
      "noteNumber": 67,
      "velocity": 54,
      "ticks": 500
    },
    {
      "time": 36960,
      "track": 2,
      "noteNumber": 51,
      "velocity": 38,
      "ticks": 500
    },
    {
      "time": 36960,
      "track": 1,
      "noteNumber": 60,
      "velocity": 38,
      "ticks": 120
    },
    {
      "time": 37080,
      "track": 1,
      "noteNumber": 58,
      "velocity": 36,
      "ticks": 120
    },
    {
      "time": 37200,
      "track": 1,
      "noteNumber": 57,
      "velocity": 36,
      "ticks": 120
    },
    {
      "time": 37320,
      "track": 1,
      "noteNumber": 60,
      "velocity": 36,
      "ticks": 240
    },
    {
      "time": 37440,
      "track": 2,
      "noteNumber": 50,
      "velocity": 38,
      "ticks": 720
    },
    {
      "time": 37440,
      "track": 1,
      "noteNumber": 65,
      "velocity": 54,
      "ticks": 720
    },
    {
      "time": 37560,
      "track": 1,
      "noteNumber": 58,
      "velocity": 34,
      "ticks": 120
    },
    {
      "time": 37680,
      "track": 1,
      "noteNumber": 57,
      "velocity": 34,
      "ticks": 120
    },
    {
      "time": 37800,
      "track": 1,
      "noteNumber": 60,
      "velocity": 34,
      "ticks": 120
    },
    {
      "time": 37920,
      "track": 1,
      "noteNumber": 58,
      "velocity": 34,
      "ticks": 120
    },
    {
      "time": 38040,
      "track": 1,
      "noteNumber": 62,
      "velocity": 34,
      "ticks": 120
    },
    {
      "time": 38160,
      "track": 1,
      "noteNumber": 67,
      "velocity": 52,
      "ticks": 260
    },
    {
      "time": 38160,
      "track": 2,
      "noteNumber": 53,
      "velocity": 39,
      "ticks": 260
    },
    {
      "time": 38160,
      "track": 1,
      "noteNumber": 65,
      "velocity": 38,
      "ticks": 120
    },
    {
      "time": 38280,
      "track": 1,
      "noteNumber": 62,
      "velocity": 36,
      "ticks": 120
    },
    {
      "time": 38400,
      "track": 1,
      "noteNumber": 67,
      "velocity": 39,
      "ticks": 120
    },
    {
      "time": 38400,
      "track": 2,
      "noteNumber": 55,
      "velocity": 40,
      "ticks": 260
    },
    {
      "time": 38400,
      "track": 1,
      "noteNumber": 70,
      "velocity": 57,
      "ticks": 260
    },
    {
      "time": 38520,
      "track": 1,
      "noteNumber": 65,
      "velocity": 36,
      "ticks": 120
    },
    {
      "time": 38640,
      "track": 1,
      "noteNumber": 70,
      "velocity": 40,
      "ticks": 120
    },
    {
      "time": 38640,
      "track": 2,
      "noteNumber": 58,
      "velocity": 38,
      "ticks": 240
    },
    {
      "time": 38640,
      "track": 1,
      "noteNumber": 74,
      "velocity": 55,
      "ticks": 240
    },
    {
      "time": 38760,
      "track": 1,
      "noteNumber": 67,
      "velocity": 37,
      "ticks": 120
    },
    {
      "time": 38880,
      "track": 2,
      "noteNumber": 41,
      "velocity": 46,
      "ticks": 2880
    },
    {
      "time": 38880,
      "track": 1,
      "noteNumber": 63,
      "velocity": 30,
      "ticks": 120
    },
    {
      "time": 38880,
      "track": 1,
      "noteNumber": 70,
      "velocity": 55,
      "ticks": 500
    },
    {
      "time": 39000,
      "track": 1,
      "noteNumber": 62,
      "velocity": 37,
      "ticks": 120
    },
    {
      "time": 39120,
      "track": 1,
      "noteNumber": 60,
      "velocity": 37,
      "ticks": 120
    },
    {
      "time": 39240,
      "track": 1,
      "noteNumber": 63,
      "velocity": 37,
      "ticks": 240
    },
    {
      "time": 39360,
      "track": 2,
      "noteNumber": 53,
      "velocity": 38,
      "ticks": 500
    },
    {
      "time": 39360,
      "track": 1,
      "noteNumber": 69,
      "velocity": 55,
      "ticks": 500
    },
    {
      "time": 39480,
      "track": 1,
      "noteNumber": 62,
      "velocity": 34,
      "ticks": 120
    },
    {
      "time": 39600,
      "track": 1,
      "noteNumber": 60,
      "velocity": 34,
      "ticks": 120
    },
    {
      "time": 39720,
      "track": 1,
      "noteNumber": 63,
      "velocity": 34,
      "ticks": 120
    },
    {
      "time": 39840,
      "track": 2,
      "noteNumber": 51,
      "velocity": 38,
      "ticks": 500
    },
    {
      "time": 39840,
      "track": 1,
      "noteNumber": 67,
      "velocity": 54,
      "ticks": 500
    },
    {
      "time": 39840,
      "track": 1,
      "noteNumber": 60,
      "velocity": 38,
      "ticks": 120
    },
    {
      "time": 39960,
      "track": 1,
      "noteNumber": 58,
      "velocity": 36,
      "ticks": 120
    },
    {
      "time": 40080,
      "track": 1,
      "noteNumber": 57,
      "velocity": 36,
      "ticks": 120
    },
    {
      "time": 40200,
      "track": 1,
      "noteNumber": 60,
      "velocity": 36,
      "ticks": 240
    },
    {
      "time": 40320,
      "track": 2,
      "noteNumber": 50,
      "velocity": 38,
      "ticks": 720
    },
    {
      "time": 40320,
      "track": 1,
      "noteNumber": 65,
      "velocity": 54,
      "ticks": 720
    },
    {
      "time": 40440,
      "track": 1,
      "noteNumber": 58,
      "velocity": 34,
      "ticks": 120
    },
    {
      "time": 40560,
      "track": 1,
      "noteNumber": 57,
      "velocity": 34,
      "ticks": 120
    },
    {
      "time": 40680,
      "track": 1,
      "noteNumber": 60,
      "velocity": 34,
      "ticks": 120
    },
    {
      "time": 40800,
      "track": 1,
      "noteNumber": 58,
      "velocity": 34,
      "ticks": 120
    },
    {
      "time": 40920,
      "track": 1,
      "noteNumber": 62,
      "velocity": 34,
      "ticks": 120
    },
    {
      "time": 41040,
      "track": 2,
      "noteNumber": 53,
      "velocity": 39,
      "ticks": 260
    },
    {
      "time": 41040,
      "track": 1,
      "noteNumber": 65,
      "velocity": 38,
      "ticks": 120
    },
    {
      "time": 41040,
      "track": 1,
      "noteNumber": 67,
      "velocity": 54,
      "ticks": 260
    },
    {
      "time": 41160,
      "track": 1,
      "noteNumber": 62,
      "velocity": 36,
      "ticks": 120
    },
    {
      "time": 41280,
      "track": 1,
      "noteNumber": 70,
      "velocity": 57,
      "ticks": 260
    },
    {
      "time": 41280,
      "track": 1,
      "noteNumber": 67,
      "velocity": 39,
      "ticks": 120
    },
    {
      "time": 41280,
      "track": 2,
      "noteNumber": 55,
      "velocity": 40,
      "ticks": 260
    },
    {
      "time": 41400,
      "track": 1,
      "noteNumber": 65,
      "velocity": 36,
      "ticks": 120
    },
    {
      "time": 41520,
      "track": 2,
      "noteNumber": 58,
      "velocity": 39,
      "ticks": 240
    },
    {
      "time": 41520,
      "track": 1,
      "noteNumber": 74,
      "velocity": 55,
      "ticks": 260
    },
    {
      "time": 41520,
      "track": 1,
      "noteNumber": 70,
      "velocity": 40,
      "ticks": 120
    },
    {
      "time": 41640,
      "track": 1,
      "noteNumber": 67,
      "velocity": 37,
      "ticks": 120
    },
    {
      "time": 41760,
      "track": 1,
      "noteNumber": 70,
      "velocity": 42,
      "ticks": 120
    },
    {
      "time": 41760,
      "track": 2,
      "noteNumber": 43,
      "velocity": 50,
      "ticks": 720
    },
    {
      "time": 41760,
      "track": 1,
      "noteNumber": 76,
      "velocity": 58,
      "ticks": 260
    },
    {
      "time": 41880,
      "track": 1,
      "noteNumber": 67,
      "velocity": 37,
      "ticks": 120
    },
    {
      "time": 42000,
      "track": 1,
      "noteNumber": 72,
      "velocity": 39,
      "ticks": 120
    },
    {
      "time": 42000,
      "track": 2,
      "noteNumber": 57,
      "velocity": 39,
      "ticks": 240
    },
    {
      "time": 42000,
      "track": 2,
      "noteNumber": 60,
      "velocity": 39,
      "ticks": 240
    },
    {
      "time": 42000,
      "track": 2,
      "noteNumber": 65,
      "velocity": 39,
      "ticks": 240
    },
    {
      "time": 42000,
      "track": 1,
      "noteNumber": 77,
      "velocity": 54,
      "ticks": 240
    },
    {
      "time": 42120,
      "track": 1,
      "noteNumber": 69,
      "velocity": 37,
      "ticks": 120
    },
    {
      "time": 42240,
      "track": 2,
      "noteNumber": 58,
      "velocity": 39,
      "ticks": 480
    },
    {
      "time": 42240,
      "track": 1,
      "noteNumber": 74,
      "velocity": 55,
      "ticks": 480
    },
    {
      "time": 42240,
      "track": 1,
      "noteNumber": 70,
      "velocity": 39,
      "ticks": 120
    },
    {
      "time": 42240,
      "track": 2,
      "noteNumber": 62,
      "velocity": 39,
      "ticks": 480
    },
    {
      "time": 42240,
      "track": 2,
      "noteNumber": 55,
      "velocity": 39,
      "ticks": 480
    },
    {
      "time": 42360,
      "track": 1,
      "noteNumber": 67,
      "velocity": 37,
      "ticks": 120
    },
    {
      "time": 42480,
      "track": 2,
      "noteNumber": 41,
      "velocity": 48,
      "ticks": 240
    },
    {
      "time": 42480,
      "track": 1,
      "noteNumber": 70,
      "velocity": 39,
      "ticks": 120
    },
    {
      "time": 42600,
      "track": 1,
      "noteNumber": 67,
      "velocity": 37,
      "ticks": 120
    },
    {
      "time": 42720,
      "track": 2,
      "noteNumber": 40,
      "velocity": 50,
      "ticks": 240
    },
    {
      "time": 42720,
      "track": 1,
      "noteNumber": 70,
      "velocity": 42,
      "ticks": 120
    },
    {
      "time": 42720,
      "track": 1,
      "noteNumber": 72,
      "velocity": 55,
      "ticks": 260
    },
    {
      "time": 42840,
      "track": 1,
      "noteNumber": 67,
      "velocity": 37,
      "ticks": 120
    },
    {
      "time": 42960,
      "track": 2,
      "noteNumber": 38,
      "velocity": 52,
      "ticks": 240
    },
    {
      "time": 42960,
      "track": 1,
      "noteNumber": 74,
      "velocity": 55,
      "ticks": 260
    },
    {
      "time": 42960,
      "track": 1,
      "noteNumber": 70,
      "velocity": 42,
      "ticks": 120
    },
    {
      "time": 43080,
      "track": 1,
      "noteNumber": 67,
      "velocity": 37,
      "ticks": 120
    },
    {
      "time": 43200,
      "track": 2,
      "noteNumber": 36,
      "velocity": 57,
      "ticks": 1440
    },
    {
      "time": 43200,
      "track": 1,
      "noteNumber": 74,
      "velocity": 45,
      "ticks": 120
    },
    {
      "time": 43200,
      "track": 1,
      "noteNumber": 79,
      "velocity": 63,
      "ticks": 240
    },
    {
      "time": 43320,
      "track": 1,
      "noteNumber": 70,
      "velocity": 40,
      "ticks": 120
    },
    {
      "time": 43440,
      "track": 2,
      "noteNumber": 60,
      "velocity": 40,
      "ticks": 240
    },
    {
      "time": 43440,
      "track": 1,
      "noteNumber": 76,
      "velocity": 44,
      "ticks": 120
    },
    {
      "time": 43440,
      "track": 2,
      "noteNumber": 64,
      "velocity": 40,
      "ticks": 240
    },
    {
      "time": 43440,
      "track": 2,
      "noteNumber": 69,
      "velocity": 40,
      "ticks": 240
    },
    {
      "time": 43440,
      "track": 1,
      "noteNumber": 81,
      "velocity": 57,
      "ticks": 240
    },
    {
      "time": 43560,
      "track": 1,
      "noteNumber": 72,
      "velocity": 40,
      "ticks": 120
    },
    {
      "time": 43680,
      "track": 1,
      "noteNumber": 76,
      "velocity": 46,
      "ticks": 120
    },
    {
      "time": 43680,
      "track": 2,
      "noteNumber": 60,
      "velocity": 44,
      "ticks": 240
    },
    {
      "time": 43680,
      "track": 2,
      "noteNumber": 64,
      "velocity": 44,
      "ticks": 240
    },
    {
      "time": 43680,
      "track": 2,
      "noteNumber": 69,
      "velocity": 44,
      "ticks": 240
    },
    {
      "time": 43680,
      "track": 1,
      "noteNumber": 81,
      "velocity": 63,
      "ticks": 240
    },
    {
      "time": 43800,
      "track": 1,
      "noteNumber": 72,
      "velocity": 40,
      "ticks": 120
    },
    {
      "time": 43920,
      "track": 1,
      "noteNumber": 76,
      "velocity": 57,
      "ticks": 240
    },
    {
      "time": 43920,
      "track": 2,
      "noteNumber": 64,
      "velocity": 40,
      "ticks": 240
    },
    {
      "time": 43920,
      "track": 2,
      "noteNumber": 57,
      "velocity": 40,
      "ticks": 240
    },
    {
      "time": 43920,
      "track": 2,
      "noteNumber": 60,
      "velocity": 40,
      "ticks": 240
    },
    {
      "time": 43920,
      "track": 1,
      "noteNumber": 72,
      "velocity": 44,
      "ticks": 120
    },
    {
      "time": 44040,
      "track": 1,
      "noteNumber": 69,
      "velocity": 38,
      "ticks": 120
    },
    {
      "time": 44160,
      "track": 2,
      "noteNumber": 60,
      "velocity": 40,
      "ticks": 480
    },
    {
      "time": 44160,
      "track": 1,
      "noteNumber": 76,
      "velocity": 57,
      "ticks": 480
    },
    {
      "time": 44160,
      "track": 2,
      "noteNumber": 64,
      "velocity": 40,
      "ticks": 480
    },
    {
      "time": 44160,
      "track": 2,
      "noteNumber": 57,
      "velocity": 40,
      "ticks": 480
    },
    {
      "time": 44160,
      "track": 1,
      "noteNumber": 72,
      "velocity": 44,
      "ticks": 120
    },
    {
      "time": 44280,
      "track": 1,
      "noteNumber": 69,
      "velocity": 36,
      "ticks": 120
    },
    {
      "time": 44400,
      "track": 1,
      "noteNumber": 72,
      "velocity": 44,
      "ticks": 120
    },
    {
      "time": 44520,
      "track": 1,
      "noteNumber": 69,
      "velocity": 36,
      "ticks": 120
    },
    {
      "time": 44640,
      "track": 1,
      "noteNumber": 76,
      "velocity": 61,
      "ticks": 260
    },
    {
      "time": 44640,
      "track": 2,
      "noteNumber": 43,
      "velocity": 52,
      "ticks": 720
    },
    {
      "time": 44640,
      "track": 1,
      "noteNumber": 70,
      "velocity": 44,
      "ticks": 120
    },
    {
      "time": 44760,
      "track": 1,
      "noteNumber": 67,
      "velocity": 38,
      "ticks": 120
    },
    {
      "time": 44880,
      "track": 1,
      "noteNumber": 77,
      "velocity": 56,
      "ticks": 240
    },
    {
      "time": 44880,
      "track": 1,
      "noteNumber": 72,
      "velocity": 40,
      "ticks": 120
    },
    {
      "time": 44880,
      "track": 2,
      "noteNumber": 57,
      "velocity": 40,
      "ticks": 240
    },
    {
      "time": 44880,
      "track": 2,
      "noteNumber": 60,
      "velocity": 40,
      "ticks": 240
    },
    {
      "time": 44880,
      "track": 2,
      "noteNumber": 65,
      "velocity": 40,
      "ticks": 240
    },
    {
      "time": 45000,
      "track": 1,
      "noteNumber": 69,
      "velocity": 38,
      "ticks": 120
    },
    {
      "time": 45120,
      "track": 1,
      "noteNumber": 70,
      "velocity": 40,
      "ticks": 120
    },
    {
      "time": 45120,
      "track": 1,
      "noteNumber": 74,
      "velocity": 57,
      "ticks": 480
    },
    {
      "time": 45120,
      "track": 2,
      "noteNumber": 58,
      "velocity": 40,
      "ticks": 480
    },
    {
      "time": 45120,
      "track": 2,
      "noteNumber": 62,
      "velocity": 40,
      "ticks": 480
    },
    {
      "time": 45120,
      "track": 2,
      "noteNumber": 55,
      "velocity": 40,
      "ticks": 480
    },
    {
      "time": 45240,
      "track": 1,
      "noteNumber": 67,
      "velocity": 38,
      "ticks": 120
    },
    {
      "time": 45360,
      "track": 1,
      "noteNumber": 70,
      "velocity": 40,
      "ticks": 120
    },
    {
      "time": 45360,
      "track": 2,
      "noteNumber": 41,
      "velocity": 50,
      "ticks": 240
    },
    {
      "time": 45480,
      "track": 1,
      "noteNumber": 67,
      "velocity": 38,
      "ticks": 120
    },
    {
      "time": 45600,
      "track": 1,
      "noteNumber": 70,
      "velocity": 44,
      "ticks": 120
    },
    {
      "time": 45600,
      "track": 2,
      "noteNumber": 40,
      "velocity": 52,
      "ticks": 240
    },
    {
      "time": 45600,
      "track": 1,
      "noteNumber": 72,
      "velocity": 57,
      "ticks": 260
    },
    {
      "time": 45720,
      "track": 1,
      "noteNumber": 67,
      "velocity": 38,
      "ticks": 120
    },
    {
      "time": 45840,
      "track": 1,
      "noteNumber": 70,
      "velocity": 44,
      "ticks": 120
    },
    {
      "time": 45840,
      "track": 1,
      "noteNumber": 74,
      "velocity": 57,
      "ticks": 260
    },
    {
      "time": 45840,
      "track": 2,
      "noteNumber": 38,
      "velocity": 55,
      "ticks": 240
    },
    {
      "time": 45960,
      "track": 1,
      "noteNumber": 67,
      "velocity": 38,
      "ticks": 120
    },
    {
      "time": 46080,
      "track": 1,
      "noteNumber": 79,
      "velocity": 67,
      "ticks": 240
    },
    {
      "time": 46080,
      "track": 2,
      "noteNumber": 36,
      "velocity": 60,
      "ticks": 2880
    },
    {
      "time": 46080,
      "track": 1,
      "noteNumber": 74,
      "velocity": 48,
      "ticks": 120
    },
    {
      "time": 46200,
      "track": 1,
      "noteNumber": 70,
      "velocity": 43,
      "ticks": 120
    },
    {
      "time": 46320,
      "track": 2,
      "noteNumber": 64,
      "velocity": 43,
      "ticks": 240
    },
    {
      "time": 46320,
      "track": 1,
      "noteNumber": 81,
      "velocity": 60,
      "ticks": 240
    },
    {
      "time": 46320,
      "track": 1,
      "noteNumber": 76,
      "velocity": 46,
      "ticks": 120
    },
    {
      "time": 46320,
      "track": 2,
      "noteNumber": 69,
      "velocity": 43,
      "ticks": 240
    },
    {
      "time": 46320,
      "track": 2,
      "noteNumber": 60,
      "velocity": 43,
      "ticks": 240
    },
    {
      "time": 46440,
      "track": 1,
      "noteNumber": 72,
      "velocity": 43,
      "ticks": 120
    },
    {
      "time": 46560,
      "track": 2,
      "noteNumber": 69,
      "velocity": 46,
      "ticks": 240
    },
    {
      "time": 46560,
      "track": 2,
      "noteNumber": 64,
      "velocity": 46,
      "ticks": 240
    },
    {
      "time": 46560,
      "track": 2,
      "noteNumber": 60,
      "velocity": 46,
      "ticks": 240
    },
    {
      "time": 46560,
      "track": 1,
      "noteNumber": 76,
      "velocity": 49,
      "ticks": 120
    },
    {
      "time": 46560,
      "track": 1,
      "noteNumber": 81,
      "velocity": 67,
      "ticks": 240
    },
    {
      "time": 46680,
      "track": 1,
      "noteNumber": 72,
      "velocity": 43,
      "ticks": 120
    },
    {
      "time": 46800,
      "track": 2,
      "noteNumber": 57,
      "velocity": 43,
      "ticks": 240
    },
    {
      "time": 46800,
      "track": 1,
      "noteNumber": 72,
      "velocity": 46,
      "ticks": 120
    },
    {
      "time": 46800,
      "track": 1,
      "noteNumber": 76,
      "velocity": 60,
      "ticks": 240
    },
    {
      "time": 46800,
      "track": 2,
      "noteNumber": 64,
      "velocity": 43,
      "ticks": 240
    },
    {
      "time": 46800,
      "track": 2,
      "noteNumber": 60,
      "velocity": 43,
      "ticks": 240
    },
    {
      "time": 46920,
      "track": 1,
      "noteNumber": 69,
      "velocity": 39,
      "ticks": 120
    },
    {
      "time": 47040,
      "track": 2,
      "noteNumber": 57,
      "velocity": 45,
      "ticks": 240
    },
    {
      "time": 47040,
      "track": 2,
      "noteNumber": 64,
      "velocity": 45,
      "ticks": 240
    },
    {
      "time": 47040,
      "track": 1,
      "noteNumber": 76,
      "velocity": 60,
      "ticks": 240
    },
    {
      "time": 47040,
      "track": 2,
      "noteNumber": 60,
      "velocity": 45,
      "ticks": 240
    },
    {
      "time": 47040,
      "track": 1,
      "noteNumber": 72,
      "velocity": 46,
      "ticks": 120
    },
    {
      "time": 47160,
      "track": 1,
      "noteNumber": 69,
      "velocity": 37,
      "ticks": 120
    },
    {
      "time": 47280,
      "track": 2,
      "noteNumber": 65,
      "velocity": 48,
      "ticks": 240
    },
    {
      "time": 47280,
      "track": 2,
      "noteNumber": 62,
      "velocity": 48,
      "ticks": 240
    },
    {
      "time": 47280,
      "track": 1,
      "noteNumber": 77,
      "velocity": 52,
      "ticks": 120
    },
    {
      "time": 47280,
      "track": 1,
      "noteNumber": 82,
      "velocity": 70,
      "ticks": 240
    },
    {
      "time": 47280,
      "track": 2,
      "noteNumber": 70,
      "velocity": 48,
      "ticks": 240
    },
    {
      "time": 47400,
      "track": 1,
      "noteNumber": 74,
      "velocity": 44,
      "ticks": 120
    },
    {
      "time": 47520,
      "track": 2,
      "noteNumber": 70,
      "velocity": 52,
      "ticks": 240
    },
    {
      "time": 47520,
      "track": 2,
      "noteNumber": 65,
      "velocity": 52,
      "ticks": 240
    },
    {
      "time": 47520,
      "track": 2,
      "noteNumber": 62,
      "velocity": 52,
      "ticks": 240
    },
    {
      "time": 47520,
      "track": 1,
      "noteNumber": 77,
      "velocity": 58,
      "ticks": 120
    },
    {
      "time": 47520,
      "track": 1,
      "noteNumber": 82,
      "velocity": 76,
      "ticks": 240
    },
    {
      "time": 47640,
      "track": 1,
      "noteNumber": 74,
      "velocity": 40,
      "ticks": 120
    },
    {
      "time": 47760,
      "track": 2,
      "noteNumber": 72,
      "velocity": 48,
      "ticks": 240
    },
    {
      "time": 47760,
      "track": 2,
      "noteNumber": 67,
      "velocity": 48,
      "ticks": 240
    },
    {
      "time": 47760,
      "track": 2,
      "noteNumber": 64,
      "velocity": 48,
      "ticks": 240
    },
    {
      "time": 47760,
      "track": 1,
      "noteNumber": 79,
      "velocity": 58,
      "ticks": 120
    },
    {
      "time": 47760,
      "track": 1,
      "noteNumber": 84,
      "velocity": 70,
      "ticks": 240
    },
    {
      "time": 47880,
      "track": 1,
      "noteNumber": 76,
      "velocity": 40,
      "ticks": 120
    },
    {
      "time": 48000,
      "track": 1,
      "noteNumber": 79,
      "velocity": 58,
      "ticks": 120
    },
    {
      "time": 48000,
      "track": 2,
      "noteNumber": 64,
      "velocity": 52,
      "ticks": 240
    },
    {
      "time": 48000,
      "track": 1,
      "noteNumber": 84,
      "velocity": 78,
      "ticks": 240
    },
    {
      "time": 48000,
      "track": 2,
      "noteNumber": 72,
      "velocity": 52,
      "ticks": 240
    },
    {
      "time": 48000,
      "track": 2,
      "noteNumber": 67,
      "velocity": 52,
      "ticks": 240
    },
    {
      "time": 48120,
      "track": 1,
      "noteNumber": 76,
      "velocity": 40,
      "ticks": 120
    },
    {
      "time": 48240,
      "track": 1,
      "noteNumber": 76,
      "velocity": 58,
      "ticks": 120
    },
    {
      "time": 48240,
      "track": 2,
      "noteNumber": 60,
      "velocity": 48,
      "ticks": 240
    },
    {
      "time": 48240,
      "track": 2,
      "noteNumber": 69,
      "velocity": 48,
      "ticks": 240
    },
    {
      "time": 48240,
      "track": 2,
      "noteNumber": 64,
      "velocity": 48,
      "ticks": 240
    },
    {
      "time": 48240,
      "track": 1,
      "noteNumber": 81,
      "velocity": 70,
      "ticks": 240
    },
    {
      "time": 48360,
      "track": 1,
      "noteNumber": 72,
      "velocity": 40,
      "ticks": 120
    },
    {
      "time": 48480,
      "track": 1,
      "noteNumber": 76,
      "velocity": 58,
      "ticks": 120
    },
    {
      "time": 48480,
      "track": 1,
      "noteNumber": 81,
      "velocity": 76,
      "ticks": 240
    },
    {
      "time": 48480,
      "track": 2,
      "noteNumber": 64,
      "velocity": 52,
      "ticks": 240
    },
    {
      "time": 48480,
      "track": 2,
      "noteNumber": 69,
      "velocity": 52,
      "ticks": 240
    },
    {
      "time": 48480,
      "track": 2,
      "noteNumber": 60,
      "velocity": 52,
      "ticks": 240
    },
    {
      "time": 48600,
      "track": 1,
      "noteNumber": 72,
      "velocity": 40,
      "ticks": 120
    },
    {
      "time": 48720,
      "track": 2,
      "noteNumber": 72,
      "velocity": 56,
      "ticks": 240
    },
    {
      "time": 48720,
      "track": 2,
      "noteNumber": 64,
      "velocity": 56,
      "ticks": 240
    },
    {
      "time": 48720,
      "track": 1,
      "noteNumber": 81,
      "velocity": 58,
      "ticks": 120
    },
    {
      "time": 48720,
      "track": 1,
      "noteNumber": 84,
      "velocity": 79,
      "ticks": 240
    },
    {
      "time": 48720,
      "track": 2,
      "noteNumber": 69,
      "velocity": 56,
      "ticks": 240
    },
    {
      "time": 48840,
      "track": 1,
      "noteNumber": 76,
      "velocity": 40,
      "ticks": 120
    },
    {
      "time": 48960,
      "track": 2,
      "noteNumber": 41,
      "velocity": 66,
      "ticks": 1440
    },
    {
      "time": 48960,
      "track": 1,
      "noteNumber": 82,
      "velocity": 78,
      "ticks": 120
    },
    {
      "time": 48960,
      "track": 1,
      "noteNumber": 86,
      "velocity": 78,
      "ticks": 240
    },
    {
      "time": 48960,
      "track": 2,
      "noteNumber": 34,
      "velocity": 66,
      "ticks": 1440
    },
    {
      "time": 49080,
      "track": 1,
      "noteNumber": 76,
      "velocity": 44,
      "ticks": 120
    },
    {
      "time": 49200,
      "track": 1,
      "noteNumber": 82,
      "velocity": 76,
      "ticks": 120
    },
    {
      "time": 49200,
      "track": 2,
      "noteNumber": 65,
      "velocity": 71,
      "ticks": 240
    },
    {
      "time": 49200,
      "track": 1,
      "noteNumber": 86,
      "velocity": 76,
      "ticks": 240
    },
    {
      "time": 49320,
      "track": 1,
      "noteNumber": 77,
      "velocity": 44,
      "ticks": 120
    },
    {
      "time": 49440,
      "track": 2,
      "noteNumber": 55,
      "velocity": 44,
      "ticks": 960
    },
    {
      "time": 49440,
      "track": 2,
      "noteNumber": 58,
      "velocity": 44,
      "ticks": 960
    },
    {
      "time": 49440,
      "track": 1,
      "noteNumber": 82,
      "velocity": 66,
      "ticks": 120
    },
    {
      "time": 49440,
      "track": 2,
      "noteNumber": 62,
      "velocity": 74,
      "ticks": 480
    },
    {
      "time": 49440,
      "track": 1,
      "noteNumber": 86,
      "velocity": 66,
      "ticks": 120
    },
    {
      "time": 49560,
      "track": 1,
      "noteNumber": 74,
      "velocity": 51,
      "ticks": 120
    },
    {
      "time": 49680,
      "track": 1,
      "noteNumber": 82,
      "velocity": 65,
      "ticks": 120
    },
    {
      "time": 49680,
      "track": 1,
      "noteNumber": 86,
      "velocity": 65,
      "ticks": 120
    },
    {
      "time": 49800,
      "track": 1,
      "noteNumber": 74,
      "velocity": 51,
      "ticks": 120
    },
    {
      "time": 49920,
      "track": 1,
      "noteNumber": 86,
      "velocity": 63,
      "ticks": 120
    },
    {
      "time": 49920,
      "track": 1,
      "noteNumber": 82,
      "velocity": 63,
      "ticks": 120
    },
    {
      "time": 49920,
      "track": 2,
      "noteNumber": 60,
      "velocity": 68,
      "ticks": 240
    },
    {
      "time": 50040,
      "track": 1,
      "noteNumber": 72,
      "velocity": 50,
      "ticks": 120
    },
    {
      "time": 50160,
      "track": 1,
      "noteNumber": 82,
      "velocity": 60,
      "ticks": 120
    },
    {
      "time": 50160,
      "track": 2,
      "noteNumber": 62,
      "velocity": 63,
      "ticks": 240
    },
    {
      "time": 50160,
      "track": 1,
      "noteNumber": 86,
      "velocity": 60,
      "ticks": 120
    },
    {
      "time": 50280,
      "track": 1,
      "noteNumber": 74,
      "velocity": 52,
      "ticks": 120
    },
    {
      "time": 50400,
      "track": 1,
      "noteNumber": 82,
      "velocity": 60,
      "ticks": 120
    },
    {
      "time": 50400,
      "track": 1,
      "noteNumber": 86,
      "velocity": 60,
      "ticks": 120
    },
    {
      "time": 50400,
      "track": 2,
      "noteNumber": 58,
      "velocity": 44,
      "ticks": 1440
    },
    {
      "time": 50400,
      "track": 2,
      "noteNumber": 62,
      "velocity": 44,
      "ticks": 1440
    },
    {
      "time": 50400,
      "track": 2,
      "noteNumber": 67,
      "velocity": 67,
      "ticks": 240
    },
    {
      "time": 50520,
      "track": 1,
      "noteNumber": 79,
      "velocity": 53,
      "ticks": 120
    },
    {
      "time": 50640,
      "track": 2,
      "noteNumber": 69,
      "velocity": 58,
      "ticks": 240
    },
    {
      "time": 50640,
      "track": 1,
      "noteNumber": 82,
      "velocity": 60,
      "ticks": 120
    },
    {
      "time": 50640,
      "track": 1,
      "noteNumber": 86,
      "velocity": 60,
      "ticks": 120
    },
    {
      "time": 50760,
      "track": 1,
      "noteNumber": 81,
      "velocity": 52,
      "ticks": 120
    },
    {
      "time": 50880,
      "track": 1,
      "noteNumber": 86,
      "velocity": 59,
      "ticks": 120
    },
    {
      "time": 50880,
      "track": 2,
      "noteNumber": 69,
      "velocity": 60,
      "ticks": 240
    },
    {
      "time": 50880,
      "track": 1,
      "noteNumber": 82,
      "velocity": 59,
      "ticks": 120
    },
    {
      "time": 51000,
      "track": 1,
      "noteNumber": 81,
      "velocity": 45,
      "ticks": 120
    },
    {
      "time": 51120,
      "track": 1,
      "noteNumber": 82,
      "velocity": 57,
      "ticks": 120
    },
    {
      "time": 51120,
      "track": 2,
      "noteNumber": 64,
      "velocity": 58,
      "ticks": 240
    },
    {
      "time": 51120,
      "track": 1,
      "noteNumber": 86,
      "velocity": 57,
      "ticks": 120
    },
    {
      "time": 51240,
      "track": 1,
      "noteNumber": 76,
      "velocity": 43,
      "ticks": 120
    },
    {
      "time": 51360,
      "track": 1,
      "noteNumber": 82,
      "velocity": 49,
      "ticks": 120
    },
    {
      "time": 51360,
      "track": 2,
      "noteNumber": 64,
      "velocity": 57,
      "ticks": 480
    },
    {
      "time": 51360,
      "track": 1,
      "noteNumber": 86,
      "velocity": 49,
      "ticks": 120
    },
    {
      "time": 51480,
      "track": 1,
      "noteNumber": 76,
      "velocity": 39,
      "ticks": 120
    },
    {
      "time": 51600,
      "track": 1,
      "noteNumber": 86,
      "velocity": 47,
      "ticks": 120
    },
    {
      "time": 51600,
      "track": 1,
      "noteNumber": 82,
      "velocity": 47,
      "ticks": 120
    },
    {
      "time": 51720,
      "track": 1,
      "noteNumber": 76,
      "velocity": 38,
      "ticks": 120
    },
    {
      "time": 51840,
      "track": 1,
      "noteNumber": 86,
      "velocity": 69,
      "ticks": 240
    },
    {
      "time": 51840,
      "track": 2,
      "noteNumber": 34,
      "velocity": 52,
      "ticks": 1440
    },
    {
      "time": 51840,
      "track": 1,
      "noteNumber": 82,
      "velocity": 50,
      "ticks": 120
    },
    {
      "time": 51840,
      "track": 2,
      "noteNumber": 41,
      "velocity": 52,
      "ticks": 1440
    },
    {
      "time": 51960,
      "track": 1,
      "noteNumber": 76,
      "velocity": 34,
      "ticks": 120
    },
    {
      "time": 52080,
      "track": 1,
      "noteNumber": 86,
      "velocity": 67,
      "ticks": 240
    },
    {
      "time": 52080,
      "track": 2,
      "noteNumber": 65,
      "velocity": 49,
      "ticks": 240
    },
    {
      "time": 52080,
      "track": 1,
      "noteNumber": 82,
      "velocity": 49,
      "ticks": 120
    },
    {
      "time": 52200,
      "track": 1,
      "noteNumber": 77,
      "velocity": 34,
      "ticks": 120
    },
    {
      "time": 52320,
      "track": 2,
      "noteNumber": 58,
      "velocity": 29,
      "ticks": 960
    },
    {
      "time": 52320,
      "track": 2,
      "noteNumber": 62,
      "velocity": 49,
      "ticks": 480
    },
    {
      "time": 52320,
      "track": 1,
      "noteNumber": 86,
      "velocity": 58,
      "ticks": 120
    },
    {
      "time": 52320,
      "track": 1,
      "noteNumber": 82,
      "velocity": 58,
      "ticks": 120
    },
    {
      "time": 52320,
      "track": 2,
      "noteNumber": 53,
      "velocity": 29,
      "ticks": 960
    },
    {
      "time": 52440,
      "track": 1,
      "noteNumber": 74,
      "velocity": 37,
      "ticks": 120
    },
    {
      "time": 52560,
      "track": 1,
      "noteNumber": 86,
      "velocity": 57,
      "ticks": 120
    },
    {
      "time": 52560,
      "track": 1,
      "noteNumber": 82,
      "velocity": 57,
      "ticks": 120
    },
    {
      "time": 52680,
      "track": 1,
      "noteNumber": 74,
      "velocity": 37,
      "ticks": 120
    },
    {
      "time": 52800,
      "track": 2,
      "noteNumber": 60,
      "velocity": 47,
      "ticks": 240
    },
    {
      "time": 52800,
      "track": 1,
      "noteNumber": 86,
      "velocity": 51,
      "ticks": 120
    },
    {
      "time": 52800,
      "track": 1,
      "noteNumber": 82,
      "velocity": 51,
      "ticks": 120
    },
    {
      "time": 52920,
      "track": 1,
      "noteNumber": 72,
      "velocity": 35,
      "ticks": 120
    },
    {
      "time": 53040,
      "track": 1,
      "noteNumber": 82,
      "velocity": 48,
      "ticks": 120
    },
    {
      "time": 53040,
      "track": 2,
      "noteNumber": 62,
      "velocity": 44,
      "ticks": 220
    },
    {
      "time": 53040,
      "track": 1,
      "noteNumber": 86,
      "velocity": 48,
      "ticks": 120
    },
    {
      "time": 53160,
      "track": 1,
      "noteNumber": 74,
      "velocity": 33,
      "ticks": 100
    },
    {
      "time": 53280,
      "track": 2,
      "noteNumber": 28,
      "velocity": 40,
      "ticks": 480
    },
    {
      "time": 53280,
      "track": 2,
      "noteNumber": 40,
      "velocity": 40,
      "ticks": 480
    },
    {
      "time": 53280,
      "track": 1,
      "noteNumber": 83,
      "velocity": 44,
      "ticks": 120
    },
    {
      "time": 53280,
      "track": 1,
      "noteNumber": 88,
      "velocity": 44,
      "ticks": 120
    },
    {
      "time": 53400,
      "track": 1,
      "noteNumber": 76,
      "velocity": 38,
      "ticks": 120
    },
    {
      "time": 53520,
      "track": 1,
      "noteNumber": 76,
      "velocity": 38,
      "ticks": 120
    },
    {
      "time": 53520,
      "track": 1,
      "noteNumber": 71,
      "velocity": 38,
      "ticks": 120
    },
    {
      "time": 53640,
      "track": 1,
      "noteNumber": 64,
      "velocity": 38,
      "ticks": 120
    },
    {
      "time": 53760,
      "track": 1,
      "noteNumber": 76,
      "velocity": 45,
      "ticks": 120
    },
    {
      "time": 53760,
      "track": 2,
      "noteNumber": 29,
      "velocity": 42,
      "ticks": 480
    },
    {
      "time": 53760,
      "track": 2,
      "noteNumber": 41,
      "velocity": 42,
      "ticks": 480
    },
    {
      "time": 53760,
      "track": 1,
      "noteNumber": 69,
      "velocity": 45,
      "ticks": 120
    },
    {
      "time": 53880,
      "track": 1,
      "noteNumber": 64,
      "velocity": 42,
      "ticks": 120
    },
    {
      "time": 54000,
      "track": 1,
      "noteNumber": 57,
      "velocity": 45,
      "ticks": 120
    },
    {
      "time": 54000,
      "track": 1,
      "noteNumber": 64,
      "velocity": 45,
      "ticks": 120
    },
    {
      "time": 54120,
      "track": 1,
      "noteNumber": 52,
      "velocity": 42,
      "ticks": 120
    },
    {
      "time": 54240,
      "track": 2,
      "noteNumber": 31,
      "velocity": 45,
      "ticks": 480
    },
    {
      "time": 54240,
      "track": 1,
      "noteNumber": 59,
      "velocity": 47,
      "ticks": 120
    },
    {
      "time": 54240,
      "track": 2,
      "noteNumber": 43,
      "velocity": 45,
      "ticks": 480
    },
    {
      "time": 54240,
      "track": 1,
      "noteNumber": 64,
      "velocity": 47,
      "ticks": 120
    },
    {
      "time": 54360,
      "track": 1,
      "noteNumber": 52,
      "velocity": 45,
      "ticks": 120
    },
    {
      "time": 54480,
      "track": 1,
      "noteNumber": 59,
      "velocity": 48,
      "ticks": 120
    },
    {
      "time": 54480,
      "track": 1,
      "noteNumber": 64,
      "velocity": 48,
      "ticks": 120
    },
    {
      "time": 54600,
      "track": 1,
      "noteNumber": 52,
      "velocity": 46,
      "ticks": 120
    },
    {
      "time": 54720,
      "track": 2,
      "noteNumber": 33,
      "velocity": 47,
      "ticks": 480
    },
    {
      "time": 54720,
      "track": 2,
      "noteNumber": 45,
      "velocity": 47,
      "ticks": 480
    },
    {
      "time": 54720,
      "track": 1,
      "noteNumber": 60,
      "velocity": 50,
      "ticks": 120
    },
    {
      "time": 54720,
      "track": 1,
      "noteNumber": 64,
      "velocity": 50,
      "ticks": 120
    },
    {
      "time": 54840,
      "track": 1,
      "noteNumber": 52,
      "velocity": 47,
      "ticks": 120
    },
    {
      "time": 54960,
      "track": 1,
      "noteNumber": 64,
      "velocity": 50,
      "ticks": 120
    },
    {
      "time": 54960,
      "track": 1,
      "noteNumber": 60,
      "velocity": 50,
      "ticks": 120
    },
    {
      "time": 55080,
      "track": 1,
      "noteNumber": 52,
      "velocity": 48,
      "ticks": 120
    },
    {
      "time": 55200,
      "track": 1,
      "noteNumber": 62,
      "velocity": 49,
      "ticks": 120
    },
    {
      "time": 55200,
      "track": 2,
      "noteNumber": 35,
      "velocity": 42,
      "ticks": 240
    },
    {
      "time": 55200,
      "track": 2,
      "noteNumber": 47,
      "velocity": 42,
      "ticks": 240
    },
    {
      "time": 55200,
      "track": 1,
      "noteNumber": 64,
      "velocity": 49,
      "ticks": 120
    },
    {
      "time": 55320,
      "track": 1,
      "noteNumber": 52,
      "velocity": 47,
      "ticks": 120
    },
    {
      "time": 55440,
      "track": 1,
      "noteNumber": 60,
      "velocity": 49,
      "ticks": 120
    },
    {
      "time": 55440,
      "track": 2,
      "noteNumber": 45,
      "velocity": 42,
      "ticks": 240
    },
    {
      "time": 55440,
      "track": 2,
      "noteNumber": 33,
      "velocity": 42,
      "ticks": 240
    },
    {
      "time": 55440,
      "track": 1,
      "noteNumber": 64,
      "velocity": 49,
      "ticks": 120
    },
    {
      "time": 55560,
      "track": 1,
      "noteNumber": 52,
      "velocity": 47,
      "ticks": 120
    },
    {
      "time": 55680,
      "track": 1,
      "noteNumber": 59,
      "velocity": 41,
      "ticks": 480
    },
    {
      "time": 55680,
      "track": 1,
      "noteNumber": 62,
      "velocity": 41,
      "ticks": 480
    },
    {
      "time": 55680,
      "track": 2,
      "noteNumber": 43,
      "velocity": 40,
      "ticks": 240
    },
    {
      "time": 55680,
      "track": 1,
      "noteNumber": 65,
      "velocity": 41,
      "ticks": 240
    },
    {
      "time": 55680,
      "track": 2,
      "noteNumber": 31,
      "velocity": 40,
      "ticks": 240
    },
    {
      "time": 55920,
      "track": 1,
      "noteNumber": 69,
      "velocity": 39,
      "ticks": 240
    },
    {
      "time": 55920,
      "track": 2,
      "noteNumber": 29,
      "velocity": 39,
      "ticks": 240
    },
    {
      "time": 55920,
      "track": 2,
      "noteNumber": 41,
      "velocity": 39,
      "ticks": 240
    },
    {
      "time": 56160,
      "track": 2,
      "noteNumber": 28,
      "velocity": 40,
      "ticks": 480
    },
    {
      "time": 56160,
      "track": 1,
      "noteNumber": 88,
      "velocity": 44,
      "ticks": 120
    },
    {
      "time": 56160,
      "track": 2,
      "noteNumber": 40,
      "velocity": 40,
      "ticks": 480
    },
    {
      "time": 56160,
      "track": 1,
      "noteNumber": 83,
      "velocity": 44,
      "ticks": 120
    },
    {
      "time": 56280,
      "track": 1,
      "noteNumber": 76,
      "velocity": 38,
      "ticks": 120
    },
    {
      "time": 56400,
      "track": 1,
      "noteNumber": 71,
      "velocity": 38,
      "ticks": 120
    },
    {
      "time": 56400,
      "track": 1,
      "noteNumber": 76,
      "velocity": 38,
      "ticks": 120
    },
    {
      "time": 56520,
      "track": 1,
      "noteNumber": 64,
      "velocity": 38,
      "ticks": 120
    },
    {
      "time": 56640,
      "track": 2,
      "noteNumber": 29,
      "velocity": 42,
      "ticks": 480
    },
    {
      "time": 56640,
      "track": 2,
      "noteNumber": 41,
      "velocity": 42,
      "ticks": 480
    },
    {
      "time": 56640,
      "track": 1,
      "noteNumber": 76,
      "velocity": 45,
      "ticks": 120
    },
    {
      "time": 56640,
      "track": 1,
      "noteNumber": 69,
      "velocity": 45,
      "ticks": 120
    },
    {
      "time": 56760,
      "track": 1,
      "noteNumber": 64,
      "velocity": 42,
      "ticks": 120
    },
    {
      "time": 56880,
      "track": 1,
      "noteNumber": 57,
      "velocity": 45,
      "ticks": 120
    },
    {
      "time": 56880,
      "track": 1,
      "noteNumber": 64,
      "velocity": 45,
      "ticks": 120
    },
    {
      "time": 57000,
      "track": 1,
      "noteNumber": 52,
      "velocity": 42,
      "ticks": 120
    },
    {
      "time": 57120,
      "track": 2,
      "noteNumber": 31,
      "velocity": 42,
      "ticks": 480
    },
    {
      "time": 57120,
      "track": 1,
      "noteNumber": 64,
      "velocity": 46,
      "ticks": 120
    },
    {
      "time": 57120,
      "track": 2,
      "noteNumber": 43,
      "velocity": 42,
      "ticks": 480
    },
    {
      "time": 57120,
      "track": 1,
      "noteNumber": 59,
      "velocity": 46,
      "ticks": 120
    },
    {
      "time": 57240,
      "track": 1,
      "noteNumber": 52,
      "velocity": 43,
      "ticks": 120
    },
    {
      "time": 57360,
      "track": 1,
      "noteNumber": 64,
      "velocity": 46,
      "ticks": 120
    },
    {
      "time": 57360,
      "track": 1,
      "noteNumber": 59,
      "velocity": 46,
      "ticks": 120
    },
    {
      "time": 57480,
      "track": 1,
      "noteNumber": 52,
      "velocity": 43,
      "ticks": 120
    },
    {
      "time": 57600,
      "track": 2,
      "noteNumber": 45,
      "velocity": 36,
      "ticks": 480
    },
    {
      "time": 57600,
      "track": 1,
      "noteNumber": 60,
      "velocity": 45,
      "ticks": 120
    },
    {
      "time": 57600,
      "track": 1,
      "noteNumber": 64,
      "velocity": 45,
      "ticks": 120
    },
    {
      "time": 57600,
      "track": 2,
      "noteNumber": 33,
      "velocity": 36,
      "ticks": 480
    },
    {
      "time": 57720,
      "track": 1,
      "noteNumber": 52,
      "velocity": 41,
      "ticks": 120
    },
    {
      "time": 57840,
      "track": 1,
      "noteNumber": 60,
      "velocity": 44,
      "ticks": 120
    },
    {
      "time": 57840,
      "track": 1,
      "noteNumber": 64,
      "velocity": 44,
      "ticks": 120
    },
    {
      "time": 57960,
      "track": 1,
      "noteNumber": 52,
      "velocity": 41,
      "ticks": 120
    },
    {
      "time": 58080,
      "track": 2,
      "noteNumber": 35,
      "velocity": 32,
      "ticks": 480
    },
    {
      "time": 58080,
      "track": 1,
      "noteNumber": 64,
      "velocity": 41,
      "ticks": 120
    },
    {
      "time": 58080,
      "track": 2,
      "noteNumber": 47,
      "velocity": 32,
      "ticks": 480
    },
    {
      "time": 58080,
      "track": 1,
      "noteNumber": 62,
      "velocity": 41,
      "ticks": 120
    },
    {
      "time": 58200,
      "track": 1,
      "noteNumber": 52,
      "velocity": 39,
      "ticks": 120
    },
    {
      "time": 58320,
      "track": 1,
      "noteNumber": 64,
      "velocity": 40,
      "ticks": 120
    },
    {
      "time": 58320,
      "track": 1,
      "noteNumber": 62,
      "velocity": 40,
      "ticks": 120
    },
    {
      "time": 58440,
      "track": 1,
      "noteNumber": 52,
      "velocity": 38,
      "ticks": 120
    },
    {
      "time": 58560,
      "track": 2,
      "noteNumber": 48,
      "velocity": 29,
      "ticks": 480
    },
    {
      "time": 58560,
      "track": 2,
      "noteNumber": 36,
      "velocity": 29,
      "ticks": 480
    },
    {
      "time": 58560,
      "track": 1,
      "noteNumber": 64,
      "velocity": 39,
      "ticks": 120
    },
    {
      "time": 58680,
      "track": 1,
      "noteNumber": 52,
      "velocity": 34,
      "ticks": 120
    },
    {
      "time": 58800,
      "track": 1,
      "noteNumber": 64,
      "velocity": 36,
      "ticks": 120
    },
    {
      "time": 58920,
      "track": 1,
      "noteNumber": 52,
      "velocity": 32,
      "ticks": 120
    },
    {
      "time": 58980,
      "track": 2,
      "noteNumber": 38,
      "velocity": 29,
      "ticks": 90
    },
    {
      "time": 59010,
      "track": 2,
      "noteNumber": 45,
      "velocity": 33,
      "ticks": 60
    },
    {
      "time": 59040,
      "track": 1,
      "noteNumber": 69,
      "velocity": 44,
      "ticks": 30
    },
    {
      "time": 59040,
      "track": 2,
      "noteNumber": 54,
      "velocity": 37,
      "ticks": 30
    },
    {
      "time": 59044,
      "track": 1,
      "noteNumber": 64,
      "velocity": 37,
      "ticks": 30
    },
    {
      "time": 59044,
      "track": 1,
      "noteNumber": 60,
      "velocity": 37,
      "ticks": 30
    },
    {
      "time": 59160,
      "track": 1,
      "noteNumber": 71,
      "velocity": 42,
      "ticks": 30
    },
    {
      "time": 59280,
      "track": 1,
      "noteNumber": 72,
      "velocity": 44,
      "ticks": 30
    },
    {
      "time": 59400,
      "track": 1,
      "noteNumber": 74,
      "velocity": 43,
      "ticks": 30
    },
    {
      "time": 59520,
      "track": 1,
      "noteNumber": 71,
      "velocity": 44,
      "ticks": 100
    },
    {
      "time": 59640,
      "track": 1,
      "noteNumber": 71,
      "velocity": 39,
      "ticks": 60
    },
    {
      "time": 59700,
      "track": 1,
      "noteNumber": 72,
      "velocity": 39,
      "ticks": 60
    },
    {
      "time": 59760,
      "track": 1,
      "noteNumber": 71,
      "velocity": 44,
      "ticks": 120
    },
    {
      "time": 59880,
      "track": 1,
      "noteNumber": 69,
      "velocity": 44,
      "ticks": 90
    },
    {
      "time": 59940,
      "track": 2,
      "noteNumber": 38,
      "velocity": 27,
      "ticks": 180
    },
    {
      "time": 59970,
      "track": 2,
      "noteNumber": 45,
      "velocity": 32,
      "ticks": 150
    },
    {
      "time": 60000,
      "track": 2,
      "noteNumber": 54,
      "velocity": 35,
      "ticks": 120
    },
    {
      "time": 60000,
      "track": 1,
      "noteNumber": 71,
      "velocity": 48,
      "ticks": 45
    },
    {
      "time": 60000,
      "track": 1,
      "noteNumber": 64,
      "velocity": 34,
      "ticks": 90
    },
    {
      "time": 60000,
      "track": 1,
      "noteNumber": 60,
      "velocity": 34,
      "ticks": 90
    },
    {
      "time": 60240,
      "track": 1,
      "noteNumber": 72,
      "velocity": 43,
      "ticks": 90
    },
    {
      "time": 60420,
      "track": 2,
      "noteNumber": 38,
      "velocity": 37,
      "ticks": 90
    },
    {
      "time": 60450,
      "track": 2,
      "noteNumber": 45,
      "velocity": 37,
      "ticks": 60
    },
    {
      "time": 60480,
      "track": 1,
      "noteNumber": 71,
      "velocity": 45,
      "ticks": 120
    },
    {
      "time": 60480,
      "track": 1,
      "noteNumber": 60,
      "velocity": 37,
      "ticks": 240
    },
    {
      "time": 60480,
      "track": 1,
      "noteNumber": 64,
      "velocity": 37,
      "ticks": 240
    },
    {
      "time": 60480,
      "track": 2,
      "noteNumber": 54,
      "velocity": 37,
      "ticks": 30
    },
    {
      "time": 60600,
      "track": 1,
      "noteNumber": 72,
      "velocity": 43,
      "ticks": 120
    },
    {
      "time": 60720,
      "track": 1,
      "noteNumber": 74,
      "velocity": 45,
      "ticks": 60
    },
    {
      "time": 60840,
      "track": 1,
      "noteNumber": 76,
      "velocity": 43,
      "ticks": 60
    },
    {
      "time": 60960,
      "track": 1,
      "noteNumber": 78,
      "velocity": 45,
      "ticks": 60
    },
    {
      "time": 60960,
      "track": 2,
      "noteNumber": 69,
      "velocity": 39,
      "ticks": 30
    },
    {
      "time": 61080,
      "track": 1,
      "noteNumber": 78,
      "velocity": 43,
      "ticks": 40
    },
    {
      "time": 61120,
      "track": 1,
      "noteNumber": 79,
      "velocity": 41,
      "ticks": 40
    },
    {
      "time": 61160,
      "track": 1,
      "noteNumber": 78,
      "velocity": 41,
      "ticks": 40
    },
    {
      "time": 61200,
      "track": 1,
      "noteNumber": 76,
      "velocity": 45,
      "ticks": 120
    },
    {
      "time": 61320,
      "track": 1,
      "noteNumber": 74,
      "velocity": 43,
      "ticks": 120
    },
    {
      "time": 61440,
      "track": 2,
      "noteNumber": 62,
      "velocity": 39,
      "ticks": 30
    },
    {
      "time": 61440,
      "track": 1,
      "noteNumber": 72,
      "velocity": 45,
      "ticks": 120
    },
    {
      "time": 61560,
      "track": 1,
      "noteNumber": 74,
      "velocity": 41,
      "ticks": 120
    },
    {
      "time": 61680,
      "track": 1,
      "noteNumber": 76,
      "velocity": 41,
      "ticks": 240
    },
    {
      "time": 61920,
      "track": 2,
      "noteNumber": 65,
      "velocity": 37,
      "ticks": 1440
    },
    {
      "time": 61920,
      "track": 2,
      "noteNumber": 62,
      "velocity": 33,
      "ticks": 2400
    },
    {
      "time": 61920,
      "track": 1,
      "noteNumber": 81,
      "velocity": 44,
      "ticks": 30
    },
    {
      "time": 61920,
      "track": 1,
      "noteNumber": 74,
      "velocity": 37,
      "ticks": 1440
    },
    {
      "time": 61920,
      "track": 2,
      "noteNumber": 60,
      "velocity": 33,
      "ticks": 2400
    },
    {
      "time": 62040,
      "track": 1,
      "noteNumber": 83,
      "velocity": 42,
      "ticks": 30
    },
    {
      "time": 62160,
      "track": 1,
      "noteNumber": 84,
      "velocity": 44,
      "ticks": 30
    },
    {
      "time": 62280,
      "track": 1,
      "noteNumber": 86,
      "velocity": 43,
      "ticks": 30
    },
    {
      "time": 62400,
      "track": 1,
      "noteNumber": 83,
      "velocity": 44,
      "ticks": 100
    },
    {
      "time": 62520,
      "track": 1,
      "noteNumber": 83,
      "velocity": 39,
      "ticks": 60
    },
    {
      "time": 62580,
      "track": 1,
      "noteNumber": 84,
      "velocity": 39,
      "ticks": 60
    },
    {
      "time": 62640,
      "track": 1,
      "noteNumber": 83,
      "velocity": 44,
      "ticks": 120
    },
    {
      "time": 62760,
      "track": 1,
      "noteNumber": 81,
      "velocity": 44,
      "ticks": 90
    },
    {
      "time": 62880,
      "track": 1,
      "noteNumber": 83,
      "velocity": 48,
      "ticks": 45
    },
    {
      "time": 63120,
      "track": 1,
      "noteNumber": 84,
      "velocity": 43,
      "ticks": 90
    },
    {
      "time": 63360,
      "track": 2,
      "noteNumber": 66,
      "velocity": 37,
      "ticks": 480
    },
    {
      "time": 63360,
      "track": 1,
      "noteNumber": 83,
      "velocity": 45,
      "ticks": 120
    },
    {
      "time": 63360,
      "track": 1,
      "noteNumber": 74,
      "velocity": 37,
      "ticks": 1440
    },
    {
      "time": 63480,
      "track": 1,
      "noteNumber": 84,
      "velocity": 43,
      "ticks": 120
    },
    {
      "time": 63600,
      "track": 1,
      "noteNumber": 86,
      "velocity": 45,
      "ticks": 60
    },
    {
      "time": 63720,
      "track": 1,
      "noteNumber": 88,
      "velocity": 43,
      "ticks": 60
    },
    {
      "time": 63840,
      "track": 1,
      "noteNumber": 90,
      "velocity": 45,
      "ticks": 60
    },
    {
      "time": 63840,
      "track": 2,
      "noteNumber": 69,
      "velocity": 37,
      "ticks": 480
    },
    {
      "time": 63960,
      "track": 1,
      "noteNumber": 90,
      "velocity": 43,
      "ticks": 40
    },
    {
      "time": 64000,
      "track": 1,
      "noteNumber": 91,
      "velocity": 41,
      "ticks": 40
    },
    {
      "time": 64040,
      "track": 1,
      "noteNumber": 90,
      "velocity": 41,
      "ticks": 40
    },
    {
      "time": 64080,
      "track": 1,
      "noteNumber": 88,
      "velocity": 45,
      "ticks": 120
    },
    {
      "time": 64200,
      "track": 1,
      "noteNumber": 86,
      "velocity": 43,
      "ticks": 120
    },
    {
      "time": 64320,
      "track": 2,
      "noteNumber": 50,
      "velocity": 37,
      "ticks": 120
    },
    {
      "time": 64320,
      "track": 1,
      "noteNumber": 84,
      "velocity": 45,
      "ticks": 120
    },
    {
      "time": 64440,
      "track": 1,
      "noteNumber": 86,
      "velocity": 41,
      "ticks": 120
    },
    {
      "time": 64560,
      "track": 1,
      "noteNumber": 88,
      "velocity": 41,
      "ticks": 360
    },
    {
      "time": 64740,
      "track": 2,
      "noteNumber": 55,
      "velocity": 31,
      "ticks": 300
    },
    {
      "time": 64770,
      "track": 2,
      "noteNumber": 62,
      "velocity": 35,
      "ticks": 240
    },
    {
      "time": 64800,
      "track": 2,
      "noteNumber": 71,
      "velocity": 37,
      "ticks": 240
    },
    {
      "time": 64800,
      "track": 1,
      "noteNumber": 83,
      "velocity": 30,
      "ticks": 300
    },
    {
      "time": 64800,
      "track": 1,
      "noteNumber": 79,
      "velocity": 30,
      "ticks": 480
    },
    {
      "time": 64800,
      "track": 1,
      "noteNumber": 74,
      "velocity": 30,
      "ticks": 480
    },
    {
      "time": 64920,
      "track": 1,
      "noteNumber": 86,
      "velocity": 42,
      "ticks": 60
    },
    {
      "time": 65040,
      "track": 1,
      "noteNumber": 83,
      "velocity": 41,
      "ticks": 240
    },
    {
      "time": 65160,
      "track": 1,
      "noteNumber": 81,
      "velocity": 41,
      "ticks": 60
    },
    {
      "time": 65280,
      "track": 1,
      "noteNumber": 83,
      "velocity": 44,
      "ticks": 60
    },
    {
      "time": 65400,
      "track": 1,
      "noteNumber": 79,
      "velocity": 41,
      "ticks": 60
    },
    {
      "time": 65520,
      "track": 1,
      "noteNumber": 76,
      "velocity": 41,
      "ticks": 60
    },
    {
      "time": 65640,
      "track": 1,
      "noteNumber": 74,
      "velocity": 41,
      "ticks": 60
    },
    {
      "time": 65760,
      "track": 2,
      "noteNumber": 55,
      "velocity": 32,
      "ticks": 480
    },
    {
      "time": 65760,
      "track": 2,
      "noteNumber": 48,
      "velocity": 32,
      "ticks": 480
    },
    {
      "time": 65760,
      "track": 1,
      "noteNumber": 72,
      "velocity": 46,
      "ticks": 240
    },
    {
      "time": 65760,
      "track": 2,
      "noteNumber": 64,
      "velocity": 32,
      "ticks": 480
    },
    {
      "time": 65760,
      "track": 1,
      "noteNumber": 76,
      "velocity": 31,
      "ticks": 600
    },
    {
      "time": 65760,
      "track": 1,
      "noteNumber": 67,
      "velocity": 31,
      "ticks": 480
    },
    {
      "time": 66000,
      "track": 1,
      "noteNumber": 69,
      "velocity": 38,
      "ticks": 240
    },
    {
      "time": 66180,
      "track": 2,
      "noteNumber": 43,
      "velocity": 37,
      "ticks": 300
    },
    {
      "time": 66210,
      "track": 2,
      "noteNumber": 50,
      "velocity": 37,
      "ticks": 270
    },
    {
      "time": 66240,
      "track": 2,
      "noteNumber": 59,
      "velocity": 37,
      "ticks": 240
    },
    {
      "time": 66240,
      "track": 1,
      "noteNumber": 67,
      "velocity": 30,
      "ticks": 480
    },
    {
      "time": 66240,
      "track": 1,
      "noteNumber": 71,
      "velocity": 30,
      "ticks": 300
    },
    {
      "time": 66240,
      "track": 1,
      "noteNumber": 62,
      "velocity": 30,
      "ticks": 480
    },
    {
      "time": 66360,
      "track": 1,
      "noteNumber": 74,
      "velocity": 42,
      "ticks": 60
    },
    {
      "time": 66480,
      "track": 1,
      "noteNumber": 71,
      "velocity": 41,
      "ticks": 240
    },
    {
      "time": 66600,
      "track": 1,
      "noteNumber": 69,
      "velocity": 41,
      "ticks": 60
    },
    {
      "time": 66720,
      "track": 1,
      "noteNumber": 71,
      "velocity": 44,
      "ticks": 60
    },
    {
      "time": 66840,
      "track": 1,
      "noteNumber": 67,
      "velocity": 41,
      "ticks": 60
    },
    {
      "time": 66960,
      "track": 1,
      "noteNumber": 64,
      "velocity": 41,
      "ticks": 60
    },
    {
      "time": 67080,
      "track": 1,
      "noteNumber": 62,
      "velocity": 41,
      "ticks": 60
    },
    {
      "time": 67200,
      "track": 1,
      "noteNumber": 60,
      "velocity": 44,
      "ticks": 240
    },
    {
      "time": 67200,
      "track": 1,
      "noteNumber": 64,
      "velocity": 30,
      "ticks": 600
    },
    {
      "time": 67200,
      "track": 2,
      "noteNumber": 48,
      "velocity": 32,
      "ticks": 1440
    },
    {
      "time": 67200,
      "track": 2,
      "noteNumber": 45,
      "velocity": 32,
      "ticks": 240
    },
    {
      "time": 67440,
      "track": 1,
      "noteNumber": 57,
      "velocity": 38,
      "ticks": 240
    },
    {
      "time": 67440,
      "track": 2,
      "noteNumber": 42,
      "velocity": 32,
      "ticks": 240
    },
    {
      "time": 67680,
      "track": 1,
      "noteNumber": 55,
      "velocity": 35,
      "ticks": 1440
    },
    {
      "time": 67680,
      "track": 2,
      "noteNumber": 40,
      "velocity": 32,
      "ticks": 1440
    },
    {
      "time": 67800,
      "track": 1,
      "noteNumber": 66,
      "velocity": 40,
      "ticks": 120
    },
    {
      "time": 67920,
      "track": 1,
      "noteNumber": 67,
      "velocity": 40,
      "ticks": 60
    },
    {
      "time": 68040,
      "track": 1,
      "noteNumber": 69,
      "velocity": 40,
      "ticks": 60
    },
    {
      "time": 68160,
      "track": 1,
      "noteNumber": 64,
      "velocity": 43,
      "ticks": 100
    },
    {
      "time": 68280,
      "track": 1,
      "noteNumber": 64,
      "velocity": 39,
      "ticks": 60
    },
    {
      "time": 68340,
      "track": 1,
      "noteNumber": 66,
      "velocity": 39,
      "ticks": 60
    },
    {
      "time": 68400,
      "track": 1,
      "noteNumber": 64,
      "velocity": 43,
      "ticks": 120
    },
    {
      "time": 68520,
      "track": 1,
      "noteNumber": 62,
      "velocity": 39,
      "ticks": 90
    },
    {
      "time": 68640,
      "track": 1,
      "noteNumber": 64,
      "velocity": 44,
      "ticks": 75
    },
    {
      "time": 68640,
      "track": 2,
      "noteNumber": 47,
      "velocity": 32,
      "ticks": 480
    },
    {
      "time": 68880,
      "track": 1,
      "noteNumber": 67,
      "velocity": 44,
      "ticks": 75
    },
    {
      "time": 69120,
      "track": 2,
      "noteNumber": 45,
      "velocity": 39,
      "ticks": 240
    },
    {
      "time": 69120,
      "track": 2,
      "noteNumber": 33,
      "velocity": 39,
      "ticks": 240
    },
    {
      "time": 69120,
      "track": 1,
      "noteNumber": 67,
      "velocity": 44,
      "ticks": 75
    },
    {
      "time": 69120,
      "track": 1,
      "noteNumber": 62,
      "velocity": 44,
      "ticks": 75
    },
    {
      "time": 69120,
      "track": 1,
      "noteNumber": 71,
      "velocity": 44,
      "ticks": 75
    },
    {
      "time": 69360,
      "track": 1,
      "noteNumber": 64,
      "velocity": 41,
      "ticks": 75
    },
    {
      "time": 69360,
      "track": 1,
      "noteNumber": 69,
      "velocity": 41,
      "ticks": 75
    },
    {
      "time": 69360,
      "track": 1,
      "noteNumber": 60,
      "velocity": 41,
      "ticks": 75
    },
    {
      "time": 69600,
      "track": 2,
      "noteNumber": 57,
      "velocity": 44,
      "ticks": 75
    },
    {
      "time": 69840,
      "track": 2,
      "noteNumber": 52,
      "velocity": 41,
      "ticks": 75
    },
    {
      "time": 70080,
      "track": 2,
      "noteNumber": 45,
      "velocity": 51,
      "ticks": 90
    },
    {
      "time": 70320,
      "track": 2,
      "noteNumber": 43,
      "velocity": 50,
      "ticks": 90
    },
    {
      "time": 70560,
      "track": 2,
      "noteNumber": 29,
      "velocity": 77,
      "ticks": 1440
    },
    {
      "time": 70560,
      "track": 1,
      "noteNumber": 69,
      "velocity": 77,
      "ticks": 480
    },
    {
      "time": 70560,
      "track": 1,
      "noteNumber": 81,
      "velocity": 77,
      "ticks": 120
    },
    {
      "time": 70560,
      "track": 2,
      "noteNumber": 41,
      "velocity": 77,
      "ticks": 1440
    },
    {
      "time": 70680,
      "track": 1,
      "noteNumber": 79,
      "velocity": 70,
      "ticks": 60
    },
    {
      "time": 70740,
      "track": 1,
      "noteNumber": 77,
      "velocity": 70,
      "ticks": 60
    },
    {
      "time": 70800,
      "track": 1,
      "noteNumber": 76,
      "velocity": 70,
      "ticks": 60
    },
    {
      "time": 70860,
      "track": 1,
      "noteNumber": 74,
      "velocity": 70,
      "ticks": 60
    },
    {
      "time": 70920,
      "track": 1,
      "noteNumber": 72,
      "velocity": 70,
      "ticks": 60
    },
    {
      "time": 70980,
      "track": 1,
      "noteNumber": 71,
      "velocity": 70,
      "ticks": 60
    },
    {
      "time": 71040,
      "track": 1,
      "noteNumber": 69,
      "velocity": 77,
      "ticks": 610
    },
    {
      "time": 71160,
      "track": 2,
      "noteNumber": 67,
      "velocity": 69,
      "ticks": 60
    },
    {
      "time": 71220,
      "track": 2,
      "noteNumber": 65,
      "velocity": 69,
      "ticks": 60
    },
    {
      "time": 71280,
      "track": 2,
      "noteNumber": 64,
      "velocity": 69,
      "ticks": 60
    },
    {
      "time": 71340,
      "track": 2,
      "noteNumber": 62,
      "velocity": 69,
      "ticks": 60
    },
    {
      "time": 71400,
      "track": 2,
      "noteNumber": 60,
      "velocity": 69,
      "ticks": 60
    },
    {
      "time": 71460,
      "track": 2,
      "noteNumber": 59,
      "velocity": 69,
      "ticks": 60
    },
    {
      "time": 71520,
      "track": 2,
      "noteNumber": 57,
      "velocity": 77,
      "ticks": 240
    },
    {
      "time": 71640,
      "track": 1,
      "noteNumber": 72,
      "velocity": 65,
      "ticks": 100
    },
    {
      "time": 71760,
      "track": 2,
      "noteNumber": 55,
      "velocity": 68,
      "ticks": 240
    },
    {
      "time": 71760,
      "track": 1,
      "noteNumber": 71,
      "velocity": 68,
      "ticks": 130
    },
    {
      "time": 71880,
      "track": 1,
      "noteNumber": 74,
      "velocity": 65,
      "ticks": 100
    },
    {
      "time": 72000,
      "track": 1,
      "noteNumber": 65,
      "velocity": 58,
      "ticks": 960
    },
    {
      "time": 72000,
      "track": 1,
      "noteNumber": 72,
      "velocity": 68,
      "ticks": 130
    },
    {
      "time": 72000,
      "track": 2,
      "noteNumber": 57,
      "velocity": 71,
      "ticks": 240
    },
    {
      "time": 72120,
      "track": 1,
      "noteNumber": 76,
      "velocity": 65,
      "ticks": 100
    },
    {
      "time": 72240,
      "track": 1,
      "noteNumber": 74,
      "velocity": 67,
      "ticks": 130
    },
    {
      "time": 72240,
      "track": 2,
      "noteNumber": 59,
      "velocity": 66,
      "ticks": 240
    },
    {
      "time": 72360,
      "track": 1,
      "noteNumber": 77,
      "velocity": 68,
      "ticks": 100
    },
    {
      "time": 72480,
      "track": 1,
      "noteNumber": 76,
      "velocity": 71,
      "ticks": 130
    },
    {
      "time": 72480,
      "track": 2,
      "noteNumber": 60,
      "velocity": 63,
      "ticks": 240
    },
    {
      "time": 72600,
      "track": 1,
      "noteNumber": 72,
      "velocity": 61,
      "ticks": 130
    },
    {
      "time": 72720,
      "track": 2,
      "noteNumber": 62,
      "velocity": 62,
      "ticks": 240
    },
    {
      "time": 72720,
      "track": 1,
      "noteNumber": 71,
      "velocity": 59,
      "ticks": 130
    },
    {
      "time": 72840,
      "track": 1,
      "noteNumber": 67,
      "velocity": 55,
      "ticks": 120
    },
    {
      "time": 72960,
      "track": 2,
      "noteNumber": 59,
      "velocity": 55,
      "ticks": 240
    },
    {
      "time": 72960,
      "track": 1,
      "noteNumber": 65,
      "velocity": 55,
      "ticks": 240
    },
    {
      "time": 72960,
      "track": 1,
      "noteNumber": 62,
      "velocity": 55,
      "ticks": 240
    },
    {
      "time": 73200,
      "track": 2,
      "noteNumber": 57,
      "velocity": 53,
      "ticks": 120
    },
    {
      "time": 73200,
      "track": 1,
      "noteNumber": 64,
      "velocity": 55,
      "ticks": 210
    },
    {
      "time": 73200,
      "track": 1,
      "noteNumber": 67,
      "velocity": 55,
      "ticks": 210
    },
    {
      "time": 73320,
      "track": 2,
      "noteNumber": 55,
      "velocity": 50,
      "ticks": 120
    },
    {
      "time": 73440,
      "track": 1,
      "noteNumber": 81,
      "velocity": 77,
      "ticks": 120
    },
    {
      "time": 73440,
      "track": 2,
      "noteNumber": 29,
      "velocity": 77,
      "ticks": 1440
    },
    {
      "time": 73440,
      "track": 1,
      "noteNumber": 69,
      "velocity": 77,
      "ticks": 480
    },
    {
      "time": 73440,
      "track": 2,
      "noteNumber": 41,
      "velocity": 77,
      "ticks": 1440
    },
    {
      "time": 73560,
      "track": 1,
      "noteNumber": 79,
      "velocity": 70,
      "ticks": 60
    },
    {
      "time": 73620,
      "track": 1,
      "noteNumber": 77,
      "velocity": 70,
      "ticks": 60
    },
    {
      "time": 73680,
      "track": 1,
      "noteNumber": 76,
      "velocity": 70,
      "ticks": 60
    },
    {
      "time": 73740,
      "track": 1,
      "noteNumber": 74,
      "velocity": 70,
      "ticks": 60
    },
    {
      "time": 73800,
      "track": 1,
      "noteNumber": 72,
      "velocity": 70,
      "ticks": 60
    },
    {
      "time": 73860,
      "track": 1,
      "noteNumber": 71,
      "velocity": 70,
      "ticks": 60
    },
    {
      "time": 73920,
      "track": 1,
      "noteNumber": 69,
      "velocity": 77,
      "ticks": 610
    },
    {
      "time": 74040,
      "track": 2,
      "noteNumber": 67,
      "velocity": 69,
      "ticks": 60
    },
    {
      "time": 74100,
      "track": 2,
      "noteNumber": 65,
      "velocity": 69,
      "ticks": 60
    },
    {
      "time": 74160,
      "track": 2,
      "noteNumber": 64,
      "velocity": 69,
      "ticks": 60
    },
    {
      "time": 74220,
      "track": 2,
      "noteNumber": 62,
      "velocity": 69,
      "ticks": 60
    },
    {
      "time": 74280,
      "track": 2,
      "noteNumber": 60,
      "velocity": 69,
      "ticks": 60
    },
    {
      "time": 74340,
      "track": 2,
      "noteNumber": 59,
      "velocity": 69,
      "ticks": 60
    },
    {
      "time": 74400,
      "track": 2,
      "noteNumber": 57,
      "velocity": 77,
      "ticks": 240
    },
    {
      "time": 74520,
      "track": 1,
      "noteNumber": 72,
      "velocity": 65,
      "ticks": 100
    },
    {
      "time": 74640,
      "track": 2,
      "noteNumber": 55,
      "velocity": 68,
      "ticks": 240
    },
    {
      "time": 74640,
      "track": 1,
      "noteNumber": 71,
      "velocity": 68,
      "ticks": 130
    },
    {
      "time": 74760,
      "track": 1,
      "noteNumber": 74,
      "velocity": 65,
      "ticks": 100
    },
    {
      "time": 74880,
      "track": 2,
      "noteNumber": 57,
      "velocity": 71,
      "ticks": 240
    },
    {
      "time": 74880,
      "track": 1,
      "noteNumber": 65,
      "velocity": 58,
      "ticks": 960
    },
    {
      "time": 74880,
      "track": 1,
      "noteNumber": 72,
      "velocity": 68,
      "ticks": 130
    },
    {
      "time": 75000,
      "track": 1,
      "noteNumber": 76,
      "velocity": 65,
      "ticks": 100
    },
    {
      "time": 75120,
      "track": 1,
      "noteNumber": 74,
      "velocity": 67,
      "ticks": 130
    },
    {
      "time": 75120,
      "track": 2,
      "noteNumber": 59,
      "velocity": 66,
      "ticks": 240
    },
    {
      "time": 75240,
      "track": 1,
      "noteNumber": 77,
      "velocity": 68,
      "ticks": 100
    },
    {
      "time": 75360,
      "track": 1,
      "noteNumber": 76,
      "velocity": 71,
      "ticks": 130
    },
    {
      "time": 75360,
      "track": 2,
      "noteNumber": 60,
      "velocity": 63,
      "ticks": 240
    },
    {
      "time": 75480,
      "track": 1,
      "noteNumber": 72,
      "velocity": 59,
      "ticks": 130
    },
    {
      "time": 75600,
      "track": 1,
      "noteNumber": 71,
      "velocity": 59,
      "ticks": 130
    },
    {
      "time": 75600,
      "track": 2,
      "noteNumber": 62,
      "velocity": 62,
      "ticks": 240
    },
    {
      "time": 75720,
      "track": 1,
      "noteNumber": 67,
      "velocity": 57,
      "ticks": 120
    },
    {
      "time": 75840,
      "track": 1,
      "noteNumber": 65,
      "velocity": 55,
      "ticks": 240
    },
    {
      "time": 75840,
      "track": 1,
      "noteNumber": 62,
      "velocity": 55,
      "ticks": 240
    },
    {
      "time": 75840,
      "track": 2,
      "noteNumber": 57,
      "velocity": 55,
      "ticks": 240
    },
    {
      "time": 76080,
      "track": 2,
      "noteNumber": 55,
      "velocity": 53,
      "ticks": 120
    },
    {
      "time": 76080,
      "track": 1,
      "noteNumber": 69,
      "velocity": 55,
      "ticks": 210
    },
    {
      "time": 76080,
      "track": 1,
      "noteNumber": 65,
      "velocity": 55,
      "ticks": 210
    },
    {
      "time": 76200,
      "track": 2,
      "noteNumber": 53,
      "velocity": 50,
      "ticks": 120
    },
    {
      "time": 76320,
      "track": 1,
      "noteNumber": 67,
      "velocity": 77,
      "ticks": 480
    },
    {
      "time": 76320,
      "track": 2,
      "noteNumber": 39,
      "velocity": 81,
      "ticks": 1440
    },
    {
      "time": 76320,
      "track": 1,
      "noteNumber": 79,
      "velocity": 79,
      "ticks": 120
    },
    {
      "time": 76320,
      "track": 2,
      "noteNumber": 27,
      "velocity": 81,
      "ticks": 1440
    },
    {
      "time": 76440,
      "track": 1,
      "noteNumber": 77,
      "velocity": 70,
      "ticks": 60
    },
    {
      "time": 76500,
      "track": 1,
      "noteNumber": 75,
      "velocity": 70,
      "ticks": 60
    },
    {
      "time": 76560,
      "track": 1,
      "noteNumber": 74,
      "velocity": 70,
      "ticks": 60
    },
    {
      "time": 76620,
      "track": 1,
      "noteNumber": 72,
      "velocity": 70,
      "ticks": 60
    },
    {
      "time": 76680,
      "track": 1,
      "noteNumber": 70,
      "velocity": 70,
      "ticks": 60
    },
    {
      "time": 76740,
      "track": 1,
      "noteNumber": 69,
      "velocity": 70,
      "ticks": 60
    },
    {
      "time": 76800,
      "track": 1,
      "noteNumber": 67,
      "velocity": 77,
      "ticks": 610
    },
    {
      "time": 76920,
      "track": 2,
      "noteNumber": 65,
      "velocity": 69,
      "ticks": 60
    },
    {
      "time": 76980,
      "track": 2,
      "noteNumber": 63,
      "velocity": 69,
      "ticks": 60
    },
    {
      "time": 77040,
      "track": 2,
      "noteNumber": 62,
      "velocity": 69,
      "ticks": 60
    },
    {
      "time": 77100,
      "track": 2,
      "noteNumber": 60,
      "velocity": 69,
      "ticks": 60
    },
    {
      "time": 77160,
      "track": 2,
      "noteNumber": 58,
      "velocity": 69,
      "ticks": 60
    },
    {
      "time": 77220,
      "track": 2,
      "noteNumber": 57,
      "velocity": 69,
      "ticks": 60
    },
    {
      "time": 77280,
      "track": 2,
      "noteNumber": 55,
      "velocity": 77,
      "ticks": 240
    },
    {
      "time": 77400,
      "track": 1,
      "noteNumber": 70,
      "velocity": 65,
      "ticks": 100
    },
    {
      "time": 77520,
      "track": 2,
      "noteNumber": 53,
      "velocity": 68,
      "ticks": 240
    },
    {
      "time": 77520,
      "track": 1,
      "noteNumber": 69,
      "velocity": 68,
      "ticks": 130
    },
    {
      "time": 77640,
      "track": 1,
      "noteNumber": 72,
      "velocity": 65,
      "ticks": 100
    },
    {
      "time": 77760,
      "track": 2,
      "noteNumber": 55,
      "velocity": 71,
      "ticks": 240
    },
    {
      "time": 77760,
      "track": 1,
      "noteNumber": 70,
      "velocity": 68,
      "ticks": 130
    },
    {
      "time": 77760,
      "track": 1,
      "noteNumber": 63,
      "velocity": 58,
      "ticks": 960
    },
    {
      "time": 77880,
      "track": 1,
      "noteNumber": 74,
      "velocity": 65,
      "ticks": 100
    },
    {
      "time": 78000,
      "track": 2,
      "noteNumber": 57,
      "velocity": 66,
      "ticks": 240
    },
    {
      "time": 78000,
      "track": 1,
      "noteNumber": 72,
      "velocity": 67,
      "ticks": 130
    },
    {
      "time": 78120,
      "track": 1,
      "noteNumber": 75,
      "velocity": 68,
      "ticks": 100
    },
    {
      "time": 78240,
      "track": 2,
      "noteNumber": 58,
      "velocity": 63,
      "ticks": 240
    },
    {
      "time": 78240,
      "track": 1,
      "noteNumber": 74,
      "velocity": 71,
      "ticks": 130
    },
    {
      "time": 78360,
      "track": 1,
      "noteNumber": 70,
      "velocity": 58,
      "ticks": 130
    },
    {
      "time": 78480,
      "track": 2,
      "noteNumber": 60,
      "velocity": 62,
      "ticks": 240
    },
    {
      "time": 78480,
      "track": 1,
      "noteNumber": 69,
      "velocity": 59,
      "ticks": 130
    },
    {
      "time": 78600,
      "track": 1,
      "noteNumber": 65,
      "velocity": 55,
      "ticks": 120
    },
    {
      "time": 78720,
      "track": 1,
      "noteNumber": 60,
      "velocity": 55,
      "ticks": 240
    },
    {
      "time": 78720,
      "track": 1,
      "noteNumber": 63,
      "velocity": 55,
      "ticks": 240
    },
    {
      "time": 78720,
      "track": 2,
      "noteNumber": 57,
      "velocity": 55,
      "ticks": 240
    },
    {
      "time": 78960,
      "track": 1,
      "noteNumber": 65,
      "velocity": 55,
      "ticks": 210
    },
    {
      "time": 78960,
      "track": 1,
      "noteNumber": 62,
      "velocity": 55,
      "ticks": 210
    },
    {
      "time": 78960,
      "track": 2,
      "noteNumber": 55,
      "velocity": 53,
      "ticks": 120
    },
    {
      "time": 79080,
      "track": 2,
      "noteNumber": 53,
      "velocity": 50,
      "ticks": 120
    },
    {
      "time": 79200,
      "track": 1,
      "noteNumber": 67,
      "velocity": 77,
      "ticks": 480
    },
    {
      "time": 79200,
      "track": 2,
      "noteNumber": 39,
      "velocity": 81,
      "ticks": 1440
    },
    {
      "time": 79200,
      "track": 2,
      "noteNumber": 27,
      "velocity": 81,
      "ticks": 1440
    },
    {
      "time": 79200,
      "track": 1,
      "noteNumber": 79,
      "velocity": 79,
      "ticks": 120
    },
    {
      "time": 79320,
      "track": 1,
      "noteNumber": 77,
      "velocity": 70,
      "ticks": 60
    },
    {
      "time": 79380,
      "track": 1,
      "noteNumber": 75,
      "velocity": 70,
      "ticks": 60
    },
    {
      "time": 79440,
      "track": 1,
      "noteNumber": 74,
      "velocity": 70,
      "ticks": 60
    },
    {
      "time": 79500,
      "track": 1,
      "noteNumber": 72,
      "velocity": 70,
      "ticks": 60
    },
    {
      "time": 79560,
      "track": 1,
      "noteNumber": 70,
      "velocity": 70,
      "ticks": 60
    },
    {
      "time": 79620,
      "track": 1,
      "noteNumber": 69,
      "velocity": 70,
      "ticks": 60
    },
    {
      "time": 79680,
      "track": 1,
      "noteNumber": 67,
      "velocity": 77,
      "ticks": 610
    },
    {
      "time": 79800,
      "track": 2,
      "noteNumber": 65,
      "velocity": 69,
      "ticks": 60
    },
    {
      "time": 79860,
      "track": 2,
      "noteNumber": 63,
      "velocity": 69,
      "ticks": 60
    },
    {
      "time": 79920,
      "track": 2,
      "noteNumber": 62,
      "velocity": 69,
      "ticks": 60
    },
    {
      "time": 79980,
      "track": 2,
      "noteNumber": 60,
      "velocity": 69,
      "ticks": 60
    },
    {
      "time": 80040,
      "track": 2,
      "noteNumber": 58,
      "velocity": 69,
      "ticks": 60
    },
    {
      "time": 80100,
      "track": 2,
      "noteNumber": 57,
      "velocity": 69,
      "ticks": 60
    },
    {
      "time": 80160,
      "track": 2,
      "noteNumber": 55,
      "velocity": 77,
      "ticks": 240
    },
    {
      "time": 80280,
      "track": 1,
      "noteNumber": 70,
      "velocity": 65,
      "ticks": 100
    },
    {
      "time": 80400,
      "track": 2,
      "noteNumber": 53,
      "velocity": 68,
      "ticks": 240
    },
    {
      "time": 80400,
      "track": 1,
      "noteNumber": 69,
      "velocity": 68,
      "ticks": 130
    },
    {
      "time": 80520,
      "track": 1,
      "noteNumber": 72,
      "velocity": 65,
      "ticks": 100
    },
    {
      "time": 80640,
      "track": 1,
      "noteNumber": 63,
      "velocity": 58,
      "ticks": 960
    },
    {
      "time": 80640,
      "track": 2,
      "noteNumber": 55,
      "velocity": 71,
      "ticks": 240
    },
    {
      "time": 80640,
      "track": 1,
      "noteNumber": 70,
      "velocity": 68,
      "ticks": 130
    },
    {
      "time": 80760,
      "track": 1,
      "noteNumber": 74,
      "velocity": 65,
      "ticks": 100
    },
    {
      "time": 80880,
      "track": 2,
      "noteNumber": 57,
      "velocity": 66,
      "ticks": 240
    },
    {
      "time": 80880,
      "track": 1,
      "noteNumber": 72,
      "velocity": 67,
      "ticks": 130
    },
    {
      "time": 81000,
      "track": 1,
      "noteNumber": 75,
      "velocity": 68,
      "ticks": 100
    },
    {
      "time": 81120,
      "track": 2,
      "noteNumber": 58,
      "velocity": 63,
      "ticks": 240
    },
    {
      "time": 81120,
      "track": 1,
      "noteNumber": 74,
      "velocity": 71,
      "ticks": 130
    },
    {
      "time": 81240,
      "track": 1,
      "noteNumber": 70,
      "velocity": 58,
      "ticks": 130
    },
    {
      "time": 81360,
      "track": 1,
      "noteNumber": 69,
      "velocity": 63,
      "ticks": 130
    },
    {
      "time": 81360,
      "track": 2,
      "noteNumber": 60,
      "velocity": 62,
      "ticks": 240
    },
    {
      "time": 81480,
      "track": 1,
      "noteNumber": 65,
      "velocity": 54,
      "ticks": 120
    },
    {
      "time": 81600,
      "track": 1,
      "noteNumber": 63,
      "velocity": 55,
      "ticks": 240
    },
    {
      "time": 81600,
      "track": 2,
      "noteNumber": 57,
      "velocity": 55,
      "ticks": 240
    },
    {
      "time": 81600,
      "track": 1,
      "noteNumber": 60,
      "velocity": 55,
      "ticks": 240
    },
    {
      "time": 81840,
      "track": 2,
      "noteNumber": 58,
      "velocity": 53,
      "ticks": 120
    },
    {
      "time": 81840,
      "track": 1,
      "noteNumber": 67,
      "velocity": 55,
      "ticks": 180
    },
    {
      "time": 81840,
      "track": 1,
      "noteNumber": 63,
      "velocity": 40,
      "ticks": 180
    },
    {
      "time": 81960,
      "track": 2,
      "noteNumber": 60,
      "velocity": 50,
      "ticks": 120
    },
    {
      "time": 82080,
      "track": 2,
      "noteNumber": 57,
      "velocity": 46,
      "ticks": 360
    },
    {
      "time": 82080,
      "track": 2,
      "noteNumber": 50,
      "velocity": 46,
      "ticks": 360
    },
    {
      "time": 82080,
      "track": 1,
      "noteNumber": 62,
      "velocity": 48,
      "ticks": 360
    },
    {
      "time": 82080,
      "track": 1,
      "noteNumber": 66,
      "velocity": 48,
      "ticks": 360
    },
    {
      "time": 82440,
      "track": 2,
      "noteNumber": 45,
      "velocity": 41,
      "ticks": 90
    },
    {
      "time": 82440,
      "track": 1,
      "noteNumber": 60,
      "velocity": 34,
      "ticks": 90
    },
    {
      "time": 82440,
      "track": 1,
      "noteNumber": 63,
      "velocity": 34,
      "ticks": 90
    },
    {
      "time": 82440,
      "track": 1,
      "noteNumber": 67,
      "velocity": 42,
      "ticks": 90
    },
    {
      "time": 82560,
      "track": 2,
      "noteNumber": 50,
      "velocity": 46,
      "ticks": 360
    },
    {
      "time": 82560,
      "track": 1,
      "noteNumber": 62,
      "velocity": 48,
      "ticks": 360
    },
    {
      "time": 82560,
      "track": 2,
      "noteNumber": 57,
      "velocity": 46,
      "ticks": 360
    },
    {
      "time": 82560,
      "track": 1,
      "noteNumber": 66,
      "velocity": 48,
      "ticks": 360
    },
    {
      "time": 82920,
      "track": 2,
      "noteNumber": 45,
      "velocity": 42,
      "ticks": 120
    },
    {
      "time": 82920,
      "track": 1,
      "noteNumber": 67,
      "velocity": 42,
      "ticks": 90
    },
    {
      "time": 82920,
      "track": 1,
      "noteNumber": 63,
      "velocity": 34,
      "ticks": 90
    },
    {
      "time": 82920,
      "track": 1,
      "noteNumber": 60,
      "velocity": 34,
      "ticks": 90
    },
    {
      "time": 83040,
      "track": 1,
      "noteNumber": 62,
      "velocity": 47,
      "ticks": 240
    },
    {
      "time": 83040,
      "track": 2,
      "noteNumber": 50,
      "velocity": 45,
      "ticks": 240
    },
    {
      "time": 83040,
      "track": 1,
      "noteNumber": 66,
      "velocity": 47,
      "ticks": 240
    },
    {
      "time": 83040,
      "track": 2,
      "noteNumber": 57,
      "velocity": 45,
      "ticks": 240
    },
    {
      "time": 83280,
      "track": 1,
      "noteNumber": 60,
      "velocity": 38,
      "ticks": 240
    },
    {
      "time": 83280,
      "track": 2,
      "noteNumber": 42,
      "velocity": 49,
      "ticks": 240
    },
    {
      "time": 83280,
      "track": 1,
      "noteNumber": 63,
      "velocity": 38,
      "ticks": 240
    },
    {
      "time": 83280,
      "track": 1,
      "noteNumber": 69,
      "velocity": 50,
      "ticks": 240
    },
    {
      "time": 83520,
      "track": 1,
      "noteNumber": 58,
      "velocity": 45,
      "ticks": 240
    },
    {
      "time": 83520,
      "track": 1,
      "noteNumber": 62,
      "velocity": 45,
      "ticks": 240
    },
    {
      "time": 83520,
      "track": 1,
      "noteNumber": 67,
      "velocity": 55,
      "ticks": 240
    },
    {
      "time": 83520,
      "track": 2,
      "noteNumber": 43,
      "velocity": 52,
      "ticks": 240
    },
    {
      "time": 83760,
      "track": 2,
      "noteNumber": 45,
      "velocity": 45,
      "ticks": 240
    },
    {
      "time": 83760,
      "track": 1,
      "noteNumber": 66,
      "velocity": 43,
      "ticks": 120
    },
    {
      "time": 83760,
      "track": 1,
      "noteNumber": 57,
      "velocity": 43,
      "ticks": 120
    },
    {
      "time": 83760,
      "track": 1,
      "noteNumber": 62,
      "velocity": 43,
      "ticks": 120
    },
    {
      "time": 83880,
      "track": 1,
      "noteNumber": 67,
      "velocity": 46,
      "ticks": 120
    },
    {
      "time": 84000,
      "track": 1,
      "noteNumber": 62,
      "velocity": 45,
      "ticks": 600
    },
    {
      "time": 84000,
      "track": 2,
      "noteNumber": 46,
      "velocity": 42,
      "ticks": 480
    },
    {
      "time": 84000,
      "track": 1,
      "noteNumber": 64,
      "velocity": 45,
      "ticks": 480
    },
    {
      "time": 84000,
      "track": 1,
      "noteNumber": 55,
      "velocity": 45,
      "ticks": 960
    },
    {
      "time": 84480,
      "track": 2,
      "noteNumber": 45,
      "velocity": 43,
      "ticks": 480
    },
    {
      "time": 84600,
      "track": 1,
      "noteNumber": 61,
      "velocity": 44,
      "ticks": 120
    },
    {
      "time": 84720,
      "track": 1,
      "noteNumber": 59,
      "velocity": 44,
      "ticks": 120
    },
    {
      "time": 84840,
      "track": 1,
      "noteNumber": 61,
      "velocity": 44,
      "ticks": 120
    },
    {
      "time": 84960,
      "track": 1,
      "noteNumber": 66,
      "velocity": 44,
      "ticks": 240
    },
    {
      "time": 84960,
      "track": 1,
      "noteNumber": 57,
      "velocity": 44,
      "ticks": 240
    },
    {
      "time": 84960,
      "track": 1,
      "noteNumber": 62,
      "velocity": 44,
      "ticks": 240
    },
    {
      "time": 84960,
      "track": 2,
      "noteNumber": 50,
      "velocity": 45,
      "ticks": 900
    },
    {
      "time": 85200,
      "track": 1,
      "noteNumber": 60,
      "velocity": 51,
      "ticks": 240
    },
    {
      "time": 85200,
      "track": 1,
      "noteNumber": 69,
      "velocity": 51,
      "ticks": 240
    },
    {
      "time": 85440,
      "track": 1,
      "noteNumber": 66,
      "velocity": 48,
      "ticks": 480
    },
    {
      "time": 85440,
      "track": 1,
      "noteNumber": 64,
      "velocity": 48,
      "ticks": 480
    },
    {
      "time": 85440,
      "track": 1,
      "noteNumber": 72,
      "velocity": 48,
      "ticks": 480
    },
    {
      "time": 85860,
      "track": 2,
      "noteNumber": 43,
      "velocity": 36,
      "ticks": 480
    },
    {
      "time": 85890,
      "track": 2,
      "noteNumber": 50,
      "velocity": 39,
      "ticks": 450
    },
    {
      "time": 85920,
      "track": 1,
      "noteNumber": 71,
      "velocity": 46,
      "ticks": 240
    },
    {
      "time": 85920,
      "track": 1,
      "noteNumber": 67,
      "velocity": 46,
      "ticks": 240
    },
    {
      "time": 85920,
      "track": 1,
      "noteNumber": 62,
      "velocity": 46,
      "ticks": 240
    },
    {
      "time": 85920,
      "track": 2,
      "noteNumber": 59,
      "velocity": 44,
      "ticks": 420
    },
    {
      "time": 86160,
      "track": 1,
      "noteNumber": 66,
      "velocity": 49,
      "ticks": 240
    },
    {
      "time": 86160,
      "track": 1,
      "noteNumber": 71,
      "velocity": 49,
      "ticks": 240
    },
    {
      "time": 86160,
      "track": 1,
      "noteNumber": 74,
      "velocity": 49,
      "ticks": 240
    },
    {
      "time": 86340,
      "track": 2,
      "noteNumber": 40,
      "velocity": 40,
      "ticks": 1020
    },
    {
      "time": 86370,
      "track": 2,
      "noteNumber": 55,
      "velocity": 44,
      "ticks": 990
    },
    {
      "time": 86400,
      "track": 2,
      "noteNumber": 47,
      "velocity": 48,
      "ticks": 960
    },
    {
      "time": 86400,
      "track": 1,
      "noteNumber": 71,
      "velocity": 52,
      "ticks": 480
    },
    {
      "time": 86400,
      "track": 1,
      "noteNumber": 78,
      "velocity": 52,
      "ticks": 480
    },
    {
      "time": 86400,
      "track": 1,
      "noteNumber": 69,
      "velocity": 52,
      "ticks": 480
    },
    {
      "time": 86880,
      "track": 1,
      "noteNumber": 76,
      "velocity": 49,
      "ticks": 240
    },
    {
      "time": 86880,
      "track": 1,
      "noteNumber": 71,
      "velocity": 42,
      "ticks": 480
    },
    {
      "time": 86880,
      "track": 1,
      "noteNumber": 67,
      "velocity": 49,
      "ticks": 240
    },
    {
      "time": 87120,
      "track": 1,
      "noteNumber": 66,
      "velocity": 49,
      "ticks": 240
    },
    {
      "time": 87120,
      "track": 1,
      "noteNumber": 74,
      "velocity": 49,
      "ticks": 240
    },
    {
      "time": 87360,
      "track": 2,
      "noteNumber": 45,
      "velocity": 40,
      "ticks": 480
    },
    {
      "time": 87360,
      "track": 1,
      "noteNumber": 71,
      "velocity": 46,
      "ticks": 240
    },
    {
      "time": 87360,
      "track": 1,
      "noteNumber": 67,
      "velocity": 46,
      "ticks": 240
    },
    {
      "time": 87360,
      "track": 1,
      "noteNumber": 64,
      "velocity": 46,
      "ticks": 120
    },
    {
      "time": 87480,
      "track": 1,
      "noteNumber": 62,
      "velocity": 45,
      "ticks": 120
    },
    {
      "time": 87600,
      "track": 1,
      "noteNumber": 67,
      "velocity": 43,
      "ticks": 240
    },
    {
      "time": 87600,
      "track": 1,
      "noteNumber": 61,
      "velocity": 43,
      "ticks": 120
    },
    {
      "time": 87600,
      "track": 1,
      "noteNumber": 64,
      "velocity": 43,
      "ticks": 240
    },
    {
      "time": 87720,
      "track": 1,
      "noteNumber": 59,
      "velocity": 42,
      "ticks": 120
    },
    {
      "time": 87840,
      "track": 1,
      "noteNumber": 62,
      "velocity": 48,
      "ticks": 360
    },
    {
      "time": 87840,
      "track": 1,
      "noteNumber": 66,
      "velocity": 48,
      "ticks": 360
    },
    {
      "time": 87840,
      "track": 2,
      "noteNumber": 50,
      "velocity": 46,
      "ticks": 360
    },
    {
      "time": 87840,
      "track": 2,
      "noteNumber": 57,
      "velocity": 46,
      "ticks": 360
    },
    {
      "time": 88200,
      "track": 2,
      "noteNumber": 45,
      "velocity": 41,
      "ticks": 90
    },
    {
      "time": 88200,
      "track": 1,
      "noteNumber": 63,
      "velocity": 34,
      "ticks": 90
    },
    {
      "time": 88200,
      "track": 1,
      "noteNumber": 67,
      "velocity": 42,
      "ticks": 90
    },
    {
      "time": 88200,
      "track": 1,
      "noteNumber": 60,
      "velocity": 34,
      "ticks": 90
    },
    {
      "time": 88320,
      "track": 2,
      "noteNumber": 50,
      "velocity": 46,
      "ticks": 360
    },
    {
      "time": 88320,
      "track": 2,
      "noteNumber": 57,
      "velocity": 46,
      "ticks": 360
    },
    {
      "time": 88320,
      "track": 1,
      "noteNumber": 66,
      "velocity": 48,
      "ticks": 360
    },
    {
      "time": 88320,
      "track": 1,
      "noteNumber": 62,
      "velocity": 48,
      "ticks": 360
    },
    {
      "time": 88680,
      "track": 1,
      "noteNumber": 67,
      "velocity": 42,
      "ticks": 90
    },
    {
      "time": 88680,
      "track": 1,
      "noteNumber": 63,
      "velocity": 34,
      "ticks": 90
    },
    {
      "time": 88680,
      "track": 2,
      "noteNumber": 45,
      "velocity": 42,
      "ticks": 120
    },
    {
      "time": 88680,
      "track": 1,
      "noteNumber": 60,
      "velocity": 34,
      "ticks": 90
    },
    {
      "time": 88800,
      "track": 2,
      "noteNumber": 50,
      "velocity": 45,
      "ticks": 240
    },
    {
      "time": 88800,
      "track": 1,
      "noteNumber": 62,
      "velocity": 47,
      "ticks": 240
    },
    {
      "time": 88800,
      "track": 1,
      "noteNumber": 66,
      "velocity": 47,
      "ticks": 240
    },
    {
      "time": 88800,
      "track": 2,
      "noteNumber": 57,
      "velocity": 45,
      "ticks": 240
    },
    {
      "time": 89040,
      "track": 1,
      "noteNumber": 63,
      "velocity": 38,
      "ticks": 240
    },
    {
      "time": 89040,
      "track": 1,
      "noteNumber": 60,
      "velocity": 38,
      "ticks": 240
    },
    {
      "time": 89040,
      "track": 2,
      "noteNumber": 42,
      "velocity": 49,
      "ticks": 240
    },
    {
      "time": 89040,
      "track": 1,
      "noteNumber": 69,
      "velocity": 50,
      "ticks": 240
    },
    {
      "time": 89280,
      "track": 1,
      "noteNumber": 59,
      "velocity": 45,
      "ticks": 240
    },
    {
      "time": 89280,
      "track": 1,
      "noteNumber": 62,
      "velocity": 45,
      "ticks": 240
    },
    {
      "time": 89280,
      "track": 1,
      "noteNumber": 67,
      "velocity": 55,
      "ticks": 240
    },
    {
      "time": 89280,
      "track": 2,
      "noteNumber": 43,
      "velocity": 52,
      "ticks": 240
    },
    {
      "time": 89520,
      "track": 2,
      "noteNumber": 45,
      "velocity": 45,
      "ticks": 240
    },
    {
      "time": 89520,
      "track": 1,
      "noteNumber": 66,
      "velocity": 43,
      "ticks": 120
    },
    {
      "time": 89520,
      "track": 1,
      "noteNumber": 62,
      "velocity": 43,
      "ticks": 120
    },
    {
      "time": 89520,
      "track": 1,
      "noteNumber": 57,
      "velocity": 43,
      "ticks": 120
    },
    {
      "time": 89640,
      "track": 1,
      "noteNumber": 67,
      "velocity": 46,
      "ticks": 120
    },
    {
      "time": 89760,
      "track": 2,
      "noteNumber": 47,
      "velocity": 45,
      "ticks": 210
    },
    {
      "time": 89760,
      "track": 1,
      "noteNumber": 64,
      "velocity": 45,
      "ticks": 210
    },
    {
      "time": 89760,
      "track": 1,
      "noteNumber": 55,
      "velocity": 45,
      "ticks": 210
    },
    {
      "time": 89760,
      "track": 1,
      "noteNumber": 62,
      "velocity": 45,
      "ticks": 210
    },
    {
      "time": 90000,
      "track": 2,
      "noteNumber": 49,
      "velocity": 48,
      "ticks": 240
    },
    {
      "time": 90000,
      "track": 1,
      "noteNumber": 67,
      "velocity": 46,
      "ticks": 240
    },
    {
      "time": 90000,
      "track": 1,
      "noteNumber": 64,
      "velocity": 46,
      "ticks": 240
    },
    {
      "time": 90000,
      "track": 1,
      "noteNumber": 71,
      "velocity": 46,
      "ticks": 240
    },
    {
      "time": 90240,
      "track": 1,
      "noteNumber": 61,
      "velocity": 50,
      "ticks": 240
    },
    {
      "time": 90240,
      "track": 1,
      "noteNumber": 66,
      "velocity": 50,
      "ticks": 240
    },
    {
      "time": 90240,
      "track": 1,
      "noteNumber": 69,
      "velocity": 50,
      "ticks": 240
    },
    {
      "time": 90240,
      "track": 2,
      "noteNumber": 50,
      "velocity": 51,
      "ticks": 240
    },
    {
      "time": 90480,
      "track": 2,
      "noteNumber": 52,
      "velocity": 51,
      "ticks": 240
    },
    {
      "time": 90480,
      "track": 1,
      "noteNumber": 59,
      "velocity": 52,
      "ticks": 240
    },
    {
      "time": 90480,
      "track": 1,
      "noteNumber": 64,
      "velocity": 52,
      "ticks": 240
    },
    {
      "time": 90480,
      "track": 1,
      "noteNumber": 67,
      "velocity": 52,
      "ticks": 240
    },
    {
      "time": 90720,
      "track": 1,
      "noteNumber": 61,
      "velocity": 52,
      "ticks": 210
    },
    {
      "time": 90720,
      "track": 2,
      "noteNumber": 54,
      "velocity": 51,
      "ticks": 210
    },
    {
      "time": 90720,
      "track": 1,
      "noteNumber": 58,
      "velocity": 52,
      "ticks": 210
    },
    {
      "time": 90720,
      "track": 1,
      "noteNumber": 66,
      "velocity": 52,
      "ticks": 210
    },
    {
      "time": 90960,
      "track": 1,
      "noteNumber": 71,
      "velocity": 52,
      "ticks": 240
    },
    {
      "time": 90960,
      "track": 2,
      "noteNumber": 55,
      "velocity": 50,
      "ticks": 240
    },
    {
      "time": 90960,
      "track": 1,
      "noteNumber": 66,
      "velocity": 52,
      "ticks": 240
    },
    {
      "time": 90960,
      "track": 1,
      "noteNumber": 74,
      "velocity": 52,
      "ticks": 240
    },
    {
      "time": 91200,
      "track": 1,
      "noteNumber": 73,
      "velocity": 54,
      "ticks": 240
    },
    {
      "time": 91200,
      "track": 1,
      "noteNumber": 67,
      "velocity": 54,
      "ticks": 240
    },
    {
      "time": 91200,
      "track": 1,
      "noteNumber": 64,
      "velocity": 54,
      "ticks": 240
    },
    {
      "time": 91200,
      "track": 2,
      "noteNumber": 57,
      "velocity": 52,
      "ticks": 240
    },
    {
      "time": 91440,
      "track": 1,
      "noteNumber": 62,
      "velocity": 56,
      "ticks": 240
    },
    {
      "time": 91440,
      "track": 2,
      "noteNumber": 59,
      "velocity": 54,
      "ticks": 240
    },
    {
      "time": 91440,
      "track": 1,
      "noteNumber": 66,
      "velocity": 56,
      "ticks": 240
    },
    {
      "time": 91440,
      "track": 1,
      "noteNumber": 71,
      "velocity": 56,
      "ticks": 240
    },
    {
      "time": 91680,
      "track": 1,
      "noteNumber": 69,
      "velocity": 60,
      "ticks": 240
    },
    {
      "time": 91680,
      "track": 1,
      "noteNumber": 64,
      "velocity": 60,
      "ticks": 480
    },
    {
      "time": 91680,
      "track": 1,
      "noteNumber": 67,
      "velocity": 60,
      "ticks": 480
    },
    {
      "time": 91680,
      "track": 2,
      "noteNumber": 61,
      "velocity": 57,
      "ticks": 480
    },
    {
      "time": 91920,
      "track": 1,
      "noteNumber": 81,
      "velocity": 66,
      "ticks": 180
    },
    {
      "time": 92160,
      "track": 1,
      "noteNumber": 78,
      "velocity": 48,
      "ticks": 360
    },
    {
      "time": 92160,
      "track": 1,
      "noteNumber": 81,
      "velocity": 48,
      "ticks": 1170
    },
    {
      "time": 92160,
      "track": 2,
      "noteNumber": 69,
      "velocity": 43,
      "ticks": 60
    },
    {
      "time": 92160,
      "track": 1,
      "noteNumber": 74,
      "velocity": 48,
      "ticks": 360
    },
    {
      "time": 92160,
      "track": 2,
      "noteNumber": 62,
      "velocity": 43,
      "ticks": 60
    },
    {
      "time": 92400,
      "track": 2,
      "noteNumber": 57,
      "velocity": 35,
      "ticks": 60
    },
    {
      "time": 92520,
      "track": 1,
      "noteNumber": 75,
      "velocity": 34,
      "ticks": 60
    },
    {
      "time": 92520,
      "track": 1,
      "noteNumber": 79,
      "velocity": 42,
      "ticks": 60
    },
    {
      "time": 92640,
      "track": 1,
      "noteNumber": 78,
      "velocity": 48,
      "ticks": 360
    },
    {
      "time": 92640,
      "track": 2,
      "noteNumber": 50,
      "velocity": 42,
      "ticks": 60
    },
    {
      "time": 92640,
      "track": 1,
      "noteNumber": 74,
      "velocity": 48,
      "ticks": 360
    },
    {
      "time": 92880,
      "track": 2,
      "noteNumber": 57,
      "velocity": 37,
      "ticks": 60
    },
    {
      "time": 93000,
      "track": 1,
      "noteNumber": 75,
      "velocity": 34,
      "ticks": 60
    },
    {
      "time": 93000,
      "track": 1,
      "noteNumber": 79,
      "velocity": 42,
      "ticks": 60
    },
    {
      "time": 93120,
      "track": 1,
      "noteNumber": 78,
      "velocity": 47,
      "ticks": 210
    },
    {
      "time": 93120,
      "track": 2,
      "noteNumber": 62,
      "velocity": 43,
      "ticks": 60
    },
    {
      "time": 93120,
      "track": 1,
      "noteNumber": 74,
      "velocity": 47,
      "ticks": 210
    },
    {
      "time": 93360,
      "track": 2,
      "noteNumber": 54,
      "velocity": 36,
      "ticks": 240
    },
    {
      "time": 93360,
      "track": 1,
      "noteNumber": 81,
      "velocity": 49,
      "ticks": 240
    },
    {
      "time": 93360,
      "track": 2,
      "noteNumber": 69,
      "velocity": 36,
      "ticks": 240
    },
    {
      "time": 93360,
      "track": 2,
      "noteNumber": 63,
      "velocity": 36,
      "ticks": 240
    },
    {
      "time": 93360,
      "track": 2,
      "noteNumber": 60,
      "velocity": 36,
      "ticks": 240
    },
    {
      "time": 93360,
      "track": 1,
      "noteNumber": 72,
      "velocity": 49,
      "ticks": 240
    },
    {
      "time": 93360,
      "track": 1,
      "noteNumber": 75,
      "velocity": 49,
      "ticks": 240
    },
    {
      "time": 93600,
      "track": 1,
      "noteNumber": 74,
      "velocity": 49,
      "ticks": 240
    },
    {
      "time": 93600,
      "track": 1,
      "noteNumber": 79,
      "velocity": 49,
      "ticks": 240
    },
    {
      "time": 93600,
      "track": 1,
      "noteNumber": 70,
      "velocity": 49,
      "ticks": 240
    },
    {
      "time": 93600,
      "track": 2,
      "noteNumber": 67,
      "velocity": 36,
      "ticks": 240
    },
    {
      "time": 93600,
      "track": 2,
      "noteNumber": 62,
      "velocity": 36,
      "ticks": 240
    },
    {
      "time": 93600,
      "track": 2,
      "noteNumber": 58,
      "velocity": 36,
      "ticks": 240
    },
    {
      "time": 93600,
      "track": 2,
      "noteNumber": 55,
      "velocity": 36,
      "ticks": 240
    },
    {
      "time": 93840,
      "track": 2,
      "noteNumber": 57,
      "velocity": 35,
      "ticks": 240
    },
    {
      "time": 93840,
      "track": 1,
      "noteNumber": 69,
      "velocity": 40,
      "ticks": 120
    },
    {
      "time": 93840,
      "track": 1,
      "noteNumber": 78,
      "velocity": 40,
      "ticks": 120
    },
    {
      "time": 93840,
      "track": 2,
      "noteNumber": 66,
      "velocity": 35,
      "ticks": 240
    },
    {
      "time": 93840,
      "track": 2,
      "noteNumber": 62,
      "velocity": 35,
      "ticks": 240
    },
    {
      "time": 93840,
      "track": 1,
      "noteNumber": 74,
      "velocity": 40,
      "ticks": 120
    },
    {
      "time": 93960,
      "track": 1,
      "noteNumber": 79,
      "velocity": 43,
      "ticks": 120
    },
    {
      "time": 94080,
      "track": 2,
      "noteNumber": 64,
      "velocity": 34,
      "ticks": 480
    },
    {
      "time": 94080,
      "track": 1,
      "noteNumber": 74,
      "velocity": 38,
      "ticks": 480
    },
    {
      "time": 94080,
      "track": 2,
      "noteNumber": 58,
      "velocity": 34,
      "ticks": 480
    },
    {
      "time": 94080,
      "track": 2,
      "noteNumber": 62,
      "velocity": 34,
      "ticks": 480
    },
    {
      "time": 94080,
      "track": 1,
      "noteNumber": 76,
      "velocity": 38,
      "ticks": 480
    },
    {
      "time": 94080,
      "track": 1,
      "noteNumber": 67,
      "velocity": 38,
      "ticks": 480
    },
    {
      "time": 94560,
      "track": 1,
      "noteNumber": 70,
      "velocity": 42,
      "ticks": 480
    },
    {
      "time": 94560,
      "track": 1,
      "noteNumber": 76,
      "velocity": 42,
      "ticks": 480
    },
    {
      "time": 94560,
      "track": 1,
      "noteNumber": 79,
      "velocity": 42,
      "ticks": 480
    },
    {
      "time": 94560,
      "track": 2,
      "noteNumber": 67,
      "velocity": 36,
      "ticks": 480
    },
    {
      "time": 94560,
      "track": 2,
      "noteNumber": 64,
      "velocity": 36,
      "ticks": 480
    },
    {
      "time": 94560,
      "track": 2,
      "noteNumber": 61,
      "velocity": 36,
      "ticks": 480
    },
    {
      "time": 95040,
      "track": 1,
      "noteNumber": 78,
      "velocity": 44,
      "ticks": 240
    },
    {
      "time": 95040,
      "track": 1,
      "noteNumber": 69,
      "velocity": 44,
      "ticks": 480
    },
    {
      "time": 95040,
      "track": 2,
      "noteNumber": 62,
      "velocity": 42,
      "ticks": 960
    },
    {
      "time": 95040,
      "track": 2,
      "noteNumber": 66,
      "velocity": 42,
      "ticks": 960
    },
    {
      "time": 95040,
      "track": 1,
      "noteNumber": 74,
      "velocity": 44,
      "ticks": 240
    },
    {
      "time": 95280,
      "track": 1,
      "noteNumber": 81,
      "velocity": 54,
      "ticks": 240
    },
    {
      "time": 95520,
      "track": 2,
      "noteNumber": 57,
      "velocity": 38,
      "ticks": 480
    },
    {
      "time": 95520,
      "track": 1,
      "noteNumber": 84,
      "velocity": 47,
      "ticks": 480
    },
    {
      "time": 95520,
      "track": 1,
      "noteNumber": 78,
      "velocity": 47,
      "ticks": 480
    },
    {
      "time": 95520,
      "track": 1,
      "noteNumber": 72,
      "velocity": 47,
      "ticks": 480
    },
    {
      "time": 96000,
      "track": 2,
      "noteNumber": 55,
      "velocity": 36,
      "ticks": 480
    },
    {
      "time": 96000,
      "track": 2,
      "noteNumber": 59,
      "velocity": 36,
      "ticks": 1440
    },
    {
      "time": 96000,
      "track": 1,
      "noteNumber": 71,
      "velocity": 52,
      "ticks": 240
    },
    {
      "time": 96000,
      "track": 1,
      "noteNumber": 67,
      "velocity": 52,
      "ticks": 1440
    },
    {
      "time": 96240,
      "track": 1,
      "noteNumber": 74,
      "velocity": 50,
      "ticks": 240
    },
    {
      "time": 96480,
      "track": 2,
      "noteNumber": 45,
      "velocity": 37,
      "ticks": 1440
    },
    {
      "time": 96480,
      "track": 1,
      "noteNumber": 78,
      "velocity": 55,
      "ticks": 480
    },
    {
      "time": 96480,
      "track": 2,
      "noteNumber": 52,
      "velocity": 37,
      "ticks": 1440
    },
    {
      "time": 96960,
      "track": 1,
      "noteNumber": 76,
      "velocity": 49,
      "ticks": 240
    },
    {
      "time": 97200,
      "track": 1,
      "noteNumber": 74,
      "velocity": 46,
      "ticks": 240
    },
    {
      "time": 97440,
      "track": 1,
      "noteNumber": 67,
      "velocity": 43,
      "ticks": 240
    },
    {
      "time": 97440,
      "track": 1,
      "noteNumber": 71,
      "velocity": 43,
      "ticks": 240
    },
    {
      "time": 97440,
      "track": 2,
      "noteNumber": 61,
      "velocity": 38,
      "ticks": 480
    },
    {
      "time": 97680,
      "track": 1,
      "noteNumber": 64,
      "velocity": 38,
      "ticks": 240
    },
    {
      "time": 97680,
      "track": 1,
      "noteNumber": 67,
      "velocity": 38,
      "ticks": 240
    },
    {
      "time": 97920,
      "track": 2,
      "noteNumber": 44,
      "velocity": 38,
      "ticks": 480
    },
    {
      "time": 97920,
      "track": 1,
      "noteNumber": 62,
      "velocity": 36,
      "ticks": 480
    },
    {
      "time": 97920,
      "track": 1,
      "noteNumber": 59,
      "velocity": 36,
      "ticks": 480
    },
    {
      "time": 97920,
      "track": 1,
      "noteNumber": 66,
      "velocity": 36,
      "ticks": 480
    },
    {
      "time": 98400,
      "track": 1,
      "noteNumber": 64,
      "velocity": 38,
      "ticks": 240
    },
    {
      "time": 98400,
      "track": 2,
      "noteNumber": 45,
      "velocity": 39,
      "ticks": 240
    },
    {
      "time": 98400,
      "track": 1,
      "noteNumber": 56,
      "velocity": 38,
      "ticks": 240
    },
    {
      "time": 98400,
      "track": 1,
      "noteNumber": 61,
      "velocity": 38,
      "ticks": 240
    },
    {
      "time": 98640,
      "track": 1,
      "noteNumber": 54,
      "velocity": 36,
      "ticks": 240
    },
    {
      "time": 98640,
      "track": 1,
      "noteNumber": 62,
      "velocity": 36,
      "ticks": 240
    },
    {
      "time": 98640,
      "track": 1,
      "noteNumber": 59,
      "velocity": 36,
      "ticks": 240
    },
    {
      "time": 98640,
      "track": 2,
      "noteNumber": 47,
      "velocity": 38,
      "ticks": 240
    },
    {
      "time": 98880,
      "track": 1,
      "noteNumber": 53,
      "velocity": 38,
      "ticks": 240
    },
    {
      "time": 98880,
      "track": 1,
      "noteNumber": 59,
      "velocity": 38,
      "ticks": 240
    },
    {
      "time": 98880,
      "track": 1,
      "noteNumber": 61,
      "velocity": 38,
      "ticks": 240
    },
    {
      "time": 98880,
      "track": 2,
      "noteNumber": 49,
      "velocity": 39,
      "ticks": 240
    },
    {
      "time": 99120,
      "track": 1,
      "noteNumber": 59,
      "velocity": 36,
      "ticks": 1680
    },
    {
      "time": 99120,
      "track": 2,
      "noteNumber": 51,
      "velocity": 37,
      "ticks": 120
    },
    {
      "time": 99120,
      "track": 1,
      "noteNumber": 61,
      "velocity": 36,
      "ticks": 240
    },
    {
      "time": 99120,
      "track": 1,
      "noteNumber": 68,
      "velocity": 36,
      "ticks": 480
    },
    {
      "time": 99240,
      "track": 2,
      "noteNumber": 53,
      "velocity": 40,
      "ticks": 120
    },
    {
      "time": 99360,
      "track": 2,
      "noteNumber": 54,
      "velocity": 45,
      "ticks": 480
    },
    {
      "time": 99360,
      "track": 1,
      "noteNumber": 62,
      "velocity": 36,
      "ticks": 1440
    },
    {
      "time": 99600,
      "track": 1,
      "noteNumber": 66,
      "velocity": 33,
      "ticks": 80
    },
    {
      "time": 99680,
      "track": 1,
      "noteNumber": 68,
      "velocity": 37,
      "ticks": 80
    },
    {
      "time": 99760,
      "track": 1,
      "noteNumber": 69,
      "velocity": 41,
      "ticks": 80
    },
    {
      "time": 99840,
      "track": 1,
      "noteNumber": 66,
      "velocity": 43,
      "ticks": 240
    },
    {
      "time": 99840,
      "track": 2,
      "noteNumber": 56,
      "velocity": 36,
      "ticks": 480
    },
    {
      "time": 100080,
      "track": 1,
      "noteNumber": 64,
      "velocity": 40,
      "ticks": 480
    },
    {
      "time": 100320,
      "track": 2,
      "noteNumber": 57,
      "velocity": 38,
      "ticks": 460
    },
    {
      "time": 100560,
      "track": 1,
      "noteNumber": 66,
      "velocity": 45,
      "ticks": 220
    },
    {
      "time": 100800,
      "track": 2,
      "noteNumber": 59,
      "velocity": 38,
      "ticks": 480
    },
    {
      "time": 100800,
      "track": 1,
      "noteNumber": 68,
      "velocity": 39,
      "ticks": 960
    },
    {
      "time": 100800,
      "track": 1,
      "noteNumber": 78,
      "velocity": 39,
      "ticks": 480
    },
    {
      "time": 100800,
      "track": 1,
      "noteNumber": 74,
      "velocity": 39,
      "ticks": 480
    },
    {
      "time": 101280,
      "track": 2,
      "noteNumber": 61,
      "velocity": 39,
      "ticks": 240
    },
    {
      "time": 101280,
      "track": 1,
      "noteNumber": 73,
      "velocity": 38,
      "ticks": 240
    },
    {
      "time": 101280,
      "track": 1,
      "noteNumber": 76,
      "velocity": 38,
      "ticks": 240
    },
    {
      "time": 101520,
      "track": 2,
      "noteNumber": 62,
      "velocity": 38,
      "ticks": 240
    },
    {
      "time": 101520,
      "track": 1,
      "noteNumber": 71,
      "velocity": 36,
      "ticks": 240
    },
    {
      "time": 101520,
      "track": 1,
      "noteNumber": 74,
      "velocity": 36,
      "ticks": 240
    },
    {
      "time": 101760,
      "track": 1,
      "noteNumber": 68,
      "velocity": 38,
      "ticks": 240
    },
    {
      "time": 101760,
      "track": 2,
      "noteNumber": 64,
      "velocity": 39,
      "ticks": 240
    },
    {
      "time": 101760,
      "track": 1,
      "noteNumber": 73,
      "velocity": 38,
      "ticks": 240
    },
    {
      "time": 101760,
      "track": 1,
      "noteNumber": 71,
      "velocity": 38,
      "ticks": 240
    },
    {
      "time": 102000,
      "track": 1,
      "noteNumber": 80,
      "velocity": 44,
      "ticks": 480
    },
    {
      "time": 102000,
      "track": 2,
      "noteNumber": 65,
      "velocity": 39,
      "ticks": 240
    },
    {
      "time": 102000,
      "track": 1,
      "noteNumber": 71,
      "velocity": 44,
      "ticks": 1680
    },
    {
      "time": 102000,
      "track": 1,
      "noteNumber": 73,
      "velocity": 44,
      "ticks": 240
    },
    {
      "time": 102240,
      "track": 2,
      "noteNumber": 66,
      "velocity": 39,
      "ticks": 1440
    },
    {
      "time": 102240,
      "track": 1,
      "noteNumber": 74,
      "velocity": 43,
      "ticks": 1440
    },
    {
      "time": 102480,
      "track": 1,
      "noteNumber": 78,
      "velocity": 38,
      "ticks": 240
    },
    {
      "time": 102720,
      "track": 1,
      "noteNumber": 80,
      "velocity": 39,
      "ticks": 240
    },
    {
      "time": 102960,
      "track": 1,
      "noteNumber": 81,
      "velocity": 36,
      "ticks": 240
    },
    {
      "time": 103200,
      "track": 1,
      "noteNumber": 78,
      "velocity": 38,
      "ticks": 240
    },
    {
      "time": 103440,
      "track": 1,
      "noteNumber": 80,
      "velocity": 35,
      "ticks": 240
    },
    {
      "time": 103680,
      "track": 2,
      "noteNumber": 46,
      "velocity": 35,
      "ticks": 390
    },
    {
      "time": 103680,
      "track": 2,
      "noteNumber": 34,
      "velocity": 35,
      "ticks": 390
    },
    {
      "time": 103680,
      "track": 1,
      "noteNumber": 51,
      "velocity": 35,
      "ticks": 388
    },
    {
      "time": 103680,
      "track": 1,
      "noteNumber": 58,
      "velocity": 35,
      "ticks": 388
    },
    {
      "time": 103680,
      "track": 1,
      "noteNumber": 55,
      "velocity": 35,
      "ticks": 388
    },
    {
      "time": 104070,
      "track": 1,
      "noteNumber": 70,
      "velocity": 32,
      "ticks": 570
    },
    {
      "time": 104070,
      "track": 2,
      "noteNumber": 55,
      "velocity": 31,
      "ticks": 568
    },
    {
      "time": 104100,
      "track": 1,
      "noteNumber": 75,
      "velocity": 34,
      "ticks": 540
    },
    {
      "time": 104100,
      "track": 2,
      "noteNumber": 58,
      "velocity": 33,
      "ticks": 538
    },
    {
      "time": 104130,
      "track": 2,
      "noteNumber": 63,
      "velocity": 35,
      "ticks": 506
    },
    {
      "time": 104130,
      "track": 1,
      "noteNumber": 79,
      "velocity": 35,
      "ticks": 510
    },
    {
      "time": 104160,
      "track": 2,
      "noteNumber": 67,
      "velocity": 40,
      "ticks": 473
    },
    {
      "time": 104160,
      "track": 1,
      "noteNumber": 82,
      "velocity": 41,
      "ticks": 480
    },
    {
      "time": 104640,
      "track": 1,
      "noteNumber": 58,
      "velocity": 38,
      "ticks": 868
    },
    {
      "time": 104640,
      "track": 1,
      "noteNumber": 51,
      "velocity": 38,
      "ticks": 868
    },
    {
      "time": 104640,
      "track": 1,
      "noteNumber": 55,
      "velocity": 38,
      "ticks": 868
    },
    {
      "time": 104640,
      "track": 2,
      "noteNumber": 46,
      "velocity": 38,
      "ticks": 870
    },
    {
      "time": 105120,
      "track": 2,
      "noteNumber": 34,
      "velocity": 44,
      "ticks": 390
    },
    {
      "time": 105510,
      "track": 1,
      "noteNumber": 70,
      "velocity": 32,
      "ticks": 570
    },
    {
      "time": 105510,
      "track": 2,
      "noteNumber": 55,
      "velocity": 31,
      "ticks": 568
    },
    {
      "time": 105540,
      "track": 1,
      "noteNumber": 75,
      "velocity": 33,
      "ticks": 540
    },
    {
      "time": 105540,
      "track": 2,
      "noteNumber": 58,
      "velocity": 33,
      "ticks": 538
    },
    {
      "time": 105570,
      "track": 2,
      "noteNumber": 63,
      "velocity": 35,
      "ticks": 507
    },
    {
      "time": 105570,
      "track": 1,
      "noteNumber": 79,
      "velocity": 35,
      "ticks": 510
    },
    {
      "time": 105600,
      "track": 1,
      "noteNumber": 82,
      "velocity": 40,
      "ticks": 480
    },
    {
      "time": 105600,
      "track": 2,
      "noteNumber": 67,
      "velocity": 41,
      "ticks": 477
    },
    {
      "time": 106080,
      "track": 1,
      "noteNumber": 55,
      "velocity": 40,
      "ticks": 720
    },
    {
      "time": 106080,
      "track": 1,
      "noteNumber": 51,
      "velocity": 40,
      "ticks": 720
    },
    {
      "time": 106080,
      "track": 1,
      "noteNumber": 58,
      "velocity": 40,
      "ticks": 600
    },
    {
      "time": 106080,
      "track": 2,
      "noteNumber": 46,
      "velocity": 41,
      "ticks": 720
    },
    {
      "time": 106560,
      "track": 2,
      "noteNumber": 34,
      "velocity": 41,
      "ticks": 240
    },
    {
      "time": 106680,
      "track": 1,
      "noteNumber": 60,
      "velocity": 42,
      "ticks": 120
    },
    {
      "time": 106800,
      "track": 1,
      "noteNumber": 62,
      "velocity": 44,
      "ticks": 120
    },
    {
      "time": 106920,
      "track": 1,
      "noteNumber": 63,
      "velocity": 43,
      "ticks": 120
    },
    {
      "time": 107040,
      "track": 2,
      "noteNumber": 55,
      "velocity": 36,
      "ticks": 240
    },
    {
      "time": 107040,
      "track": 1,
      "noteNumber": 60,
      "velocity": 44,
      "ticks": 100
    },
    {
      "time": 107040,
      "track": 2,
      "noteNumber": 51,
      "velocity": 36,
      "ticks": 240
    },
    {
      "time": 107160,
      "track": 1,
      "noteNumber": 60,
      "velocity": 39,
      "ticks": 60
    },
    {
      "time": 107220,
      "track": 1,
      "noteNumber": 62,
      "velocity": 39,
      "ticks": 60
    },
    {
      "time": 107280,
      "track": 1,
      "noteNumber": 60,
      "velocity": 44,
      "ticks": 90
    },
    {
      "time": 107400,
      "track": 1,
      "noteNumber": 58,
      "velocity": 44,
      "ticks": 90
    },
    {
      "time": 107520,
      "track": 1,
      "noteNumber": 60,
      "velocity": 43,
      "ticks": 30
    },
    {
      "time": 107520,
      "track": 2,
      "noteNumber": 75,
      "velocity": 33,
      "ticks": 60
    },
    {
      "time": 107520,
      "track": 2,
      "noteNumber": 67,
      "velocity": 33,
      "ticks": 60
    },
    {
      "time": 107520,
      "track": 2,
      "noteNumber": 72,
      "velocity": 33,
      "ticks": 60
    },
    {
      "time": 107760,
      "track": 1,
      "noteNumber": 63,
      "velocity": 39,
      "ticks": 30
    },
    {
      "time": 108000,
      "track": 2,
      "noteNumber": 34,
      "velocity": 41,
      "ticks": 240
    },
    {
      "time": 108000,
      "track": 1,
      "noteNumber": 62,
      "velocity": 42,
      "ticks": 120
    },
    {
      "time": 108000,
      "track": 2,
      "noteNumber": 46,
      "velocity": 41,
      "ticks": 240
    },
    {
      "time": 108120,
      "track": 1,
      "noteNumber": 63,
      "velocity": 42,
      "ticks": 120
    },
    {
      "time": 108240,
      "track": 1,
      "noteNumber": 65,
      "velocity": 44,
      "ticks": 120
    },
    {
      "time": 108360,
      "track": 1,
      "noteNumber": 67,
      "velocity": 43,
      "ticks": 120
    },
    {
      "time": 108480,
      "track": 1,
      "noteNumber": 62,
      "velocity": 44,
      "ticks": 100
    },
    {
      "time": 108480,
      "track": 2,
      "noteNumber": 55,
      "velocity": 36,
      "ticks": 240
    },
    {
      "time": 108480,
      "track": 2,
      "noteNumber": 50,
      "velocity": 36,
      "ticks": 240
    },
    {
      "time": 108480,
      "track": 2,
      "noteNumber": 58,
      "velocity": 36,
      "ticks": 240
    },
    {
      "time": 108600,
      "track": 1,
      "noteNumber": 62,
      "velocity": 39,
      "ticks": 60
    },
    {
      "time": 108660,
      "track": 1,
      "noteNumber": 63,
      "velocity": 39,
      "ticks": 60
    },
    {
      "time": 108720,
      "track": 1,
      "noteNumber": 62,
      "velocity": 44,
      "ticks": 90
    },
    {
      "time": 108840,
      "track": 1,
      "noteNumber": 60,
      "velocity": 42,
      "ticks": 90
    },
    {
      "time": 108960,
      "track": 2,
      "noteNumber": 67,
      "velocity": 33,
      "ticks": 60
    },
    {
      "time": 108960,
      "track": 1,
      "noteNumber": 58,
      "velocity": 39,
      "ticks": 120
    },
    {
      "time": 108960,
      "track": 2,
      "noteNumber": 74,
      "velocity": 33,
      "ticks": 60
    },
    {
      "time": 108960,
      "track": 2,
      "noteNumber": 70,
      "velocity": 33,
      "ticks": 60
    },
    {
      "time": 109080,
      "track": 1,
      "noteNumber": 60,
      "velocity": 39,
      "ticks": 120
    },
    {
      "time": 109200,
      "track": 1,
      "noteNumber": 62,
      "velocity": 39,
      "ticks": 240
    },
    {
      "time": 109440,
      "track": 2,
      "noteNumber": 55,
      "velocity": 36,
      "ticks": 480
    },
    {
      "time": 109440,
      "track": 1,
      "noteNumber": 63,
      "velocity": 42,
      "ticks": 120
    },
    {
      "time": 109440,
      "track": 2,
      "noteNumber": 46,
      "velocity": 41,
      "ticks": 1440
    },
    {
      "time": 109440,
      "track": 1,
      "noteNumber": 61,
      "velocity": 36,
      "ticks": 480
    },
    {
      "time": 109560,
      "track": 1,
      "noteNumber": 65,
      "velocity": 42,
      "ticks": 120
    },
    {
      "time": 109680,
      "track": 1,
      "noteNumber": 67,
      "velocity": 44,
      "ticks": 120
    },
    {
      "time": 109800,
      "track": 1,
      "noteNumber": 68,
      "velocity": 43,
      "ticks": 120
    },
    {
      "time": 109920,
      "track": 1,
      "noteNumber": 65,
      "velocity": 44,
      "ticks": 100
    },
    {
      "time": 109920,
      "track": 2,
      "noteNumber": 56,
      "velocity": 38,
      "ticks": 480
    },
    {
      "time": 110040,
      "track": 1,
      "noteNumber": 65,
      "velocity": 39,
      "ticks": 60
    },
    {
      "time": 110100,
      "track": 1,
      "noteNumber": 67,
      "velocity": 39,
      "ticks": 60
    },
    {
      "time": 110160,
      "track": 1,
      "noteNumber": 65,
      "velocity": 44,
      "ticks": 90
    },
    {
      "time": 110280,
      "track": 1,
      "noteNumber": 63,
      "velocity": 44,
      "ticks": 90
    },
    {
      "time": 110400,
      "track": 1,
      "noteNumber": 65,
      "velocity": 46,
      "ticks": 30
    },
    {
      "time": 110400,
      "track": 2,
      "noteNumber": 68,
      "velocity": 36,
      "ticks": 30
    },
    {
      "time": 110400,
      "track": 2,
      "noteNumber": 77,
      "velocity": 36,
      "ticks": 30
    },
    {
      "time": 110400,
      "track": 2,
      "noteNumber": 73,
      "velocity": 36,
      "ticks": 30
    },
    {
      "time": 110640,
      "track": 1,
      "noteNumber": 68,
      "velocity": 44,
      "ticks": 30
    },
    {
      "time": 110880,
      "track": 2,
      "noteNumber": 46,
      "velocity": 41,
      "ticks": 480
    },
    {
      "time": 110880,
      "track": 2,
      "noteNumber": 51,
      "velocity": 41,
      "ticks": 480
    },
    {
      "time": 110880,
      "track": 1,
      "noteNumber": 61,
      "velocity": 39,
      "ticks": 720
    },
    {
      "time": 110880,
      "track": 1,
      "noteNumber": 67,
      "velocity": 46,
      "ticks": 120
    },
    {
      "time": 111000,
      "track": 1,
      "noteNumber": 68,
      "velocity": 46,
      "ticks": 120
    },
    {
      "time": 111120,
      "track": 1,
      "noteNumber": 70,
      "velocity": 48,
      "ticks": 120
    },
    {
      "time": 111240,
      "track": 1,
      "noteNumber": 72,
      "velocity": 47,
      "ticks": 120
    },
    {
      "time": 111360,
      "track": 1,
      "noteNumber": 67,
      "velocity": 48,
      "ticks": 100
    },
    {
      "time": 111360,
      "track": 2,
      "noteNumber": 73,
      "velocity": 36,
      "ticks": 240
    },
    {
      "time": 111360,
      "track": 2,
      "noteNumber": 75,
      "velocity": 36,
      "ticks": 240
    },
    {
      "time": 111480,
      "track": 1,
      "noteNumber": 65,
      "velocity": 42,
      "ticks": 60
    },
    {
      "time": 111520,
      "track": 1,
      "noteNumber": 67,
      "velocity": 42,
      "ticks": 40
    },
    {
      "time": 111560,
      "track": 1,
      "noteNumber": 65,
      "velocity": 42,
      "ticks": 40
    },
    {
      "time": 111600,
      "track": 1,
      "noteNumber": 63,
      "velocity": 48,
      "ticks": 90
    },
    {
      "time": 111720,
      "track": 1,
      "noteNumber": 61,
      "velocity": 46,
      "ticks": 90
    },
    {
      "time": 111840,
      "track": 1,
      "noteNumber": 63,
      "velocity": 42,
      "ticks": 120
    },
    {
      "time": 111840,
      "track": 2,
      "noteNumber": 51,
      "velocity": 41,
      "ticks": 960
    },
    {
      "time": 111960,
      "track": 1,
      "noteNumber": 65,
      "velocity": 42,
      "ticks": 120
    },
    {
      "time": 112080,
      "track": 1,
      "noteNumber": 67,
      "velocity": 42,
      "ticks": 240
    },
    {
      "time": 112320,
      "track": 1,
      "noteNumber": 67,
      "velocity": 50,
      "ticks": 120
    },
    {
      "time": 112320,
      "track": 2,
      "noteNumber": 46,
      "velocity": 45,
      "ticks": 480
    },
    {
      "time": 112320,
      "track": 1,
      "noteNumber": 61,
      "velocity": 42,
      "ticks": 720
    },
    {
      "time": 112440,
      "track": 1,
      "noteNumber": 68,
      "velocity": 50,
      "ticks": 120
    },
    {
      "time": 112560,
      "track": 1,
      "noteNumber": 70,
      "velocity": 52,
      "ticks": 120
    },
    {
      "time": 112680,
      "track": 1,
      "noteNumber": 72,
      "velocity": 51,
      "ticks": 120
    },
    {
      "time": 112800,
      "track": 2,
      "noteNumber": 73,
      "velocity": 40,
      "ticks": 240
    },
    {
      "time": 112800,
      "track": 2,
      "noteNumber": 75,
      "velocity": 40,
      "ticks": 240
    },
    {
      "time": 112800,
      "track": 1,
      "noteNumber": 67,
      "velocity": 52,
      "ticks": 100
    },
    {
      "time": 112920,
      "track": 1,
      "noteNumber": 65,
      "velocity": 46,
      "ticks": 60
    },
    {
      "time": 112960,
      "track": 1,
      "noteNumber": 67,
      "velocity": 46,
      "ticks": 40
    },
    {
      "time": 113000,
      "track": 1,
      "noteNumber": 65,
      "velocity": 46,
      "ticks": 40
    },
    {
      "time": 113040,
      "track": 1,
      "noteNumber": 63,
      "velocity": 53,
      "ticks": 90
    },
    {
      "time": 113160,
      "track": 1,
      "noteNumber": 61,
      "velocity": 50,
      "ticks": 90
    },
    {
      "time": 113280,
      "track": 1,
      "noteNumber": 63,
      "velocity": 54,
      "ticks": 120
    },
    {
      "time": 113280,
      "track": 2,
      "noteNumber": 51,
      "velocity": 47,
      "ticks": 480
    },
    {
      "time": 113400,
      "track": 1,
      "noteNumber": 65,
      "velocity": 51,
      "ticks": 120
    },
    {
      "time": 113520,
      "track": 1,
      "noteNumber": 67,
      "velocity": 51,
      "ticks": 240
    },
    {
      "time": 113760,
      "track": 1,
      "noteNumber": 68,
      "velocity": 55,
      "ticks": 120
    },
    {
      "time": 113760,
      "track": 1,
      "noteNumber": 61,
      "velocity": 55,
      "ticks": 720
    },
    {
      "time": 113760,
      "track": 2,
      "noteNumber": 52,
      "velocity": 52,
      "ticks": 480
    },
    {
      "time": 113760,
      "track": 2,
      "noteNumber": 42,
      "velocity": 52,
      "ticks": 480
    },
    {
      "time": 113880,
      "track": 1,
      "noteNumber": 69,
      "velocity": 56,
      "ticks": 120
    },
    {
      "time": 114000,
      "track": 1,
      "noteNumber": 71,
      "velocity": 58,
      "ticks": 120
    },
    {
      "time": 114120,
      "track": 1,
      "noteNumber": 73,
      "velocity": 57,
      "ticks": 120
    },
    {
      "time": 114240,
      "track": 2,
      "noteNumber": 76,
      "velocity": 45,
      "ticks": 240
    },
    {
      "time": 114240,
      "track": 1,
      "noteNumber": 68,
      "velocity": 58,
      "ticks": 100
    },
    {
      "time": 114240,
      "track": 2,
      "noteNumber": 73,
      "velocity": 45,
      "ticks": 240
    },
    {
      "time": 114360,
      "track": 1,
      "noteNumber": 66,
      "velocity": 51,
      "ticks": 60
    },
    {
      "time": 114400,
      "track": 1,
      "noteNumber": 68,
      "velocity": 51,
      "ticks": 40
    },
    {
      "time": 114440,
      "track": 1,
      "noteNumber": 66,
      "velocity": 51,
      "ticks": 40
    },
    {
      "time": 114480,
      "track": 1,
      "noteNumber": 64,
      "velocity": 59,
      "ticks": 90
    },
    {
      "time": 114600,
      "track": 1,
      "noteNumber": 63,
      "velocity": 56,
      "ticks": 90
    },
    {
      "time": 114720,
      "track": 1,
      "noteNumber": 64,
      "velocity": 60,
      "ticks": 120
    },
    {
      "time": 114720,
      "track": 2,
      "noteNumber": 52,
      "velocity": 52,
      "ticks": 720
    },
    {
      "time": 114840,
      "track": 1,
      "noteNumber": 66,
      "velocity": 57,
      "ticks": 120
    },
    {
      "time": 114960,
      "track": 1,
      "noteNumber": 68,
      "velocity": 57,
      "ticks": 360
    },
    {
      "time": 115200,
      "track": 2,
      "noteNumber": 40,
      "velocity": 60,
      "ticks": 240
    },
    {
      "time": 115200,
      "track": 1,
      "noteNumber": 62,
      "velocity": 60,
      "ticks": 720
    },
    {
      "time": 115320,
      "track": 1,
      "noteNumber": 69,
      "velocity": 55,
      "ticks": 120
    },
    {
      "time": 115440,
      "track": 1,
      "noteNumber": 71,
      "velocity": 57,
      "ticks": 120
    },
    {
      "time": 115560,
      "track": 1,
      "noteNumber": 73,
      "velocity": 60,
      "ticks": 120
    },
    {
      "time": 115680,
      "track": 2,
      "noteNumber": 74,
      "velocity": 46,
      "ticks": 240
    },
    {
      "time": 115680,
      "track": 2,
      "noteNumber": 76,
      "velocity": 46,
      "ticks": 240
    },
    {
      "time": 115680,
      "track": 1,
      "noteNumber": 68,
      "velocity": 65,
      "ticks": 120
    },
    {
      "time": 115800,
      "track": 1,
      "noteNumber": 69,
      "velocity": 59,
      "ticks": 120
    },
    {
      "time": 115920,
      "track": 1,
      "noteNumber": 71,
      "velocity": 63,
      "ticks": 120
    },
    {
      "time": 116040,
      "track": 1,
      "noteNumber": 73,
      "velocity": 66,
      "ticks": 120
    },
    {
      "time": 116160,
      "track": 1,
      "noteNumber": 74,
      "velocity": 70,
      "ticks": 120
    },
    {
      "time": 116160,
      "track": 2,
      "noteNumber": 52,
      "velocity": 54,
      "ticks": 480
    },
    {
      "time": 116280,
      "track": 1,
      "noteNumber": 76,
      "velocity": 64,
      "ticks": 120
    },
    {
      "time": 116400,
      "track": 1,
      "noteNumber": 78,
      "velocity": 67,
      "ticks": 120
    },
    {
      "time": 116520,
      "track": 1,
      "noteNumber": 80,
      "velocity": 69,
      "ticks": 120
    },
    {
      "time": 116520,
      "track": 2,
      "noteNumber": 40,
      "velocity": 65,
      "ticks": 120
    },
    {
      "time": 116640,
      "track": 1,
      "noteNumber": 81,
      "velocity": 76,
      "ticks": 360
    },
    {
      "time": 116640,
      "track": 2,
      "noteNumber": 69,
      "velocity": 56,
      "ticks": 480
    },
    {
      "time": 116640,
      "track": 2,
      "noteNumber": 61,
      "velocity": 56,
      "ticks": 480
    },
    {
      "time": 116640,
      "track": 2,
      "noteNumber": 62,
      "velocity": 56,
      "ticks": 480
    },
    {
      "time": 116760,
      "track": 1,
      "noteNumber": 73,
      "velocity": 58,
      "ticks": 120
    },
    {
      "time": 116880,
      "track": 1,
      "noteNumber": 74,
      "velocity": 58,
      "ticks": 120
    },
    {
      "time": 117000,
      "track": 1,
      "noteNumber": 81,
      "velocity": 58,
      "ticks": 120
    },
    {
      "time": 117120,
      "track": 2,
      "noteNumber": 62,
      "velocity": 53,
      "ticks": 480
    },
    {
      "time": 117120,
      "track": 1,
      "noteNumber": 80,
      "velocity": 75,
      "ticks": 360
    },
    {
      "time": 117120,
      "track": 2,
      "noteNumber": 68,
      "velocity": 53,
      "ticks": 480
    },
    {
      "time": 117120,
      "track": 2,
      "noteNumber": 59,
      "velocity": 53,
      "ticks": 480
    },
    {
      "time": 117240,
      "track": 1,
      "noteNumber": 71,
      "velocity": 56,
      "ticks": 120
    },
    {
      "time": 117360,
      "track": 1,
      "noteNumber": 74,
      "velocity": 56,
      "ticks": 120
    },
    {
      "time": 117480,
      "track": 1,
      "noteNumber": 80,
      "velocity": 56,
      "ticks": 120
    },
    {
      "time": 117600,
      "track": 2,
      "noteNumber": 62,
      "velocity": 48,
      "ticks": 480
    },
    {
      "time": 117600,
      "track": 2,
      "noteNumber": 56,
      "velocity": 48,
      "ticks": 480
    },
    {
      "time": 117600,
      "track": 1,
      "noteNumber": 78,
      "velocity": 72,
      "ticks": 360
    },
    {
      "time": 117600,
      "track": 2,
      "noteNumber": 66,
      "velocity": 48,
      "ticks": 480
    },
    {
      "time": 117720,
      "track": 1,
      "noteNumber": 71,
      "velocity": 55,
      "ticks": 120
    },
    {
      "time": 117840,
      "track": 1,
      "noteNumber": 74,
      "velocity": 55,
      "ticks": 120
    },
    {
      "time": 117960,
      "track": 1,
      "noteNumber": 78,
      "velocity": 55,
      "ticks": 120
    },
    {
      "time": 118080,
      "track": 2,
      "noteNumber": 61,
      "velocity": 47,
      "ticks": 720
    },
    {
      "time": 118080,
      "track": 2,
      "noteNumber": 64,
      "velocity": 47,
      "ticks": 720
    },
    {
      "time": 118080,
      "track": 1,
      "noteNumber": 76,
      "velocity": 71,
      "ticks": 360
    },
    {
      "time": 118080,
      "track": 2,
      "noteNumber": 57,
      "velocity": 47,
      "ticks": 720
    },
    {
      "time": 118200,
      "track": 1,
      "noteNumber": 69,
      "velocity": 52,
      "ticks": 120
    },
    {
      "time": 118320,
      "track": 1,
      "noteNumber": 73,
      "velocity": 52,
      "ticks": 120
    },
    {
      "time": 118440,
      "track": 1,
      "noteNumber": 76,
      "velocity": 52,
      "ticks": 360
    },
    {
      "time": 118560,
      "track": 2,
      "noteNumber": 40,
      "velocity": 64,
      "ticks": 960
    },
    {
      "time": 118560,
      "track": 1,
      "noteNumber": 73,
      "velocity": 52,
      "ticks": 120
    },
    {
      "time": 118680,
      "track": 1,
      "noteNumber": 69,
      "velocity": 52,
      "ticks": 120
    },
    {
      "time": 118800,
      "track": 1,
      "noteNumber": 73,
      "velocity": 55,
      "ticks": 120
    },
    {
      "time": 118800,
      "track": 2,
      "noteNumber": 57,
      "velocity": 54,
      "ticks": 240
    },
    {
      "time": 118800,
      "track": 2,
      "noteNumber": 66,
      "velocity": 54,
      "ticks": 240
    },
    {
      "time": 118800,
      "track": 2,
      "noteNumber": 61,
      "velocity": 54,
      "ticks": 240
    },
    {
      "time": 118800,
      "track": 1,
      "noteNumber": 78,
      "velocity": 67,
      "ticks": 240
    },
    {
      "time": 118920,
      "track": 1,
      "noteNumber": 69,
      "velocity": 55,
      "ticks": 120
    },
    {
      "time": 119040,
      "track": 1,
      "noteNumber": 78,
      "velocity": 55,
      "ticks": 120
    },
    {
      "time": 119040,
      "track": 1,
      "noteNumber": 81,
      "velocity": 66,
      "ticks": 240
    },
    {
      "time": 119040,
      "track": 2,
      "noteNumber": 61,
      "velocity": 54,
      "ticks": 240
    },
    {
      "time": 119040,
      "track": 2,
      "noteNumber": 69,
      "velocity": 54,
      "ticks": 240
    },
    {
      "time": 119040,
      "track": 2,
      "noteNumber": 66,
      "velocity": 54,
      "ticks": 240
    },
    {
      "time": 119160,
      "track": 1,
      "noteNumber": 73,
      "velocity": 55,
      "ticks": 120
    },
    {
      "time": 119280,
      "track": 2,
      "noteNumber": 66,
      "velocity": 54,
      "ticks": 240
    },
    {
      "time": 119280,
      "track": 1,
      "noteNumber": 81,
      "velocity": 55,
      "ticks": 120
    },
    {
      "time": 119280,
      "track": 2,
      "noteNumber": 73,
      "velocity": 54,
      "ticks": 240
    },
    {
      "time": 119280,
      "track": 1,
      "noteNumber": 85,
      "velocity": 67,
      "ticks": 240
    },
    {
      "time": 119280,
      "track": 2,
      "noteNumber": 69,
      "velocity": 54,
      "ticks": 240
    },
    {
      "time": 119400,
      "track": 1,
      "noteNumber": 78,
      "velocity": 55,
      "ticks": 120
    },
    {
      "time": 119520,
      "track": 1,
      "noteNumber": 81,
      "velocity": 76,
      "ticks": 360
    },
    {
      "time": 119520,
      "track": 2,
      "noteNumber": 69,
      "velocity": 56,
      "ticks": 480
    },
    {
      "time": 119520,
      "track": 2,
      "noteNumber": 61,
      "velocity": 56,
      "ticks": 480
    },
    {
      "time": 119520,
      "track": 2,
      "noteNumber": 62,
      "velocity": 56,
      "ticks": 480
    },
    {
      "time": 119640,
      "track": 1,
      "noteNumber": 73,
      "velocity": 58,
      "ticks": 120
    },
    {
      "time": 119760,
      "track": 1,
      "noteNumber": 74,
      "velocity": 58,
      "ticks": 120
    },
    {
      "time": 119880,
      "track": 1,
      "noteNumber": 81,
      "velocity": 58,
      "ticks": 120
    },
    {
      "time": 120000,
      "track": 1,
      "noteNumber": 80,
      "velocity": 75,
      "ticks": 360
    },
    {
      "time": 120000,
      "track": 2,
      "noteNumber": 59,
      "velocity": 53,
      "ticks": 480
    },
    {
      "time": 120000,
      "track": 2,
      "noteNumber": 62,
      "velocity": 53,
      "ticks": 480
    },
    {
      "time": 120000,
      "track": 2,
      "noteNumber": 68,
      "velocity": 53,
      "ticks": 480
    },
    {
      "time": 120120,
      "track": 1,
      "noteNumber": 71,
      "velocity": 56,
      "ticks": 120
    },
    {
      "time": 120240,
      "track": 1,
      "noteNumber": 74,
      "velocity": 56,
      "ticks": 120
    },
    {
      "time": 120360,
      "track": 1,
      "noteNumber": 80,
      "velocity": 56,
      "ticks": 120
    },
    {
      "time": 120480,
      "track": 2,
      "noteNumber": 62,
      "velocity": 48,
      "ticks": 480
    },
    {
      "time": 120480,
      "track": 2,
      "noteNumber": 66,
      "velocity": 48,
      "ticks": 480
    },
    {
      "time": 120480,
      "track": 1,
      "noteNumber": 78,
      "velocity": 72,
      "ticks": 360
    },
    {
      "time": 120480,
      "track": 2,
      "noteNumber": 56,
      "velocity": 48,
      "ticks": 480
    },
    {
      "time": 120600,
      "track": 1,
      "noteNumber": 71,
      "velocity": 55,
      "ticks": 120
    },
    {
      "time": 120720,
      "track": 1,
      "noteNumber": 74,
      "velocity": 55,
      "ticks": 120
    },
    {
      "time": 120840,
      "track": 1,
      "noteNumber": 78,
      "velocity": 55,
      "ticks": 120
    },
    {
      "time": 120960,
      "track": 2,
      "noteNumber": 57,
      "velocity": 47,
      "ticks": 720
    },
    {
      "time": 120960,
      "track": 2,
      "noteNumber": 64,
      "velocity": 47,
      "ticks": 720
    },
    {
      "time": 120960,
      "track": 1,
      "noteNumber": 76,
      "velocity": 71,
      "ticks": 360
    },
    {
      "time": 120960,
      "track": 2,
      "noteNumber": 61,
      "velocity": 47,
      "ticks": 720
    },
    {
      "time": 121080,
      "track": 1,
      "noteNumber": 69,
      "velocity": 52,
      "ticks": 120
    },
    {
      "time": 121200,
      "track": 1,
      "noteNumber": 73,
      "velocity": 52,
      "ticks": 120
    },
    {
      "time": 121320,
      "track": 1,
      "noteNumber": 76,
      "velocity": 52,
      "ticks": 360
    },
    {
      "time": 121440,
      "track": 2,
      "noteNumber": 40,
      "velocity": 64,
      "ticks": 940
    },
    {
      "time": 121440,
      "track": 1,
      "noteNumber": 73,
      "velocity": 52,
      "ticks": 120
    },
    {
      "time": 121560,
      "track": 1,
      "noteNumber": 69,
      "velocity": 52,
      "ticks": 120
    },
    {
      "time": 121680,
      "track": 1,
      "noteNumber": 78,
      "velocity": 61,
      "ticks": 240
    },
    {
      "time": 121680,
      "track": 1,
      "noteNumber": 73,
      "velocity": 61,
      "ticks": 120
    },
    {
      "time": 121680,
      "track": 2,
      "noteNumber": 54,
      "velocity": 49,
      "ticks": 240
    },
    {
      "time": 121800,
      "track": 1,
      "noteNumber": 69,
      "velocity": 53,
      "ticks": 120
    },
    {
      "time": 121920,
      "track": 2,
      "noteNumber": 57,
      "velocity": 52,
      "ticks": 240
    },
    {
      "time": 121920,
      "track": 1,
      "noteNumber": 81,
      "velocity": 62,
      "ticks": 240
    },
    {
      "time": 121920,
      "track": 1,
      "noteNumber": 78,
      "velocity": 62,
      "ticks": 120
    },
    {
      "time": 122040,
      "track": 1,
      "noteNumber": 73,
      "velocity": 54,
      "ticks": 120
    },
    {
      "time": 122160,
      "track": 2,
      "noteNumber": 61,
      "velocity": 54,
      "ticks": 220
    },
    {
      "time": 122160,
      "track": 1,
      "noteNumber": 85,
      "velocity": 64,
      "ticks": 220
    },
    {
      "time": 122160,
      "track": 1,
      "noteNumber": 81,
      "velocity": 64,
      "ticks": 120
    },
    {
      "time": 122280,
      "track": 1,
      "noteNumber": 78,
      "velocity": 54,
      "ticks": 100
    },
    {
      "time": 122400,
      "track": 1,
      "noteNumber": 73,
      "velocity": 53,
      "ticks": 240
    },
    {
      "time": 122400,
      "track": 1,
      "noteNumber": 76,
      "velocity": 53,
      "ticks": 240
    },
    {
      "time": 122400,
      "track": 2,
      "noteNumber": 45,
      "velocity": 56,
      "ticks": 1440
    },
    {
      "time": 122400,
      "track": 2,
      "noteNumber": 38,
      "velocity": 56,
      "ticks": 1440
    },
    {
      "time": 122400,
      "track": 1,
      "noteNumber": 64,
      "velocity": 44,
      "ticks": 120
    },
    {
      "time": 122520,
      "track": 1,
      "noteNumber": 66,
      "velocity": 44,
      "ticks": 120
    },
    {
      "time": 122640,
      "track": 1,
      "noteNumber": 73,
      "velocity": 52,
      "ticks": 220
    },
    {
      "time": 122640,
      "track": 1,
      "noteNumber": 69,
      "velocity": 44,
      "ticks": 120
    },
    {
      "time": 122640,
      "track": 2,
      "noteNumber": 61,
      "velocity": 56,
      "ticks": 240
    },
    {
      "time": 122760,
      "track": 1,
      "noteNumber": 66,
      "velocity": 44,
      "ticks": 110
    },
    {
      "time": 122880,
      "track": 2,
      "noteNumber": 54,
      "velocity": 48,
      "ticks": 480
    },
    {
      "time": 122880,
      "track": 2,
      "noteNumber": 61,
      "velocity": 48,
      "ticks": 480
    },
    {
      "time": 122880,
      "track": 1,
      "noteNumber": 69,
      "velocity": 44,
      "ticks": 120
    },
    {
      "time": 122880,
      "track": 1,
      "noteNumber": 73,
      "velocity": 52,
      "ticks": 460
    },
    {
      "time": 122880,
      "track": 2,
      "noteNumber": 57,
      "velocity": 48,
      "ticks": 480
    },
    {
      "time": 123000,
      "track": 1,
      "noteNumber": 66,
      "velocity": 44,
      "ticks": 120
    },
    {
      "time": 123120,
      "track": 1,
      "noteNumber": 69,
      "velocity": 46,
      "ticks": 120
    },
    {
      "time": 123240,
      "track": 1,
      "noteNumber": 66,
      "velocity": 44,
      "ticks": 110
    },
    {
      "time": 123360,
      "track": 1,
      "noteNumber": 69,
      "velocity": 53,
      "ticks": 240
    },
    {
      "time": 123360,
      "track": 2,
      "noteNumber": 45,
      "velocity": 52,
      "ticks": 480
    },
    {
      "time": 123360,
      "track": 1,
      "noteNumber": 66,
      "velocity": 44,
      "ticks": 120
    },
    {
      "time": 123480,
      "track": 1,
      "noteNumber": 62,
      "velocity": 44,
      "ticks": 120
    },
    {
      "time": 123600,
      "track": 1,
      "noteNumber": 73,
      "velocity": 53,
      "ticks": 240
    },
    {
      "time": 123600,
      "track": 1,
      "noteNumber": 69,
      "velocity": 44,
      "ticks": 120
    },
    {
      "time": 123720,
      "track": 1,
      "noteNumber": 62,
      "velocity": 44,
      "ticks": 120
    },
    {
      "time": 123840,
      "track": 2,
      "noteNumber": 32,
      "velocity": 53,
      "ticks": 480
    },
    {
      "time": 123840,
      "track": 2,
      "noteNumber": 44,
      "velocity": 53,
      "ticks": 480
    },
    {
      "time": 123840,
      "track": 1,
      "noteNumber": 68,
      "velocity": 44,
      "ticks": 120
    },
    {
      "time": 123840,
      "track": 1,
      "noteNumber": 71,
      "velocity": 56,
      "ticks": 240
    },
    {
      "time": 123960,
      "track": 1,
      "noteNumber": 62,
      "velocity": 44,
      "ticks": 120
    },
    {
      "time": 124080,
      "track": 1,
      "noteNumber": 71,
      "velocity": 51,
      "ticks": 120
    },
    {
      "time": 124080,
      "track": 2,
      "noteNumber": 56,
      "velocity": 43,
      "ticks": 120
    },
    {
      "time": 124080,
      "track": 1,
      "noteNumber": 68,
      "velocity": 44,
      "ticks": 120
    },
    {
      "time": 124080,
      "track": 2,
      "noteNumber": 59,
      "velocity": 43,
      "ticks": 120
    },
    {
      "time": 124200,
      "track": 1,
      "noteNumber": 65,
      "velocity": 39,
      "ticks": 120
    },
    {
      "time": 124200,
      "track": 1,
      "noteNumber": 69,
      "velocity": 48,
      "ticks": 120
    },
    {
      "time": 124200,
      "track": 2,
      "noteNumber": 57,
      "velocity": 40,
      "ticks": 120
    },
    {
      "time": 124200,
      "track": 2,
      "noteNumber": 53,
      "velocity": 36,
      "ticks": 120
    },
    {
      "time": 124320,
      "track": 2,
      "noteNumber": 50,
      "velocity": 43,
      "ticks": 480
    },
    {
      "time": 124320,
      "track": 1,
      "noteNumber": 68,
      "velocity": 44,
      "ticks": 120
    },
    {
      "time": 124320,
      "track": 1,
      "noteNumber": 71,
      "velocity": 51,
      "ticks": 480
    },
    {
      "time": 124320,
      "track": 2,
      "noteNumber": 56,
      "velocity": 43,
      "ticks": 480
    },
    {
      "time": 124320,
      "track": 2,
      "noteNumber": 59,
      "velocity": 43,
      "ticks": 480
    },
    {
      "time": 124440,
      "track": 1,
      "noteNumber": 62,
      "velocity": 44,
      "ticks": 120
    },
    {
      "time": 124560,
      "track": 1,
      "noteNumber": 68,
      "velocity": 44,
      "ticks": 120
    },
    {
      "time": 124680,
      "track": 1,
      "noteNumber": 62,
      "velocity": 44,
      "ticks": 120
    },
    {
      "time": 124800,
      "track": 2,
      "noteNumber": 44,
      "velocity": 45,
      "ticks": 480
    },
    {
      "time": 124800,
      "track": 1,
      "noteNumber": 68,
      "velocity": 52,
      "ticks": 240
    },
    {
      "time": 124920,
      "track": 1,
      "noteNumber": 62,
      "velocity": 44,
      "ticks": 120
    },
    {
      "time": 125040,
      "track": 1,
      "noteNumber": 68,
      "velocity": 48,
      "ticks": 120
    },
    {
      "time": 125040,
      "track": 1,
      "noteNumber": 71,
      "velocity": 52,
      "ticks": 240
    },
    {
      "time": 125160,
      "track": 1,
      "noteNumber": 62,
      "velocity": 44,
      "ticks": 120
    },
    {
      "time": 125280,
      "track": 1,
      "noteNumber": 76,
      "velocity": 54,
      "ticks": 240
    },
    {
      "time": 125280,
      "track": 1,
      "noteNumber": 73,
      "velocity": 54,
      "ticks": 240
    },
    {
      "time": 125280,
      "track": 1,
      "noteNumber": 64,
      "velocity": 45,
      "ticks": 120
    },
    {
      "time": 125280,
      "track": 2,
      "noteNumber": 45,
      "velocity": 57,
      "ticks": 480
    },
    {
      "time": 125280,
      "track": 2,
      "noteNumber": 38,
      "velocity": 57,
      "ticks": 480
    },
    {
      "time": 125400,
      "track": 1,
      "noteNumber": 66,
      "velocity": 45,
      "ticks": 120
    },
    {
      "time": 125520,
      "track": 1,
      "noteNumber": 73,
      "velocity": 52,
      "ticks": 220
    },
    {
      "time": 125520,
      "track": 1,
      "noteNumber": 69,
      "velocity": 44,
      "ticks": 120
    },
    {
      "time": 125520,
      "track": 2,
      "noteNumber": 61,
      "velocity": 56,
      "ticks": 240
    },
    {
      "time": 125640,
      "track": 1,
      "noteNumber": 66,
      "velocity": 44,
      "ticks": 110
    },
    {
      "time": 125760,
      "track": 1,
      "noteNumber": 73,
      "velocity": 52,
      "ticks": 460
    },
    {
      "time": 125760,
      "track": 1,
      "noteNumber": 69,
      "velocity": 44,
      "ticks": 120
    },
    {
      "time": 125760,
      "track": 2,
      "noteNumber": 61,
      "velocity": 48,
      "ticks": 480
    },
    {
      "time": 125760,
      "track": 2,
      "noteNumber": 57,
      "velocity": 48,
      "ticks": 480
    },
    {
      "time": 125760,
      "track": 2,
      "noteNumber": 54,
      "velocity": 48,
      "ticks": 480
    },
    {
      "time": 125880,
      "track": 1,
      "noteNumber": 66,
      "velocity": 44,
      "ticks": 120
    },
    {
      "time": 126000,
      "track": 1,
      "noteNumber": 69,
      "velocity": 46,
      "ticks": 120
    },
    {
      "time": 126120,
      "track": 1,
      "noteNumber": 66,
      "velocity": 44,
      "ticks": 110
    },
    {
      "time": 126240,
      "track": 2,
      "noteNumber": 45,
      "velocity": 52,
      "ticks": 480
    },
    {
      "time": 126240,
      "track": 1,
      "noteNumber": 66,
      "velocity": 44,
      "ticks": 120
    },
    {
      "time": 126240,
      "track": 1,
      "noteNumber": 69,
      "velocity": 53,
      "ticks": 240
    },
    {
      "time": 126360,
      "track": 1,
      "noteNumber": 62,
      "velocity": 44,
      "ticks": 120
    },
    {
      "time": 126480,
      "track": 1,
      "noteNumber": 73,
      "velocity": 53,
      "ticks": 240
    },
    {
      "time": 126480,
      "track": 1,
      "noteNumber": 69,
      "velocity": 44,
      "ticks": 120
    },
    {
      "time": 126600,
      "track": 1,
      "noteNumber": 62,
      "velocity": 44,
      "ticks": 120
    },
    {
      "time": 126720,
      "track": 1,
      "noteNumber": 74,
      "velocity": 56,
      "ticks": 960
    },
    {
      "time": 126720,
      "track": 2,
      "noteNumber": 47,
      "velocity": 53,
      "ticks": 480
    },
    {
      "time": 126720,
      "track": 2,
      "noteNumber": 35,
      "velocity": 53,
      "ticks": 480
    },
    {
      "time": 126720,
      "track": 1,
      "noteNumber": 71,
      "velocity": 44,
      "ticks": 120
    },
    {
      "time": 126840,
      "track": 1,
      "noteNumber": 66,
      "velocity": 44,
      "ticks": 120
    },
    {
      "time": 126960,
      "track": 1,
      "noteNumber": 71,
      "velocity": 47,
      "ticks": 120
    },
    {
      "time": 127080,
      "track": 1,
      "noteNumber": 66,
      "velocity": 43,
      "ticks": 120
    },
    {
      "time": 127200,
      "track": 2,
      "noteNumber": 62,
      "velocity": 47,
      "ticks": 480
    },
    {
      "time": 127200,
      "track": 2,
      "noteNumber": 54,
      "velocity": 47,
      "ticks": 480
    },
    {
      "time": 127200,
      "track": 2,
      "noteNumber": 59,
      "velocity": 47,
      "ticks": 480
    },
    {
      "time": 127200,
      "track": 1,
      "noteNumber": 71,
      "velocity": 46,
      "ticks": 120
    },
    {
      "time": 127320,
      "track": 1,
      "noteNumber": 66,
      "velocity": 43,
      "ticks": 120
    },
    {
      "time": 127440,
      "track": 1,
      "noteNumber": 71,
      "velocity": 46,
      "ticks": 120
    },
    {
      "time": 127560,
      "track": 1,
      "noteNumber": 66,
      "velocity": 43,
      "ticks": 120
    },
    {
      "time": 127680,
      "track": 1,
      "noteNumber": 66,
      "velocity": 56,
      "ticks": 120
    },
    {
      "time": 127680,
      "track": 2,
      "noteNumber": 45,
      "velocity": 45,
      "ticks": 480
    },
    {
      "time": 127680,
      "track": 2,
      "noteNumber": 33,
      "velocity": 45,
      "ticks": 480
    },
    {
      "time": 127680,
      "track": 1,
      "noteNumber": 71,
      "velocity": 56,
      "ticks": 240
    },
    {
      "time": 127800,
      "track": 1,
      "noteNumber": 62,
      "velocity": 47,
      "ticks": 120
    },
    {
      "time": 127920,
      "track": 1,
      "noteNumber": 71,
      "velocity": 59,
      "ticks": 120
    },
    {
      "time": 127920,
      "track": 1,
      "noteNumber": 74,
      "velocity": 59,
      "ticks": 220
    },
    {
      "time": 128040,
      "track": 1,
      "noteNumber": 66,
      "velocity": 51,
      "ticks": 100
    },
    {
      "time": 128160,
      "track": 2,
      "noteNumber": 44,
      "velocity": 57,
      "ticks": 480
    },
    {
      "time": 128160,
      "track": 2,
      "noteNumber": 32,
      "velocity": 57,
      "ticks": 480
    },
    {
      "time": 128160,
      "track": 1,
      "noteNumber": 74,
      "velocity": 48,
      "ticks": 120
    },
    {
      "time": 128160,
      "track": 1,
      "noteNumber": 78,
      "velocity": 60,
      "ticks": 240
    },
    {
      "time": 128280,
      "track": 1,
      "noteNumber": 71,
      "velocity": 47,
      "ticks": 120
    },
    {
      "time": 128400,
      "track": 2,
      "noteNumber": 62,
      "velocity": 56,
      "ticks": 240
    },
    {
      "time": 128400,
      "track": 1,
      "noteNumber": 74,
      "velocity": 56,
      "ticks": 220
    },
    {
      "time": 128400,
      "track": 1,
      "noteNumber": 66,
      "velocity": 45,
      "ticks": 120
    },
    {
      "time": 128520,
      "track": 1,
      "noteNumber": 71,
      "velocity": 47,
      "ticks": 110
    },
    {
      "time": 128640,
      "track": 2,
      "noteNumber": 56,
      "velocity": 48,
      "ticks": 960
    },
    {
      "time": 128640,
      "track": 1,
      "noteNumber": 74,
      "velocity": 56,
      "ticks": 460
    },
    {
      "time": 128640,
      "track": 2,
      "noteNumber": 59,
      "velocity": 48,
      "ticks": 960
    },
    {
      "time": 128640,
      "track": 2,
      "noteNumber": 62,
      "velocity": 48,
      "ticks": 480
    },
    {
      "time": 128760,
      "track": 1,
      "noteNumber": 71,
      "velocity": 47,
      "ticks": 120
    },
    {
      "time": 128880,
      "track": 1,
      "noteNumber": 66,
      "velocity": 50,
      "ticks": 120
    },
    {
      "time": 129000,
      "track": 1,
      "noteNumber": 71,
      "velocity": 47,
      "ticks": 110
    },
    {
      "time": 129120,
      "track": 1,
      "noteNumber": 76,
      "velocity": 56,
      "ticks": 240
    },
    {
      "time": 129120,
      "track": 2,
      "noteNumber": 61,
      "velocity": 47,
      "ticks": 240
    },
    {
      "time": 129120,
      "track": 2,
      "noteNumber": 64,
      "velocity": 47,
      "ticks": 240
    },
    {
      "time": 129120,
      "track": 1,
      "noteNumber": 73,
      "velocity": 56,
      "ticks": 120
    },
    {
      "time": 129240,
      "track": 1,
      "noteNumber": 71,
      "velocity": 47,
      "ticks": 120
    },
    {
      "time": 129360,
      "track": 1,
      "noteNumber": 74,
      "velocity": 57,
      "ticks": 120
    },
    {
      "time": 129360,
      "track": 2,
      "noteNumber": 66,
      "velocity": 47,
      "ticks": 240
    },
    {
      "time": 129360,
      "track": 2,
      "noteNumber": 62,
      "velocity": 47,
      "ticks": 240
    },
    {
      "time": 129360,
      "track": 1,
      "noteNumber": 78,
      "velocity": 57,
      "ticks": 240
    },
    {
      "time": 129480,
      "track": 1,
      "noteNumber": 71,
      "velocity": 47,
      "ticks": 120
    },
    {
      "time": 129600,
      "track": 2,
      "noteNumber": 49,
      "velocity": 53,
      "ticks": 480
    },
    {
      "time": 129600,
      "track": 1,
      "noteNumber": 77,
      "velocity": 61,
      "ticks": 120
    },
    {
      "time": 129600,
      "track": 2,
      "noteNumber": 37,
      "velocity": 53,
      "ticks": 480
    },
    {
      "time": 129600,
      "track": 1,
      "noteNumber": 80,
      "velocity": 61,
      "ticks": 240
    },
    {
      "time": 129720,
      "track": 1,
      "noteNumber": 71,
      "velocity": 57,
      "ticks": 360
    },
    {
      "time": 129840,
      "track": 2,
      "noteNumber": 65,
      "velocity": 51,
      "ticks": 120
    },
    {
      "time": 129840,
      "track": 1,
      "noteNumber": 80,
      "velocity": 57,
      "ticks": 120
    },
    {
      "time": 129840,
      "track": 1,
      "noteNumber": 77,
      "velocity": 57,
      "ticks": 120
    },
    {
      "time": 129840,
      "track": 2,
      "noteNumber": 68,
      "velocity": 51,
      "ticks": 120
    },
    {
      "time": 129960,
      "track": 2,
      "noteNumber": 63,
      "velocity": 51,
      "ticks": 120
    },
    {
      "time": 129960,
      "track": 2,
      "noteNumber": 66,
      "velocity": 51,
      "ticks": 120
    },
    {
      "time": 129960,
      "track": 1,
      "noteNumber": 75,
      "velocity": 57,
      "ticks": 120
    },
    {
      "time": 129960,
      "track": 1,
      "noteNumber": 78,
      "velocity": 57,
      "ticks": 120
    },
    {
      "time": 130080,
      "track": 2,
      "noteNumber": 68,
      "velocity": 54,
      "ticks": 220
    },
    {
      "time": 130080,
      "track": 2,
      "noteNumber": 59,
      "velocity": 53,
      "ticks": 960
    },
    {
      "time": 130080,
      "track": 2,
      "noteNumber": 65,
      "velocity": 54,
      "ticks": 220
    },
    {
      "time": 130080,
      "track": 1,
      "noteNumber": 77,
      "velocity": 55,
      "ticks": 120
    },
    {
      "time": 130080,
      "track": 1,
      "noteNumber": 80,
      "velocity": 60,
      "ticks": 220
    },
    {
      "time": 130200,
      "track": 1,
      "noteNumber": 71,
      "velocity": 50,
      "ticks": 100
    },
    {
      "time": 130320,
      "track": 2,
      "noteNumber": 61,
      "velocity": 54,
      "ticks": 240
    },
    {
      "time": 130320,
      "track": 2,
      "noteNumber": 65,
      "velocity": 54,
      "ticks": 240
    },
    {
      "time": 130320,
      "track": 1,
      "noteNumber": 73,
      "velocity": 55,
      "ticks": 120
    },
    {
      "time": 130320,
      "track": 1,
      "noteNumber": 77,
      "velocity": 61,
      "ticks": 240
    },
    {
      "time": 130440,
      "track": 1,
      "noteNumber": 71,
      "velocity": 50,
      "ticks": 120
    },
    {
      "time": 130560,
      "track": 1,
      "noteNumber": 78,
      "velocity": 65,
      "ticks": 240
    },
    {
      "time": 130560,
      "track": 2,
      "noteNumber": 66,
      "velocity": 58,
      "ticks": 240
    },
    {
      "time": 130560,
      "track": 2,
      "noteNumber": 63,
      "velocity": 58,
      "ticks": 240
    },
    {
      "time": 130560,
      "track": 1,
      "noteNumber": 75,
      "velocity": 58,
      "ticks": 120
    },
    {
      "time": 130680,
      "track": 1,
      "noteNumber": 71,
      "velocity": 50,
      "ticks": 120
    },
    {
      "time": 130800,
      "track": 2,
      "noteNumber": 68,
      "velocity": 62,
      "ticks": 240
    },
    {
      "time": 130800,
      "track": 2,
      "noteNumber": 65,
      "velocity": 62,
      "ticks": 240
    },
    {
      "time": 130800,
      "track": 1,
      "noteNumber": 77,
      "velocity": 58,
      "ticks": 120
    },
    {
      "time": 130800,
      "track": 1,
      "noteNumber": 80,
      "velocity": 69,
      "ticks": 240
    },
    {
      "time": 130920,
      "track": 1,
      "noteNumber": 71,
      "velocity": 50,
      "ticks": 120
    },
    {
      "time": 131040,
      "track": 2,
      "noteNumber": 42,
      "velocity": 74,
      "ticks": 480
    },
    {
      "time": 131040,
      "track": 1,
      "noteNumber": 81,
      "velocity": 74,
      "ticks": 240
    },
    {
      "time": 131040,
      "track": 2,
      "noteNumber": 49,
      "velocity": 74,
      "ticks": 480
    },
    {
      "time": 131040,
      "track": 1,
      "noteNumber": 78,
      "velocity": 59,
      "ticks": 120
    },
    {
      "time": 131160,
      "track": 1,
      "noteNumber": 73,
      "velocity": 51,
      "ticks": 120
    },
    {
      "time": 131280,
      "track": 2,
      "noteNumber": 66,
      "velocity": 73,
      "ticks": 240
    },
    {
      "time": 131280,
      "track": 1,
      "noteNumber": 73,
      "velocity": 50,
      "ticks": 120
    },
    {
      "time": 131280,
      "track": 1,
      "noteNumber": 78,
      "velocity": 73,
      "ticks": 220
    },
    {
      "time": 131400,
      "track": 1,
      "noteNumber": 69,
      "velocity": 51,
      "ticks": 110
    },
    {
      "time": 131520,
      "track": 2,
      "noteNumber": 61,
      "velocity": 71,
      "ticks": 480
    },
    {
      "time": 131520,
      "track": 2,
      "noteNumber": 57,
      "velocity": 71,
      "ticks": 480
    },
    {
      "time": 131520,
      "track": 2,
      "noteNumber": 66,
      "velocity": 71,
      "ticks": 480
    },
    {
      "time": 131520,
      "track": 1,
      "noteNumber": 73,
      "velocity": 56,
      "ticks": 120
    },
    {
      "time": 131520,
      "track": 1,
      "noteNumber": 78,
      "velocity": 73,
      "ticks": 460
    },
    {
      "time": 131640,
      "track": 1,
      "noteNumber": 69,
      "velocity": 51,
      "ticks": 120
    },
    {
      "time": 131760,
      "track": 1,
      "noteNumber": 73,
      "velocity": 56,
      "ticks": 120
    },
    {
      "time": 131880,
      "track": 1,
      "noteNumber": 69,
      "velocity": 51,
      "ticks": 110
    },
    {
      "time": 132000,
      "track": 1,
      "noteNumber": 81,
      "velocity": 78,
      "ticks": 240
    },
    {
      "time": 132000,
      "track": 1,
      "noteNumber": 78,
      "velocity": 78,
      "ticks": 120
    },
    {
      "time": 132000,
      "track": 2,
      "noteNumber": 61,
      "velocity": 66,
      "ticks": 480
    },
    {
      "time": 132000,
      "track": 2,
      "noteNumber": 54,
      "velocity": 66,
      "ticks": 480
    },
    {
      "time": 132000,
      "track": 2,
      "noteNumber": 57,
      "velocity": 66,
      "ticks": 480
    },
    {
      "time": 132120,
      "track": 1,
      "noteNumber": 73,
      "velocity": 65,
      "ticks": 120
    },
    {
      "time": 132240,
      "track": 1,
      "noteNumber": 85,
      "velocity": 79,
      "ticks": 240
    },
    {
      "time": 132240,
      "track": 1,
      "noteNumber": 81,
      "velocity": 79,
      "ticks": 120
    },
    {
      "time": 132360,
      "track": 1,
      "noteNumber": 78,
      "velocity": 65,
      "ticks": 120
    },
    {
      "time": 132480,
      "track": 2,
      "noteNumber": 38,
      "velocity": 74,
      "ticks": 1440
    },
    {
      "time": 132480,
      "track": 1,
      "noteNumber": 86,
      "velocity": 89,
      "ticks": 1920
    },
    {
      "time": 132480,
      "track": 1,
      "noteNumber": 78,
      "velocity": 63,
      "ticks": 120
    },
    {
      "time": 132480,
      "track": 1,
      "noteNumber": 81,
      "velocity": 63,
      "ticks": 120
    },
    {
      "time": 132480,
      "track": 2,
      "noteNumber": 45,
      "velocity": 74,
      "ticks": 1440
    },
    {
      "time": 132600,
      "track": 1,
      "noteNumber": 74,
      "velocity": 45,
      "ticks": 120
    },
    {
      "time": 132720,
      "track": 2,
      "noteNumber": 57,
      "velocity": 57,
      "ticks": 240
    },
    {
      "time": 132720,
      "track": 1,
      "noteNumber": 78,
      "velocity": 45,
      "ticks": 120
    },
    {
      "time": 132720,
      "track": 2,
      "noteNumber": 50,
      "velocity": 57,
      "ticks": 240
    },
    {
      "time": 132720,
      "track": 2,
      "noteNumber": 54,
      "velocity": 57,
      "ticks": 240
    },
    {
      "time": 132720,
      "track": 1,
      "noteNumber": 81,
      "velocity": 45,
      "ticks": 120
    },
    {
      "time": 132840,
      "track": 1,
      "noteNumber": 74,
      "velocity": 46,
      "ticks": 120
    },
    {
      "time": 132960,
      "track": 1,
      "noteNumber": 81,
      "velocity": 47,
      "ticks": 120
    },
    {
      "time": 132960,
      "track": 2,
      "noteNumber": 62,
      "velocity": 57,
      "ticks": 480
    },
    {
      "time": 132960,
      "track": 1,
      "noteNumber": 78,
      "velocity": 47,
      "ticks": 120
    },
    {
      "time": 132960,
      "track": 2,
      "noteNumber": 57,
      "velocity": 57,
      "ticks": 480
    },
    {
      "time": 132960,
      "track": 2,
      "noteNumber": 54,
      "velocity": 57,
      "ticks": 480
    },
    {
      "time": 133080,
      "track": 1,
      "noteNumber": 74,
      "velocity": 48,
      "ticks": 120
    },
    {
      "time": 133200,
      "track": 1,
      "noteNumber": 81,
      "velocity": 48,
      "ticks": 120
    },
    {
      "time": 133200,
      "track": 1,
      "noteNumber": 78,
      "velocity": 48,
      "ticks": 120
    },
    {
      "time": 133320,
      "track": 1,
      "noteNumber": 74,
      "velocity": 48,
      "ticks": 120
    },
    {
      "time": 133440,
      "track": 2,
      "noteNumber": 66,
      "velocity": 60,
      "ticks": 240
    },
    {
      "time": 133440,
      "track": 2,
      "noteNumber": 62,
      "velocity": 60,
      "ticks": 240
    },
    {
      "time": 133440,
      "track": 2,
      "noteNumber": 57,
      "velocity": 60,
      "ticks": 240
    },
    {
      "time": 133440,
      "track": 1,
      "noteNumber": 78,
      "velocity": 49,
      "ticks": 120
    },
    {
      "time": 133440,
      "track": 1,
      "noteNumber": 81,
      "velocity": 49,
      "ticks": 120
    },
    {
      "time": 133560,
      "track": 1,
      "noteNumber": 74,
      "velocity": 50,
      "ticks": 120
    },
    {
      "time": 133680,
      "track": 2,
      "noteNumber": 69,
      "velocity": 59,
      "ticks": 240
    },
    {
      "time": 133680,
      "track": 2,
      "noteNumber": 66,
      "velocity": 59,
      "ticks": 240
    },
    {
      "time": 133680,
      "track": 2,
      "noteNumber": 62,
      "velocity": 59,
      "ticks": 240
    },
    {
      "time": 133680,
      "track": 1,
      "noteNumber": 81,
      "velocity": 50,
      "ticks": 120
    },
    {
      "time": 133680,
      "track": 1,
      "noteNumber": 78,
      "velocity": 50,
      "ticks": 120
    },
    {
      "time": 133800,
      "track": 1,
      "noteNumber": 74,
      "velocity": 51,
      "ticks": 120
    },
    {
      "time": 133920,
      "track": 2,
      "noteNumber": 69,
      "velocity": 64,
      "ticks": 1440
    },
    {
      "time": 133920,
      "track": 2,
      "noteNumber": 66,
      "velocity": 64,
      "ticks": 1440
    },
    {
      "time": 133920,
      "track": 2,
      "noteNumber": 62,
      "velocity": 64,
      "ticks": 1440
    },
    {
      "time": 133920,
      "track": 1,
      "noteNumber": 78,
      "velocity": 46,
      "ticks": 120
    },
    {
      "time": 133920,
      "track": 1,
      "noteNumber": 81,
      "velocity": 46,
      "ticks": 120
    },
    {
      "time": 134040,
      "track": 1,
      "noteNumber": 74,
      "velocity": 43,
      "ticks": 120
    },
    {
      "time": 134160,
      "track": 1,
      "noteNumber": 81,
      "velocity": 48,
      "ticks": 120
    },
    {
      "time": 134160,
      "track": 1,
      "noteNumber": 78,
      "velocity": 48,
      "ticks": 120
    },
    {
      "time": 134280,
      "track": 1,
      "noteNumber": 74,
      "velocity": 43,
      "ticks": 120
    },
    {
      "time": 134400,
      "track": 1,
      "noteNumber": 86,
      "velocity": 41,
      "ticks": 120
    },
    {
      "time": 134400,
      "track": 1,
      "noteNumber": 88,
      "velocity": 59,
      "ticks": 480
    },
    {
      "time": 134400,
      "track": 1,
      "noteNumber": 81,
      "velocity": 41,
      "ticks": 120
    },
    {
      "time": 134520,
      "track": 1,
      "noteNumber": 76,
      "velocity": 37,
      "ticks": 120
    },
    {
      "time": 134640,
      "track": 1,
      "noteNumber": 86,
      "velocity": 43,
      "ticks": 120
    },
    {
      "time": 134640,
      "track": 1,
      "noteNumber": 81,
      "velocity": 43,
      "ticks": 120
    },
    {
      "time": 134760,
      "track": 1,
      "noteNumber": 76,
      "velocity": 40,
      "ticks": 120
    },
    {
      "time": 134880,
      "track": 1,
      "noteNumber": 81,
      "velocity": 45,
      "ticks": 120
    },
    {
      "time": 134880,
      "track": 1,
      "noteNumber": 86,
      "velocity": 45,
      "ticks": 120
    },
    {
      "time": 134880,
      "track": 1,
      "noteNumber": 90,
      "velocity": 67,
      "ticks": 480
    },
    {
      "time": 135000,
      "track": 1,
      "noteNumber": 78,
      "velocity": 42,
      "ticks": 120
    },
    {
      "time": 135120,
      "track": 1,
      "noteNumber": 81,
      "velocity": 48,
      "ticks": 120
    },
    {
      "time": 135120,
      "track": 1,
      "noteNumber": 86,
      "velocity": 48,
      "ticks": 120
    },
    {
      "time": 135240,
      "track": 1,
      "noteNumber": 78,
      "velocity": 44,
      "ticks": 120
    },
    {
      "time": 135360,
      "track": 2,
      "noteNumber": 47,
      "velocity": 52,
      "ticks": 1440
    },
    {
      "time": 135360,
      "track": 1,
      "noteNumber": 81,
      "velocity": 42,
      "ticks": 120
    },
    {
      "time": 135360,
      "track": 1,
      "noteNumber": 86,
      "velocity": 42,
      "ticks": 120
    },
    {
      "time": 135360,
      "track": 1,
      "noteNumber": 90,
      "velocity": 69,
      "ticks": 1920
    },
    {
      "time": 135360,
      "track": 2,
      "noteNumber": 35,
      "velocity": 52,
      "ticks": 1440
    },
    {
      "time": 135480,
      "track": 1,
      "noteNumber": 78,
      "velocity": 38,
      "ticks": 120
    },
    {
      "time": 135600,
      "track": 2,
      "noteNumber": 50,
      "velocity": 45,
      "ticks": 240
    },
    {
      "time": 135600,
      "track": 2,
      "noteNumber": 57,
      "velocity": 45,
      "ticks": 240
    },
    {
      "time": 135600,
      "track": 2,
      "noteNumber": 54,
      "velocity": 45,
      "ticks": 240
    },
    {
      "time": 135600,
      "track": 1,
      "noteNumber": 86,
      "velocity": 42,
      "ticks": 120
    },
    {
      "time": 135600,
      "track": 1,
      "noteNumber": 81,
      "velocity": 42,
      "ticks": 120
    },
    {
      "time": 135720,
      "track": 1,
      "noteNumber": 78,
      "velocity": 37,
      "ticks": 120
    },
    {
      "time": 135840,
      "track": 2,
      "noteNumber": 57,
      "velocity": 44,
      "ticks": 480
    },
    {
      "time": 135840,
      "track": 1,
      "noteNumber": 86,
      "velocity": 39,
      "ticks": 120
    },
    {
      "time": 135840,
      "track": 2,
      "noteNumber": 54,
      "velocity": 44,
      "ticks": 480
    },
    {
      "time": 135840,
      "track": 1,
      "noteNumber": 81,
      "velocity": 39,
      "ticks": 120
    },
    {
      "time": 135840,
      "track": 2,
      "noteNumber": 62,
      "velocity": 44,
      "ticks": 480
    },
    {
      "time": 135960,
      "track": 1,
      "noteNumber": 78,
      "velocity": 36,
      "ticks": 120
    },
    {
      "time": 136080,
      "track": 1,
      "noteNumber": 86,
      "velocity": 38,
      "ticks": 120
    },
    {
      "time": 136080,
      "track": 1,
      "noteNumber": 81,
      "velocity": 38,
      "ticks": 120
    },
    {
      "time": 136200,
      "track": 1,
      "noteNumber": 78,
      "velocity": 34,
      "ticks": 120
    },
    {
      "time": 136320,
      "track": 2,
      "noteNumber": 66,
      "velocity": 44,
      "ticks": 240
    },
    {
      "time": 136320,
      "track": 1,
      "noteNumber": 81,
      "velocity": 36,
      "ticks": 120
    },
    {
      "time": 136320,
      "track": 2,
      "noteNumber": 62,
      "velocity": 44,
      "ticks": 240
    },
    {
      "time": 136320,
      "track": 2,
      "noteNumber": 57,
      "velocity": 44,
      "ticks": 240
    },
    {
      "time": 136320,
      "track": 1,
      "noteNumber": 86,
      "velocity": 36,
      "ticks": 120
    },
    {
      "time": 136440,
      "track": 1,
      "noteNumber": 78,
      "velocity": 32,
      "ticks": 120
    },
    {
      "time": 136560,
      "track": 2,
      "noteNumber": 62,
      "velocity": 41,
      "ticks": 240
    },
    {
      "time": 136560,
      "track": 2,
      "noteNumber": 66,
      "velocity": 41,
      "ticks": 240
    },
    {
      "time": 136560,
      "track": 2,
      "noteNumber": 69,
      "velocity": 41,
      "ticks": 240
    },
    {
      "time": 136560,
      "track": 1,
      "noteNumber": 81,
      "velocity": 34,
      "ticks": 120
    },
    {
      "time": 136560,
      "track": 1,
      "noteNumber": 86,
      "velocity": 34,
      "ticks": 120
    },
    {
      "time": 136680,
      "track": 1,
      "noteNumber": 78,
      "velocity": 31,
      "ticks": 120
    },
    {
      "time": 136800,
      "track": 2,
      "noteNumber": 69,
      "velocity": 41,
      "ticks": 480
    },
    {
      "time": 136800,
      "track": 1,
      "noteNumber": 81,
      "velocity": 35,
      "ticks": 120
    },
    {
      "time": 136800,
      "track": 2,
      "noteNumber": 62,
      "velocity": 41,
      "ticks": 480
    },
    {
      "time": 136800,
      "track": 2,
      "noteNumber": 66,
      "velocity": 41,
      "ticks": 480
    },
    {
      "time": 136800,
      "track": 1,
      "noteNumber": 86,
      "velocity": 35,
      "ticks": 120
    },
    {
      "time": 136920,
      "track": 1,
      "noteNumber": 78,
      "velocity": 34,
      "ticks": 120
    },
    {
      "time": 137040,
      "track": 1,
      "noteNumber": 86,
      "velocity": 33,
      "ticks": 120
    },
    {
      "time": 137040,
      "track": 1,
      "noteNumber": 81,
      "velocity": 33,
      "ticks": 120
    },
    {
      "time": 137160,
      "track": 1,
      "noteNumber": 78,
      "velocity": 34,
      "ticks": 120
    },
    {
      "time": 137280,
      "track": 1,
      "noteNumber": 86,
      "velocity": 49,
      "ticks": 480
    },
    {
      "time": 137280,
      "track": 1,
      "noteNumber": 78,
      "velocity": 33,
      "ticks": 120
    },
    {
      "time": 137280,
      "track": 1,
      "noteNumber": 81,
      "velocity": 33,
      "ticks": 120
    },
    {
      "time": 137400,
      "track": 1,
      "noteNumber": 74,
      "velocity": 30,
      "ticks": 120
    },
    {
      "time": 137520,
      "track": 1,
      "noteNumber": 78,
      "velocity": 28,
      "ticks": 120
    },
    {
      "time": 137520,
      "track": 1,
      "noteNumber": 81,
      "velocity": 28,
      "ticks": 120
    },
    {
      "time": 137640,
      "track": 1,
      "noteNumber": 74,
      "velocity": 30,
      "ticks": 120
    },
    {
      "time": 137760,
      "track": 1,
      "noteNumber": 90,
      "velocity": 52,
      "ticks": 480
    },
    {
      "time": 137760,
      "track": 2,
      "noteNumber": 66,
      "velocity": 35,
      "ticks": 120
    },
    {
      "time": 137760,
      "track": 1,
      "noteNumber": 83,
      "velocity": 33,
      "ticks": 120
    },
    {
      "time": 137760,
      "track": 1,
      "noteNumber": 86,
      "velocity": 33,
      "ticks": 120
    },
    {
      "time": 137760,
      "track": 2,
      "noteNumber": 71,
      "velocity": 35,
      "ticks": 120
    },
    {
      "time": 137760,
      "track": 2,
      "noteNumber": 62,
      "velocity": 35,
      "ticks": 120
    },
    {
      "time": 137760,
      "track": 2,
      "noteNumber": 59,
      "velocity": 35,
      "ticks": 120
    },
    {
      "time": 137880,
      "track": 1,
      "noteNumber": 78,
      "velocity": 30,
      "ticks": 120
    },
    {
      "time": 138000,
      "track": 1,
      "noteNumber": 86,
      "velocity": 28,
      "ticks": 120
    },
    {
      "time": 138000,
      "track": 1,
      "noteNumber": 83,
      "velocity": 28,
      "ticks": 120
    },
    {
      "time": 138120,
      "track": 1,
      "noteNumber": 78,
      "velocity": 30,
      "ticks": 120
    },
    {
      "time": 138240,
      "track": 2,
      "noteNumber": 40,
      "velocity": 38,
      "ticks": 90
    },
    {
      "time": 138240,
      "track": 2,
      "noteNumber": 33,
      "velocity": 38,
      "ticks": 90
    },
    {
      "time": 138240,
      "track": 1,
      "noteNumber": 81,
      "velocity": 41,
      "ticks": 90
    },
    {
      "time": 138240,
      "track": 1,
      "noteNumber": 88,
      "velocity": 41,
      "ticks": 90
    },
    {
      "time": 138240,
      "track": 2,
      "noteNumber": 45,
      "velocity": 38,
      "ticks": 90
    },
    {
      "time": 138240,
      "track": 1,
      "noteNumber": 93,
      "velocity": 41,
      "ticks": 90
    },
    {
      "time": 138480,
      "track": 1,
      "noteNumber": 69,
      "velocity": 33,
      "ticks": 120
    },
    {
      "time": 138480,
      "track": 1,
      "noteNumber": 64,
      "velocity": 33,
      "ticks": 120
    },
    {
      "time": 138480,
      "track": 2,
      "noteNumber": 57,
      "velocity": 34,
      "ticks": 120
    },
    {
      "time": 138480,
      "track": 2,
      "noteNumber": 60,
      "velocity": 34,
      "ticks": 120
    },
    {
      "time": 138600,
      "track": 2,
      "noteNumber": 59,
      "velocity": 34,
      "ticks": 120
    },
    {
      "time": 138600,
      "track": 2,
      "noteNumber": 52,
      "velocity": 34,
      "ticks": 120
    },
    {
      "time": 138600,
      "track": 1,
      "noteNumber": 62,
      "velocity": 33,
      "ticks": 120
    },
    {
      "time": 138720,
      "track": 2,
      "noteNumber": 57,
      "velocity": 37,
      "ticks": 30
    },
    {
      "time": 138720,
      "track": 2,
      "noteNumber": 60,
      "velocity": 37,
      "ticks": 30
    },
    {
      "time": 138720,
      "track": 1,
      "noteNumber": 69,
      "velocity": 37,
      "ticks": 30
    },
    {
      "time": 138720,
      "track": 1,
      "noteNumber": 64,
      "velocity": 37,
      "ticks": 30
    },
    {
      "time": 138960,
      "track": 2,
      "noteNumber": 60,
      "velocity": 33,
      "ticks": 60
    },
    {
      "time": 138960,
      "track": 2,
      "noteNumber": 57,
      "velocity": 33,
      "ticks": 60
    },
    {
      "time": 138960,
      "track": 1,
      "noteNumber": 69,
      "velocity": 33,
      "ticks": 60
    },
    {
      "time": 138960,
      "track": 1,
      "noteNumber": 64,
      "velocity": 33,
      "ticks": 60
    },
    {
      "time": 139440,
      "track": 2,
      "noteNumber": 55,
      "velocity": 33,
      "ticks": 60
    },
    {
      "time": 139440,
      "track": 1,
      "noteNumber": 71,
      "velocity": 34,
      "ticks": 60
    },
    {
      "time": 139440,
      "track": 1,
      "noteNumber": 79,
      "velocity": 34,
      "ticks": 60
    },
    {
      "time": 139440,
      "track": 1,
      "noteNumber": 83,
      "velocity": 34,
      "ticks": 60
    },
    {
      "time": 139440,
      "track": 2,
      "noteNumber": 50,
      "velocity": 33,
      "ticks": 60
    },
    {
      "time": 139440,
      "track": 2,
      "noteNumber": 43,
      "velocity": 33,
      "ticks": 60
    },
    {
      "time": 139680,
      "track": 1,
      "noteNumber": 79,
      "velocity": 41,
      "ticks": 60
    },
    {
      "time": 139680,
      "track": 2,
      "noteNumber": 36,
      "velocity": 36,
      "ticks": 60
    },
    {
      "time": 139680,
      "track": 2,
      "noteNumber": 43,
      "velocity": 36,
      "ticks": 60
    },
    {
      "time": 139680,
      "track": 2,
      "noteNumber": 48,
      "velocity": 36,
      "ticks": 60
    },
    {
      "time": 139680,
      "track": 1,
      "noteNumber": 72,
      "velocity": 41,
      "ticks": 60
    },
    {
      "time": 139680,
      "track": 1,
      "noteNumber": 84,
      "velocity": 41,
      "ticks": 60
    },
    {
      "time": 139920,
      "track": 2,
      "noteNumber": 60,
      "velocity": 34,
      "ticks": 120
    },
    {
      "time": 139920,
      "track": 2,
      "noteNumber": 64,
      "velocity": 34,
      "ticks": 120
    },
    {
      "time": 139920,
      "track": 1,
      "noteNumber": 67,
      "velocity": 33,
      "ticks": 120
    },
    {
      "time": 139920,
      "track": 1,
      "noteNumber": 72,
      "velocity": 33,
      "ticks": 120
    },
    {
      "time": 140040,
      "track": 2,
      "noteNumber": 62,
      "velocity": 34,
      "ticks": 120
    },
    {
      "time": 140040,
      "track": 2,
      "noteNumber": 55,
      "velocity": 34,
      "ticks": 120
    },
    {
      "time": 140040,
      "track": 1,
      "noteNumber": 65,
      "velocity": 33,
      "ticks": 120
    },
    {
      "time": 140160,
      "track": 1,
      "noteNumber": 72,
      "velocity": 36,
      "ticks": 30
    },
    {
      "time": 140160,
      "track": 1,
      "noteNumber": 67,
      "velocity": 36,
      "ticks": 30
    },
    {
      "time": 140160,
      "track": 2,
      "noteNumber": 60,
      "velocity": 36,
      "ticks": 30
    },
    {
      "time": 140160,
      "track": 2,
      "noteNumber": 64,
      "velocity": 36,
      "ticks": 30
    },
    {
      "time": 140400,
      "track": 1,
      "noteNumber": 67,
      "velocity": 33,
      "ticks": 60
    },
    {
      "time": 140400,
      "track": 1,
      "noteNumber": 72,
      "velocity": 33,
      "ticks": 60
    },
    {
      "time": 140400,
      "track": 2,
      "noteNumber": 60,
      "velocity": 33,
      "ticks": 60
    },
    {
      "time": 140400,
      "track": 2,
      "noteNumber": 64,
      "velocity": 33,
      "ticks": 60
    },
    {
      "time": 140880,
      "track": 1,
      "noteNumber": 79,
      "velocity": 34,
      "ticks": 60
    },
    {
      "time": 140880,
      "track": 1,
      "noteNumber": 83,
      "velocity": 34,
      "ticks": 60
    },
    {
      "time": 140880,
      "track": 2,
      "noteNumber": 55,
      "velocity": 33,
      "ticks": 60
    },
    {
      "time": 140880,
      "track": 2,
      "noteNumber": 43,
      "velocity": 33,
      "ticks": 60
    },
    {
      "time": 140880,
      "track": 2,
      "noteNumber": 50,
      "velocity": 33,
      "ticks": 60
    },
    {
      "time": 140880,
      "track": 1,
      "noteNumber": 71,
      "velocity": 34,
      "ticks": 60
    },
    {
      "time": 141120,
      "track": 1,
      "noteNumber": 81,
      "velocity": 40,
      "ticks": 60
    },
    {
      "time": 141120,
      "track": 2,
      "noteNumber": 45,
      "velocity": 35,
      "ticks": 60
    },
    {
      "time": 141120,
      "track": 2,
      "noteNumber": 52,
      "velocity": 35,
      "ticks": 60
    },
    {
      "time": 141120,
      "track": 2,
      "noteNumber": 57,
      "velocity": 35,
      "ticks": 60
    },
    {
      "time": 141120,
      "track": 1,
      "noteNumber": 69,
      "velocity": 40,
      "ticks": 60
    },
    {
      "time": 141120,
      "track": 1,
      "noteNumber": 76,
      "velocity": 40,
      "ticks": 60
    },
    {
      "time": 141360,
      "track": 2,
      "noteNumber": 60,
      "velocity": 34,
      "ticks": 120
    },
    {
      "time": 141360,
      "track": 2,
      "noteNumber": 57,
      "velocity": 34,
      "ticks": 120
    },
    {
      "time": 141360,
      "track": 1,
      "noteNumber": 69,
      "velocity": 33,
      "ticks": 120
    },
    {
      "time": 141360,
      "track": 1,
      "noteNumber": 64,
      "velocity": 33,
      "ticks": 120
    },
    {
      "time": 141480,
      "track": 1,
      "noteNumber": 64,
      "velocity": 33,
      "ticks": 120
    },
    {
      "time": 141480,
      "track": 2,
      "noteNumber": 52,
      "velocity": 34,
      "ticks": 120
    },
    {
      "time": 141480,
      "track": 2,
      "noteNumber": 59,
      "velocity": 34,
      "ticks": 120
    },
    {
      "time": 141600,
      "track": 2,
      "noteNumber": 57,
      "velocity": 36,
      "ticks": 30
    },
    {
      "time": 141600,
      "track": 1,
      "noteNumber": 69,
      "velocity": 36,
      "ticks": 30
    },
    {
      "time": 141600,
      "track": 1,
      "noteNumber": 64,
      "velocity": 36,
      "ticks": 30
    },
    {
      "time": 141600,
      "track": 2,
      "noteNumber": 60,
      "velocity": 36,
      "ticks": 30
    },
    {
      "time": 141840,
      "track": 1,
      "noteNumber": 69,
      "velocity": 32,
      "ticks": 60
    },
    {
      "time": 141840,
      "track": 2,
      "noteNumber": 57,
      "velocity": 32,
      "ticks": 60
    },
    {
      "time": 141840,
      "track": 2,
      "noteNumber": 60,
      "velocity": 32,
      "ticks": 60
    },
    {
      "time": 141840,
      "track": 1,
      "noteNumber": 64,
      "velocity": 32,
      "ticks": 60
    },
    {
      "time": 142320,
      "track": 2,
      "noteNumber": 50,
      "velocity": 32,
      "ticks": 60
    },
    {
      "time": 142320,
      "track": 2,
      "noteNumber": 43,
      "velocity": 32,
      "ticks": 60
    },
    {
      "time": 142320,
      "track": 1,
      "noteNumber": 71,
      "velocity": 37,
      "ticks": 60
    },
    {
      "time": 142320,
      "track": 1,
      "noteNumber": 79,
      "velocity": 37,
      "ticks": 60
    },
    {
      "time": 142320,
      "track": 1,
      "noteNumber": 83,
      "velocity": 37,
      "ticks": 60
    },
    {
      "time": 142320,
      "track": 2,
      "noteNumber": 55,
      "velocity": 32,
      "ticks": 60
    },
    {
      "time": 142560,
      "track": 2,
      "noteNumber": 43,
      "velocity": 37,
      "ticks": 60
    },
    {
      "time": 142560,
      "track": 2,
      "noteNumber": 48,
      "velocity": 37,
      "ticks": 60
    },
    {
      "time": 142560,
      "track": 2,
      "noteNumber": 36,
      "velocity": 37,
      "ticks": 60
    },
    {
      "time": 142560,
      "track": 1,
      "noteNumber": 84,
      "velocity": 41,
      "ticks": 60
    },
    {
      "time": 142560,
      "track": 1,
      "noteNumber": 79,
      "velocity": 41,
      "ticks": 60
    },
    {
      "time": 142560,
      "track": 1,
      "noteNumber": 72,
      "velocity": 41,
      "ticks": 60
    },
    {
      "time": 142800,
      "track": 2,
      "noteNumber": 64,
      "velocity": 33,
      "ticks": 120
    },
    {
      "time": 142800,
      "track": 2,
      "noteNumber": 60,
      "velocity": 33,
      "ticks": 120
    },
    {
      "time": 142800,
      "track": 1,
      "noteNumber": 67,
      "velocity": 32,
      "ticks": 120
    },
    {
      "time": 142800,
      "track": 1,
      "noteNumber": 72,
      "velocity": 32,
      "ticks": 120
    },
    {
      "time": 142920,
      "track": 1,
      "noteNumber": 65,
      "velocity": 32,
      "ticks": 120
    },
    {
      "time": 142920,
      "track": 2,
      "noteNumber": 62,
      "velocity": 33,
      "ticks": 120
    },
    {
      "time": 142920,
      "track": 2,
      "noteNumber": 55,
      "velocity": 33,
      "ticks": 120
    },
    {
      "time": 143040,
      "track": 2,
      "noteNumber": 60,
      "velocity": 35,
      "ticks": 30
    },
    {
      "time": 143040,
      "track": 1,
      "noteNumber": 72,
      "velocity": 35,
      "ticks": 30
    },
    {
      "time": 143040,
      "track": 2,
      "noteNumber": 64,
      "velocity": 35,
      "ticks": 30
    },
    {
      "time": 143040,
      "track": 1,
      "noteNumber": 67,
      "velocity": 35,
      "ticks": 30
    },
    {
      "time": 143280,
      "track": 1,
      "noteNumber": 67,
      "velocity": 32,
      "ticks": 60
    },
    {
      "time": 143280,
      "track": 2,
      "noteNumber": 64,
      "velocity": 32,
      "ticks": 60
    },
    {
      "time": 143280,
      "track": 2,
      "noteNumber": 60,
      "velocity": 32,
      "ticks": 60
    },
    {
      "time": 143280,
      "track": 1,
      "noteNumber": 72,
      "velocity": 32,
      "ticks": 60
    },
    {
      "time": 143760,
      "track": 1,
      "noteNumber": 83,
      "velocity": 33,
      "ticks": 60
    },
    {
      "time": 143760,
      "track": 1,
      "noteNumber": 71,
      "velocity": 33,
      "ticks": 60
    },
    {
      "time": 143760,
      "track": 1,
      "noteNumber": 79,
      "velocity": 33,
      "ticks": 60
    },
    {
      "time": 143760,
      "track": 2,
      "noteNumber": 52,
      "velocity": 32,
      "ticks": 60
    },
    {
      "time": 143760,
      "track": 2,
      "noteNumber": 59,
      "velocity": 32,
      "ticks": 60
    },
    {
      "time": 143760,
      "track": 2,
      "noteNumber": 64,
      "velocity": 32,
      "ticks": 60
    },
    {
      "time": 144000,
      "track": 2,
      "noteNumber": 64,
      "velocity": 34,
      "ticks": 60
    },
    {
      "time": 144000,
      "track": 2,
      "noteNumber": 59,
      "velocity": 34,
      "ticks": 60
    },
    {
      "time": 144000,
      "track": 2,
      "noteNumber": 52,
      "velocity": 34,
      "ticks": 60
    },
    {
      "time": 144000,
      "track": 1,
      "noteNumber": 71,
      "velocity": 35,
      "ticks": 60
    },
    {
      "time": 144000,
      "track": 1,
      "noteNumber": 79,
      "velocity": 35,
      "ticks": 60
    },
    {
      "time": 144000,
      "track": 1,
      "noteNumber": 83,
      "velocity": 35,
      "ticks": 60
    },
    {
      "time": 144480,
      "track": 2,
      "noteNumber": 40,
      "velocity": 40,
      "ticks": 240
    },
    {
      "time": 144960,
      "track": 2,
      "noteNumber": 52,
      "velocity": 44,
      "ticks": 240
    },
    {
      "time": 145440,
      "track": 1,
      "noteNumber": 64,
      "velocity": 51,
      "ticks": 520
    },
    {
      "time": 145920,
      "track": 2,
      "noteNumber": 36,
      "velocity": 38,
      "ticks": 240
    },
    {
      "time": 145960,
      "track": 1,
      "noteNumber": 65,
      "velocity": 33,
      "ticks": 40
    },
    {
      "time": 146000,
      "track": 1,
      "noteNumber": 67,
      "velocity": 33,
      "ticks": 40
    },
    {
      "time": 146040,
      "track": 1,
      "noteNumber": 69,
      "velocity": 33,
      "ticks": 40
    },
    {
      "time": 146080,
      "track": 1,
      "noteNumber": 71,
      "velocity": 33,
      "ticks": 40
    },
    {
      "time": 146120,
      "track": 1,
      "noteNumber": 72,
      "velocity": 33,
      "ticks": 40
    },
    {
      "time": 146160,
      "track": 1,
      "noteNumber": 74,
      "velocity": 33,
      "ticks": 40
    },
    {
      "time": 146200,
      "track": 1,
      "noteNumber": 76,
      "velocity": 33,
      "ticks": 40
    },
    {
      "time": 146240,
      "track": 1,
      "noteNumber": 77,
      "velocity": 33,
      "ticks": 40
    },
    {
      "time": 146280,
      "track": 1,
      "noteNumber": 79,
      "velocity": 33,
      "ticks": 40
    },
    {
      "time": 146320,
      "track": 1,
      "noteNumber": 81,
      "velocity": 33,
      "ticks": 40
    },
    {
      "time": 146360,
      "track": 1,
      "noteNumber": 83,
      "velocity": 33,
      "ticks": 40
    },
    {
      "time": 146400,
      "track": 1,
      "noteNumber": 84,
      "velocity": 33,
      "ticks": 40
    },
    {
      "time": 146400,
      "track": 2,
      "noteNumber": 35,
      "velocity": 36,
      "ticks": 240
    },
    {
      "time": 146440,
      "track": 1,
      "noteNumber": 86,
      "velocity": 33,
      "ticks": 40
    },
    {
      "time": 146480,
      "track": 1,
      "noteNumber": 88,
      "velocity": 33,
      "ticks": 40
    },
    {
      "time": 146520,
      "track": 1,
      "noteNumber": 89,
      "velocity": 33,
      "ticks": 40
    },
    {
      "time": 146560,
      "track": 1,
      "noteNumber": 91,
      "velocity": 33,
      "ticks": 40
    },
    {
      "time": 146600,
      "track": 1,
      "noteNumber": 93,
      "velocity": 33,
      "ticks": 40
    },
    {
      "time": 146640,
      "track": 1,
      "noteNumber": 95,
      "velocity": 33,
      "ticks": 40
    },
    {
      "time": 146680,
      "track": 1,
      "noteNumber": 96,
      "velocity": 33,
      "ticks": 40
    },
    {
      "time": 146720,
      "track": 1,
      "noteNumber": 98,
      "velocity": 33,
      "ticks": 40
    },
    {
      "time": 146760,
      "track": 1,
      "noteNumber": 100,
      "velocity": 33,
      "ticks": 40
    },
    {
      "time": 146800,
      "track": 1,
      "noteNumber": 101,
      "velocity": 33,
      "ticks": 40
    },
    {
      "time": 146840,
      "track": 1,
      "noteNumber": 103,
      "velocity": 33,
      "ticks": 40
    },
    {
      "time": 146880,
      "track": 2,
      "noteNumber": 33,
      "velocity": 36,
      "ticks": 240
    },
    {
      "time": 146880,
      "track": 1,
      "noteNumber": 105,
      "velocity": 38,
      "ticks": 240
    },
    {
      "time": 148320,
      "track": 1,
      "noteNumber": 57,
      "velocity": 27,
      "ticks": 120
    },
    {
      "time": 148320,
      "track": 2,
      "noteNumber": 33,
      "velocity": 24,
      "ticks": 120
    },
    {
      "time": 148320,
      "track": 2,
      "noteNumber": 45,
      "velocity": 24,
      "ticks": 120
    }
  ]
}
