{
  "name": "passepied",
  "ticksPerBeat": 480,
  "tempo": 180,
  "events": [
    {
      "time": 0,
      "track": 2,
      "noteNumber": 42,
      "velocity": 38,
      "ticks": 90
    },
    {
      "time": 240,
      "track": 2,
      "noteNumber": 49,
      "velocity": 32,
      "ticks": 90
    },
    {
      "time": 480,
      "track": 2,
      "noteNumber": 57,
      "velocity": 34,
      "ticks": 90
    },
    {
      "time": 720,
      "track": 2,
      "noteNumber": 49,
      "velocity": 33,
      "ticks": 90
    },
    {
      "time": 960,
      "track": 2,
      "noteNumber": 44,
      "velocity": 42,
      "ticks": 90
    },
    {
      "time": 1200,
      "track": 2,
      "noteNumber": 49,
      "velocity": 34,
      "ticks": 90
    },
    {
      "time": 1440,
      "track": 2,
      "noteNumber": 59,
      "velocity": 38,
      "ticks": 90
    },
    {
      "time": 1680,
      "track": 2,
      "noteNumber": 49,
      "velocity": 36,
      "ticks": 90
    },
    {
      "time": 1920,
      "track": 2,
      "noteNumber": 45,
      "velocity": 44,
      "ticks": 90
    },
    {
      "time": 2160,
      "track": 2,
      "noteNumber": 54,
      "velocity": 40,
      "ticks": 90
    },
    {
      "time": 2400,
      "track": 2,
      "noteNumber": 61,
      "velocity": 44,
      "ticks": 90
    },
    {
      "time": 2640,
      "track": 2,
      "noteNumber": 54,
      "velocity": 40,
      "ticks": 90
    },
    {
      "time": 2880,
      "track": 2,
      "noteNumber": 47,
      "velocity": 44,
      "ticks": 90
    },
    {
      "time": 3120,
      "track": 2,
      "noteNumber": 54,
      "velocity": 38,
      "ticks": 90
    },
    {
      "time": 3360,
      "track": 2,
      "noteNumber": 62,
      "velocity": 41,
      "ticks": 90
    },
    {
      "time": 3600,
      "track": 2,
      "noteNumber": 54,
      "velocity": 38,
      "ticks": 90
    },
    {
      "time": 3840,
      "track": 1,
      "noteNumber": 66,
      "velocity": 55,
      "ticks": 360
    },
    {
      "time": 3840,
      "track": 2,
      "noteNumber": 42,
      "velocity": 46,
      "ticks": 90
    },
    {
      "time": 4080,
      "track": 2,
      "noteNumber": 49,
      "velocity": 36,
      "ticks": 90
    },
    {
      "time": 4320,
      "track": 2,
      "noteNumber": 57,
      "velocity": 41,
      "ticks": 90
    },
    {
      "time": 4320,
      "track": 1,
      "noteNumber": 73,
      "velocity": 55,
      "ticks": 240
    },
    {
      "time": 4560,
      "track": 2,
      "noteNumber": 49,
      "velocity": 36,
      "ticks": 90
    },
    {
      "time": 4800,
      "track": 1,
      "noteNumber": 71,
      "velocity": 56,
      "ticks": 1440
    },
    {
      "time": 4800,
      "track": 2,
      "noteNumber": 44,
      "velocity": 46,
      "ticks": 90
    },
    {
      "time": 5040,
      "track": 2,
      "noteNumber": 49,
      "velocity": 36,
      "ticks": 90
    },
    {
      "time": 5280,
      "track": 2,
      "noteNumber": 59,
      "velocity": 42,
      "ticks": 90
    },
    {
      "time": 5520,
      "track": 2,
      "noteNumber": 49,
      "velocity": 36,
      "ticks": 90
    },
    {
      "time": 5760,
      "track": 2,
      "noteNumber": 45,
      "velocity": 46,
      "ticks": 90
    },
    {
      "time": 6000,
      "track": 2,
      "noteNumber": 54,
      "velocity": 35,
      "ticks": 90
    },
    {
      "time": 6240,
      "track": 2,
      "noteNumber": 61,
      "velocity": 39,
      "ticks": 90
    },
    {
      "time": 6240,
      "track": 1,
      "noteNumber": 69,
      "velocity": 54,
      "ticks": 180
    },
    {
      "time": 6480,
      "track": 2,
      "noteNumber": 54,
      "velocity": 34,
      "ticks": 90
    },
    {
      "time": 6480,
      "track": 1,
      "noteNumber": 68,
      "velocity": 54,
      "ticks": 180
    },
    {
      "time": 6720,
      "track": 2,
      "noteNumber": 47,
      "velocity": 43,
      "ticks": 90
    },
    {
      "time": 6720,
      "track": 1,
      "noteNumber": 66,
      "velocity": 56,
      "ticks": 400
    },
    {
      "time": 6960,
      "track": 2,
      "noteNumber": 54,
      "velocity": 34,
      "ticks": 90
    },
    {
      "time": 7200,
      "track": 2,
      "noteNumber": 62,
      "velocity": 36,
      "ticks": 90
    },
    {
      "time": 7200,
      "track": 1,
      "noteNumber": 64,
      "velocity": 54,
      "ticks": 180
    },
    {
      "time": 7440,
      "track": 1,
      "noteNumber": 62,
      "velocity": 53,
      "ticks": 180
    },
    {
      "time": 7440,
      "track": 2,
      "noteNumber": 54,
      "velocity": 33,
      "ticks": 90
    },
    {
      "time": 7680,
      "track": 1,
      "noteNumber": 61,
      "velocity": 56,
      "ticks": 470
    },
    {
      "time": 7680,
      "track": 2,
      "noteNumber": 42,
      "velocity": 41,
      "ticks": 90
    },
    {
      "time": 7920,
      "track": 2,
      "noteNumber": 49,
      "velocity": 33,
      "ticks": 90
    },
    {
      "time": 8160,
      "track": 1,
      "noteNumber": 62,
      "velocity": 53,
      "ticks": 240
    },
    {
      "time": 8160,
      "track": 2,
      "noteNumber": 57,
      "velocity": 37,
      "ticks": 90
    },
    {
      "time": 8400,
      "track": 2,
      "noteNumber": 49,
      "velocity": 34,
      "ticks": 90
    },
    {
      "time": 8400,
      "track": 1,
      "noteNumber": 64,
      "velocity": 53,
      "ticks": 240
    },
    {
      "time": 8640,
      "track": 1,
      "noteNumber": 66,
      "velocity": 57,
      "ticks": 480
    },
    {
      "time": 8640,
      "track": 2,
      "noteNumber": 45,
      "velocity": 43,
      "ticks": 90
    },
    {
      "time": 8880,
      "track": 2,
      "noteNumber": 54,
      "velocity": 34,
      "ticks": 90
    },
    {
      "time": 9120,
      "track": 1,
      "noteNumber": 69,
      "velocity": 55,
      "ticks": 480
    },
    {
      "time": 9120,
      "track": 2,
      "noteNumber": 61,
      "velocity": 39,
      "ticks": 90
    },
    {
      "time": 9360,
      "track": 2,
      "noteNumber": 54,
      "velocity": 35,
      "ticks": 90
    },
    {
      "time": 9600,
      "track": 1,
      "noteNumber": 68,
      "velocity": 57,
      "ticks": 2140
    },
    {
      "time": 9600,
      "track": 2,
      "noteNumber": 49,
      "velocity": 46,
      "ticks": 90
    },
    {
      "time": 9840,
      "track": 2,
      "noteNumber": 56,
      "velocity": 36,
      "ticks": 90
    },
    {
      "time": 10080,
      "track": 2,
      "noteNumber": 64,
      "velocity": 41,
      "ticks": 90
    },
    {
      "time": 10320,
      "track": 2,
      "noteNumber": 56,
      "velocity": 36,
      "ticks": 90
    },
    {
      "time": 10560,
      "track": 2,
      "noteNumber": 47,
      "velocity": 43,
      "ticks": 90
    },
    {
      "time": 10800,
      "track": 2,
      "noteNumber": 56,
      "velocity": 34,
      "ticks": 90
    },
    {
      "time": 11040,
      "track": 2,
      "noteNumber": 61,
      "velocity": 40,
      "ticks": 90
    },
    {
      "time": 11280,
      "track": 2,
      "noteNumber": 56,
      "velocity": 35,
      "ticks": 90
    },
    {
      "time": 11520,
      "track": 2,
      "noteNumber": 45,
      "velocity": 44,
      "ticks": 90
    },
    {
      "time": 11760,
      "track": 2,
      "noteNumber": 54,
      "velocity": 39,
      "ticks": 90
    },
    {
      "time": 11760,
      "track": 1,
      "noteNumber": 66,
      "velocity": 50,
      "ticks": 180
    },
    {
      "time": 12000,
      "track": 2,
      "noteNumber": 61,
      "velocity": 39,
      "ticks": 90
    },
    {
      "time": 12000,
      "track": 1,
      "noteNumber": 68,
      "velocity": 50,
      "ticks": 180
    },
    {
      "time": 12240,
      "track": 2,
      "noteNumber": 54,
      "velocity": 39,
      "ticks": 90
    },
    {
      "time": 12240,
      "track": 1,
      "noteNumber": 69,
      "velocity": 50,
      "ticks": 180
    },
    {
      "time": 12480,
      "track": 2,
      "noteNumber": 44,
      "velocity": 43,
      "ticks": 90
    },
    {
      "time": 12480,
      "track": 1,
      "noteNumber": 66,
      "velocity": 55,
      "ticks": 480
    },
    {
      "time": 12480,
      "track": 1,
      "noteNumber": 71,
      "velocity": 55,
      "ticks": 1180
    },
    {
      "time": 12720,
      "track": 2,
      "noteNumber": 49,
      "velocity": 39,
      "ticks": 90
    },
    {
      "time": 12960,
      "track": 2,
      "noteNumber": 59,
      "velocity": 39,
      "ticks": 90
    },
    {
      "time": 12960,
      "track": 1,
      "noteNumber": 65,
      "velocity": 50,
      "ticks": 480
    },
    {
      "time": 13200,
      "track": 2,
      "noteNumber": 49,
      "velocity": 39,
      "ticks": 90
    },
    {
      "time": 13440,
      "track": 1,
      "noteNumber": 61,
      "velocity": 50,
      "ticks": 480
    },
    {
      "time": 13440,
      "track": 2,
      "noteNumber": 42,
      "velocity": 45,
      "ticks": 90
    },
    {
      "time": 13680,
      "track": 1,
      "noteNumber": 69,
      "velocity": 52,
      "ticks": 240
    },
    {
      "time": 13680,
      "track": 2,
      "noteNumber": 49,
      "velocity": 41,
      "ticks": 90
    },
    {
      "time": 13920,
      "track": 1,
      "noteNumber": 71,
      "velocity": 52,
      "ticks": 240
    },
    {
      "time": 13920,
      "track": 2,
      "noteNumber": 57,
      "velocity": 41,
      "ticks": 90
    },
    {
      "time": 14160,
      "track": 1,
      "noteNumber": 73,
      "velocity": 52,
      "ticks": 240
    },
    {
      "time": 14160,
      "track": 2,
      "noteNumber": 49,
      "velocity": 42,
      "ticks": 90
    },
    {
      "time": 14400,
      "track": 1,
      "noteNumber": 74,
      "velocity": 56,
      "ticks": 1180
    },
    {
      "time": 14400,
      "track": 1,
      "noteNumber": 69,
      "velocity": 56,
      "ticks": 480
    },
    {
      "time": 14400,
      "track": 2,
      "noteNumber": 47,
      "velocity": 47,
      "ticks": 90
    },
    {
      "time": 14640,
      "track": 2,
      "noteNumber": 52,
      "velocity": 45,
      "ticks": 90
    },
    {
      "time": 14880,
      "track": 2,
      "noteNumber": 62,
      "velocity": 45,
      "ticks": 90
    },
    {
      "time": 14880,
      "track": 1,
      "noteNumber": 68,
      "velocity": 50,
      "ticks": 480
    },
    {
      "time": 15120,
      "track": 2,
      "noteNumber": 52,
      "velocity": 45,
      "ticks": 90
    },
    {
      "time": 15360,
      "track": 2,
      "noteNumber": 45,
      "velocity": 47,
      "ticks": 90
    },
    {
      "time": 15360,
      "track": 1,
      "noteNumber": 64,
      "velocity": 50,
      "ticks": 480
    },
    {
      "time": 15600,
      "track": 2,
      "noteNumber": 52,
      "velocity": 46,
      "ticks": 90
    },
    {
      "time": 15600,
      "track": 1,
      "noteNumber": 73,
      "velocity": 54,
      "ticks": 240
    },
    {
      "time": 15840,
      "track": 2,
      "noteNumber": 57,
      "velocity": 49,
      "ticks": 90
    },
    {
      "time": 15840,
      "track": 1,
      "noteNumber": 74,
      "velocity": 58,
      "ticks": 240
    },
    {
      "time": 16080,
      "track": 1,
      "noteNumber": 76,
      "velocity": 63,
      "ticks": 240
    },
    {
      "time": 16080,
      "track": 2,
      "noteNumber": 61,
      "velocity": 51,
      "ticks": 90
    },
    {
      "time": 16320,
      "track": 1,
      "noteNumber": 74,
      "velocity": 64,
      "ticks": 1440
    },
    {
      "time": 16320,
      "track": 1,
      "noteNumber": 78,
      "velocity": 71,
      "ticks": 1920
    },
    {
      "time": 16320,
      "track": 2,
      "noteNumber": 50,
      "velocity": 53,
      "ticks": 90
    },
    {
      "time": 16560,
      "track": 2,
      "noteNumber": 57,
      "velocity": 39,
      "ticks": 90
    },
    {
      "time": 16800,
      "track": 2,
      "noteNumber": 62,
      "velocity": 38,
      "ticks": 90
    },
    {
      "time": 17040,
      "track": 2,
      "noteNumber": 66,
      "velocity": 38,
      "ticks": 90
    },
    {
      "time": 17280,
      "track": 2,
      "noteNumber": 57,
      "velocity": 42,
      "ticks": 90
    },
    {
      "time": 17520,
      "track": 2,
      "noteNumber": 62,
      "velocity": 37,
      "ticks": 90
    },
    {
      "time": 17760,
      "track": 2,
      "noteNumber": 66,
      "velocity": 37,
      "ticks": 90
    },
    {
      "time": 18000,
      "track": 2,
      "noteNumber": 69,
      "velocity": 37,
      "ticks": 120
    },
    {
      "time": 18240,
      "track": 1,
      "noteNumber": 66,
      "velocity": 56,
      "ticks": 1320
    },
    {
      "time": 18480,
      "track": 2,
      "noteNumber": 62,
      "velocity": 37,
      "ticks": 120
    },
    {
      "time": 18720,
      "track": 2,
      "noteNumber": 61,
      "velocity": 36,
      "ticks": 120
    },
    {
      "time": 18960,
      "track": 2,
      "noteNumber": 59,
      "velocity": 36,
      "ticks": 120
    },
    {
      "time": 19200,
      "track": 2,
      "noteNumber": 57,
      "velocity": 46,
      "ticks": 90
    },
    {
      "time": 19440,
      "track": 2,
      "noteNumber": 61,
      "velocity": 36,
      "ticks": 90
    },
    {
      "time": 19680,
      "track": 1,
      "noteNumber": 73,
      "velocity": 53,
      "ticks": 120
    },
    {
      "time": 19680,
      "track": 2,
      "noteNumber": 57,
      "velocity": 41,
      "ticks": 90
    },
    {
      "time": 19920,
      "track": 2,
      "noteNumber": 54,
      "velocity": 36,
      "ticks": 90
    },
    {
      "time": 20160,
      "track": 2,
      "noteNumber": 56,
      "velocity": 46,
      "ticks": 90
    },
    {
      "time": 20160,
      "track": 1,
      "noteNumber": 71,
      "velocity": 56,
      "ticks": 1440
    },
    {
      "time": 20400,
      "track": 2,
      "noteNumber": 59,
      "velocity": 36,
      "ticks": 90
    },
    {
      "time": 20640,
      "track": 2,
      "noteNumber": 64,
      "velocity": 42,
      "ticks": 90
    },
    {
      "time": 20880,
      "track": 2,
      "noteNumber": 54,
      "velocity": 36,
      "ticks": 90
    },
    {
      "time": 21120,
      "track": 2,
      "noteNumber": 52,
      "velocity": 46,
      "ticks": 90
    },
    {
      "time": 21360,
      "track": 2,
      "noteNumber": 59,
      "velocity": 35,
      "ticks": 90
    },
    {
      "time": 21600,
      "track": 2,
      "noteNumber": 64,
      "velocity": 39,
      "ticks": 90
    },
    {
      "time": 21600,
      "track": 1,
      "noteNumber": 69,
      "velocity": 54,
      "ticks": 180
    },
    {
      "time": 21840,
      "track": 1,
      "noteNumber": 68,
      "velocity": 54,
      "ticks": 180
    },
    {
      "time": 21840,
      "track": 2,
      "noteNumber": 59,
      "velocity": 34,
      "ticks": 90
    },
    {
      "time": 22080,
      "track": 2,
      "noteNumber": 47,
      "velocity": 43,
      "ticks": 90
    },
    {
      "time": 22080,
      "track": 1,
      "noteNumber": 66,
      "velocity": 56,
      "ticks": 400
    },
    {
      "time": 22320,
      "track": 2,
      "noteNumber": 56,
      "velocity": 34,
      "ticks": 90
    },
    {
      "time": 22560,
      "track": 2,
      "noteNumber": 62,
      "velocity": 36,
      "ticks": 90
    },
    {
      "time": 22560,
      "track": 1,
      "noteNumber": 64,
      "velocity": 54,
      "ticks": 180
    },
    {
      "time": 22800,
      "track": 2,
      "noteNumber": 52,
      "velocity": 33,
      "ticks": 90
    },
    {
      "time": 22800,
      "track": 1,
      "noteNumber": 62,
      "velocity": 53,
      "ticks": 180
    },
    {
      "time": 23040,
      "track": 2,
      "noteNumber": 45,
      "velocity": 41,
      "ticks": 90
    },
    {
      "time": 23280,
      "track": 1,
      "noteNumber": 61,
      "velocity": 56,
      "ticks": 240
    },
    {
      "time": 23280,
      "track": 2,
      "noteNumber": 52,
      "velocity": 33,
      "ticks": 90
    },
    {
      "time": 23520,
      "track": 2,
      "noteNumber": 57,
      "velocity": 37,
      "ticks": 90
    },
    {
      "time": 23520,
      "track": 1,
      "noteNumber": 62,
      "velocity": 53,
      "ticks": 240
    },
    {
      "time": 23760,
      "track": 2,
      "noteNumber": 52,
      "velocity": 34,
      "ticks": 90
    },
    {
      "time": 23760,
      "track": 1,
      "noteNumber": 64,
      "velocity": 53,
      "ticks": 240
    },
    {
      "time": 24000,
      "track": 1,
      "noteNumber": 66,
      "velocity": 57,
      "ticks": 480
    },
    {
      "time": 24000,
      "track": 2,
      "noteNumber": 50,
      "velocity": 43,
      "ticks": 90
    },
    {
      "time": 24240,
      "track": 2,
      "noteNumber": 57,
      "velocity": 34,
      "ticks": 90
    },
    {
      "time": 24480,
      "track": 1,
      "noteNumber": 69,
      "velocity": 55,
      "ticks": 480
    },
    {
      "time": 24480,
      "track": 2,
      "noteNumber": 62,
      "velocity": 39,
      "ticks": 90
    },
    {
      "time": 24720,
      "track": 2,
      "noteNumber": 49,
      "velocity": 35,
      "ticks": 90
    },
    {
      "time": 24960,
      "track": 1,
      "noteNumber": 68,
      "velocity": 57,
      "ticks": 2880
    },
    {
      "time": 24960,
      "track": 1,
      "noteNumber": 66,
      "velocity": 57,
      "ticks": 2880
    },
    {
      "time": 24960,
      "track": 2,
      "noteNumber": 48,
      "velocity": 46,
      "ticks": 90
    },
    {
      "time": 25200,
      "track": 2,
      "noteNumber": 56,
      "velocity": 36,
      "ticks": 90
    },
    {
      "time": 25440,
      "track": 2,
      "noteNumber": 63,
      "velocity": 41,
      "ticks": 90
    },
    {
      "time": 25680,
      "track": 2,
      "noteNumber": 56,
      "velocity": 36,
      "ticks": 90
    },
    {
      "time": 25920,
      "track": 2,
      "noteNumber": 48,
      "velocity": 43,
      "ticks": 90
    },
    {
      "time": 26160,
      "track": 2,
      "noteNumber": 56,
      "velocity": 34,
      "ticks": 90
    },
    {
      "time": 26400,
      "track": 2,
      "noteNumber": 63,
      "velocity": 40,
      "ticks": 90
    },
    {
      "time": 26640,
      "track": 2,
      "noteNumber": 56,
      "velocity": 35,
      "ticks": 90
    },
    {
      "time": 26880,
      "track": 2,
      "noteNumber": 48,
      "velocity": 46,
      "ticks": 90
    },
    {
      "time": 27120,
      "track": 2,
      "noteNumber": 56,
      "velocity": 36,
      "ticks": 90
    },
    {
      "time": 27360,
      "track": 2,
      "noteNumber": 63,
      "velocity": 41,
      "ticks": 90
    },
    {
      "time": 27600,
      "track": 2,
      "noteNumber": 56,
      "velocity": 36,
      "ticks": 90
    },
    {
      "time": 27840,
      "track": 1,
      "noteNumber": 69,
      "velocity": 60,
      "ticks": 480
    },
    {
      "time": 27840,
      "track": 1,
      "noteNumber": 66,
      "velocity": 60,
      "ticks": 480
    },
    {
      "time": 27840,
      "track": 2,
      "noteNumber": 49,
      "velocity": 49,
      "ticks": 90
    },
    {
      "time": 28080,
      "track": 2,
      "noteNumber": 57,
      "velocity": 45,
      "ticks": 90
    },
    {
      "time": 28320,
      "track": 1,
      "noteNumber": 76,
      "velocity": 59,
      "ticks": 120
    },
    {
      "time": 28320,
      "track": 1,
      "noteNumber": 80,
      "velocity": 59,
      "ticks": 120
    },
    {
      "time": 28320,
      "track": 2,
      "noteNumber": 64,
      "velocity": 49,
      "ticks": 90
    },
    {
      "time": 28560,
      "track": 2,
      "noteNumber": 57,
      "velocity": 47,
      "ticks": 90
    },
    {
      "time": 28800,
      "track": 1,
      "noteNumber": 66,
      "velocity": 58,
      "ticks": 960
    },
    {
      "time": 28800,
      "track": 1,
      "noteNumber": 68,
      "velocity": 58,
      "ticks": 960
    },
    {
      "time": 28800,
      "track": 2,
      "noteNumber": 48,
      "velocity": 49,
      "ticks": 90
    },
    {
      "time": 29040,
      "track": 2,
      "noteNumber": 56,
      "velocity": 38,
      "ticks": 90
    },
    {
      "time": 29280,
      "track": 2,
      "noteNumber": 63,
      "velocity": 44,
      "ticks": 90
    },
    {
      "time": 29520,
      "track": 2,
      "noteNumber": 56,
      "velocity": 38,
      "ticks": 90
    },
    {
      "time": 29760,
      "track": 1,
      "noteNumber": 62,
      "velocity": 56,
      "ticks": 480
    },
    {
      "time": 29760,
      "track": 1,
      "noteNumber": 66,
      "velocity": 56,
      "ticks": 480
    },
    {
      "time": 29760,
      "track": 2,
      "noteNumber": 47,
      "velocity": 52,
      "ticks": 90
    },
    {
      "time": 30000,
      "track": 2,
      "noteNumber": 52,
      "velocity": 48,
      "ticks": 90
    },
    {
      "time": 30240,
      "track": 2,
      "noteNumber": 62,
      "velocity": 52,
      "ticks": 90
    },
    {
      "time": 30240,
      "track": 1,
      "noteNumber": 76,
      "velocity": 59,
      "ticks": 120
    },
    {
      "time": 30240,
      "track": 1,
      "noteNumber": 73,
      "velocity": 59,
      "ticks": 120
    },
    {
      "time": 30240,
      "track": 2,
      "noteNumber": 56,
      "velocity": 52,
      "ticks": 90
    },
    {
      "time": 30480,
      "track": 2,
      "noteNumber": 52,
      "velocity": 50,
      "ticks": 90
    },
    {
      "time": 30720,
      "track": 1,
      "noteNumber": 64,
      "velocity": 57,
      "ticks": 960
    },
    {
      "time": 30720,
      "track": 1,
      "noteNumber": 61,
      "velocity": 57,
      "ticks": 960
    },
    {
      "time": 30720,
      "track": 2,
      "noteNumber": 45,
      "velocity": 52,
      "ticks": 90
    },
    {
      "time": 30960,
      "track": 2,
      "noteNumber": 52,
      "velocity": 44,
      "ticks": 90
    },
    {
      "time": 31200,
      "track": 2,
      "noteNumber": 61,
      "velocity": 49,
      "ticks": 90
    },
    {
      "time": 31440,
      "track": 2,
      "noteNumber": 52,
      "velocity": 46,
      "ticks": 90
    },
    {
      "time": 31680,
      "track": 1,
      "noteNumber": 59,
      "velocity": 66,
      "ticks": 480
    },
    {
      "time": 31680,
      "track": 1,
      "noteNumber": 63,
      "velocity": 66,
      "ticks": 480
    },
    {
      "time": 31680,
      "track": 2,
      "noteNumber": 42,
      "velocity": 55,
      "ticks": 90
    },
    {
      "time": 31920,
      "track": 2,
      "noteNumber": 47,
      "velocity": 50,
      "ticks": 90
    },
    {
      "time": 32160,
      "track": 1,
      "noteNumber": 73,
      "velocity": 69,
      "ticks": 150
    },
    {
      "time": 32160,
      "track": 1,
      "noteNumber": 69,
      "velocity": 69,
      "ticks": 150
    },
    {
      "time": 32160,
      "track": 2,
      "noteNumber": 57,
      "velocity": 55,
      "ticks": 90
    },
    {
      "time": 32400,
      "track": 2,
      "noteNumber": 47,
      "velocity": 52,
      "ticks": 90
    },
    {
      "time": 32640,
      "track": 2,
      "noteNumber": 37,
      "velocity": 66,
      "ticks": 90
    },
    {
      "time": 32640,
      "track": 1,
      "noteNumber": 56,
      "velocity": 69,
      "ticks": 2860
    },
    {
      "time": 32640,
      "track": 1,
      "noteNumber": 61,
      "velocity": 69,
      "ticks": 2860
    },
    {
      "time": 32880,
      "track": 2,
      "noteNumber": 44,
      "velocity": 57,
      "ticks": 90
    },
    {
      "time": 33120,
      "track": 2,
      "noteNumber": 53,
      "velocity": 61,
      "ticks": 90
    },
    {
      "time": 33360,
      "track": 2,
      "noteNumber": 44,
      "velocity": 57,
      "ticks": 90
    },
    {
      "time": 33600,
      "track": 2,
      "noteNumber": 37,
      "velocity": 66,
      "ticks": 90
    },
    {
      "time": 33840,
      "track": 2,
      "noteNumber": 44,
      "velocity": 57,
      "ticks": 90
    },
    {
      "time": 34080,
      "track": 2,
      "noteNumber": 53,
      "velocity": 61,
      "ticks": 90
    },
    {
      "time": 34320,
      "track": 2,
      "noteNumber": 44,
      "velocity": 57,
      "ticks": 90
    },
    {
      "time": 34560,
      "track": 2,
      "noteNumber": 37,
      "velocity": 61,
      "ticks": 90
    },
    {
      "time": 34800,
      "track": 2,
      "noteNumber": 44,
      "velocity": 55,
      "ticks": 90
    },
    {
      "time": 35040,
      "track": 2,
      "noteNumber": 53,
      "velocity": 58,
      "ticks": 90
    },
    {
      "time": 35280,
      "track": 2,
      "noteNumber": 44,
      "velocity": 55,
      "ticks": 90
    },
    {
      "time": 35520,
      "track": 2,
      "noteNumber": 47,
      "velocity": 38,
      "ticks": 90
    },
    {
      "time": 35520,
      "track": 1,
      "noteNumber": 62,
      "velocity": 42,
      "ticks": 480
    },
    {
      "time": 35520,
      "track": 1,
      "noteNumber": 59,
      "velocity": 42,
      "ticks": 480
    },
    {
      "time": 35760,
      "track": 2,
      "noteNumber": 54,
      "velocity": 35,
      "ticks": 90
    },
    {
      "time": 36000,
      "track": 1,
      "noteNumber": 66,
      "velocity": 43,
      "ticks": 480
    },
    {
      "time": 36000,
      "track": 2,
      "noteNumber": 57,
      "velocity": 37,
      "ticks": 90
    },
    {
      "time": 36000,
      "track": 1,
      "noteNumber": 69,
      "velocity": 43,
      "ticks": 480
    },
    {
      "time": 36240,
      "track": 2,
      "noteNumber": 61,
      "velocity": 35,
      "ticks": 90
    },
    {
      "time": 36480,
      "track": 2,
      "noteNumber": 52,
      "velocity": 37,
      "ticks": 90
    },
    {
      "time": 36480,
      "track": 1,
      "noteNumber": 64,
      "velocity": 43,
      "ticks": 1200
    },
    {
      "time": 36480,
      "track": 1,
      "noteNumber": 68,
      "velocity": 43,
      "ticks": 1200
    },
    {
      "time": 36720,
      "track": 2,
      "noteNumber": 59,
      "velocity": 34,
      "ticks": 90
    },
    {
      "time": 36960,
      "track": 2,
      "noteNumber": 62,
      "velocity": 34,
      "ticks": 90
    },
    {
      "time": 37200,
      "track": 2,
      "noteNumber": 59,
      "velocity": 34,
      "ticks": 90
    },
    {
      "time": 37440,
      "track": 2,
      "noteNumber": 52,
      "velocity": 40,
      "ticks": 90
    },
    {
      "time": 37680,
      "track": 2,
      "noteNumber": 59,
      "velocity": 36,
      "ticks": 90
    },
    {
      "time": 37680,
      "track": 1,
      "noteNumber": 69,
      "velocity": 39,
      "ticks": 240
    },
    {
      "time": 37680,
      "track": 1,
      "noteNumber": 66,
      "velocity": 39,
      "ticks": 240
    },
    {
      "time": 37920,
      "track": 1,
      "noteNumber": 71,
      "velocity": 44,
      "ticks": 960
    },
    {
      "time": 37920,
      "track": 1,
      "noteNumber": 68,
      "velocity": 44,
      "ticks": 960
    },
    {
      "time": 37920,
      "track": 2,
      "noteNumber": 52,
      "velocity": 37,
      "ticks": 90
    },
    {
      "time": 38160,
      "track": 2,
      "noteNumber": 47,
      "velocity": 35,
      "ticks": 90
    },
    {
      "time": 38400,
      "track": 2,
      "noteNumber": 40,
      "velocity": 37,
      "ticks": 90
    },
    {
      "time": 38640,
      "track": 2,
      "noteNumber": 47,
      "velocity": 34,
      "ticks": 90
    },
    {
      "time": 38880,
      "track": 1,
      "noteNumber": 69,
      "velocity": 41,
      "ticks": 460
    },
    {
      "time": 38880,
      "track": 2,
      "noteNumber": 52,
      "velocity": 34,
      "ticks": 90
    },
    {
      "time": 38880,
      "track": 1,
      "noteNumber": 73,
      "velocity": 41,
      "ticks": 460
    },
    {
      "time": 39120,
      "track": 2,
      "noteNumber": 56,
      "velocity": 34,
      "ticks": 90
    },
    {
      "time": 39360,
      "track": 2,
      "noteNumber": 47,
      "velocity": 37,
      "ticks": 90
    },
    {
      "time": 39360,
      "track": 1,
      "noteNumber": 59,
      "velocity": 42,
      "ticks": 480
    },
    {
      "time": 39360,
      "track": 1,
      "noteNumber": 62,
      "velocity": 42,
      "ticks": 480
    },
    {
      "time": 39600,
      "track": 2,
      "noteNumber": 54,
      "velocity": 34,
      "ticks": 90
    },
    {
      "time": 39840,
      "track": 2,
      "noteNumber": 57,
      "velocity": 34,
      "ticks": 90
    },
    {
      "time": 39840,
      "track": 1,
      "noteNumber": 69,
      "velocity": 44,
      "ticks": 480
    },
    {
      "time": 39840,
      "track": 1,
      "noteNumber": 66,
      "velocity": 44,
      "ticks": 480
    },
    {
      "time": 40080,
      "track": 2,
      "noteNumber": 61,
      "velocity": 34,
      "ticks": 90
    },
    {
      "time": 40320,
      "track": 1,
      "noteNumber": 64,
      "velocity": 43,
      "ticks": 1200
    },
    {
      "time": 40320,
      "track": 2,
      "noteNumber": 52,
      "velocity": 38,
      "ticks": 90
    },
    {
      "time": 40320,
      "track": 1,
      "noteNumber": 68,
      "velocity": 43,
      "ticks": 1200
    },
    {
      "time": 40560,
      "track": 2,
      "noteNumber": 59,
      "velocity": 34,
      "ticks": 90
    },
    {
      "time": 40800,
      "track": 2,
      "noteNumber": 62,
      "velocity": 34,
      "ticks": 90
    },
    {
      "time": 41040,
      "track": 2,
      "noteNumber": 59,
      "velocity": 34,
      "ticks": 90
    },
    {
      "time": 41280,
      "track": 2,
      "noteNumber": 52,
      "velocity": 41,
      "ticks": 90
    },
    {
      "time": 41520,
      "track": 2,
      "noteNumber": 59,
      "velocity": 37,
      "ticks": 90
    },
    {
      "time": 41520,
      "track": 1,
      "noteNumber": 66,
      "velocity": 42,
      "ticks": 240
    },
    {
      "time": 41520,
      "track": 1,
      "noteNumber": 69,
      "velocity": 42,
      "ticks": 240
    },
    {
      "time": 41760,
      "track": 1,
      "noteNumber": 71,
      "velocity": 46,
      "ticks": 940
    },
    {
      "time": 41760,
      "track": 1,
      "noteNumber": 68,
      "velocity": 46,
      "ticks": 940
    },
    {
      "time": 41760,
      "track": 2,
      "noteNumber": 52,
      "velocity": 37,
      "ticks": 90
    },
    {
      "time": 42000,
      "track": 2,
      "noteNumber": 47,
      "velocity": 37,
      "ticks": 90
    },
    {
      "time": 42240,
      "track": 2,
      "noteNumber": 40,
      "velocity": 45,
      "ticks": 90
    },
    {
      "time": 42480,
      "track": 2,
      "noteNumber": 47,
      "velocity": 38,
      "ticks": 90
    },
    {
      "time": 42720,
      "track": 1,
      "noteNumber": 64,
      "velocity": 51,
      "ticks": 480
    },
    {
      "time": 42720,
      "track": 1,
      "noteNumber": 68,
      "velocity": 51,
      "ticks": 480
    },
    {
      "time": 42720,
      "track": 2,
      "noteNumber": 52,
      "velocity": 38,
      "ticks": 90
    },
    {
      "time": 42960,
      "track": 2,
      "noteNumber": 56,
      "velocity": 38,
      "ticks": 90
    },
    {
      "time": 43200,
      "track": 1,
      "noteNumber": 66,
      "velocity": 55,
      "ticks": 480
    },
    {
      "time": 43200,
      "track": 2,
      "noteNumber": 47,
      "velocity": 46,
      "ticks": 90
    },
    {
      "time": 43200,
      "track": 1,
      "noteNumber": 69,
      "velocity": 55,
      "ticks": 480
    },
    {
      "time": 43440,
      "track": 2,
      "noteNumber": 52,
      "velocity": 39,
      "ticks": 90
    },
    {
      "time": 43680,
      "track": 1,
      "noteNumber": 71,
      "velocity": 59,
      "ticks": 480
    },
    {
      "time": 43680,
      "track": 2,
      "noteNumber": 62,
      "velocity": 39,
      "ticks": 90
    },
    {
      "time": 43680,
      "track": 1,
      "noteNumber": 68,
      "velocity": 59,
      "ticks": 480
    },
    {
      "time": 43920,
      "track": 2,
      "noteNumber": 52,
      "velocity": 39,
      "ticks": 90
    },
    {
      "time": 44160,
      "track": 1,
      "noteNumber": 67,
      "velocity": 37,
      "ticks": 960
    },
    {
      "time": 44160,
      "track": 2,
      "noteNumber": 45,
      "velocity": 42,
      "ticks": 90
    },
    {
      "time": 44160,
      "track": 1,
      "noteNumber": 73,
      "velocity": 59,
      "ticks": 320
    },
    {
      "time": 44160,
      "track": 1,
      "noteNumber": 71,
      "velocity": 37,
      "ticks": 960
    },
    {
      "time": 44400,
      "track": 2,
      "noteNumber": 52,
      "velocity": 38,
      "ticks": 90
    },
    {
      "time": 44480,
      "track": 1,
      "noteNumber": 73,
      "velocity": 59,
      "ticks": 320
    },
    {
      "time": 44640,
      "track": 2,
      "noteNumber": 57,
      "velocity": 38,
      "ticks": 90
    },
    {
      "time": 44800,
      "track": 1,
      "noteNumber": 76,
      "velocity": 56,
      "ticks": 320
    },
    {
      "time": 44880,
      "track": 2,
      "noteNumber": 61,
      "velocity": 38,
      "ticks": 90
    },
    {
      "time": 45120,
      "track": 1,
      "noteNumber": 73,
      "velocity": 59,
      "ticks": 320
    },
    {
      "time": 45120,
      "track": 1,
      "noteNumber": 69,
      "velocity": 37,
      "ticks": 960
    },
    {
      "time": 45120,
      "track": 2,
      "noteNumber": 50,
      "velocity": 41,
      "ticks": 90
    },
    {
      "time": 45120,
      "track": 1,
      "noteNumber": 66,
      "velocity": 37,
      "ticks": 960
    },
    {
      "time": 45360,
      "track": 2,
      "noteNumber": 57,
      "velocity": 38,
      "ticks": 90
    },
    {
      "time": 45440,
      "track": 1,
      "noteNumber": 71,
      "velocity": 59,
      "ticks": 320
    },
    {
      "time": 45600,
      "track": 2,
      "noteNumber": 62,
      "velocity": 38,
      "ticks": 90
    },
    {
      "time": 45760,
      "track": 1,
      "noteNumber": 73,
      "velocity": 56,
      "ticks": 320
    },
    {
      "time": 45840,
      "track": 2,
      "noteNumber": 57,
      "velocity": 38,
      "ticks": 90
    },
    {
      "time": 46080,
      "track": 1,
      "noteNumber": 66,
      "velocity": 37,
      "ticks": 960
    },
    {
      "time": 46080,
      "track": 1,
      "noteNumber": 69,
      "velocity": 56,
      "ticks": 480
    },
    {
      "time": 46080,
      "track": 1,
      "noteNumber": 64,
      "velocity": 37,
      "ticks": 960
    },
    {
      "time": 46080,
      "track": 2,
      "noteNumber": 54,
      "velocity": 41,
      "ticks": 90
    },
    {
      "time": 46320,
      "track": 2,
      "noteNumber": 57,
      "velocity": 34,
      "ticks": 90
    },
    {
      "time": 46560,
      "track": 2,
      "noteNumber": 61,
      "velocity": 35,
      "ticks": 90
    },
    {
      "time": 46560,
      "track": 1,
      "noteNumber": 73,
      "velocity": 52,
      "ticks": 480
    },
    {
      "time": 46800,
      "track": 2,
      "noteNumber": 57,
      "velocity": 34,
      "ticks": 90
    },
    {
      "time": 47040,
      "track": 2,
      "noteNumber": 47,
      "velocity": 37,
      "ticks": 90
    },
    {
      "time": 47040,
      "track": 1,
      "noteNumber": 69,
      "velocity": 45,
      "ticks": 960
    },
    {
      "time": 47040,
      "track": 1,
      "noteNumber": 62,
      "velocity": 45,
      "ticks": 1920
    },
    {
      "time": 47040,
      "track": 1,
      "noteNumber": 71,
      "velocity": 55,
      "ticks": 1440
    },
    {
      "time": 47280,
      "track": 2,
      "noteNumber": 54,
      "velocity": 32,
      "ticks": 90
    },
    {
      "time": 47520,
      "track": 2,
      "noteNumber": 59,
      "velocity": 34,
      "ticks": 90
    },
    {
      "time": 47760,
      "track": 2,
      "noteNumber": 54,
      "velocity": 33,
      "ticks": 90
    },
    {
      "time": 48000,
      "track": 1,
      "noteNumber": 67,
      "velocity": 41,
      "ticks": 1920
    },
    {
      "time": 48000,
      "track": 2,
      "noteNumber": 40,
      "velocity": 35,
      "ticks": 90
    },
    {
      "time": 48240,
      "track": 2,
      "noteNumber": 47,
      "velocity": 30,
      "ticks": 90
    },
    {
      "time": 48480,
      "track": 2,
      "noteNumber": 52,
      "velocity": 30,
      "ticks": 90
    },
    {
      "time": 48480,
      "track": 1,
      "noteNumber": 73,
      "velocity": 46,
      "ticks": 480
    },
    {
      "time": 48720,
      "track": 2,
      "noteNumber": 55,
      "velocity": 30,
      "ticks": 90
    },
    {
      "time": 48960,
      "track": 1,
      "noteNumber": 62,
      "velocity": 37,
      "ticks": 480
    },
    {
      "time": 48960,
      "track": 2,
      "noteNumber": 40,
      "velocity": 33,
      "ticks": 90
    },
    {
      "time": 48960,
      "track": 1,
      "noteNumber": 69,
      "velocity": 44,
      "ticks": 960
    },
    {
      "time": 49200,
      "track": 2,
      "noteNumber": 45,
      "velocity": 30,
      "ticks": 90
    },
    {
      "time": 49440,
      "track": 1,
      "noteNumber": 59,
      "velocity": 34,
      "ticks": 480
    },
    {
      "time": 49440,
      "track": 2,
      "noteNumber": 55,
      "velocity": 28,
      "ticks": 90
    },
    {
      "time": 49680,
      "track": 2,
      "noteNumber": 45,
      "velocity": 28,
      "ticks": 90
    },
    {
      "time": 49920,
      "track": 1,
      "noteNumber": 61,
      "velocity": 50,
      "ticks": 320
    },
    {
      "time": 49920,
      "track": 1,
      "noteNumber": 69,
      "velocity": 40,
      "ticks": 2240
    },
    {
      "time": 49920,
      "track": 2,
      "noteNumber": 42,
      "velocity": 38,
      "ticks": 90
    },
    {
      "time": 49920,
      "track": 1,
      "noteNumber": 66,
      "velocity": 40,
      "ticks": 1920
    },
    {
      "time": 50160,
      "track": 2,
      "noteNumber": 49,
      "velocity": 35,
      "ticks": 90
    },
    {
      "time": 50240,
      "track": 1,
      "noteNumber": 62,
      "velocity": 49,
      "ticks": 320
    },
    {
      "time": 50400,
      "track": 2,
      "noteNumber": 57,
      "velocity": 35,
      "ticks": 90
    },
    {
      "time": 50560,
      "track": 1,
      "noteNumber": 59,
      "velocity": 49,
      "ticks": 320
    },
    {
      "time": 50640,
      "track": 2,
      "noteNumber": 54,
      "velocity": 35,
      "ticks": 90
    },
    {
      "time": 50880,
      "track": 1,
      "noteNumber": 61,
      "velocity": 52,
      "ticks": 320
    },
    {
      "time": 50880,
      "track": 2,
      "noteNumber": 40,
      "velocity": 38,
      "ticks": 90
    },
    {
      "time": 51120,
      "track": 2,
      "noteNumber": 45,
      "velocity": 35,
      "ticks": 90
    },
    {
      "time": 51200,
      "track": 1,
      "noteNumber": 62,
      "velocity": 49,
      "ticks": 320
    },
    {
      "time": 51360,
      "track": 2,
      "noteNumber": 54,
      "velocity": 35,
      "ticks": 90
    },
    {
      "time": 51520,
      "track": 1,
      "noteNumber": 64,
      "velocity": 49,
      "ticks": 320
    },
    {
      "time": 51600,
      "track": 2,
      "noteNumber": 45,
      "velocity": 36,
      "ticks": 90
    },
    {
      "time": 51840,
      "track": 2,
      "noteNumber": 38,
      "velocity": 38,
      "ticks": 90
    },
    {
      "time": 51840,
      "track": 1,
      "noteNumber": 66,
      "velocity": 52,
      "ticks": 320
    },
    {
      "time": 52080,
      "track": 2,
      "noteNumber": 45,
      "velocity": 35,
      "ticks": 90
    },
    {
      "time": 52160,
      "track": 1,
      "noteNumber": 68,
      "velocity": 49,
      "ticks": 320
    },
    {
      "time": 52320,
      "track": 2,
      "noteNumber": 50,
      "velocity": 35,
      "ticks": 90
    },
    {
      "time": 52480,
      "track": 1,
      "noteNumber": 64,
      "velocity": 49,
      "ticks": 320
    },
    {
      "time": 52560,
      "track": 2,
      "noteNumber": 54,
      "velocity": 35,
      "ticks": 90
    },
    {
      "time": 52800,
      "track": 1,
      "noteNumber": 66,
      "velocity": 51,
      "ticks": 320
    },
    {
      "time": 52800,
      "track": 2,
      "noteNumber": 45,
      "velocity": 35,
      "ticks": 90
    },
    {
      "time": 53040,
      "track": 2,
      "noteNumber": 50,
      "velocity": 33,
      "ticks": 90
    },
    {
      "time": 53120,
      "track": 1,
      "noteNumber": 68,
      "velocity": 48,
      "ticks": 320
    },
    {
      "time": 53280,
      "track": 2,
      "noteNumber": 54,
      "velocity": 33,
      "ticks": 90
    },
    {
      "time": 53440,
      "track": 1,
      "noteNumber": 69,
      "velocity": 47,
      "ticks": 320
    },
    {
      "time": 53520,
      "track": 2,
      "noteNumber": 57,
      "velocity": 35,
      "ticks": 90
    },
    {
      "time": 53760,
      "track": 2,
      "noteNumber": 50,
      "velocity": 34,
      "ticks": 90
    },
    {
      "time": 53760,
      "track": 1,
      "noteNumber": 71,
      "velocity": 47,
      "ticks": 320
    },
    {
      "time": 54000,
      "track": 2,
      "noteNumber": 57,
      "velocity": 31,
      "ticks": 90
    },
    {
      "time": 54080,
      "track": 1,
      "noteNumber": 73,
      "velocity": 44,
      "ticks": 320
    },
    {
      "time": 54240,
      "track": 2,
      "noteNumber": 62,
      "velocity": 31,
      "ticks": 90
    },
    {
      "time": 54400,
      "track": 1,
      "noteNumber": 69,
      "velocity": 44,
      "ticks": 320
    },
    {
      "time": 54480,
      "track": 2,
      "noteNumber": 66,
      "velocity": 30,
      "ticks": 90
    },
    {
      "time": 54720,
      "track": 2,
      "noteNumber": 49,
      "velocity": 31,
      "ticks": 90
    },
    {
      "time": 54720,
      "track": 1,
      "noteNumber": 71,
      "velocity": 44,
      "ticks": 320
    },
    {
      "time": 54960,
      "track": 2,
      "noteNumber": 54,
      "velocity": 30,
      "ticks": 90
    },
    {
      "time": 55040,
      "track": 1,
      "noteNumber": 73,
      "velocity": 41,
      "ticks": 320
    },
    {
      "time": 55200,
      "track": 2,
      "noteNumber": 57,
      "velocity": 29,
      "ticks": 90
    },
    {
      "time": 55360,
      "track": 1,
      "noteNumber": 74,
      "velocity": 41,
      "ticks": 320
    },
    {
      "time": 55440,
      "track": 2,
      "noteNumber": 62,
      "velocity": 28,
      "ticks": 90
    },
    {
      "time": 55680,
      "track": 1,
      "noteNumber": 78,
      "velocity": 48,
      "ticks": 360
    },
    {
      "time": 55680,
      "track": 2,
      "noteNumber": 47,
      "velocity": 40,
      "ticks": 90
    },
    {
      "time": 55680,
      "track": 1,
      "noteNumber": 66,
      "velocity": 48,
      "ticks": 360
    },
    {
      "time": 55680,
      "track": 1,
      "noteNumber": 74,
      "velocity": 48,
      "ticks": 960
    },
    {
      "time": 55920,
      "track": 2,
      "noteNumber": 54,
      "velocity": 36,
      "ticks": 90
    },
    {
      "time": 56160,
      "track": 2,
      "noteNumber": 59,
      "velocity": 36,
      "ticks": 90
    },
    {
      "time": 56160,
      "track": 1,
      "noteNumber": 73,
      "velocity": 48,
      "ticks": 240
    },
    {
      "time": 56160,
      "track": 1,
      "noteNumber": 85,
      "velocity": 48,
      "ticks": 240
    },
    {
      "time": 56400,
      "track": 2,
      "noteNumber": 62,
      "velocity": 36,
      "ticks": 90
    },
    {
      "time": 56640,
      "track": 1,
      "noteNumber": 71,
      "velocity": 51,
      "ticks": 1440
    },
    {
      "time": 56640,
      "track": 1,
      "noteNumber": 77,
      "velocity": 51,
      "ticks": 960
    },
    {
      "time": 56640,
      "track": 1,
      "noteNumber": 83,
      "velocity": 51,
      "ticks": 1440
    },
    {
      "time": 56640,
      "track": 2,
      "noteNumber": 47,
      "velocity": 40,
      "ticks": 90
    },
    {
      "time": 56880,
      "track": 2,
      "noteNumber": 53,
      "velocity": 36,
      "ticks": 90
    },
    {
      "time": 57120,
      "track": 2,
      "noteNumber": 56,
      "velocity": 36,
      "ticks": 90
    },
    {
      "time": 57360,
      "track": 2,
      "noteNumber": 62,
      "velocity": 36,
      "ticks": 90
    },
    {
      "time": 57600,
      "track": 2,
      "noteNumber": 47,
      "velocity": 40,
      "ticks": 90
    },
    {
      "time": 57840,
      "track": 2,
      "noteNumber": 54,
      "velocity": 35,
      "ticks": 90
    },
    {
      "time": 58080,
      "track": 1,
      "noteNumber": 69,
      "velocity": 50,
      "ticks": 180
    },
    {
      "time": 58080,
      "track": 2,
      "noteNumber": 59,
      "velocity": 35,
      "ticks": 90
    },
    {
      "time": 58320,
      "track": 1,
      "noteNumber": 68,
      "velocity": 50,
      "ticks": 180
    },
    {
      "time": 58320,
      "track": 2,
      "noteNumber": 62,
      "velocity": 35,
      "ticks": 90
    },
    {
      "time": 58560,
      "track": 1,
      "noteNumber": 66,
      "velocity": 52,
      "ticks": 400
    },
    {
      "time": 58560,
      "track": 2,
      "noteNumber": 47,
      "velocity": 39,
      "ticks": 90
    },
    {
      "time": 58800,
      "track": 2,
      "noteNumber": 54,
      "velocity": 34,
      "ticks": 90
    },
    {
      "time": 59040,
      "track": 2,
      "noteNumber": 56,
      "velocity": 34,
      "ticks": 90
    },
    {
      "time": 59040,
      "track": 1,
      "noteNumber": 64,
      "velocity": 50,
      "ticks": 180
    },
    {
      "time": 59280,
      "track": 1,
      "noteNumber": 62,
      "velocity": 49,
      "ticks": 180
    },
    {
      "time": 59280,
      "track": 2,
      "noteNumber": 54,
      "velocity": 34,
      "ticks": 90
    },
    {
      "time": 59520,
      "track": 1,
      "noteNumber": 61,
      "velocity": 52,
      "ticks": 470
    },
    {
      "time": 59520,
      "track": 2,
      "noteNumber": 45,
      "velocity": 41,
      "ticks": 90
    },
    {
      "time": 59760,
      "track": 2,
      "noteNumber": 54,
      "velocity": 35,
      "ticks": 90
    },
    {
      "time": 60000,
      "track": 1,
      "noteNumber": 62,
      "velocity": 49,
      "ticks": 240
    },
    {
      "time": 60000,
      "track": 2,
      "noteNumber": 57,
      "velocity": 35,
      "ticks": 90
    },
    {
      "time": 60240,
      "track": 1,
      "noteNumber": 64,
      "velocity": 49,
      "ticks": 240
    },
    {
      "time": 60240,
      "track": 2,
      "noteNumber": 54,
      "velocity": 34,
      "ticks": 90
    },
    {
      "time": 60480,
      "track": 1,
      "noteNumber": 66,
      "velocity": 53,
      "ticks": 360
    },
    {
      "time": 60480,
      "track": 2,
      "noteNumber": 42,
      "velocity": 43,
      "ticks": 90
    },
    {
      "time": 60720,
      "track": 2,
      "noteNumber": 49,
      "velocity": 35,
      "ticks": 90
    },
    {
      "time": 60960,
      "track": 1,
      "noteNumber": 69,
      "velocity": 51,
      "ticks": 360
    },
    {
      "time": 60960,
      "track": 2,
      "noteNumber": 57,
      "velocity": 35,
      "ticks": 90
    },
    {
      "time": 61200,
      "track": 2,
      "noteNumber": 49,
      "velocity": 35,
      "ticks": 90
    },
    {
      "time": 61440,
      "track": 2,
      "noteNumber": 48,
      "velocity": 42,
      "ticks": 90
    },
    {
      "time": 61440,
      "track": 1,
      "noteNumber": 68,
      "velocity": 53,
      "ticks": 2140
    },
    {
      "time": 61440,
      "track": 1,
      "noteNumber": 66,
      "velocity": 53,
      "ticks": 2400
    },
    {
      "time": 61680,
      "track": 2,
      "noteNumber": 54,
      "velocity": 35,
      "ticks": 90
    },
    {
      "time": 61920,
      "track": 2,
      "noteNumber": 63,
      "velocity": 39,
      "ticks": 90
    },
    {
      "time": 62160,
      "track": 2,
      "noteNumber": 54,
      "velocity": 35,
      "ticks": 90
    },
    {
      "time": 62400,
      "track": 2,
      "noteNumber": 49,
      "velocity": 41,
      "ticks": 90
    },
    {
      "time": 62640,
      "track": 2,
      "noteNumber": 54,
      "velocity": 37,
      "ticks": 90
    },
    {
      "time": 62880,
      "track": 2,
      "noteNumber": 64,
      "velocity": 42,
      "ticks": 90
    },
    {
      "time": 63120,
      "track": 2,
      "noteNumber": 54,
      "velocity": 38,
      "ticks": 90
    },
    {
      "time": 63360,
      "track": 2,
      "noteNumber": 51,
      "velocity": 44,
      "ticks": 90
    },
    {
      "time": 63600,
      "track": 1,
      "noteNumber": 66,
      "velocity": 51,
      "ticks": 3600
    },
    {
      "time": 63600,
      "track": 2,
      "noteNumber": 54,
      "velocity": 40,
      "ticks": 90
    },
    {
      "time": 63840,
      "track": 1,
      "noteNumber": 68,
      "velocity": 54,
      "ticks": 240
    },
    {
      "time": 63840,
      "track": 2,
      "noteNumber": 60,
      "velocity": 43,
      "ticks": 90
    },
    {
      "time": 64080,
      "track": 2,
      "noteNumber": 54,
      "velocity": 45,
      "ticks": 90
    },
    {
      "time": 64080,
      "track": 1,
      "noteNumber": 69,
      "velocity": 56,
      "ticks": 240
    },
    {
      "time": 64320,
      "track": 1,
      "noteNumber": 71,
      "velocity": 57,
      "ticks": 1180
    },
    {
      "time": 64320,
      "track": 2,
      "noteNumber": 52,
      "velocity": 47,
      "ticks": 90
    },
    {
      "time": 64560,
      "track": 2,
      "noteNumber": 54,
      "velocity": 41,
      "ticks": 90
    },
    {
      "time": 64800,
      "track": 2,
      "noteNumber": 61,
      "velocity": 41,
      "ticks": 90
    },
    {
      "time": 65040,
      "track": 2,
      "noteNumber": 54,
      "velocity": 41,
      "ticks": 90
    },
    {
      "time": 65280,
      "track": 2,
      "noteNumber": 51,
      "velocity": 47,
      "ticks": 90
    },
    {
      "time": 65520,
      "track": 2,
      "noteNumber": 54,
      "velocity": 45,
      "ticks": 90
    },
    {
      "time": 65520,
      "track": 1,
      "noteNumber": 69,
      "velocity": 55,
      "ticks": 240
    },
    {
      "time": 65760,
      "track": 1,
      "noteNumber": 71,
      "velocity": 57,
      "ticks": 240
    },
    {
      "time": 65760,
      "track": 2,
      "noteNumber": 60,
      "velocity": 45,
      "ticks": 90
    },
    {
      "time": 66000,
      "track": 2,
      "noteNumber": 54,
      "velocity": 45,
      "ticks": 90
    },
    {
      "time": 66000,
      "track": 1,
      "noteNumber": 69,
      "velocity": 55,
      "ticks": 240
    },
    {
      "time": 66240,
      "track": 1,
      "noteNumber": 68,
      "velocity": 56,
      "ticks": 1180
    },
    {
      "time": 66240,
      "track": 2,
      "noteNumber": 44,
      "velocity": 47,
      "ticks": 90
    },
    {
      "time": 66480,
      "track": 2,
      "noteNumber": 51,
      "velocity": 45,
      "ticks": 90
    },
    {
      "time": 66720,
      "track": 2,
      "noteNumber": 60,
      "velocity": 45,
      "ticks": 90
    },
    {
      "time": 66960,
      "track": 2,
      "noteNumber": 51,
      "velocity": 45,
      "ticks": 90
    },
    {
      "time": 67200,
      "track": 2,
      "noteNumber": 44,
      "velocity": 47,
      "ticks": 90
    },
    {
      "time": 67440,
      "track": 1,
      "noteNumber": 66,
      "velocity": 54,
      "ticks": 240
    },
    {
      "time": 67440,
      "track": 2,
      "noteNumber": 50,
      "velocity": 44,
      "ticks": 90
    },
    {
      "time": 67680,
      "track": 2,
      "noteNumber": 59,
      "velocity": 44,
      "ticks": 90
    },
    {
      "time": 67680,
      "track": 1,
      "noteNumber": 64,
      "velocity": 56,
      "ticks": 240
    },
    {
      "time": 67920,
      "track": 1,
      "noteNumber": 62,
      "velocity": 58,
      "ticks": 240
    },
    {
      "time": 67920,
      "track": 2,
      "noteNumber": 50,
      "velocity": 44,
      "ticks": 90
    },
    {
      "time": 68160,
      "track": 2,
      "noteNumber": 40,
      "velocity": 47,
      "ticks": 240
    },
    {
      "time": 68160,
      "track": 1,
      "noteNumber": 61,
      "velocity": 60,
      "ticks": 956
    },
    {
      "time": 68400,
      "track": 2,
      "noteNumber": 50,
      "velocity": 41,
      "ticks": 240
    },
    {
      "time": 68640,
      "track": 2,
      "noteNumber": 52,
      "velocity": 41,
      "ticks": 240
    },
    {
      "time": 68880,
      "track": 2,
      "noteNumber": 56,
      "velocity": 41,
      "ticks": 240
    },
    {
      "time": 69120,
      "track": 2,
      "noteNumber": 61,
      "velocity": 45,
      "ticks": 1917
    },
    {
      "time": 69360,
      "track": 2,
      "noteNumber": 56,
      "velocity": 41,
      "ticks": 240
    },
    {
      "time": 69600,
      "track": 2,
      "noteNumber": 50,
      "velocity": 38,
      "ticks": 240
    },
    {
      "time": 69840,
      "track": 2,
      "noteNumber": 40,
      "velocity": 36,
      "ticks": 240
    },
    {
      "time": 70080,
      "track": 2,
      "noteNumber": 37,
      "velocity": 40,
      "ticks": 240
    },
    {
      "time": 70320,
      "track": 2,
      "noteNumber": 44,
      "velocity": 37,
      "ticks": 240
    },
    {
      "time": 70560,
      "track": 2,
      "noteNumber": 53,
      "velocity": 38,
      "ticks": 240
    },
    {
      "time": 70800,
      "track": 2,
      "noteNumber": 59,
      "velocity": 38,
      "ticks": 240
    },
    {
      "time": 71040,
      "track": 1,
      "noteNumber": 61,
      "velocity": 41,
      "ticks": 240
    },
    {
      "time": 71280,
      "track": 1,
      "noteNumber": 59,
      "velocity": 41,
      "ticks": 240
    },
    {
      "time": 71520,
      "track": 2,
      "noteNumber": 53,
      "velocity": 39,
      "ticks": 240
    },
    {
      "time": 71760,
      "track": 2,
      "noteNumber": 44,
      "velocity": 39,
      "ticks": 240
    },
    {
      "time": 72000,
      "track": 1,
      "noteNumber": 73,
      "velocity": 37,
      "ticks": 240
    },
    {
      "time": 72240,
      "track": 1,
      "noteNumber": 71,
      "velocity": 37,
      "ticks": 240
    },
    {
      "time": 72480,
      "track": 2,
      "noteNumber": 65,
      "velocity": 35,
      "ticks": 240
    },
    {
      "time": 72720,
      "track": 2,
      "noteNumber": 56,
      "velocity": 33,
      "ticks": 240
    },
    {
      "time": 72960,
      "track": 1,
      "noteNumber": 78,
      "velocity": 48,
      "ticks": 480
    },
    {
      "time": 73200,
      "track": 2,
      "noteNumber": 54,
      "velocity": 31,
      "ticks": 240
    },
    {
      "time": 73440,
      "track": 2,
      "noteNumber": 61,
      "velocity": 31,
      "ticks": 240
    },
    {
      "time": 73440,
      "track": 1,
      "noteNumber": 85,
      "velocity": 48,
      "ticks": 480
    },
    {
      "time": 73680,
      "track": 2,
      "noteNumber": 69,
      "velocity": 31,
      "ticks": 240
    },
    {
      "time": 73920,
      "track": 1,
      "noteNumber": 84,
      "velocity": 50,
      "ticks": 960
    },
    {
      "time": 73920,
      "track": 1,
      "noteNumber": 78,
      "velocity": 40,
      "ticks": 960
    },
    {
      "time": 73920,
      "track": 1,
      "noteNumber": 81,
      "velocity": 40,
      "ticks": 960
    },
    {
      "time": 74160,
      "track": 2,
      "noteNumber": 57,
      "velocity": 30,
      "ticks": 240
    },
    {
      "time": 74400,
      "track": 2,
      "noteNumber": 66,
      "velocity": 30,
      "ticks": 240
    },
    {
      "time": 74400,
      "track": 2,
      "noteNumber": 62,
      "velocity": 30,
      "ticks": 240
    },
    {
      "time": 74640,
      "track": 2,
      "noteNumber": 72,
      "velocity": 30,
      "ticks": 240
    },
    {
      "time": 74880,
      "track": 1,
      "noteNumber": 85,
      "velocity": 55,
      "ticks": 480
    },
    {
      "time": 75120,
      "track": 2,
      "noteNumber": 61,
      "velocity": 31,
      "ticks": 240
    },
    {
      "time": 75360,
      "track": 1,
      "noteNumber": 78,
      "velocity": 40,
      "ticks": 480
    },
    {
      "time": 75360,
      "track": 1,
      "noteNumber": 88,
      "velocity": 55,
      "ticks": 480
    },
    {
      "time": 75360,
      "track": 1,
      "noteNumber": 81,
      "velocity": 40,
      "ticks": 480
    },
    {
      "time": 75360,
      "track": 2,
      "noteNumber": 66,
      "velocity": 31,
      "ticks": 240
    },
    {
      "time": 75600,
      "track": 2,
      "noteNumber": 76,
      "velocity": 31,
      "ticks": 240
    },
    {
      "time": 75840,
      "track": 1,
      "noteNumber": 87,
      "velocity": 57,
      "ticks": 320
    },
    {
      "time": 76080,
      "track": 2,
      "noteNumber": 59,
      "velocity": 26,
      "ticks": 240
    },
    {
      "time": 76160,
      "track": 1,
      "noteNumber": 78,
      "velocity": 40,
      "ticks": 320
    },
    {
      "time": 76160,
      "track": 1,
      "noteNumber": 83,
      "velocity": 52,
      "ticks": 320
    },
    {
      "time": 76320,
      "track": 2,
      "noteNumber": 66,
      "velocity": 23,
      "ticks": 240
    },
    {
      "time": 76480,
      "track": 1,
      "noteNumber": 81,
      "velocity": 51,
      "ticks": 320
    },
    {
      "time": 76560,
      "track": 2,
      "noteNumber": 75,
      "velocity": 24,
      "ticks": 240
    },
    {
      "time": 76800,
      "track": 1,
      "noteNumber": 78,
      "velocity": 48,
      "ticks": 480
    },
    {
      "time": 77040,
      "track": 2,
      "noteNumber": 54,
      "velocity": 31,
      "ticks": 240
    },
    {
      "time": 77280,
      "track": 1,
      "noteNumber": 85,
      "velocity": 48,
      "ticks": 480
    },
    {
      "time": 77280,
      "track": 2,
      "noteNumber": 61,
      "velocity": 31,
      "ticks": 240
    },
    {
      "time": 77520,
      "track": 2,
      "noteNumber": 69,
      "velocity": 31,
      "ticks": 240
    },
    {
      "time": 77760,
      "track": 1,
      "noteNumber": 78,
      "velocity": 40,
      "ticks": 960
    },
    {
      "time": 77760,
      "track": 1,
      "noteNumber": 81,
      "velocity": 40,
      "ticks": 960
    },
    {
      "time": 77760,
      "track": 1,
      "noteNumber": 84,
      "velocity": 50,
      "ticks": 960
    },
    {
      "time": 78000,
      "track": 2,
      "noteNumber": 57,
      "velocity": 30,
      "ticks": 240
    },
    {
      "time": 78240,
      "track": 2,
      "noteNumber": 66,
      "velocity": 30,
      "ticks": 240
    },
    {
      "time": 78240,
      "track": 2,
      "noteNumber": 62,
      "velocity": 30,
      "ticks": 240
    },
    {
      "time": 78480,
      "track": 2,
      "noteNumber": 72,
      "velocity": 30,
      "ticks": 240
    },
    {
      "time": 78720,
      "track": 1,
      "noteNumber": 85,
      "velocity": 55,
      "ticks": 480
    },
    {
      "time": 78960,
      "track": 2,
      "noteNumber": 61,
      "velocity": 31,
      "ticks": 240
    },
    {
      "time": 79200,
      "track": 1,
      "noteNumber": 78,
      "velocity": 35,
      "ticks": 480
    },
    {
      "time": 79200,
      "track": 2,
      "noteNumber": 66,
      "velocity": 31,
      "ticks": 240
    },
    {
      "time": 79200,
      "track": 1,
      "noteNumber": 88,
      "velocity": 55,
      "ticks": 480
    },
    {
      "time": 79200,
      "track": 1,
      "noteNumber": 81,
      "velocity": 35,
      "ticks": 480
    },
    {
      "time": 79440,
      "track": 2,
      "noteNumber": 76,
      "velocity": 31,
      "ticks": 240
    },
    {
      "time": 79680,
      "track": 1,
      "noteNumber": 87,
      "velocity": 57,
      "ticks": 320
    },
    {
      "time": 79920,
      "track": 2,
      "noteNumber": 59,
      "velocity": 26,
      "ticks": 240
    },
    {
      "time": 80000,
      "track": 1,
      "noteNumber": 83,
      "velocity": 52,
      "ticks": 320
    },
    {
      "time": 80000,
      "track": 1,
      "noteNumber": 78,
      "velocity": 40,
      "ticks": 320
    },
    {
      "time": 80160,
      "track": 2,
      "noteNumber": 66,
      "velocity": 23,
      "ticks": 240
    },
    {
      "time": 80320,
      "track": 1,
      "noteNumber": 87,
      "velocity": 51,
      "ticks": 320
    },
    {
      "time": 80400,
      "track": 2,
      "noteNumber": 75,
      "velocity": 23,
      "ticks": 240
    },
    {
      "time": 80640,
      "track": 1,
      "noteNumber": 73,
      "velocity": 46,
      "ticks": 480
    },
    {
      "time": 80880,
      "track": 2,
      "noteNumber": 49,
      "velocity": 27,
      "ticks": 240
    },
    {
      "time": 81120,
      "track": 1,
      "noteNumber": 66,
      "velocity": 25,
      "ticks": 480
    },
    {
      "time": 81120,
      "track": 1,
      "noteNumber": 69,
      "velocity": 25,
      "ticks": 480
    },
    {
      "time": 81120,
      "track": 1,
      "noteNumber": 76,
      "velocity": 46,
      "ticks": 480
    },
    {
      "time": 81120,
      "track": 2,
      "noteNumber": 54,
      "velocity": 24,
      "ticks": 240
    },
    {
      "time": 81360,
      "track": 2,
      "noteNumber": 64,
      "velocity": 24,
      "ticks": 240
    },
    {
      "time": 81600,
      "track": 1,
      "noteNumber": 75,
      "velocity": 49,
      "ticks": 320
    },
    {
      "time": 81840,
      "track": 2,
      "noteNumber": 47,
      "velocity": 27,
      "ticks": 240
    },
    {
      "time": 81920,
      "track": 1,
      "noteNumber": 69,
      "velocity": 25,
      "ticks": 320
    },
    {
      "time": 81920,
      "track": 1,
      "noteNumber": 66,
      "velocity": 25,
      "ticks": 320
    },
    {
      "time": 81920,
      "track": 1,
      "noteNumber": 71,
      "velocity": 45,
      "ticks": 320
    },
    {
      "time": 82080,
      "track": 2,
      "noteNumber": 54,
      "velocity": 28,
      "ticks": 240
    },
    {
      "time": 82240,
      "track": 1,
      "noteNumber": 75,
      "velocity": 44,
      "ticks": 320
    },
    {
      "time": 82320,
      "track": 2,
      "noteNumber": 63,
      "velocity": 27,
      "ticks": 240
    },
    {
      "time": 82560,
      "track": 1,
      "noteNumber": 66,
      "velocity": 46,
      "ticks": 960
    },
    {
      "time": 82560,
      "track": 1,
      "noteNumber": 63,
      "velocity": 46,
      "ticks": 960
    },
    {
      "time": 82560,
      "track": 1,
      "noteNumber": 73,
      "velocity": 46,
      "ticks": 960
    },
    {
      "time": 82800,
      "track": 2,
      "noteNumber": 45,
      "velocity": 36,
      "ticks": 240
    },
    {
      "time": 83040,
      "track": 2,
      "noteNumber": 54,
      "velocity": 36,
      "ticks": 240
    },
    {
      "time": 83280,
      "track": 2,
      "noteNumber": 61,
      "velocity": 36,
      "ticks": 240
    },
    {
      "time": 83520,
      "track": 1,
      "noteNumber": 64,
      "velocity": 46,
      "ticks": 480
    },
    {
      "time": 83520,
      "track": 1,
      "noteNumber": 68,
      "velocity": 46,
      "ticks": 480
    },
    {
      "time": 83520,
      "track": 1,
      "noteNumber": 71,
      "velocity": 46,
      "ticks": 480
    },
    {
      "time": 83760,
      "track": 2,
      "noteNumber": 44,
      "velocity": 36,
      "ticks": 240
    },
    {
      "time": 84000,
      "track": 1,
      "noteNumber": 64,
      "velocity": 45,
      "ticks": 480
    },
    {
      "time": 84000,
      "track": 1,
      "noteNumber": 59,
      "velocity": 45,
      "ticks": 480
    },
    {
      "time": 84000,
      "track": 2,
      "noteNumber": 52,
      "velocity": 36,
      "ticks": 240
    },
    {
      "time": 84000,
      "track": 1,
      "noteNumber": 68,
      "velocity": 45,
      "ticks": 480
    },
    {
      "time": 84240,
      "track": 2,
      "noteNumber": 44,
      "velocity": 36,
      "ticks": 240
    },
    {
      "time": 84480,
      "track": 1,
      "noteNumber": 61,
      "velocity": 45,
      "ticks": 960
    },
    {
      "time": 84480,
      "track": 1,
      "noteNumber": 64,
      "velocity": 45,
      "ticks": 320
    },
    {
      "time": 84480,
      "track": 1,
      "noteNumber": 57,
      "velocity": 45,
      "ticks": 960
    },
    {
      "time": 84720,
      "track": 2,
      "noteNumber": 42,
      "velocity": 35,
      "ticks": 240
    },
    {
      "time": 84800,
      "track": 1,
      "noteNumber": 66,
      "velocity": 44,
      "ticks": 320
    },
    {
      "time": 84960,
      "track": 2,
      "noteNumber": 49,
      "velocity": 35,
      "ticks": 240
    },
    {
      "time": 85120,
      "track": 1,
      "noteNumber": 68,
      "velocity": 44,
      "ticks": 320
    },
    {
      "time": 85200,
      "track": 2,
      "noteNumber": 42,
      "velocity": 35,
      "ticks": 240
    },
    {
      "time": 85440,
      "track": 1,
      "noteNumber": 66,
      "velocity": 44,
      "ticks": 960
    },
    {
      "time": 85440,
      "track": 1,
      "noteNumber": 57,
      "velocity": 44,
      "ticks": 960
    },
    {
      "time": 85440,
      "track": 1,
      "noteNumber": 64,
      "velocity": 44,
      "ticks": 480
    },
    {
      "time": 85680,
      "track": 2,
      "noteNumber": 35,
      "velocity": 33,
      "ticks": 240
    },
    {
      "time": 85920,
      "track": 2,
      "noteNumber": 47,
      "velocity": 33,
      "ticks": 240
    },
    {
      "time": 85920,
      "track": 1,
      "noteNumber": 63,
      "velocity": 43,
      "ticks": 480
    },
    {
      "time": 86160,
      "track": 2,
      "noteNumber": 35,
      "velocity": 33,
      "ticks": 240
    },
    {
      "time": 86400,
      "track": 1,
      "noteNumber": 64,
      "velocity": 44,
      "ticks": 1920
    },
    {
      "time": 86400,
      "track": 1,
      "noteNumber": 61,
      "velocity": 44,
      "ticks": 480
    },
    {
      "time": 86400,
      "track": 1,
      "noteNumber": 68,
      "velocity": 44,
      "ticks": 1680
    },
    {
      "time": 86400,
      "track": 2,
      "noteNumber": 40,
      "velocity": 35,
      "ticks": 240
    },
    {
      "time": 86640,
      "track": 2,
      "noteNumber": 47,
      "velocity": 34,
      "ticks": 240
    },
    {
      "time": 86880,
      "track": 1,
      "noteNumber": 59,
      "velocity": 40,
      "ticks": 480
    },
    {
      "time": 86880,
      "track": 2,
      "noteNumber": 52,
      "velocity": 34,
      "ticks": 240
    },
    {
      "time": 87120,
      "track": 2,
      "noteNumber": 56,
      "velocity": 34,
      "ticks": 240
    },
    {
      "time": 87360,
      "track": 2,
      "noteNumber": 59,
      "velocity": 37,
      "ticks": 240
    },
    {
      "time": 87600,
      "track": 2,
      "noteNumber": 64,
      "velocity": 35,
      "ticks": 240
    },
    {
      "time": 87840,
      "track": 1,
      "noteNumber": 68,
      "velocity": 39,
      "ticks": 480
    },
    {
      "time": 88080,
      "track": 1,
      "noteNumber": 71,
      "velocity": 40,
      "ticks": 240
    },
    {
      "time": 88320,
      "track": 1,
      "noteNumber": 67,
      "velocity": 32,
      "ticks": 960
    },
    {
      "time": 88320,
      "track": 1,
      "noteNumber": 70,
      "velocity": 32,
      "ticks": 960
    },
    {
      "time": 88320,
      "track": 1,
      "noteNumber": 73,
      "velocity": 46,
      "ticks": 480
    },
    {
      "time": 88560,
      "track": 2,
      "noteNumber": 55,
      "velocity": 36,
      "ticks": 240
    },
    {
      "time": 88800,
      "track": 2,
      "noteNumber": 61,
      "velocity": 36,
      "ticks": 240
    },
    {
      "time": 88800,
      "track": 1,
      "noteNumber": 76,
      "velocity": 46,
      "ticks": 480
    },
    {
      "time": 89040,
      "track": 2,
      "noteNumber": 64,
      "velocity": 36,
      "ticks": 240
    },
    {
      "time": 89280,
      "track": 1,
      "noteNumber": 75,
      "velocity": 49,
      "ticks": 320
    },
    {
      "time": 89280,
      "track": 1,
      "noteNumber": 68,
      "velocity": 34,
      "ticks": 960
    },
    {
      "time": 89280,
      "track": 1,
      "noteNumber": 71,
      "velocity": 34,
      "ticks": 640
    },
    {
      "time": 89520,
      "track": 2,
      "noteNumber": 56,
      "velocity": 32,
      "ticks": 240
    },
    {
      "time": 89600,
      "track": 1,
      "noteNumber": 71,
      "velocity": 45,
      "ticks": 640
    },
    {
      "time": 89760,
      "track": 2,
      "noteNumber": 59,
      "velocity": 28,
      "ticks": 240
    },
    {
      "time": 89920,
      "track": 1,
      "noteNumber": 75,
      "velocity": 44,
      "ticks": 320
    },
    {
      "time": 90000,
      "track": 2,
      "noteNumber": 63,
      "velocity": 28,
      "ticks": 240
    },
    {
      "time": 90240,
      "track": 1,
      "noteNumber": 64,
      "velocity": 47,
      "ticks": 960
    },
    {
      "time": 90240,
      "track": 1,
      "noteNumber": 73,
      "velocity": 47,
      "ticks": 960
    },
    {
      "time": 90240,
      "track": 1,
      "noteNumber": 68,
      "velocity": 47,
      "ticks": 960
    },
    {
      "time": 90480,
      "track": 2,
      "noteNumber": 49,
      "velocity": 36,
      "ticks": 240
    },
    {
      "time": 90720,
      "track": 2,
      "noteNumber": 56,
      "velocity": 36,
      "ticks": 240
    },
    {
      "time": 90960,
      "track": 2,
      "noteNumber": 61,
      "velocity": 36,
      "ticks": 240
    },
    {
      "time": 91200,
      "track": 1,
      "noteNumber": 71,
      "velocity": 47,
      "ticks": 480
    },
    {
      "time": 91200,
      "track": 1,
      "noteNumber": 68,
      "velocity": 47,
      "ticks": 480
    },
    {
      "time": 91200,
      "track": 1,
      "noteNumber": 63,
      "velocity": 47,
      "ticks": 480
    },
    {
      "time": 91440,
      "track": 2,
      "noteNumber": 44,
      "velocity": 36,
      "ticks": 240
    },
    {
      "time": 91680,
      "track": 1,
      "noteNumber": 68,
      "velocity": 45,
      "ticks": 480
    },
    {
      "time": 91680,
      "track": 1,
      "noteNumber": 59,
      "velocity": 45,
      "ticks": 480
    },
    {
      "time": 91680,
      "track": 1,
      "noteNumber": 63,
      "velocity": 45,
      "ticks": 480
    },
    {
      "time": 91680,
      "track": 2,
      "noteNumber": 51,
      "velocity": 36,
      "ticks": 240
    },
    {
      "time": 91920,
      "track": 2,
      "noteNumber": 56,
      "velocity": 36,
      "ticks": 240
    },
    {
      "time": 92160,
      "track": 1,
      "noteNumber": 64,
      "velocity": 45,
      "ticks": 320
    },
    {
      "time": 92160,
      "track": 1,
      "noteNumber": 61,
      "velocity": 45,
      "ticks": 960
    },
    {
      "time": 92160,
      "track": 1,
      "noteNumber": 58,
      "velocity": 45,
      "ticks": 960
    },
    {
      "time": 92400,
      "track": 2,
      "noteNumber": 42,
      "velocity": 35,
      "ticks": 240
    },
    {
      "time": 92480,
      "track": 1,
      "noteNumber": 66,
      "velocity": 44,
      "ticks": 320
    },
    {
      "time": 92640,
      "track": 2,
      "noteNumber": 49,
      "velocity": 35,
      "ticks": 240
    },
    {
      "time": 92800,
      "track": 1,
      "noteNumber": 68,
      "velocity": 45,
      "ticks": 320
    },
    {
      "time": 92880,
      "track": 2,
      "noteNumber": 42,
      "velocity": 35,
      "ticks": 240
    },
    {
      "time": 93120,
      "track": 1,
      "noteNumber": 63,
      "velocity": 46,
      "ticks": 480
    },
    {
      "time": 93120,
      "track": 1,
      "noteNumber": 70,
      "velocity": 46,
      "ticks": 1440
    },
    {
      "time": 93120,
      "track": 1,
      "noteNumber": 66,
      "velocity": 46,
      "ticks": 1440
    },
    {
      "time": 93360,
      "track": 2,
      "noteNumber": 40,
      "velocity": 36,
      "ticks": 240
    },
    {
      "time": 93600,
      "track": 1,
      "noteNumber": 61,
      "velocity": 43,
      "ticks": 960
    },
    {
      "time": 93600,
      "track": 2,
      "noteNumber": 49,
      "velocity": 36,
      "ticks": 240
    },
    {
      "time": 93840,
      "track": 2,
      "noteNumber": 40,
      "velocity": 36,
      "ticks": 240
    },
    {
      "time": 94080,
      "track": 2,
      "noteNumber": 39,
      "velocity": 40,
      "ticks": 240
    },
    {
      "time": 94320,
      "track": 2,
      "noteNumber": 47,
      "velocity": 36,
      "ticks": 240
    },
    {
      "time": 94560,
      "track": 1,
      "noteNumber": 66,
      "velocity": 47,
      "ticks": 480
    },
    {
      "time": 94560,
      "track": 1,
      "noteNumber": 59,
      "velocity": 47,
      "ticks": 480
    },
    {
      "time": 94560,
      "track": 1,
      "noteNumber": 71,
      "velocity": 47,
      "ticks": 480
    },
    {
      "time": 94560,
      "track": 2,
      "noteNumber": 51,
      "velocity": 36,
      "ticks": 240
    },
    {
      "time": 94800,
      "track": 2,
      "noteNumber": 54,
      "velocity": 36,
      "ticks": 240
    },
    {
      "time": 95040,
      "track": 1,
      "noteNumber": 71,
      "velocity": 50,
      "ticks": 480
    },
    {
      "time": 95040,
      "track": 2,
      "noteNumber": 59,
      "velocity": 42,
      "ticks": 240
    },
    {
      "time": 95040,
      "track": 1,
      "noteNumber": 66,
      "velocity": 50,
      "ticks": 480
    },
    {
      "time": 95040,
      "track": 1,
      "noteNumber": 75,
      "velocity": 50,
      "ticks": 480
    },
    {
      "time": 95280,
      "track": 2,
      "noteNumber": 63,
      "velocity": 38,
      "ticks": 240
    },
    {
      "time": 95520,
      "track": 1,
      "noteNumber": 75,
      "velocity": 54,
      "ticks": 480
    },
    {
      "time": 95520,
      "track": 1,
      "noteNumber": 78,
      "velocity": 54,
      "ticks": 480
    },
    {
      "time": 95520,
      "track": 1,
      "noteNumber": 71,
      "velocity": 54,
      "ticks": 480
    },
    {
      "time": 95520,
      "track": 2,
      "noteNumber": 66,
      "velocity": 43,
      "ticks": 240
    },
    {
      "time": 95760,
      "track": 2,
      "noteNumber": 71,
      "velocity": 46,
      "ticks": 240
    },
    {
      "time": 96000,
      "track": 1,
      "noteNumber": 80,
      "velocity": 47,
      "ticks": 2880
    },
    {
      "time": 96000,
      "track": 1,
      "noteNumber": 75,
      "velocity": 51,
      "ticks": 480
    },
    {
      "time": 96000,
      "track": 1,
      "noteNumber": 76,
      "velocity": 47,
      "ticks": 2880
    },
    {
      "time": 96240,
      "track": 2,
      "noteNumber": 61,
      "velocity": 38,
      "ticks": 240
    },
    {
      "time": 96480,
      "track": 1,
      "noteNumber": 73,
      "velocity": 36,
      "ticks": 480
    },
    {
      "time": 96480,
      "track": 2,
      "noteNumber": 64,
      "velocity": 33,
      "ticks": 240
    },
    {
      "time": 96720,
      "track": 2,
      "noteNumber": 68,
      "velocity": 33,
      "ticks": 240
    },
    {
      "time": 96960,
      "track": 1,
      "noteNumber": 75,
      "velocity": 42,
      "ticks": 480
    },
    {
      "time": 97200,
      "track": 2,
      "noteNumber": 59,
      "velocity": 37,
      "ticks": 240
    },
    {
      "time": 97440,
      "track": 2,
      "noteNumber": 64,
      "velocity": 32,
      "ticks": 240
    },
    {
      "time": 97440,
      "track": 1,
      "noteNumber": 73,
      "velocity": 37,
      "ticks": 480
    },
    {
      "time": 97680,
      "track": 2,
      "noteNumber": 68,
      "velocity": 32,
      "ticks": 240
    },
    {
      "time": 97920,
      "track": 1,
      "noteNumber": 75,
      "velocity": 48,
      "ticks": 480
    },
    {
      "time": 98160,
      "track": 2,
      "noteNumber": 58,
      "velocity": 38,
      "ticks": 240
    },
    {
      "time": 98400,
      "track": 2,
      "noteNumber": 64,
      "velocity": 34,
      "ticks": 240
    },
    {
      "time": 98400,
      "track": 1,
      "noteNumber": 73,
      "velocity": 41,
      "ticks": 480
    },
    {
      "time": 98640,
      "track": 2,
      "noteNumber": 68,
      "velocity": 34,
      "ticks": 240
    },
    {
      "time": 98880,
      "track": 1,
      "noteNumber": 80,
      "velocity": 34,
      "ticks": 960
    },
    {
      "time": 98880,
      "track": 1,
      "noteNumber": 83,
      "velocity": 57,
      "ticks": 320
    },
    {
      "time": 98880,
      "track": 1,
      "noteNumber": 76,
      "velocity": 34,
      "ticks": 960
    },
    {
      "time": 99120,
      "track": 2,
      "noteNumber": 56,
      "velocity": 33,
      "ticks": 240
    },
    {
      "time": 99200,
      "track": 1,
      "noteNumber": 87,
      "velocity": 53,
      "ticks": 320
    },
    {
      "time": 99360,
      "track": 2,
      "noteNumber": 64,
      "velocity": 33,
      "ticks": 240
    },
    {
      "time": 99520,
      "track": 1,
      "noteNumber": 83,
      "velocity": 53,
      "ticks": 320
    },
    {
      "time": 99600,
      "track": 2,
      "noteNumber": 71,
      "velocity": 32,
      "ticks": 240
    },
    {
      "time": 99840,
      "track": 1,
      "noteNumber": 80,
      "velocity": 45,
      "ticks": 2880
    },
    {
      "time": 99840,
      "track": 1,
      "noteNumber": 76,
      "velocity": 45,
      "ticks": 2880
    },
    {
      "time": 99840,
      "track": 1,
      "noteNumber": 75,
      "velocity": 49,
      "ticks": 480
    },
    {
      "time": 100080,
      "track": 2,
      "noteNumber": 61,
      "velocity": 37,
      "ticks": 240
    },
    {
      "time": 100320,
      "track": 2,
      "noteNumber": 64,
      "velocity": 33,
      "ticks": 240
    },
    {
      "time": 100320,
      "track": 1,
      "noteNumber": 73,
      "velocity": 36,
      "ticks": 480
    },
    {
      "time": 100560,
      "track": 2,
      "noteNumber": 68,
      "velocity": 33,
      "ticks": 240
    },
    {
      "time": 100800,
      "track": 1,
      "noteNumber": 75,
      "velocity": 42,
      "ticks": 480
    },
    {
      "time": 101040,
      "track": 2,
      "noteNumber": 59,
      "velocity": 36,
      "ticks": 240
    },
    {
      "time": 101280,
      "track": 2,
      "noteNumber": 64,
      "velocity": 32,
      "ticks": 240
    },
    {
      "time": 101280,
      "track": 1,
      "noteNumber": 73,
      "velocity": 37,
      "ticks": 480
    },
    {
      "time": 101520,
      "track": 2,
      "noteNumber": 68,
      "velocity": 32,
      "ticks": 240
    },
    {
      "time": 101760,
      "track": 1,
      "noteNumber": 75,
      "velocity": 48,
      "ticks": 480
    },
    {
      "time": 102000,
      "track": 2,
      "noteNumber": 58,
      "velocity": 37,
      "ticks": 240
    },
    {
      "time": 102240,
      "track": 1,
      "noteNumber": 80,
      "velocity": 43,
      "ticks": 480
    },
    {
      "time": 102240,
      "track": 2,
      "noteNumber": 64,
      "velocity": 34,
      "ticks": 240
    },
    {
      "time": 102240,
      "track": 1,
      "noteNumber": 85,
      "velocity": 47,
      "ticks": 480
    },
    {
      "time": 102240,
      "track": 1,
      "noteNumber": 76,
      "velocity": 43,
      "ticks": 480
    },
    {
      "time": 102480,
      "track": 2,
      "noteNumber": 68,
      "velocity": 34,
      "ticks": 240
    },
    {
      "time": 102720,
      "track": 1,
      "noteNumber": 78,
      "velocity": 40,
      "ticks": 480
    },
    {
      "time": 102720,
      "track": 1,
      "noteNumber": 73,
      "velocity": 40,
      "ticks": 480
    },
    {
      "time": 102720,
      "track": 1,
      "noteNumber": 82,
      "velocity": 44,
      "ticks": 480
    },
    {
      "time": 102960,
      "track": 2,
      "noteNumber": 54,
      "velocity": 38,
      "ticks": 240
    },
    {
      "time": 103200,
      "track": 1,
      "noteNumber": 70,
      "velocity": 39,
      "ticks": 480
    },
    {
      "time": 103200,
      "track": 1,
      "noteNumber": 80,
      "velocity": 42,
      "ticks": 480
    },
    {
      "time": 103200,
      "track": 2,
      "noteNumber": 61,
      "velocity": 33,
      "ticks": 240
    },
    {
      "time": 103200,
      "track": 1,
      "noteNumber": 76,
      "velocity": 39,
      "ticks": 480
    },
    {
      "time": 103440,
      "track": 2,
      "noteNumber": 66,
      "velocity": 33,
      "ticks": 240
    },
    {
      "time": 103680,
      "track": 1,
      "noteNumber": 78,
      "velocity": 47,
      "ticks": 2880
    },
    {
      "time": 103680,
      "track": 1,
      "noteNumber": 74,
      "velocity": 47,
      "ticks": 2880
    },
    {
      "time": 103680,
      "track": 1,
      "noteNumber": 73,
      "velocity": 46,
      "ticks": 480
    },
    {
      "time": 103920,
      "track": 2,
      "noteNumber": 59,
      "velocity": 38,
      "ticks": 240
    },
    {
      "time": 104160,
      "track": 2,
      "noteNumber": 62,
      "velocity": 33,
      "ticks": 240
    },
    {
      "time": 104160,
      "track": 1,
      "noteNumber": 71,
      "velocity": 36,
      "ticks": 480
    },
    {
      "time": 104400,
      "track": 2,
      "noteNumber": 66,
      "velocity": 33,
      "ticks": 240
    },
    {
      "time": 104640,
      "track": 1,
      "noteNumber": 73,
      "velocity": 42,
      "ticks": 480
    },
    {
      "time": 104880,
      "track": 2,
      "noteNumber": 57,
      "velocity": 37,
      "ticks": 240
    },
    {
      "time": 105120,
      "track": 2,
      "noteNumber": 62,
      "velocity": 32,
      "ticks": 240
    },
    {
      "time": 105120,
      "track": 1,
      "noteNumber": 71,
      "velocity": 37,
      "ticks": 480
    },
    {
      "time": 105360,
      "track": 2,
      "noteNumber": 66,
      "velocity": 32,
      "ticks": 240
    },
    {
      "time": 105600,
      "track": 1,
      "noteNumber": 73,
      "velocity": 48,
      "ticks": 480
    },
    {
      "time": 105840,
      "track": 2,
      "noteNumber": 56,
      "velocity": 38,
      "ticks": 240
    },
    {
      "time": 106080,
      "track": 1,
      "noteNumber": 71,
      "velocity": 41,
      "ticks": 480
    },
    {
      "time": 106080,
      "track": 2,
      "noteNumber": 62,
      "velocity": 34,
      "ticks": 240
    },
    {
      "time": 106320,
      "track": 2,
      "noteNumber": 66,
      "velocity": 34,
      "ticks": 240
    },
    {
      "time": 106560,
      "track": 1,
      "noteNumber": 81,
      "velocity": 53,
      "ticks": 320
    },
    {
      "time": 106560,
      "track": 1,
      "noteNumber": 74,
      "velocity": 40,
      "ticks": 960
    },
    {
      "time": 106560,
      "track": 1,
      "noteNumber": 78,
      "velocity": 40,
      "ticks": 960
    },
    {
      "time": 106800,
      "track": 2,
      "noteNumber": 54,
      "velocity": 37,
      "ticks": 240
    },
    {
      "time": 106880,
      "track": 1,
      "noteNumber": 85,
      "velocity": 51,
      "ticks": 320
    },
    {
      "time": 107040,
      "track": 2,
      "noteNumber": 62,
      "velocity": 36,
      "ticks": 240
    },
    {
      "time": 107200,
      "track": 1,
      "noteNumber": 81,
      "velocity": 50,
      "ticks": 320
    },
    {
      "time": 107280,
      "track": 2,
      "noteNumber": 69,
      "velocity": 34,
      "ticks": 240
    },
    {
      "time": 107520,
      "track": 1,
      "noteNumber": 74,
      "velocity": 45,
      "ticks": 2880
    },
    {
      "time": 107520,
      "track": 1,
      "noteNumber": 73,
      "velocity": 46,
      "ticks": 480
    },
    {
      "time": 107520,
      "track": 1,
      "noteNumber": 78,
      "velocity": 45,
      "ticks": 2880
    },
    {
      "time": 107760,
      "track": 2,
      "noteNumber": 59,
      "velocity": 37,
      "ticks": 240
    },
    {
      "time": 108000,
      "track": 1,
      "noteNumber": 71,
      "velocity": 36,
      "ticks": 480
    },
    {
      "time": 108000,
      "track": 2,
      "noteNumber": 62,
      "velocity": 33,
      "ticks": 240
    },
    {
      "time": 108240,
      "track": 2,
      "noteNumber": 66,
      "velocity": 33,
      "ticks": 240
    },
    {
      "time": 108480,
      "track": 1,
      "noteNumber": 73,
      "velocity": 42,
      "ticks": 480
    },
    {
      "time": 108720,
      "track": 2,
      "noteNumber": 57,
      "velocity": 37,
      "ticks": 240
    },
    {
      "time": 108960,
      "track": 2,
      "noteNumber": 62,
      "velocity": 32,
      "ticks": 240
    },
    {
      "time": 108960,
      "track": 1,
      "noteNumber": 71,
      "velocity": 37,
      "ticks": 480
    },
    {
      "time": 109200,
      "track": 2,
      "noteNumber": 66,
      "velocity": 32,
      "ticks": 240
    },
    {
      "time": 109440,
      "track": 1,
      "noteNumber": 73,
      "velocity": 48,
      "ticks": 480
    },
    {
      "time": 109680,
      "track": 2,
      "noteNumber": 56,
      "velocity": 39,
      "ticks": 240
    },
    {
      "time": 109920,
      "track": 2,
      "noteNumber": 62,
      "velocity": 40,
      "ticks": 240
    },
    {
      "time": 109920,
      "track": 1,
      "noteNumber": 74,
      "velocity": 51,
      "ticks": 480
    },
    {
      "time": 109920,
      "track": 1,
      "noteNumber": 83,
      "velocity": 56,
      "ticks": 480
    },
    {
      "time": 109920,
      "track": 1,
      "noteNumber": 78,
      "velocity": 51,
      "ticks": 480
    },
    {
      "time": 110160,
      "track": 2,
      "noteNumber": 66,
      "velocity": 40,
      "ticks": 240
    },
    {
      "time": 110400,
      "track": 1,
      "noteNumber": 76,
      "velocity": 48,
      "ticks": 480
    },
    {
      "time": 110400,
      "track": 1,
      "noteNumber": 71,
      "velocity": 48,
      "ticks": 480
    },
    {
      "time": 110400,
      "track": 1,
      "noteNumber": 80,
      "velocity": 52,
      "ticks": 480
    },
    {
      "time": 110640,
      "track": 2,
      "noteNumber": 52,
      "velocity": 45,
      "ticks": 240
    },
    {
      "time": 110880,
      "track": 2,
      "noteNumber": 59,
      "velocity": 39,
      "ticks": 240
    },
    {
      "time": 110880,
      "track": 1,
      "noteNumber": 68,
      "velocity": 46,
      "ticks": 480
    },
    {
      "time": 110880,
      "track": 1,
      "noteNumber": 78,
      "velocity": 50,
      "ticks": 480
    },
    {
      "time": 110880,
      "track": 1,
      "noteNumber": 74,
      "velocity": 46,
      "ticks": 480
    },
    {
      "time": 111120,
      "track": 2,
      "noteNumber": 52,
      "velocity": 39,
      "ticks": 240
    },
    {
      "time": 111360,
      "track": 2,
      "noteNumber": 45,
      "velocity": 55,
      "ticks": 90
    },
    {
      "time": 111360,
      "track": 1,
      "noteNumber": 76,
      "velocity": 63,
      "ticks": 480
    },
    {
      "time": 111360,
      "track": 1,
      "noteNumber": 69,
      "velocity": 58,
      "ticks": 480
    },
    {
      "time": 111360,
      "track": 1,
      "noteNumber": 73,
      "velocity": 58,
      "ticks": 480
    },
    {
      "time": 111600,
      "track": 2,
      "noteNumber": 52,
      "velocity": 51,
      "ticks": 90
    },
    {
      "time": 111840,
      "track": 1,
      "noteNumber": 64,
      "velocity": 56,
      "ticks": 90
    },
    {
      "time": 111840,
      "track": 1,
      "noteNumber": 69,
      "velocity": 56,
      "ticks": 90
    },
    {
      "time": 111840,
      "track": 2,
      "noteNumber": 57,
      "velocity": 51,
      "ticks": 90
    },
    {
      "time": 111840,
      "track": 1,
      "noteNumber": 73,
      "velocity": 56,
      "ticks": 90
    },
    {
      "time": 112080,
      "track": 1,
      "noteNumber": 73,
      "velocity": 56,
      "ticks": 90
    },
    {
      "time": 112080,
      "track": 1,
      "noteNumber": 69,
      "velocity": 56,
      "ticks": 90
    },
    {
      "time": 112080,
      "track": 1,
      "noteNumber": 64,
      "velocity": 56,
      "ticks": 90
    },
    {
      "time": 112080,
      "track": 2,
      "noteNumber": 61,
      "velocity": 51,
      "ticks": 90
    },
    {
      "time": 112320,
      "track": 1,
      "noteNumber": 69,
      "velocity": 56,
      "ticks": 360
    },
    {
      "time": 112320,
      "track": 1,
      "noteNumber": 73,
      "velocity": 56,
      "ticks": 360
    },
    {
      "time": 112320,
      "track": 1,
      "noteNumber": 64,
      "velocity": 56,
      "ticks": 360
    },
    {
      "time": 112320,
      "track": 2,
      "noteNumber": 61,
      "velocity": 55,
      "ticks": 90
    },
    {
      "time": 112560,
      "track": 2,
      "noteNumber": 57,
      "velocity": 50,
      "ticks": 90
    },
    {
      "time": 112800,
      "track": 2,
      "noteNumber": 52,
      "velocity": 50,
      "ticks": 90
    },
    {
      "time": 112800,
      "track": 1,
      "noteNumber": 76,
      "velocity": 58,
      "ticks": 480
    },
    {
      "time": 112800,
      "track": 1,
      "noteNumber": 73,
      "velocity": 58,
      "ticks": 480
    },
    {
      "time": 112800,
      "track": 1,
      "noteNumber": 69,
      "velocity": 58,
      "ticks": 480
    },
    {
      "time": 113040,
      "track": 2,
      "noteNumber": 45,
      "velocity": 50,
      "ticks": 90
    },
    {
      "time": 113280,
      "track": 2,
      "noteNumber": 42,
      "velocity": 60,
      "ticks": 90
    },
    {
      "time": 113280,
      "track": 1,
      "noteNumber": 69,
      "velocity": 58,
      "ticks": 480
    },
    {
      "time": 113280,
      "track": 1,
      "noteNumber": 78,
      "velocity": 58,
      "ticks": 480
    },
    {
      "time": 113280,
      "track": 1,
      "noteNumber": 73,
      "velocity": 58,
      "ticks": 480
    },
    {
      "time": 113520,
      "track": 2,
      "noteNumber": 49,
      "velocity": 54,
      "ticks": 90
    },
    {
      "time": 113760,
      "track": 1,
      "noteNumber": 73,
      "velocity": 54,
      "ticks": 180
    },
    {
      "time": 113760,
      "track": 2,
      "noteNumber": 54,
      "velocity": 56,
      "ticks": 90
    },
    {
      "time": 113760,
      "track": 1,
      "noteNumber": 69,
      "velocity": 54,
      "ticks": 180
    },
    {
      "time": 113760,
      "track": 1,
      "noteNumber": 78,
      "velocity": 54,
      "ticks": 180
    },
    {
      "time": 114000,
      "track": 2,
      "noteNumber": 61,
      "velocity": 54,
      "ticks": 90
    },
    {
      "time": 114000,
      "track": 1,
      "noteNumber": 80,
      "velocity": 54,
      "ticks": 180
    },
    {
      "time": 114000,
      "track": 1,
      "noteNumber": 71,
      "velocity": 54,
      "ticks": 180
    },
    {
      "time": 114000,
      "track": 1,
      "noteNumber": 73,
      "velocity": 54,
      "ticks": 180
    },
    {
      "time": 114240,
      "track": 1,
      "noteNumber": 78,
      "velocity": 54,
      "ticks": 180
    },
    {
      "time": 114240,
      "track": 2,
      "noteNumber": 61,
      "velocity": 60,
      "ticks": 90
    },
    {
      "time": 114240,
      "track": 1,
      "noteNumber": 69,
      "velocity": 54,
      "ticks": 180
    },
    {
      "time": 114240,
      "track": 1,
      "noteNumber": 73,
      "velocity": 54,
      "ticks": 180
    },
    {
      "time": 114480,
      "track": 2,
      "noteNumber": 54,
      "velocity": 55,
      "ticks": 90
    },
    {
      "time": 114480,
      "track": 1,
      "noteNumber": 73,
      "velocity": 54,
      "ticks": 180
    },
    {
      "time": 114480,
      "track": 1,
      "noteNumber": 71,
      "velocity": 54,
      "ticks": 180
    },
    {
      "time": 114480,
      "track": 1,
      "noteNumber": 80,
      "velocity": 54,
      "ticks": 180
    },
    {
      "time": 114720,
      "track": 2,
      "noteNumber": 49,
      "velocity": 57,
      "ticks": 90
    },
    {
      "time": 114720,
      "track": 1,
      "noteNumber": 73,
      "velocity": 57,
      "ticks": 480
    },
    {
      "time": 114720,
      "track": 1,
      "noteNumber": 78,
      "velocity": 57,
      "ticks": 480
    },
    {
      "time": 114720,
      "track": 1,
      "noteNumber": 69,
      "velocity": 57,
      "ticks": 480
    },
    {
      "time": 114960,
      "track": 2,
      "noteNumber": 42,
      "velocity": 55,
      "ticks": 90
    },
    {
      "time": 115200,
      "track": 2,
      "noteNumber": 45,
      "velocity": 55,
      "ticks": 90
    },
    {
      "time": 115200,
      "track": 1,
      "noteNumber": 76,
      "velocity": 62,
      "ticks": 480
    },
    {
      "time": 115200,
      "track": 1,
      "noteNumber": 69,
      "velocity": 62,
      "ticks": 480
    },
    {
      "time": 115200,
      "track": 1,
      "noteNumber": 73,
      "velocity": 62,
      "ticks": 480
    },
    {
      "time": 115440,
      "track": 2,
      "noteNumber": 52,
      "velocity": 51,
      "ticks": 90
    },
    {
      "time": 115680,
      "track": 2,
      "noteNumber": 57,
      "velocity": 51,
      "ticks": 90
    },
    {
      "time": 115680,
      "track": 1,
      "noteNumber": 69,
      "velocity": 56,
      "ticks": 90
    },
    {
      "time": 115680,
      "track": 1,
      "noteNumber": 68,
      "velocity": 56,
      "ticks": 90
    },
    {
      "time": 115680,
      "track": 1,
      "noteNumber": 73,
      "velocity": 56,
      "ticks": 90
    },
    {
      "time": 115920,
      "track": 2,
      "noteNumber": 61,
      "velocity": 51,
      "ticks": 90
    },
    {
      "time": 115920,
      "track": 1,
      "noteNumber": 68,
      "velocity": 56,
      "ticks": 90
    },
    {
      "time": 115920,
      "track": 1,
      "noteNumber": 69,
      "velocity": 56,
      "ticks": 90
    },
    {
      "time": 115920,
      "track": 1,
      "noteNumber": 73,
      "velocity": 56,
      "ticks": 90
    },
    {
      "time": 116160,
      "track": 1,
      "noteNumber": 73,
      "velocity": 56,
      "ticks": 360
    },
    {
      "time": 116160,
      "track": 1,
      "noteNumber": 69,
      "velocity": 56,
      "ticks": 360
    },
    {
      "time": 116160,
      "track": 1,
      "noteNumber": 66,
      "velocity": 56,
      "ticks": 360
    },
    {
      "time": 116160,
      "track": 2,
      "noteNumber": 61,
      "velocity": 57,
      "ticks": 90
    },
    {
      "time": 116400,
      "track": 2,
      "noteNumber": 57,
      "velocity": 52,
      "ticks": 90
    },
    {
      "time": 116640,
      "track": 1,
      "noteNumber": 69,
      "velocity": 61,
      "ticks": 480
    },
    {
      "time": 116640,
      "track": 1,
      "noteNumber": 64,
      "velocity": 61,
      "ticks": 480
    },
    {
      "time": 116640,
      "track": 1,
      "noteNumber": 66,
      "velocity": 61,
      "ticks": 480
    },
    {
      "time": 116640,
      "track": 2,
      "noteNumber": 52,
      "velocity": 57,
      "ticks": 90
    },
    {
      "time": 116880,
      "track": 2,
      "noteNumber": 45,
      "velocity": 54,
      "ticks": 90
    },
    {
      "time": 117120,
      "track": 1,
      "noteNumber": 62,
      "velocity": 64,
      "ticks": 1920
    },
    {
      "time": 117120,
      "track": 1,
      "noteNumber": 69,
      "velocity": 64,
      "ticks": 1920
    },
    {
      "time": 117120,
      "track": 2,
      "noteNumber": 38,
      "velocity": 60,
      "ticks": 90
    },
    {
      "time": 117120,
      "track": 1,
      "noteNumber": 73,
      "velocity": 64,
      "ticks": 1920
    },
    {
      "time": 117120,
      "track": 1,
      "noteNumber": 66,
      "velocity": 64,
      "ticks": 1920
    },
    {
      "time": 117360,
      "track": 2,
      "noteNumber": 45,
      "velocity": 55,
      "ticks": 90
    },
    {
      "time": 117600,
      "track": 2,
      "noteNumber": 50,
      "velocity": 57,
      "ticks": 90
    },
    {
      "time": 117840,
      "track": 2,
      "noteNumber": 54,
      "velocity": 55,
      "ticks": 90
    },
    {
      "time": 118080,
      "track": 2,
      "noteNumber": 54,
      "velocity": 60,
      "ticks": 90
    },
    {
      "time": 118320,
      "track": 2,
      "noteNumber": 50,
      "velocity": 56,
      "ticks": 90
    },
    {
      "time": 118560,
      "track": 2,
      "noteNumber": 45,
      "velocity": 58,
      "ticks": 90
    },
    {
      "time": 118800,
      "track": 2,
      "noteNumber": 38,
      "velocity": 56,
      "ticks": 90
    },
    {
      "time": 119040,
      "track": 1,
      "noteNumber": 71,
      "velocity": 30,
      "ticks": 480
    },
    {
      "time": 119040,
      "track": 2,
      "noteNumber": 43,
      "velocity": 29,
      "ticks": 90
    },
    {
      "time": 119040,
      "track": 1,
      "noteNumber": 67,
      "velocity": 30,
      "ticks": 480
    },
    {
      "time": 119040,
      "track": 1,
      "noteNumber": 62,
      "velocity": 30,
      "ticks": 480
    },
    {
      "time": 119280,
      "track": 2,
      "noteNumber": 50,
      "velocity": 27,
      "ticks": 90
    },
    {
      "time": 119520,
      "track": 1,
      "noteNumber": 59,
      "velocity": 29,
      "ticks": 90
    },
    {
      "time": 119520,
      "track": 2,
      "noteNumber": 55,
      "velocity": 27,
      "ticks": 90
    },
    {
      "time": 119520,
      "track": 1,
      "noteNumber": 62,
      "velocity": 29,
      "ticks": 90
    },
    {
      "time": 119520,
      "track": 1,
      "noteNumber": 67,
      "velocity": 29,
      "ticks": 90
    },
    {
      "time": 119760,
      "track": 2,
      "noteNumber": 50,
      "velocity": 27,
      "ticks": 90
    },
    {
      "time": 119760,
      "track": 1,
      "noteNumber": 67,
      "velocity": 29,
      "ticks": 90
    },
    {
      "time": 119760,
      "track": 1,
      "noteNumber": 59,
      "velocity": 29,
      "ticks": 90
    },
    {
      "time": 119760,
      "track": 1,
      "noteNumber": 62,
      "velocity": 29,
      "ticks": 90
    },
    {
      "time": 120000,
      "track": 1,
      "noteNumber": 62,
      "velocity": 29,
      "ticks": 240
    },
    {
      "time": 120000,
      "track": 2,
      "noteNumber": 43,
      "velocity": 29,
      "ticks": 90
    },
    {
      "time": 120000,
      "track": 1,
      "noteNumber": 59,
      "velocity": 29,
      "ticks": 240
    },
    {
      "time": 120000,
      "track": 1,
      "noteNumber": 67,
      "velocity": 29,
      "ticks": 240
    },
    {
      "time": 120240,
      "track": 2,
      "noteNumber": 50,
      "velocity": 26,
      "ticks": 90
    },
    {
      "time": 120480,
      "track": 2,
      "noteNumber": 55,
      "velocity": 26,
      "ticks": 90
    },
    {
      "time": 120480,
      "track": 1,
      "noteNumber": 67,
      "velocity": 30,
      "ticks": 360
    },
    {
      "time": 120480,
      "track": 1,
      "noteNumber": 71,
      "velocity": 30,
      "ticks": 360
    },
    {
      "time": 120480,
      "track": 1,
      "noteNumber": 62,
      "velocity": 30,
      "ticks": 360
    },
    {
      "time": 120720,
      "track": 2,
      "noteNumber": 50,
      "velocity": 26,
      "ticks": 90
    },
    {
      "time": 120960,
      "track": 1,
      "noteNumber": 69,
      "velocity": 30,
      "ticks": 480
    },
    {
      "time": 120960,
      "track": 2,
      "noteNumber": 38,
      "velocity": 29,
      "ticks": 90
    },
    {
      "time": 120960,
      "track": 1,
      "noteNumber": 60,
      "velocity": 30,
      "ticks": 480
    },
    {
      "time": 120960,
      "track": 1,
      "noteNumber": 65,
      "velocity": 30,
      "ticks": 480
    },
    {
      "time": 121200,
      "track": 2,
      "noteNumber": 45,
      "velocity": 27,
      "ticks": 90
    },
    {
      "time": 121440,
      "track": 2,
      "noteNumber": 53,
      "velocity": 27,
      "ticks": 90
    },
    {
      "time": 121440,
      "track": 1,
      "noteNumber": 69,
      "velocity": 28,
      "ticks": 120
    },
    {
      "time": 121440,
      "track": 1,
      "noteNumber": 60,
      "velocity": 28,
      "ticks": 120
    },
    {
      "time": 121440,
      "track": 1,
      "noteNumber": 65,
      "velocity": 28,
      "ticks": 120
    },
    {
      "time": 121680,
      "track": 1,
      "noteNumber": 65,
      "velocity": 28,
      "ticks": 120
    },
    {
      "time": 121680,
      "track": 1,
      "noteNumber": 62,
      "velocity": 28,
      "ticks": 120
    },
    {
      "time": 121680,
      "track": 1,
      "noteNumber": 71,
      "velocity": 28,
      "ticks": 120
    },
    {
      "time": 121680,
      "track": 2,
      "noteNumber": 45,
      "velocity": 27,
      "ticks": 90
    },
    {
      "time": 121920,
      "track": 1,
      "noteNumber": 65,
      "velocity": 28,
      "ticks": 120
    },
    {
      "time": 121920,
      "track": 1,
      "noteNumber": 69,
      "velocity": 28,
      "ticks": 120
    },
    {
      "time": 121920,
      "track": 2,
      "noteNumber": 41,
      "velocity": 29,
      "ticks": 90
    },
    {
      "time": 121920,
      "track": 1,
      "noteNumber": 60,
      "velocity": 28,
      "ticks": 120
    },
    {
      "time": 122160,
      "track": 2,
      "noteNumber": 48,
      "velocity": 27,
      "ticks": 90
    },
    {
      "time": 122160,
      "track": 1,
      "noteNumber": 62,
      "velocity": 28,
      "ticks": 120
    },
    {
      "time": 122160,
      "track": 1,
      "noteNumber": 71,
      "velocity": 28,
      "ticks": 120
    },
    {
      "time": 122160,
      "track": 1,
      "noteNumber": 65,
      "velocity": 28,
      "ticks": 120
    },
    {
      "time": 122400,
      "track": 1,
      "noteNumber": 65,
      "velocity": 30,
      "ticks": 240
    },
    {
      "time": 122400,
      "track": 1,
      "noteNumber": 72,
      "velocity": 30,
      "ticks": 240
    },
    {
      "time": 122400,
      "track": 1,
      "noteNumber": 64,
      "velocity": 30,
      "ticks": 240
    },
    {
      "time": 122400,
      "track": 2,
      "noteNumber": 57,
      "velocity": 27,
      "ticks": 90
    },
    {
      "time": 122640,
      "track": 2,
      "noteNumber": 48,
      "velocity": 27,
      "ticks": 90
    },
    {
      "time": 122880,
      "track": 1,
      "noteNumber": 67,
      "velocity": 31,
      "ticks": 480
    },
    {
      "time": 122880,
      "track": 1,
      "noteNumber": 71,
      "velocity": 31,
      "ticks": 480
    },
    {
      "time": 122880,
      "track": 2,
      "noteNumber": 43,
      "velocity": 29,
      "ticks": 90
    },
    {
      "time": 122880,
      "track": 1,
      "noteNumber": 62,
      "velocity": 31,
      "ticks": 480
    },
    {
      "time": 123120,
      "track": 2,
      "noteNumber": 50,
      "velocity": 27,
      "ticks": 90
    },
    {
      "time": 123360,
      "track": 2,
      "noteNumber": 55,
      "velocity": 27,
      "ticks": 90
    },
    {
      "time": 123360,
      "track": 1,
      "noteNumber": 62,
      "velocity": 28,
      "ticks": 90
    },
    {
      "time": 123360,
      "track": 1,
      "noteNumber": 59,
      "velocity": 28,
      "ticks": 90
    },
    {
      "time": 123360,
      "track": 1,
      "noteNumber": 67,
      "velocity": 28,
      "ticks": 90
    },
    {
      "time": 123600,
      "track": 1,
      "noteNumber": 62,
      "velocity": 28,
      "ticks": 90
    },
    {
      "time": 123600,
      "track": 2,
      "noteNumber": 50,
      "velocity": 27,
      "ticks": 90
    },
    {
      "time": 123600,
      "track": 1,
      "noteNumber": 59,
      "velocity": 28,
      "ticks": 90
    },
    {
      "time": 123600,
      "track": 1,
      "noteNumber": 67,
      "velocity": 28,
      "ticks": 90
    },
    {
      "time": 123840,
      "track": 1,
      "noteNumber": 62,
      "velocity": 29,
      "ticks": 360
    },
    {
      "time": 123840,
      "track": 1,
      "noteNumber": 67,
      "velocity": 29,
      "ticks": 360
    },
    {
      "time": 123840,
      "track": 1,
      "noteNumber": 59,
      "velocity": 29,
      "ticks": 360
    },
    {
      "time": 123840,
      "track": 2,
      "noteNumber": 41,
      "velocity": 30,
      "ticks": 90
    },
    {
      "time": 124080,
      "track": 2,
      "noteNumber": 50,
      "velocity": 28,
      "ticks": 90
    },
    {
      "time": 124320,
      "track": 1,
      "noteNumber": 67,
      "velocity": 32,
      "ticks": 480
    },
    {
      "time": 124320,
      "track": 1,
      "noteNumber": 62,
      "velocity": 32,
      "ticks": 480
    },
    {
      "time": 124320,
      "track": 1,
      "noteNumber": 71,
      "velocity": 32,
      "ticks": 480
    },
    {
      "time": 124320,
      "track": 2,
      "noteNumber": 55,
      "velocity": 29,
      "ticks": 90
    },
    {
      "time": 124560,
      "track": 2,
      "noteNumber": 50,
      "velocity": 31,
      "ticks": 90
    },
    {
      "time": 124800,
      "track": 2,
      "noteNumber": 40,
      "velocity": 35,
      "ticks": 240
    },
    {
      "time": 124800,
      "track": 1,
      "noteNumber": 71,
      "velocity": 35,
      "ticks": 960
    },
    {
      "time": 124800,
      "track": 1,
      "noteNumber": 68,
      "velocity": 35,
      "ticks": 960
    },
    {
      "time": 124800,
      "track": 1,
      "noteNumber": 64,
      "velocity": 35,
      "ticks": 960
    },
    {
      "time": 125040,
      "track": 2,
      "noteNumber": 47,
      "velocity": 39,
      "ticks": 240
    },
    {
      "time": 125280,
      "track": 2,
      "noteNumber": 52,
      "velocity": 40,
      "ticks": 240
    },
    {
      "time": 125520,
      "track": 2,
      "noteNumber": 56,
      "velocity": 41,
      "ticks": 180
    },
    {
      "time": 125760,
      "track": 2,
      "noteNumber": 52,
      "velocity": 46,
      "ticks": 240
    },
    {
      "time": 125760,
      "track": 1,
      "noteNumber": 64,
      "velocity": 48,
      "ticks": 718
    },
    {
      "time": 126000,
      "track": 2,
      "noteNumber": 56,
      "velocity": 50,
      "ticks": 240
    },
    {
      "time": 126240,
      "track": 2,
      "noteNumber": 59,
      "velocity": 54,
      "ticks": 240
    },
    {
      "time": 126480,
      "track": 2,
      "noteNumber": 64,
      "velocity": 57,
      "ticks": 240
    },
    {
      "time": 126720,
      "track": 2,
      "noteNumber": 57,
      "velocity": 60,
      "ticks": 90
    },
    {
      "time": 126720,
      "track": 1,
      "noteNumber": 76,
      "velocity": 63,
      "ticks": 480
    },
    {
      "time": 126720,
      "track": 1,
      "noteNumber": 73,
      "velocity": 63,
      "ticks": 480
    },
    {
      "time": 126720,
      "track": 1,
      "noteNumber": 69,
      "velocity": 63,
      "ticks": 480
    },
    {
      "time": 126960,
      "track": 2,
      "noteNumber": 61,
      "velocity": 56,
      "ticks": 90
    },
    {
      "time": 127200,
      "track": 1,
      "noteNumber": 73,
      "velocity": 61,
      "ticks": 90
    },
    {
      "time": 127200,
      "track": 2,
      "noteNumber": 64,
      "velocity": 56,
      "ticks": 90
    },
    {
      "time": 127200,
      "track": 1,
      "noteNumber": 69,
      "velocity": 61,
      "ticks": 90
    },
    {
      "time": 127440,
      "track": 1,
      "noteNumber": 73,
      "velocity": 61,
      "ticks": 90
    },
    {
      "time": 127440,
      "track": 1,
      "noteNumber": 69,
      "velocity": 61,
      "ticks": 90
    },
    {
      "time": 127440,
      "track": 2,
      "noteNumber": 61,
      "velocity": 56,
      "ticks": 90
    },
    {
      "time": 127680,
      "track": 2,
      "noteNumber": 56,
      "velocity": 60,
      "ticks": 90
    },
    {
      "time": 127680,
      "track": 1,
      "noteNumber": 73,
      "velocity": 61,
      "ticks": 360
    },
    {
      "time": 127680,
      "track": 1,
      "noteNumber": 69,
      "velocity": 61,
      "ticks": 360
    },
    {
      "time": 127920,
      "track": 2,
      "noteNumber": 61,
      "velocity": 55,
      "ticks": 90
    },
    {
      "time": 128160,
      "track": 1,
      "noteNumber": 69,
      "velocity": 63,
      "ticks": 480
    },
    {
      "time": 128160,
      "track": 1,
      "noteNumber": 76,
      "velocity": 63,
      "ticks": 480
    },
    {
      "time": 128160,
      "track": 2,
      "noteNumber": 64,
      "velocity": 55,
      "ticks": 90
    },
    {
      "time": 128160,
      "track": 1,
      "noteNumber": 73,
      "velocity": 63,
      "ticks": 480
    },
    {
      "time": 128400,
      "track": 2,
      "noteNumber": 61,
      "velocity": 55,
      "ticks": 90
    },
    {
      "time": 128640,
      "track": 1,
      "noteNumber": 73,
      "velocity": 63,
      "ticks": 480
    },
    {
      "time": 128640,
      "track": 1,
      "noteNumber": 69,
      "velocity": 63,
      "ticks": 480
    },
    {
      "time": 128640,
      "track": 1,
      "noteNumber": 78,
      "velocity": 63,
      "ticks": 480
    },
    {
      "time": 128640,
      "track": 2,
      "noteNumber": 54,
      "velocity": 66,
      "ticks": 90
    },
    {
      "time": 128880,
      "track": 2,
      "noteNumber": 61,
      "velocity": 58,
      "ticks": 90
    },
    {
      "time": 129120,
      "track": 1,
      "noteNumber": 78,
      "velocity": 56,
      "ticks": 180
    },
    {
      "time": 129120,
      "track": 2,
      "noteNumber": 66,
      "velocity": 61,
      "ticks": 90
    },
    {
      "time": 129120,
      "track": 1,
      "noteNumber": 73,
      "velocity": 56,
      "ticks": 180
    },
    {
      "time": 129120,
      "track": 1,
      "noteNumber": 69,
      "velocity": 56,
      "ticks": 180
    },
    {
      "time": 129360,
      "track": 1,
      "noteNumber": 80,
      "velocity": 56,
      "ticks": 180
    },
    {
      "time": 129360,
      "track": 1,
      "noteNumber": 71,
      "velocity": 56,
      "ticks": 180
    },
    {
      "time": 129360,
      "track": 1,
      "noteNumber": 73,
      "velocity": 56,
      "ticks": 180
    },
    {
      "time": 129360,
      "track": 2,
      "noteNumber": 61,
      "velocity": 58,
      "ticks": 90
    },
    {
      "time": 129600,
      "track": 2,
      "noteNumber": 54,
      "velocity": 66,
      "ticks": 90
    },
    {
      "time": 129600,
      "track": 1,
      "noteNumber": 74,
      "velocity": 58,
      "ticks": 180
    },
    {
      "time": 129600,
      "track": 1,
      "noteNumber": 69,
      "velocity": 58,
      "ticks": 180
    },
    {
      "time": 129600,
      "track": 1,
      "noteNumber": 78,
      "velocity": 58,
      "ticks": 180
    },
    {
      "time": 129840,
      "track": 1,
      "noteNumber": 74,
      "velocity": 57,
      "ticks": 180
    },
    {
      "time": 129840,
      "track": 1,
      "noteNumber": 69,
      "velocity": 57,
      "ticks": 180
    },
    {
      "time": 129840,
      "track": 1,
      "noteNumber": 80,
      "velocity": 57,
      "ticks": 180
    },
    {
      "time": 129840,
      "track": 2,
      "noteNumber": 57,
      "velocity": 60,
      "ticks": 90
    },
    {
      "time": 130080,
      "track": 1,
      "noteNumber": 69,
      "velocity": 61,
      "ticks": 480
    },
    {
      "time": 130080,
      "track": 2,
      "noteNumber": 66,
      "velocity": 62,
      "ticks": 90
    },
    {
      "time": 130080,
      "track": 1,
      "noteNumber": 74,
      "velocity": 61,
      "ticks": 480
    },
    {
      "time": 130080,
      "track": 1,
      "noteNumber": 78,
      "velocity": 61,
      "ticks": 480
    },
    {
      "time": 130320,
      "track": 2,
      "noteNumber": 57,
      "velocity": 60,
      "ticks": 90
    },
    {
      "time": 130560,
      "track": 1,
      "noteNumber": 73,
      "velocity": 68,
      "ticks": 480
    },
    {
      "time": 130560,
      "track": 1,
      "noteNumber": 76,
      "velocity": 68,
      "ticks": 480
    },
    {
      "time": 130560,
      "track": 2,
      "noteNumber": 45,
      "velocity": 60,
      "ticks": 90
    },
    {
      "time": 130560,
      "track": 1,
      "noteNumber": 69,
      "velocity": 68,
      "ticks": 480
    },
    {
      "time": 130800,
      "track": 2,
      "noteNumber": 52,
      "velocity": 56,
      "ticks": 90
    },
    {
      "time": 131040,
      "track": 1,
      "noteNumber": 69,
      "velocity": 61,
      "ticks": 90
    },
    {
      "time": 131040,
      "track": 1,
      "noteNumber": 73,
      "velocity": 61,
      "ticks": 90
    },
    {
      "time": 131040,
      "track": 1,
      "noteNumber": 68,
      "velocity": 61,
      "ticks": 90
    },
    {
      "time": 131040,
      "track": 2,
      "noteNumber": 61,
      "velocity": 56,
      "ticks": 90
    },
    {
      "time": 131280,
      "track": 1,
      "noteNumber": 73,
      "velocity": 61,
      "ticks": 90
    },
    {
      "time": 131280,
      "track": 1,
      "noteNumber": 68,
      "velocity": 61,
      "ticks": 90
    },
    {
      "time": 131280,
      "track": 1,
      "noteNumber": 69,
      "velocity": 61,
      "ticks": 90
    },
    {
      "time": 131280,
      "track": 2,
      "noteNumber": 52,
      "velocity": 56,
      "ticks": 90
    },
    {
      "time": 131520,
      "track": 1,
      "noteNumber": 69,
      "velocity": 61,
      "ticks": 360
    },
    {
      "time": 131520,
      "track": 2,
      "noteNumber": 42,
      "velocity": 62,
      "ticks": 90
    },
    {
      "time": 131520,
      "track": 1,
      "noteNumber": 73,
      "velocity": 61,
      "ticks": 360
    },
    {
      "time": 131520,
      "track": 1,
      "noteNumber": 66,
      "velocity": 61,
      "ticks": 360
    },
    {
      "time": 131760,
      "track": 2,
      "noteNumber": 49,
      "velocity": 57,
      "ticks": 90
    },
    {
      "time": 132000,
      "track": 2,
      "noteNumber": 57,
      "velocity": 62,
      "ticks": 90
    },
    {
      "time": 132000,
      "track": 1,
      "noteNumber": 66,
      "velocity": 63,
      "ticks": 480
    },
    {
      "time": 132000,
      "track": 1,
      "noteNumber": 64,
      "velocity": 63,
      "ticks": 480
    },
    {
      "time": 132000,
      "track": 1,
      "noteNumber": 69,
      "velocity": 63,
      "ticks": 480
    },
    {
      "time": 132240,
      "track": 2,
      "noteNumber": 49,
      "velocity": 58,
      "ticks": 90
    },
    {
      "time": 132480,
      "track": 1,
      "noteNumber": 73,
      "velocity": 67,
      "ticks": 2400
    },
    {
      "time": 132480,
      "track": 1,
      "noteNumber": 69,
      "velocity": 67,
      "ticks": 2400
    },
    {
      "time": 132480,
      "track": 1,
      "noteNumber": 66,
      "velocity": 67,
      "ticks": 2400
    },
    {
      "time": 132480,
      "track": 2,
      "noteNumber": 35,
      "velocity": 63,
      "ticks": 90
    },
    {
      "time": 132480,
      "track": 1,
      "noteNumber": 63,
      "velocity": 67,
      "ticks": 2400
    },
    {
      "time": 132720,
      "track": 2,
      "noteNumber": 42,
      "velocity": 57,
      "ticks": 90
    },
    {
      "time": 132960,
      "track": 2,
      "noteNumber": 47,
      "velocity": 61,
      "ticks": 90
    },
    {
      "time": 133200,
      "track": 2,
      "noteNumber": 42,
      "velocity": 57,
      "ticks": 90
    },
    {
      "time": 133440,
      "track": 2,
      "noteNumber": 42,
      "velocity": 62,
      "ticks": 90
    },
    {
      "time": 133680,
      "track": 2,
      "noteNumber": 47,
      "velocity": 57,
      "ticks": 90
    },
    {
      "time": 133920,
      "track": 2,
      "noteNumber": 54,
      "velocity": 61,
      "ticks": 90
    },
    {
      "time": 134160,
      "track": 2,
      "noteNumber": 47,
      "velocity": 57,
      "ticks": 90
    },
    {
      "time": 134400,
      "track": 2,
      "noteNumber": 47,
      "velocity": 54,
      "ticks": 90
    },
    {
      "time": 134640,
      "track": 2,
      "noteNumber": 54,
      "velocity": 44,
      "ticks": 90
    },
    {
      "time": 134880,
      "track": 2,
      "noteNumber": 59,
      "velocity": 44,
      "ticks": 90
    },
    {
      "time": 134880,
      "track": 1,
      "noteNumber": 66,
      "velocity": 51,
      "ticks": 120
    },
    {
      "time": 134880,
      "track": 1,
      "noteNumber": 69,
      "velocity": 51,
      "ticks": 120
    },
    {
      "time": 134880,
      "track": 1,
      "noteNumber": 61,
      "velocity": 51,
      "ticks": 120
    },
    {
      "time": 135120,
      "track": 1,
      "noteNumber": 61,
      "velocity": 51,
      "ticks": 120
    },
    {
      "time": 135120,
      "track": 1,
      "noteNumber": 69,
      "velocity": 51,
      "ticks": 120
    },
    {
      "time": 135120,
      "track": 2,
      "noteNumber": 54,
      "velocity": 44,
      "ticks": 90
    },
    {
      "time": 135120,
      "track": 1,
      "noteNumber": 66,
      "velocity": 51,
      "ticks": 120
    },
    {
      "time": 135360,
      "track": 1,
      "noteNumber": 59,
      "velocity": 51,
      "ticks": 360
    },
    {
      "time": 135360,
      "track": 2,
      "noteNumber": 42,
      "velocity": 51,
      "ticks": 90
    },
    {
      "time": 135360,
      "track": 1,
      "noteNumber": 63,
      "velocity": 51,
      "ticks": 360
    },
    {
      "time": 135360,
      "track": 1,
      "noteNumber": 66,
      "velocity": 51,
      "ticks": 360
    },
    {
      "time": 135600,
      "track": 2,
      "noteNumber": 49,
      "velocity": 45,
      "ticks": 90
    },
    {
      "time": 135840,
      "track": 1,
      "noteNumber": 69,
      "velocity": 54,
      "ticks": 360
    },
    {
      "time": 135840,
      "track": 1,
      "noteNumber": 64,
      "velocity": 54,
      "ticks": 360
    },
    {
      "time": 135840,
      "track": 2,
      "noteNumber": 54,
      "velocity": 45,
      "ticks": 90
    },
    {
      "time": 135840,
      "track": 1,
      "noteNumber": 66,
      "velocity": 54,
      "ticks": 360
    },
    {
      "time": 136080,
      "track": 2,
      "noteNumber": 49,
      "velocity": 45,
      "ticks": 90
    },
    {
      "time": 136320,
      "track": 1,
      "noteNumber": 69,
      "velocity": 56,
      "ticks": 480
    },
    {
      "time": 136320,
      "track": 2,
      "noteNumber": 47,
      "velocity": 55,
      "ticks": 90
    },
    {
      "time": 136320,
      "track": 1,
      "noteNumber": 63,
      "velocity": 56,
      "ticks": 480
    },
    {
      "time": 136320,
      "track": 1,
      "noteNumber": 73,
      "velocity": 56,
      "ticks": 480
    },
    {
      "time": 136560,
      "track": 2,
      "noteNumber": 54,
      "velocity": 50,
      "ticks": 90
    },
    {
      "time": 136800,
      "track": 1,
      "noteNumber": 66,
      "velocity": 54,
      "ticks": 120
    },
    {
      "time": 136800,
      "track": 1,
      "noteNumber": 69,
      "velocity": 54,
      "ticks": 120
    },
    {
      "time": 136800,
      "track": 1,
      "noteNumber": 61,
      "velocity": 54,
      "ticks": 120
    },
    {
      "time": 136800,
      "track": 2,
      "noteNumber": 59,
      "velocity": 50,
      "ticks": 90
    },
    {
      "time": 137040,
      "track": 1,
      "noteNumber": 66,
      "velocity": 54,
      "ticks": 120
    },
    {
      "time": 137040,
      "track": 1,
      "noteNumber": 61,
      "velocity": 54,
      "ticks": 120
    },
    {
      "time": 137040,
      "track": 1,
      "noteNumber": 69,
      "velocity": 54,
      "ticks": 120
    },
    {
      "time": 137040,
      "track": 2,
      "noteNumber": 54,
      "velocity": 50,
      "ticks": 90
    },
    {
      "time": 137280,
      "track": 1,
      "noteNumber": 66,
      "velocity": 56,
      "ticks": 360
    },
    {
      "time": 137280,
      "track": 1,
      "noteNumber": 63,
      "velocity": 56,
      "ticks": 360
    },
    {
      "time": 137280,
      "track": 1,
      "noteNumber": 59,
      "velocity": 56,
      "ticks": 360
    },
    {
      "time": 137280,
      "track": 2,
      "noteNumber": 42,
      "velocity": 56,
      "ticks": 90
    },
    {
      "time": 137520,
      "track": 2,
      "noteNumber": 49,
      "velocity": 52,
      "ticks": 90
    },
    {
      "time": 137760,
      "track": 2,
      "noteNumber": 54,
      "velocity": 52,
      "ticks": 90
    },
    {
      "time": 137760,
      "track": 1,
      "noteNumber": 69,
      "velocity": 58,
      "ticks": 360
    },
    {
      "time": 137760,
      "track": 1,
      "noteNumber": 64,
      "velocity": 58,
      "ticks": 360
    },
    {
      "time": 137760,
      "track": 1,
      "noteNumber": 66,
      "velocity": 58,
      "ticks": 360
    },
    {
      "time": 138000,
      "track": 2,
      "noteNumber": 49,
      "velocity": 54,
      "ticks": 90
    },
    {
      "time": 138240,
      "track": 2,
      "noteNumber": 47,
      "velocity": 63,
      "ticks": 90
    },
    {
      "time": 138240,
      "track": 1,
      "noteNumber": 73,
      "velocity": 67,
      "ticks": 480
    },
    {
      "time": 138240,
      "track": 1,
      "noteNumber": 63,
      "velocity": 67,
      "ticks": 480
    },
    {
      "time": 138240,
      "track": 1,
      "noteNumber": 69,
      "velocity": 67,
      "ticks": 480
    },
    {
      "time": 138480,
      "track": 2,
      "noteNumber": 54,
      "velocity": 57,
      "ticks": 90
    },
    {
      "time": 138720,
      "track": 1,
      "noteNumber": 69,
      "velocity": 66,
      "ticks": 960
    },
    {
      "time": 138720,
      "track": 2,
      "noteNumber": 59,
      "velocity": 57,
      "ticks": 90
    },
    {
      "time": 138720,
      "track": 1,
      "noteNumber": 61,
      "velocity": 66,
      "ticks": 960
    },
    {
      "time": 138720,
      "track": 1,
      "noteNumber": 66,
      "velocity": 66,
      "ticks": 960
    },
    {
      "time": 138960,
      "track": 2,
      "noteNumber": 54,
      "velocity": 57,
      "ticks": 90
    },
    {
      "time": 139200,
      "track": 2,
      "noteNumber": 42,
      "velocity": 68,
      "ticks": 90
    },
    {
      "time": 139440,
      "track": 2,
      "noteNumber": 49,
      "velocity": 58,
      "ticks": 90
    },
    {
      "time": 139680,
      "track": 1,
      "noteNumber": 73,
      "velocity": 73,
      "ticks": 480
    },
    {
      "time": 139680,
      "track": 1,
      "noteNumber": 69,
      "velocity": 73,
      "ticks": 480
    },
    {
      "time": 139680,
      "track": 2,
      "noteNumber": 54,
      "velocity": 62,
      "ticks": 90
    },
    {
      "time": 139680,
      "track": 1,
      "noteNumber": 66,
      "velocity": 73,
      "ticks": 480
    },
    {
      "time": 139920,
      "track": 2,
      "noteNumber": 49,
      "velocity": 66,
      "ticks": 90
    },
    {
      "time": 140160,
      "track": 1,
      "noteNumber": 75,
      "velocity": 73,
      "ticks": 240
    },
    {
      "time": 140160,
      "track": 1,
      "noteNumber": 68,
      "velocity": 73,
      "ticks": 240
    },
    {
      "time": 140400,
      "track": 1,
      "noteNumber": 63,
      "velocity": 66,
      "ticks": 240
    },
    {
      "time": 140640,
      "track": 2,
      "noteNumber": 32,
      "velocity": 64,
      "ticks": 240
    },
    {
      "time": 140640,
      "track": 2,
      "noteNumber": 39,
      "velocity": 64,
      "ticks": 240
    },
    {
      "time": 140880,
      "track": 2,
      "noteNumber": 44,
      "velocity": 66,
      "ticks": 240
    },
    {
      "time": 141120,
      "track": 2,
      "noteNumber": 44,
      "velocity": 68,
      "ticks": 240
    },
    {
      "time": 141360,
      "track": 2,
      "noteNumber": 51,
      "velocity": 69,
      "ticks": 240
    },
    {
      "time": 141600,
      "track": 1,
      "noteNumber": 63,
      "velocity": 72,
      "ticks": 240
    },
    {
      "time": 141840,
      "track": 1,
      "noteNumber": 56,
      "velocity": 69,
      "ticks": 240
    },
    {
      "time": 142080,
      "track": 2,
      "noteNumber": 56,
      "velocity": 75,
      "ticks": 240
    },
    {
      "time": 142320,
      "track": 2,
      "noteNumber": 63,
      "velocity": 70,
      "ticks": 240
    },
    {
      "time": 142560,
      "track": 1,
      "noteNumber": 75,
      "velocity": 74,
      "ticks": 240
    },
    {
      "time": 142800,
      "track": 1,
      "noteNumber": 68,
      "velocity": 72,
      "ticks": 238
    },
    {
      "time": 143040,
      "track": 2,
      "noteNumber": 68,
      "velocity": 70,
      "ticks": 240
    },
    {
      "time": 143280,
      "track": 2,
      "noteNumber": 75,
      "velocity": 66,
      "ticks": 240
    },
    {
      "time": 143520,
      "track": 1,
      "noteNumber": 87,
      "velocity": 67,
      "ticks": 240
    },
    {
      "time": 143760,
      "track": 1,
      "noteNumber": 80,
      "velocity": 62,
      "ticks": 240
    },
    {
      "time": 144000,
      "track": 1,
      "noteNumber": 84,
      "velocity": 52,
      "ticks": 478
    },
    {
      "time": 144000,
      "track": 1,
      "noteNumber": 87,
      "velocity": 52,
      "ticks": 480
    },
    {
      "time": 144000,
      "track": 2,
      "noteNumber": 68,
      "velocity": 32,
      "ticks": 240
    },
    {
      "time": 144240,
      "track": 2,
      "noteNumber": 72,
      "velocity": 30,
      "ticks": 240
    },
    {
      "time": 144480,
      "track": 1,
      "noteNumber": 84,
      "velocity": 51,
      "ticks": 480
    },
    {
      "time": 144480,
      "track": 2,
      "noteNumber": 75,
      "velocity": 30,
      "ticks": 240
    },
    {
      "time": 144720,
      "track": 2,
      "noteNumber": 72,
      "velocity": 30,
      "ticks": 240
    },
    {
      "time": 144960,
      "track": 2,
      "noteNumber": 68,
      "velocity": 32,
      "ticks": 240
    },
    {
      "time": 144960,
      "track": 1,
      "noteNumber": 87,
      "velocity": 52,
      "ticks": 480
    },
    {
      "time": 144960,
      "track": 1,
      "noteNumber": 83,
      "velocity": 52,
      "ticks": 960
    },
    {
      "time": 145200,
      "track": 2,
      "noteNumber": 71,
      "velocity": 30,
      "ticks": 240
    },
    {
      "time": 145440,
      "track": 1,
      "noteNumber": 91,
      "velocity": 51,
      "ticks": 480
    },
    {
      "time": 145440,
      "track": 2,
      "noteNumber": 75,
      "velocity": 30,
      "ticks": 240
    },
    {
      "time": 145680,
      "track": 2,
      "noteNumber": 71,
      "velocity": 30,
      "ticks": 240
    },
    {
      "time": 145920,
      "track": 1,
      "noteNumber": 84,
      "velocity": 52,
      "ticks": 960
    },
    {
      "time": 145920,
      "track": 1,
      "noteNumber": 87,
      "velocity": 52,
      "ticks": 960
    },
    {
      "time": 145920,
      "track": 2,
      "noteNumber": 68,
      "velocity": 32,
      "ticks": 240
    },
    {
      "time": 146160,
      "track": 2,
      "noteNumber": 72,
      "velocity": 30,
      "ticks": 240
    },
    {
      "time": 146400,
      "track": 2,
      "noteNumber": 75,
      "velocity": 30,
      "ticks": 240
    },
    {
      "time": 146640,
      "track": 2,
      "noteNumber": 72,
      "velocity": 30,
      "ticks": 240
    },
    {
      "time": 146880,
      "track": 1,
      "noteNumber": 84,
      "velocity": 52,
      "ticks": 480
    },
    {
      "time": 146880,
      "track": 1,
      "noteNumber": 80,
      "velocity": 47,
      "ticks": 1920
    },
    {
      "time": 146880,
      "track": 2,
      "noteNumber": 67,
      "velocity": 32,
      "ticks": 240
    },
    {
      "time": 147120,
      "track": 2,
      "noteNumber": 68,
      "velocity": 30,
      "ticks": 240
    },
    {
      "time": 147360,
      "track": 2,
      "noteNumber": 72,
      "velocity": 30,
      "ticks": 240
    },
    {
      "time": 147360,
      "track": 1,
      "noteNumber": 87,
      "velocity": 52,
      "ticks": 480
    },
    {
      "time": 147600,
      "track": 2,
      "noteNumber": 67,
      "velocity": 30,
      "ticks": 240
    },
    {
      "time": 147840,
      "track": 2,
      "noteNumber": 65,
      "velocity": 32,
      "ticks": 240
    },
    {
      "time": 147840,
      "track": 1,
      "noteNumber": 84,
      "velocity": 52,
      "ticks": 320
    },
    {
      "time": 148080,
      "track": 2,
      "noteNumber": 68,
      "velocity": 30,
      "ticks": 240
    },
    {
      "time": 148160,
      "track": 1,
      "noteNumber": 82,
      "velocity": 50,
      "ticks": 320
    },
    {
      "time": 148320,
      "track": 2,
      "noteNumber": 72,
      "velocity": 30,
      "ticks": 240
    },
    {
      "time": 148480,
      "track": 1,
      "noteNumber": 84,
      "velocity": 50,
      "ticks": 320
    },
    {
      "time": 148560,
      "track": 2,
      "noteNumber": 68,
      "velocity": 30,
      "ticks": 240
    },
    {
      "time": 148800,
      "track": 2,
      "noteNumber": 63,
      "velocity": 32,
      "ticks": 240
    },
    {
      "time": 148800,
      "track": 1,
      "noteNumber": 79,
      "velocity": 40,
      "ticks": 960
    },
    {
      "time": 148800,
      "track": 1,
      "noteNumber": 80,
      "velocity": 48,
      "ticks": 480
    },
    {
      "time": 149040,
      "track": 2,
      "noteNumber": 67,
      "velocity": 28,
      "ticks": 240
    },
    {
      "time": 149280,
      "track": 2,
      "noteNumber": 68,
      "velocity": 28,
      "ticks": 240
    },
    {
      "time": 149280,
      "track": 1,
      "noteNumber": 84,
      "velocity": 48,
      "ticks": 480
    },
    {
      "time": 149520,
      "track": 2,
      "noteNumber": 67,
      "velocity": 28,
      "ticks": 240
    },
    {
      "time": 149760,
      "track": 2,
      "noteNumber": 61,
      "velocity": 30,
      "ticks": 240
    },
    {
      "time": 149760,
      "track": 1,
      "noteNumber": 82,
      "velocity": 47,
      "ticks": 960
    },
    {
      "time": 149760,
      "track": 1,
      "noteNumber": 77,
      "velocity": 41,
      "ticks": 960
    },
    {
      "time": 150000,
      "track": 2,
      "noteNumber": 65,
      "velocity": 28,
      "ticks": 240
    },
    {
      "time": 150240,
      "track": 2,
      "noteNumber": 68,
      "velocity": 28,
      "ticks": 240
    },
    {
      "time": 150480,
      "track": 2,
      "noteNumber": 65,
      "velocity": 28,
      "ticks": 240
    },
    {
      "time": 150720,
      "track": 1,
      "noteNumber": 70,
      "velocity": 47,
      "ticks": 480
    },
    {
      "time": 150720,
      "track": 2,
      "noteNumber": 63,
      "velocity": 31,
      "ticks": 240
    },
    {
      "time": 150960,
      "track": 2,
      "noteNumber": 65,
      "velocity": 29,
      "ticks": 240
    },
    {
      "time": 151200,
      "track": 1,
      "noteNumber": 72,
      "velocity": 49,
      "ticks": 480
    },
    {
      "time": 151200,
      "track": 2,
      "noteNumber": 68,
      "velocity": 33,
      "ticks": 240
    },
    {
      "time": 151440,
      "track": 2,
      "noteNumber": 65,
      "velocity": 30,
      "ticks": 240
    },
    {
      "time": 151680,
      "track": 2,
      "noteNumber": 65,
      "velocity": 34,
      "ticks": 960
    },
    {
      "time": 151680,
      "track": 1,
      "noteNumber": 73,
      "velocity": 52,
      "ticks": 960
    },
    {
      "time": 151920,
      "track": 2,
      "noteNumber": 68,
      "velocity": 30,
      "ticks": 240
    },
    {
      "time": 152160,
      "track": 2,
      "noteNumber": 70,
      "velocity": 30,
      "ticks": 240
    },
    {
      "time": 152400,
      "track": 2,
      "noteNumber": 68,
      "velocity": 30,
      "ticks": 240
    },
    {
      "time": 152640,
      "track": 2,
      "noteNumber": 63,
      "velocity": 32,
      "ticks": 960
    },
    {
      "time": 152640,
      "track": 1,
      "noteNumber": 72,
      "velocity": 47,
      "ticks": 480
    },
    {
      "time": 152880,
      "track": 2,
      "noteNumber": 67,
      "velocity": 28,
      "ticks": 240
    },
    {
      "time": 153120,
      "track": 1,
      "noteNumber": 77,
      "velocity": 49,
      "ticks": 480
    },
    {
      "time": 153120,
      "track": 2,
      "noteNumber": 68,
      "velocity": 30,
      "ticks": 240
    },
    {
      "time": 153360,
      "track": 2,
      "noteNumber": 67,
      "velocity": 28,
      "ticks": 240
    },
    {
      "time": 153600,
      "track": 2,
      "noteNumber": 61,
      "velocity": 30,
      "ticks": 960
    },
    {
      "time": 153600,
      "track": 1,
      "noteNumber": 70,
      "velocity": 45,
      "ticks": 960
    },
    {
      "time": 153840,
      "track": 2,
      "noteNumber": 65,
      "velocity": 28,
      "ticks": 240
    },
    {
      "time": 154080,
      "track": 2,
      "noteNumber": 67,
      "velocity": 28,
      "ticks": 240
    },
    {
      "time": 154320,
      "track": 2,
      "noteNumber": 65,
      "velocity": 28,
      "ticks": 240
    },
    {
      "time": 154560,
      "track": 1,
      "noteNumber": 68,
      "velocity": 47,
      "ticks": 480
    },
    {
      "time": 154560,
      "track": 2,
      "noteNumber": 60,
      "velocity": 30,
      "ticks": 960
    },
    {
      "time": 154800,
      "track": 2,
      "noteNumber": 63,
      "velocity": 28,
      "ticks": 240
    },
    {
      "time": 155040,
      "track": 2,
      "noteNumber": 65,
      "velocity": 28,
      "ticks": 240
    },
    {
      "time": 155040,
      "track": 1,
      "noteNumber": 77,
      "velocity": 49,
      "ticks": 480
    },
    {
      "time": 155280,
      "track": 2,
      "noteNumber": 63,
      "velocity": 28,
      "ticks": 240
    },
    {
      "time": 155520,
      "track": 1,
      "noteNumber": 67,
      "velocity": 40,
      "ticks": 960
    },
    {
      "time": 155520,
      "track": 2,
      "noteNumber": 58,
      "velocity": 30,
      "ticks": 960
    },
    {
      "time": 155760,
      "track": 2,
      "noteNumber": 61,
      "velocity": 26,
      "ticks": 240
    },
    {
      "time": 156000,
      "track": 2,
      "noteNumber": 63,
      "velocity": 26,
      "ticks": 240
    },
    {
      "time": 156240,
      "track": 2,
      "noteNumber": 61,
      "velocity": 26,
      "ticks": 240
    },
    {
      "time": 156480,
      "track": 1,
      "noteNumber": 65,
      "velocity": 44,
      "ticks": 480
    },
    {
      "time": 156480,
      "track": 2,
      "noteNumber": 56,
      "velocity": 30,
      "ticks": 960
    },
    {
      "time": 156720,
      "track": 2,
      "noteNumber": 60,
      "velocity": 26,
      "ticks": 240
    },
    {
      "time": 156960,
      "track": 2,
      "noteNumber": 61,
      "velocity": 26,
      "ticks": 240
    },
    {
      "time": 156960,
      "track": 1,
      "noteNumber": 77,
      "velocity": 44,
      "ticks": 480
    },
    {
      "time": 157200,
      "track": 2,
      "noteNumber": 60,
      "velocity": 26,
      "ticks": 240
    },
    {
      "time": 157440,
      "track": 1,
      "noteNumber": 63,
      "velocity": 38,
      "ticks": 2400
    },
    {
      "time": 157440,
      "track": 2,
      "noteNumber": 55,
      "velocity": 28,
      "ticks": 960
    },
    {
      "time": 157680,
      "track": 2,
      "noteNumber": 58,
      "velocity": 25,
      "ticks": 240
    },
    {
      "time": 157920,
      "track": 2,
      "noteNumber": 61,
      "velocity": 25,
      "ticks": 240
    },
    {
      "time": 158160,
      "track": 2,
      "noteNumber": 58,
      "velocity": 25,
      "ticks": 240
    },
    {
      "time": 158400,
      "track": 2,
      "noteNumber": 53,
      "velocity": 33,
      "ticks": 480
    },
    {
      "time": 158640,
      "track": 1,
      "noteNumber": 58,
      "velocity": 28,
      "ticks": 240
    },
    {
      "time": 158640,
      "track": 1,
      "noteNumber": 61,
      "velocity": 28,
      "ticks": 240
    },
    {
      "time": 158880,
      "track": 2,
      "noteNumber": 51,
      "velocity": 31,
      "ticks": 480
    },
    {
      "time": 159120,
      "track": 1,
      "noteNumber": 58,
      "velocity": 28,
      "ticks": 240
    },
    {
      "time": 159120,
      "track": 1,
      "noteNumber": 61,
      "velocity": 28,
      "ticks": 240
    },
    {
      "time": 159360,
      "track": 2,
      "noteNumber": 44,
      "velocity": 28,
      "ticks": 240
    },
    {
      "time": 159600,
      "track": 2,
      "noteNumber": 48,
      "velocity": 27,
      "ticks": 240
    },
    {
      "time": 159840,
      "track": 1,
      "noteNumber": 60,
      "velocity": 38,
      "ticks": 460
    },
    {
      "time": 159840,
      "track": 2,
      "noteNumber": 44,
      "velocity": 27,
      "ticks": 240
    },
    {
      "time": 160080,
      "track": 2,
      "noteNumber": 48,
      "velocity": 27,
      "ticks": 240
    },
    {
      "time": 160320,
      "track": 1,
      "noteNumber": 63,
      "velocity": 39,
      "ticks": 480
    },
    {
      "time": 160320,
      "track": 1,
      "noteNumber": 59,
      "velocity": 39,
      "ticks": 960
    },
    {
      "time": 160320,
      "track": 2,
      "noteNumber": 43,
      "velocity": 28,
      "ticks": 240
    },
    {
      "time": 160560,
      "track": 2,
      "noteNumber": 51,
      "velocity": 27,
      "ticks": 240
    },
    {
      "time": 160800,
      "track": 2,
      "noteNumber": 43,
      "velocity": 27,
      "ticks": 240
    },
    {
      "time": 160800,
      "track": 1,
      "noteNumber": 67,
      "velocity": 36,
      "ticks": 480
    },
    {
      "time": 161040,
      "track": 2,
      "noteNumber": 51,
      "velocity": 27,
      "ticks": 240
    },
    {
      "time": 161280,
      "track": 2,
      "noteNumber": 44,
      "velocity": 28,
      "ticks": 240
    },
    {
      "time": 161280,
      "track": 1,
      "noteNumber": 63,
      "velocity": 39,
      "ticks": 960
    },
    {
      "time": 161280,
      "track": 1,
      "noteNumber": 60,
      "velocity": 39,
      "ticks": 960
    },
    {
      "time": 161520,
      "track": 2,
      "noteNumber": 51,
      "velocity": 27,
      "ticks": 240
    },
    {
      "time": 161760,
      "track": 2,
      "noteNumber": 44,
      "velocity": 27,
      "ticks": 240
    },
    {
      "time": 162000,
      "track": 2,
      "noteNumber": 51,
      "velocity": 27,
      "ticks": 240
    },
    {
      "time": 162240,
      "track": 2,
      "noteNumber": 43,
      "velocity": 28,
      "ticks": 240
    },
    {
      "time": 162240,
      "track": 1,
      "noteNumber": 60,
      "velocity": 39,
      "ticks": 480
    },
    {
      "time": 162240,
      "track": 1,
      "noteNumber": 58,
      "velocity": 35,
      "ticks": 1600
    },
    {
      "time": 162480,
      "track": 2,
      "noteNumber": 51,
      "velocity": 27,
      "ticks": 240
    },
    {
      "time": 162720,
      "track": 2,
      "noteNumber": 43,
      "velocity": 27,
      "ticks": 240
    },
    {
      "time": 162720,
      "track": 1,
      "noteNumber": 63,
      "velocity": 39,
      "ticks": 480
    },
    {
      "time": 162960,
      "track": 2,
      "noteNumber": 51,
      "velocity": 27,
      "ticks": 240
    },
    {
      "time": 163200,
      "track": 1,
      "noteNumber": 60,
      "velocity": 39,
      "ticks": 320
    },
    {
      "time": 163200,
      "track": 2,
      "noteNumber": 41,
      "velocity": 28,
      "ticks": 240
    },
    {
      "time": 163440,
      "track": 2,
      "noteNumber": 48,
      "velocity": 27,
      "ticks": 240
    },
    {
      "time": 163520,
      "track": 1,
      "noteNumber": 58,
      "velocity": 37,
      "ticks": 640
    },
    {
      "time": 163680,
      "track": 2,
      "noteNumber": 41,
      "velocity": 27,
      "ticks": 240
    },
    {
      "time": 163840,
      "track": 1,
      "noteNumber": 60,
      "velocity": 37,
      "ticks": 320
    },
    {
      "time": 163920,
      "track": 2,
      "noteNumber": 48,
      "velocity": 27,
      "ticks": 240
    },
    {
      "time": 164160,
      "track": 2,
      "noteNumber": 39,
      "velocity": 28,
      "ticks": 240
    },
    {
      "time": 164160,
      "track": 1,
      "noteNumber": 55,
      "velocity": 30,
      "ticks": 960
    },
    {
      "time": 164160,
      "track": 1,
      "noteNumber": 56,
      "velocity": 36,
      "ticks": 480
    },
    {
      "time": 164400,
      "track": 2,
      "noteNumber": 48,
      "velocity": 25,
      "ticks": 240
    },
    {
      "time": 164640,
      "track": 2,
      "noteNumber": 39,
      "velocity": 25,
      "ticks": 240
    },
    {
      "time": 164640,
      "track": 1,
      "noteNumber": 60,
      "velocity": 35,
      "ticks": 480
    },
    {
      "time": 164880,
      "track": 2,
      "noteNumber": 48,
      "velocity": 25,
      "ticks": 240
    },
    {
      "time": 165120,
      "track": 1,
      "noteNumber": 50,
      "velocity": 25,
      "ticks": 1920
    },
    {
      "time": 165120,
      "track": 1,
      "noteNumber": 53,
      "velocity": 25,
      "ticks": 1920
    },
    {
      "time": 165120,
      "track": 2,
      "noteNumber": 32,
      "velocity": 27,
      "ticks": 240
    },
    {
      "time": 165120,
      "track": 1,
      "noteNumber": 58,
      "velocity": 34,
      "ticks": 960
    },
    {
      "time": 165360,
      "track": 2,
      "noteNumber": 44,
      "velocity": 25,
      "ticks": 240
    },
    {
      "time": 165600,
      "track": 2,
      "noteNumber": 32,
      "velocity": 25,
      "ticks": 240
    },
    {
      "time": 165840,
      "track": 2,
      "noteNumber": 44,
      "velocity": 25,
      "ticks": 240
    },
    {
      "time": 166080,
      "track": 1,
      "noteNumber": 56,
      "velocity": 29,
      "ticks": 480
    },
    {
      "time": 166080,
      "track": 2,
      "noteNumber": 32,
      "velocity": 25,
      "ticks": 240
    },
    {
      "time": 166320,
      "track": 2,
      "noteNumber": 44,
      "velocity": 25,
      "ticks": 240
    },
    {
      "time": 166560,
      "track": 1,
      "noteNumber": 58,
      "velocity": 27,
      "ticks": 480
    },
    {
      "time": 166560,
      "track": 2,
      "noteNumber": 32,
      "velocity": 25,
      "ticks": 240
    },
    {
      "time": 166800,
      "track": 2,
      "noteNumber": 44,
      "velocity": 25,
      "ticks": 240
    },
    {
      "time": 167040,
      "track": 1,
      "noteNumber": 64,
      "velocity": 28,
      "ticks": 480
    },
    {
      "time": 167040,
      "track": 1,
      "noteNumber": 71,
      "velocity": 28,
      "ticks": 480
    },
    {
      "time": 167040,
      "track": 2,
      "noteNumber": 44,
      "velocity": 26,
      "ticks": 90
    },
    {
      "time": 167040,
      "track": 1,
      "noteNumber": 68,
      "velocity": 28,
      "ticks": 480
    },
    {
      "time": 167280,
      "track": 2,
      "noteNumber": 52,
      "velocity": 24,
      "ticks": 90
    },
    {
      "time": 167520,
      "track": 1,
      "noteNumber": 68,
      "velocity": 26,
      "ticks": 90
    },
    {
      "time": 167520,
      "track": 1,
      "noteNumber": 64,
      "velocity": 26,
      "ticks": 90
    },
    {
      "time": 167520,
      "track": 2,
      "noteNumber": 59,
      "velocity": 24,
      "ticks": 90
    },
    {
      "time": 167760,
      "track": 2,
      "noteNumber": 52,
      "velocity": 24,
      "ticks": 90
    },
    {
      "time": 167760,
      "track": 1,
      "noteNumber": 68,
      "velocity": 26,
      "ticks": 90
    },
    {
      "time": 167760,
      "track": 1,
      "noteNumber": 64,
      "velocity": 26,
      "ticks": 90
    },
    {
      "time": 168000,
      "track": 1,
      "noteNumber": 68,
      "velocity": 26,
      "ticks": 120
    },
    {
      "time": 168000,
      "track": 1,
      "noteNumber": 64,
      "velocity": 26,
      "ticks": 120
    },
    {
      "time": 168000,
      "track": 2,
      "noteNumber": 44,
      "velocity": 26,
      "ticks": 90
    },
    {
      "time": 168240,
      "track": 2,
      "noteNumber": 52,
      "velocity": 23,
      "ticks": 90
    },
    {
      "time": 168480,
      "track": 1,
      "noteNumber": 71,
      "velocity": 28,
      "ticks": 120
    },
    {
      "time": 168480,
      "track": 1,
      "noteNumber": 64,
      "velocity": 28,
      "ticks": 120
    },
    {
      "time": 168480,
      "track": 1,
      "noteNumber": 68,
      "velocity": 28,
      "ticks": 120
    },
    {
      "time": 168480,
      "track": 2,
      "noteNumber": 59,
      "velocity": 23,
      "ticks": 90
    },
    {
      "time": 168720,
      "track": 2,
      "noteNumber": 52,
      "velocity": 23,
      "ticks": 90
    },
    {
      "time": 168960,
      "track": 2,
      "noteNumber": 44,
      "velocity": 28,
      "ticks": 90
    },
    {
      "time": 168960,
      "track": 1,
      "noteNumber": 73,
      "velocity": 28,
      "ticks": 480
    },
    {
      "time": 168960,
      "track": 1,
      "noteNumber": 64,
      "velocity": 28,
      "ticks": 480
    },
    {
      "time": 168960,
      "track": 1,
      "noteNumber": 68,
      "velocity": 28,
      "ticks": 480
    },
    {
      "time": 169200,
      "track": 2,
      "noteNumber": 52,
      "velocity": 25,
      "ticks": 90
    },
    {
      "time": 169440,
      "track": 2,
      "noteNumber": 58,
      "velocity": 26,
      "ticks": 90
    },
    {
      "time": 169440,
      "track": 1,
      "noteNumber": 64,
      "velocity": 32,
      "ticks": 90
    },
    {
      "time": 169440,
      "track": 1,
      "noteNumber": 68,
      "velocity": 32,
      "ticks": 90
    },
    {
      "time": 169440,
      "track": 1,
      "noteNumber": 73,
      "velocity": 32,
      "ticks": 90
    },
    {
      "time": 169680,
      "track": 2,
      "noteNumber": 52,
      "velocity": 25,
      "ticks": 90
    },
    {
      "time": 169680,
      "track": 1,
      "noteNumber": 75,
      "velocity": 30,
      "ticks": 90
    },
    {
      "time": 169680,
      "track": 1,
      "noteNumber": 64,
      "velocity": 30,
      "ticks": 90
    },
    {
      "time": 169680,
      "track": 1,
      "noteNumber": 68,
      "velocity": 30,
      "ticks": 90
    },
    {
      "time": 169920,
      "track": 1,
      "noteNumber": 64,
      "velocity": 32,
      "ticks": 90
    },
    {
      "time": 169920,
      "track": 2,
      "noteNumber": 44,
      "velocity": 28,
      "ticks": 90
    },
    {
      "time": 169920,
      "track": 1,
      "noteNumber": 68,
      "velocity": 32,
      "ticks": 90
    },
    {
      "time": 169920,
      "track": 1,
      "noteNumber": 73,
      "velocity": 32,
      "ticks": 90
    },
    {
      "time": 170160,
      "track": 1,
      "noteNumber": 68,
      "velocity": 30,
      "ticks": 90
    },
    {
      "time": 170160,
      "track": 1,
      "noteNumber": 75,
      "velocity": 30,
      "ticks": 90
    },
    {
      "time": 170160,
      "track": 1,
      "noteNumber": 64,
      "velocity": 30,
      "ticks": 90
    },
    {
      "time": 170160,
      "track": 2,
      "noteNumber": 52,
      "velocity": 26,
      "ticks": 90
    },
    {
      "time": 170400,
      "track": 1,
      "noteNumber": 73,
      "velocity": 27,
      "ticks": 120
    },
    {
      "time": 170400,
      "track": 1,
      "noteNumber": 64,
      "velocity": 27,
      "ticks": 120
    },
    {
      "time": 170400,
      "track": 1,
      "noteNumber": 68,
      "velocity": 27,
      "ticks": 120
    },
    {
      "time": 170400,
      "track": 2,
      "noteNumber": 58,
      "velocity": 27,
      "ticks": 90
    },
    {
      "time": 170640,
      "track": 2,
      "noteNumber": 52,
      "velocity": 26,
      "ticks": 90
    },
    {
      "time": 170880,
      "track": 1,
      "noteNumber": 64,
      "velocity": 29,
      "ticks": 480
    },
    {
      "time": 170880,
      "track": 1,
      "noteNumber": 71,
      "velocity": 29,
      "ticks": 480
    },
    {
      "time": 170880,
      "track": 2,
      "noteNumber": 44,
      "velocity": 26,
      "ticks": 90
    },
    {
      "time": 170880,
      "track": 1,
      "noteNumber": 68,
      "velocity": 29,
      "ticks": 480
    },
    {
      "time": 171120,
      "track": 2,
      "noteNumber": 52,
      "velocity": 24,
      "ticks": 90
    },
    {
      "time": 171360,
      "track": 2,
      "noteNumber": 59,
      "velocity": 24,
      "ticks": 90
    },
    {
      "time": 171360,
      "track": 1,
      "noteNumber": 68,
      "velocity": 26,
      "ticks": 90
    },
    {
      "time": 171360,
      "track": 1,
      "noteNumber": 64,
      "velocity": 26,
      "ticks": 90
    },
    {
      "time": 171600,
      "track": 2,
      "noteNumber": 52,
      "velocity": 24,
      "ticks": 90
    },
    {
      "time": 171600,
      "track": 1,
      "noteNumber": 68,
      "velocity": 26,
      "ticks": 90
    },
    {
      "time": 171600,
      "track": 1,
      "noteNumber": 64,
      "velocity": 26,
      "ticks": 90
    },
    {
      "time": 171840,
      "track": 1,
      "noteNumber": 64,
      "velocity": 26,
      "ticks": 360
    },
    {
      "time": 171840,
      "track": 2,
      "noteNumber": 44,
      "velocity": 26,
      "ticks": 90
    },
    {
      "time": 171840,
      "track": 1,
      "noteNumber": 68,
      "velocity": 26,
      "ticks": 360
    },
    {
      "time": 172080,
      "track": 2,
      "noteNumber": 52,
      "velocity": 24,
      "ticks": 90
    },
    {
      "time": 172320,
      "track": 1,
      "noteNumber": 68,
      "velocity": 30,
      "ticks": 480
    },
    {
      "time": 172320,
      "track": 1,
      "noteNumber": 71,
      "velocity": 30,
      "ticks": 480
    },
    {
      "time": 172320,
      "track": 2,
      "noteNumber": 59,
      "velocity": 25,
      "ticks": 90
    },
    {
      "time": 172320,
      "track": 1,
      "noteNumber": 64,
      "velocity": 30,
      "ticks": 480
    },
    {
      "time": 172560,
      "track": 2,
      "noteNumber": 52,
      "velocity": 24,
      "ticks": 90
    },
    {
      "time": 172800,
      "track": 1,
      "noteNumber": 68,
      "velocity": 28,
      "ticks": 1920
    },
    {
      "time": 172800,
      "track": 1,
      "noteNumber": 70,
      "velocity": 28,
      "ticks": 1530
    },
    {
      "time": 172800,
      "track": 1,
      "noteNumber": 65,
      "velocity": 28,
      "ticks": 1290
    },
    {
      "time": 172800,
      "track": 1,
      "noteNumber": 62,
      "velocity": 28,
      "ticks": 1920
    },
    {
      "time": 172800,
      "track": 2,
      "noteNumber": 44,
      "velocity": 27,
      "ticks": 90
    },
    {
      "time": 173040,
      "track": 2,
      "noteNumber": 53,
      "velocity": 26,
      "ticks": 90
    },
    {
      "time": 173280,
      "track": 2,
      "noteNumber": 58,
      "velocity": 27,
      "ticks": 90
    },
    {
      "time": 173520,
      "track": 2,
      "noteNumber": 53,
      "velocity": 26,
      "ticks": 90
    },
    {
      "time": 173760,
      "track": 2,
      "noteNumber": 56,
      "velocity": 29,
      "ticks": 90
    },
    {
      "time": 174000,
      "track": 1,
      "noteNumber": 65,
      "velocity": 26,
      "ticks": 570
    },
    {
      "time": 174240,
      "track": 1,
      "noteNumber": 70,
      "velocity": 28,
      "ticks": 480
    },
    {
      "time": 174480,
      "track": 1,
      "noteNumber": 65,
      "velocity": 26,
      "ticks": 240
    },
    {
      "time": 174720,
      "track": 1,
      "noteNumber": 83,
      "velocity": 30,
      "ticks": 480
    },
    {
      "time": 174720,
      "track": 2,
      "noteNumber": 56,
      "velocity": 26,
      "ticks": 90
    },
    {
      "time": 174720,
      "track": 1,
      "noteNumber": 80,
      "velocity": 28,
      "ticks": 480
    },
    {
      "time": 174720,
      "track": 1,
      "noteNumber": 76,
      "velocity": 28,
      "ticks": 480
    },
    {
      "time": 174960,
      "track": 2,
      "noteNumber": 64,
      "velocity": 24,
      "ticks": 90
    },
    {
      "time": 175200,
      "track": 1,
      "noteNumber": 76,
      "velocity": 26,
      "ticks": 90
    },
    {
      "time": 175200,
      "track": 1,
      "noteNumber": 80,
      "velocity": 28,
      "ticks": 90
    },
    {
      "time": 175200,
      "track": 2,
      "noteNumber": 71,
      "velocity": 24,
      "ticks": 90
    },
    {
      "time": 175440,
      "track": 1,
      "noteNumber": 80,
      "velocity": 28,
      "ticks": 90
    },
    {
      "time": 175440,
      "track": 1,
      "noteNumber": 76,
      "velocity": 26,
      "ticks": 90
    },
    {
      "time": 175440,
      "track": 2,
      "noteNumber": 64,
      "velocity": 24,
      "ticks": 90
    },
    {
      "time": 175680,
      "track": 1,
      "noteNumber": 80,
      "velocity": 28,
      "ticks": 120
    },
    {
      "time": 175680,
      "track": 2,
      "noteNumber": 56,
      "velocity": 26,
      "ticks": 90
    },
    {
      "time": 175680,
      "track": 1,
      "noteNumber": 76,
      "velocity": 26,
      "ticks": 120
    },
    {
      "time": 175920,
      "track": 2,
      "noteNumber": 64,
      "velocity": 23,
      "ticks": 90
    },
    {
      "time": 176160,
      "track": 2,
      "noteNumber": 71,
      "velocity": 23,
      "ticks": 90
    },
    {
      "time": 176160,
      "track": 1,
      "noteNumber": 80,
      "velocity": 28,
      "ticks": 480
    },
    {
      "time": 176160,
      "track": 1,
      "noteNumber": 76,
      "velocity": 28,
      "ticks": 480
    },
    {
      "time": 176160,
      "track": 1,
      "noteNumber": 83,
      "velocity": 30,
      "ticks": 480
    },
    {
      "time": 176400,
      "track": 2,
      "noteNumber": 64,
      "velocity": 23,
      "ticks": 90
    },
    {
      "time": 176640,
      "track": 1,
      "noteNumber": 80,
      "velocity": 28,
      "ticks": 480
    },
    {
      "time": 176640,
      "track": 1,
      "noteNumber": 76,
      "velocity": 28,
      "ticks": 480
    },
    {
      "time": 176640,
      "track": 2,
      "noteNumber": 56,
      "velocity": 28,
      "ticks": 90
    },
    {
      "time": 176640,
      "track": 1,
      "noteNumber": 85,
      "velocity": 31,
      "ticks": 480
    },
    {
      "time": 176880,
      "track": 2,
      "noteNumber": 64,
      "velocity": 25,
      "ticks": 90
    },
    {
      "time": 177120,
      "track": 1,
      "noteNumber": 85,
      "velocity": 34,
      "ticks": 90
    },
    {
      "time": 177120,
      "track": 1,
      "noteNumber": 76,
      "velocity": 32,
      "ticks": 90
    },
    {
      "time": 177120,
      "track": 2,
      "noteNumber": 70,
      "velocity": 26,
      "ticks": 90
    },
    {
      "time": 177120,
      "track": 1,
      "noteNumber": 80,
      "velocity": 32,
      "ticks": 90
    },
    {
      "time": 177360,
      "track": 1,
      "noteNumber": 80,
      "velocity": 28,
      "ticks": 90
    },
    {
      "time": 177360,
      "track": 1,
      "noteNumber": 76,
      "velocity": 28,
      "ticks": 90
    },
    {
      "time": 177360,
      "track": 2,
      "noteNumber": 64,
      "velocity": 25,
      "ticks": 90
    },
    {
      "time": 177360,
      "track": 1,
      "noteNumber": 87,
      "velocity": 30,
      "ticks": 90
    },
    {
      "time": 177600,
      "track": 1,
      "noteNumber": 85,
      "velocity": 34,
      "ticks": 90
    },
    {
      "time": 177600,
      "track": 2,
      "noteNumber": 56,
      "velocity": 28,
      "ticks": 90
    },
    {
      "time": 177600,
      "track": 1,
      "noteNumber": 76,
      "velocity": 32,
      "ticks": 90
    },
    {
      "time": 177600,
      "track": 1,
      "noteNumber": 80,
      "velocity": 32,
      "ticks": 90
    },
    {
      "time": 177840,
      "track": 1,
      "noteNumber": 76,
      "velocity": 30,
      "ticks": 90
    },
    {
      "time": 177840,
      "track": 2,
      "noteNumber": 64,
      "velocity": 26,
      "ticks": 90
    },
    {
      "time": 177840,
      "track": 1,
      "noteNumber": 80,
      "velocity": 30,
      "ticks": 90
    },
    {
      "time": 177840,
      "track": 1,
      "noteNumber": 87,
      "velocity": 33,
      "ticks": 90
    },
    {
      "time": 178080,
      "track": 1,
      "noteNumber": 80,
      "velocity": 27,
      "ticks": 480
    },
    {
      "time": 178080,
      "track": 1,
      "noteNumber": 76,
      "velocity": 27,
      "ticks": 480
    },
    {
      "time": 178080,
      "track": 1,
      "noteNumber": 85,
      "velocity": 29,
      "ticks": 480
    },
    {
      "time": 178080,
      "track": 2,
      "noteNumber": 70,
      "velocity": 27,
      "ticks": 90
    },
    {
      "time": 178320,
      "track": 2,
      "noteNumber": 64,
      "velocity": 26,
      "ticks": 90
    },
    {
      "time": 178560,
      "track": 1,
      "noteNumber": 80,
      "velocity": 29,
      "ticks": 480
    },
    {
      "time": 178560,
      "track": 1,
      "noteNumber": 76,
      "velocity": 29,
      "ticks": 480
    },
    {
      "time": 178560,
      "track": 1,
      "noteNumber": 83,
      "velocity": 32,
      "ticks": 480
    },
    {
      "time": 178560,
      "track": 2,
      "noteNumber": 56,
      "velocity": 26,
      "ticks": 90
    },
    {
      "time": 178800,
      "track": 2,
      "noteNumber": 64,
      "velocity": 24,
      "ticks": 90
    },
    {
      "time": 179040,
      "track": 2,
      "noteNumber": 71,
      "velocity": 24,
      "ticks": 90
    },
    {
      "time": 179040,
      "track": 1,
      "noteNumber": 80,
      "velocity": 28,
      "ticks": 90
    },
    {
      "time": 179040,
      "track": 1,
      "noteNumber": 76,
      "velocity": 26,
      "ticks": 90
    },
    {
      "time": 179280,
      "track": 2,
      "noteNumber": 64,
      "velocity": 24,
      "ticks": 90
    },
    {
      "time": 179280,
      "track": 1,
      "noteNumber": 76,
      "velocity": 26,
      "ticks": 90
    },
    {
      "time": 179280,
      "track": 1,
      "noteNumber": 80,
      "velocity": 28,
      "ticks": 90
    },
    {
      "time": 179520,
      "track": 1,
      "noteNumber": 76,
      "velocity": 26,
      "ticks": 360
    },
    {
      "time": 179520,
      "track": 2,
      "noteNumber": 56,
      "velocity": 26,
      "ticks": 90
    },
    {
      "time": 179520,
      "track": 1,
      "noteNumber": 80,
      "velocity": 28,
      "ticks": 360
    },
    {
      "time": 179760,
      "track": 2,
      "noteNumber": 64,
      "velocity": 24,
      "ticks": 90
    },
    {
      "time": 180000,
      "track": 1,
      "noteNumber": 80,
      "velocity": 29,
      "ticks": 480
    },
    {
      "time": 180000,
      "track": 1,
      "noteNumber": 76,
      "velocity": 29,
      "ticks": 480
    },
    {
      "time": 180000,
      "track": 2,
      "noteNumber": 71,
      "velocity": 25,
      "ticks": 90
    },
    {
      "time": 180000,
      "track": 1,
      "noteNumber": 83,
      "velocity": 32,
      "ticks": 480
    },
    {
      "time": 180240,
      "track": 2,
      "noteNumber": 64,
      "velocity": 24,
      "ticks": 90
    },
    {
      "time": 180480,
      "track": 1,
      "noteNumber": 82,
      "velocity": 39,
      "ticks": 240
    },
    {
      "time": 180480,
      "track": 1,
      "noteNumber": 77,
      "velocity": 30,
      "ticks": 240
    },
    {
      "time": 180480,
      "track": 2,
      "noteNumber": 56,
      "velocity": 34,
      "ticks": 5760
    },
    {
      "time": 180720,
      "track": 1,
      "noteNumber": 74,
      "velocity": 29,
      "ticks": 240
    },
    {
      "time": 180960,
      "track": 2,
      "noteNumber": 62,
      "velocity": 25,
      "ticks": 240
    },
    {
      "time": 180960,
      "track": 2,
      "noteNumber": 65,
      "velocity": 25,
      "ticks": 240
    },
    {
      "time": 181200,
      "track": 2,
      "noteNumber": 70,
      "velocity": 28,
      "ticks": 240
    },
    {
      "time": 181440,
      "track": 1,
      "noteNumber": 82,
      "velocity": 36,
      "ticks": 240
    },
    {
      "time": 181440,
      "track": 1,
      "noteNumber": 77,
      "velocity": 30,
      "ticks": 240
    },
    {
      "time": 181680,
      "track": 1,
      "noteNumber": 74,
      "velocity": 29,
      "ticks": 240
    },
    {
      "time": 181920,
      "track": 2,
      "noteNumber": 65,
      "velocity": 25,
      "ticks": 240
    },
    {
      "time": 181920,
      "track": 2,
      "noteNumber": 62,
      "velocity": 25,
      "ticks": 240
    },
    {
      "time": 182160,
      "track": 2,
      "noteNumber": 70,
      "velocity": 29,
      "ticks": 240
    },
    {
      "time": 182400,
      "track": 1,
      "noteNumber": 77,
      "velocity": 30,
      "ticks": 240
    },
    {
      "time": 182400,
      "track": 1,
      "noteNumber": 82,
      "velocity": 36,
      "ticks": 240
    },
    {
      "time": 182640,
      "track": 1,
      "noteNumber": 74,
      "velocity": 29,
      "ticks": 240
    },
    {
      "time": 182880,
      "track": 2,
      "noteNumber": 62,
      "velocity": 25,
      "ticks": 240
    },
    {
      "time": 182880,
      "track": 2,
      "noteNumber": 65,
      "velocity": 25,
      "ticks": 240
    },
    {
      "time": 183120,
      "track": 2,
      "noteNumber": 70,
      "velocity": 29,
      "ticks": 240
    },
    {
      "time": 183360,
      "track": 1,
      "noteNumber": 77,
      "velocity": 30,
      "ticks": 240
    },
    {
      "time": 183360,
      "track": 1,
      "noteNumber": 82,
      "velocity": 36,
      "ticks": 240
    },
    {
      "time": 183600,
      "track": 1,
      "noteNumber": 74,
      "velocity": 30,
      "ticks": 240
    },
    {
      "time": 183840,
      "track": 2,
      "noteNumber": 62,
      "velocity": 24,
      "ticks": 240
    },
    {
      "time": 183840,
      "track": 2,
      "noteNumber": 65,
      "velocity": 24,
      "ticks": 240
    },
    {
      "time": 184080,
      "track": 2,
      "noteNumber": 70,
      "velocity": 28,
      "ticks": 240
    },
    {
      "time": 184320,
      "track": 1,
      "noteNumber": 77,
      "velocity": 30,
      "ticks": 240
    },
    {
      "time": 184320,
      "track": 1,
      "noteNumber": 82,
      "velocity": 36,
      "ticks": 240
    },
    {
      "time": 184560,
      "track": 1,
      "noteNumber": 74,
      "velocity": 29,
      "ticks": 240
    },
    {
      "time": 184800,
      "track": 2,
      "noteNumber": 62,
      "velocity": 25,
      "ticks": 240
    },
    {
      "time": 184800,
      "track": 2,
      "noteNumber": 65,
      "velocity": 25,
      "ticks": 240
    },
    {
      "time": 185040,
      "track": 2,
      "noteNumber": 70,
      "velocity": 29,
      "ticks": 240
    },
    {
      "time": 185280,
      "track": 1,
      "noteNumber": 83,
      "velocity": 37,
      "ticks": 240
    },
    {
      "time": 185280,
      "track": 1,
      "noteNumber": 78,
      "velocity": 31,
      "ticks": 240
    },
    {
      "time": 185520,
      "track": 1,
      "noteNumber": 75,
      "velocity": 31,
      "ticks": 240
    },
    {
      "time": 185760,
      "track": 2,
      "noteNumber": 63,
      "velocity": 25,
      "ticks": 240
    },
    {
      "time": 185760,
      "track": 2,
      "noteNumber": 66,
      "velocity": 25,
      "ticks": 240
    },
    {
      "time": 186000,
      "track": 2,
      "noteNumber": 71,
      "velocity": 30,
      "ticks": 240
    },
    {
      "time": 186240,
      "track": 2,
      "noteNumber": 59,
      "velocity": 37,
      "ticks": 1920
    },
    {
      "time": 186240,
      "track": 1,
      "noteNumber": 85,
      "velocity": 39,
      "ticks": 240
    },
    {
      "time": 186240,
      "track": 1,
      "noteNumber": 80,
      "velocity": 33,
      "ticks": 240
    },
    {
      "time": 186480,
      "track": 1,
      "noteNumber": 77,
      "velocity": 31,
      "ticks": 240
    },
    {
      "time": 186720,
      "track": 2,
      "noteNumber": 68,
      "velocity": 27,
      "ticks": 240
    },
    {
      "time": 186720,
      "track": 2,
      "noteNumber": 65,
      "velocity": 27,
      "ticks": 240
    },
    {
      "time": 186960,
      "track": 2,
      "noteNumber": 73,
      "velocity": 31,
      "ticks": 240
    },
    {
      "time": 187200,
      "track": 1,
      "noteNumber": 83,
      "velocity": 37,
      "ticks": 240
    },
    {
      "time": 187200,
      "track": 1,
      "noteNumber": 78,
      "velocity": 31,
      "ticks": 240
    },
    {
      "time": 187440,
      "track": 1,
      "noteNumber": 75,
      "velocity": 31,
      "ticks": 240
    },
    {
      "time": 187680,
      "track": 2,
      "noteNumber": 66,
      "velocity": 24,
      "ticks": 240
    },
    {
      "time": 187680,
      "track": 2,
      "noteNumber": 63,
      "velocity": 24,
      "ticks": 240
    },
    {
      "time": 187920,
      "track": 2,
      "noteNumber": 71,
      "velocity": 28,
      "ticks": 240
    },
    {
      "time": 188160,
      "track": 1,
      "noteNumber": 77,
      "velocity": 30,
      "ticks": 240
    },
    {
      "time": 188160,
      "track": 2,
      "noteNumber": 56,
      "velocity": 34,
      "ticks": 1920
    },
    {
      "time": 188160,
      "track": 1,
      "noteNumber": 82,
      "velocity": 36,
      "ticks": 240
    },
    {
      "time": 188400,
      "track": 1,
      "noteNumber": 74,
      "velocity": 29,
      "ticks": 240
    },
    {
      "time": 188640,
      "track": 2,
      "noteNumber": 62,
      "velocity": 25,
      "ticks": 240
    },
    {
      "time": 188640,
      "track": 2,
      "noteNumber": 65,
      "velocity": 25,
      "ticks": 240
    },
    {
      "time": 188880,
      "track": 2,
      "noteNumber": 70,
      "velocity": 29,
      "ticks": 240
    },
    {
      "time": 189120,
      "track": 1,
      "noteNumber": 78,
      "velocity": 31,
      "ticks": 240
    },
    {
      "time": 189120,
      "track": 1,
      "noteNumber": 83,
      "velocity": 37,
      "ticks": 240
    },
    {
      "time": 189360,
      "track": 1,
      "noteNumber": 75,
      "velocity": 31,
      "ticks": 240
    },
    {
      "time": 189600,
      "track": 2,
      "noteNumber": 66,
      "velocity": 25,
      "ticks": 240
    },
    {
      "time": 189600,
      "track": 2,
      "noteNumber": 63,
      "velocity": 25,
      "ticks": 240
    },
    {
      "time": 189840,
      "track": 2,
      "noteNumber": 71,
      "velocity": 30,
      "ticks": 240
    },
    {
      "time": 190080,
      "track": 1,
      "noteNumber": 80,
      "velocity": 33,
      "ticks": 240
    },
    {
      "time": 190080,
      "track": 1,
      "noteNumber": 85,
      "velocity": 39,
      "ticks": 240
    },
    {
      "time": 190080,
      "track": 2,
      "noteNumber": 59,
      "velocity": 37,
      "ticks": 1920
    },
    {
      "time": 190320,
      "track": 1,
      "noteNumber": 77,
      "velocity": 31,
      "ticks": 240
    },
    {
      "time": 190560,
      "track": 2,
      "noteNumber": 65,
      "velocity": 27,
      "ticks": 240
    },
    {
      "time": 190560,
      "track": 2,
      "noteNumber": 68,
      "velocity": 27,
      "ticks": 240
    },
    {
      "time": 190800,
      "track": 2,
      "noteNumber": 73,
      "velocity": 31,
      "ticks": 240
    },
    {
      "time": 191040,
      "track": 1,
      "noteNumber": 78,
      "velocity": 31,
      "ticks": 240
    },
    {
      "time": 191040,
      "track": 1,
      "noteNumber": 83,
      "velocity": 37,
      "ticks": 240
    },
    {
      "time": 191280,
      "track": 1,
      "noteNumber": 75,
      "velocity": 31,
      "ticks": 240
    },
    {
      "time": 191520,
      "track": 2,
      "noteNumber": 63,
      "velocity": 24,
      "ticks": 240
    },
    {
      "time": 191520,
      "track": 2,
      "noteNumber": 66,
      "velocity": 24,
      "ticks": 240
    },
    {
      "time": 191760,
      "track": 2,
      "noteNumber": 71,
      "velocity": 28,
      "ticks": 240
    },
    {
      "time": 192000,
      "track": 1,
      "noteNumber": 82,
      "velocity": 36,
      "ticks": 240
    },
    {
      "time": 192000,
      "track": 1,
      "noteNumber": 77,
      "velocity": 30,
      "ticks": 240
    },
    {
      "time": 192000,
      "track": 2,
      "noteNumber": 56,
      "velocity": 34,
      "ticks": 1920
    },
    {
      "time": 192240,
      "track": 1,
      "noteNumber": 74,
      "velocity": 29,
      "ticks": 240
    },
    {
      "time": 192480,
      "track": 2,
      "noteNumber": 65,
      "velocity": 25,
      "ticks": 240
    },
    {
      "time": 192480,
      "track": 2,
      "noteNumber": 62,
      "velocity": 25,
      "ticks": 240
    },
    {
      "time": 192720,
      "track": 2,
      "noteNumber": 70,
      "velocity": 29,
      "ticks": 240
    },
    {
      "time": 192960,
      "track": 1,
      "noteNumber": 78,
      "velocity": 31,
      "ticks": 240
    },
    {
      "time": 192960,
      "track": 1,
      "noteNumber": 83,
      "velocity": 37,
      "ticks": 240
    },
    {
      "time": 193200,
      "track": 1,
      "noteNumber": 75,
      "velocity": 31,
      "ticks": 240
    },
    {
      "time": 193440,
      "track": 2,
      "noteNumber": 63,
      "velocity": 25,
      "ticks": 240
    },
    {
      "time": 193440,
      "track": 2,
      "noteNumber": 66,
      "velocity": 25,
      "ticks": 240
    },
    {
      "time": 193680,
      "track": 2,
      "noteNumber": 71,
      "velocity": 30,
      "ticks": 240
    },
    {
      "time": 193920,
      "track": 1,
      "noteNumber": 85,
      "velocity": 39,
      "ticks": 240
    },
    {
      "time": 193920,
      "track": 1,
      "noteNumber": 80,
      "velocity": 33,
      "ticks": 240
    },
    {
      "time": 193920,
      "track": 2,
      "noteNumber": 59,
      "velocity": 37,
      "ticks": 3840
    },
    {
      "time": 194160,
      "track": 1,
      "noteNumber": 77,
      "velocity": 31,
      "ticks": 240
    },
    {
      "time": 194400,
      "track": 2,
      "noteNumber": 68,
      "velocity": 27,
      "ticks": 240
    },
    {
      "time": 194400,
      "track": 2,
      "noteNumber": 65,
      "velocity": 27,
      "ticks": 240
    },
    {
      "time": 194640,
      "track": 2,
      "noteNumber": 73,
      "velocity": 31,
      "ticks": 240
    },
    {
      "time": 194880,
      "track": 1,
      "noteNumber": 85,
      "velocity": 39,
      "ticks": 240
    },
    {
      "time": 194880,
      "track": 1,
      "noteNumber": 80,
      "velocity": 33,
      "ticks": 240
    },
    {
      "time": 195120,
      "track": 1,
      "noteNumber": 77,
      "velocity": 31,
      "ticks": 240
    },
    {
      "time": 195360,
      "track": 2,
      "noteNumber": 68,
      "velocity": 27,
      "ticks": 240
    },
    {
      "time": 195360,
      "track": 2,
      "noteNumber": 65,
      "velocity": 27,
      "ticks": 240
    },
    {
      "time": 195600,
      "track": 2,
      "noteNumber": 73,
      "velocity": 31,
      "ticks": 240
    },
    {
      "time": 195840,
      "track": 1,
      "noteNumber": 85,
      "velocity": 40,
      "ticks": 240
    },
    {
      "time": 195840,
      "track": 1,
      "noteNumber": 80,
      "velocity": 34,
      "ticks": 240
    },
    {
      "time": 196080,
      "track": 1,
      "noteNumber": 77,
      "velocity": 32,
      "ticks": 240
    },
    {
      "time": 196320,
      "track": 2,
      "noteNumber": 65,
      "velocity": 28,
      "ticks": 240
    },
    {
      "time": 196320,
      "track": 2,
      "noteNumber": 68,
      "velocity": 28,
      "ticks": 240
    },
    {
      "time": 196560,
      "track": 2,
      "noteNumber": 73,
      "velocity": 32,
      "ticks": 240
    },
    {
      "time": 196800,
      "track": 1,
      "noteNumber": 80,
      "velocity": 34,
      "ticks": 240
    },
    {
      "time": 196800,
      "track": 1,
      "noteNumber": 85,
      "velocity": 40,
      "ticks": 240
    },
    {
      "time": 197040,
      "track": 1,
      "noteNumber": 77,
      "velocity": 32,
      "ticks": 240
    },
    {
      "time": 197280,
      "track": 2,
      "noteNumber": 65,
      "velocity": 28,
      "ticks": 240
    },
    {
      "time": 197280,
      "track": 2,
      "noteNumber": 68,
      "velocity": 28,
      "ticks": 240
    },
    {
      "time": 197520,
      "track": 2,
      "noteNumber": 73,
      "velocity": 32,
      "ticks": 240
    },
    {
      "time": 197760,
      "track": 1,
      "noteNumber": 85,
      "velocity": 36,
      "ticks": 240
    },
    {
      "time": 197760,
      "track": 1,
      "noteNumber": 81,
      "velocity": 30,
      "ticks": 240
    },
    {
      "time": 198000,
      "track": 1,
      "noteNumber": 77,
      "velocity": 28,
      "ticks": 240
    },
    {
      "time": 198240,
      "track": 2,
      "noteNumber": 69,
      "velocity": 25,
      "ticks": 240
    },
    {
      "time": 198240,
      "track": 2,
      "noteNumber": 65,
      "velocity": 25,
      "ticks": 240
    },
    {
      "time": 198480,
      "track": 2,
      "noteNumber": 73,
      "velocity": 27,
      "ticks": 240
    },
    {
      "time": 198720,
      "track": 1,
      "noteNumber": 85,
      "velocity": 36,
      "ticks": 240
    },
    {
      "time": 198720,
      "track": 1,
      "noteNumber": 81,
      "velocity": 30,
      "ticks": 240
    },
    {
      "time": 198960,
      "track": 1,
      "noteNumber": 77,
      "velocity": 28,
      "ticks": 240
    },
    {
      "time": 199200,
      "track": 2,
      "noteNumber": 65,
      "velocity": 25,
      "ticks": 240
    },
    {
      "time": 199200,
      "track": 2,
      "noteNumber": 69,
      "velocity": 25,
      "ticks": 240
    },
    {
      "time": 199440,
      "track": 2,
      "noteNumber": 73,
      "velocity": 27,
      "ticks": 240
    },
    {
      "time": 199680,
      "track": 1,
      "noteNumber": 85,
      "velocity": 34,
      "ticks": 240
    },
    {
      "time": 199680,
      "track": 1,
      "noteNumber": 81,
      "velocity": 28,
      "ticks": 240
    },
    {
      "time": 199920,
      "track": 1,
      "noteNumber": 77,
      "velocity": 26,
      "ticks": 240
    },
    {
      "time": 200160,
      "track": 2,
      "noteNumber": 69,
      "velocity": 22,
      "ticks": 240
    },
    {
      "time": 200160,
      "track": 2,
      "noteNumber": 65,
      "velocity": 22,
      "ticks": 240
    },
    {
      "time": 200400,
      "track": 2,
      "noteNumber": 73,
      "velocity": 24,
      "ticks": 240
    },
    {
      "time": 200640,
      "track": 1,
      "noteNumber": 85,
      "velocity": 32,
      "ticks": 240
    },
    {
      "time": 200640,
      "track": 1,
      "noteNumber": 81,
      "velocity": 27,
      "ticks": 240
    },
    {
      "time": 200880,
      "track": 1,
      "noteNumber": 77,
      "velocity": 25,
      "ticks": 240
    },
    {
      "time": 201120,
      "track": 2,
      "noteNumber": 65,
      "velocity": 21,
      "ticks": 240
    },
    {
      "time": 201120,
      "track": 2,
      "noteNumber": 69,
      "velocity": 21,
      "ticks": 240
    },
    {
      "time": 201360,
      "track": 2,
      "noteNumber": 73,
      "velocity": 23,
      "ticks": 240
    },
    {
      "time": 201600,
      "track": 2,
      "noteNumber": 66,
      "velocity": 43,
      "ticks": 120
    },
    {
      "time": 201600,
      "track": 2,
      "noteNumber": 64,
      "velocity": 35,
      "ticks": 1920
    },
    {
      "time": 201600,
      "track": 1,
      "noteNumber": 85,
      "velocity": 31,
      "ticks": 240
    },
    {
      "time": 201840,
      "track": 1,
      "noteNumber": 81,
      "velocity": 29,
      "ticks": 240
    },
    {
      "time": 202080,
      "track": 2,
      "noteNumber": 73,
      "velocity": 43,
      "ticks": 180
    },
    {
      "time": 202080,
      "track": 1,
      "noteNumber": 76,
      "velocity": 29,
      "ticks": 240
    },
    {
      "time": 202320,
      "track": 1,
      "noteNumber": 73,
      "velocity": 31,
      "ticks": 240
    },
    {
      "time": 202560,
      "track": 2,
      "noteNumber": 71,
      "velocity": 44,
      "ticks": 1440
    },
    {
      "time": 202560,
      "track": 1,
      "noteNumber": 85,
      "velocity": 31,
      "ticks": 240
    },
    {
      "time": 202800,
      "track": 1,
      "noteNumber": 81,
      "velocity": 29,
      "ticks": 240
    },
    {
      "time": 203040,
      "track": 1,
      "noteNumber": 76,
      "velocity": 29,
      "ticks": 240
    },
    {
      "time": 203280,
      "track": 1,
      "noteNumber": 73,
      "velocity": 30,
      "ticks": 240
    },
    {
      "time": 203520,
      "track": 1,
      "noteNumber": 85,
      "velocity": 31,
      "ticks": 240
    },
    {
      "time": 203520,
      "track": 2,
      "noteNumber": 63,
      "velocity": 35,
      "ticks": 960
    },
    {
      "time": 203760,
      "track": 1,
      "noteNumber": 81,
      "velocity": 29,
      "ticks": 240
    },
    {
      "time": 204000,
      "track": 1,
      "noteNumber": 78,
      "velocity": 29,
      "ticks": 240
    },
    {
      "time": 204000,
      "track": 2,
      "noteNumber": 69,
      "velocity": 42,
      "ticks": 180
    },
    {
      "time": 204240,
      "track": 2,
      "noteNumber": 68,
      "velocity": 42,
      "ticks": 180
    },
    {
      "time": 204240,
      "track": 1,
      "noteNumber": 73,
      "velocity": 29,
      "ticks": 240
    },
    {
      "time": 204480,
      "track": 2,
      "noteNumber": 62,
      "velocity": 35,
      "ticks": 720
    },
    {
      "time": 204480,
      "track": 2,
      "noteNumber": 66,
      "velocity": 44,
      "ticks": 400
    },
    {
      "time": 204480,
      "track": 1,
      "noteNumber": 85,
      "velocity": 31,
      "ticks": 240
    },
    {
      "time": 204720,
      "track": 1,
      "noteNumber": 81,
      "velocity": 29,
      "ticks": 240
    },
    {
      "time": 204960,
      "track": 2,
      "noteNumber": 64,
      "velocity": 42,
      "ticks": 180
    },
    {
      "time": 204960,
      "track": 1,
      "noteNumber": 78,
      "velocity": 29,
      "ticks": 240
    },
    {
      "time": 205200,
      "track": 2,
      "noteNumber": 62,
      "velocity": 42,
      "ticks": 180
    },
    {
      "time": 205200,
      "track": 1,
      "noteNumber": 73,
      "velocity": 29,
      "ticks": 240
    },
    {
      "time": 205440,
      "track": 2,
      "noteNumber": 61,
      "velocity": 44,
      "ticks": 470
    },
    {
      "time": 205440,
      "track": 1,
      "noteNumber": 85,
      "velocity": 31,
      "ticks": 240
    },
    {
      "time": 205440,
      "track": 2,
      "noteNumber": 54,
      "velocity": 35,
      "ticks": 960
    },
    {
      "time": 205680,
      "track": 1,
      "noteNumber": 81,
      "velocity": 29,
      "ticks": 240
    },
    {
      "time": 205920,
      "track": 1,
      "noteNumber": 78,
      "velocity": 29,
      "ticks": 240
    },
    {
      "time": 205920,
      "track": 2,
      "noteNumber": 62,
      "velocity": 42,
      "ticks": 180
    },
    {
      "time": 206160,
      "track": 2,
      "noteNumber": 64,
      "velocity": 42,
      "ticks": 180
    },
    {
      "time": 206160,
      "track": 1,
      "noteNumber": 73,
      "velocity": 29,
      "ticks": 240
    },
    {
      "time": 206400,
      "track": 2,
      "noteNumber": 66,
      "velocity": 45,
      "ticks": 240
    },
    {
      "time": 206400,
      "track": 2,
      "noteNumber": 57,
      "velocity": 37,
      "ticks": 240
    },
    {
      "time": 206400,
      "track": 1,
      "noteNumber": 85,
      "velocity": 31,
      "ticks": 240
    },
    {
      "time": 206640,
      "track": 1,
      "noteNumber": 81,
      "velocity": 29,
      "ticks": 240
    },
    {
      "time": 206880,
      "track": 1,
      "noteNumber": 78,
      "velocity": 29,
      "ticks": 240
    },
    {
      "time": 206880,
      "track": 2,
      "noteNumber": 59,
      "velocity": 35,
      "ticks": 240
    },
    {
      "time": 206880,
      "track": 2,
      "noteNumber": 69,
      "velocity": 43,
      "ticks": 240
    },
    {
      "time": 207120,
      "track": 1,
      "noteNumber": 73,
      "velocity": 29,
      "ticks": 240
    },
    {
      "time": 207360,
      "track": 1,
      "noteNumber": 85,
      "velocity": 32,
      "ticks": 240
    },
    {
      "time": 207360,
      "track": 2,
      "noteNumber": 61,
      "velocity": 37,
      "ticks": 1920
    },
    {
      "time": 207360,
      "track": 2,
      "noteNumber": 68,
      "velocity": 45,
      "ticks": 1920
    },
    {
      "time": 207600,
      "track": 1,
      "noteNumber": 83,
      "velocity": 30,
      "ticks": 240
    },
    {
      "time": 207840,
      "track": 1,
      "noteNumber": 78,
      "velocity": 30,
      "ticks": 240
    },
    {
      "time": 208080,
      "track": 1,
      "noteNumber": 73,
      "velocity": 30,
      "ticks": 240
    },
    {
      "time": 208320,
      "track": 1,
      "noteNumber": 85,
      "velocity": 32,
      "ticks": 240
    },
    {
      "time": 208560,
      "track": 1,
      "noteNumber": 83,
      "velocity": 30,
      "ticks": 240
    },
    {
      "time": 208800,
      "track": 1,
      "noteNumber": 77,
      "velocity": 30,
      "ticks": 240
    },
    {
      "time": 209040,
      "track": 1,
      "noteNumber": 73,
      "velocity": 30,
      "ticks": 240
    },
    {
      "time": 209280,
      "track": 2,
      "noteNumber": 45,
      "velocity": 43,
      "ticks": 90
    },
    {
      "time": 209520,
      "track": 2,
      "noteNumber": 54,
      "velocity": 35,
      "ticks": 90
    },
    {
      "time": 209520,
      "track": 1,
      "noteNumber": 66,
      "velocity": 37,
      "ticks": 180
    },
    {
      "time": 209760,
      "track": 1,
      "noteNumber": 68,
      "velocity": 38,
      "ticks": 180
    },
    {
      "time": 209760,
      "track": 2,
      "noteNumber": 61,
      "velocity": 35,
      "ticks": 90
    },
    {
      "time": 210000,
      "track": 2,
      "noteNumber": 54,
      "velocity": 35,
      "ticks": 90
    },
    {
      "time": 210000,
      "track": 1,
      "noteNumber": 69,
      "velocity": 40,
      "ticks": 180
    },
    {
      "time": 210240,
      "track": 1,
      "noteNumber": 71,
      "velocity": 47,
      "ticks": 1180
    },
    {
      "time": 210240,
      "track": 1,
      "noteNumber": 66,
      "velocity": 45,
      "ticks": 480
    },
    {
      "time": 210240,
      "track": 2,
      "noteNumber": 44,
      "velocity": 38,
      "ticks": 90
    },
    {
      "time": 210480,
      "track": 2,
      "noteNumber": 49,
      "velocity": 35,
      "ticks": 90
    },
    {
      "time": 210720,
      "track": 2,
      "noteNumber": 59,
      "velocity": 35,
      "ticks": 90
    },
    {
      "time": 210720,
      "track": 1,
      "noteNumber": 65,
      "velocity": 45,
      "ticks": 480
    },
    {
      "time": 210960,
      "track": 2,
      "noteNumber": 49,
      "velocity": 35,
      "ticks": 90
    },
    {
      "time": 211200,
      "track": 2,
      "noteNumber": 42,
      "velocity": 40,
      "ticks": 90
    },
    {
      "time": 211200,
      "track": 1,
      "noteNumber": 61,
      "velocity": 45,
      "ticks": 480
    },
    {
      "time": 211440,
      "track": 2,
      "noteNumber": 49,
      "velocity": 36,
      "ticks": 90
    },
    {
      "time": 211440,
      "track": 1,
      "noteNumber": 69,
      "velocity": 46,
      "ticks": 240
    },
    {
      "time": 211680,
      "track": 1,
      "noteNumber": 71,
      "velocity": 47,
      "ticks": 240
    },
    {
      "time": 211680,
      "track": 2,
      "noteNumber": 57,
      "velocity": 37,
      "ticks": 90
    },
    {
      "time": 211920,
      "track": 2,
      "noteNumber": 49,
      "velocity": 38,
      "ticks": 90
    },
    {
      "time": 211920,
      "track": 1,
      "noteNumber": 73,
      "velocity": 47,
      "ticks": 240
    },
    {
      "time": 212160,
      "track": 2,
      "noteNumber": 47,
      "velocity": 43,
      "ticks": 90
    },
    {
      "time": 212160,
      "track": 1,
      "noteNumber": 74,
      "velocity": 52,
      "ticks": 1180
    },
    {
      "time": 212160,
      "track": 1,
      "noteNumber": 69,
      "velocity": 52,
      "ticks": 480
    },
    {
      "time": 212400,
      "track": 2,
      "noteNumber": 52,
      "velocity": 42,
      "ticks": 90
    },
    {
      "time": 212640,
      "track": 1,
      "noteNumber": 68,
      "velocity": 47,
      "ticks": 480
    },
    {
      "time": 212640,
      "track": 2,
      "noteNumber": 62,
      "velocity": 42,
      "ticks": 90
    },
    {
      "time": 212880,
      "track": 2,
      "noteNumber": 52,
      "velocity": 42,
      "ticks": 90
    },
    {
      "time": 213120,
      "track": 1,
      "noteNumber": 64,
      "velocity": 48,
      "ticks": 480
    },
    {
      "time": 213120,
      "track": 2,
      "noteNumber": 45,
      "velocity": 45,
      "ticks": 90
    },
    {
      "time": 213360,
      "track": 2,
      "noteNumber": 52,
      "velocity": 46,
      "ticks": 90
    },
    {
      "time": 213360,
      "track": 1,
      "noteNumber": 73,
      "velocity": 53,
      "ticks": 240
    },
    {
      "time": 213600,
      "track": 2,
      "noteNumber": 57,
      "velocity": 49,
      "ticks": 90
    },
    {
      "time": 213600,
      "track": 1,
      "noteNumber": 74,
      "velocity": 57,
      "ticks": 240
    },
    {
      "time": 213840,
      "track": 1,
      "noteNumber": 76,
      "velocity": 63,
      "ticks": 240
    },
    {
      "time": 213840,
      "track": 2,
      "noteNumber": 61,
      "velocity": 50,
      "ticks": 90
    },
    {
      "time": 214080,
      "track": 1,
      "noteNumber": 74,
      "velocity": 64,
      "ticks": 1920
    },
    {
      "time": 214080,
      "track": 2,
      "noteNumber": 50,
      "velocity": 54,
      "ticks": 90
    },
    {
      "time": 214080,
      "track": 1,
      "noteNumber": 78,
      "velocity": 64,
      "ticks": 1920
    },
    {
      "time": 214320,
      "track": 2,
      "noteNumber": 57,
      "velocity": 46,
      "ticks": 90
    },
    {
      "time": 214560,
      "track": 2,
      "noteNumber": 62,
      "velocity": 45,
      "ticks": 90
    },
    {
      "time": 214800,
      "track": 2,
      "noteNumber": 66,
      "velocity": 45,
      "ticks": 90
    },
    {
      "time": 215040,
      "track": 2,
      "noteNumber": 57,
      "velocity": 42,
      "ticks": 90
    },
    {
      "time": 215280,
      "track": 2,
      "noteNumber": 62,
      "velocity": 37,
      "ticks": 90
    },
    {
      "time": 215520,
      "track": 2,
      "noteNumber": 66,
      "velocity": 37,
      "ticks": 90
    },
    {
      "time": 215760,
      "track": 2,
      "noteNumber": 69,
      "velocity": 37,
      "ticks": 120
    },
    {
      "time": 216000,
      "track": 1,
      "noteNumber": 66,
      "velocity": 56,
      "ticks": 1320
    },
    {
      "time": 216240,
      "track": 2,
      "noteNumber": 62,
      "velocity": 37,
      "ticks": 120
    },
    {
      "time": 216480,
      "track": 2,
      "noteNumber": 61,
      "velocity": 36,
      "ticks": 120
    },
    {
      "time": 216720,
      "track": 2,
      "noteNumber": 59,
      "velocity": 36,
      "ticks": 120
    },
    {
      "time": 216960,
      "track": 2,
      "noteNumber": 57,
      "velocity": 46,
      "ticks": 90
    },
    {
      "time": 217200,
      "track": 2,
      "noteNumber": 61,
      "velocity": 36,
      "ticks": 90
    },
    {
      "time": 217440,
      "track": 2,
      "noteNumber": 57,
      "velocity": 41,
      "ticks": 90
    },
    {
      "time": 217440,
      "track": 1,
      "noteNumber": 73,
      "velocity": 53,
      "ticks": 120
    },
    {
      "time": 217680,
      "track": 2,
      "noteNumber": 54,
      "velocity": 36,
      "ticks": 90
    },
    {
      "time": 217920,
      "track": 1,
      "noteNumber": 71,
      "velocity": 56,
      "ticks": 1440
    },
    {
      "time": 217920,
      "track": 2,
      "noteNumber": 56,
      "velocity": 46,
      "ticks": 90
    },
    {
      "time": 218160,
      "track": 2,
      "noteNumber": 59,
      "velocity": 36,
      "ticks": 90
    },
    {
      "time": 218400,
      "track": 2,
      "noteNumber": 64,
      "velocity": 42,
      "ticks": 90
    },
    {
      "time": 218640,
      "track": 2,
      "noteNumber": 54,
      "velocity": 36,
      "ticks": 90
    },
    {
      "time": 218880,
      "track": 2,
      "noteNumber": 52,
      "velocity": 46,
      "ticks": 90
    },
    {
      "time": 219120,
      "track": 2,
      "noteNumber": 59,
      "velocity": 35,
      "ticks": 90
    },
    {
      "time": 219360,
      "track": 2,
      "noteNumber": 64,
      "velocity": 39,
      "ticks": 90
    },
    {
      "time": 219360,
      "track": 1,
      "noteNumber": 69,
      "velocity": 54,
      "ticks": 180
    },
    {
      "time": 219600,
      "track": 2,
      "noteNumber": 59,
      "velocity": 34,
      "ticks": 90
    },
    {
      "time": 219600,
      "track": 1,
      "noteNumber": 68,
      "velocity": 54,
      "ticks": 180
    },
    {
      "time": 219840,
      "track": 1,
      "noteNumber": 66,
      "velocity": 56,
      "ticks": 400
    },
    {
      "time": 219840,
      "track": 2,
      "noteNumber": 47,
      "velocity": 43,
      "ticks": 90
    },
    {
      "time": 220080,
      "track": 2,
      "noteNumber": 56,
      "velocity": 34,
      "ticks": 90
    },
    {
      "time": 220320,
      "track": 1,
      "noteNumber": 64,
      "velocity": 54,
      "ticks": 180
    },
    {
      "time": 220320,
      "track": 2,
      "noteNumber": 62,
      "velocity": 36,
      "ticks": 90
    },
    {
      "time": 220560,
      "track": 2,
      "noteNumber": 52,
      "velocity": 33,
      "ticks": 90
    },
    {
      "time": 220560,
      "track": 1,
      "noteNumber": 62,
      "velocity": 53,
      "ticks": 180
    },
    {
      "time": 220800,
      "track": 1,
      "noteNumber": 61,
      "velocity": 56,
      "ticks": 480
    },
    {
      "time": 220800,
      "track": 2,
      "noteNumber": 45,
      "velocity": 41,
      "ticks": 90
    },
    {
      "time": 221040,
      "track": 2,
      "noteNumber": 52,
      "velocity": 33,
      "ticks": 90
    },
    {
      "time": 221280,
      "track": 2,
      "noteNumber": 57,
      "velocity": 38,
      "ticks": 90
    },
    {
      "time": 221280,
      "track": 1,
      "noteNumber": 62,
      "velocity": 55,
      "ticks": 240
    },
    {
      "time": 221520,
      "track": 1,
      "noteNumber": 64,
      "velocity": 56,
      "ticks": 240
    },
    {
      "time": 221520,
      "track": 2,
      "noteNumber": 52,
      "velocity": 36,
      "ticks": 90
    },
    {
      "time": 221760,
      "track": 1,
      "noteNumber": 66,
      "velocity": 62,
      "ticks": 480
    },
    {
      "time": 221760,
      "track": 2,
      "noteNumber": 50,
      "velocity": 47,
      "ticks": 90
    },
    {
      "time": 222000,
      "track": 2,
      "noteNumber": 57,
      "velocity": 38,
      "ticks": 90
    },
    {
      "time": 222240,
      "track": 1,
      "noteNumber": 69,
      "velocity": 63,
      "ticks": 480
    },
    {
      "time": 222240,
      "track": 2,
      "noteNumber": 62,
      "velocity": 44,
      "ticks": 90
    },
    {
      "time": 222480,
      "track": 2,
      "noteNumber": 49,
      "velocity": 40,
      "ticks": 90
    },
    {
      "time": 222720,
      "track": 1,
      "noteNumber": 66,
      "velocity": 68,
      "ticks": 2880
    },
    {
      "time": 222720,
      "track": 2,
      "noteNumber": 48,
      "velocity": 55,
      "ticks": 90
    },
    {
      "time": 222720,
      "track": 1,
      "noteNumber": 68,
      "velocity": 68,
      "ticks": 2880
    },
    {
      "time": 222960,
      "track": 2,
      "noteNumber": 56,
      "velocity": 42,
      "ticks": 90
    },
    {
      "time": 223200,
      "track": 2,
      "noteNumber": 63,
      "velocity": 48,
      "ticks": 90
    },
    {
      "time": 223440,
      "track": 2,
      "noteNumber": 56,
      "velocity": 42,
      "ticks": 90
    },
    {
      "time": 223680,
      "track": 2,
      "noteNumber": 48,
      "velocity": 49,
      "ticks": 90
    },
    {
      "time": 223920,
      "track": 2,
      "noteNumber": 56,
      "velocity": 38,
      "ticks": 90
    },
    {
      "time": 224160,
      "track": 2,
      "noteNumber": 63,
      "velocity": 45,
      "ticks": 90
    },
    {
      "time": 224400,
      "track": 2,
      "noteNumber": 56,
      "velocity": 39,
      "ticks": 90
    },
    {
      "time": 224640,
      "track": 2,
      "noteNumber": 48,
      "velocity": 46,
      "ticks": 90
    },
    {
      "time": 224880,
      "track": 2,
      "noteNumber": 56,
      "velocity": 36,
      "ticks": 90
    },
    {
      "time": 225120,
      "track": 2,
      "noteNumber": 63,
      "velocity": 41,
      "ticks": 90
    },
    {
      "time": 225360,
      "track": 2,
      "noteNumber": 56,
      "velocity": 36,
      "ticks": 90
    },
    {
      "time": 225600,
      "track": 1,
      "noteNumber": 69,
      "velocity": 61,
      "ticks": 480
    },
    {
      "time": 225600,
      "track": 2,
      "noteNumber": 49,
      "velocity": 50,
      "ticks": 90
    },
    {
      "time": 225600,
      "track": 1,
      "noteNumber": 66,
      "velocity": 61,
      "ticks": 480
    },
    {
      "time": 225840,
      "track": 2,
      "noteNumber": 57,
      "velocity": 46,
      "ticks": 90
    },
    {
      "time": 226080,
      "track": 1,
      "noteNumber": 76,
      "velocity": 60,
      "ticks": 120
    },
    {
      "time": 226080,
      "track": 1,
      "noteNumber": 80,
      "velocity": 60,
      "ticks": 120
    },
    {
      "time": 226080,
      "track": 2,
      "noteNumber": 64,
      "velocity": 50,
      "ticks": 90
    },
    {
      "time": 226320,
      "track": 2,
      "noteNumber": 57,
      "velocity": 48,
      "ticks": 90
    },
    {
      "time": 226560,
      "track": 1,
      "noteNumber": 68,
      "velocity": 59,
      "ticks": 480
    },
    {
      "time": 226560,
      "track": 2,
      "noteNumber": 48,
      "velocity": 50,
      "ticks": 90
    },
    {
      "time": 226560,
      "track": 1,
      "noteNumber": 66,
      "velocity": 59,
      "ticks": 480
    },
    {
      "time": 226800,
      "track": 2,
      "noteNumber": 56,
      "velocity": 39,
      "ticks": 90
    },
    {
      "time": 227040,
      "track": 2,
      "noteNumber": 63,
      "velocity": 45,
      "ticks": 90
    },
    {
      "time": 227280,
      "track": 2,
      "noteNumber": 56,
      "velocity": 39,
      "ticks": 90
    },
    {
      "time": 227520,
      "track": 1,
      "noteNumber": 66,
      "velocity": 53,
      "ticks": 480
    },
    {
      "time": 227520,
      "track": 1,
      "noteNumber": 62,
      "velocity": 53,
      "ticks": 480
    },
    {
      "time": 227520,
      "track": 2,
      "noteNumber": 47,
      "velocity": 50,
      "ticks": 90
    },
    {
      "time": 227760,
      "track": 2,
      "noteNumber": 52,
      "velocity": 46,
      "ticks": 90
    },
    {
      "time": 228000,
      "track": 2,
      "noteNumber": 56,
      "velocity": 50,
      "ticks": 90
    },
    {
      "time": 228000,
      "track": 2,
      "noteNumber": 62,
      "velocity": 50,
      "ticks": 90
    },
    {
      "time": 228000,
      "track": 1,
      "noteNumber": 73,
      "velocity": 57,
      "ticks": 120
    },
    {
      "time": 228000,
      "track": 1,
      "noteNumber": 76,
      "velocity": 57,
      "ticks": 120
    },
    {
      "time": 228240,
      "track": 2,
      "noteNumber": 52,
      "velocity": 48,
      "ticks": 90
    },
    {
      "time": 228480,
      "track": 2,
      "noteNumber": 45,
      "velocity": 50,
      "ticks": 90
    },
    {
      "time": 228480,
      "track": 1,
      "noteNumber": 64,
      "velocity": 55,
      "ticks": 480
    },
    {
      "time": 228480,
      "track": 1,
      "noteNumber": 61,
      "velocity": 55,
      "ticks": 480
    },
    {
      "time": 228720,
      "track": 2,
      "noteNumber": 52,
      "velocity": 42,
      "ticks": 90
    },
    {
      "time": 228960,
      "track": 2,
      "noteNumber": 57,
      "velocity": 47,
      "ticks": 90
    },
    {
      "time": 229200,
      "track": 2,
      "noteNumber": 52,
      "velocity": 44,
      "ticks": 90
    },
    {
      "time": 229440,
      "track": 2,
      "noteNumber": 42,
      "velocity": 55,
      "ticks": 90
    },
    {
      "time": 229440,
      "track": 1,
      "noteNumber": 63,
      "velocity": 66,
      "ticks": 480
    },
    {
      "time": 229440,
      "track": 1,
      "noteNumber": 59,
      "velocity": 66,
      "ticks": 480
    },
    {
      "time": 229680,
      "track": 2,
      "noteNumber": 47,
      "velocity": 50,
      "ticks": 90
    },
    {
      "time": 229920,
      "track": 2,
      "noteNumber": 57,
      "velocity": 55,
      "ticks": 90
    },
    {
      "time": 229920,
      "track": 1,
      "noteNumber": 69,
      "velocity": 69,
      "ticks": 150
    },
    {
      "time": 229920,
      "track": 1,
      "noteNumber": 73,
      "velocity": 69,
      "ticks": 150
    },
    {
      "time": 230160,
      "track": 2,
      "noteNumber": 47,
      "velocity": 52,
      "ticks": 90
    },
    {
      "time": 230400,
      "track": 2,
      "noteNumber": 37,
      "velocity": 66,
      "ticks": 90
    },
    {
      "time": 230400,
      "track": 1,
      "noteNumber": 56,
      "velocity": 69,
      "ticks": 2860
    },
    {
      "time": 230400,
      "track": 1,
      "noteNumber": 61,
      "velocity": 69,
      "ticks": 2860
    },
    {
      "time": 230640,
      "track": 2,
      "noteNumber": 44,
      "velocity": 57,
      "ticks": 90
    },
    {
      "time": 230880,
      "track": 2,
      "noteNumber": 53,
      "velocity": 61,
      "ticks": 90
    },
    {
      "time": 231120,
      "track": 2,
      "noteNumber": 44,
      "velocity": 57,
      "ticks": 90
    },
    {
      "time": 231360,
      "track": 2,
      "noteNumber": 37,
      "velocity": 66,
      "ticks": 90
    },
    {
      "time": 231600,
      "track": 2,
      "noteNumber": 44,
      "velocity": 57,
      "ticks": 90
    },
    {
      "time": 231840,
      "track": 2,
      "noteNumber": 53,
      "velocity": 61,
      "ticks": 90
    },
    {
      "time": 232080,
      "track": 2,
      "noteNumber": 44,
      "velocity": 57,
      "ticks": 90
    },
    {
      "time": 232320,
      "track": 2,
      "noteNumber": 37,
      "velocity": 66,
      "ticks": 90
    },
    {
      "time": 232560,
      "track": 2,
      "noteNumber": 44,
      "velocity": 57,
      "ticks": 90
    },
    {
      "time": 232800,
      "track": 2,
      "noteNumber": 53,
      "velocity": 61,
      "ticks": 90
    },
    {
      "time": 233040,
      "track": 2,
      "noteNumber": 44,
      "velocity": 57,
      "ticks": 90
    },
    {
      "time": 233280,
      "track": 2,
      "noteNumber": 37,
      "velocity": 46,
      "ticks": 90
    },
    {
      "time": 233280,
      "track": 1,
      "noteNumber": 55,
      "velocity": 47,
      "ticks": 480
    },
    {
      "time": 233280,
      "track": 1,
      "noteNumber": 59,
      "velocity": 47,
      "ticks": 480
    },
    {
      "time": 233520,
      "track": 2,
      "noteNumber": 45,
      "velocity": 42,
      "ticks": 90
    },
    {
      "time": 233760,
      "track": 2,
      "noteNumber": 52,
      "velocity": 46,
      "ticks": 90
    },
    {
      "time": 233760,
      "track": 1,
      "noteNumber": 71,
      "velocity": 51,
      "ticks": 150
    },
    {
      "time": 233760,
      "track": 1,
      "noteNumber": 67,
      "velocity": 51,
      "ticks": 150
    },
    {
      "time": 234000,
      "track": 2,
      "noteNumber": 45,
      "velocity": 44,
      "ticks": 90
    },
    {
      "time": 234240,
      "track": 1,
      "noteNumber": 61,
      "velocity": 50,
      "ticks": 2860
    },
    {
      "time": 234240,
      "track": 1,
      "noteNumber": 56,
      "velocity": 50,
      "ticks": 2860
    },
    {
      "time": 234240,
      "track": 2,
      "noteNumber": 37,
      "velocity": 48,
      "ticks": 90
    },
    {
      "time": 234480,
      "track": 2,
      "noteNumber": 44,
      "velocity": 40,
      "ticks": 90
    },
    {
      "time": 234720,
      "track": 2,
      "noteNumber": 53,
      "velocity": 43,
      "ticks": 90
    },
    {
      "time": 234960,
      "track": 2,
      "noteNumber": 44,
      "velocity": 39,
      "ticks": 90
    },
    {
      "time": 235200,
      "track": 2,
      "noteNumber": 37,
      "velocity": 45,
      "ticks": 90
    },
    {
      "time": 235440,
      "track": 2,
      "noteNumber": 44,
      "velocity": 38,
      "ticks": 90
    },
    {
      "time": 235680,
      "track": 2,
      "noteNumber": 53,
      "velocity": 41,
      "ticks": 90
    },
    {
      "time": 235920,
      "track": 2,
      "noteNumber": 44,
      "velocity": 37,
      "ticks": 90
    },
    {
      "time": 236160,
      "track": 2,
      "noteNumber": 37,
      "velocity": 43,
      "ticks": 90
    },
    {
      "time": 236400,
      "track": 2,
      "noteNumber": 44,
      "velocity": 37,
      "ticks": 90
    },
    {
      "time": 236640,
      "track": 2,
      "noteNumber": 53,
      "velocity": 39,
      "ticks": 90
    },
    {
      "time": 236880,
      "track": 2,
      "noteNumber": 44,
      "velocity": 36,
      "ticks": 90
    },
    {
      "time": 237120,
      "track": 2,
      "noteNumber": 37,
      "velocity": 39,
      "ticks": 90
    },
    {
      "time": 237120,
      "track": 1,
      "noteNumber": 59,
      "velocity": 38,
      "ticks": 480
    },
    {
      "time": 237120,
      "track": 1,
      "noteNumber": 55,
      "velocity": 38,
      "ticks": 480
    },
    {
      "time": 237360,
      "track": 2,
      "noteNumber": 45,
      "velocity": 35,
      "ticks": 90
    },
    {
      "time": 237600,
      "track": 1,
      "noteNumber": 71,
      "velocity": 39,
      "ticks": 360
    },
    {
      "time": 237600,
      "track": 2,
      "noteNumber": 52,
      "velocity": 39,
      "ticks": 90
    },
    {
      "time": 237600,
      "track": 1,
      "noteNumber": 67,
      "velocity": 39,
      "ticks": 360
    },
    {
      "time": 237840,
      "track": 2,
      "noteNumber": 45,
      "velocity": 37,
      "ticks": 90
    },
    {
      "time": 238080,
      "track": 2,
      "noteNumber": 38,
      "velocity": 28,
      "ticks": 240
    },
    {
      "time": 238080,
      "track": 1,
      "noteNumber": 54,
      "velocity": 39,
      "ticks": 240
    },
    {
      "time": 238080,
      "track": 1,
      "noteNumber": 57,
      "velocity": 39,
      "ticks": 240
    },
    {
      "time": 238320,
      "track": 2,
      "noteNumber": 45,
      "velocity": 27,
      "ticks": 240
    },
    {
      "time": 238400,
      "track": 1,
      "noteNumber": 54,
      "velocity": 38,
      "ticks": 240
    },
    {
      "time": 238560,
      "track": 2,
      "noteNumber": 50,
      "velocity": 27,
      "ticks": 240
    },
    {
      "time": 238720,
      "track": 1,
      "noteNumber": 54,
      "velocity": 38,
      "ticks": 240
    },
    {
      "time": 238800,
      "track": 2,
      "noteNumber": 45,
      "velocity": 27,
      "ticks": 240
    },
    {
      "time": 239040,
      "track": 1,
      "noteNumber": 54,
      "velocity": 41,
      "ticks": 480
    },
    {
      "time": 239040,
      "track": 2,
      "noteNumber": 38,
      "velocity": 28,
      "ticks": 240
    },
    {
      "time": 239280,
      "track": 2,
      "noteNumber": 45,
      "velocity": 26,
      "ticks": 240
    },
    {
      "time": 239520,
      "track": 2,
      "noteNumber": 50,
      "velocity": 26,
      "ticks": 240
    },
    {
      "time": 239520,
      "track": 1,
      "noteNumber": 57,
      "velocity": 38,
      "ticks": 480
    },
    {
      "time": 239520,
      "track": 1,
      "noteNumber": 54,
      "velocity": 38,
      "ticks": 480
    },
    {
      "time": 239760,
      "track": 2,
      "noteNumber": 45,
      "velocity": 26,
      "ticks": 240
    },
    {
      "time": 240000,
      "track": 1,
      "noteNumber": 59,
      "velocity": 39,
      "ticks": 240
    },
    {
      "time": 240000,
      "track": 1,
      "noteNumber": 54,
      "velocity": 39,
      "ticks": 240
    },
    {
      "time": 240000,
      "track": 2,
      "noteNumber": 38,
      "velocity": 28,
      "ticks": 240
    },
    {
      "time": 240240,
      "track": 2,
      "noteNumber": 44,
      "velocity": 25,
      "ticks": 240
    },
    {
      "time": 240320,
      "track": 1,
      "noteNumber": 59,
      "velocity": 39,
      "ticks": 240
    },
    {
      "time": 240320,
      "track": 1,
      "noteNumber": 54,
      "velocity": 39,
      "ticks": 240
    },
    {
      "time": 240480,
      "track": 2,
      "noteNumber": 50,
      "velocity": 25,
      "ticks": 240
    },
    {
      "time": 240640,
      "track": 1,
      "noteNumber": 54,
      "velocity": 39,
      "ticks": 240
    },
    {
      "time": 240640,
      "track": 1,
      "noteNumber": 59,
      "velocity": 39,
      "ticks": 240
    },
    {
      "time": 240720,
      "track": 2,
      "noteNumber": 44,
      "velocity": 25,
      "ticks": 240
    },
    {
      "time": 240960,
      "track": 1,
      "noteNumber": 54,
      "velocity": 39,
      "ticks": 240
    },
    {
      "time": 240960,
      "track": 1,
      "noteNumber": 59,
      "velocity": 39,
      "ticks": 240
    },
    {
      "time": 240960,
      "track": 2,
      "noteNumber": 38,
      "velocity": 28,
      "ticks": 240
    },
    {
      "time": 241200,
      "track": 2,
      "noteNumber": 44,
      "velocity": 25,
      "ticks": 240
    },
    {
      "time": 241280,
      "track": 1,
      "noteNumber": 61,
      "velocity": 38,
      "ticks": 240
    },
    {
      "time": 241280,
      "track": 1,
      "noteNumber": 54,
      "velocity": 38,
      "ticks": 240
    },
    {
      "time": 241440,
      "track": 2,
      "noteNumber": 50,
      "velocity": 25,
      "ticks": 240
    },
    {
      "time": 241600,
      "track": 1,
      "noteNumber": 59,
      "velocity": 38,
      "ticks": 240
    },
    {
      "time": 241600,
      "track": 1,
      "noteNumber": 54,
      "velocity": 38,
      "ticks": 240
    },
    {
      "time": 241680,
      "track": 2,
      "noteNumber": 44,
      "velocity": 25,
      "ticks": 240
    },
    {
      "time": 241920,
      "track": 1,
      "noteNumber": 57,
      "velocity": 39,
      "ticks": 240
    },
    {
      "time": 241920,
      "track": 1,
      "noteNumber": 54,
      "velocity": 39,
      "ticks": 240
    },
    {
      "time": 241920,
      "track": 2,
      "noteNumber": 38,
      "velocity": 28,
      "ticks": 240
    },
    {
      "time": 242160,
      "track": 2,
      "noteNumber": 45,
      "velocity": 27,
      "ticks": 240
    },
    {
      "time": 242240,
      "track": 1,
      "noteNumber": 54,
      "velocity": 38,
      "ticks": 240
    },
    {
      "time": 242400,
      "track": 2,
      "noteNumber": 50,
      "velocity": 27,
      "ticks": 240
    },
    {
      "time": 242560,
      "track": 1,
      "noteNumber": 54,
      "velocity": 38,
      "ticks": 240
    },
    {
      "time": 242640,
      "track": 2,
      "noteNumber": 45,
      "velocity": 27,
      "ticks": 240
    },
    {
      "time": 242880,
      "track": 1,
      "noteNumber": 54,
      "velocity": 39,
      "ticks": 480
    },
    {
      "time": 242880,
      "track": 2,
      "noteNumber": 38,
      "velocity": 28,
      "ticks": 240
    },
    {
      "time": 243120,
      "track": 2,
      "noteNumber": 45,
      "velocity": 25,
      "ticks": 240
    },
    {
      "time": 243360,
      "track": 2,
      "noteNumber": 50,
      "velocity": 25,
      "ticks": 240
    },
    {
      "time": 243360,
      "track": 1,
      "noteNumber": 57,
      "velocity": 39,
      "ticks": 480
    },
    {
      "time": 243360,
      "track": 1,
      "noteNumber": 54,
      "velocity": 39,
      "ticks": 480
    },
    {
      "time": 243600,
      "track": 2,
      "noteNumber": 45,
      "velocity": 25,
      "ticks": 240
    },
    {
      "time": 243840,
      "track": 1,
      "noteNumber": 54,
      "velocity": 39,
      "ticks": 1920
    },
    {
      "time": 243840,
      "track": 2,
      "noteNumber": 38,
      "velocity": 37,
      "ticks": 240
    },
    {
      "time": 243840,
      "track": 1,
      "noteNumber": 56,
      "velocity": 39,
      "ticks": 1920
    },
    {
      "time": 244080,
      "track": 2,
      "noteNumber": 47,
      "velocity": 33,
      "ticks": 240
    },
    {
      "time": 244320,
      "track": 2,
      "noteNumber": 50,
      "velocity": 33,
      "ticks": 240
    },
    {
      "time": 244560,
      "track": 2,
      "noteNumber": 54,
      "velocity": 33,
      "ticks": 240
    },
    {
      "time": 244800,
      "track": 2,
      "noteNumber": 56,
      "velocity": 33,
      "ticks": 240
    },
    {
      "time": 245040,
      "track": 2,
      "noteNumber": 59,
      "velocity": 33,
      "ticks": 240
    },
    {
      "time": 245280,
      "track": 1,
      "noteNumber": 62,
      "velocity": 35,
      "ticks": 240
    },
    {
      "time": 245520,
      "track": 1,
      "noteNumber": 66,
      "velocity": 35,
      "ticks": 240
    },
    {
      "time": 245760,
      "track": 1,
      "noteNumber": 62,
      "velocity": 36,
      "ticks": 240
    },
    {
      "time": 245760,
      "track": 2,
      "noteNumber": 38,
      "velocity": 28,
      "ticks": 240
    },
    {
      "time": 245760,
      "track": 1,
      "noteNumber": 66,
      "velocity": 36,
      "ticks": 240
    },
    {
      "time": 245760,
      "track": 1,
      "noteNumber": 69,
      "velocity": 36,
      "ticks": 240
    },
    {
      "time": 246000,
      "track": 2,
      "noteNumber": 45,
      "velocity": 27,
      "ticks": 240
    },
    {
      "time": 246080,
      "track": 1,
      "noteNumber": 62,
      "velocity": 35,
      "ticks": 240
    },
    {
      "time": 246080,
      "track": 1,
      "noteNumber": 66,
      "velocity": 35,
      "ticks": 240
    },
    {
      "time": 246240,
      "track": 2,
      "noteNumber": 50,
      "velocity": 27,
      "ticks": 240
    },
    {
      "time": 246400,
      "track": 1,
      "noteNumber": 62,
      "velocity": 35,
      "ticks": 240
    },
    {
      "time": 246400,
      "track": 1,
      "noteNumber": 66,
      "velocity": 35,
      "ticks": 240
    },
    {
      "time": 246480,
      "track": 2,
      "noteNumber": 54,
      "velocity": 27,
      "ticks": 240
    },
    {
      "time": 246720,
      "track": 2,
      "noteNumber": 57,
      "velocity": 28,
      "ticks": 240
    },
    {
      "time": 246720,
      "track": 1,
      "noteNumber": 66,
      "velocity": 38,
      "ticks": 480
    },
    {
      "time": 246720,
      "track": 1,
      "noteNumber": 62,
      "velocity": 38,
      "ticks": 480
    },
    {
      "time": 246960,
      "track": 2,
      "noteNumber": 54,
      "velocity": 26,
      "ticks": 240
    },
    {
      "time": 247200,
      "track": 1,
      "noteNumber": 62,
      "velocity": 35,
      "ticks": 480
    },
    {
      "time": 247200,
      "track": 1,
      "noteNumber": 66,
      "velocity": 35,
      "ticks": 480
    },
    {
      "time": 247200,
      "track": 2,
      "noteNumber": 50,
      "velocity": 26,
      "ticks": 240
    },
    {
      "time": 247200,
      "track": 1,
      "noteNumber": 69,
      "velocity": 35,
      "ticks": 480
    },
    {
      "time": 247440,
      "track": 2,
      "noteNumber": 45,
      "velocity": 26,
      "ticks": 240
    },
    {
      "time": 247680,
      "track": 2,
      "noteNumber": 38,
      "velocity": 28,
      "ticks": 240
    },
    {
      "time": 247680,
      "track": 1,
      "noteNumber": 66,
      "velocity": 36,
      "ticks": 240
    },
    {
      "time": 247680,
      "track": 1,
      "noteNumber": 62,
      "velocity": 36,
      "ticks": 240
    },
    {
      "time": 247680,
      "track": 1,
      "noteNumber": 71,
      "velocity": 36,
      "ticks": 240
    },
    {
      "time": 247920,
      "track": 2,
      "noteNumber": 44,
      "velocity": 25,
      "ticks": 240
    },
    {
      "time": 248000,
      "track": 1,
      "noteNumber": 71,
      "velocity": 36,
      "ticks": 240
    },
    {
      "time": 248000,
      "track": 1,
      "noteNumber": 66,
      "velocity": 36,
      "ticks": 240
    },
    {
      "time": 248000,
      "track": 1,
      "noteNumber": 62,
      "velocity": 36,
      "ticks": 240
    },
    {
      "time": 248160,
      "track": 2,
      "noteNumber": 50,
      "velocity": 25,
      "ticks": 240
    },
    {
      "time": 248320,
      "track": 1,
      "noteNumber": 71,
      "velocity": 36,
      "ticks": 240
    },
    {
      "time": 248320,
      "track": 1,
      "noteNumber": 62,
      "velocity": 36,
      "ticks": 240
    },
    {
      "time": 248320,
      "track": 1,
      "noteNumber": 66,
      "velocity": 36,
      "ticks": 240
    },
    {
      "time": 248400,
      "track": 2,
      "noteNumber": 54,
      "velocity": 25,
      "ticks": 240
    },
    {
      "time": 248640,
      "track": 1,
      "noteNumber": 66,
      "velocity": 36,
      "ticks": 240
    },
    {
      "time": 248640,
      "track": 1,
      "noteNumber": 62,
      "velocity": 36,
      "ticks": 240
    },
    {
      "time": 248640,
      "track": 2,
      "noteNumber": 56,
      "velocity": 28,
      "ticks": 240
    },
    {
      "time": 248640,
      "track": 1,
      "noteNumber": 71,
      "velocity": 36,
      "ticks": 240
    },
    {
      "time": 248880,
      "track": 2,
      "noteNumber": 54,
      "velocity": 25,
      "ticks": 240
    },
    {
      "time": 248960,
      "track": 1,
      "noteNumber": 64,
      "velocity": 35,
      "ticks": 240
    },
    {
      "time": 248960,
      "track": 1,
      "noteNumber": 73,
      "velocity": 35,
      "ticks": 240
    },
    {
      "time": 248960,
      "track": 1,
      "noteNumber": 66,
      "velocity": 35,
      "ticks": 240
    },
    {
      "time": 249120,
      "track": 2,
      "noteNumber": 50,
      "velocity": 25,
      "ticks": 240
    },
    {
      "time": 249280,
      "track": 1,
      "noteNumber": 66,
      "velocity": 35,
      "ticks": 240
    },
    {
      "time": 249280,
      "track": 1,
      "noteNumber": 62,
      "velocity": 35,
      "ticks": 240
    },
    {
      "time": 249280,
      "track": 1,
      "noteNumber": 71,
      "velocity": 35,
      "ticks": 240
    },
    {
      "time": 249360,
      "track": 2,
      "noteNumber": 44,
      "velocity": 25,
      "ticks": 240
    },
    {
      "time": 249600,
      "track": 1,
      "noteNumber": 62,
      "velocity": 36,
      "ticks": 240
    },
    {
      "time": 249600,
      "track": 1,
      "noteNumber": 69,
      "velocity": 36,
      "ticks": 240
    },
    {
      "time": 249600,
      "track": 2,
      "noteNumber": 38,
      "velocity": 28,
      "ticks": 240
    },
    {
      "time": 249600,
      "track": 1,
      "noteNumber": 66,
      "velocity": 36,
      "ticks": 240
    },
    {
      "time": 249840,
      "track": 2,
      "noteNumber": 45,
      "velocity": 27,
      "ticks": 240
    },
    {
      "time": 249920,
      "track": 1,
      "noteNumber": 62,
      "velocity": 36,
      "ticks": 240
    },
    {
      "time": 249920,
      "track": 1,
      "noteNumber": 66,
      "velocity": 35,
      "ticks": 240
    },
    {
      "time": 250080,
      "track": 2,
      "noteNumber": 50,
      "velocity": 27,
      "ticks": 240
    },
    {
      "time": 250240,
      "track": 1,
      "noteNumber": 66,
      "velocity": 35,
      "ticks": 240
    },
    {
      "time": 250240,
      "track": 1,
      "noteNumber": 62,
      "velocity": 36,
      "ticks": 240
    },
    {
      "time": 250320,
      "track": 2,
      "noteNumber": 54,
      "velocity": 27,
      "ticks": 240
    },
    {
      "time": 250560,
      "track": 1,
      "noteNumber": 62,
      "velocity": 36,
      "ticks": 480
    },
    {
      "time": 250560,
      "track": 2,
      "noteNumber": 57,
      "velocity": 28,
      "ticks": 240
    },
    {
      "time": 250560,
      "track": 1,
      "noteNumber": 66,
      "velocity": 36,
      "ticks": 480
    },
    {
      "time": 250800,
      "track": 2,
      "noteNumber": 54,
      "velocity": 25,
      "ticks": 240
    },
    {
      "time": 251040,
      "track": 1,
      "noteNumber": 61,
      "velocity": 36,
      "ticks": 480
    },
    {
      "time": 251040,
      "track": 1,
      "noteNumber": 62,
      "velocity": 36,
      "ticks": 480
    },
    {
      "time": 251040,
      "track": 1,
      "noteNumber": 66,
      "velocity": 36,
      "ticks": 480
    },
    {
      "time": 251040,
      "track": 1,
      "noteNumber": 69,
      "velocity": 36,
      "ticks": 480
    },
    {
      "time": 251040,
      "track": 2,
      "noteNumber": 50,
      "velocity": 25,
      "ticks": 240
    },
    {
      "time": 251280,
      "track": 2,
      "noteNumber": 45,
      "velocity": 25,
      "ticks": 240
    },
    {
      "time": 251520,
      "track": 1,
      "noteNumber": 66,
      "velocity": 39,
      "ticks": 1920
    },
    {
      "time": 251520,
      "track": 1,
      "noteNumber": 59,
      "velocity": 39,
      "ticks": 1920
    },
    {
      "time": 251520,
      "track": 1,
      "noteNumber": 68,
      "velocity": 39,
      "ticks": 1920
    },
    {
      "time": 251520,
      "track": 2,
      "noteNumber": 40,
      "velocity": 37,
      "ticks": 240
    },
    {
      "time": 251520,
      "track": 1,
      "noteNumber": 62,
      "velocity": 39,
      "ticks": 1920
    },
    {
      "time": 251760,
      "track": 2,
      "noteNumber": 47,
      "velocity": 33,
      "ticks": 240
    },
    {
      "time": 252000,
      "track": 2,
      "noteNumber": 52,
      "velocity": 33,
      "ticks": 240
    },
    {
      "time": 252240,
      "track": 2,
      "noteNumber": 54,
      "velocity": 33,
      "ticks": 240
    },
    {
      "time": 252480,
      "track": 2,
      "noteNumber": 56,
      "velocity": 36,
      "ticks": 240
    },
    {
      "time": 252720,
      "track": 2,
      "noteNumber": 54,
      "velocity": 33,
      "ticks": 240
    },
    {
      "time": 252960,
      "track": 2,
      "noteNumber": 56,
      "velocity": 33,
      "ticks": 240
    },
    {
      "time": 253200,
      "track": 2,
      "noteNumber": 59,
      "velocity": 33,
      "ticks": 240
    },
    {
      "time": 253440,
      "track": 2,
      "noteNumber": 62,
      "velocity": 38,
      "ticks": 480
    },
    {
      "time": 253680,
      "track": 2,
      "noteNumber": 59,
      "velocity": 33,
      "ticks": 240
    },
    {
      "time": 253920,
      "track": 2,
      "noteNumber": 62,
      "velocity": 36,
      "ticks": 240
    },
    {
      "time": 254160,
      "track": 2,
      "noteNumber": 64,
      "velocity": 36,
      "ticks": 240
    },
    {
      "time": 254400,
      "track": 1,
      "noteNumber": 66,
      "velocity": 36,
      "ticks": 240
    },
    {
      "time": 254640,
      "track": 1,
      "noteNumber": 68,
      "velocity": 35,
      "ticks": 240
    },
    {
      "time": 254880,
      "track": 1,
      "noteNumber": 71,
      "velocity": 35,
      "ticks": 240
    },
    {
      "time": 255120,
      "track": 1,
      "noteNumber": 74,
      "velocity": 36,
      "ticks": 240
    },
    {
      "time": 255360,
      "track": 1,
      "noteNumber": 78,
      "velocity": 43,
      "ticks": 240
    },
    {
      "time": 255600,
      "track": 1,
      "noteNumber": 74,
      "velocity": 39,
      "ticks": 240
    },
    {
      "time": 255840,
      "track": 1,
      "noteNumber": 71,
      "velocity": 39,
      "ticks": 240
    },
    {
      "time": 256080,
      "track": 2,
      "noteNumber": 66,
      "velocity": 36,
      "ticks": 1200
    },
    {
      "time": 256320,
      "track": 2,
      "noteNumber": 68,
      "velocity": 36,
      "ticks": 960
    },
    {
      "time": 256560,
      "track": 1,
      "noteNumber": 71,
      "velocity": 36,
      "ticks": 240
    },
    {
      "time": 256800,
      "track": 1,
      "noteNumber": 74,
      "velocity": 36,
      "ticks": 240
    },
    {
      "time": 257040,
      "track": 1,
      "noteNumber": 76,
      "velocity": 36,
      "ticks": 240
    },
    {
      "time": 257280,
      "track": 1,
      "noteNumber": 78,
      "velocity": 43,
      "ticks": 240
    },
    {
      "time": 257520,
      "track": 1,
      "noteNumber": 74,
      "velocity": 39,
      "ticks": 240
    },
    {
      "time": 257760,
      "track": 1,
      "noteNumber": 71,
      "velocity": 39,
      "ticks": 240
    },
    {
      "time": 258000,
      "track": 2,
      "noteNumber": 64,
      "velocity": 35,
      "ticks": 1200
    },
    {
      "time": 258240,
      "track": 2,
      "noteNumber": 68,
      "velocity": 35,
      "ticks": 960
    },
    {
      "time": 258480,
      "track": 1,
      "noteNumber": 71,
      "velocity": 35,
      "ticks": 240
    },
    {
      "time": 258720,
      "track": 1,
      "noteNumber": 74,
      "velocity": 35,
      "ticks": 240
    },
    {
      "time": 258960,
      "track": 1,
      "noteNumber": 76,
      "velocity": 35,
      "ticks": 240
    },
    {
      "time": 259200,
      "track": 1,
      "noteNumber": 78,
      "velocity": 41,
      "ticks": 240
    },
    {
      "time": 259440,
      "track": 1,
      "noteNumber": 74,
      "velocity": 37,
      "ticks": 240
    },
    {
      "time": 259680,
      "track": 1,
      "noteNumber": 71,
      "velocity": 36,
      "ticks": 240
    },
    {
      "time": 259920,
      "track": 2,
      "noteNumber": 66,
      "velocity": 33,
      "ticks": 1200
    },
    {
      "time": 260160,
      "track": 2,
      "noteNumber": 68,
      "velocity": 33,
      "ticks": 960
    },
    {
      "time": 260400,
      "track": 1,
      "noteNumber": 71,
      "velocity": 32,
      "ticks": 240
    },
    {
      "time": 260640,
      "track": 1,
      "noteNumber": 74,
      "velocity": 32,
      "ticks": 240
    },
    {
      "time": 260880,
      "track": 1,
      "noteNumber": 76,
      "velocity": 31,
      "ticks": 240
    },
    {
      "time": 261120,
      "track": 1,
      "noteNumber": 78,
      "velocity": 37,
      "ticks": 240
    },
    {
      "time": 261360,
      "track": 1,
      "noteNumber": 74,
      "velocity": 34,
      "ticks": 240
    },
    {
      "time": 261600,
      "track": 1,
      "noteNumber": 71,
      "velocity": 33,
      "ticks": 240
    },
    {
      "time": 261840,
      "track": 2,
      "noteNumber": 64,
      "velocity": 30,
      "ticks": 1200
    },
    {
      "time": 262080,
      "track": 2,
      "noteNumber": 68,
      "velocity": 30,
      "ticks": 960
    },
    {
      "time": 262320,
      "track": 1,
      "noteNumber": 71,
      "velocity": 30,
      "ticks": 240
    },
    {
      "time": 262560,
      "track": 1,
      "noteNumber": 74,
      "velocity": 29,
      "ticks": 240
    },
    {
      "time": 262800,
      "track": 1,
      "noteNumber": 76,
      "velocity": 28,
      "ticks": 240
    },
    {
      "time": 263040,
      "track": 1,
      "noteNumber": 78,
      "velocity": 47,
      "ticks": 480
    },
    {
      "time": 263280,
      "track": 2,
      "noteNumber": 54,
      "velocity": 27,
      "ticks": 240
    },
    {
      "time": 263520,
      "track": 2,
      "noteNumber": 61,
      "velocity": 27,
      "ticks": 240
    },
    {
      "time": 263520,
      "track": 1,
      "noteNumber": 85,
      "velocity": 47,
      "ticks": 480
    },
    {
      "time": 263520,
      "track": 2,
      "noteNumber": 66,
      "velocity": 27,
      "ticks": 240
    },
    {
      "time": 263760,
      "track": 2,
      "noteNumber": 69,
      "velocity": 27,
      "ticks": 240
    },
    {
      "time": 264000,
      "track": 1,
      "noteNumber": 78,
      "velocity": 36,
      "ticks": 960
    },
    {
      "time": 264000,
      "track": 1,
      "noteNumber": 81,
      "velocity": 36,
      "ticks": 960
    },
    {
      "time": 264000,
      "track": 1,
      "noteNumber": 84,
      "velocity": 49,
      "ticks": 960
    },
    {
      "time": 264240,
      "track": 2,
      "noteNumber": 57,
      "velocity": 27,
      "ticks": 240
    },
    {
      "time": 264480,
      "track": 2,
      "noteNumber": 66,
      "velocity": 27,
      "ticks": 240
    },
    {
      "time": 264480,
      "track": 2,
      "noteNumber": 62,
      "velocity": 27,
      "ticks": 240
    },
    {
      "time": 264720,
      "track": 2,
      "noteNumber": 72,
      "velocity": 27,
      "ticks": 240
    },
    {
      "time": 264960,
      "track": 1,
      "noteNumber": 85,
      "velocity": 47,
      "ticks": 480
    },
    {
      "time": 265200,
      "track": 2,
      "noteNumber": 61,
      "velocity": 27,
      "ticks": 240
    },
    {
      "time": 265440,
      "track": 2,
      "noteNumber": 66,
      "velocity": 27,
      "ticks": 240
    },
    {
      "time": 265440,
      "track": 1,
      "noteNumber": 78,
      "velocity": 36,
      "ticks": 480
    },
    {
      "time": 265440,
      "track": 1,
      "noteNumber": 88,
      "velocity": 47,
      "ticks": 480
    },
    {
      "time": 265440,
      "track": 1,
      "noteNumber": 81,
      "velocity": 36,
      "ticks": 480
    },
    {
      "time": 265680,
      "track": 2,
      "noteNumber": 76,
      "velocity": 27,
      "ticks": 240
    },
    {
      "time": 265920,
      "track": 1,
      "noteNumber": 87,
      "velocity": 49,
      "ticks": 320
    },
    {
      "time": 266160,
      "track": 2,
      "noteNumber": 59,
      "velocity": 23,
      "ticks": 240
    },
    {
      "time": 266240,
      "track": 1,
      "noteNumber": 83,
      "velocity": 45,
      "ticks": 320
    },
    {
      "time": 266240,
      "track": 1,
      "noteNumber": 78,
      "velocity": 36,
      "ticks": 320
    },
    {
      "time": 266400,
      "track": 2,
      "noteNumber": 66,
      "velocity": 20,
      "ticks": 240
    },
    {
      "time": 266560,
      "track": 1,
      "noteNumber": 81,
      "velocity": 44,
      "ticks": 320
    },
    {
      "time": 266640,
      "track": 2,
      "noteNumber": 75,
      "velocity": 21,
      "ticks": 240
    },
    {
      "time": 266880,
      "track": 1,
      "noteNumber": 78,
      "velocity": 47,
      "ticks": 480
    },
    {
      "time": 267120,
      "track": 2,
      "noteNumber": 54,
      "velocity": 27,
      "ticks": 240
    },
    {
      "time": 267360,
      "track": 2,
      "noteNumber": 66,
      "velocity": 27,
      "ticks": 240
    },
    {
      "time": 267360,
      "track": 2,
      "noteNumber": 61,
      "velocity": 27,
      "ticks": 240
    },
    {
      "time": 267360,
      "track": 1,
      "noteNumber": 85,
      "velocity": 47,
      "ticks": 480
    },
    {
      "time": 267600,
      "track": 2,
      "noteNumber": 69,
      "velocity": 27,
      "ticks": 240
    },
    {
      "time": 267840,
      "track": 1,
      "noteNumber": 84,
      "velocity": 49,
      "ticks": 960
    },
    {
      "time": 267840,
      "track": 1,
      "noteNumber": 78,
      "velocity": 36,
      "ticks": 960
    },
    {
      "time": 267840,
      "track": 1,
      "noteNumber": 81,
      "velocity": 36,
      "ticks": 960
    },
    {
      "time": 268080,
      "track": 2,
      "noteNumber": 57,
      "velocity": 27,
      "ticks": 240
    },
    {
      "time": 268320,
      "track": 2,
      "noteNumber": 66,
      "velocity": 27,
      "ticks": 240
    },
    {
      "time": 268320,
      "track": 2,
      "noteNumber": 62,
      "velocity": 27,
      "ticks": 240
    },
    {
      "time": 268560,
      "track": 2,
      "noteNumber": 72,
      "velocity": 27,
      "ticks": 240
    },
    {
      "time": 268800,
      "track": 1,
      "noteNumber": 85,
      "velocity": 47,
      "ticks": 480
    },
    {
      "time": 269040,
      "track": 2,
      "noteNumber": 61,
      "velocity": 27,
      "ticks": 240
    },
    {
      "time": 269280,
      "track": 1,
      "noteNumber": 78,
      "velocity": 31,
      "ticks": 480
    },
    {
      "time": 269280,
      "track": 2,
      "noteNumber": 66,
      "velocity": 27,
      "ticks": 240
    },
    {
      "time": 269280,
      "track": 1,
      "noteNumber": 81,
      "velocity": 31,
      "ticks": 480
    },
    {
      "time": 269280,
      "track": 1,
      "noteNumber": 88,
      "velocity": 47,
      "ticks": 480
    },
    {
      "time": 269520,
      "track": 2,
      "noteNumber": 76,
      "velocity": 27,
      "ticks": 240
    },
    {
      "time": 269760,
      "track": 1,
      "noteNumber": 87,
      "velocity": 49,
      "ticks": 320
    },
    {
      "time": 270000,
      "track": 2,
      "noteNumber": 59,
      "velocity": 23,
      "ticks": 240
    },
    {
      "time": 270080,
      "track": 1,
      "noteNumber": 78,
      "velocity": 36,
      "ticks": 320
    },
    {
      "time": 270080,
      "track": 1,
      "noteNumber": 83,
      "velocity": 45,
      "ticks": 320
    },
    {
      "time": 270240,
      "track": 2,
      "noteNumber": 66,
      "velocity": 20,
      "ticks": 240
    },
    {
      "time": 270400,
      "track": 1,
      "noteNumber": 81,
      "velocity": 44,
      "ticks": 320
    },
    {
      "time": 270480,
      "track": 2,
      "noteNumber": 75,
      "velocity": 20,
      "ticks": 240
    },
    {
      "time": 270720,
      "track": 1,
      "noteNumber": 73,
      "velocity": 45,
      "ticks": 480
    },
    {
      "time": 270960,
      "track": 2,
      "noteNumber": 49,
      "velocity": 24,
      "ticks": 240
    },
    {
      "time": 271200,
      "track": 2,
      "noteNumber": 54,
      "velocity": 21,
      "ticks": 240
    },
    {
      "time": 271200,
      "track": 1,
      "noteNumber": 66,
      "velocity": 22,
      "ticks": 480
    },
    {
      "time": 271200,
      "track": 1,
      "noteNumber": 76,
      "velocity": 45,
      "ticks": 480
    },
    {
      "time": 271200,
      "track": 1,
      "noteNumber": 69,
      "velocity": 22,
      "ticks": 480
    },
    {
      "time": 271440,
      "track": 2,
      "noteNumber": 64,
      "velocity": 21,
      "ticks": 240
    },
    {
      "time": 271680,
      "track": 1,
      "noteNumber": 75,
      "velocity": 48,
      "ticks": 320
    },
    {
      "time": 271920,
      "track": 2,
      "noteNumber": 47,
      "velocity": 24,
      "ticks": 240
    },
    {
      "time": 272000,
      "track": 1,
      "noteNumber": 71,
      "velocity": 44,
      "ticks": 320
    },
    {
      "time": 272000,
      "track": 1,
      "noteNumber": 66,
      "velocity": 33,
      "ticks": 320
    },
    {
      "time": 272160,
      "track": 2,
      "noteNumber": 54,
      "velocity": 25,
      "ticks": 240
    },
    {
      "time": 272320,
      "track": 1,
      "noteNumber": 69,
      "velocity": 42,
      "ticks": 320
    },
    {
      "time": 272400,
      "track": 2,
      "noteNumber": 63,
      "velocity": 24,
      "ticks": 240
    },
    {
      "time": 272640,
      "track": 1,
      "noteNumber": 73,
      "velocity": 40,
      "ticks": 1920
    },
    {
      "time": 272640,
      "track": 2,
      "noteNumber": 45,
      "velocity": 34,
      "ticks": 240
    },
    {
      "time": 272880,
      "track": 2,
      "noteNumber": 51,
      "velocity": 31,
      "ticks": 240
    },
    {
      "time": 273120,
      "track": 2,
      "noteNumber": 54,
      "velocity": 31,
      "ticks": 240
    },
    {
      "time": 273360,
      "track": 2,
      "noteNumber": 57,
      "velocity": 30,
      "ticks": 240
    },
    {
      "time": 273600,
      "track": 2,
      "noteNumber": 61,
      "velocity": 35,
      "ticks": 240
    },
    {
      "time": 273840,
      "track": 1,
      "noteNumber": 63,
      "velocity": 32,
      "ticks": 240
    },
    {
      "time": 274080,
      "track": 1,
      "noteNumber": 66,
      "velocity": 32,
      "ticks": 240
    },
    {
      "time": 274320,
      "track": 1,
      "noteNumber": 69,
      "velocity": 32,
      "ticks": 240
    },
    {
      "time": 274560,
      "track": 1,
      "noteNumber": 73,
      "velocity": 33,
      "ticks": 240
    },
    {
      "time": 274800,
      "track": 2,
      "noteNumber": 75,
      "velocity": 31,
      "ticks": 240
    },
    {
      "time": 275040,
      "track": 2,
      "noteNumber": 78,
      "velocity": 30,
      "ticks": 240
    },
    {
      "time": 275280,
      "track": 2,
      "noteNumber": 81,
      "velocity": 30,
      "ticks": 240
    },
    {
      "time": 275520,
      "track": 2,
      "noteNumber": 85,
      "velocity": 33,
      "ticks": 240
    },
    {
      "time": 275760,
      "track": 1,
      "noteNumber": 87,
      "velocity": 32,
      "ticks": 240
    },
    {
      "time": 276000,
      "track": 1,
      "noteNumber": 90,
      "velocity": 32,
      "ticks": 240
    },
    {
      "time": 276240,
      "track": 1,
      "noteNumber": 93,
      "velocity": 31,
      "ticks": 240
    },
    {
      "time": 276480,
      "track": 1,
      "noteNumber": 95,
      "velocity": 36,
      "ticks": 1920
    },
    {
      "time": 276480,
      "track": 1,
      "noteNumber": 97,
      "velocity": 36,
      "ticks": 1920
    },
    {
      "time": 276480,
      "track": 2,
      "noteNumber": 44,
      "velocity": 32,
      "ticks": 240
    },
    {
      "time": 276720,
      "track": 2,
      "noteNumber": 53,
      "velocity": 30,
      "ticks": 240
    },
    {
      "time": 276960,
      "track": 2,
      "noteNumber": 56,
      "velocity": 30,
      "ticks": 240
    },
    {
      "time": 277200,
      "track": 2,
      "noteNumber": 59,
      "velocity": 30,
      "ticks": 240
    },
    {
      "time": 277440,
      "track": 1,
      "noteNumber": 65,
      "velocity": 32,
      "ticks": 240
    },
    {
      "time": 277440,
      "track": 2,
      "noteNumber": 61,
      "velocity": 34,
      "ticks": 240
    },
    {
      "time": 277680,
      "track": 1,
      "noteNumber": 68,
      "velocity": 32,
      "ticks": 240
    },
    {
      "time": 277920,
      "track": 1,
      "noteNumber": 71,
      "velocity": 32,
      "ticks": 240
    },
    {
      "time": 278160,
      "track": 1,
      "noteNumber": 73,
      "velocity": 32,
      "ticks": 240
    },
    {
      "time": 278400,
      "track": 2,
      "noteNumber": 77,
      "velocity": 33,
      "ticks": 240
    },
    {
      "time": 278640,
      "track": 2,
      "noteNumber": 80,
      "velocity": 31,
      "ticks": 240
    },
    {
      "time": 278880,
      "track": 2,
      "noteNumber": 83,
      "velocity": 30,
      "ticks": 240
    },
    {
      "time": 279120,
      "track": 2,
      "noteNumber": 85,
      "velocity": 30,
      "ticks": 240
    },
    {
      "time": 279360,
      "track": 1,
      "noteNumber": 89,
      "velocity": 31,
      "ticks": 240
    },
    {
      "time": 279600,
      "track": 1,
      "noteNumber": 92,
      "velocity": 30,
      "ticks": 240
    },
    {
      "time": 279840,
      "track": 1,
      "noteNumber": 95,
      "velocity": 29,
      "ticks": 240
    },
    {
      "time": 280080,
      "track": 1,
      "noteNumber": 97,
      "velocity": 28,
      "ticks": 240
    },
    {
      "time": 280320,
      "track": 1,
      "noteNumber": 97,
      "velocity": 32,
      "ticks": 240
    },
    {
      "time": 280320,
      "track": 1,
      "noteNumber": 102,
      "velocity": 32,
      "ticks": 240
    },
    {
      "time": 280320,
      "track": 2,
      "noteNumber": 42,
      "velocity": 30,
      "ticks": 960
    },
    {
      "time": 280320,
      "track": 2,
      "noteNumber": 37,
      "velocity": 30,
      "ticks": 960
    },
    {
      "time": 280320,
      "track": 2,
      "noteNumber": 30,
      "velocity": 30,
      "ticks": 960
    },
    {
      "time": 280560,
      "track": 1,
      "noteNumber": 90,
      "velocity": 32,
      "ticks": 240
    },
    {
      "time": 280800,
      "track": 1,
      "noteNumber": 102,
      "velocity": 32,
      "ticks": 240
    },
    {
      "time": 280800,
      "track": 1,
      "noteNumber": 97,
      "velocity": 32,
      "ticks": 240
    },
    {
      "time": 281040,
      "track": 1,
      "noteNumber": 90,
      "velocity": 32,
      "ticks": 240
    },
    {
      "time": 281280,
      "track": 1,
      "noteNumber": 97,
      "velocity": 30,
      "ticks": 240
    },
    {
      "time": 281280,
      "track": 2,
      "noteNumber": 49,
      "velocity": 30,
      "ticks": 960
    },
    {
      "time": 281280,
      "track": 2,
      "noteNumber": 37,
      "velocity": 30,
      "ticks": 960
    },
    {
      "time": 281280,
      "track": 2,
      "noteNumber": 42,
      "velocity": 30,
      "ticks": 960
    },
    {
      "time": 281280,
      "track": 1,
      "noteNumber": 90,
      "velocity": 30,
      "ticks": 240
    },
    {
      "time": 281520,
      "track": 1,
      "noteNumber": 85,
      "velocity": 30,
      "ticks": 240
    },
    {
      "time": 281760,
      "track": 1,
      "noteNumber": 90,
      "velocity": 30,
      "ticks": 240
    },
    {
      "time": 281760,
      "track": 1,
      "noteNumber": 97,
      "velocity": 30,
      "ticks": 240
    },
    {
      "time": 282000,
      "track": 1,
      "noteNumber": 85,
      "velocity": 30,
      "ticks": 240
    },
    {
      "time": 282240,
      "track": 2,
      "noteNumber": 47,
      "velocity": 30,
      "ticks": 1920
    },
    {
      "time": 282240,
      "track": 2,
      "noteNumber": 42,
      "velocity": 30,
      "ticks": 1920
    },
    {
      "time": 282240,
      "track": 2,
      "noteNumber": 35,
      "velocity": 30,
      "ticks": 1920
    },
    {
      "time": 282240,
      "track": 1,
      "noteNumber": 90,
      "velocity": 32,
      "ticks": 240
    },
    {
      "time": 282240,
      "track": 1,
      "noteNumber": 99,
      "velocity": 32,
      "ticks": 240
    },
    {
      "time": 282480,
      "track": 1,
      "noteNumber": 87,
      "velocity": 32,
      "ticks": 240
    },
    {
      "time": 282720,
      "track": 1,
      "noteNumber": 99,
      "velocity": 32,
      "ticks": 240
    },
    {
      "time": 282720,
      "track": 1,
      "noteNumber": 90,
      "velocity": 32,
      "ticks": 240
    },
    {
      "time": 282960,
      "track": 1,
      "noteNumber": 87,
      "velocity": 32,
      "ticks": 240
    },
    {
      "time": 283200,
      "track": 1,
      "noteNumber": 90,
      "velocity": 30,
      "ticks": 240
    },
    {
      "time": 283200,
      "track": 1,
      "noteNumber": 95,
      "velocity": 30,
      "ticks": 240
    },
    {
      "time": 283440,
      "track": 1,
      "noteNumber": 83,
      "velocity": 30,
      "ticks": 240
    },
    {
      "time": 283680,
      "track": 1,
      "noteNumber": 90,
      "velocity": 30,
      "ticks": 240
    },
    {
      "time": 283680,
      "track": 1,
      "noteNumber": 95,
      "velocity": 30,
      "ticks": 240
    },
    {
      "time": 283920,
      "track": 1,
      "noteNumber": 83,
      "velocity": 30,
      "ticks": 240
    },
    {
      "time": 284160,
      "track": 1,
      "noteNumber": 85,
      "velocity": 32,
      "ticks": 240
    },
    {
      "time": 284160,
      "track": 1,
      "noteNumber": 90,
      "velocity": 32,
      "ticks": 240
    },
    {
      "time": 284160,
      "track": 2,
      "noteNumber": 42,
      "velocity": 30,
      "ticks": 960
    },
    {
      "time": 284160,
      "track": 2,
      "noteNumber": 37,
      "velocity": 30,
      "ticks": 960
    },
    {
      "time": 284160,
      "track": 2,
      "noteNumber": 30,
      "velocity": 30,
      "ticks": 960
    },
    {
      "time": 284400,
      "track": 1,
      "noteNumber": 78,
      "velocity": 32,
      "ticks": 240
    },
    {
      "time": 284640,
      "track": 1,
      "noteNumber": 85,
      "velocity": 32,
      "ticks": 240
    },
    {
      "time": 284640,
      "track": 1,
      "noteNumber": 90,
      "velocity": 32,
      "ticks": 240
    },
    {
      "time": 284880,
      "track": 1,
      "noteNumber": 78,
      "velocity": 32,
      "ticks": 240
    },
    {
      "time": 285120,
      "track": 2,
      "noteNumber": 49,
      "velocity": 30,
      "ticks": 960
    },
    {
      "time": 285120,
      "track": 2,
      "noteNumber": 42,
      "velocity": 30,
      "ticks": 960
    },
    {
      "time": 285120,
      "track": 2,
      "noteNumber": 37,
      "velocity": 30,
      "ticks": 960
    },
    {
      "time": 285120,
      "track": 1,
      "noteNumber": 85,
      "velocity": 30,
      "ticks": 240
    },
    {
      "time": 285120,
      "track": 1,
      "noteNumber": 78,
      "velocity": 30,
      "ticks": 240
    },
    {
      "time": 285360,
      "track": 1,
      "noteNumber": 73,
      "velocity": 30,
      "ticks": 240
    },
    {
      "time": 285600,
      "track": 1,
      "noteNumber": 78,
      "velocity": 30,
      "ticks": 240
    },
    {
      "time": 285600,
      "track": 1,
      "noteNumber": 85,
      "velocity": 30,
      "ticks": 240
    },
    {
      "time": 285840,
      "track": 1,
      "noteNumber": 73,
      "velocity": 30,
      "ticks": 240
    },
    {
      "time": 286080,
      "track": 2,
      "noteNumber": 35,
      "velocity": 30,
      "ticks": 1920
    },
    {
      "time": 286080,
      "track": 1,
      "noteNumber": 78,
      "velocity": 32,
      "ticks": 240
    },
    {
      "time": 286080,
      "track": 2,
      "noteNumber": 47,
      "velocity": 30,
      "ticks": 1920
    },
    {
      "time": 286080,
      "track": 1,
      "noteNumber": 87,
      "velocity": 32,
      "ticks": 240
    },
    {
      "time": 286080,
      "track": 2,
      "noteNumber": 42,
      "velocity": 30,
      "ticks": 1920
    },
    {
      "time": 286320,
      "track": 1,
      "noteNumber": 75,
      "velocity": 32,
      "ticks": 240
    },
    {
      "time": 286560,
      "track": 1,
      "noteNumber": 87,
      "velocity": 32,
      "ticks": 240
    },
    {
      "time": 286560,
      "track": 1,
      "noteNumber": 78,
      "velocity": 32,
      "ticks": 240
    },
    {
      "time": 286800,
      "track": 1,
      "noteNumber": 75,
      "velocity": 32,
      "ticks": 240
    },
    {
      "time": 287040,
      "track": 1,
      "noteNumber": 78,
      "velocity": 29,
      "ticks": 240
    },
    {
      "time": 287040,
      "track": 1,
      "noteNumber": 83,
      "velocity": 29,
      "ticks": 240
    },
    {
      "time": 287280,
      "track": 1,
      "noteNumber": 71,
      "velocity": 29,
      "ticks": 240
    },
    {
      "time": 287520,
      "track": 1,
      "noteNumber": 78,
      "velocity": 29,
      "ticks": 240
    },
    {
      "time": 287520,
      "track": 1,
      "noteNumber": 83,
      "velocity": 29,
      "ticks": 240
    },
    {
      "time": 287760,
      "track": 1,
      "noteNumber": 71,
      "velocity": 29,
      "ticks": 240
    },
    {
      "time": 288000,
      "track": 2,
      "noteNumber": 30,
      "velocity": 30,
      "ticks": 960
    },
    {
      "time": 288000,
      "track": 1,
      "noteNumber": 78,
      "velocity": 30,
      "ticks": 240
    },
    {
      "time": 288000,
      "track": 2,
      "noteNumber": 42,
      "velocity": 30,
      "ticks": 960
    },
    {
      "time": 288000,
      "track": 1,
      "noteNumber": 73,
      "velocity": 30,
      "ticks": 240
    },
    {
      "time": 288000,
      "track": 2,
      "noteNumber": 37,
      "velocity": 30,
      "ticks": 960
    },
    {
      "time": 288240,
      "track": 1,
      "noteNumber": 66,
      "velocity": 30,
      "ticks": 240
    },
    {
      "time": 288480,
      "track": 1,
      "noteNumber": 78,
      "velocity": 30,
      "ticks": 240
    },
    {
      "time": 288480,
      "track": 1,
      "noteNumber": 73,
      "velocity": 30,
      "ticks": 240
    },
    {
      "time": 288720,
      "track": 1,
      "noteNumber": 66,
      "velocity": 30,
      "ticks": 240
    },
    {
      "time": 288960,
      "track": 1,
      "noteNumber": 73,
      "velocity": 28,
      "ticks": 240
    },
    {
      "time": 288960,
      "track": 1,
      "noteNumber": 66,
      "velocity": 28,
      "ticks": 240
    },
    {
      "time": 288960,
      "track": 2,
      "noteNumber": 37,
      "velocity": 30,
      "ticks": 960
    },
    {
      "time": 288960,
      "track": 2,
      "noteNumber": 42,
      "velocity": 30,
      "ticks": 960
    },
    {
      "time": 288960,
      "track": 2,
      "noteNumber": 49,
      "velocity": 30,
      "ticks": 960
    },
    {
      "time": 289200,
      "track": 1,
      "noteNumber": 61,
      "velocity": 28,
      "ticks": 240
    },
    {
      "time": 289440,
      "track": 1,
      "noteNumber": 73,
      "velocity": 28,
      "ticks": 240
    },
    {
      "time": 289440,
      "track": 1,
      "noteNumber": 66,
      "velocity": 28,
      "ticks": 240
    },
    {
      "time": 289680,
      "track": 1,
      "noteNumber": 61,
      "velocity": 28,
      "ticks": 240
    },
    {
      "time": 289920,
      "track": 1,
      "noteNumber": 63,
      "velocity": 30,
      "ticks": 1920
    },
    {
      "time": 289920,
      "track": 1,
      "noteNumber": 66,
      "velocity": 30,
      "ticks": 1920
    },
    {
      "time": 289920,
      "track": 1,
      "noteNumber": 75,
      "velocity": 30,
      "ticks": 1920
    },
    {
      "time": 289920,
      "track": 2,
      "noteNumber": 35,
      "velocity": 30,
      "ticks": 240
    },
    {
      "time": 290160,
      "track": 2,
      "noteNumber": 42,
      "velocity": 30,
      "ticks": 240
    },
    {
      "time": 290400,
      "track": 2,
      "noteNumber": 47,
      "velocity": 30,
      "ticks": 240
    },
    {
      "time": 290640,
      "track": 2,
      "noteNumber": 51,
      "velocity": 30,
      "ticks": 240
    },
    {
      "time": 290880,
      "track": 2,
      "noteNumber": 54,
      "velocity": 30,
      "ticks": 240
    },
    {
      "time": 291120,
      "track": 2,
      "noteNumber": 59,
      "velocity": 30,
      "ticks": 240
    },
    {
      "time": 291360,
      "track": 2,
      "noteNumber": 63,
      "velocity": 30,
      "ticks": 240
    },
    {
      "time": 291600,
      "track": 2,
      "noteNumber": 66,
      "velocity": 30,
      "ticks": 240
    },
    {
      "time": 291840,
      "track": 2,
      "noteNumber": 71,
      "velocity": 30,
      "ticks": 240
    },
    {
      "time": 292080,
      "track": 1,
      "noteNumber": 75,
      "velocity": 30,
      "ticks": 240
    },
    {
      "time": 292320,
      "track": 1,
      "noteNumber": 78,
      "velocity": 30,
      "ticks": 240
    },
    {
      "time": 292560,
      "track": 1,
      "noteNumber": 83,
      "velocity": 30,
      "ticks": 240
    },
    {
      "time": 292800,
      "track": 1,
      "noteNumber": 87,
      "velocity": 29,
      "ticks": 240
    },
    {
      "time": 293040,
      "track": 1,
      "noteNumber": 90,
      "velocity": 29,
      "ticks": 240
    },
    {
      "time": 293280,
      "track": 1,
      "noteNumber": 95,
      "velocity": 28,
      "ticks": 240
    },
    {
      "time": 293520,
      "track": 1,
      "noteNumber": 99,
      "velocity": 28,
      "ticks": 240
    },
    {
      "time": 293760,
      "track": 2,
      "noteNumber": 42,
      "velocity": 27,
      "ticks": 240
    },
    {
      "time": 293760,
      "track": 1,
      "noteNumber": 97,
      "velocity": 27,
      "ticks": 240
    },
    {
      "time": 293760,
      "track": 1,
      "noteNumber": 102,
      "velocity": 27,
      "ticks": 240
    },
    {
      "time": 293760,
      "track": 1,
      "noteNumber": 90,
      "velocity": 27,
      "ticks": 240
    },
    {
      "time": 293760,
      "track": 2,
      "noteNumber": 37,
      "velocity": 27,
      "ticks": 240
    },
    {
      "time": 293760,
      "track": 2,
      "noteNumber": 30,
      "velocity": 27,
      "ticks": 240
    },
    {
      "time": 295680,
      "track": 1,
      "noteNumber": 78,
      "velocity": 24,
      "ticks": 240
    },
    {
      "time": 295680,
      "track": 1,
      "noteNumber": 66,
      "velocity": 24,
      "ticks": 240
    },
    {
      "time": 295680,
      "track": 1,
      "noteNumber": 73,
      "velocity": 24,
      "ticks": 240
    },
    {
      "time": 295680,
      "track": 2,
      "noteNumber": 42,
      "velocity": 23,
      "ticks": 240
    },
    {
      "time": 295680,
      "track": 2,
      "noteNumber": 49,
      "velocity": 23,
      "ticks": 240
    },
    {
      "time": 295680,
      "track": 2,
      "noteNumber": 57,
      "velocity": 23,
      "ticks": 240
    },
    {
      "time": 297600,
      "track": 1,
      "noteNumber": 78,
      "velocity": 26,
      "ticks": 240
    },
    {
      "time": 297600,
      "track": 1,
      "noteNumber": 90,
      "velocity": 26,
      "ticks": 240
    },
    {
      "time": 297600,
      "track": 2,
      "noteNumber": 30,
      "velocity": 25,
      "ticks": 240
    },
    {
      "time": 297600,
      "track": 2,
      "noteNumber": 42,
      "velocity": 25,
      "ticks": 240
    }
  ]
}
