{
  "name": "prelude",
  "ticksPerBeat": 480,
  "tempo": 100,
  "events": [
    {
      "time": 1,
      "track": 2,
      "noteNumber": 29,
      "velocity": 87,
      "ticks": 240
    },
    {
      "time": 240,
      "track": 2,
      "noteNumber": 41,
      "velocity": 78,
      "ticks": 240
    },
    {
      "time": 480,
      "track": 2,
      "noteNumber": 48,
      "velocity": 81,
      "ticks": 220
    },
    {
      "time": 720,
      "track": 2,
      "noteNumber": 48,
      "velocity": 81,
      "ticks": 1680
    },
    {
      "time": 960,
      "track": 1,
      "noteNumber": 79,
      "velocity": 83,
      "ticks": 1080
    },
    {
      "time": 960,
      "track": 1,
      "noteNumber": 67,
      "velocity": 70,
      "ticks": 1440
    },
    {
      "time": 960,
      "track": 2,
      "noteNumber": 62,
      "velocity": 70,
      "ticks": 1440
    },
    {
      "time": 960,
      "track": 2,
      "noteNumber": 58,
      "velocity": 58,
      "ticks": 1440
    },
    {
      "time": 960,
      "track": 2,
      "noteNumber": 55,
      "velocity": 58,
      "ticks": 1440
    },
    {
      "time": 960,
      "track": 1,
      "noteNumber": 70,
      "velocity": 70,
      "ticks": 1440
    },
    {
      "time": 960,
      "track": 1,
      "noteNumber": 74,
      "velocity": 70,
      "ticks": 1440
    },
    {
      "time": 2040,
      "track": 1,
      "noteNumber": 81,
      "velocity": 53,
      "ticks": 120
    },
    {
      "time": 2160,
      "track": 1,
      "noteNumber": 82,
      "velocity": 53,
      "ticks": 120
    },
    {
      "time": 2280,
      "track": 1,
      "noteNumber": 81,
      "velocity": 53,
      "ticks": 120
    },
    {
      "time": 2400,
      "track": 1,
      "noteNumber": 79,
      "velocity": 56,
      "ticks": 120
    },
    {
      "time": 2520,
      "track": 1,
      "noteNumber": 81,
      "velocity": 54,
      "ticks": 120
    },
    {
      "time": 2640,
      "track": 1,
      "noteNumber": 79,
      "velocity": 54,
      "ticks": 120
    },
    {
      "time": 2760,
      "track": 1,
      "noteNumber": 77,
      "velocity": 54,
      "ticks": 120
    },
    {
      "time": 2880,
      "track": 1,
      "noteNumber": 74,
      "velocity": 57,
      "ticks": 120
    },
    {
      "time": 3000,
      "track": 1,
      "noteNumber": 77,
      "velocity": 54,
      "ticks": 120
    },
    {
      "time": 3120,
      "track": 1,
      "noteNumber": 74,
      "velocity": 54,
      "ticks": 120
    },
    {
      "time": 3240,
      "track": 1,
      "noteNumber": 72,
      "velocity": 54,
      "ticks": 120
    },
    {
      "time": 3360,
      "track": 1,
      "noteNumber": 70,
      "velocity": 58,
      "ticks": 120
    },
    {
      "time": 3480,
      "track": 1,
      "noteNumber": 67,
      "velocity": 54,
      "ticks": 120
    },
    {
      "time": 3600,
      "track": 1,
      "noteNumber": 62,
      "velocity": 53,
      "ticks": 120
    },
    {
      "time": 3720,
      "track": 1,
      "noteNumber": 64,
      "velocity": 53,
      "ticks": 120
    },
    {
      "time": 3840,
      "track": 1,
      "noteNumber": 60,
      "velocity": 44,
      "ticks": 960
    },
    {
      "time": 3840,
      "track": 2,
      "noteNumber": 48,
      "velocity": 36,
      "ticks": 960
    },
    {
      "time": 3840,
      "track": 2,
      "noteNumber": 41,
      "velocity": 36,
      "ticks": 960
    },
    {
      "time": 3840,
      "track": 2,
      "noteNumber": 57,
      "velocity": 44,
      "ticks": 1920
    },
    {
      "time": 3840,
      "track": 1,
      "noteNumber": 67,
      "velocity": 52,
      "ticks": 120
    },
    {
      "time": 3960,
      "track": 1,
      "noteNumber": 65,
      "velocity": 48,
      "ticks": 120
    },
    {
      "time": 4080,
      "track": 1,
      "noteNumber": 67,
      "velocity": 48,
      "ticks": 120
    },
    {
      "time": 4200,
      "track": 1,
      "noteNumber": 69,
      "velocity": 47,
      "ticks": 120
    },
    {
      "time": 4320,
      "track": 1,
      "noteNumber": 67,
      "velocity": 47,
      "ticks": 600
    },
    {
      "time": 4800,
      "track": 1,
      "noteNumber": 62,
      "velocity": 44,
      "ticks": 960
    },
    {
      "time": 4800,
      "track": 2,
      "noteNumber": 53,
      "velocity": 37,
      "ticks": 960
    },
    {
      "time": 4800,
      "track": 2,
      "noteNumber": 46,
      "velocity": 37,
      "ticks": 960
    },
    {
      "time": 4920,
      "track": 1,
      "noteNumber": 65,
      "velocity": 48,
      "ticks": 120
    },
    {
      "time": 5040,
      "track": 1,
      "noteNumber": 67,
      "velocity": 49,
      "ticks": 120
    },
    {
      "time": 5160,
      "track": 1,
      "noteNumber": 69,
      "velocity": 52,
      "ticks": 120
    },
    {
      "time": 5280,
      "track": 1,
      "noteNumber": 72,
      "velocity": 53,
      "ticks": 120
    },
    {
      "time": 5400,
      "track": 1,
      "noteNumber": 69,
      "velocity": 53,
      "ticks": 120
    },
    {
      "time": 5520,
      "track": 1,
      "noteNumber": 67,
      "velocity": 53,
      "ticks": 120
    },
    {
      "time": 5640,
      "track": 1,
      "noteNumber": 65,
      "velocity": 53,
      "ticks": 120
    },
    {
      "time": 5760,
      "track": 2,
      "noteNumber": 48,
      "velocity": 37,
      "ticks": 960
    },
    {
      "time": 5760,
      "track": 1,
      "noteNumber": 64,
      "velocity": 45,
      "ticks": 960
    },
    {
      "time": 5760,
      "track": 1,
      "noteNumber": 67,
      "velocity": 54,
      "ticks": 120
    },
    {
      "time": 5760,
      "track": 2,
      "noteNumber": 57,
      "velocity": 37,
      "ticks": 1920
    },
    {
      "time": 5880,
      "track": 1,
      "noteNumber": 65,
      "velocity": 49,
      "ticks": 120
    },
    {
      "time": 6000,
      "track": 1,
      "noteNumber": 67,
      "velocity": 51,
      "ticks": 120
    },
    {
      "time": 6120,
      "track": 1,
      "noteNumber": 69,
      "velocity": 49,
      "ticks": 120
    },
    {
      "time": 6240,
      "track": 1,
      "noteNumber": 67,
      "velocity": 48,
      "ticks": 600
    },
    {
      "time": 6720,
      "track": 1,
      "noteNumber": 62,
      "velocity": 45,
      "ticks": 960
    },
    {
      "time": 6720,
      "track": 2,
      "noteNumber": 50,
      "velocity": 45,
      "ticks": 960
    },
    {
      "time": 6840,
      "track": 1,
      "noteNumber": 65,
      "velocity": 49,
      "ticks": 120
    },
    {
      "time": 6960,
      "track": 1,
      "noteNumber": 67,
      "velocity": 51,
      "ticks": 120
    },
    {
      "time": 7080,
      "track": 1,
      "noteNumber": 69,
      "velocity": 52,
      "ticks": 120
    },
    {
      "time": 7200,
      "track": 1,
      "noteNumber": 74,
      "velocity": 56,
      "ticks": 120
    },
    {
      "time": 7320,
      "track": 1,
      "noteNumber": 69,
      "velocity": 54,
      "ticks": 120
    },
    {
      "time": 7440,
      "track": 1,
      "noteNumber": 67,
      "velocity": 54,
      "ticks": 120
    },
    {
      "time": 7560,
      "track": 1,
      "noteNumber": 65,
      "velocity": 54,
      "ticks": 240
    },
    {
      "time": 7680,
      "track": 2,
      "noteNumber": 46,
      "velocity": 41,
      "ticks": 480
    },
    {
      "time": 7680,
      "track": 1,
      "noteNumber": 62,
      "velocity": 49,
      "ticks": 480
    },
    {
      "time": 7680,
      "track": 2,
      "noteNumber": 58,
      "velocity": 41,
      "ticks": 480
    },
    {
      "time": 7680,
      "track": 2,
      "noteNumber": 53,
      "velocity": 41,
      "ticks": 480
    },
    {
      "time": 7800,
      "track": 1,
      "noteNumber": 70,
      "velocity": 52,
      "ticks": 120
    },
    {
      "time": 7920,
      "track": 1,
      "noteNumber": 74,
      "velocity": 54,
      "ticks": 120
    },
    {
      "time": 8040,
      "track": 1,
      "noteNumber": 77,
      "velocity": 57,
      "ticks": 120
    },
    {
      "time": 8160,
      "track": 2,
      "noteNumber": 65,
      "velocity": 47,
      "ticks": 480
    },
    {
      "time": 8160,
      "track": 2,
      "noteNumber": 58,
      "velocity": 42,
      "ticks": 1440
    },
    {
      "time": 8160,
      "track": 1,
      "noteNumber": 81,
      "velocity": 60,
      "ticks": 720
    },
    {
      "time": 8160,
      "track": 1,
      "noteNumber": 74,
      "velocity": 47,
      "ticks": 480
    },
    {
      "time": 8640,
      "track": 2,
      "noteNumber": 64,
      "velocity": 47,
      "ticks": 480
    },
    {
      "time": 8640,
      "track": 1,
      "noteNumber": 72,
      "velocity": 52,
      "ticks": 1680
    },
    {
      "time": 8880,
      "track": 1,
      "noteNumber": 79,
      "velocity": 54,
      "ticks": 240
    },
    {
      "time": 9120,
      "track": 1,
      "noteNumber": 77,
      "velocity": 52,
      "ticks": 240
    },
    {
      "time": 9120,
      "track": 2,
      "noteNumber": 62,
      "velocity": 51,
      "ticks": 240
    },
    {
      "time": 9360,
      "track": 1,
      "noteNumber": 79,
      "velocity": 54,
      "ticks": 360
    },
    {
      "time": 9360,
      "track": 2,
      "noteNumber": 64,
      "velocity": 53,
      "ticks": 360
    },
    {
      "time": 9600,
      "track": 2,
      "noteNumber": 57,
      "velocity": 53,
      "ticks": 960
    },
    {
      "time": 9720,
      "track": 2,
      "noteNumber": 65,
      "velocity": 45,
      "ticks": 120
    },
    {
      "time": 9720,
      "track": 1,
      "noteNumber": 77,
      "velocity": 49,
      "ticks": 120
    },
    {
      "time": 9840,
      "track": 2,
      "noteNumber": 67,
      "velocity": 45,
      "ticks": 120
    },
    {
      "time": 9840,
      "track": 1,
      "noteNumber": 76,
      "velocity": 51,
      "ticks": 120
    },
    {
      "time": 9960,
      "track": 2,
      "noteNumber": 69,
      "velocity": 45,
      "ticks": 120
    },
    {
      "time": 9960,
      "track": 1,
      "noteNumber": 79,
      "velocity": 51,
      "ticks": 120
    },
    {
      "time": 10080,
      "track": 2,
      "noteNumber": 62,
      "velocity": 45,
      "ticks": 720
    },
    {
      "time": 10080,
      "track": 1,
      "noteNumber": 77,
      "velocity": 54,
      "ticks": 720
    },
    {
      "time": 10320,
      "track": 1,
      "noteNumber": 70,
      "velocity": 49,
      "ticks": 120
    },
    {
      "time": 10440,
      "track": 1,
      "noteNumber": 69,
      "velocity": 49,
      "ticks": 120
    },
    {
      "time": 10560,
      "track": 2,
      "noteNumber": 55,
      "velocity": 46,
      "ticks": 480
    },
    {
      "time": 10560,
      "track": 1,
      "noteNumber": 70,
      "velocity": 51,
      "ticks": 960
    },
    {
      "time": 10800,
      "track": 2,
      "noteNumber": 64,
      "velocity": 45,
      "ticks": 240
    },
    {
      "time": 10800,
      "track": 1,
      "noteNumber": 76,
      "velocity": 46,
      "ticks": 240
    },
    {
      "time": 11040,
      "track": 1,
      "noteNumber": 65,
      "velocity": 37,
      "ticks": 240
    },
    {
      "time": 11040,
      "track": 1,
      "noteNumber": 74,
      "velocity": 45,
      "ticks": 240
    },
    {
      "time": 11040,
      "track": 2,
      "noteNumber": 48,
      "velocity": 41,
      "ticks": 480
    },
    {
      "time": 11280,
      "track": 1,
      "noteNumber": 64,
      "velocity": 36,
      "ticks": 240
    },
    {
      "time": 11280,
      "track": 1,
      "noteNumber": 72,
      "velocity": 43,
      "ticks": 240
    },
    {
      "time": 11521,
      "track": 2,
      "noteNumber": 29,
      "velocity": 89,
      "ticks": 240
    },
    {
      "time": 11760,
      "track": 2,
      "noteNumber": 41,
      "velocity": 77,
      "ticks": 240
    },
    {
      "time": 12000,
      "track": 2,
      "noteNumber": 48,
      "velocity": 81,
      "ticks": 220
    },
    {
      "time": 12240,
      "track": 2,
      "noteNumber": 48,
      "velocity": 81,
      "ticks": 1680
    },
    {
      "time": 12480,
      "track": 2,
      "noteNumber": 58,
      "velocity": 60,
      "ticks": 1440
    },
    {
      "time": 12480,
      "track": 1,
      "noteNumber": 74,
      "velocity": 70,
      "ticks": 1440
    },
    {
      "time": 12480,
      "track": 2,
      "noteNumber": 55,
      "velocity": 60,
      "ticks": 1440
    },
    {
      "time": 12480,
      "track": 1,
      "noteNumber": 67,
      "velocity": 70,
      "ticks": 1440
    },
    {
      "time": 12480,
      "track": 2,
      "noteNumber": 62,
      "velocity": 71,
      "ticks": 1440
    },
    {
      "time": 12480,
      "track": 1,
      "noteNumber": 79,
      "velocity": 83,
      "ticks": 1080
    },
    {
      "time": 12480,
      "track": 1,
      "noteNumber": 70,
      "velocity": 70,
      "ticks": 1440
    },
    {
      "time": 13560,
      "track": 1,
      "noteNumber": 81,
      "velocity": 53,
      "ticks": 120
    },
    {
      "time": 13680,
      "track": 1,
      "noteNumber": 82,
      "velocity": 53,
      "ticks": 120
    },
    {
      "time": 13800,
      "track": 1,
      "noteNumber": 81,
      "velocity": 53,
      "ticks": 120
    },
    {
      "time": 13920,
      "track": 1,
      "noteNumber": 79,
      "velocity": 56,
      "ticks": 120
    },
    {
      "time": 14040,
      "track": 1,
      "noteNumber": 81,
      "velocity": 54,
      "ticks": 120
    },
    {
      "time": 14160,
      "track": 1,
      "noteNumber": 79,
      "velocity": 54,
      "ticks": 120
    },
    {
      "time": 14280,
      "track": 1,
      "noteNumber": 77,
      "velocity": 54,
      "ticks": 120
    },
    {
      "time": 14400,
      "track": 1,
      "noteNumber": 74,
      "velocity": 57,
      "ticks": 120
    },
    {
      "time": 14520,
      "track": 1,
      "noteNumber": 77,
      "velocity": 54,
      "ticks": 120
    },
    {
      "time": 14640,
      "track": 1,
      "noteNumber": 74,
      "velocity": 54,
      "ticks": 120
    },
    {
      "time": 14760,
      "track": 1,
      "noteNumber": 72,
      "velocity": 54,
      "ticks": 120
    },
    {
      "time": 14880,
      "track": 1,
      "noteNumber": 70,
      "velocity": 58,
      "ticks": 120
    },
    {
      "time": 15000,
      "track": 1,
      "noteNumber": 67,
      "velocity": 54,
      "ticks": 120
    },
    {
      "time": 15120,
      "track": 1,
      "noteNumber": 62,
      "velocity": 53,
      "ticks": 120
    },
    {
      "time": 15240,
      "track": 1,
      "noteNumber": 64,
      "velocity": 53,
      "ticks": 120
    },
    {
      "time": 15360,
      "track": 2,
      "noteNumber": 63,
      "velocity": 36,
      "ticks": 1920
    },
    {
      "time": 15360,
      "track": 1,
      "noteNumber": 67,
      "velocity": 51,
      "ticks": 120
    },
    {
      "time": 15360,
      "track": 2,
      "noteNumber": 58,
      "velocity": 43,
      "ticks": 960
    },
    {
      "time": 15367,
      "track": 2,
      "noteNumber": 60,
      "velocity": 36,
      "ticks": 1920
    },
    {
      "time": 15480,
      "track": 1,
      "noteNumber": 65,
      "velocity": 47,
      "ticks": 120
    },
    {
      "time": 15600,
      "track": 1,
      "noteNumber": 67,
      "velocity": 48,
      "ticks": 120
    },
    {
      "time": 15720,
      "track": 1,
      "noteNumber": 69,
      "velocity": 47,
      "ticks": 120
    },
    {
      "time": 15840,
      "track": 1,
      "noteNumber": 67,
      "velocity": 46,
      "ticks": 600
    },
    {
      "time": 16320,
      "track": 2,
      "noteNumber": 57,
      "velocity": 38,
      "ticks": 960
    },
    {
      "time": 16440,
      "track": 1,
      "noteNumber": 65,
      "velocity": 48,
      "ticks": 120
    },
    {
      "time": 16560,
      "track": 1,
      "noteNumber": 67,
      "velocity": 49,
      "ticks": 120
    },
    {
      "time": 16680,
      "track": 1,
      "noteNumber": 69,
      "velocity": 52,
      "ticks": 120
    },
    {
      "time": 16800,
      "track": 1,
      "noteNumber": 72,
      "velocity": 53,
      "ticks": 120
    },
    {
      "time": 16920,
      "track": 1,
      "noteNumber": 69,
      "velocity": 53,
      "ticks": 120
    },
    {
      "time": 17040,
      "track": 1,
      "noteNumber": 67,
      "velocity": 53,
      "ticks": 120
    },
    {
      "time": 17160,
      "track": 1,
      "noteNumber": 65,
      "velocity": 53,
      "ticks": 120
    },
    {
      "time": 17280,
      "track": 2,
      "noteNumber": 51,
      "velocity": 35,
      "ticks": 960
    },
    {
      "time": 17280,
      "track": 2,
      "noteNumber": 58,
      "velocity": 35,
      "ticks": 960
    },
    {
      "time": 17280,
      "track": 2,
      "noteNumber": 62,
      "velocity": 41,
      "ticks": 960
    },
    {
      "time": 17280,
      "track": 1,
      "noteNumber": 67,
      "velocity": 52,
      "ticks": 120
    },
    {
      "time": 17400,
      "track": 1,
      "noteNumber": 65,
      "velocity": 49,
      "ticks": 120
    },
    {
      "time": 17520,
      "track": 1,
      "noteNumber": 67,
      "velocity": 51,
      "ticks": 120
    },
    {
      "time": 17640,
      "track": 1,
      "noteNumber": 69,
      "velocity": 49,
      "ticks": 120
    },
    {
      "time": 17760,
      "track": 1,
      "noteNumber": 67,
      "velocity": 48,
      "ticks": 600
    },
    {
      "time": 18240,
      "track": 1,
      "noteNumber": 63,
      "velocity": 45,
      "ticks": 960
    },
    {
      "time": 18240,
      "track": 2,
      "noteNumber": 48,
      "velocity": 32,
      "ticks": 960
    },
    {
      "time": 18240,
      "track": 2,
      "noteNumber": 41,
      "velocity": 32,
      "ticks": 960
    },
    {
      "time": 18240,
      "track": 2,
      "noteNumber": 57,
      "velocity": 38,
      "ticks": 960
    },
    {
      "time": 18360,
      "track": 1,
      "noteNumber": 65,
      "velocity": 49,
      "ticks": 120
    },
    {
      "time": 18480,
      "track": 1,
      "noteNumber": 67,
      "velocity": 51,
      "ticks": 120
    },
    {
      "time": 18600,
      "track": 1,
      "noteNumber": 69,
      "velocity": 52,
      "ticks": 120
    },
    {
      "time": 18720,
      "track": 1,
      "noteNumber": 74,
      "velocity": 56,
      "ticks": 120
    },
    {
      "time": 18840,
      "track": 1,
      "noteNumber": 69,
      "velocity": 54,
      "ticks": 120
    },
    {
      "time": 18960,
      "track": 1,
      "noteNumber": 67,
      "velocity": 54,
      "ticks": 120
    },
    {
      "time": 19080,
      "track": 1,
      "noteNumber": 65,
      "velocity": 54,
      "ticks": 120
    },
    {
      "time": 19200,
      "track": 2,
      "noteNumber": 34,
      "velocity": 72,
      "ticks": 240
    },
    {
      "time": 19200,
      "track": 2,
      "noteNumber": 46,
      "velocity": 72,
      "ticks": 240
    },
    {
      "time": 19440,
      "track": 2,
      "noteNumber": 53,
      "velocity": 72,
      "ticks": 240
    },
    {
      "time": 19680,
      "track": 2,
      "noteNumber": 65,
      "velocity": 50,
      "ticks": 720
    },
    {
      "time": 19680,
      "track": 1,
      "noteNumber": 74,
      "velocity": 53,
      "ticks": 720
    },
    {
      "time": 19680,
      "track": 2,
      "noteNumber": 62,
      "velocity": 42,
      "ticks": 720
    },
    {
      "time": 19680,
      "track": 1,
      "noteNumber": 77,
      "velocity": 63,
      "ticks": 720
    },
    {
      "time": 20400,
      "track": 2,
      "noteNumber": 67,
      "velocity": 44,
      "ticks": 120
    },
    {
      "time": 20400,
      "track": 2,
      "noteNumber": 64,
      "velocity": 37,
      "ticks": 120
    },
    {
      "time": 20400,
      "track": 1,
      "noteNumber": 76,
      "velocity": 60,
      "ticks": 120
    },
    {
      "time": 20400,
      "track": 1,
      "noteNumber": 72,
      "velocity": 51,
      "ticks": 120
    },
    {
      "time": 20520,
      "track": 2,
      "noteNumber": 65,
      "velocity": 36,
      "ticks": 120
    },
    {
      "time": 20520,
      "track": 1,
      "noteNumber": 77,
      "velocity": 59,
      "ticks": 120
    },
    {
      "time": 20520,
      "track": 2,
      "noteNumber": 69,
      "velocity": 43,
      "ticks": 120
    },
    {
      "time": 20520,
      "track": 1,
      "noteNumber": 74,
      "velocity": 50,
      "ticks": 120
    },
    {
      "time": 20640,
      "track": 2,
      "noteNumber": 67,
      "velocity": 49,
      "ticks": 240
    },
    {
      "time": 20640,
      "track": 2,
      "noteNumber": 64,
      "velocity": 41,
      "ticks": 240
    },
    {
      "time": 20640,
      "track": 1,
      "noteNumber": 72,
      "velocity": 54,
      "ticks": 240
    },
    {
      "time": 20640,
      "track": 1,
      "noteNumber": 76,
      "velocity": 64,
      "ticks": 240
    },
    {
      "time": 20880,
      "track": 1,
      "noteNumber": 74,
      "velocity": 55,
      "ticks": 120
    },
    {
      "time": 20880,
      "track": 2,
      "noteNumber": 62,
      "velocity": 35,
      "ticks": 120
    },
    {
      "time": 20880,
      "track": 2,
      "noteNumber": 65,
      "velocity": 42,
      "ticks": 120
    },
    {
      "time": 20880,
      "track": 1,
      "noteNumber": 70,
      "velocity": 46,
      "ticks": 120
    },
    {
      "time": 21000,
      "track": 2,
      "noteNumber": 64,
      "velocity": 35,
      "ticks": 120
    },
    {
      "time": 21000,
      "track": 2,
      "noteNumber": 67,
      "velocity": 42,
      "ticks": 120
    },
    {
      "time": 21000,
      "track": 1,
      "noteNumber": 76,
      "velocity": 54,
      "ticks": 120
    },
    {
      "time": 21000,
      "track": 1,
      "noteNumber": 72,
      "velocity": 46,
      "ticks": 120
    },
    {
      "time": 21120,
      "track": 2,
      "noteNumber": 62,
      "velocity": 40,
      "ticks": 235
    },
    {
      "time": 21120,
      "track": 1,
      "noteNumber": 70,
      "velocity": 52,
      "ticks": 235
    },
    {
      "time": 21120,
      "track": 2,
      "noteNumber": 65,
      "velocity": 47,
      "ticks": 235
    },
    {
      "time": 21120,
      "track": 1,
      "noteNumber": 74,
      "velocity": 62,
      "ticks": 235
    },
    {
      "time": 21360,
      "track": 1,
      "noteNumber": 72,
      "velocity": 56,
      "ticks": 216
    },
    {
      "time": 21360,
      "track": 2,
      "noteNumber": 64,
      "velocity": 44,
      "ticks": 216
    },
    {
      "time": 21360,
      "track": 2,
      "noteNumber": 60,
      "velocity": 37,
      "ticks": 216
    },
    {
      "time": 21360,
      "track": 1,
      "noteNumber": 67,
      "velocity": 47,
      "ticks": 216
    },
    {
      "time": 21600,
      "track": 1,
      "noteNumber": 72,
      "velocity": 57,
      "ticks": 220
    },
    {
      "time": 21600,
      "track": 1,
      "noteNumber": 67,
      "velocity": 47,
      "ticks": 220
    },
    {
      "time": 21600,
      "track": 2,
      "noteNumber": 64,
      "velocity": 45,
      "ticks": 220
    },
    {
      "time": 21600,
      "track": 2,
      "noteNumber": 60,
      "velocity": 38,
      "ticks": 220
    },
    {
      "time": 21840,
      "track": 1,
      "noteNumber": 74,
      "velocity": 58,
      "ticks": 240
    },
    {
      "time": 21840,
      "track": 1,
      "noteNumber": 70,
      "velocity": 49,
      "ticks": 240
    },
    {
      "time": 21840,
      "track": 2,
      "noteNumber": 58,
      "velocity": 38,
      "ticks": 240
    },
    {
      "time": 21840,
      "track": 2,
      "noteNumber": 65,
      "velocity": 45,
      "ticks": 240
    },
    {
      "time": 22080,
      "track": 1,
      "noteNumber": 76,
      "velocity": 58,
      "ticks": 230
    },
    {
      "time": 22080,
      "track": 1,
      "noteNumber": 69,
      "velocity": 48,
      "ticks": 230
    },
    {
      "time": 22080,
      "track": 1,
      "noteNumber": 72,
      "velocity": 48,
      "ticks": 230
    },
    {
      "time": 22080,
      "track": 2,
      "noteNumber": 64,
      "velocity": 44,
      "ticks": 230
    },
    {
      "time": 22080,
      "track": 2,
      "noteNumber": 57,
      "velocity": 37,
      "ticks": 230
    },
    {
      "time": 22080,
      "track": 2,
      "noteNumber": 60,
      "velocity": 37,
      "ticks": 230
    },
    {
      "time": 22320,
      "track": 2,
      "noteNumber": 55,
      "velocity": 39,
      "ticks": 216
    },
    {
      "time": 22320,
      "track": 1,
      "noteNumber": 79,
      "velocity": 62,
      "ticks": 216
    },
    {
      "time": 22320,
      "track": 1,
      "noteNumber": 70,
      "velocity": 52,
      "ticks": 216
    },
    {
      "time": 22320,
      "track": 2,
      "noteNumber": 62,
      "velocity": 46,
      "ticks": 216
    },
    {
      "time": 22320,
      "track": 2,
      "noteNumber": 58,
      "velocity": 39,
      "ticks": 216
    },
    {
      "time": 22320,
      "track": 1,
      "noteNumber": 74,
      "velocity": 52,
      "ticks": 216
    },
    {
      "time": 22560,
      "track": 1,
      "noteNumber": 74,
      "velocity": 55,
      "ticks": 240
    },
    {
      "time": 22560,
      "track": 1,
      "noteNumber": 70,
      "velocity": 55,
      "ticks": 240
    },
    {
      "time": 22560,
      "track": 1,
      "noteNumber": 79,
      "velocity": 65,
      "ticks": 240
    },
    {
      "time": 22560,
      "track": 2,
      "noteNumber": 55,
      "velocity": 43,
      "ticks": 240
    },
    {
      "time": 22560,
      "track": 2,
      "noteNumber": 58,
      "velocity": 43,
      "ticks": 240
    },
    {
      "time": 22560,
      "track": 2,
      "noteNumber": 62,
      "velocity": 50,
      "ticks": 240
    },
    {
      "time": 22800,
      "track": 1,
      "noteNumber": 69,
      "velocity": 54,
      "ticks": 240
    },
    {
      "time": 22800,
      "track": 1,
      "noteNumber": 73,
      "velocity": 54,
      "ticks": 240
    },
    {
      "time": 22800,
      "track": 2,
      "noteNumber": 53,
      "velocity": 40,
      "ticks": 240
    },
    {
      "time": 22800,
      "track": 2,
      "noteNumber": 57,
      "velocity": 40,
      "ticks": 240
    },
    {
      "time": 22800,
      "track": 2,
      "noteNumber": 61,
      "velocity": 48,
      "ticks": 240
    },
    {
      "time": 22800,
      "track": 1,
      "noteNumber": 81,
      "velocity": 64,
      "ticks": 240
    },
    {
      "time": 23040,
      "track": 2,
      "noteNumber": 34,
      "velocity": 61,
      "ticks": 240
    },
    {
      "time": 23040,
      "track": 2,
      "noteNumber": 46,
      "velocity": 72,
      "ticks": 240
    },
    {
      "time": 23280,
      "track": 2,
      "noteNumber": 53,
      "velocity": 72,
      "ticks": 240
    },
    {
      "time": 23520,
      "track": 1,
      "noteNumber": 74,
      "velocity": 53,
      "ticks": 720
    },
    {
      "time": 23520,
      "track": 2,
      "noteNumber": 65,
      "velocity": 53,
      "ticks": 720
    },
    {
      "time": 23520,
      "track": 1,
      "noteNumber": 77,
      "velocity": 63,
      "ticks": 720
    },
    {
      "time": 23520,
      "track": 2,
      "noteNumber": 62,
      "velocity": 45,
      "ticks": 720
    },
    {
      "time": 24240,
      "track": 2,
      "noteNumber": 67,
      "velocity": 47,
      "ticks": 120
    },
    {
      "time": 24240,
      "track": 1,
      "noteNumber": 76,
      "velocity": 60,
      "ticks": 120
    },
    {
      "time": 24240,
      "track": 1,
      "noteNumber": 72,
      "velocity": 51,
      "ticks": 120
    },
    {
      "time": 24240,
      "track": 2,
      "noteNumber": 64,
      "velocity": 40,
      "ticks": 120
    },
    {
      "time": 24360,
      "track": 1,
      "noteNumber": 77,
      "velocity": 59,
      "ticks": 120
    },
    {
      "time": 24360,
      "track": 2,
      "noteNumber": 69,
      "velocity": 46,
      "ticks": 120
    },
    {
      "time": 24360,
      "track": 2,
      "noteNumber": 65,
      "velocity": 39,
      "ticks": 120
    },
    {
      "time": 24360,
      "track": 1,
      "noteNumber": 74,
      "velocity": 50,
      "ticks": 120
    },
    {
      "time": 24480,
      "track": 2,
      "noteNumber": 64,
      "velocity": 43,
      "ticks": 240
    },
    {
      "time": 24480,
      "track": 2,
      "noteNumber": 67,
      "velocity": 51,
      "ticks": 240
    },
    {
      "time": 24480,
      "track": 1,
      "noteNumber": 76,
      "velocity": 64,
      "ticks": 240
    },
    {
      "time": 24480,
      "track": 1,
      "noteNumber": 72,
      "velocity": 54,
      "ticks": 240
    },
    {
      "time": 24720,
      "track": 1,
      "noteNumber": 74,
      "velocity": 55,
      "ticks": 120
    },
    {
      "time": 24720,
      "track": 2,
      "noteNumber": 65,
      "velocity": 46,
      "ticks": 120
    },
    {
      "time": 24720,
      "track": 2,
      "noteNumber": 62,
      "velocity": 39,
      "ticks": 120
    },
    {
      "time": 24720,
      "track": 1,
      "noteNumber": 70,
      "velocity": 46,
      "ticks": 120
    },
    {
      "time": 24840,
      "track": 1,
      "noteNumber": 76,
      "velocity": 56,
      "ticks": 120
    },
    {
      "time": 24840,
      "track": 2,
      "noteNumber": 64,
      "velocity": 39,
      "ticks": 120
    },
    {
      "time": 24840,
      "track": 2,
      "noteNumber": 67,
      "velocity": 46,
      "ticks": 120
    },
    {
      "time": 24840,
      "track": 1,
      "noteNumber": 72,
      "velocity": 46,
      "ticks": 120
    },
    {
      "time": 24960,
      "track": 2,
      "noteNumber": 65,
      "velocity": 51,
      "ticks": 235
    },
    {
      "time": 24960,
      "track": 1,
      "noteNumber": 70,
      "velocity": 52,
      "ticks": 235
    },
    {
      "time": 24960,
      "track": 2,
      "noteNumber": 62,
      "velocity": 42,
      "ticks": 235
    },
    {
      "time": 24960,
      "track": 1,
      "noteNumber": 74,
      "velocity": 62,
      "ticks": 235
    },
    {
      "time": 25200,
      "track": 1,
      "noteNumber": 72,
      "velocity": 56,
      "ticks": 216
    },
    {
      "time": 25200,
      "track": 1,
      "noteNumber": 67,
      "velocity": 47,
      "ticks": 216
    },
    {
      "time": 25200,
      "track": 2,
      "noteNumber": 60,
      "velocity": 40,
      "ticks": 216
    },
    {
      "time": 25200,
      "track": 2,
      "noteNumber": 64,
      "velocity": 47,
      "ticks": 216
    },
    {
      "time": 25440,
      "track": 2,
      "noteNumber": 64,
      "velocity": 47,
      "ticks": 220
    },
    {
      "time": 25440,
      "track": 1,
      "noteNumber": 72,
      "velocity": 57,
      "ticks": 220
    },
    {
      "time": 25440,
      "track": 1,
      "noteNumber": 67,
      "velocity": 47,
      "ticks": 220
    },
    {
      "time": 25440,
      "track": 2,
      "noteNumber": 60,
      "velocity": 40,
      "ticks": 220
    },
    {
      "time": 25680,
      "track": 1,
      "noteNumber": 74,
      "velocity": 61,
      "ticks": 240
    },
    {
      "time": 25680,
      "track": 1,
      "noteNumber": 70,
      "velocity": 51,
      "ticks": 240
    },
    {
      "time": 25680,
      "track": 2,
      "noteNumber": 65,
      "velocity": 48,
      "ticks": 240
    },
    {
      "time": 25680,
      "track": 2,
      "noteNumber": 58,
      "velocity": 40,
      "ticks": 240
    },
    {
      "time": 25920,
      "track": 2,
      "noteNumber": 57,
      "velocity": 41,
      "ticks": 230
    },
    {
      "time": 25920,
      "track": 2,
      "noteNumber": 60,
      "velocity": 41,
      "ticks": 230
    },
    {
      "time": 25920,
      "track": 1,
      "noteNumber": 76,
      "velocity": 61,
      "ticks": 230
    },
    {
      "time": 25920,
      "track": 1,
      "noteNumber": 72,
      "velocity": 52,
      "ticks": 230
    },
    {
      "time": 25920,
      "track": 1,
      "noteNumber": 69,
      "velocity": 52,
      "ticks": 230
    },
    {
      "time": 25920,
      "track": 2,
      "noteNumber": 64,
      "velocity": 48,
      "ticks": 230
    },
    {
      "time": 26160,
      "track": 2,
      "noteNumber": 55,
      "velocity": 41,
      "ticks": 216
    },
    {
      "time": 26160,
      "track": 2,
      "noteNumber": 58,
      "velocity": 41,
      "ticks": 216
    },
    {
      "time": 26160,
      "track": 1,
      "noteNumber": 74,
      "velocity": 53,
      "ticks": 216
    },
    {
      "time": 26160,
      "track": 1,
      "noteNumber": 70,
      "velocity": 53,
      "ticks": 216
    },
    {
      "time": 26160,
      "track": 2,
      "noteNumber": 62,
      "velocity": 48,
      "ticks": 216
    },
    {
      "time": 26160,
      "track": 1,
      "noteNumber": 79,
      "velocity": 63,
      "ticks": 216
    },
    {
      "time": 26400,
      "track": 2,
      "noteNumber": 58,
      "velocity": 45,
      "ticks": 240
    },
    {
      "time": 26400,
      "track": 2,
      "noteNumber": 62,
      "velocity": 55,
      "ticks": 240
    },
    {
      "time": 26400,
      "track": 1,
      "noteNumber": 74,
      "velocity": 55,
      "ticks": 240
    },
    {
      "time": 26400,
      "track": 1,
      "noteNumber": 79,
      "velocity": 66,
      "ticks": 240
    },
    {
      "time": 26400,
      "track": 1,
      "noteNumber": 70,
      "velocity": 55,
      "ticks": 240
    },
    {
      "time": 26400,
      "track": 2,
      "noteNumber": 55,
      "velocity": 45,
      "ticks": 240
    },
    {
      "time": 26640,
      "track": 1,
      "noteNumber": 69,
      "velocity": 53,
      "ticks": 240
    },
    {
      "time": 26640,
      "track": 1,
      "noteNumber": 81,
      "velocity": 63,
      "ticks": 240
    },
    {
      "time": 26640,
      "track": 1,
      "noteNumber": 73,
      "velocity": 53,
      "ticks": 240
    },
    {
      "time": 26640,
      "track": 2,
      "noteNumber": 61,
      "velocity": 53,
      "ticks": 240
    },
    {
      "time": 26640,
      "track": 2,
      "noteNumber": 57,
      "velocity": 44,
      "ticks": 240
    },
    {
      "time": 26640,
      "track": 2,
      "noteNumber": 53,
      "velocity": 44,
      "ticks": 240
    },
    {
      "time": 26880,
      "track": 2,
      "noteNumber": 43,
      "velocity": 58,
      "ticks": 200
    },
    {
      "time": 26880,
      "track": 2,
      "noteNumber": 31,
      "velocity": 53,
      "ticks": 200
    },
    {
      "time": 27120,
      "track": 1,
      "noteNumber": 84,
      "velocity": 62,
      "ticks": 240
    },
    {
      "time": 27120,
      "track": 1,
      "noteNumber": 77,
      "velocity": 45,
      "ticks": 720
    },
    {
      "time": 27120,
      "track": 2,
      "noteNumber": 53,
      "velocity": 37,
      "ticks": 240
    },
    {
      "time": 27120,
      "track": 1,
      "noteNumber": 74,
      "velocity": 45,
      "ticks": 720
    },
    {
      "time": 27360,
      "track": 1,
      "noteNumber": 82,
      "velocity": 57,
      "ticks": 120
    },
    {
      "time": 27360,
      "track": 2,
      "noteNumber": 55,
      "velocity": 37,
      "ticks": 240
    },
    {
      "time": 27480,
      "track": 1,
      "noteNumber": 81,
      "velocity": 54,
      "ticks": 120
    },
    {
      "time": 27600,
      "track": 2,
      "noteNumber": 58,
      "velocity": 37,
      "ticks": 240
    },
    {
      "time": 27600,
      "track": 1,
      "noteNumber": 79,
      "velocity": 57,
      "ticks": 360
    },
    {
      "time": 27840,
      "track": 2,
      "noteNumber": 62,
      "velocity": 39,
      "ticks": 240
    },
    {
      "time": 27960,
      "track": 1,
      "noteNumber": 77,
      "velocity": 54,
      "ticks": 120
    },
    {
      "time": 28080,
      "track": 2,
      "noteNumber": 65,
      "velocity": 36,
      "ticks": 240
    },
    {
      "time": 28080,
      "track": 1,
      "noteNumber": 79,
      "velocity": 52,
      "ticks": 120
    },
    {
      "time": 28200,
      "track": 1,
      "noteNumber": 81,
      "velocity": 52,
      "ticks": 120
    },
    {
      "time": 28320,
      "track": 2,
      "noteNumber": 67,
      "velocity": 36,
      "ticks": 240
    },
    {
      "time": 28320,
      "track": 1,
      "noteNumber": 76,
      "velocity": 57,
      "ticks": 240
    },
    {
      "time": 28320,
      "track": 1,
      "noteNumber": 70,
      "velocity": 45,
      "ticks": 480
    },
    {
      "time": 28560,
      "track": 1,
      "noteNumber": 74,
      "velocity": 54,
      "ticks": 240
    },
    {
      "time": 28560,
      "track": 2,
      "noteNumber": 65,
      "velocity": 36,
      "ticks": 238
    },
    {
      "time": 28800,
      "track": 1,
      "noteNumber": 65,
      "velocity": 56,
      "ticks": 720
    },
    {
      "time": 29040,
      "track": 1,
      "noteNumber": 72,
      "velocity": 53,
      "ticks": 240
    },
    {
      "time": 29040,
      "track": 2,
      "noteNumber": 64,
      "velocity": 48,
      "ticks": 240
    },
    {
      "time": 29280,
      "track": 2,
      "noteNumber": 62,
      "velocity": 46,
      "ticks": 120
    },
    {
      "time": 29280,
      "track": 1,
      "noteNumber": 70,
      "velocity": 52,
      "ticks": 120
    },
    {
      "time": 29400,
      "track": 2,
      "noteNumber": 60,
      "velocity": 46,
      "ticks": 120
    },
    {
      "time": 29400,
      "track": 1,
      "noteNumber": 69,
      "velocity": 52,
      "ticks": 120
    },
    {
      "time": 29520,
      "track": 2,
      "noteNumber": 58,
      "velocity": 48,
      "ticks": 240
    },
    {
      "time": 29520,
      "track": 1,
      "noteNumber": 62,
      "velocity": 54,
      "ticks": 480
    },
    {
      "time": 29520,
      "track": 1,
      "noteNumber": 67,
      "velocity": 54,
      "ticks": 120
    },
    {
      "time": 29640,
      "track": 1,
      "noteNumber": 65,
      "velocity": 52,
      "ticks": 120
    },
    {
      "time": 29760,
      "track": 1,
      "noteNumber": 67,
      "velocity": 53,
      "ticks": 120
    },
    {
      "time": 29760,
      "track": 2,
      "noteNumber": 57,
      "velocity": 49,
      "ticks": 220
    },
    {
      "time": 29880,
      "track": 1,
      "noteNumber": 69,
      "velocity": 53,
      "ticks": 100
    },
    {
      "time": 30000,
      "track": 1,
      "noteNumber": 64,
      "velocity": 66,
      "ticks": 220
    },
    {
      "time": 30000,
      "track": 1,
      "noteNumber": 58,
      "velocity": 56,
      "ticks": 720
    },
    {
      "time": 30000,
      "track": 2,
      "noteNumber": 55,
      "velocity": 58,
      "ticks": 220
    },
    {
      "time": 30240,
      "track": 1,
      "noteNumber": 62,
      "velocity": 63,
      "ticks": 220
    },
    {
      "time": 30240,
      "track": 2,
      "noteNumber": 53,
      "velocity": 56,
      "ticks": 220
    },
    {
      "time": 30480,
      "track": 2,
      "noteNumber": 50,
      "velocity": 58,
      "ticks": 200
    },
    {
      "time": 30480,
      "track": 1,
      "noteNumber": 65,
      "velocity": 68,
      "ticks": 200
    },
    {
      "time": 30960,
      "track": 1,
      "noteNumber": 52,
      "velocity": 51,
      "ticks": 120
    },
    {
      "time": 30960,
      "track": 2,
      "noteNumber": 33,
      "velocity": 48,
      "ticks": 120
    },
    {
      "time": 30960,
      "track": 1,
      "noteNumber": 57,
      "velocity": 51,
      "ticks": 120
    },
    {
      "time": 30960,
      "track": 1,
      "noteNumber": 60,
      "velocity": 61,
      "ticks": 120
    },
    {
      "time": 30960,
      "track": 2,
      "noteNumber": 45,
      "velocity": 57,
      "ticks": 120
    },
    {
      "time": 31200,
      "track": 2,
      "noteNumber": 34,
      "velocity": 47,
      "ticks": 120
    },
    {
      "time": 31200,
      "track": 1,
      "noteNumber": 57,
      "velocity": 59,
      "ticks": 120
    },
    {
      "time": 31200,
      "track": 1,
      "noteNumber": 50,
      "velocity": 50,
      "ticks": 120
    },
    {
      "time": 31200,
      "track": 1,
      "noteNumber": 53,
      "velocity": 50,
      "ticks": 120
    },
    {
      "time": 31200,
      "track": 2,
      "noteNumber": 46,
      "velocity": 56,
      "ticks": 120
    },
    {
      "time": 31440,
      "track": 2,
      "noteNumber": 36,
      "velocity": 48,
      "ticks": 120
    },
    {
      "time": 31440,
      "track": 1,
      "noteNumber": 52,
      "velocity": 51,
      "ticks": 120
    },
    {
      "time": 31440,
      "track": 1,
      "noteNumber": 60,
      "velocity": 61,
      "ticks": 120
    },
    {
      "time": 31440,
      "track": 1,
      "noteNumber": 55,
      "velocity": 51,
      "ticks": 120
    },
    {
      "time": 31440,
      "track": 2,
      "noteNumber": 48,
      "velocity": 57,
      "ticks": 120
    },
    {
      "time": 31920,
      "track": 2,
      "noteNumber": 52,
      "velocity": 63,
      "ticks": 240
    },
    {
      "time": 31920,
      "track": 1,
      "noteNumber": 60,
      "velocity": 63,
      "ticks": 80
    },
    {
      "time": 31920,
      "track": 1,
      "noteNumber": 57,
      "velocity": 53,
      "ticks": 240
    },
    {
      "time": 31920,
      "track": 2,
      "noteNumber": 45,
      "velocity": 53,
      "ticks": 240
    },
    {
      "time": 32000,
      "track": 1,
      "noteNumber": 62,
      "velocity": 63,
      "ticks": 80
    },
    {
      "time": 32080,
      "track": 1,
      "noteNumber": 60,
      "velocity": 63,
      "ticks": 80
    },
    {
      "time": 32160,
      "track": 2,
      "noteNumber": 50,
      "velocity": 63,
      "ticks": 240
    },
    {
      "time": 32160,
      "track": 1,
      "noteNumber": 53,
      "velocity": 55,
      "ticks": 240
    },
    {
      "time": 32160,
      "track": 1,
      "noteNumber": 57,
      "velocity": 66,
      "ticks": 240
    },
    {
      "time": 32400,
      "track": 2,
      "noteNumber": 52,
      "velocity": 63,
      "ticks": 240
    },
    {
      "time": 32400,
      "track": 1,
      "noteNumber": 60,
      "velocity": 66,
      "ticks": 240
    },
    {
      "time": 32400,
      "track": 1,
      "noteNumber": 55,
      "velocity": 55,
      "ticks": 240
    },
    {
      "time": 32400,
      "track": 2,
      "noteNumber": 48,
      "velocity": 53,
      "ticks": 240
    },
    {
      "time": 32640,
      "track": 1,
      "noteNumber": 58,
      "velocity": 50,
      "ticks": 240
    },
    {
      "time": 32640,
      "track": 1,
      "noteNumber": 62,
      "velocity": 59,
      "ticks": 240
    },
    {
      "time": 32640,
      "track": 2,
      "noteNumber": 46,
      "velocity": 47,
      "ticks": 240
    },
    {
      "time": 32640,
      "track": 2,
      "noteNumber": 53,
      "velocity": 56,
      "ticks": 240
    },
    {
      "time": 32880,
      "track": 1,
      "noteNumber": 60,
      "velocity": 48,
      "ticks": 240
    },
    {
      "time": 32880,
      "track": 2,
      "noteNumber": 45,
      "velocity": 45,
      "ticks": 240
    },
    {
      "time": 32880,
      "track": 2,
      "noteNumber": 57,
      "velocity": 53,
      "ticks": 240
    },
    {
      "time": 32880,
      "track": 1,
      "noteNumber": 65,
      "velocity": 57,
      "ticks": 240
    },
    {
      "time": 33120,
      "track": 1,
      "noteNumber": 62,
      "velocity": 45,
      "ticks": 960
    },
    {
      "time": 33120,
      "track": 2,
      "noteNumber": 58,
      "velocity": 51,
      "ticks": 960
    },
    {
      "time": 33120,
      "track": 1,
      "noteNumber": 67,
      "velocity": 54,
      "ticks": 720
    },
    {
      "time": 33120,
      "track": 2,
      "noteNumber": 43,
      "velocity": 43,
      "ticks": 960
    },
    {
      "time": 33120,
      "track": 2,
      "noteNumber": 50,
      "velocity": 43,
      "ticks": 960
    },
    {
      "time": 33840,
      "track": 1,
      "noteNumber": 67,
      "velocity": 49,
      "ticks": 80
    },
    {
      "time": 33920,
      "track": 1,
      "noteNumber": 69,
      "velocity": 49,
      "ticks": 80
    },
    {
      "time": 34000,
      "track": 1,
      "noteNumber": 67,
      "velocity": 49,
      "ticks": 80
    },
    {
      "time": 34080,
      "track": 2,
      "noteNumber": 48,
      "velocity": 40,
      "ticks": 480
    },
    {
      "time": 34080,
      "track": 2,
      "noteNumber": 58,
      "velocity": 46,
      "ticks": 480
    },
    {
      "time": 34080,
      "track": 1,
      "noteNumber": 62,
      "velocity": 45,
      "ticks": 480
    },
    {
      "time": 34080,
      "track": 1,
      "noteNumber": 65,
      "velocity": 54,
      "ticks": 240
    },
    {
      "time": 34320,
      "track": 1,
      "noteNumber": 64,
      "velocity": 51,
      "ticks": 240
    },
    {
      "time": 34560,
      "track": 2,
      "noteNumber": 41,
      "velocity": 51,
      "ticks": 240
    },
    {
      "time": 34560,
      "track": 1,
      "noteNumber": 58,
      "velocity": 43,
      "ticks": 480
    },
    {
      "time": 34560,
      "track": 1,
      "noteNumber": 65,
      "velocity": 51,
      "ticks": 1440
    },
    {
      "time": 34560,
      "track": 1,
      "noteNumber": 62,
      "velocity": 43,
      "ticks": 480
    },
    {
      "time": 34560,
      "track": 2,
      "noteNumber": 29,
      "velocity": 40,
      "ticks": 1920
    },
    {
      "time": 34800,
      "track": 2,
      "noteNumber": 48,
      "velocity": 46,
      "ticks": 480
    },
    {
      "time": 35040,
      "track": 1,
      "noteNumber": 57,
      "velocity": 33,
      "ticks": 240
    },
    {
      "time": 35040,
      "track": 1,
      "noteNumber": 60,
      "velocity": 39,
      "ticks": 240
    },
    {
      "time": 35280,
      "track": 1,
      "noteNumber": 55,
      "velocity": 30,
      "ticks": 240
    },
    {
      "time": 35280,
      "track": 1,
      "noteNumber": 58,
      "velocity": 36,
      "ticks": 240
    },
    {
      "time": 35280,
      "track": 2,
      "noteNumber": 53,
      "velocity": 42,
      "ticks": 480
    },
    {
      "time": 35520,
      "track": 1,
      "noteNumber": 60,
      "velocity": 33,
      "ticks": 238
    },
    {
      "time": 35520,
      "track": 1,
      "noteNumber": 57,
      "velocity": 27,
      "ticks": 960
    },
    {
      "time": 35760,
      "track": 2,
      "noteNumber": 60,
      "velocity": 33,
      "ticks": 480
    },
    {
      "time": 36240,
      "track": 2,
      "noteNumber": 65,
      "velocity": 30,
      "ticks": 160
    },
    {
      "time": 36420,
      "track": 2,
      "noteNumber": 57,
      "velocity": 28,
      "ticks": 1500
    },
    {
      "time": 36450,
      "track": 2,
      "noteNumber": 64,
      "velocity": 28,
      "ticks": 1470
    },
    {
      "time": 36480,
      "track": 1,
      "noteNumber": 88,
      "velocity": 48,
      "ticks": 240
    },
    {
      "time": 36480,
      "track": 2,
      "noteNumber": 72,
      "velocity": 33,
      "ticks": 1440
    },
    {
      "time": 36480,
      "track": 1,
      "noteNumber": 76,
      "velocity": 33,
      "ticks": 1440
    },
    {
      "time": 36720,
      "track": 1,
      "noteNumber": 83,
      "velocity": 43,
      "ticks": 480
    },
    {
      "time": 37200,
      "track": 1,
      "noteNumber": 81,
      "velocity": 45,
      "ticks": 480
    },
    {
      "time": 37680,
      "track": 1,
      "noteNumber": 76,
      "velocity": 42,
      "ticks": 240
    },
    {
      "time": 37920,
      "track": 1,
      "noteNumber": 71,
      "velocity": 39,
      "ticks": 60
    },
    {
      "time": 37920,
      "track": 1,
      "noteNumber": 65,
      "velocity": 32,
      "ticks": 240
    },
    {
      "time": 37920,
      "track": 2,
      "noteNumber": 50,
      "velocity": 31,
      "ticks": 240
    },
    {
      "time": 37920,
      "track": 2,
      "noteNumber": 57,
      "velocity": 33,
      "ticks": 240
    },
    {
      "time": 37980,
      "track": 1,
      "noteNumber": 69,
      "velocity": 39,
      "ticks": 60
    },
    {
      "time": 38040,
      "track": 1,
      "noteNumber": 71,
      "velocity": 39,
      "ticks": 60
    },
    {
      "time": 38100,
      "track": 1,
      "noteNumber": 74,
      "velocity": 39,
      "ticks": 60
    },
    {
      "time": 38160,
      "track": 2,
      "noteNumber": 81,
      "velocity": 37,
      "ticks": 240
    },
    {
      "time": 38160,
      "track": 2,
      "noteNumber": 83,
      "velocity": 37,
      "ticks": 240
    },
    {
      "time": 38160,
      "track": 2,
      "noteNumber": 77,
      "velocity": 37,
      "ticks": 240
    },
    {
      "time": 38400,
      "track": 2,
      "noteNumber": 57,
      "velocity": 27,
      "ticks": 1440
    },
    {
      "time": 38400,
      "track": 1,
      "noteNumber": 76,
      "velocity": 33,
      "ticks": 1440
    },
    {
      "time": 38400,
      "track": 2,
      "noteNumber": 72,
      "velocity": 33,
      "ticks": 1440
    },
    {
      "time": 38400,
      "track": 2,
      "noteNumber": 64,
      "velocity": 27,
      "ticks": 1440
    },
    {
      "time": 38400,
      "track": 1,
      "noteNumber": 88,
      "velocity": 48,
      "ticks": 240
    },
    {
      "time": 38640,
      "track": 1,
      "noteNumber": 83,
      "velocity": 43,
      "ticks": 480
    },
    {
      "time": 39120,
      "track": 1,
      "noteNumber": 81,
      "velocity": 45,
      "ticks": 480
    },
    {
      "time": 39600,
      "track": 1,
      "noteNumber": 76,
      "velocity": 42,
      "ticks": 240
    },
    {
      "time": 39840,
      "track": 2,
      "noteNumber": 50,
      "velocity": 27,
      "ticks": 480
    },
    {
      "time": 39840,
      "track": 2,
      "noteNumber": 60,
      "velocity": 33,
      "ticks": 480
    },
    {
      "time": 39840,
      "track": 1,
      "noteNumber": 71,
      "velocity": 39,
      "ticks": 240
    },
    {
      "time": 39840,
      "track": 1,
      "noteNumber": 65,
      "velocity": 39,
      "ticks": 480
    },
    {
      "time": 40080,
      "track": 1,
      "noteNumber": 69,
      "velocity": 39,
      "ticks": 300
    },
    {
      "time": 40320,
      "track": 2,
      "noteNumber": 59,
      "velocity": 35,
      "ticks": 240
    },
    {
      "time": 40320,
      "track": 2,
      "noteNumber": 43,
      "velocity": 29,
      "ticks": 240
    },
    {
      "time": 40320,
      "track": 2,
      "noteNumber": 50,
      "velocity": 29,
      "ticks": 240
    },
    {
      "time": 40380,
      "track": 1,
      "noteNumber": 71,
      "velocity": 35,
      "ticks": 60
    },
    {
      "time": 40440,
      "track": 1,
      "noteNumber": 69,
      "velocity": 37,
      "ticks": 60
    },
    {
      "time": 40500,
      "track": 1,
      "noteNumber": 67,
      "velocity": 39,
      "ticks": 60
    },
    {
      "time": 40560,
      "track": 2,
      "noteNumber": 48,
      "velocity": 35,
      "ticks": 480
    },
    {
      "time": 40560,
      "track": 2,
      "noteNumber": 55,
      "velocity": 41,
      "ticks": 480
    },
    {
      "time": 40560,
      "track": 1,
      "noteNumber": 60,
      "velocity": 30,
      "ticks": 480
    },
    {
      "time": 40560,
      "track": 1,
      "noteNumber": 64,
      "velocity": 36,
      "ticks": 480
    },
    {
      "time": 41040,
      "track": 1,
      "noteNumber": 57,
      "velocity": 32,
      "ticks": 1200
    },
    {
      "time": 41040,
      "track": 2,
      "noteNumber": 41,
      "velocity": 31,
      "ticks": 480
    },
    {
      "time": 41040,
      "track": 2,
      "noteNumber": 48,
      "velocity": 37,
      "ticks": 1200
    },
    {
      "time": 41040,
      "track": 1,
      "noteNumber": 62,
      "velocity": 38,
      "ticks": 480
    },
    {
      "time": 41520,
      "track": 1,
      "noteNumber": 64,
      "velocity": 41,
      "ticks": 240
    },
    {
      "time": 41520,
      "track": 2,
      "noteNumber": 40,
      "velocity": 35,
      "ticks": 240
    },
    {
      "time": 41760,
      "track": 1,
      "noteNumber": 65,
      "velocity": 45,
      "ticks": 240
    },
    {
      "time": 41760,
      "track": 2,
      "noteNumber": 38,
      "velocity": 35,
      "ticks": 480
    },
    {
      "time": 42000,
      "track": 1,
      "noteNumber": 69,
      "velocity": 41,
      "ticks": 220
    },
    {
      "time": 42240,
      "track": 1,
      "noteNumber": 59,
      "velocity": 32,
      "ticks": 960
    },
    {
      "time": 42240,
      "track": 1,
      "noteNumber": 64,
      "velocity": 38,
      "ticks": 240
    },
    {
      "time": 42240,
      "track": 2,
      "noteNumber": 43,
      "velocity": 31,
      "ticks": 1680
    },
    {
      "time": 42240,
      "track": 2,
      "noteNumber": 53,
      "velocity": 37,
      "ticks": 1680
    },
    {
      "time": 42480,
      "track": 1,
      "noteNumber": 62,
      "velocity": 36,
      "ticks": 120
    },
    {
      "time": 42600,
      "track": 1,
      "noteNumber": 64,
      "velocity": 34,
      "ticks": 120
    },
    {
      "time": 42720,
      "track": 1,
      "noteNumber": 62,
      "velocity": 37,
      "ticks": 200
    },
    {
      "time": 42960,
      "track": 1,
      "noteNumber": 64,
      "velocity": 38,
      "ticks": 480
    },
    {
      "time": 43200,
      "track": 1,
      "noteNumber": 57,
      "velocity": 28,
      "ticks": 720
    },
    {
      "time": 43440,
      "track": 1,
      "noteNumber": 62,
      "velocity": 32,
      "ticks": 120
    },
    {
      "time": 43560,
      "track": 1,
      "noteNumber": 64,
      "velocity": 30,
      "ticks": 120
    },
    {
      "time": 43680,
      "track": 1,
      "noteNumber": 62,
      "velocity": 31,
      "ticks": 200
    },
    {
      "time": 43920,
      "track": 1,
      "noteNumber": 55,
      "velocity": 19,
      "ticks": 240
    },
    {
      "time": 43920,
      "track": 1,
      "noteNumber": 59,
      "velocity": 24,
      "ticks": 240
    },
    {
      "time": 43920,
      "track": 1,
      "noteNumber": 64,
      "velocity": 24,
      "ticks": 240
    },
    {
      "time": 43920,
      "track": 2,
      "noteNumber": 52,
      "velocity": 25,
      "ticks": 240
    },
    {
      "time": 43920,
      "track": 2,
      "noteNumber": 47,
      "velocity": 20,
      "ticks": 240
    },
    {
      "time": 43920,
      "track": 2,
      "noteNumber": 40,
      "velocity": 20,
      "ticks": 240
    },
    {
      "time": 44160,
      "track": 2,
      "noteNumber": 57,
      "velocity": 30,
      "ticks": 1440
    },
    {
      "time": 44160,
      "track": 2,
      "noteNumber": 72,
      "velocity": 30,
      "ticks": 1440
    },
    {
      "time": 44160,
      "track": 1,
      "noteNumber": 88,
      "velocity": 45,
      "ticks": 240
    },
    {
      "time": 44160,
      "track": 1,
      "noteNumber": 76,
      "velocity": 30,
      "ticks": 1440
    },
    {
      "time": 44160,
      "track": 2,
      "noteNumber": 64,
      "velocity": 30,
      "ticks": 1440
    },
    {
      "time": 44400,
      "track": 1,
      "noteNumber": 83,
      "velocity": 43,
      "ticks": 480
    },
    {
      "time": 44880,
      "track": 1,
      "noteNumber": 81,
      "velocity": 45,
      "ticks": 480
    },
    {
      "time": 45360,
      "track": 1,
      "noteNumber": 76,
      "velocity": 42,
      "ticks": 240
    },
    {
      "time": 45600,
      "track": 2,
      "noteNumber": 57,
      "velocity": 33,
      "ticks": 240
    },
    {
      "time": 45600,
      "track": 1,
      "noteNumber": 65,
      "velocity": 32,
      "ticks": 240
    },
    {
      "time": 45600,
      "track": 1,
      "noteNumber": 71,
      "velocity": 39,
      "ticks": 60
    },
    {
      "time": 45600,
      "track": 2,
      "noteNumber": 50,
      "velocity": 27,
      "ticks": 240
    },
    {
      "time": 45660,
      "track": 1,
      "noteNumber": 69,
      "velocity": 39,
      "ticks": 60
    },
    {
      "time": 45720,
      "track": 1,
      "noteNumber": 71,
      "velocity": 39,
      "ticks": 60
    },
    {
      "time": 45780,
      "track": 1,
      "noteNumber": 74,
      "velocity": 39,
      "ticks": 60
    },
    {
      "time": 45840,
      "track": 2,
      "noteNumber": 83,
      "velocity": 37,
      "ticks": 240
    },
    {
      "time": 45840,
      "track": 2,
      "noteNumber": 77,
      "velocity": 37,
      "ticks": 240
    },
    {
      "time": 45840,
      "track": 2,
      "noteNumber": 81,
      "velocity": 37,
      "ticks": 240
    },
    {
      "time": 46080,
      "track": 2,
      "noteNumber": 57,
      "velocity": 27,
      "ticks": 960
    },
    {
      "time": 46080,
      "track": 2,
      "noteNumber": 64,
      "velocity": 27,
      "ticks": 960
    },
    {
      "time": 46080,
      "track": 2,
      "noteNumber": 72,
      "velocity": 33,
      "ticks": 960
    },
    {
      "time": 46080,
      "track": 1,
      "noteNumber": 88,
      "velocity": 48,
      "ticks": 240
    },
    {
      "time": 46080,
      "track": 1,
      "noteNumber": 76,
      "velocity": 33,
      "ticks": 960
    },
    {
      "time": 46320,
      "track": 1,
      "noteNumber": 83,
      "velocity": 43,
      "ticks": 480
    },
    {
      "time": 46800,
      "track": 1,
      "noteNumber": 81,
      "velocity": 43,
      "ticks": 240
    },
    {
      "time": 47040,
      "track": 1,
      "noteNumber": 93,
      "velocity": 53,
      "ticks": 240
    },
    {
      "time": 47040,
      "track": 2,
      "noteNumber": 77,
      "velocity": 39,
      "ticks": 960
    },
    {
      "time": 47040,
      "track": 2,
      "noteNumber": 69,
      "velocity": 33,
      "ticks": 960
    },
    {
      "time": 47040,
      "track": 2,
      "noteNumber": 62,
      "velocity": 33,
      "ticks": 960
    },
    {
      "time": 47040,
      "track": 1,
      "noteNumber": 81,
      "velocity": 36,
      "ticks": 960
    },
    {
      "time": 47280,
      "track": 1,
      "noteNumber": 88,
      "velocity": 46,
      "ticks": 480
    },
    {
      "time": 47760,
      "track": 1,
      "noteNumber": 86,
      "velocity": 46,
      "ticks": 240
    },
    {
      "time": 48000,
      "track": 2,
      "noteNumber": 65,
      "velocity": 32,
      "ticks": 960
    },
    {
      "time": 48000,
      "track": 2,
      "noteNumber": 55,
      "velocity": 27,
      "ticks": 960
    },
    {
      "time": 48000,
      "track": 1,
      "noteNumber": 74,
      "velocity": 35,
      "ticks": 80
    },
    {
      "time": 48000,
      "track": 1,
      "noteNumber": 71,
      "velocity": 29,
      "ticks": 240
    },
    {
      "time": 48060,
      "track": 1,
      "noteNumber": 76,
      "velocity": 36,
      "ticks": 80
    },
    {
      "time": 48120,
      "track": 1,
      "noteNumber": 79,
      "velocity": 38,
      "ticks": 80
    },
    {
      "time": 48180,
      "track": 1,
      "noteNumber": 81,
      "velocity": 39,
      "ticks": 80
    },
    {
      "time": 48240,
      "track": 1,
      "noteNumber": 86,
      "velocity": 46,
      "ticks": 480
    },
    {
      "time": 48720,
      "track": 1,
      "noteNumber": 88,
      "velocity": 43,
      "ticks": 240
    },
    {
      "time": 48960,
      "track": 2,
      "noteNumber": 48,
      "velocity": 21,
      "ticks": 960
    },
    {
      "time": 48960,
      "track": 2,
      "noteNumber": 55,
      "velocity": 21,
      "ticks": 960
    },
    {
      "time": 48960,
      "track": 2,
      "noteNumber": 64,
      "velocity": 26,
      "ticks": 960
    },
    {
      "time": 48960,
      "track": 1,
      "noteNumber": 69,
      "velocity": 36,
      "ticks": 80
    },
    {
      "time": 48960,
      "track": 1,
      "noteNumber": 67,
      "velocity": 21,
      "ticks": 240
    },
    {
      "time": 49020,
      "track": 1,
      "noteNumber": 72,
      "velocity": 36,
      "ticks": 80
    },
    {
      "time": 49080,
      "track": 1,
      "noteNumber": 74,
      "velocity": 37,
      "ticks": 80
    },
    {
      "time": 49140,
      "track": 1,
      "noteNumber": 76,
      "velocity": 38,
      "ticks": 80
    },
    {
      "time": 49200,
      "track": 1,
      "noteNumber": 81,
      "velocity": 45,
      "ticks": 360
    },
    {
      "time": 49560,
      "track": 1,
      "noteNumber": 79,
      "velocity": 39,
      "ticks": 120
    },
    {
      "time": 49680,
      "track": 1,
      "noteNumber": 81,
      "velocity": 44,
      "ticks": 120
    },
    {
      "time": 49800,
      "track": 1,
      "noteNumber": 84,
      "velocity": 42,
      "ticks": 120
    },
    {
      "time": 49920,
      "track": 1,
      "noteNumber": 71,
      "velocity": 29,
      "ticks": 240
    },
    {
      "time": 49920,
      "track": 2,
      "noteNumber": 65,
      "velocity": 32,
      "ticks": 960
    },
    {
      "time": 49920,
      "track": 2,
      "noteNumber": 55,
      "velocity": 27,
      "ticks": 960
    },
    {
      "time": 49920,
      "track": 1,
      "noteNumber": 74,
      "velocity": 35,
      "ticks": 80
    },
    {
      "time": 49980,
      "track": 1,
      "noteNumber": 76,
      "velocity": 36,
      "ticks": 80
    },
    {
      "time": 50040,
      "track": 1,
      "noteNumber": 77,
      "velocity": 38,
      "ticks": 80
    },
    {
      "time": 50100,
      "track": 1,
      "noteNumber": 81,
      "velocity": 39,
      "ticks": 80
    },
    {
      "time": 50160,
      "track": 1,
      "noteNumber": 86,
      "velocity": 46,
      "ticks": 480
    },
    {
      "time": 50640,
      "track": 1,
      "noteNumber": 88,
      "velocity": 43,
      "ticks": 240
    },
    {
      "time": 50880,
      "track": 1,
      "noteNumber": 69,
      "velocity": 36,
      "ticks": 80
    },
    {
      "time": 50880,
      "track": 1,
      "noteNumber": 67,
      "velocity": 21,
      "ticks": 240
    },
    {
      "time": 50880,
      "track": 2,
      "noteNumber": 64,
      "velocity": 28,
      "ticks": 960
    },
    {
      "time": 50880,
      "track": 2,
      "noteNumber": 55,
      "velocity": 24,
      "ticks": 960
    },
    {
      "time": 50880,
      "track": 2,
      "noteNumber": 48,
      "velocity": 24,
      "ticks": 960
    },
    {
      "time": 50940,
      "track": 1,
      "noteNumber": 72,
      "velocity": 36,
      "ticks": 80
    },
    {
      "time": 51000,
      "track": 1,
      "noteNumber": 74,
      "velocity": 37,
      "ticks": 80
    },
    {
      "time": 51060,
      "track": 1,
      "noteNumber": 76,
      "velocity": 38,
      "ticks": 80
    },
    {
      "time": 51120,
      "track": 1,
      "noteNumber": 81,
      "velocity": 45,
      "ticks": 360
    },
    {
      "time": 51480,
      "track": 1,
      "noteNumber": 83,
      "velocity": 44,
      "ticks": 120
    },
    {
      "time": 51600,
      "track": 1,
      "noteNumber": 81,
      "velocity": 44,
      "ticks": 120
    },
    {
      "time": 51720,
      "track": 1,
      "noteNumber": 79,
      "velocity": 43,
      "ticks": 120
    },
    {
      "time": 51840,
      "track": 2,
      "noteNumber": 57,
      "velocity": 27,
      "ticks": 960
    },
    {
      "time": 51840,
      "track": 1,
      "noteNumber": 61,
      "velocity": 28,
      "ticks": 80
    },
    {
      "time": 51840,
      "track": 1,
      "noteNumber": 59,
      "velocity": 24,
      "ticks": 240
    },
    {
      "time": 51840,
      "track": 2,
      "noteNumber": 47,
      "velocity": 23,
      "ticks": 960
    },
    {
      "time": 51840,
      "track": 2,
      "noteNumber": 42,
      "velocity": 23,
      "ticks": 960
    },
    {
      "time": 51900,
      "track": 1,
      "noteNumber": 63,
      "velocity": 30,
      "ticks": 80
    },
    {
      "time": 51960,
      "track": 1,
      "noteNumber": 66,
      "velocity": 32,
      "ticks": 80
    },
    {
      "time": 52020,
      "track": 1,
      "noteNumber": 69,
      "velocity": 33,
      "ticks": 80
    },
    {
      "time": 52080,
      "track": 1,
      "noteNumber": 73,
      "velocity": 38,
      "ticks": 480
    },
    {
      "time": 52560,
      "track": 1,
      "noteNumber": 75,
      "velocity": 34,
      "ticks": 240
    },
    {
      "time": 52800,
      "track": 1,
      "noteNumber": 59,
      "velocity": 18,
      "ticks": 240
    },
    {
      "time": 52800,
      "track": 2,
      "noteNumber": 47,
      "velocity": 23,
      "ticks": 960
    },
    {
      "time": 52800,
      "track": 2,
      "noteNumber": 40,
      "velocity": 23,
      "ticks": 960
    },
    {
      "time": 52800,
      "track": 1,
      "noteNumber": 61,
      "velocity": 30,
      "ticks": 80
    },
    {
      "time": 52800,
      "track": 2,
      "noteNumber": 56,
      "velocity": 27,
      "ticks": 960
    },
    {
      "time": 52860,
      "track": 1,
      "noteNumber": 63,
      "velocity": 30,
      "ticks": 80
    },
    {
      "time": 52920,
      "track": 1,
      "noteNumber": 64,
      "velocity": 31,
      "ticks": 80
    },
    {
      "time": 52980,
      "track": 1,
      "noteNumber": 66,
      "velocity": 32,
      "ticks": 80
    },
    {
      "time": 53040,
      "track": 1,
      "noteNumber": 68,
      "velocity": 38,
      "ticks": 360
    },
    {
      "time": 53400,
      "track": 1,
      "noteNumber": 71,
      "velocity": 33,
      "ticks": 120
    },
    {
      "time": 53520,
      "track": 1,
      "noteNumber": 68,
      "velocity": 36,
      "ticks": 120
    },
    {
      "time": 53640,
      "track": 1,
      "noteNumber": 71,
      "velocity": 34,
      "ticks": 120
    },
    {
      "time": 53760,
      "track": 2,
      "noteNumber": 57,
      "velocity": 34,
      "ticks": 960
    },
    {
      "time": 53760,
      "track": 1,
      "noteNumber": 61,
      "velocity": 28,
      "ticks": 80
    },
    {
      "time": 53760,
      "track": 1,
      "noteNumber": 59,
      "velocity": 24,
      "ticks": 240
    },
    {
      "time": 53760,
      "track": 2,
      "noteNumber": 42,
      "velocity": 28,
      "ticks": 960
    },
    {
      "time": 53760,
      "track": 2,
      "noteNumber": 47,
      "velocity": 28,
      "ticks": 960
    },
    {
      "time": 53820,
      "track": 1,
      "noteNumber": 63,
      "velocity": 30,
      "ticks": 80
    },
    {
      "time": 53880,
      "track": 1,
      "noteNumber": 66,
      "velocity": 32,
      "ticks": 80
    },
    {
      "time": 53940,
      "track": 1,
      "noteNumber": 69,
      "velocity": 33,
      "ticks": 80
    },
    {
      "time": 54000,
      "track": 1,
      "noteNumber": 73,
      "velocity": 38,
      "ticks": 360
    },
    {
      "time": 54360,
      "track": 1,
      "noteNumber": 75,
      "velocity": 35,
      "ticks": 120
    },
    {
      "time": 54480,
      "track": 1,
      "noteNumber": 73,
      "velocity": 38,
      "ticks": 120
    },
    {
      "time": 54600,
      "track": 1,
      "noteNumber": 75,
      "velocity": 36,
      "ticks": 120
    },
    {
      "time": 54720,
      "track": 1,
      "noteNumber": 73,
      "velocity": 37,
      "ticks": 80
    },
    {
      "time": 54720,
      "track": 2,
      "noteNumber": 68,
      "velocity": 42,
      "ticks": 960
    },
    {
      "time": 54720,
      "track": 2,
      "noteNumber": 52,
      "velocity": 35,
      "ticks": 960
    },
    {
      "time": 54720,
      "track": 2,
      "noteNumber": 59,
      "velocity": 35,
      "ticks": 960
    },
    {
      "time": 54720,
      "track": 1,
      "noteNumber": 71,
      "velocity": 27,
      "ticks": 240
    },
    {
      "time": 54780,
      "track": 1,
      "noteNumber": 75,
      "velocity": 37,
      "ticks": 80
    },
    {
      "time": 54840,
      "track": 1,
      "noteNumber": 76,
      "velocity": 38,
      "ticks": 80
    },
    {
      "time": 54900,
      "track": 1,
      "noteNumber": 78,
      "velocity": 39,
      "ticks": 80
    },
    {
      "time": 54960,
      "track": 1,
      "noteNumber": 80,
      "velocity": 47,
      "ticks": 360
    },
    {
      "time": 55320,
      "track": 1,
      "noteNumber": 83,
      "velocity": 47,
      "ticks": 120
    },
    {
      "time": 55440,
      "track": 1,
      "noteNumber": 80,
      "velocity": 54,
      "ticks": 120
    },
    {
      "time": 55560,
      "track": 1,
      "noteNumber": 83,
      "velocity": 53,
      "ticks": 120
    },
    {
      "time": 55680,
      "track": 1,
      "noteNumber": 77,
      "velocity": 45,
      "ticks": 480
    },
    {
      "time": 55680,
      "track": 2,
      "noteNumber": 69,
      "velocity": 45,
      "ticks": 480
    },
    {
      "time": 55680,
      "track": 1,
      "noteNumber": 86,
      "velocity": 53,
      "ticks": 240
    },
    {
      "time": 55680,
      "track": 2,
      "noteNumber": 62,
      "velocity": 38,
      "ticks": 480
    },
    {
      "time": 55920,
      "track": 1,
      "noteNumber": 84,
      "velocity": 52,
      "ticks": 120
    },
    {
      "time": 56040,
      "track": 1,
      "noteNumber": 83,
      "velocity": 52,
      "ticks": 120
    },
    {
      "time": 56160,
      "track": 2,
      "noteNumber": 71,
      "velocity": 42,
      "ticks": 480
    },
    {
      "time": 56160,
      "track": 1,
      "noteNumber": 81,
      "velocity": 53,
      "ticks": 120
    },
    {
      "time": 56160,
      "track": 1,
      "noteNumber": 74,
      "velocity": 42,
      "ticks": 480
    },
    {
      "time": 56160,
      "track": 2,
      "noteNumber": 65,
      "velocity": 35,
      "ticks": 480
    },
    {
      "time": 56280,
      "track": 1,
      "noteNumber": 79,
      "velocity": 51,
      "ticks": 120
    },
    {
      "time": 56400,
      "track": 1,
      "noteNumber": 81,
      "velocity": 51,
      "ticks": 120
    },
    {
      "time": 56520,
      "track": 1,
      "noteNumber": 83,
      "velocity": 51,
      "ticks": 100
    },
    {
      "time": 56640,
      "track": 1,
      "noteNumber": 76,
      "velocity": 53,
      "ticks": 120
    },
    {
      "time": 56640,
      "track": 1,
      "noteNumber": 71,
      "velocity": 42,
      "ticks": 240
    },
    {
      "time": 56640,
      "track": 2,
      "noteNumber": 67,
      "velocity": 42,
      "ticks": 240
    },
    {
      "time": 56640,
      "track": 2,
      "noteNumber": 60,
      "velocity": 35,
      "ticks": 480
    },
    {
      "time": 56760,
      "track": 1,
      "noteNumber": 77,
      "velocity": 51,
      "ticks": 120
    },
    {
      "time": 56880,
      "track": 1,
      "noteNumber": 79,
      "velocity": 51,
      "ticks": 120
    },
    {
      "time": 56880,
      "track": 1,
      "noteNumber": 69,
      "velocity": 39,
      "ticks": 480
    },
    {
      "time": 56880,
      "track": 2,
      "noteNumber": 65,
      "velocity": 39,
      "ticks": 480
    },
    {
      "time": 57000,
      "track": 1,
      "noteNumber": 81,
      "velocity": 51,
      "ticks": 100
    },
    {
      "time": 57120,
      "track": 2,
      "noteNumber": 59,
      "velocity": 42,
      "ticks": 480
    },
    {
      "time": 57120,
      "track": 1,
      "noteNumber": 74,
      "velocity": 53,
      "ticks": 120
    },
    {
      "time": 57240,
      "track": 1,
      "noteNumber": 76,
      "velocity": 49,
      "ticks": 120
    },
    {
      "time": 57360,
      "track": 1,
      "noteNumber": 67,
      "velocity": 39,
      "ticks": 480
    },
    {
      "time": 57360,
      "track": 1,
      "noteNumber": 77,
      "velocity": 49,
      "ticks": 120
    },
    {
      "time": 57360,
      "track": 2,
      "noteNumber": 64,
      "velocity": 39,
      "ticks": 480
    },
    {
      "time": 57480,
      "track": 1,
      "noteNumber": 79,
      "velocity": 49,
      "ticks": 100
    },
    {
      "time": 57600,
      "track": 1,
      "noteNumber": 72,
      "velocity": 53,
      "ticks": 120
    },
    {
      "time": 57600,
      "track": 2,
      "noteNumber": 57,
      "velocity": 42,
      "ticks": 480
    },
    {
      "time": 57720,
      "track": 1,
      "noteNumber": 74,
      "velocity": 52,
      "ticks": 120
    },
    {
      "time": 57840,
      "track": 1,
      "noteNumber": 65,
      "velocity": 39,
      "ticks": 480
    },
    {
      "time": 57840,
      "track": 2,
      "noteNumber": 62,
      "velocity": 39,
      "ticks": 720
    },
    {
      "time": 57840,
      "track": 1,
      "noteNumber": 76,
      "velocity": 52,
      "ticks": 120
    },
    {
      "time": 57960,
      "track": 1,
      "noteNumber": 77,
      "velocity": 52,
      "ticks": 120
    },
    {
      "time": 58080,
      "track": 2,
      "noteNumber": 57,
      "velocity": 42,
      "ticks": 240
    },
    {
      "time": 58080,
      "track": 1,
      "noteNumber": 71,
      "velocity": 56,
      "ticks": 580
    },
    {
      "time": 58320,
      "track": 1,
      "noteNumber": 67,
      "velocity": 45,
      "ticks": 240
    },
    {
      "time": 58320,
      "track": 2,
      "noteNumber": 55,
      "velocity": 44,
      "ticks": 240
    },
    {
      "time": 58560,
      "track": 2,
      "noteNumber": 53,
      "velocity": 33,
      "ticks": 240
    },
    {
      "time": 58560,
      "track": 2,
      "noteNumber": 62,
      "velocity": 39,
      "ticks": 240
    },
    {
      "time": 58560,
      "track": 1,
      "noteNumber": 69,
      "velocity": 41,
      "ticks": 240
    },
    {
      "time": 58680,
      "track": 1,
      "noteNumber": 72,
      "velocity": 51,
      "ticks": 120
    },
    {
      "time": 58800,
      "track": 2,
      "noteNumber": 59,
      "velocity": 33,
      "ticks": 240
    },
    {
      "time": 58800,
      "track": 2,
      "noteNumber": 52,
      "velocity": 27,
      "ticks": 240
    },
    {
      "time": 58800,
      "track": 1,
      "noteNumber": 67,
      "velocity": 33,
      "ticks": 240
    },
    {
      "time": 58800,
      "track": 1,
      "noteNumber": 74,
      "velocity": 48,
      "ticks": 120
    },
    {
      "time": 58920,
      "track": 1,
      "noteNumber": 76,
      "velocity": 46,
      "ticks": 120
    },
    {
      "time": 59040,
      "track": 2,
      "noteNumber": 60,
      "velocity": 38,
      "ticks": 240
    },
    {
      "time": 59040,
      "track": 2,
      "noteNumber": 50,
      "velocity": 32,
      "ticks": 240
    },
    {
      "time": 59040,
      "track": 1,
      "noteNumber": 65,
      "velocity": 45,
      "ticks": 240
    },
    {
      "time": 59040,
      "track": 1,
      "noteNumber": 69,
      "velocity": 45,
      "ticks": 720
    },
    {
      "time": 59280,
      "track": 2,
      "noteNumber": 52,
      "velocity": 36,
      "ticks": 240
    },
    {
      "time": 59280,
      "track": 2,
      "noteNumber": 48,
      "velocity": 30,
      "ticks": 240
    },
    {
      "time": 59280,
      "track": 1,
      "noteNumber": 64,
      "velocity": 38,
      "ticks": 240
    },
    {
      "time": 59520,
      "track": 1,
      "noteNumber": 63,
      "velocity": 35,
      "ticks": 1920
    },
    {
      "time": 59520,
      "track": 2,
      "noteNumber": 47,
      "velocity": 30,
      "ticks": 1920
    },
    {
      "time": 59520,
      "track": 2,
      "noteNumber": 54,
      "velocity": 36,
      "ticks": 1920
    },
    {
      "time": 59760,
      "track": 1,
      "noteNumber": 71,
      "velocity": 43,
      "ticks": 120
    },
    {
      "time": 59880,
      "track": 1,
      "noteNumber": 69,
      "velocity": 43,
      "ticks": 120
    },
    {
      "time": 60000,
      "track": 1,
      "noteNumber": 68,
      "velocity": 45,
      "ticks": 120
    },
    {
      "time": 60120,
      "track": 1,
      "noteNumber": 69,
      "velocity": 43,
      "ticks": 120
    },
    {
      "time": 60240,
      "track": 1,
      "noteNumber": 66,
      "velocity": 45,
      "ticks": 120
    },
    {
      "time": 60360,
      "track": 1,
      "noteNumber": 68,
      "velocity": 43,
      "ticks": 120
    },
    {
      "time": 60480,
      "track": 1,
      "noteNumber": 69,
      "velocity": 45,
      "ticks": 220
    },
    {
      "time": 60720,
      "track": 1,
      "noteNumber": 71,
      "velocity": 43,
      "ticks": 120
    },
    {
      "time": 60840,
      "track": 1,
      "noteNumber": 69,
      "velocity": 43,
      "ticks": 120
    },
    {
      "time": 60960,
      "track": 1,
      "noteNumber": 66,
      "velocity": 45,
      "ticks": 240
    },
    {
      "time": 61200,
      "track": 1,
      "noteNumber": 68,
      "velocity": 43,
      "ticks": 240
    },
    {
      "time": 61440,
      "track": 1,
      "noteNumber": 64,
      "velocity": 43,
      "ticks": 220
    },
    {
      "time": 61440,
      "track": 2,
      "noteNumber": 48,
      "velocity": 22,
      "ticks": 3840
    },
    {
      "time": 61440,
      "track": 1,
      "noteNumber": 57,
      "velocity": 22,
      "ticks": 1920
    },
    {
      "time": 61440,
      "track": 1,
      "noteNumber": 69,
      "velocity": 27,
      "ticks": 1920
    },
    {
      "time": 61440,
      "track": 2,
      "noteNumber": 54,
      "velocity": 27,
      "ticks": 3840
    },
    {
      "time": 61680,
      "track": 1,
      "noteNumber": 66,
      "velocity": 38,
      "ticks": 120
    },
    {
      "time": 61800,
      "track": 1,
      "noteNumber": 64,
      "velocity": 38,
      "ticks": 120
    },
    {
      "time": 61920,
      "track": 1,
      "noteNumber": 60,
      "velocity": 38,
      "ticks": 120
    },
    {
      "time": 62040,
      "track": 1,
      "noteNumber": 62,
      "velocity": 37,
      "ticks": 120
    },
    {
      "time": 62160,
      "track": 1,
      "noteNumber": 64,
      "velocity": 36,
      "ticks": 460
    },
    {
      "time": 62640,
      "track": 1,
      "noteNumber": 66,
      "velocity": 38,
      "ticks": 120
    },
    {
      "time": 62760,
      "track": 1,
      "noteNumber": 64,
      "velocity": 38,
      "ticks": 120
    },
    {
      "time": 62880,
      "track": 1,
      "noteNumber": 60,
      "velocity": 38,
      "ticks": 120
    },
    {
      "time": 63000,
      "track": 1,
      "noteNumber": 62,
      "velocity": 37,
      "ticks": 120
    },
    {
      "time": 63120,
      "track": 1,
      "noteNumber": 64,
      "velocity": 36,
      "ticks": 470
    },
    {
      "time": 63360,
      "track": 1,
      "noteNumber": 58,
      "velocity": 25,
      "ticks": 1920
    },
    {
      "time": 63600,
      "track": 1,
      "noteNumber": 66,
      "velocity": 37,
      "ticks": 120
    },
    {
      "time": 63720,
      "track": 1,
      "noteNumber": 64,
      "velocity": 37,
      "ticks": 120
    },
    {
      "time": 63840,
      "track": 1,
      "noteNumber": 60,
      "velocity": 37,
      "ticks": 120
    },
    {
      "time": 63960,
      "track": 1,
      "noteNumber": 62,
      "velocity": 35,
      "ticks": 120
    },
    {
      "time": 64080,
      "track": 1,
      "noteNumber": 64,
      "velocity": 34,
      "ticks": 460
    },
    {
      "time": 64560,
      "track": 1,
      "noteNumber": 66,
      "velocity": 35,
      "ticks": 120
    },
    {
      "time": 64680,
      "track": 1,
      "noteNumber": 64,
      "velocity": 35,
      "ticks": 120
    },
    {
      "time": 64800,
      "track": 1,
      "noteNumber": 60,
      "velocity": 34,
      "ticks": 120
    },
    {
      "time": 64920,
      "track": 1,
      "noteNumber": 62,
      "velocity": 31,
      "ticks": 120
    },
    {
      "time": 65040,
      "track": 1,
      "noteNumber": 64,
      "velocity": 28,
      "ticks": 480
    },
    {
      "time": 65280,
      "track": 2,
      "noteNumber": 47,
      "velocity": 29,
      "ticks": 180
    },
    {
      "time": 65280,
      "track": 1,
      "noteNumber": 62,
      "velocity": 38,
      "ticks": 180
    },
    {
      "time": 65280,
      "track": 2,
      "noteNumber": 56,
      "velocity": 35,
      "ticks": 180
    },
    {
      "time": 65520,
      "track": 2,
      "noteNumber": 40,
      "velocity": 38,
      "ticks": 180
    },
    {
      "time": 65520,
      "track": 1,
      "noteNumber": 64,
      "velocity": 41,
      "ticks": 120
    },
    {
      "time": 65640,
      "track": 1,
      "noteNumber": 66,
      "velocity": 41,
      "ticks": 60
    },
    {
      "time": 65760,
      "track": 1,
      "noteNumber": 68,
      "velocity": 41,
      "ticks": 60
    },
    {
      "time": 65880,
      "track": 1,
      "noteNumber": 69,
      "velocity": 41,
      "ticks": 60
    },
    {
      "time": 66000,
      "track": 1,
      "noteNumber": 71,
      "velocity": 41,
      "ticks": 60
    },
    {
      "time": 66120,
      "track": 1,
      "noteNumber": 72,
      "velocity": 41,
      "ticks": 60
    },
    {
      "time": 66240,
      "track": 1,
      "noteNumber": 74,
      "velocity": 39,
      "ticks": 60
    },
    {
      "time": 66360,
      "track": 1,
      "noteNumber": 76,
      "velocity": 39,
      "ticks": 60
    },
    {
      "time": 66480,
      "track": 1,
      "noteNumber": 78,
      "velocity": 38,
      "ticks": 60
    },
    {
      "time": 66600,
      "track": 1,
      "noteNumber": 80,
      "velocity": 37,
      "ticks": 60
    },
    {
      "time": 66720,
      "track": 1,
      "noteNumber": 81,
      "velocity": 37,
      "ticks": 60
    },
    {
      "time": 66840,
      "track": 1,
      "noteNumber": 83,
      "velocity": 36,
      "ticks": 60
    },
    {
      "time": 66960,
      "track": 1,
      "noteNumber": 84,
      "velocity": 35,
      "ticks": 60
    },
    {
      "time": 67080,
      "track": 1,
      "noteNumber": 86,
      "velocity": 35,
      "ticks": 60
    },
    {
      "time": 67200,
      "track": 2,
      "noteNumber": 72,
      "velocity": 30,
      "ticks": 1440
    },
    {
      "time": 67200,
      "track": 2,
      "noteNumber": 57,
      "velocity": 25,
      "ticks": 1440
    },
    {
      "time": 67200,
      "track": 2,
      "noteNumber": 64,
      "velocity": 25,
      "ticks": 1440
    },
    {
      "time": 67200,
      "track": 1,
      "noteNumber": 88,
      "velocity": 45,
      "ticks": 240
    },
    {
      "time": 67200,
      "track": 1,
      "noteNumber": 76,
      "velocity": 30,
      "ticks": 1440
    },
    {
      "time": 67440,
      "track": 1,
      "noteNumber": 83,
      "velocity": 41,
      "ticks": 480
    },
    {
      "time": 67920,
      "track": 1,
      "noteNumber": 81,
      "velocity": 45,
      "ticks": 480
    },
    {
      "time": 68400,
      "track": 1,
      "noteNumber": 76,
      "velocity": 42,
      "ticks": 240
    },
    {
      "time": 68640,
      "track": 2,
      "noteNumber": 50,
      "velocity": 27,
      "ticks": 240
    },
    {
      "time": 68640,
      "track": 2,
      "noteNumber": 57,
      "velocity": 33,
      "ticks": 240
    },
    {
      "time": 68640,
      "track": 1,
      "noteNumber": 71,
      "velocity": 39,
      "ticks": 60
    },
    {
      "time": 68640,
      "track": 1,
      "noteNumber": 65,
      "velocity": 39,
      "ticks": 240
    },
    {
      "time": 68700,
      "track": 1,
      "noteNumber": 69,
      "velocity": 39,
      "ticks": 60
    },
    {
      "time": 68760,
      "track": 1,
      "noteNumber": 71,
      "velocity": 39,
      "ticks": 60
    },
    {
      "time": 68820,
      "track": 1,
      "noteNumber": 74,
      "velocity": 39,
      "ticks": 60
    },
    {
      "time": 68880,
      "track": 2,
      "noteNumber": 83,
      "velocity": 37,
      "ticks": 240
    },
    {
      "time": 68880,
      "track": 2,
      "noteNumber": 81,
      "velocity": 37,
      "ticks": 240
    },
    {
      "time": 68880,
      "track": 2,
      "noteNumber": 77,
      "velocity": 37,
      "ticks": 240
    },
    {
      "time": 69120,
      "track": 1,
      "noteNumber": 88,
      "velocity": 48,
      "ticks": 240
    },
    {
      "time": 69120,
      "track": 2,
      "noteNumber": 64,
      "velocity": 27,
      "ticks": 1440
    },
    {
      "time": 69120,
      "track": 2,
      "noteNumber": 72,
      "velocity": 33,
      "ticks": 1440
    },
    {
      "time": 69120,
      "track": 1,
      "noteNumber": 76,
      "velocity": 33,
      "ticks": 1440
    },
    {
      "time": 69120,
      "track": 2,
      "noteNumber": 57,
      "velocity": 27,
      "ticks": 1440
    },
    {
      "time": 69360,
      "track": 1,
      "noteNumber": 83,
      "velocity": 43,
      "ticks": 480
    },
    {
      "time": 69840,
      "track": 1,
      "noteNumber": 81,
      "velocity": 45,
      "ticks": 480
    },
    {
      "time": 70320,
      "track": 1,
      "noteNumber": 76,
      "velocity": 42,
      "ticks": 240
    },
    {
      "time": 70560,
      "track": 2,
      "noteNumber": 60,
      "velocity": 33,
      "ticks": 480
    },
    {
      "time": 70560,
      "track": 2,
      "noteNumber": 50,
      "velocity": 27,
      "ticks": 480
    },
    {
      "time": 70560,
      "track": 1,
      "noteNumber": 66,
      "velocity": 33,
      "ticks": 240
    },
    {
      "time": 70560,
      "track": 1,
      "noteNumber": 71,
      "velocity": 39,
      "ticks": 240
    },
    {
      "time": 70800,
      "track": 1,
      "noteNumber": 69,
      "velocity": 39,
      "ticks": 300
    },
    {
      "time": 71040,
      "track": 2,
      "noteNumber": 43,
      "velocity": 29,
      "ticks": 240
    },
    {
      "time": 71040,
      "track": 2,
      "noteNumber": 50,
      "velocity": 29,
      "ticks": 240
    },
    {
      "time": 71040,
      "track": 2,
      "noteNumber": 59,
      "velocity": 35,
      "ticks": 240
    },
    {
      "time": 71040,
      "track": 1,
      "noteNumber": 65,
      "velocity": 39,
      "ticks": 240
    },
    {
      "time": 71100,
      "track": 1,
      "noteNumber": 71,
      "velocity": 35,
      "ticks": 60
    },
    {
      "time": 71160,
      "track": 1,
      "noteNumber": 69,
      "velocity": 37,
      "ticks": 60
    },
    {
      "time": 71220,
      "track": 1,
      "noteNumber": 67,
      "velocity": 39,
      "ticks": 60
    },
    {
      "time": 71280,
      "track": 2,
      "noteNumber": 48,
      "velocity": 35,
      "ticks": 480
    },
    {
      "time": 71280,
      "track": 2,
      "noteNumber": 55,
      "velocity": 41,
      "ticks": 480
    },
    {
      "time": 71280,
      "track": 1,
      "noteNumber": 60,
      "velocity": 30,
      "ticks": 480
    },
    {
      "time": 71280,
      "track": 1,
      "noteNumber": 64,
      "velocity": 36,
      "ticks": 480
    },
    {
      "time": 71760,
      "track": 1,
      "noteNumber": 62,
      "velocity": 38,
      "ticks": 480
    },
    {
      "time": 71760,
      "track": 2,
      "noteNumber": 48,
      "velocity": 37,
      "ticks": 1200
    },
    {
      "time": 71760,
      "track": 2,
      "noteNumber": 41,
      "velocity": 31,
      "ticks": 480
    },
    {
      "time": 71760,
      "track": 1,
      "noteNumber": 57,
      "velocity": 32,
      "ticks": 1200
    },
    {
      "time": 72240,
      "track": 2,
      "noteNumber": 40,
      "velocity": 35,
      "ticks": 240
    },
    {
      "time": 72240,
      "track": 1,
      "noteNumber": 64,
      "velocity": 41,
      "ticks": 240
    },
    {
      "time": 72480,
      "track": 2,
      "noteNumber": 38,
      "velocity": 35,
      "ticks": 480
    },
    {
      "time": 72480,
      "track": 1,
      "noteNumber": 65,
      "velocity": 45,
      "ticks": 240
    },
    {
      "time": 72720,
      "track": 1,
      "noteNumber": 69,
      "velocity": 41,
      "ticks": 220
    },
    {
      "time": 72960,
      "track": 1,
      "noteNumber": 59,
      "velocity": 32,
      "ticks": 960
    },
    {
      "time": 72960,
      "track": 1,
      "noteNumber": 64,
      "velocity": 38,
      "ticks": 240
    },
    {
      "time": 72960,
      "track": 2,
      "noteNumber": 53,
      "velocity": 37,
      "ticks": 1440
    },
    {
      "time": 72960,
      "track": 2,
      "noteNumber": 43,
      "velocity": 31,
      "ticks": 1440
    },
    {
      "time": 73200,
      "track": 1,
      "noteNumber": 62,
      "velocity": 36,
      "ticks": 120
    },
    {
      "time": 73320,
      "track": 1,
      "noteNumber": 64,
      "velocity": 34,
      "ticks": 120
    },
    {
      "time": 73440,
      "track": 1,
      "noteNumber": 62,
      "velocity": 37,
      "ticks": 200
    },
    {
      "time": 73680,
      "track": 1,
      "noteNumber": 64,
      "velocity": 38,
      "ticks": 480
    },
    {
      "time": 74160,
      "track": 1,
      "noteNumber": 62,
      "velocity": 32,
      "ticks": 120
    },
    {
      "time": 74280,
      "track": 1,
      "noteNumber": 64,
      "velocity": 30,
      "ticks": 120
    },
    {
      "time": 74400,
      "track": 2,
      "noteNumber": 47,
      "velocity": 31,
      "ticks": 480
    },
    {
      "time": 74400,
      "track": 2,
      "noteNumber": 41,
      "velocity": 26,
      "ticks": 200
    },
    {
      "time": 74400,
      "track": 1,
      "noteNumber": 62,
      "velocity": 31,
      "ticks": 200
    },
    {
      "time": 74400,
      "track": 1,
      "noteNumber": 57,
      "velocity": 26,
      "ticks": 200
    },
    {
      "time": 74640,
      "track": 2,
      "noteNumber": 40,
      "velocity": 25,
      "ticks": 240
    },
    {
      "time": 74640,
      "track": 1,
      "noteNumber": 59,
      "velocity": 19,
      "ticks": 240
    },
    {
      "time": 74640,
      "track": 1,
      "noteNumber": 55,
      "velocity": 19,
      "ticks": 240
    },
    {
      "time": 74640,
      "track": 1,
      "noteNumber": 64,
      "velocity": 24,
      "ticks": 240
    },
    {
      "time": 74880,
      "track": 2,
      "noteNumber": 64,
      "velocity": 25,
      "ticks": 1440
    },
    {
      "time": 74880,
      "track": 2,
      "noteNumber": 57,
      "velocity": 25,
      "ticks": 1440
    },
    {
      "time": 74880,
      "track": 2,
      "noteNumber": 72,
      "velocity": 30,
      "ticks": 1440
    },
    {
      "time": 74880,
      "track": 1,
      "noteNumber": 88,
      "velocity": 45,
      "ticks": 240
    },
    {
      "time": 74880,
      "track": 1,
      "noteNumber": 76,
      "velocity": 30,
      "ticks": 1440
    },
    {
      "time": 75120,
      "track": 1,
      "noteNumber": 83,
      "velocity": 43,
      "ticks": 480
    },
    {
      "time": 75600,
      "track": 1,
      "noteNumber": 81,
      "velocity": 45,
      "ticks": 480
    },
    {
      "time": 76080,
      "track": 1,
      "noteNumber": 76,
      "velocity": 42,
      "ticks": 240
    },
    {
      "time": 76320,
      "track": 1,
      "noteNumber": 71,
      "velocity": 39,
      "ticks": 60
    },
    {
      "time": 76320,
      "track": 2,
      "noteNumber": 50,
      "velocity": 27,
      "ticks": 240
    },
    {
      "time": 76320,
      "track": 2,
      "noteNumber": 57,
      "velocity": 33,
      "ticks": 240
    },
    {
      "time": 76320,
      "track": 1,
      "noteNumber": 65,
      "velocity": 33,
      "ticks": 240
    },
    {
      "time": 76380,
      "track": 1,
      "noteNumber": 69,
      "velocity": 39,
      "ticks": 60
    },
    {
      "time": 76440,
      "track": 1,
      "noteNumber": 71,
      "velocity": 39,
      "ticks": 60
    },
    {
      "time": 76500,
      "track": 1,
      "noteNumber": 74,
      "velocity": 39,
      "ticks": 60
    },
    {
      "time": 76560,
      "track": 2,
      "noteNumber": 83,
      "velocity": 37,
      "ticks": 240
    },
    {
      "time": 76560,
      "track": 2,
      "noteNumber": 77,
      "velocity": 37,
      "ticks": 240
    },
    {
      "time": 76560,
      "track": 2,
      "noteNumber": 81,
      "velocity": 37,
      "ticks": 240
    },
    {
      "time": 76800,
      "track": 2,
      "noteNumber": 57,
      "velocity": 27,
      "ticks": 960
    },
    {
      "time": 76800,
      "track": 2,
      "noteNumber": 64,
      "velocity": 27,
      "ticks": 960
    },
    {
      "time": 76800,
      "track": 2,
      "noteNumber": 72,
      "velocity": 33,
      "ticks": 960
    },
    {
      "time": 76800,
      "track": 1,
      "noteNumber": 88,
      "velocity": 48,
      "ticks": 240
    },
    {
      "time": 76800,
      "track": 1,
      "noteNumber": 76,
      "velocity": 33,
      "ticks": 960
    },
    {
      "time": 77040,
      "track": 1,
      "noteNumber": 83,
      "velocity": 43,
      "ticks": 480
    },
    {
      "time": 77520,
      "track": 1,
      "noteNumber": 81,
      "velocity": 43,
      "ticks": 240
    },
    {
      "time": 77760,
      "track": 2,
      "noteNumber": 45,
      "velocity": 27,
      "ticks": 960
    },
    {
      "time": 77760,
      "track": 2,
      "noteNumber": 52,
      "velocity": 27,
      "ticks": 960
    },
    {
      "time": 77760,
      "track": 2,
      "noteNumber": 61,
      "velocity": 33,
      "ticks": 960
    },
    {
      "time": 77760,
      "track": 1,
      "noteNumber": 64,
      "velocity": 31,
      "ticks": 960
    },
    {
      "time": 77760,
      "track": 1,
      "noteNumber": 76,
      "velocity": 42,
      "ticks": 240
    },
    {
      "time": 78000,
      "track": 1,
      "noteNumber": 71,
      "velocity": 37,
      "ticks": 480
    },
    {
      "time": 78480,
      "track": 1,
      "noteNumber": 69,
      "velocity": 36,
      "ticks": 480
    },
    {
      "time": 78720,
      "track": 2,
      "noteNumber": 41,
      "velocity": 19,
      "ticks": 240
    },
    {
      "time": 78720,
      "track": 1,
      "noteNumber": 57,
      "velocity": 37,
      "ticks": 240
    },
    {
      "time": 78720,
      "track": 2,
      "noteNumber": 48,
      "velocity": 27,
      "ticks": 240
    },
    {
      "time": 78960,
      "track": 2,
      "noteNumber": 53,
      "velocity": 32,
      "ticks": 720
    },
    {
      "time": 78960,
      "track": 2,
      "noteNumber": 43,
      "velocity": 22,
      "ticks": 720
    },
    {
      "time": 78960,
      "track": 1,
      "noteNumber": 64,
      "velocity": 36,
      "ticks": 480
    },
    {
      "time": 78960,
      "track": 1,
      "noteNumber": 59,
      "velocity": 25,
      "ticks": 720
    },
    {
      "time": 79440,
      "track": 1,
      "noteNumber": 62,
      "velocity": 35,
      "ticks": 300
    },
    {
      "time": 79680,
      "track": 1,
      "noteNumber": 57,
      "velocity": 32,
      "ticks": 240
    },
    {
      "time": 79680,
      "track": 2,
      "noteNumber": 45,
      "velocity": 23,
      "ticks": 240
    },
    {
      "time": 79680,
      "track": 2,
      "noteNumber": 52,
      "velocity": 33,
      "ticks": 240
    },
    {
      "time": 79740,
      "track": 1,
      "noteNumber": 60,
      "velocity": 32,
      "ticks": 60
    },
    {
      "time": 79800,
      "track": 1,
      "noteNumber": 62,
      "velocity": 32,
      "ticks": 60
    },
    {
      "time": 79860,
      "track": 1,
      "noteNumber": 64,
      "velocity": 32,
      "ticks": 60
    },
    {
      "time": 79920,
      "track": 2,
      "noteNumber": 50,
      "velocity": 33,
      "ticks": 480
    },
    {
      "time": 79920,
      "track": 1,
      "noteNumber": 57,
      "velocity": 34,
      "ticks": 480
    },
    {
      "time": 79920,
      "track": 1,
      "noteNumber": 53,
      "velocity": 24,
      "ticks": 480
    },
    {
      "time": 80400,
      "track": 1,
      "noteNumber": 52,
      "velocity": 22,
      "ticks": 240
    },
    {
      "time": 80400,
      "track": 2,
      "noteNumber": 55,
      "velocity": 31,
      "ticks": 240
    },
    {
      "time": 80400,
      "track": 1,
      "noteNumber": 59,
      "velocity": 32,
      "ticks": 240
    },
    {
      "time": 80880,
      "track": 1,
      "noteNumber": 52,
      "velocity": 22,
      "ticks": 90
    },
    {
      "time": 80880,
      "track": 1,
      "noteNumber": 57,
      "velocity": 27,
      "ticks": 90
    },
    {
      "time": 80880,
      "track": 2,
      "noteNumber": 45,
      "velocity": 19,
      "ticks": 90
    },
    {
      "time": 80880,
      "track": 2,
      "noteNumber": 48,
      "velocity": 24,
      "ticks": 90
    },
    {
      "time": 81360,
      "track": 2,
      "noteNumber": 43,
      "velocity": 17,
      "ticks": 60
    },
    {
      "time": 81360,
      "track": 2,
      "noteNumber": 47,
      "velocity": 21,
      "ticks": 60
    },
    {
      "time": 81360,
      "track": 1,
      "noteNumber": 50,
      "velocity": 20,
      "ticks": 60
    },
    {
      "time": 81360,
      "track": 1,
      "noteNumber": 53,
      "velocity": 25,
      "ticks": 60
    },
    {
      "time": 81600,
      "track": 1,
      "noteNumber": 57,
      "velocity": 27,
      "ticks": 60
    },
    {
      "time": 81600,
      "track": 2,
      "noteNumber": 45,
      "velocity": 19,
      "ticks": 60
    },
    {
      "time": 81600,
      "track": 2,
      "noteNumber": 48,
      "velocity": 24,
      "ticks": 60
    },
    {
      "time": 81600,
      "track": 1,
      "noteNumber": 52,
      "velocity": 22,
      "ticks": 60
    },
    {
      "time": 81840,
      "track": 1,
      "noteNumber": 57,
      "velocity": 27,
      "ticks": 60
    },
    {
      "time": 81840,
      "track": 2,
      "noteNumber": 48,
      "velocity": 24,
      "ticks": 60
    },
    {
      "time": 81840,
      "track": 1,
      "noteNumber": 52,
      "velocity": 22,
      "ticks": 60
    },
    {
      "time": 81840,
      "track": 2,
      "noteNumber": 45,
      "velocity": 19,
      "ticks": 60
    },
    {
      "time": 82560,
      "track": 2,
      "noteNumber": 46,
      "velocity": 30,
      "ticks": 480
    },
    {
      "time": 82560,
      "track": 2,
      "noteNumber": 34,
      "velocity": 25,
      "ticks": 480
    },
    {
      "time": 82800,
      "track": 1,
      "noteNumber": 48,
      "velocity": 36,
      "ticks": 120
    },
    {
      "time": 82920,
      "track": 1,
      "noteNumber": 50,
      "velocity": 36,
      "ticks": 120
    },
    {
      "time": 83040,
      "track": 2,
      "noteNumber": 33,
      "velocity": 28,
      "ticks": 480
    },
    {
      "time": 83040,
      "track": 2,
      "noteNumber": 45,
      "velocity": 34,
      "ticks": 480
    },
    {
      "time": 83040,
      "track": 1,
      "noteNumber": 48,
      "velocity": 32,
      "ticks": 1440
    },
    {
      "time": 83040,
      "track": 1,
      "noteNumber": 52,
      "velocity": 38,
      "ticks": 720
    },
    {
      "time": 83520,
      "track": 2,
      "noteNumber": 31,
      "velocity": 30,
      "ticks": 480
    },
    {
      "time": 83520,
      "track": 2,
      "noteNumber": 43,
      "velocity": 36,
      "ticks": 480
    },
    {
      "time": 83760,
      "track": 1,
      "noteNumber": 50,
      "velocity": 32,
      "ticks": 240
    },
    {
      "time": 83760,
      "track": 1,
      "noteNumber": 53,
      "velocity": 38,
      "ticks": 240
    },
    {
      "time": 84000,
      "track": 2,
      "noteNumber": 29,
      "velocity": 28,
      "ticks": 480
    },
    {
      "time": 84000,
      "track": 2,
      "noteNumber": 41,
      "velocity": 34,
      "ticks": 480
    },
    {
      "time": 84000,
      "track": 1,
      "noteNumber": 55,
      "velocity": 38,
      "ticks": 240
    },
    {
      "time": 84000,
      "track": 1,
      "noteNumber": 52,
      "velocity": 32,
      "ticks": 240
    },
    {
      "time": 84240,
      "track": 1,
      "noteNumber": 53,
      "velocity": 38,
      "ticks": 240
    },
    {
      "time": 84240,
      "track": 1,
      "noteNumber": 57,
      "velocity": 32,
      "ticks": 240
    },
    {
      "time": 84480,
      "track": 1,
      "noteNumber": 58,
      "velocity": 36,
      "ticks": 240
    },
    {
      "time": 84480,
      "track": 1,
      "noteNumber": 48,
      "velocity": 36,
      "ticks": 480
    },
    {
      "time": 84480,
      "track": 2,
      "noteNumber": 40,
      "velocity": 31,
      "ticks": 480
    },
    {
      "time": 84480,
      "track": 2,
      "noteNumber": 28,
      "velocity": 26,
      "ticks": 480
    },
    {
      "time": 84480,
      "track": 1,
      "noteNumber": 55,
      "velocity": 36,
      "ticks": 240
    },
    {
      "time": 84720,
      "track": 1,
      "noteNumber": 60,
      "velocity": 37,
      "ticks": 240
    },
    {
      "time": 84720,
      "track": 1,
      "noteNumber": 57,
      "velocity": 37,
      "ticks": 240
    },
    {
      "time": 84960,
      "track": 2,
      "noteNumber": 38,
      "velocity": 35,
      "ticks": 480
    },
    {
      "time": 84960,
      "track": 2,
      "noteNumber": 26,
      "velocity": 29,
      "ticks": 480
    },
    {
      "time": 84960,
      "track": 1,
      "noteNumber": 62,
      "velocity": 38,
      "ticks": 240
    },
    {
      "time": 84960,
      "track": 1,
      "noteNumber": 53,
      "velocity": 32,
      "ticks": 240
    },
    {
      "time": 84960,
      "track": 1,
      "noteNumber": 58,
      "velocity": 32,
      "ticks": 240
    },
    {
      "time": 85200,
      "track": 1,
      "noteNumber": 65,
      "velocity": 41,
      "ticks": 240
    },
    {
      "time": 85200,
      "track": 1,
      "noteNumber": 57,
      "velocity": 35,
      "ticks": 240
    },
    {
      "time": 85200,
      "track": 1,
      "noteNumber": 60,
      "velocity": 35,
      "ticks": 240
    },
    {
      "time": 85440,
      "track": 2,
      "noteNumber": 24,
      "velocity": 32,
      "ticks": 480
    },
    {
      "time": 85440,
      "track": 2,
      "noteNumber": 36,
      "velocity": 38,
      "ticks": 480
    },
    {
      "time": 85440,
      "track": 1,
      "noteNumber": 62,
      "velocity": 35,
      "ticks": 230
    },
    {
      "time": 85440,
      "track": 1,
      "noteNumber": 58,
      "velocity": 35,
      "ticks": 230
    },
    {
      "time": 85440,
      "track": 1,
      "noteNumber": 67,
      "velocity": 42,
      "ticks": 230
    },
    {
      "time": 85680,
      "track": 1,
      "noteNumber": 60,
      "velocity": 32,
      "ticks": 480
    },
    {
      "time": 85680,
      "track": 1,
      "noteNumber": 57,
      "velocity": 32,
      "ticks": 480
    },
    {
      "time": 85680,
      "track": 1,
      "noteNumber": 65,
      "velocity": 38,
      "ticks": 480
    },
    {
      "time": 85920,
      "track": 2,
      "noteNumber": 38,
      "velocity": 34,
      "ticks": 480
    },
    {
      "time": 85920,
      "track": 2,
      "noteNumber": 26,
      "velocity": 28,
      "ticks": 480
    },
    {
      "time": 86160,
      "track": 1,
      "noteNumber": 62,
      "velocity": 36,
      "ticks": 240
    },
    {
      "time": 86160,
      "track": 1,
      "noteNumber": 53,
      "velocity": 30,
      "ticks": 240
    },
    {
      "time": 86160,
      "track": 1,
      "noteNumber": 58,
      "velocity": 30,
      "ticks": 240
    },
    {
      "time": 86400,
      "track": 2,
      "noteNumber": 34,
      "velocity": 31,
      "ticks": 480
    },
    {
      "time": 86400,
      "track": 2,
      "noteNumber": 46,
      "velocity": 37,
      "ticks": 480
    },
    {
      "time": 86640,
      "track": 1,
      "noteNumber": 48,
      "velocity": 36,
      "ticks": 120
    },
    {
      "time": 86760,
      "track": 1,
      "noteNumber": 50,
      "velocity": 36,
      "ticks": 120
    },
    {
      "time": 86880,
      "track": 2,
      "noteNumber": 45,
      "velocity": 34,
      "ticks": 480
    },
    {
      "time": 86880,
      "track": 1,
      "noteNumber": 48,
      "velocity": 32,
      "ticks": 1440
    },
    {
      "time": 86880,
      "track": 1,
      "noteNumber": 52,
      "velocity": 38,
      "ticks": 720
    },
    {
      "time": 86880,
      "track": 2,
      "noteNumber": 33,
      "velocity": 28,
      "ticks": 480
    },
    {
      "time": 87360,
      "track": 2,
      "noteNumber": 43,
      "velocity": 36,
      "ticks": 480
    },
    {
      "time": 87360,
      "track": 2,
      "noteNumber": 31,
      "velocity": 30,
      "ticks": 480
    },
    {
      "time": 87600,
      "track": 1,
      "noteNumber": 53,
      "velocity": 38,
      "ticks": 240
    },
    {
      "time": 87600,
      "track": 1,
      "noteNumber": 50,
      "velocity": 38,
      "ticks": 240
    },
    {
      "time": 87840,
      "track": 2,
      "noteNumber": 29,
      "velocity": 28,
      "ticks": 480
    },
    {
      "time": 87840,
      "track": 2,
      "noteNumber": 41,
      "velocity": 34,
      "ticks": 480
    },
    {
      "time": 87840,
      "track": 1,
      "noteNumber": 52,
      "velocity": 38,
      "ticks": 240
    },
    {
      "time": 87840,
      "track": 1,
      "noteNumber": 55,
      "velocity": 38,
      "ticks": 240
    },
    {
      "time": 88080,
      "track": 1,
      "noteNumber": 53,
      "velocity": 38,
      "ticks": 240
    },
    {
      "time": 88080,
      "track": 1,
      "noteNumber": 57,
      "velocity": 38,
      "ticks": 240
    },
    {
      "time": 88320,
      "track": 2,
      "noteNumber": 28,
      "velocity": 26,
      "ticks": 480
    },
    {
      "time": 88320,
      "track": 2,
      "noteNumber": 40,
      "velocity": 31,
      "ticks": 480
    },
    {
      "time": 88320,
      "track": 1,
      "noteNumber": 55,
      "velocity": 30,
      "ticks": 240
    },
    {
      "time": 88320,
      "track": 1,
      "noteNumber": 48,
      "velocity": 36,
      "ticks": 480
    },
    {
      "time": 88320,
      "track": 1,
      "noteNumber": 58,
      "velocity": 36,
      "ticks": 240
    },
    {
      "time": 88560,
      "track": 1,
      "noteNumber": 57,
      "velocity": 31,
      "ticks": 240
    },
    {
      "time": 88560,
      "track": 1,
      "noteNumber": 60,
      "velocity": 37,
      "ticks": 240
    },
    {
      "time": 88800,
      "track": 2,
      "noteNumber": 26,
      "velocity": 29,
      "ticks": 480
    },
    {
      "time": 88800,
      "track": 1,
      "noteNumber": 58,
      "velocity": 34,
      "ticks": 240
    },
    {
      "time": 88800,
      "track": 1,
      "noteNumber": 53,
      "velocity": 34,
      "ticks": 240
    },
    {
      "time": 88800,
      "track": 2,
      "noteNumber": 38,
      "velocity": 35,
      "ticks": 480
    },
    {
      "time": 88800,
      "track": 1,
      "noteNumber": 62,
      "velocity": 40,
      "ticks": 240
    },
    {
      "time": 89040,
      "track": 1,
      "noteNumber": 60,
      "velocity": 35,
      "ticks": 240
    },
    {
      "time": 89040,
      "track": 1,
      "noteNumber": 57,
      "velocity": 35,
      "ticks": 240
    },
    {
      "time": 89040,
      "track": 1,
      "noteNumber": 65,
      "velocity": 42,
      "ticks": 240
    },
    {
      "time": 89280,
      "track": 1,
      "noteNumber": 62,
      "velocity": 36,
      "ticks": 230
    },
    {
      "time": 89280,
      "track": 1,
      "noteNumber": 67,
      "velocity": 44,
      "ticks": 230
    },
    {
      "time": 89280,
      "track": 1,
      "noteNumber": 58,
      "velocity": 36,
      "ticks": 230
    },
    {
      "time": 89280,
      "track": 2,
      "noteNumber": 36,
      "velocity": 38,
      "ticks": 480
    },
    {
      "time": 89280,
      "track": 2,
      "noteNumber": 24,
      "velocity": 32,
      "ticks": 480
    },
    {
      "time": 89520,
      "track": 1,
      "noteNumber": 57,
      "velocity": 33,
      "ticks": 480
    },
    {
      "time": 89520,
      "track": 1,
      "noteNumber": 65,
      "velocity": 39,
      "ticks": 480
    },
    {
      "time": 89520,
      "track": 1,
      "noteNumber": 60,
      "velocity": 33,
      "ticks": 480
    },
    {
      "time": 89760,
      "track": 2,
      "noteNumber": 48,
      "velocity": 41,
      "ticks": 480
    },
    {
      "time": 90000,
      "track": 1,
      "noteNumber": 62,
      "velocity": 33,
      "ticks": 230
    },
    {
      "time": 90000,
      "track": 1,
      "noteNumber": 58,
      "velocity": 33,
      "ticks": 230
    },
    {
      "time": 90000,
      "track": 1,
      "noteNumber": 67,
      "velocity": 39,
      "ticks": 230
    },
    {
      "time": 90240,
      "track": 2,
      "noteNumber": 63,
      "velocity": 46,
      "ticks": 1920
    },
    {
      "time": 90480,
      "track": 1,
      "noteNumber": 65,
      "velocity": 39,
      "ticks": 120
    },
    {
      "time": 90600,
      "track": 1,
      "noteNumber": 67,
      "velocity": 39,
      "ticks": 120
    },
    {
      "time": 90720,
      "track": 1,
      "noteNumber": 65,
      "velocity": 35,
      "ticks": 1440
    },
    {
      "time": 90720,
      "track": 1,
      "noteNumber": 69,
      "velocity": 42,
      "ticks": 720
    },
    {
      "time": 90720,
      "track": 2,
      "noteNumber": 62,
      "velocity": 45,
      "ticks": 480
    },
    {
      "time": 91200,
      "track": 2,
      "noteNumber": 60,
      "velocity": 42,
      "ticks": 480
    },
    {
      "time": 91440,
      "track": 1,
      "noteNumber": 70,
      "velocity": 42,
      "ticks": 240
    },
    {
      "time": 91440,
      "track": 1,
      "noteNumber": 67,
      "velocity": 35,
      "ticks": 240
    },
    {
      "time": 91680,
      "track": 1,
      "noteNumber": 69,
      "velocity": 35,
      "ticks": 240
    },
    {
      "time": 91680,
      "track": 1,
      "noteNumber": 72,
      "velocity": 42,
      "ticks": 240
    },
    {
      "time": 91680,
      "track": 2,
      "noteNumber": 58,
      "velocity": 42,
      "ticks": 480
    },
    {
      "time": 91920,
      "track": 1,
      "noteNumber": 70,
      "velocity": 35,
      "ticks": 240
    },
    {
      "time": 91920,
      "track": 1,
      "noteNumber": 74,
      "velocity": 42,
      "ticks": 240
    },
    {
      "time": 92160,
      "track": 1,
      "noteNumber": 75,
      "velocity": 39,
      "ticks": 240
    },
    {
      "time": 92160,
      "track": 2,
      "noteNumber": 63,
      "velocity": 36,
      "ticks": 480
    },
    {
      "time": 92160,
      "track": 1,
      "noteNumber": 65,
      "velocity": 30,
      "ticks": 480
    },
    {
      "time": 92160,
      "track": 1,
      "noteNumber": 72,
      "velocity": 33,
      "ticks": 240
    },
    {
      "time": 92160,
      "track": 2,
      "noteNumber": 60,
      "velocity": 30,
      "ticks": 480
    },
    {
      "time": 92160,
      "track": 2,
      "noteNumber": 57,
      "velocity": 30,
      "ticks": 480
    },
    {
      "time": 92400,
      "track": 1,
      "noteNumber": 74,
      "velocity": 35,
      "ticks": 240
    },
    {
      "time": 92400,
      "track": 1,
      "noteNumber": 77,
      "velocity": 41,
      "ticks": 240
    },
    {
      "time": 92640,
      "track": 1,
      "noteNumber": 72,
      "velocity": 30,
      "ticks": 480
    },
    {
      "time": 92640,
      "track": 1,
      "noteNumber": 75,
      "velocity": 35,
      "ticks": 240
    },
    {
      "time": 92640,
      "track": 2,
      "noteNumber": 67,
      "velocity": 36,
      "ticks": 480
    },
    {
      "time": 92640,
      "track": 2,
      "noteNumber": 63,
      "velocity": 30,
      "ticks": 480
    },
    {
      "time": 92640,
      "track": 2,
      "noteNumber": 60,
      "velocity": 30,
      "ticks": 480
    },
    {
      "time": 92640,
      "track": 2,
      "noteNumber": 55,
      "velocity": 30,
      "ticks": 480
    },
    {
      "time": 92640,
      "track": 1,
      "noteNumber": 79,
      "velocity": 42,
      "ticks": 240
    },
    {
      "time": 92880,
      "track": 1,
      "noteNumber": 82,
      "velocity": 46,
      "ticks": 240
    },
    {
      "time": 92880,
      "track": 1,
      "noteNumber": 79,
      "velocity": 39,
      "ticks": 240
    },
    {
      "time": 93120,
      "track": 2,
      "noteNumber": 60,
      "velocity": 32,
      "ticks": 480
    },
    {
      "time": 93120,
      "track": 2,
      "noteNumber": 53,
      "velocity": 32,
      "ticks": 480
    },
    {
      "time": 93120,
      "track": 2,
      "noteNumber": 69,
      "velocity": 38,
      "ticks": 480
    },
    {
      "time": 93120,
      "track": 1,
      "noteNumber": 81,
      "velocity": 49,
      "ticks": 240
    },
    {
      "time": 93120,
      "track": 1,
      "noteNumber": 72,
      "velocity": 32,
      "ticks": 480
    },
    {
      "time": 93120,
      "track": 2,
      "noteNumber": 63,
      "velocity": 32,
      "ticks": 480
    },
    {
      "time": 93120,
      "track": 1,
      "noteNumber": 84,
      "velocity": 49,
      "ticks": 240
    },
    {
      "time": 93360,
      "track": 1,
      "noteNumber": 81,
      "velocity": 46,
      "ticks": 240
    },
    {
      "time": 93360,
      "track": 1,
      "noteNumber": 77,
      "velocity": 46,
      "ticks": 240
    },
    {
      "time": 93600,
      "track": 1,
      "noteNumber": 72,
      "velocity": 27,
      "ticks": 480
    },
    {
      "time": 93600,
      "track": 1,
      "noteNumber": 79,
      "velocity": 43,
      "ticks": 240
    },
    {
      "time": 93600,
      "track": 2,
      "noteNumber": 67,
      "velocity": 33,
      "ticks": 480
    },
    {
      "time": 93600,
      "track": 2,
      "noteNumber": 63,
      "velocity": 27,
      "ticks": 480
    },
    {
      "time": 93600,
      "track": 2,
      "noteNumber": 60,
      "velocity": 27,
      "ticks": 480
    },
    {
      "time": 93600,
      "track": 1,
      "noteNumber": 75,
      "velocity": 43,
      "ticks": 240
    },
    {
      "time": 93600,
      "track": 2,
      "noteNumber": 55,
      "velocity": 27,
      "ticks": 480
    },
    {
      "time": 93840,
      "track": 1,
      "noteNumber": 72,
      "velocity": 35,
      "ticks": 240
    },
    {
      "time": 93840,
      "track": 1,
      "noteNumber": 75,
      "velocity": 41,
      "ticks": 240
    },
    {
      "time": 94080,
      "track": 2,
      "noteNumber": 63,
      "velocity": 46,
      "ticks": 1920
    },
    {
      "time": 94320,
      "track": 1,
      "noteNumber": 65,
      "velocity": 39,
      "ticks": 120
    },
    {
      "time": 94440,
      "track": 1,
      "noteNumber": 67,
      "velocity": 39,
      "ticks": 120
    },
    {
      "time": 94560,
      "track": 2,
      "noteNumber": 62,
      "velocity": 45,
      "ticks": 480
    },
    {
      "time": 94560,
      "track": 1,
      "noteNumber": 69,
      "velocity": 42,
      "ticks": 700
    },
    {
      "time": 94560,
      "track": 1,
      "noteNumber": 65,
      "velocity": 35,
      "ticks": 1440
    },
    {
      "time": 95040,
      "track": 2,
      "noteNumber": 60,
      "velocity": 42,
      "ticks": 480
    },
    {
      "time": 95280,
      "track": 1,
      "noteNumber": 67,
      "velocity": 35,
      "ticks": 240
    },
    {
      "time": 95280,
      "track": 1,
      "noteNumber": 70,
      "velocity": 42,
      "ticks": 240
    },
    {
      "time": 95520,
      "track": 2,
      "noteNumber": 58,
      "velocity": 42,
      "ticks": 480
    },
    {
      "time": 95520,
      "track": 1,
      "noteNumber": 69,
      "velocity": 35,
      "ticks": 240
    },
    {
      "time": 95520,
      "track": 1,
      "noteNumber": 72,
      "velocity": 42,
      "ticks": 240
    },
    {
      "time": 95760,
      "track": 1,
      "noteNumber": 74,
      "velocity": 42,
      "ticks": 240
    },
    {
      "time": 95760,
      "track": 1,
      "noteNumber": 70,
      "velocity": 35,
      "ticks": 240
    },
    {
      "time": 96000,
      "track": 2,
      "noteNumber": 63,
      "velocity": 36,
      "ticks": 480
    },
    {
      "time": 96000,
      "track": 2,
      "noteNumber": 60,
      "velocity": 30,
      "ticks": 480
    },
    {
      "time": 96000,
      "track": 1,
      "noteNumber": 72,
      "velocity": 33,
      "ticks": 240
    },
    {
      "time": 96000,
      "track": 1,
      "noteNumber": 65,
      "velocity": 30,
      "ticks": 480
    },
    {
      "time": 96000,
      "track": 1,
      "noteNumber": 75,
      "velocity": 39,
      "ticks": 240
    },
    {
      "time": 96000,
      "track": 2,
      "noteNumber": 57,
      "velocity": 30,
      "ticks": 480
    },
    {
      "time": 96240,
      "track": 1,
      "noteNumber": 77,
      "velocity": 41,
      "ticks": 240
    },
    {
      "time": 96240,
      "track": 1,
      "noteNumber": 74,
      "velocity": 35,
      "ticks": 240
    },
    {
      "time": 96480,
      "track": 2,
      "noteNumber": 67,
      "velocity": 36,
      "ticks": 480
    },
    {
      "time": 96480,
      "track": 2,
      "noteNumber": 55,
      "velocity": 30,
      "ticks": 480
    },
    {
      "time": 96480,
      "track": 2,
      "noteNumber": 60,
      "velocity": 30,
      "ticks": 480
    },
    {
      "time": 96480,
      "track": 2,
      "noteNumber": 63,
      "velocity": 30,
      "ticks": 480
    },
    {
      "time": 96480,
      "track": 1,
      "noteNumber": 75,
      "velocity": 42,
      "ticks": 240
    },
    {
      "time": 96480,
      "track": 1,
      "noteNumber": 72,
      "velocity": 30,
      "ticks": 480
    },
    {
      "time": 96480,
      "track": 1,
      "noteNumber": 79,
      "velocity": 42,
      "ticks": 240
    },
    {
      "time": 96720,
      "track": 1,
      "noteNumber": 82,
      "velocity": 47,
      "ticks": 240
    },
    {
      "time": 96720,
      "track": 1,
      "noteNumber": 79,
      "velocity": 47,
      "ticks": 240
    },
    {
      "time": 96960,
      "track": 2,
      "noteNumber": 69,
      "velocity": 52,
      "ticks": 220
    },
    {
      "time": 96960,
      "track": 1,
      "noteNumber": 84,
      "velocity": 52,
      "ticks": 220
    },
    {
      "time": 96960,
      "track": 2,
      "noteNumber": 60,
      "velocity": 35,
      "ticks": 960
    },
    {
      "time": 96960,
      "track": 2,
      "noteNumber": 63,
      "velocity": 41,
      "ticks": 960
    },
    {
      "time": 96960,
      "track": 2,
      "noteNumber": 53,
      "velocity": 35,
      "ticks": 960
    },
    {
      "time": 96960,
      "track": 1,
      "noteNumber": 76,
      "velocity": 35,
      "ticks": 960
    },
    {
      "time": 96960,
      "track": 1,
      "noteNumber": 72,
      "velocity": 35,
      "ticks": 960
    },
    {
      "time": 97200,
      "track": 2,
      "noteNumber": 65,
      "velocity": 54,
      "ticks": 240
    },
    {
      "time": 97200,
      "track": 1,
      "noteNumber": 81,
      "velocity": 56,
      "ticks": 240
    },
    {
      "time": 97440,
      "track": 1,
      "noteNumber": 82,
      "velocity": 58,
      "ticks": 240
    },
    {
      "time": 97440,
      "track": 2,
      "noteNumber": 67,
      "velocity": 56,
      "ticks": 240
    },
    {
      "time": 97680,
      "track": 2,
      "noteNumber": 69,
      "velocity": 59,
      "ticks": 240
    },
    {
      "time": 97680,
      "track": 1,
      "noteNumber": 84,
      "velocity": 60,
      "ticks": 460
    },
    {
      "time": 97920,
      "track": 1,
      "noteNumber": 77,
      "velocity": 63,
      "ticks": 1920
    },
    {
      "time": 97920,
      "track": 2,
      "noteNumber": 34,
      "velocity": 54,
      "ticks": 3840
    },
    {
      "time": 97920,
      "track": 2,
      "noteNumber": 41,
      "velocity": 64,
      "ticks": 3840
    },
    {
      "time": 97920,
      "track": 1,
      "noteNumber": 74,
      "velocity": 54,
      "ticks": 1920
    },
    {
      "time": 98160,
      "track": 1,
      "noteNumber": 81,
      "velocity": 59,
      "ticks": 240
    },
    {
      "time": 98400,
      "track": 1,
      "noteNumber": 82,
      "velocity": 60,
      "ticks": 240
    },
    {
      "time": 98640,
      "track": 1,
      "noteNumber": 84,
      "velocity": 60,
      "ticks": 460
    },
    {
      "time": 98880,
      "track": 2,
      "noteNumber": 53,
      "velocity": 54,
      "ticks": 180
    },
    {
      "time": 99120,
      "track": 2,
      "noteNumber": 65,
      "velocity": 46,
      "ticks": 180
    },
    {
      "time": 99120,
      "track": 1,
      "noteNumber": 81,
      "velocity": 57,
      "ticks": 240
    },
    {
      "time": 99360,
      "track": 1,
      "noteNumber": 82,
      "velocity": 58,
      "ticks": 240
    },
    {
      "time": 99600,
      "track": 1,
      "noteNumber": 84,
      "velocity": 60,
      "ticks": 480
    },
    {
      "time": 99840,
      "track": 2,
      "noteNumber": 65,
      "velocity": 53,
      "ticks": 180
    },
    {
      "time": 99840,
      "track": 1,
      "noteNumber": 76,
      "velocity": 46,
      "ticks": 1920
    },
    {
      "time": 99840,
      "track": 1,
      "noteNumber": 73,
      "velocity": 39,
      "ticks": 1920
    },
    {
      "time": 100080,
      "track": 2,
      "noteNumber": 77,
      "velocity": 51,
      "ticks": 180
    },
    {
      "time": 100080,
      "track": 1,
      "noteNumber": 82,
      "velocity": 53,
      "ticks": 120
    },
    {
      "time": 100200,
      "track": 1,
      "noteNumber": 81,
      "velocity": 53,
      "ticks": 120
    },
    {
      "time": 100320,
      "track": 1,
      "noteNumber": 79,
      "velocity": 56,
      "ticks": 240
    },
    {
      "time": 100560,
      "track": 1,
      "noteNumber": 81,
      "velocity": 54,
      "ticks": 240
    },
    {
      "time": 100800,
      "track": 1,
      "noteNumber": 82,
      "velocity": 53,
      "ticks": 220
    },
    {
      "time": 100800,
      "track": 2,
      "noteNumber": 53,
      "velocity": 51,
      "ticks": 180
    },
    {
      "time": 101040,
      "track": 2,
      "noteNumber": 65,
      "velocity": 46,
      "ticks": 180
    },
    {
      "time": 101040,
      "track": 1,
      "noteNumber": 79,
      "velocity": 51,
      "ticks": 240
    },
    {
      "time": 101280,
      "track": 1,
      "noteNumber": 81,
      "velocity": 51,
      "ticks": 240
    },
    {
      "time": 101520,
      "track": 1,
      "noteNumber": 82,
      "velocity": 51,
      "ticks": 240
    },
    {
      "time": 101760,
      "track": 1,
      "noteNumber": 74,
      "velocity": 54,
      "ticks": 1920
    },
    {
      "time": 101760,
      "track": 1,
      "noteNumber": 84,
      "velocity": 60,
      "ticks": 220
    },
    {
      "time": 101760,
      "track": 1,
      "noteNumber": 77,
      "velocity": 63,
      "ticks": 1920
    },
    {
      "time": 101760,
      "track": 2,
      "noteNumber": 34,
      "velocity": 54,
      "ticks": 3840
    },
    {
      "time": 101760,
      "track": 2,
      "noteNumber": 41,
      "velocity": 64,
      "ticks": 3840
    },
    {
      "time": 102000,
      "track": 1,
      "noteNumber": 81,
      "velocity": 57,
      "ticks": 240
    },
    {
      "time": 102240,
      "track": 1,
      "noteNumber": 82,
      "velocity": 58,
      "ticks": 240
    },
    {
      "time": 102480,
      "track": 1,
      "noteNumber": 84,
      "velocity": 60,
      "ticks": 460
    },
    {
      "time": 102720,
      "track": 2,
      "noteNumber": 53,
      "velocity": 54,
      "ticks": 180
    },
    {
      "time": 102960,
      "track": 1,
      "noteNumber": 81,
      "velocity": 54,
      "ticks": 240
    },
    {
      "time": 102960,
      "track": 2,
      "noteNumber": 65,
      "velocity": 47,
      "ticks": 180
    },
    {
      "time": 103200,
      "track": 1,
      "noteNumber": 82,
      "velocity": 54,
      "ticks": 240
    },
    {
      "time": 103440,
      "track": 1,
      "noteNumber": 84,
      "velocity": 54,
      "ticks": 460
    },
    {
      "time": 103680,
      "track": 2,
      "noteNumber": 65,
      "velocity": 53,
      "ticks": 180
    },
    {
      "time": 103680,
      "track": 1,
      "noteNumber": 76,
      "velocity": 46,
      "ticks": 1920
    },
    {
      "time": 103680,
      "track": 1,
      "noteNumber": 73,
      "velocity": 39,
      "ticks": 1920
    },
    {
      "time": 103920,
      "track": 2,
      "noteNumber": 77,
      "velocity": 47,
      "ticks": 180
    },
    {
      "time": 103920,
      "track": 1,
      "noteNumber": 82,
      "velocity": 53,
      "ticks": 120
    },
    {
      "time": 104040,
      "track": 1,
      "noteNumber": 81,
      "velocity": 53,
      "ticks": 120
    },
    {
      "time": 104160,
      "track": 1,
      "noteNumber": 79,
      "velocity": 56,
      "ticks": 240
    },
    {
      "time": 104400,
      "track": 1,
      "noteNumber": 81,
      "velocity": 54,
      "ticks": 240
    },
    {
      "time": 104640,
      "track": 1,
      "noteNumber": 82,
      "velocity": 54,
      "ticks": 180
    },
    {
      "time": 104880,
      "track": 1,
      "noteNumber": 67,
      "velocity": 42,
      "ticks": 240
    },
    {
      "time": 105120,
      "track": 1,
      "noteNumber": 69,
      "velocity": 38,
      "ticks": 240
    },
    {
      "time": 105360,
      "track": 1,
      "noteNumber": 70,
      "velocity": 36,
      "ticks": 240
    },
    {
      "time": 105600,
      "track": 2,
      "noteNumber": 40,
      "velocity": 39,
      "ticks": 1920
    },
    {
      "time": 105600,
      "track": 1,
      "noteNumber": 73,
      "velocity": 32,
      "ticks": 1920
    },
    {
      "time": 105600,
      "track": 1,
      "noteNumber": 71,
      "velocity": 35,
      "ticks": 240
    },
    {
      "time": 105600,
      "track": 1,
      "noteNumber": 76,
      "velocity": 38,
      "ticks": 1920
    },
    {
      "time": 105600,
      "track": 2,
      "noteNumber": 33,
      "velocity": 33,
      "ticks": 1920
    },
    {
      "time": 105840,
      "track": 1,
      "noteNumber": 68,
      "velocity": 35,
      "ticks": 240
    },
    {
      "time": 106080,
      "track": 1,
      "noteNumber": 69,
      "velocity": 35,
      "ticks": 240
    },
    {
      "time": 106320,
      "track": 1,
      "noteNumber": 71,
      "velocity": 36,
      "ticks": 460
    },
    {
      "time": 106560,
      "track": 2,
      "noteNumber": 52,
      "velocity": 33,
      "ticks": 180
    },
    {
      "time": 106800,
      "track": 1,
      "noteNumber": 68,
      "velocity": 35,
      "ticks": 240
    },
    {
      "time": 106800,
      "track": 2,
      "noteNumber": 64,
      "velocity": 27,
      "ticks": 180
    },
    {
      "time": 107040,
      "track": 1,
      "noteNumber": 69,
      "velocity": 35,
      "ticks": 240
    },
    {
      "time": 107280,
      "track": 1,
      "noteNumber": 71,
      "velocity": 36,
      "ticks": 480
    },
    {
      "time": 107520,
      "track": 1,
      "noteNumber": 75,
      "velocity": 30,
      "ticks": 1920
    },
    {
      "time": 107520,
      "track": 1,
      "noteNumber": 72,
      "velocity": 25,
      "ticks": 1920
    },
    {
      "time": 107520,
      "track": 2,
      "noteNumber": 90,
      "velocity": 44,
      "ticks": 180
    },
    {
      "time": 107760,
      "track": 1,
      "noteNumber": 69,
      "velocity": 35,
      "ticks": 120
    },
    {
      "time": 107880,
      "track": 1,
      "noteNumber": 68,
      "velocity": 35,
      "ticks": 120
    },
    {
      "time": 108000,
      "track": 2,
      "noteNumber": 87,
      "velocity": 44,
      "ticks": 180
    },
    {
      "time": 108000,
      "track": 1,
      "noteNumber": 66,
      "velocity": 35,
      "ticks": 240
    },
    {
      "time": 108240,
      "track": 1,
      "noteNumber": 68,
      "velocity": 36,
      "ticks": 240
    },
    {
      "time": 108480,
      "track": 2,
      "noteNumber": 84,
      "velocity": 43,
      "ticks": 180
    },
    {
      "time": 108480,
      "track": 1,
      "noteNumber": 69,
      "velocity": 37,
      "ticks": 220
    },
    {
      "time": 108720,
      "track": 1,
      "noteNumber": 66,
      "velocity": 36,
      "ticks": 240
    },
    {
      "time": 108960,
      "track": 1,
      "noteNumber": 68,
      "velocity": 36,
      "ticks": 240
    },
    {
      "time": 108960,
      "track": 2,
      "noteNumber": 81,
      "velocity": 39,
      "ticks": 180
    },
    {
      "time": 109200,
      "track": 1,
      "noteNumber": 69,
      "velocity": 37,
      "ticks": 240
    },
    {
      "time": 109440,
      "track": 2,
      "noteNumber": 33,
      "velocity": 39,
      "ticks": 1920
    },
    {
      "time": 109440,
      "track": 1,
      "noteNumber": 73,
      "velocity": 38,
      "ticks": 1920
    },
    {
      "time": 109440,
      "track": 2,
      "noteNumber": 40,
      "velocity": 39,
      "ticks": 1920
    },
    {
      "time": 109440,
      "track": 1,
      "noteNumber": 71,
      "velocity": 35,
      "ticks": 240
    },
    {
      "time": 109440,
      "track": 1,
      "noteNumber": 76,
      "velocity": 38,
      "ticks": 1920
    },
    {
      "time": 109680,
      "track": 1,
      "noteNumber": 68,
      "velocity": 35,
      "ticks": 240
    },
    {
      "time": 109920,
      "track": 1,
      "noteNumber": 69,
      "velocity": 35,
      "ticks": 240
    },
    {
      "time": 110160,
      "track": 1,
      "noteNumber": 71,
      "velocity": 36,
      "ticks": 460
    },
    {
      "time": 110400,
      "track": 2,
      "noteNumber": 52,
      "velocity": 33,
      "ticks": 180
    },
    {
      "time": 110640,
      "track": 2,
      "noteNumber": 64,
      "velocity": 27,
      "ticks": 180
    },
    {
      "time": 110640,
      "track": 1,
      "noteNumber": 68,
      "velocity": 35,
      "ticks": 240
    },
    {
      "time": 110880,
      "track": 1,
      "noteNumber": 69,
      "velocity": 35,
      "ticks": 240
    },
    {
      "time": 111120,
      "track": 1,
      "noteNumber": 71,
      "velocity": 36,
      "ticks": 480
    },
    {
      "time": 111360,
      "track": 2,
      "noteNumber": 66,
      "velocity": 37,
      "ticks": 240
    },
    {
      "time": 111360,
      "track": 1,
      "noteNumber": 72,
      "velocity": 30,
      "ticks": 1920
    },
    {
      "time": 111360,
      "track": 1,
      "noteNumber": 75,
      "velocity": 30,
      "ticks": 1920
    },
    {
      "time": 111600,
      "track": 1,
      "noteNumber": 69,
      "velocity": 35,
      "ticks": 120
    },
    {
      "time": 111720,
      "track": 1,
      "noteNumber": 68,
      "velocity": 35,
      "ticks": 120
    },
    {
      "time": 111840,
      "track": 2,
      "noteNumber": 63,
      "velocity": 37,
      "ticks": 240
    },
    {
      "time": 111840,
      "track": 1,
      "noteNumber": 66,
      "velocity": 35,
      "ticks": 240
    },
    {
      "time": 112080,
      "track": 1,
      "noteNumber": 68,
      "velocity": 36,
      "ticks": 240
    },
    {
      "time": 112320,
      "track": 1,
      "noteNumber": 69,
      "velocity": 37,
      "ticks": 220
    },
    {
      "time": 112320,
      "track": 2,
      "noteNumber": 60,
      "velocity": 37,
      "ticks": 240
    },
    {
      "time": 112560,
      "track": 1,
      "noteNumber": 66,
      "velocity": 36,
      "ticks": 240
    },
    {
      "time": 112800,
      "track": 1,
      "noteNumber": 68,
      "velocity": 36,
      "ticks": 240
    },
    {
      "time": 112800,
      "track": 2,
      "noteNumber": 57,
      "velocity": 35,
      "ticks": 240
    },
    {
      "time": 113040,
      "track": 1,
      "noteNumber": 69,
      "velocity": 37,
      "ticks": 240
    },
    {
      "time": 113280,
      "track": 1,
      "noteNumber": 74,
      "velocity": 30,
      "ticks": 480
    },
    {
      "time": 113280,
      "track": 1,
      "noteNumber": 82,
      "velocity": 41,
      "ticks": 240
    },
    {
      "time": 113280,
      "track": 1,
      "noteNumber": 76,
      "velocity": 30,
      "ticks": 480
    },
    {
      "time": 113280,
      "track": 1,
      "noteNumber": 70,
      "velocity": 35,
      "ticks": 240
    },
    {
      "time": 113280,
      "track": 2,
      "noteNumber": 43,
      "velocity": 31,
      "ticks": 480
    },
    {
      "time": 113280,
      "track": 2,
      "noteNumber": 31,
      "velocity": 26,
      "ticks": 480
    },
    {
      "time": 113520,
      "track": 1,
      "noteNumber": 79,
      "velocity": 37,
      "ticks": 240
    },
    {
      "time": 113520,
      "track": 1,
      "noteNumber": 67,
      "velocity": 31,
      "ticks": 240
    },
    {
      "time": 113760,
      "track": 2,
      "noteNumber": 48,
      "velocity": 31,
      "ticks": 480
    },
    {
      "time": 113760,
      "track": 1,
      "noteNumber": 69,
      "velocity": 31,
      "ticks": 240
    },
    {
      "time": 113760,
      "track": 1,
      "noteNumber": 81,
      "velocity": 37,
      "ticks": 240
    },
    {
      "time": 113760,
      "track": 1,
      "noteNumber": 72,
      "velocity": 25,
      "ticks": 480
    },
    {
      "time": 113760,
      "track": 2,
      "noteNumber": 36,
      "velocity": 26,
      "ticks": 480
    },
    {
      "time": 113760,
      "track": 1,
      "noteNumber": 76,
      "velocity": 30,
      "ticks": 480
    },
    {
      "time": 114000,
      "track": 1,
      "noteNumber": 82,
      "velocity": 42,
      "ticks": 480
    },
    {
      "time": 114000,
      "track": 1,
      "noteNumber": 70,
      "velocity": 35,
      "ticks": 480
    },
    {
      "time": 114240,
      "track": 2,
      "noteNumber": 43,
      "velocity": 31,
      "ticks": 480
    },
    {
      "time": 114240,
      "track": 2,
      "noteNumber": 55,
      "velocity": 37,
      "ticks": 480
    },
    {
      "time": 114240,
      "track": 1,
      "noteNumber": 76,
      "velocity": 38,
      "ticks": 480
    },
    {
      "time": 114240,
      "track": 1,
      "noteNumber": 74,
      "velocity": 32,
      "ticks": 480
    },
    {
      "time": 114480,
      "track": 1,
      "noteNumber": 67,
      "velocity": 33,
      "ticks": 240
    },
    {
      "time": 114480,
      "track": 1,
      "noteNumber": 79,
      "velocity": 39,
      "ticks": 240
    },
    {
      "time": 114720,
      "track": 2,
      "noteNumber": 48,
      "velocity": 27,
      "ticks": 480
    },
    {
      "time": 114720,
      "track": 1,
      "noteNumber": 81,
      "velocity": 39,
      "ticks": 240
    },
    {
      "time": 114720,
      "track": 1,
      "noteNumber": 69,
      "velocity": 33,
      "ticks": 240
    },
    {
      "time": 114720,
      "track": 1,
      "noteNumber": 76,
      "velocity": 32,
      "ticks": 480
    },
    {
      "time": 114720,
      "track": 1,
      "noteNumber": 72,
      "velocity": 27,
      "ticks": 480
    },
    {
      "time": 114720,
      "track": 2,
      "noteNumber": 60,
      "velocity": 33,
      "ticks": 480
    },
    {
      "time": 114960,
      "track": 1,
      "noteNumber": 82,
      "velocity": 39,
      "ticks": 240
    },
    {
      "time": 114960,
      "track": 1,
      "noteNumber": 70,
      "velocity": 33,
      "ticks": 240
    },
    {
      "time": 115200,
      "track": 2,
      "noteNumber": 62,
      "velocity": 45,
      "ticks": 220
    },
    {
      "time": 115200,
      "track": 1,
      "noteNumber": 70,
      "velocity": 35,
      "ticks": 1680
    },
    {
      "time": 115200,
      "track": 1,
      "noteNumber": 74,
      "velocity": 45,
      "ticks": 220
    },
    {
      "time": 115200,
      "track": 2,
      "noteNumber": 58,
      "velocity": 35,
      "ticks": 1680
    },
    {
      "time": 115200,
      "track": 1,
      "noteNumber": 82,
      "velocity": 42,
      "ticks": 1920
    },
    {
      "time": 115200,
      "track": 2,
      "noteNumber": 55,
      "velocity": 35,
      "ticks": 1920
    },
    {
      "time": 115440,
      "track": 1,
      "noteNumber": 77,
      "velocity": 47,
      "ticks": 480
    },
    {
      "time": 115440,
      "track": 2,
      "noteNumber": 65,
      "velocity": 47,
      "ticks": 480
    },
    {
      "time": 115920,
      "track": 2,
      "noteNumber": 64,
      "velocity": 45,
      "ticks": 120
    },
    {
      "time": 115920,
      "track": 1,
      "noteNumber": 76,
      "velocity": 46,
      "ticks": 120
    },
    {
      "time": 116040,
      "track": 1,
      "noteNumber": 77,
      "velocity": 46,
      "ticks": 120
    },
    {
      "time": 116040,
      "track": 2,
      "noteNumber": 65,
      "velocity": 45,
      "ticks": 120
    },
    {
      "time": 116160,
      "track": 2,
      "noteNumber": 62,
      "velocity": 49,
      "ticks": 240
    },
    {
      "time": 116160,
      "track": 1,
      "noteNumber": 74,
      "velocity": 52,
      "ticks": 240
    },
    {
      "time": 116400,
      "track": 2,
      "noteNumber": 60,
      "velocity": 46,
      "ticks": 120
    },
    {
      "time": 116400,
      "track": 1,
      "noteNumber": 72,
      "velocity": 48,
      "ticks": 120
    },
    {
      "time": 116520,
      "track": 2,
      "noteNumber": 62,
      "velocity": 46,
      "ticks": 120
    },
    {
      "time": 116520,
      "track": 1,
      "noteNumber": 74,
      "velocity": 48,
      "ticks": 120
    },
    {
      "time": 116640,
      "track": 2,
      "noteNumber": 58,
      "velocity": 52,
      "ticks": 480
    },
    {
      "time": 116640,
      "track": 1,
      "noteNumber": 70,
      "velocity": 54,
      "ticks": 480
    },
    {
      "time": 116880,
      "track": 1,
      "noteNumber": 74,
      "velocity": 52,
      "ticks": 240
    },
    {
      "time": 116880,
      "track": 2,
      "noteNumber": 62,
      "velocity": 49,
      "ticks": 240
    },
    {
      "time": 117120,
      "track": 1,
      "noteNumber": 82,
      "velocity": 48,
      "ticks": 240
    },
    {
      "time": 117120,
      "track": 1,
      "noteNumber": 74,
      "velocity": 36,
      "ticks": 480
    },
    {
      "time": 117120,
      "track": 1,
      "noteNumber": 70,
      "velocity": 40,
      "ticks": 240
    },
    {
      "time": 117120,
      "track": 2,
      "noteNumber": 31,
      "velocity": 31,
      "ticks": 480
    },
    {
      "time": 117120,
      "track": 2,
      "noteNumber": 43,
      "velocity": 37,
      "ticks": 480
    },
    {
      "time": 117120,
      "track": 1,
      "noteNumber": 76,
      "velocity": 36,
      "ticks": 480
    },
    {
      "time": 117360,
      "track": 1,
      "noteNumber": 79,
      "velocity": 45,
      "ticks": 240
    },
    {
      "time": 117360,
      "track": 1,
      "noteNumber": 67,
      "velocity": 37,
      "ticks": 240
    },
    {
      "time": 117600,
      "track": 1,
      "noteNumber": 72,
      "velocity": 30,
      "ticks": 480
    },
    {
      "time": 117600,
      "track": 1,
      "noteNumber": 69,
      "velocity": 37,
      "ticks": 240
    },
    {
      "time": 117600,
      "track": 2,
      "noteNumber": 48,
      "velocity": 37,
      "ticks": 480
    },
    {
      "time": 117600,
      "track": 2,
      "noteNumber": 36,
      "velocity": 31,
      "ticks": 480
    },
    {
      "time": 117600,
      "track": 1,
      "noteNumber": 76,
      "velocity": 36,
      "ticks": 480
    },
    {
      "time": 117600,
      "track": 1,
      "noteNumber": 81,
      "velocity": 45,
      "ticks": 240
    },
    {
      "time": 117840,
      "track": 1,
      "noteNumber": 82,
      "velocity": 49,
      "ticks": 480
    },
    {
      "time": 117840,
      "track": 1,
      "noteNumber": 70,
      "velocity": 41,
      "ticks": 480
    },
    {
      "time": 118080,
      "track": 1,
      "noteNumber": 74,
      "velocity": 40,
      "ticks": 480
    },
    {
      "time": 118080,
      "track": 1,
      "noteNumber": 76,
      "velocity": 48,
      "ticks": 480
    },
    {
      "time": 118080,
      "track": 2,
      "noteNumber": 43,
      "velocity": 36,
      "ticks": 480
    },
    {
      "time": 118080,
      "track": 2,
      "noteNumber": 55,
      "velocity": 44,
      "ticks": 480
    },
    {
      "time": 118320,
      "track": 1,
      "noteNumber": 67,
      "velocity": 39,
      "ticks": 240
    },
    {
      "time": 118320,
      "track": 1,
      "noteNumber": 79,
      "velocity": 46,
      "ticks": 240
    },
    {
      "time": 118560,
      "track": 1,
      "noteNumber": 76,
      "velocity": 38,
      "ticks": 480
    },
    {
      "time": 118560,
      "track": 2,
      "noteNumber": 48,
      "velocity": 33,
      "ticks": 480
    },
    {
      "time": 118560,
      "track": 1,
      "noteNumber": 81,
      "velocity": 46,
      "ticks": 240
    },
    {
      "time": 118560,
      "track": 1,
      "noteNumber": 72,
      "velocity": 32,
      "ticks": 480
    },
    {
      "time": 118560,
      "track": 1,
      "noteNumber": 69,
      "velocity": 39,
      "ticks": 240
    },
    {
      "time": 118560,
      "track": 2,
      "noteNumber": 60,
      "velocity": 39,
      "ticks": 480
    },
    {
      "time": 118800,
      "track": 1,
      "noteNumber": 70,
      "velocity": 39,
      "ticks": 240
    },
    {
      "time": 118800,
      "track": 1,
      "noteNumber": 82,
      "velocity": 46,
      "ticks": 240
    },
    {
      "time": 119040,
      "track": 2,
      "noteNumber": 55,
      "velocity": 41,
      "ticks": 1920
    },
    {
      "time": 119040,
      "track": 2,
      "noteNumber": 58,
      "velocity": 41,
      "ticks": 1680
    },
    {
      "time": 119040,
      "track": 2,
      "noteNumber": 62,
      "velocity": 54,
      "ticks": 220
    },
    {
      "time": 119040,
      "track": 1,
      "noteNumber": 82,
      "velocity": 49,
      "ticks": 1920
    },
    {
      "time": 119040,
      "track": 1,
      "noteNumber": 74,
      "velocity": 54,
      "ticks": 220
    },
    {
      "time": 119040,
      "track": 1,
      "noteNumber": 70,
      "velocity": 41,
      "ticks": 1680
    },
    {
      "time": 119280,
      "track": 1,
      "noteNumber": 77,
      "velocity": 58,
      "ticks": 480
    },
    {
      "time": 119280,
      "track": 2,
      "noteNumber": 65,
      "velocity": 58,
      "ticks": 480
    },
    {
      "time": 119760,
      "track": 2,
      "noteNumber": 64,
      "velocity": 54,
      "ticks": 120
    },
    {
      "time": 119760,
      "track": 1,
      "noteNumber": 76,
      "velocity": 57,
      "ticks": 120
    },
    {
      "time": 119880,
      "track": 1,
      "noteNumber": 77,
      "velocity": 57,
      "ticks": 120
    },
    {
      "time": 119880,
      "track": 2,
      "noteNumber": 65,
      "velocity": 54,
      "ticks": 120
    },
    {
      "time": 120000,
      "track": 2,
      "noteNumber": 62,
      "velocity": 60,
      "ticks": 240
    },
    {
      "time": 120000,
      "track": 1,
      "noteNumber": 74,
      "velocity": 63,
      "ticks": 240
    },
    {
      "time": 120240,
      "track": 2,
      "noteNumber": 60,
      "velocity": 57,
      "ticks": 120
    },
    {
      "time": 120240,
      "track": 1,
      "noteNumber": 72,
      "velocity": 59,
      "ticks": 120
    },
    {
      "time": 120360,
      "track": 2,
      "noteNumber": 62,
      "velocity": 57,
      "ticks": 120
    },
    {
      "time": 120360,
      "track": 1,
      "noteNumber": 74,
      "velocity": 59,
      "ticks": 120
    },
    {
      "time": 120480,
      "track": 1,
      "noteNumber": 70,
      "velocity": 64,
      "ticks": 480
    },
    {
      "time": 120480,
      "track": 2,
      "noteNumber": 58,
      "velocity": 63,
      "ticks": 480
    },
    {
      "time": 120720,
      "track": 2,
      "noteNumber": 62,
      "velocity": 60,
      "ticks": 220
    },
    {
      "time": 120720,
      "track": 1,
      "noteNumber": 74,
      "velocity": 63,
      "ticks": 220
    },
    {
      "time": 120960,
      "track": 1,
      "noteNumber": 74,
      "velocity": 53,
      "ticks": 1680
    },
    {
      "time": 120960,
      "track": 2,
      "noteNumber": 65,
      "velocity": 58,
      "ticks": 220
    },
    {
      "time": 120960,
      "track": 2,
      "noteNumber": 58,
      "velocity": 45,
      "ticks": 1920
    },
    {
      "time": 120960,
      "track": 1,
      "noteNumber": 70,
      "velocity": 45,
      "ticks": 1920
    },
    {
      "time": 120960,
      "track": 1,
      "noteNumber": 77,
      "velocity": 58,
      "ticks": 220
    },
    {
      "time": 120960,
      "track": 2,
      "noteNumber": 62,
      "velocity": 53,
      "ticks": 1680
    },
    {
      "time": 121200,
      "track": 1,
      "noteNumber": 81,
      "velocity": 62,
      "ticks": 480
    },
    {
      "time": 121200,
      "track": 2,
      "noteNumber": 69,
      "velocity": 62,
      "ticks": 480
    },
    {
      "time": 121680,
      "track": 1,
      "noteNumber": 79,
      "velocity": 60,
      "ticks": 120
    },
    {
      "time": 121680,
      "track": 2,
      "noteNumber": 67,
      "velocity": 58,
      "ticks": 120
    },
    {
      "time": 121800,
      "track": 1,
      "noteNumber": 81,
      "velocity": 60,
      "ticks": 120
    },
    {
      "time": 121800,
      "track": 2,
      "noteNumber": 69,
      "velocity": 58,
      "ticks": 120
    },
    {
      "time": 121920,
      "track": 1,
      "noteNumber": 77,
      "velocity": 67,
      "ticks": 240
    },
    {
      "time": 121920,
      "track": 2,
      "noteNumber": 65,
      "velocity": 63,
      "ticks": 240
    },
    {
      "time": 122160,
      "track": 2,
      "noteNumber": 64,
      "velocity": 60,
      "ticks": 120
    },
    {
      "time": 122160,
      "track": 1,
      "noteNumber": 76,
      "velocity": 63,
      "ticks": 120
    },
    {
      "time": 122280,
      "track": 2,
      "noteNumber": 65,
      "velocity": 60,
      "ticks": 120
    },
    {
      "time": 122280,
      "track": 1,
      "noteNumber": 77,
      "velocity": 63,
      "ticks": 120
    },
    {
      "time": 122400,
      "track": 2,
      "noteNumber": 62,
      "velocity": 67,
      "ticks": 480
    },
    {
      "time": 122400,
      "track": 1,
      "noteNumber": 74,
      "velocity": 69,
      "ticks": 480
    },
    {
      "time": 122640,
      "track": 2,
      "noteNumber": 65,
      "velocity": 63,
      "ticks": 240
    },
    {
      "time": 122640,
      "track": 1,
      "noteNumber": 77,
      "velocity": 67,
      "ticks": 240
    },
    {
      "time": 122880,
      "track": 2,
      "noteNumber": 67,
      "velocity": 55,
      "ticks": 480
    },
    {
      "time": 122880,
      "track": 2,
      "noteNumber": 65,
      "velocity": 55,
      "ticks": 480
    },
    {
      "time": 122880,
      "track": 2,
      "noteNumber": 70,
      "velocity": 66,
      "ticks": 480
    },
    {
      "time": 122880,
      "track": 2,
      "noteNumber": 62,
      "velocity": 55,
      "ticks": 480
    },
    {
      "time": 122880,
      "track": 2,
      "noteNumber": 60,
      "velocity": 55,
      "ticks": 480
    },
    {
      "time": 122880,
      "track": 1,
      "noteNumber": 84,
      "velocity": 54,
      "ticks": 64
    },
    {
      "time": 122940,
      "track": 1,
      "noteNumber": 86,
      "velocity": 48,
      "ticks": 64
    },
    {
      "time": 123000,
      "track": 1,
      "noteNumber": 84,
      "velocity": 54,
      "ticks": 64
    },
    {
      "time": 123060,
      "track": 1,
      "noteNumber": 86,
      "velocity": 49,
      "ticks": 64
    },
    {
      "time": 123120,
      "track": 1,
      "noteNumber": 84,
      "velocity": 54,
      "ticks": 64
    },
    {
      "time": 123180,
      "track": 1,
      "noteNumber": 86,
      "velocity": 49,
      "ticks": 64
    },
    {
      "time": 123240,
      "track": 1,
      "noteNumber": 84,
      "velocity": 54,
      "ticks": 64
    },
    {
      "time": 123300,
      "track": 1,
      "noteNumber": 86,
      "velocity": 49,
      "ticks": 64
    },
    {
      "time": 123360,
      "track": 2,
      "noteNumber": 55,
      "velocity": 62,
      "ticks": 480
    },
    {
      "time": 123360,
      "track": 1,
      "noteNumber": 84,
      "velocity": 54,
      "ticks": 60
    },
    {
      "time": 123420,
      "track": 1,
      "noteNumber": 86,
      "velocity": 52,
      "ticks": 64
    },
    {
      "time": 123480,
      "track": 1,
      "noteNumber": 84,
      "velocity": 47,
      "ticks": 64
    },
    {
      "time": 123540,
      "track": 1,
      "noteNumber": 86,
      "velocity": 52,
      "ticks": 64
    },
    {
      "time": 123600,
      "track": 1,
      "noteNumber": 84,
      "velocity": 48,
      "ticks": 64
    },
    {
      "time": 123660,
      "track": 1,
      "noteNumber": 86,
      "velocity": 53,
      "ticks": 64
    },
    {
      "time": 123720,
      "track": 1,
      "noteNumber": 84,
      "velocity": 49,
      "ticks": 64
    },
    {
      "time": 123780,
      "track": 1,
      "noteNumber": 86,
      "velocity": 51,
      "ticks": 64
    },
    {
      "time": 123840,
      "track": 2,
      "noteNumber": 60,
      "velocity": 80,
      "ticks": 480
    },
    {
      "time": 123840,
      "track": 1,
      "noteNumber": 84,
      "velocity": 54,
      "ticks": 60
    },
    {
      "time": 123900,
      "track": 1,
      "noteNumber": 86,
      "velocity": 51,
      "ticks": 60
    },
    {
      "time": 123960,
      "track": 1,
      "noteNumber": 84,
      "velocity": 56,
      "ticks": 60
    },
    {
      "time": 124020,
      "track": 1,
      "noteNumber": 86,
      "velocity": 53,
      "ticks": 60
    },
    {
      "time": 124080,
      "track": 1,
      "noteNumber": 84,
      "velocity": 58,
      "ticks": 60
    },
    {
      "time": 124140,
      "track": 1,
      "noteNumber": 86,
      "velocity": 56,
      "ticks": 60
    },
    {
      "time": 124200,
      "track": 1,
      "noteNumber": 84,
      "velocity": 64,
      "ticks": 60
    },
    {
      "time": 124260,
      "track": 1,
      "noteNumber": 86,
      "velocity": 60,
      "ticks": 60
    },
    {
      "time": 124320,
      "track": 2,
      "noteNumber": 48,
      "velocity": 77,
      "ticks": 480
    },
    {
      "time": 124320,
      "track": 1,
      "noteNumber": 84,
      "velocity": 68,
      "ticks": 60
    },
    {
      "time": 124380,
      "track": 1,
      "noteNumber": 86,
      "velocity": 65,
      "ticks": 60
    },
    {
      "time": 124440,
      "track": 1,
      "noteNumber": 84,
      "velocity": 77,
      "ticks": 60
    },
    {
      "time": 124500,
      "track": 1,
      "noteNumber": 86,
      "velocity": 71,
      "ticks": 60
    },
    {
      "time": 124560,
      "track": 1,
      "noteNumber": 84,
      "velocity": 86,
      "ticks": 60
    },
    {
      "time": 124620,
      "track": 1,
      "noteNumber": 86,
      "velocity": 90,
      "ticks": 60
    },
    {
      "time": 124680,
      "track": 1,
      "noteNumber": 88,
      "velocity": 96,
      "ticks": 60
    },
    {
      "time": 124740,
      "track": 1,
      "noteNumber": 89,
      "velocity": 100,
      "ticks": 60
    },
    {
      "time": 124800,
      "track": 1,
      "noteNumber": 91,
      "velocity": 108,
      "ticks": 480
    },
    {
      "time": 124801,
      "track": 2,
      "noteNumber": 29,
      "velocity": 97,
      "ticks": 240
    },
    {
      "time": 125040,
      "track": 2,
      "noteNumber": 41,
      "velocity": 78,
      "ticks": 240
    },
    {
      "time": 125280,
      "track": 2,
      "noteNumber": 48,
      "velocity": 81,
      "ticks": 220
    },
    {
      "time": 125520,
      "track": 2,
      "noteNumber": 48,
      "velocity": 81,
      "ticks": 1680
    },
    {
      "time": 125760,
      "track": 1,
      "noteNumber": 67,
      "velocity": 70,
      "ticks": 1440
    },
    {
      "time": 125760,
      "track": 2,
      "noteNumber": 58,
      "velocity": 62,
      "ticks": 1440
    },
    {
      "time": 125760,
      "track": 1,
      "noteNumber": 70,
      "velocity": 70,
      "ticks": 1440
    },
    {
      "time": 125760,
      "track": 1,
      "noteNumber": 74,
      "velocity": 70,
      "ticks": 1440
    },
    {
      "time": 125760,
      "track": 1,
      "noteNumber": 79,
      "velocity": 83,
      "ticks": 1080
    },
    {
      "time": 125760,
      "track": 2,
      "noteNumber": 55,
      "velocity": 62,
      "ticks": 1440
    },
    {
      "time": 125760,
      "track": 2,
      "noteNumber": 62,
      "velocity": 75,
      "ticks": 1440
    },
    {
      "time": 126840,
      "track": 1,
      "noteNumber": 81,
      "velocity": 53,
      "ticks": 120
    },
    {
      "time": 126960,
      "track": 1,
      "noteNumber": 82,
      "velocity": 53,
      "ticks": 120
    },
    {
      "time": 127080,
      "track": 1,
      "noteNumber": 81,
      "velocity": 53,
      "ticks": 120
    },
    {
      "time": 127200,
      "track": 1,
      "noteNumber": 79,
      "velocity": 56,
      "ticks": 120
    },
    {
      "time": 127320,
      "track": 1,
      "noteNumber": 81,
      "velocity": 54,
      "ticks": 120
    },
    {
      "time": 127440,
      "track": 1,
      "noteNumber": 79,
      "velocity": 54,
      "ticks": 120
    },
    {
      "time": 127560,
      "track": 1,
      "noteNumber": 77,
      "velocity": 54,
      "ticks": 120
    },
    {
      "time": 127680,
      "track": 1,
      "noteNumber": 74,
      "velocity": 57,
      "ticks": 120
    },
    {
      "time": 127800,
      "track": 1,
      "noteNumber": 77,
      "velocity": 54,
      "ticks": 120
    },
    {
      "time": 127920,
      "track": 1,
      "noteNumber": 74,
      "velocity": 54,
      "ticks": 120
    },
    {
      "time": 128040,
      "track": 1,
      "noteNumber": 72,
      "velocity": 54,
      "ticks": 120
    },
    {
      "time": 128160,
      "track": 1,
      "noteNumber": 70,
      "velocity": 58,
      "ticks": 120
    },
    {
      "time": 128280,
      "track": 1,
      "noteNumber": 67,
      "velocity": 54,
      "ticks": 120
    },
    {
      "time": 128400,
      "track": 1,
      "noteNumber": 62,
      "velocity": 53,
      "ticks": 120
    },
    {
      "time": 128520,
      "track": 1,
      "noteNumber": 64,
      "velocity": 53,
      "ticks": 120
    },
    {
      "time": 128640,
      "track": 2,
      "noteNumber": 57,
      "velocity": 42,
      "ticks": 960
    },
    {
      "time": 128640,
      "track": 1,
      "noteNumber": 61,
      "velocity": 42,
      "ticks": 960
    },
    {
      "time": 128640,
      "track": 2,
      "noteNumber": 49,
      "velocity": 39,
      "ticks": 960
    },
    {
      "time": 128640,
      "track": 1,
      "noteNumber": 67,
      "velocity": 52,
      "ticks": 120
    },
    {
      "time": 128640,
      "track": 2,
      "noteNumber": 41,
      "velocity": 37,
      "ticks": 960
    },
    {
      "time": 128760,
      "track": 1,
      "noteNumber": 65,
      "velocity": 48,
      "ticks": 120
    },
    {
      "time": 128880,
      "track": 1,
      "noteNumber": 67,
      "velocity": 48,
      "ticks": 120
    },
    {
      "time": 129000,
      "track": 1,
      "noteNumber": 69,
      "velocity": 47,
      "ticks": 120
    },
    {
      "time": 129120,
      "track": 1,
      "noteNumber": 67,
      "velocity": 47,
      "ticks": 600
    },
    {
      "time": 129600,
      "track": 2,
      "noteNumber": 46,
      "velocity": 40,
      "ticks": 960
    },
    {
      "time": 129600,
      "track": 2,
      "noteNumber": 53,
      "velocity": 45,
      "ticks": 960
    },
    {
      "time": 129600,
      "track": 1,
      "noteNumber": 62,
      "velocity": 44,
      "ticks": 960
    },
    {
      "time": 129720,
      "track": 1,
      "noteNumber": 65,
      "velocity": 48,
      "ticks": 120
    },
    {
      "time": 129840,
      "track": 1,
      "noteNumber": 67,
      "velocity": 49,
      "ticks": 120
    },
    {
      "time": 129960,
      "track": 1,
      "noteNumber": 69,
      "velocity": 52,
      "ticks": 120
    },
    {
      "time": 130080,
      "track": 1,
      "noteNumber": 72,
      "velocity": 53,
      "ticks": 120
    },
    {
      "time": 130200,
      "track": 1,
      "noteNumber": 69,
      "velocity": 53,
      "ticks": 120
    },
    {
      "time": 130320,
      "track": 1,
      "noteNumber": 67,
      "velocity": 53,
      "ticks": 120
    },
    {
      "time": 130440,
      "track": 1,
      "noteNumber": 65,
      "velocity": 53,
      "ticks": 120
    },
    {
      "time": 130560,
      "track": 1,
      "noteNumber": 67,
      "velocity": 54,
      "ticks": 120
    },
    {
      "time": 130560,
      "track": 1,
      "noteNumber": 63,
      "velocity": 43,
      "ticks": 960
    },
    {
      "time": 130560,
      "track": 2,
      "noteNumber": 57,
      "velocity": 45,
      "ticks": 1920
    },
    {
      "time": 130560,
      "track": 2,
      "noteNumber": 48,
      "velocity": 40,
      "ticks": 960
    },
    {
      "time": 130680,
      "track": 1,
      "noteNumber": 65,
      "velocity": 49,
      "ticks": 120
    },
    {
      "time": 130800,
      "track": 1,
      "noteNumber": 67,
      "velocity": 51,
      "ticks": 120
    },
    {
      "time": 130920,
      "track": 1,
      "noteNumber": 69,
      "velocity": 49,
      "ticks": 120
    },
    {
      "time": 131040,
      "track": 1,
      "noteNumber": 67,
      "velocity": 48,
      "ticks": 600
    },
    {
      "time": 131520,
      "track": 2,
      "noteNumber": 50,
      "velocity": 40,
      "ticks": 960
    },
    {
      "time": 131520,
      "track": 1,
      "noteNumber": 62,
      "velocity": 45,
      "ticks": 960
    },
    {
      "time": 131640,
      "track": 1,
      "noteNumber": 65,
      "velocity": 49,
      "ticks": 120
    },
    {
      "time": 131760,
      "track": 1,
      "noteNumber": 67,
      "velocity": 51,
      "ticks": 120
    },
    {
      "time": 131880,
      "track": 1,
      "noteNumber": 69,
      "velocity": 52,
      "ticks": 120
    },
    {
      "time": 132000,
      "track": 1,
      "noteNumber": 74,
      "velocity": 56,
      "ticks": 120
    },
    {
      "time": 132120,
      "track": 1,
      "noteNumber": 69,
      "velocity": 54,
      "ticks": 120
    },
    {
      "time": 132240,
      "track": 1,
      "noteNumber": 67,
      "velocity": 54,
      "ticks": 120
    },
    {
      "time": 132360,
      "track": 1,
      "noteNumber": 65,
      "velocity": 54,
      "ticks": 240
    },
    {
      "time": 132480,
      "track": 2,
      "noteNumber": 58,
      "velocity": 49,
      "ticks": 480
    },
    {
      "time": 132480,
      "track": 2,
      "noteNumber": 46,
      "velocity": 41,
      "ticks": 480
    },
    {
      "time": 132480,
      "track": 2,
      "noteNumber": 53,
      "velocity": 41,
      "ticks": 480
    },
    {
      "time": 132480,
      "track": 1,
      "noteNumber": 62,
      "velocity": 49,
      "ticks": 480
    },
    {
      "time": 132600,
      "track": 1,
      "noteNumber": 70,
      "velocity": 52,
      "ticks": 120
    },
    {
      "time": 132720,
      "track": 1,
      "noteNumber": 74,
      "velocity": 54,
      "ticks": 120
    },
    {
      "time": 132840,
      "track": 1,
      "noteNumber": 77,
      "velocity": 57,
      "ticks": 120
    },
    {
      "time": 132960,
      "track": 1,
      "noteNumber": 81,
      "velocity": 60,
      "ticks": 720
    },
    {
      "time": 132960,
      "track": 2,
      "noteNumber": 65,
      "velocity": 47,
      "ticks": 480
    },
    {
      "time": 132960,
      "track": 1,
      "noteNumber": 74,
      "velocity": 40,
      "ticks": 480
    },
    {
      "time": 132960,
      "track": 2,
      "noteNumber": 58,
      "velocity": 39,
      "ticks": 1440
    },
    {
      "time": 133440,
      "track": 1,
      "noteNumber": 72,
      "velocity": 44,
      "ticks": 1680
    },
    {
      "time": 133440,
      "track": 2,
      "noteNumber": 64,
      "velocity": 47,
      "ticks": 480
    },
    {
      "time": 133680,
      "track": 1,
      "noteNumber": 79,
      "velocity": 54,
      "ticks": 240
    },
    {
      "time": 133920,
      "track": 1,
      "noteNumber": 77,
      "velocity": 52,
      "ticks": 240
    },
    {
      "time": 133920,
      "track": 2,
      "noteNumber": 62,
      "velocity": 51,
      "ticks": 240
    },
    {
      "time": 134160,
      "track": 1,
      "noteNumber": 79,
      "velocity": 54,
      "ticks": 360
    },
    {
      "time": 134160,
      "track": 2,
      "noteNumber": 64,
      "velocity": 53,
      "ticks": 360
    },
    {
      "time": 134400,
      "track": 2,
      "noteNumber": 57,
      "velocity": 53,
      "ticks": 960
    },
    {
      "time": 134520,
      "track": 1,
      "noteNumber": 77,
      "velocity": 49,
      "ticks": 120
    },
    {
      "time": 134520,
      "track": 2,
      "noteNumber": 65,
      "velocity": 53,
      "ticks": 120
    },
    {
      "time": 134640,
      "track": 1,
      "noteNumber": 76,
      "velocity": 51,
      "ticks": 120
    },
    {
      "time": 134640,
      "track": 2,
      "noteNumber": 67,
      "velocity": 53,
      "ticks": 120
    },
    {
      "time": 134760,
      "track": 1,
      "noteNumber": 79,
      "velocity": 51,
      "ticks": 120
    },
    {
      "time": 134760,
      "track": 2,
      "noteNumber": 69,
      "velocity": 53,
      "ticks": 120
    },
    {
      "time": 134880,
      "track": 1,
      "noteNumber": 77,
      "velocity": 54,
      "ticks": 720
    },
    {
      "time": 134880,
      "track": 2,
      "noteNumber": 62,
      "velocity": 54,
      "ticks": 720
    },
    {
      "time": 135120,
      "track": 1,
      "noteNumber": 70,
      "velocity": 49,
      "ticks": 120
    },
    {
      "time": 135240,
      "track": 1,
      "noteNumber": 69,
      "velocity": 49,
      "ticks": 120
    },
    {
      "time": 135360,
      "track": 2,
      "noteNumber": 55,
      "velocity": 46,
      "ticks": 480
    },
    {
      "time": 135360,
      "track": 1,
      "noteNumber": 70,
      "velocity": 51,
      "ticks": 960
    },
    {
      "time": 135600,
      "track": 2,
      "noteNumber": 64,
      "velocity": 45,
      "ticks": 240
    },
    {
      "time": 135600,
      "track": 1,
      "noteNumber": 76,
      "velocity": 46,
      "ticks": 240
    },
    {
      "time": 135840,
      "track": 1,
      "noteNumber": 65,
      "velocity": 45,
      "ticks": 240
    },
    {
      "time": 135840,
      "track": 1,
      "noteNumber": 74,
      "velocity": 45,
      "ticks": 240
    },
    {
      "time": 135840,
      "track": 2,
      "noteNumber": 48,
      "velocity": 41,
      "ticks": 480
    },
    {
      "time": 136080,
      "track": 1,
      "noteNumber": 72,
      "velocity": 43,
      "ticks": 240
    },
    {
      "time": 136080,
      "track": 1,
      "noteNumber": 64,
      "velocity": 43,
      "ticks": 240
    },
    {
      "time": 136321,
      "track": 2,
      "noteNumber": 29,
      "velocity": 89,
      "ticks": 240
    },
    {
      "time": 136560,
      "track": 2,
      "noteNumber": 41,
      "velocity": 77,
      "ticks": 240
    },
    {
      "time": 136800,
      "track": 2,
      "noteNumber": 48,
      "velocity": 81,
      "ticks": 220
    },
    {
      "time": 137040,
      "track": 2,
      "noteNumber": 48,
      "velocity": 81,
      "ticks": 1680
    },
    {
      "time": 137280,
      "track": 2,
      "noteNumber": 55,
      "velocity": 63,
      "ticks": 1440
    },
    {
      "time": 137280,
      "track": 2,
      "noteNumber": 58,
      "velocity": 63,
      "ticks": 1440
    },
    {
      "time": 137280,
      "track": 1,
      "noteNumber": 74,
      "velocity": 70,
      "ticks": 1440
    },
    {
      "time": 137280,
      "track": 1,
      "noteNumber": 70,
      "velocity": 70,
      "ticks": 1440
    },
    {
      "time": 137280,
      "track": 2,
      "noteNumber": 62,
      "velocity": 76,
      "ticks": 1440
    },
    {
      "time": 137280,
      "track": 1,
      "noteNumber": 67,
      "velocity": 70,
      "ticks": 1440
    },
    {
      "time": 137280,
      "track": 1,
      "noteNumber": 79,
      "velocity": 83,
      "ticks": 1080
    },
    {
      "time": 138360,
      "track": 1,
      "noteNumber": 81,
      "velocity": 53,
      "ticks": 120
    },
    {
      "time": 138480,
      "track": 1,
      "noteNumber": 82,
      "velocity": 53,
      "ticks": 120
    },
    {
      "time": 138600,
      "track": 1,
      "noteNumber": 81,
      "velocity": 53,
      "ticks": 120
    },
    {
      "time": 138720,
      "track": 1,
      "noteNumber": 79,
      "velocity": 56,
      "ticks": 120
    },
    {
      "time": 138840,
      "track": 1,
      "noteNumber": 81,
      "velocity": 54,
      "ticks": 120
    },
    {
      "time": 138960,
      "track": 1,
      "noteNumber": 79,
      "velocity": 54,
      "ticks": 120
    },
    {
      "time": 139080,
      "track": 1,
      "noteNumber": 77,
      "velocity": 54,
      "ticks": 120
    },
    {
      "time": 139200,
      "track": 1,
      "noteNumber": 74,
      "velocity": 57,
      "ticks": 120
    },
    {
      "time": 139320,
      "track": 1,
      "noteNumber": 77,
      "velocity": 54,
      "ticks": 120
    },
    {
      "time": 139440,
      "track": 1,
      "noteNumber": 74,
      "velocity": 54,
      "ticks": 120
    },
    {
      "time": 139560,
      "track": 1,
      "noteNumber": 72,
      "velocity": 54,
      "ticks": 120
    },
    {
      "time": 139680,
      "track": 1,
      "noteNumber": 70,
      "velocity": 58,
      "ticks": 120
    },
    {
      "time": 139800,
      "track": 1,
      "noteNumber": 67,
      "velocity": 54,
      "ticks": 120
    },
    {
      "time": 139920,
      "track": 1,
      "noteNumber": 62,
      "velocity": 53,
      "ticks": 120
    },
    {
      "time": 140040,
      "track": 1,
      "noteNumber": 64,
      "velocity": 53,
      "ticks": 120
    },
    {
      "time": 140160,
      "track": 2,
      "noteNumber": 50,
      "velocity": 36,
      "ticks": 840
    },
    {
      "time": 140160,
      "track": 2,
      "noteNumber": 57,
      "velocity": 43,
      "ticks": 840
    },
    {
      "time": 140160,
      "track": 1,
      "noteNumber": 67,
      "velocity": 51,
      "ticks": 120
    },
    {
      "time": 140160,
      "track": 1,
      "noteNumber": 62,
      "velocity": 43,
      "ticks": 1920
    },
    {
      "time": 140280,
      "track": 1,
      "noteNumber": 65,
      "velocity": 47,
      "ticks": 120
    },
    {
      "time": 140400,
      "track": 1,
      "noteNumber": 67,
      "velocity": 48,
      "ticks": 120
    },
    {
      "time": 140520,
      "track": 1,
      "noteNumber": 69,
      "velocity": 47,
      "ticks": 120
    },
    {
      "time": 140640,
      "track": 1,
      "noteNumber": 67,
      "velocity": 46,
      "ticks": 600
    },
    {
      "time": 141000,
      "track": 2,
      "noteNumber": 43,
      "velocity": 28,
      "ticks": 1080
    },
    {
      "time": 141060,
      "track": 2,
      "noteNumber": 50,
      "velocity": 33,
      "ticks": 1020
    },
    {
      "time": 141120,
      "track": 2,
      "noteNumber": 58,
      "velocity": 38,
      "ticks": 960
    },
    {
      "time": 141240,
      "track": 1,
      "noteNumber": 65,
      "velocity": 45,
      "ticks": 120
    },
    {
      "time": 141360,
      "track": 1,
      "noteNumber": 67,
      "velocity": 46,
      "ticks": 120
    },
    {
      "time": 141480,
      "track": 1,
      "noteNumber": 69,
      "velocity": 48,
      "ticks": 120
    },
    {
      "time": 141600,
      "track": 1,
      "noteNumber": 72,
      "velocity": 49,
      "ticks": 120
    },
    {
      "time": 141720,
      "track": 1,
      "noteNumber": 69,
      "velocity": 49,
      "ticks": 120
    },
    {
      "time": 141840,
      "track": 1,
      "noteNumber": 67,
      "velocity": 49,
      "ticks": 120
    },
    {
      "time": 141960,
      "track": 1,
      "noteNumber": 65,
      "velocity": 49,
      "ticks": 120
    },
    {
      "time": 142080,
      "track": 1,
      "noteNumber": 62,
      "velocity": 43,
      "ticks": 1920
    },
    {
      "time": 142080,
      "track": 2,
      "noteNumber": 57,
      "velocity": 41,
      "ticks": 840
    },
    {
      "time": 142080,
      "track": 2,
      "noteNumber": 50,
      "velocity": 35,
      "ticks": 840
    },
    {
      "time": 142080,
      "track": 1,
      "noteNumber": 67,
      "velocity": 48,
      "ticks": 120
    },
    {
      "time": 142200,
      "track": 1,
      "noteNumber": 65,
      "velocity": 46,
      "ticks": 120
    },
    {
      "time": 142320,
      "track": 1,
      "noteNumber": 67,
      "velocity": 47,
      "ticks": 120
    },
    {
      "time": 142440,
      "track": 1,
      "noteNumber": 69,
      "velocity": 46,
      "ticks": 120
    },
    {
      "time": 142560,
      "track": 1,
      "noteNumber": 67,
      "velocity": 45,
      "ticks": 600
    },
    {
      "time": 142920,
      "track": 2,
      "noteNumber": 43,
      "velocity": 32,
      "ticks": 1080
    },
    {
      "time": 142980,
      "track": 2,
      "noteNumber": 50,
      "velocity": 35,
      "ticks": 1020
    },
    {
      "time": 143040,
      "track": 2,
      "noteNumber": 59,
      "velocity": 38,
      "ticks": 960
    },
    {
      "time": 143160,
      "track": 1,
      "noteNumber": 65,
      "velocity": 46,
      "ticks": 120
    },
    {
      "time": 143280,
      "track": 1,
      "noteNumber": 67,
      "velocity": 47,
      "ticks": 120
    },
    {
      "time": 143400,
      "track": 1,
      "noteNumber": 69,
      "velocity": 48,
      "ticks": 120
    },
    {
      "time": 143520,
      "track": 1,
      "noteNumber": 74,
      "velocity": 52,
      "ticks": 120
    },
    {
      "time": 143640,
      "track": 1,
      "noteNumber": 69,
      "velocity": 51,
      "ticks": 120
    },
    {
      "time": 143760,
      "track": 1,
      "noteNumber": 67,
      "velocity": 51,
      "ticks": 120
    },
    {
      "time": 143880,
      "track": 1,
      "noteNumber": 65,
      "velocity": 51,
      "ticks": 120
    },
    {
      "time": 144000,
      "track": 2,
      "noteNumber": 48,
      "velocity": 51,
      "ticks": 1920
    },
    {
      "time": 144000,
      "track": 1,
      "noteNumber": 76,
      "velocity": 51,
      "ticks": 120
    },
    {
      "time": 144000,
      "track": 2,
      "noteNumber": 36,
      "velocity": 43,
      "ticks": 1920
    },
    {
      "time": 144120,
      "track": 1,
      "noteNumber": 70,
      "velocity": 49,
      "ticks": 120
    },
    {
      "time": 144240,
      "track": 1,
      "noteNumber": 69,
      "velocity": 49,
      "ticks": 120
    },
    {
      "time": 144360,
      "track": 1,
      "noteNumber": 67,
      "velocity": 49,
      "ticks": 110
    },
    {
      "time": 144480,
      "track": 2,
      "noteNumber": 60,
      "velocity": 46,
      "ticks": 240
    },
    {
      "time": 144480,
      "track": 2,
      "noteNumber": 57,
      "velocity": 39,
      "ticks": 240
    },
    {
      "time": 144480,
      "track": 1,
      "noteNumber": 77,
      "velocity": 52,
      "ticks": 120
    },
    {
      "time": 144600,
      "track": 1,
      "noteNumber": 72,
      "velocity": 51,
      "ticks": 120
    },
    {
      "time": 144720,
      "track": 2,
      "noteNumber": 62,
      "velocity": 32,
      "ticks": 220
    },
    {
      "time": 144720,
      "track": 1,
      "noteNumber": 70,
      "velocity": 51,
      "ticks": 120
    },
    {
      "time": 144720,
      "track": 2,
      "noteNumber": 65,
      "velocity": 38,
      "ticks": 220
    },
    {
      "time": 144840,
      "track": 1,
      "noteNumber": 69,
      "velocity": 51,
      "ticks": 110
    },
    {
      "time": 144960,
      "track": 1,
      "noteNumber": 79,
      "velocity": 53,
      "ticks": 120
    },
    {
      "time": 144960,
      "track": 2,
      "noteNumber": 58,
      "velocity": 40,
      "ticks": 240
    },
    {
      "time": 144960,
      "track": 2,
      "noteNumber": 62,
      "velocity": 47,
      "ticks": 240
    },
    {
      "time": 145080,
      "track": 1,
      "noteNumber": 74,
      "velocity": 51,
      "ticks": 120
    },
    {
      "time": 145200,
      "track": 1,
      "noteNumber": 72,
      "velocity": 51,
      "ticks": 120
    },
    {
      "time": 145200,
      "track": 2,
      "noteNumber": 64,
      "velocity": 32,
      "ticks": 220
    },
    {
      "time": 145200,
      "track": 2,
      "noteNumber": 67,
      "velocity": 38,
      "ticks": 220
    },
    {
      "time": 145320,
      "track": 1,
      "noteNumber": 70,
      "velocity": 51,
      "ticks": 110
    },
    {
      "time": 145440,
      "track": 2,
      "noteNumber": 64,
      "velocity": 49,
      "ticks": 240
    },
    {
      "time": 145440,
      "track": 2,
      "noteNumber": 60,
      "velocity": 41,
      "ticks": 240
    },
    {
      "time": 145440,
      "track": 1,
      "noteNumber": 81,
      "velocity": 54,
      "ticks": 120
    },
    {
      "time": 145560,
      "track": 1,
      "noteNumber": 76,
      "velocity": 52,
      "ticks": 120
    },
    {
      "time": 145680,
      "track": 2,
      "noteNumber": 65,
      "velocity": 35,
      "ticks": 220
    },
    {
      "time": 145680,
      "track": 2,
      "noteNumber": 69,
      "velocity": 41,
      "ticks": 220
    },
    {
      "time": 145680,
      "track": 1,
      "noteNumber": 74,
      "velocity": 52,
      "ticks": 120
    },
    {
      "time": 145800,
      "track": 1,
      "noteNumber": 72,
      "velocity": 52,
      "ticks": 110
    },
    {
      "time": 145920,
      "track": 2,
      "noteNumber": 65,
      "velocity": 51,
      "ticks": 240
    },
    {
      "time": 145920,
      "track": 2,
      "noteNumber": 62,
      "velocity": 43,
      "ticks": 240
    },
    {
      "time": 145920,
      "track": 1,
      "noteNumber": 82,
      "velocity": 56,
      "ticks": 120
    },
    {
      "time": 146040,
      "track": 1,
      "noteNumber": 77,
      "velocity": 54,
      "ticks": 120
    },
    {
      "time": 146160,
      "track": 1,
      "noteNumber": 76,
      "velocity": 54,
      "ticks": 120
    },
    {
      "time": 146160,
      "track": 2,
      "noteNumber": 70,
      "velocity": 41,
      "ticks": 220
    },
    {
      "time": 146160,
      "track": 2,
      "noteNumber": 67,
      "velocity": 35,
      "ticks": 220
    },
    {
      "time": 146280,
      "track": 1,
      "noteNumber": 74,
      "velocity": 54,
      "ticks": 110
    },
    {
      "time": 146400,
      "track": 1,
      "noteNumber": 84,
      "velocity": 58,
      "ticks": 120
    },
    {
      "time": 146400,
      "track": 2,
      "noteNumber": 67,
      "velocity": 53,
      "ticks": 240
    },
    {
      "time": 146400,
      "track": 2,
      "noteNumber": 64,
      "velocity": 45,
      "ticks": 240
    },
    {
      "time": 146520,
      "track": 1,
      "noteNumber": 79,
      "velocity": 56,
      "ticks": 120
    },
    {
      "time": 146640,
      "track": 1,
      "noteNumber": 77,
      "velocity": 56,
      "ticks": 120
    },
    {
      "time": 146640,
      "track": 2,
      "noteNumber": 69,
      "velocity": 36,
      "ticks": 220
    },
    {
      "time": 146640,
      "track": 2,
      "noteNumber": 72,
      "velocity": 43,
      "ticks": 220
    },
    {
      "time": 146760,
      "track": 1,
      "noteNumber": 76,
      "velocity": 57,
      "ticks": 110
    },
    {
      "time": 146880,
      "track": 2,
      "noteNumber": 69,
      "velocity": 54,
      "ticks": 240
    },
    {
      "time": 146880,
      "track": 2,
      "noteNumber": 65,
      "velocity": 45,
      "ticks": 240
    },
    {
      "time": 146880,
      "track": 1,
      "noteNumber": 86,
      "velocity": 60,
      "ticks": 120
    },
    {
      "time": 147000,
      "track": 1,
      "noteNumber": 81,
      "velocity": 58,
      "ticks": 120
    },
    {
      "time": 147120,
      "track": 2,
      "noteNumber": 70,
      "velocity": 37,
      "ticks": 220
    },
    {
      "time": 147120,
      "track": 1,
      "noteNumber": 79,
      "velocity": 59,
      "ticks": 120
    },
    {
      "time": 147120,
      "track": 2,
      "noteNumber": 74,
      "velocity": 45,
      "ticks": 220
    },
    {
      "time": 147240,
      "track": 1,
      "noteNumber": 77,
      "velocity": 59,
      "ticks": 110
    },
    {
      "time": 147360,
      "track": 1,
      "noteNumber": 88,
      "velocity": 63,
      "ticks": 120
    },
    {
      "time": 147360,
      "track": 2,
      "noteNumber": 70,
      "velocity": 57,
      "ticks": 240
    },
    {
      "time": 147360,
      "track": 2,
      "noteNumber": 67,
      "velocity": 48,
      "ticks": 240
    },
    {
      "time": 147480,
      "track": 1,
      "noteNumber": 82,
      "velocity": 60,
      "ticks": 120
    },
    {
      "time": 147600,
      "track": 2,
      "noteNumber": 76,
      "velocity": 47,
      "ticks": 130
    },
    {
      "time": 147600,
      "track": 1,
      "noteNumber": 81,
      "velocity": 60,
      "ticks": 120
    },
    {
      "time": 147600,
      "track": 2,
      "noteNumber": 72,
      "velocity": 40,
      "ticks": 130
    },
    {
      "time": 147720,
      "track": 1,
      "noteNumber": 79,
      "velocity": 60,
      "ticks": 110
    },
    {
      "time": 147750,
      "track": 2,
      "noteNumber": 58,
      "velocity": 40,
      "ticks": 2010
    },
    {
      "time": 147780,
      "track": 2,
      "noteNumber": 65,
      "velocity": 52,
      "ticks": 1980
    },
    {
      "time": 147810,
      "track": 2,
      "noteNumber": 67,
      "velocity": 54,
      "ticks": 1950
    },
    {
      "time": 147840,
      "track": 1,
      "noteNumber": 91,
      "velocity": 87,
      "ticks": 110
    },
    {
      "time": 147840,
      "track": 2,
      "noteNumber": 74,
      "velocity": 58,
      "ticks": 710
    },
    {
      "time": 147960,
      "track": 1,
      "noteNumber": 86,
      "velocity": 67,
      "ticks": 110
    },
    {
      "time": 148080,
      "track": 1,
      "noteNumber": 84,
      "velocity": 67,
      "ticks": 110
    },
    {
      "time": 148200,
      "track": 1,
      "noteNumber": 82,
      "velocity": 67,
      "ticks": 110
    },
    {
      "time": 148320,
      "track": 2,
      "noteNumber": 79,
      "velocity": 60,
      "ticks": 110
    },
    {
      "time": 148440,
      "track": 2,
      "noteNumber": 74,
      "velocity": 57,
      "ticks": 1320
    },
    {
      "time": 148560,
      "track": 2,
      "noteNumber": 72,
      "velocity": 57,
      "ticks": 110
    },
    {
      "time": 148680,
      "track": 2,
      "noteNumber": 70,
      "velocity": 57,
      "ticks": 110
    },
    {
      "time": 148800,
      "track": 1,
      "noteNumber": 77,
      "velocity": 63,
      "ticks": 110
    },
    {
      "time": 148920,
      "track": 1,
      "noteNumber": 79,
      "velocity": 65,
      "ticks": 110
    },
    {
      "time": 149040,
      "track": 1,
      "noteNumber": 81,
      "velocity": 67,
      "ticks": 110
    },
    {
      "time": 149160,
      "track": 1,
      "noteNumber": 82,
      "velocity": 69,
      "ticks": 110
    },
    {
      "time": 149280,
      "track": 1,
      "noteNumber": 84,
      "velocity": 72,
      "ticks": 110
    },
    {
      "time": 149400,
      "track": 1,
      "noteNumber": 86,
      "velocity": 72,
      "ticks": 110
    },
    {
      "time": 149520,
      "track": 1,
      "noteNumber": 88,
      "velocity": 75,
      "ticks": 110
    },
    {
      "time": 149640,
      "track": 1,
      "noteNumber": 89,
      "velocity": 77,
      "ticks": 110
    },
    {
      "time": 149760,
      "track": 2,
      "noteNumber": 55,
      "velocity": 49,
      "ticks": 1920
    },
    {
      "time": 149760,
      "track": 2,
      "noteNumber": 60,
      "velocity": 49,
      "ticks": 1920
    },
    {
      "time": 149760,
      "track": 1,
      "noteNumber": 91,
      "velocity": 87,
      "ticks": 110
    },
    {
      "time": 149760,
      "track": 2,
      "noteNumber": 62,
      "velocity": 58,
      "ticks": 1920
    },
    {
      "time": 149760,
      "track": 2,
      "noteNumber": 70,
      "velocity": 58,
      "ticks": 950
    },
    {
      "time": 149880,
      "track": 1,
      "noteNumber": 86,
      "velocity": 67,
      "ticks": 110
    },
    {
      "time": 150000,
      "track": 1,
      "noteNumber": 84,
      "velocity": 67,
      "ticks": 110
    },
    {
      "time": 150120,
      "track": 1,
      "noteNumber": 82,
      "velocity": 67,
      "ticks": 110
    },
    {
      "time": 150240,
      "track": 2,
      "noteNumber": 79,
      "velocity": 60,
      "ticks": 110
    },
    {
      "time": 150360,
      "track": 2,
      "noteNumber": 74,
      "velocity": 57,
      "ticks": 110
    },
    {
      "time": 150480,
      "track": 2,
      "noteNumber": 72,
      "velocity": 57,
      "ticks": 110
    },
    {
      "time": 150600,
      "track": 2,
      "noteNumber": 70,
      "velocity": 57,
      "ticks": 1080
    },
    {
      "time": 150720,
      "track": 1,
      "noteNumber": 77,
      "velocity": 64,
      "ticks": 110
    },
    {
      "time": 150840,
      "track": 1,
      "noteNumber": 79,
      "velocity": 66,
      "ticks": 110
    },
    {
      "time": 150960,
      "track": 1,
      "noteNumber": 81,
      "velocity": 69,
      "ticks": 110
    },
    {
      "time": 151080,
      "track": 1,
      "noteNumber": 82,
      "velocity": 72,
      "ticks": 110
    },
    {
      "time": 151200,
      "track": 1,
      "noteNumber": 84,
      "velocity": 73,
      "ticks": 110
    },
    {
      "time": 151320,
      "track": 1,
      "noteNumber": 86,
      "velocity": 76,
      "ticks": 110
    },
    {
      "time": 151440,
      "track": 1,
      "noteNumber": 88,
      "velocity": 78,
      "ticks": 110
    },
    {
      "time": 151560,
      "track": 1,
      "noteNumber": 89,
      "velocity": 80,
      "ticks": 110
    },
    {
      "time": 151680,
      "track": 2,
      "noteNumber": 58,
      "velocity": 55,
      "ticks": 1920
    },
    {
      "time": 151680,
      "track": 2,
      "noteNumber": 55,
      "velocity": 55,
      "ticks": 1920
    },
    {
      "time": 151680,
      "track": 2,
      "noteNumber": 48,
      "velocity": 55,
      "ticks": 1920
    },
    {
      "time": 151680,
      "track": 1,
      "noteNumber": 91,
      "velocity": 89,
      "ticks": 110
    },
    {
      "time": 151680,
      "track": 2,
      "noteNumber": 64,
      "velocity": 65,
      "ticks": 1920
    },
    {
      "time": 151800,
      "track": 1,
      "noteNumber": 86,
      "velocity": 72,
      "ticks": 110
    },
    {
      "time": 151920,
      "track": 1,
      "noteNumber": 84,
      "velocity": 72,
      "ticks": 110
    },
    {
      "time": 152040,
      "track": 1,
      "noteNumber": 82,
      "velocity": 72,
      "ticks": 110
    },
    {
      "time": 152160,
      "track": 2,
      "noteNumber": 79,
      "velocity": 64,
      "ticks": 110
    },
    {
      "time": 152280,
      "track": 2,
      "noteNumber": 74,
      "velocity": 59,
      "ticks": 110
    },
    {
      "time": 152400,
      "track": 2,
      "noteNumber": 72,
      "velocity": 59,
      "ticks": 110
    },
    {
      "time": 152520,
      "track": 2,
      "noteNumber": 70,
      "velocity": 59,
      "ticks": 110
    },
    {
      "time": 152640,
      "track": 1,
      "noteNumber": 79,
      "velocity": 72,
      "ticks": 110
    },
    {
      "time": 152760,
      "track": 1,
      "noteNumber": 81,
      "velocity": 73,
      "ticks": 110
    },
    {
      "time": 152880,
      "track": 1,
      "noteNumber": 82,
      "velocity": 76,
      "ticks": 110
    },
    {
      "time": 153000,
      "track": 1,
      "noteNumber": 84,
      "velocity": 78,
      "ticks": 110
    },
    {
      "time": 153120,
      "track": 1,
      "noteNumber": 86,
      "velocity": 80,
      "ticks": 110
    },
    {
      "time": 153240,
      "track": 1,
      "noteNumber": 88,
      "velocity": 83,
      "ticks": 110
    },
    {
      "time": 153360,
      "track": 1,
      "noteNumber": 89,
      "velocity": 85,
      "ticks": 110
    },
    {
      "time": 153480,
      "track": 1,
      "noteNumber": 91,
      "velocity": 87,
      "ticks": 110
    },
    {
      "time": 153600,
      "track": 2,
      "noteNumber": 29,
      "velocity": 68,
      "ticks": 240
    },
    {
      "time": 153600,
      "track": 1,
      "noteNumber": 93,
      "velocity": 89,
      "ticks": 240
    },
    {
      "time": 153600,
      "track": 1,
      "noteNumber": 81,
      "velocity": 75,
      "ticks": 240
    },
    {
      "time": 153600,
      "track": 1,
      "noteNumber": 89,
      "velocity": 75,
      "ticks": 240
    },
    {
      "time": 153600,
      "track": 2,
      "noteNumber": 41,
      "velocity": 81,
      "ticks": 240
    },
    {
      "time": 153840,
      "track": 2,
      "noteNumber": 48,
      "velocity": 81,
      "ticks": 2550
    },
    {
      "time": 154080,
      "track": 2,
      "noteNumber": 57,
      "velocity": 58,
      "ticks": 1200
    },
    {
      "time": 154080,
      "track": 2,
      "noteNumber": 60,
      "velocity": 69,
      "ticks": 1200
    },
    {
      "time": 154080,
      "track": 1,
      "noteNumber": 63,
      "velocity": 58,
      "ticks": 720
    },
    {
      "time": 154080,
      "track": 1,
      "noteNumber": 67,
      "velocity": 69,
      "ticks": 720
    },
    {
      "time": 154800,
      "track": 1,
      "noteNumber": 62,
      "velocity": 53,
      "ticks": 120
    },
    {
      "time": 154800,
      "track": 1,
      "noteNumber": 65,
      "velocity": 63,
      "ticks": 120
    },
    {
      "time": 154920,
      "track": 1,
      "noteNumber": 63,
      "velocity": 53,
      "ticks": 120
    },
    {
      "time": 154920,
      "track": 1,
      "noteNumber": 67,
      "velocity": 63,
      "ticks": 120
    },
    {
      "time": 155040,
      "track": 1,
      "noteNumber": 62,
      "velocity": 57,
      "ticks": 240
    },
    {
      "time": 155040,
      "track": 1,
      "noteNumber": 65,
      "velocity": 68,
      "ticks": 240
    },
    {
      "time": 155280,
      "track": 1,
      "noteNumber": 63,
      "velocity": 65,
      "ticks": 120
    },
    {
      "time": 155280,
      "track": 1,
      "noteNumber": 60,
      "velocity": 55,
      "ticks": 120
    },
    {
      "time": 155280,
      "track": 2,
      "noteNumber": 53,
      "velocity": 42,
      "ticks": 1150
    },
    {
      "time": 155280,
      "track": 2,
      "noteNumber": 57,
      "velocity": 50,
      "ticks": 1150
    },
    {
      "time": 155400,
      "track": 1,
      "noteNumber": 65,
      "velocity": 65,
      "ticks": 120
    },
    {
      "time": 155400,
      "track": 1,
      "noteNumber": 62,
      "velocity": 55,
      "ticks": 120
    },
    {
      "time": 155520,
      "track": 1,
      "noteNumber": 63,
      "velocity": 70,
      "ticks": 220
    },
    {
      "time": 155520,
      "track": 1,
      "noteNumber": 60,
      "velocity": 59,
      "ticks": 220
    },
    {
      "time": 155760,
      "track": 1,
      "noteNumber": 60,
      "velocity": 79,
      "ticks": 720
    },
    {
      "time": 156000,
      "track": 1,
      "noteNumber": 62,
      "velocity": 79,
      "ticks": 240
    },
    {
      "time": 156240,
      "track": 1,
      "noteNumber": 63,
      "velocity": 79,
      "ticks": 240
    },
    {
      "time": 156390,
      "track": 2,
      "noteNumber": 48,
      "velocity": 50,
      "ticks": 1050
    },
    {
      "time": 156420,
      "track": 2,
      "noteNumber": 55,
      "velocity": 63,
      "ticks": 1020
    },
    {
      "time": 156450,
      "track": 2,
      "noteNumber": 58,
      "velocity": 56,
      "ticks": 990
    },
    {
      "time": 156480,
      "track": 2,
      "noteNumber": 64,
      "velocity": 72,
      "ticks": 480
    },
    {
      "time": 156480,
      "track": 1,
      "noteNumber": 79,
      "velocity": 72,
      "ticks": 110
    },
    {
      "time": 156600,
      "track": 1,
      "noteNumber": 81,
      "velocity": 73,
      "ticks": 110
    },
    {
      "time": 156720,
      "track": 1,
      "noteNumber": 82,
      "velocity": 76,
      "ticks": 110
    },
    {
      "time": 156840,
      "track": 1,
      "noteNumber": 84,
      "velocity": 78,
      "ticks": 110
    },
    {
      "time": 156960,
      "track": 1,
      "noteNumber": 86,
      "velocity": 80,
      "ticks": 110
    },
    {
      "time": 156960,
      "track": 2,
      "noteNumber": 62,
      "velocity": 72,
      "ticks": 480
    },
    {
      "time": 157080,
      "track": 1,
      "noteNumber": 88,
      "velocity": 83,
      "ticks": 110
    },
    {
      "time": 157200,
      "track": 1,
      "noteNumber": 89,
      "velocity": 85,
      "ticks": 110
    },
    {
      "time": 157320,
      "track": 1,
      "noteNumber": 91,
      "velocity": 87,
      "ticks": 110
    },
    {
      "time": 157440,
      "track": 2,
      "noteNumber": 29,
      "velocity": 68,
      "ticks": 240
    },
    {
      "time": 157440,
      "track": 2,
      "noteNumber": 41,
      "velocity": 81,
      "ticks": 240
    },
    {
      "time": 157440,
      "track": 1,
      "noteNumber": 93,
      "velocity": 89,
      "ticks": 240
    },
    {
      "time": 157440,
      "track": 1,
      "noteNumber": 89,
      "velocity": 89,
      "ticks": 240
    },
    {
      "time": 157440,
      "track": 1,
      "noteNumber": 81,
      "velocity": 75,
      "ticks": 240
    },
    {
      "time": 157680,
      "track": 2,
      "noteNumber": 48,
      "velocity": 81,
      "ticks": 2640
    },
    {
      "time": 157920,
      "track": 2,
      "noteNumber": 57,
      "velocity": 58,
      "ticks": 1200
    },
    {
      "time": 157920,
      "track": 1,
      "noteNumber": 67,
      "velocity": 69,
      "ticks": 720
    },
    {
      "time": 157920,
      "track": 2,
      "noteNumber": 60,
      "velocity": 69,
      "ticks": 1200
    },
    {
      "time": 157920,
      "track": 1,
      "noteNumber": 63,
      "velocity": 58,
      "ticks": 720
    },
    {
      "time": 158640,
      "track": 1,
      "noteNumber": 65,
      "velocity": 63,
      "ticks": 120
    },
    {
      "time": 158640,
      "track": 1,
      "noteNumber": 62,
      "velocity": 53,
      "ticks": 120
    },
    {
      "time": 158760,
      "track": 1,
      "noteNumber": 67,
      "velocity": 63,
      "ticks": 120
    },
    {
      "time": 158760,
      "track": 1,
      "noteNumber": 63,
      "velocity": 53,
      "ticks": 120
    },
    {
      "time": 158880,
      "track": 1,
      "noteNumber": 65,
      "velocity": 68,
      "ticks": 240
    },
    {
      "time": 158880,
      "track": 1,
      "noteNumber": 62,
      "velocity": 57,
      "ticks": 240
    },
    {
      "time": 159120,
      "track": 1,
      "noteNumber": 63,
      "velocity": 65,
      "ticks": 120
    },
    {
      "time": 159120,
      "track": 2,
      "noteNumber": 57,
      "velocity": 51,
      "ticks": 1200
    },
    {
      "time": 159120,
      "track": 2,
      "noteNumber": 53,
      "velocity": 43,
      "ticks": 1200
    },
    {
      "time": 159120,
      "track": 1,
      "noteNumber": 60,
      "velocity": 55,
      "ticks": 120
    },
    {
      "time": 159240,
      "track": 1,
      "noteNumber": 65,
      "velocity": 65,
      "ticks": 120
    },
    {
      "time": 159240,
      "track": 1,
      "noteNumber": 62,
      "velocity": 55,
      "ticks": 120
    },
    {
      "time": 159360,
      "track": 1,
      "noteNumber": 63,
      "velocity": 70,
      "ticks": 220
    },
    {
      "time": 159360,
      "track": 1,
      "noteNumber": 60,
      "velocity": 70,
      "ticks": 220
    },
    {
      "time": 159600,
      "track": 1,
      "noteNumber": 60,
      "velocity": 79,
      "ticks": 720
    },
    {
      "time": 159840,
      "track": 1,
      "noteNumber": 62,
      "velocity": 79,
      "ticks": 240
    },
    {
      "time": 160080,
      "track": 1,
      "noteNumber": 63,
      "velocity": 79,
      "ticks": 240
    },
    {
      "time": 160230,
      "track": 2,
      "noteNumber": 48,
      "velocity": 59,
      "ticks": 1050
    },
    {
      "time": 160260,
      "track": 2,
      "noteNumber": 55,
      "velocity": 54,
      "ticks": 1020
    },
    {
      "time": 160290,
      "track": 2,
      "noteNumber": 58,
      "velocity": 67,
      "ticks": 990
    },
    {
      "time": 160320,
      "track": 1,
      "noteNumber": 79,
      "velocity": 75,
      "ticks": 110
    },
    {
      "time": 160320,
      "track": 2,
      "noteNumber": 64,
      "velocity": 72,
      "ticks": 480
    },
    {
      "time": 160440,
      "track": 1,
      "noteNumber": 81,
      "velocity": 77,
      "ticks": 110
    },
    {
      "time": 160560,
      "track": 1,
      "noteNumber": 82,
      "velocity": 80,
      "ticks": 110
    },
    {
      "time": 160680,
      "track": 1,
      "noteNumber": 84,
      "velocity": 83,
      "ticks": 110
    },
    {
      "time": 160800,
      "track": 2,
      "noteNumber": 62,
      "velocity": 72,
      "ticks": 480
    },
    {
      "time": 160800,
      "track": 1,
      "noteNumber": 86,
      "velocity": 85,
      "ticks": 110
    },
    {
      "time": 160920,
      "track": 1,
      "noteNumber": 88,
      "velocity": 88,
      "ticks": 110
    },
    {
      "time": 161040,
      "track": 1,
      "noteNumber": 89,
      "velocity": 90,
      "ticks": 110
    },
    {
      "time": 161160,
      "track": 1,
      "noteNumber": 91,
      "velocity": 94,
      "ticks": 110
    },
    {
      "time": 161280,
      "track": 1,
      "noteNumber": 94,
      "velocity": 98,
      "ticks": 240
    },
    {
      "time": 161280,
      "track": 1,
      "noteNumber": 82,
      "velocity": 81,
      "ticks": 240
    },
    {
      "time": 161280,
      "track": 1,
      "noteNumber": 86,
      "velocity": 96,
      "ticks": 240
    },
    {
      "time": 161280,
      "track": 2,
      "noteNumber": 34,
      "velocity": 68,
      "ticks": 240
    },
    {
      "time": 161280,
      "track": 2,
      "noteNumber": 46,
      "velocity": 81,
      "ticks": 240
    },
    {
      "time": 161520,
      "track": 2,
      "noteNumber": 53,
      "velocity": 81,
      "ticks": 240
    },
    {
      "time": 161760,
      "track": 2,
      "noteNumber": 58,
      "velocity": 57,
      "ticks": 720
    },
    {
      "time": 161760,
      "track": 2,
      "noteNumber": 62,
      "velocity": 68,
      "ticks": 1200
    },
    {
      "time": 161760,
      "track": 1,
      "noteNumber": 70,
      "velocity": 81,
      "ticks": 720
    },
    {
      "time": 161760,
      "track": 1,
      "noteNumber": 65,
      "velocity": 68,
      "ticks": 1200
    },
    {
      "time": 162480,
      "track": 1,
      "noteNumber": 69,
      "velocity": 76,
      "ticks": 120
    },
    {
      "time": 162480,
      "track": 2,
      "noteNumber": 57,
      "velocity": 65,
      "ticks": 120
    },
    {
      "time": 162600,
      "track": 1,
      "noteNumber": 70,
      "velocity": 76,
      "ticks": 120
    },
    {
      "time": 162600,
      "track": 2,
      "noteNumber": 58,
      "velocity": 65,
      "ticks": 120
    },
    {
      "time": 162720,
      "track": 2,
      "noteNumber": 57,
      "velocity": 68,
      "ticks": 240
    },
    {
      "time": 162720,
      "track": 1,
      "noteNumber": 69,
      "velocity": 81,
      "ticks": 240
    },
    {
      "time": 162960,
      "track": 1,
      "noteNumber": 67,
      "velocity": 77,
      "ticks": 120
    },
    {
      "time": 162960,
      "track": 2,
      "noteNumber": 55,
      "velocity": 64,
      "ticks": 120
    },
    {
      "time": 162960,
      "track": 2,
      "noteNumber": 58,
      "velocity": 54,
      "ticks": 240
    },
    {
      "time": 162960,
      "track": 1,
      "noteNumber": 62,
      "velocity": 65,
      "ticks": 240
    },
    {
      "time": 163080,
      "track": 1,
      "noteNumber": 69,
      "velocity": 77,
      "ticks": 120
    },
    {
      "time": 163080,
      "track": 2,
      "noteNumber": 57,
      "velocity": 64,
      "ticks": 120
    },
    {
      "time": 163200,
      "track": 2,
      "noteNumber": 58,
      "velocity": 54,
      "ticks": 480
    },
    {
      "time": 163200,
      "track": 1,
      "noteNumber": 62,
      "velocity": 64,
      "ticks": 480
    },
    {
      "time": 163200,
      "track": 1,
      "noteNumber": 67,
      "velocity": 81,
      "ticks": 240
    },
    {
      "time": 163200,
      "track": 2,
      "noteNumber": 55,
      "velocity": 68,
      "ticks": 240
    },
    {
      "time": 163440,
      "track": 2,
      "noteNumber": 53,
      "velocity": 63,
      "ticks": 240
    },
    {
      "time": 163440,
      "track": 1,
      "noteNumber": 65,
      "velocity": 72,
      "ticks": 240
    },
    {
      "time": 163680,
      "track": 1,
      "noteNumber": 67,
      "velocity": 76,
      "ticks": 240
    },
    {
      "time": 163680,
      "track": 2,
      "noteNumber": 55,
      "velocity": 65,
      "ticks": 240
    },
    {
      "time": 163920,
      "track": 2,
      "noteNumber": 57,
      "velocity": 68,
      "ticks": 240
    },
    {
      "time": 163920,
      "track": 1,
      "noteNumber": 69,
      "velocity": 79,
      "ticks": 240
    },
    {
      "time": 164160,
      "track": 2,
      "noteNumber": 58,
      "velocity": 71,
      "ticks": 240
    },
    {
      "time": 164160,
      "track": 1,
      "noteNumber": 70,
      "velocity": 83,
      "ticks": 240
    },
    {
      "time": 164400,
      "track": 2,
      "noteNumber": 60,
      "velocity": 73,
      "ticks": 240
    },
    {
      "time": 164400,
      "track": 1,
      "noteNumber": 72,
      "velocity": 86,
      "ticks": 240
    },
    {
      "time": 164640,
      "track": 2,
      "noteNumber": 62,
      "velocity": 76,
      "ticks": 240
    },
    {
      "time": 164640,
      "track": 1,
      "noteNumber": 74,
      "velocity": 90,
      "ticks": 240
    },
    {
      "time": 164880,
      "track": 2,
      "noteNumber": 65,
      "velocity": 80,
      "ticks": 240
    },
    {
      "time": 164880,
      "track": 1,
      "noteNumber": 77,
      "velocity": 94,
      "ticks": 240
    },
    {
      "time": 165120,
      "track": 1,
      "noteNumber": 82,
      "velocity": 80,
      "ticks": 960
    },
    {
      "time": 165120,
      "track": 1,
      "noteNumber": 77,
      "velocity": 80,
      "ticks": 960
    },
    {
      "time": 165120,
      "track": 1,
      "noteNumber": 84,
      "velocity": 94,
      "ticks": 1920
    },
    {
      "time": 165120,
      "track": 2,
      "noteNumber": 62,
      "velocity": 60,
      "ticks": 960
    },
    {
      "time": 165120,
      "track": 2,
      "noteNumber": 70,
      "velocity": 72,
      "ticks": 960
    },
    {
      "time": 165120,
      "track": 2,
      "noteNumber": 72,
      "velocity": 72,
      "ticks": 960
    },
    {
      "time": 165120,
      "track": 2,
      "noteNumber": 65,
      "velocity": 60,
      "ticks": 960
    },
    {
      "time": 166080,
      "track": 2,
      "noteNumber": 65,
      "velocity": 60,
      "ticks": 480
    },
    {
      "time": 166080,
      "track": 2,
      "noteNumber": 60,
      "velocity": 60,
      "ticks": 480
    },
    {
      "time": 166080,
      "track": 1,
      "noteNumber": 77,
      "velocity": 80,
      "ticks": 480
    },
    {
      "time": 166080,
      "track": 2,
      "noteNumber": 72,
      "velocity": 72,
      "ticks": 480
    },
    {
      "time": 166080,
      "track": 1,
      "noteNumber": 81,
      "velocity": 94,
      "ticks": 480
    },
    {
      "time": 166080,
      "track": 2,
      "noteNumber": 69,
      "velocity": 60,
      "ticks": 480
    },
    {
      "time": 166560,
      "track": 2,
      "noteNumber": 58,
      "velocity": 55,
      "ticks": 480
    },
    {
      "time": 166560,
      "track": 2,
      "noteNumber": 65,
      "velocity": 55,
      "ticks": 480
    },
    {
      "time": 166560,
      "track": 1,
      "noteNumber": 79,
      "velocity": 80,
      "ticks": 80
    },
    {
      "time": 166560,
      "track": 1,
      "noteNumber": 74,
      "velocity": 80,
      "ticks": 80
    },
    {
      "time": 166560,
      "track": 2,
      "noteNumber": 67,
      "velocity": 65,
      "ticks": 480
    },
    {
      "time": 166560,
      "track": 2,
      "noteNumber": 62,
      "velocity": 55,
      "ticks": 480
    },
    {
      "time": 166640,
      "track": 1,
      "noteNumber": 81,
      "velocity": 76,
      "ticks": 80
    },
    {
      "time": 166720,
      "track": 1,
      "noteNumber": 79,
      "velocity": 76,
      "ticks": 80
    },
    {
      "time": 166800,
      "track": 1,
      "noteNumber": 77,
      "velocity": 80,
      "ticks": 80
    },
    {
      "time": 166880,
      "track": 1,
      "noteNumber": 74,
      "velocity": 76,
      "ticks": 80
    },
    {
      "time": 166960,
      "track": 1,
      "noteNumber": 77,
      "velocity": 76,
      "ticks": 80
    },
    {
      "time": 167040,
      "track": 1,
      "noteNumber": 72,
      "velocity": 73,
      "ticks": 480
    },
    {
      "time": 167040,
      "track": 1,
      "noteNumber": 77,
      "velocity": 73,
      "ticks": 480
    },
    {
      "time": 167040,
      "track": 1,
      "noteNumber": 84,
      "velocity": 87,
      "ticks": 480
    },
    {
      "time": 167040,
      "track": 1,
      "noteNumber": 81,
      "velocity": 73,
      "ticks": 480
    },
    {
      "time": 167040,
      "track": 2,
      "noteNumber": 53,
      "velocity": 63,
      "ticks": 480
    },
    {
      "time": 167040,
      "track": 2,
      "noteNumber": 60,
      "velocity": 63,
      "ticks": 480
    },
    {
      "time": 167040,
      "track": 2,
      "noteNumber": 65,
      "velocity": 63,
      "ticks": 480
    },
    {
      "time": 167040,
      "track": 2,
      "noteNumber": 69,
      "velocity": 75,
      "ticks": 480
    },
    {
      "time": 168960,
      "track": 1,
      "noteNumber": 84,
      "velocity": 83,
      "ticks": 480
    },
    {
      "time": 168960,
      "track": 1,
      "noteNumber": 89,
      "velocity": 99,
      "ticks": 480
    },
    {
      "time": 168960,
      "track": 1,
      "noteNumber": 77,
      "velocity": 83,
      "ticks": 480
    },
    {
      "time": 168960,
      "track": 1,
      "noteNumber": 81,
      "velocity": 83,
      "ticks": 480
    },
    {
      "time": 168960,
      "track": 2,
      "noteNumber": 29,
      "velocity": 57,
      "ticks": 480
    },
    {
      "time": 168960,
      "track": 2,
      "noteNumber": 36,
      "velocity": 57,
      "ticks": 480
    },
    {
      "time": 168960,
      "track": 2,
      "noteNumber": 41,
      "velocity": 68,
      "ticks": 480
    }
  ]
}
